<svg width="207" height="153" viewBox="0 0 207 153" fill="none" xmlns="http://www.w3.org/2000/svg">
<path d="M24.1214 28.7418C24.1214 28.7418 42.9378 12.2775 66.0661 20.1175C89.1943 27.9575 107.227 63.6301 129.571 64.8062C151.915 65.9822 172.692 53.8301 190.332 64.414C207.972 74.9983 211.108 120.863 177.396 125.567C143.683 130.271 124.867 113.415 110.363 114.199C95.8586 114.983 60.5782 132.623 32.7457 124.783C4.91313 116.943 -20.1751 62.8462 24.1214 28.7418Z" fill="#E8F4FF"/>
<g opacity="0.46">
<path d="M149.84 31.4324H69.4068C68.5614 31.4324 67.9439 30.6335 68.1568 29.8154L75.6654 0.966504C75.8135 0.397399 76.3275 0 76.9153 0H157.348C158.194 0 158.811 0.798922 158.598 1.61696L151.089 30.4659C150.941 31.035 150.428 31.4324 149.84 31.4324Z" fill="#BFD9FF"/>
<path d="M80.4382 6.17188H108.426" stroke="#A9C2FF" stroke-width="1.29173" stroke-miterlimit="10" stroke-linecap="round" stroke-linejoin="round"/>
<path d="M78.2852 19.0889H106.273" stroke="#A9C2FF" stroke-width="1.29173" stroke-miterlimit="10" stroke-linecap="round" stroke-linejoin="round"/>
<path d="M90.0542 14.21H118.042" stroke="#A9C2FF" stroke-width="1.29173" stroke-miterlimit="10" stroke-linecap="round" stroke-linejoin="round"/>
<path d="M79.7205 10.4775H88.1168" stroke="#A9C2FF" stroke-width="1.29173" stroke-miterlimit="10" stroke-linecap="round" stroke-linejoin="round"/>
<path d="M78.5723 14.21H86.9686" stroke="#A9C2FF" stroke-width="1.29173" stroke-miterlimit="10" stroke-linecap="round" stroke-linejoin="round"/>
<path d="M112.875 6.17188H122.85" stroke="#A9C2FF" stroke-width="1.29173" stroke-miterlimit="10" stroke-linecap="round" stroke-linejoin="round"/>
<path d="M117.763 25.1492H102.867C102.792 25.1492 102.738 25.0783 102.756 25.0056L103.423 22.4443C103.436 22.3936 103.482 22.3584 103.534 22.3584H118.43C118.505 22.3584 118.559 22.4293 118.541 22.502L117.874 25.0633C117.861 25.1139 117.815 25.1492 117.763 25.1492Z" stroke="#84AEE5" stroke-width="0.430578" stroke-miterlimit="10"/>
<path d="M99.2482 25.1492H84.3525C84.2775 25.1492 84.2228 25.0783 84.2415 25.0056L84.9081 22.4443C84.9212 22.3936 84.9669 22.3584 85.0191 22.3584H99.9148C99.9897 22.3584 100.044 22.4293 100.026 22.502L99.3592 25.0633C99.346 25.1139 99.3007 25.1492 99.2482 25.1492Z" stroke="#84AEE5" stroke-width="0.430578" stroke-miterlimit="10"/>
<path d="M143.943 21.435C143.18 20.4179 140.082 19.6782 139.226 18.6614C138.789 18.1418 138.789 17.1764 138.893 16.3558C139.198 16.1616 139.451 15.9666 139.602 15.7855C139.859 15.4099 140.149 14.8846 140.44 14.3084C140.527 14.3943 140.645 14.4614 140.796 14.4569C141.203 14.4449 142.751 12.3375 142.352 11.849C142.123 11.5697 141.755 11.8119 141.481 12.0706C141.89 11.1322 142.179 10.4128 142.179 10.4128H142.163C142.202 10.2943 142.238 10.1755 142.268 10.0547C142.882 7.59086 141.383 5.59375 138.919 5.59375C136.456 5.59375 133.96 7.59086 133.346 10.0547C133.316 10.1755 133.293 10.2947 133.273 10.4128H133.257C133.257 10.4128 133.186 11.1322 133.128 12.0706C132.983 11.8119 132.735 11.5697 132.368 11.849C131.725 12.3375 132.222 14.4449 132.623 14.4569C132.772 14.4614 132.923 14.3943 133.054 14.3084C133.057 14.8846 133.085 15.4099 133.155 15.7855C133.229 16.0067 133.445 16.2489 133.725 16.4855C133.419 17.2762 132.952 18.1692 132.292 18.6614C130.929 19.6785 127.463 20.4179 126.192 21.435C125.049 22.3497 124.03 25.0213 123.836 25.5492H144.247C144.318 25.0213 144.63 22.3497 143.943 21.435Z" fill="#8DBCF8"/>
</g>
<path d="M135.846 54.3972H55.4131C54.5677 54.3972 53.9502 53.5983 54.1628 52.7803L61.6714 23.9313C61.8195 23.3622 62.3335 22.9648 62.9213 22.9648H143.354C144.2 22.9648 144.817 23.7638 144.604 24.5818L137.096 53.4307C136.948 53.9998 136.434 54.3972 135.846 54.3972Z" stroke="#7094D8" stroke-width="0.430578" stroke-miterlimit="10"/>
<path d="M134.339 52.2439H53.906C53.0606 52.2439 52.4431 51.445 52.6561 50.6269L60.1647 21.778C60.3128 21.2089 60.8268 20.8115 61.4146 20.8115H141.847C142.693 20.8115 143.311 21.6104 143.098 22.4285L135.589 51.2774C135.441 51.8469 134.927 52.2439 134.339 52.2439Z" fill="#A5C5FF"/>
<path d="M79.1465 52.2441H119.406" stroke="#7094D8" stroke-width="0.430578" stroke-miterlimit="10"/>
<path d="M67.9514 20.8115H101.967" stroke="#7094D8" stroke-width="0.430578" stroke-miterlimit="10"/>
<path d="M127.845 47.9381H109.761C108.928 47.9381 108.422 47.2633 108.63 46.431L113.192 28.1311C113.399 27.2989 114.243 26.624 115.075 26.624H133.159C133.991 26.624 134.498 27.2989 134.29 28.1311L129.728 46.431C129.52 47.2633 128.677 47.9381 127.845 47.9381Z" fill="#B7DEFF"/>
<path d="M118.97 48.0095L120.552 41.662L117.958 40.5635C117.958 40.5635 113.122 42.3334 112.71 42.7608C112.365 43.1188 110.629 46.8214 110.076 48.0095H118.97Z" fill="#023F61"/>
<path d="M127.924 48.0095C127.964 46.8214 128.074 43.1188 127.908 42.7608C127.709 42.3334 123.756 40.5635 123.756 40.5635L120.613 41.662L119.031 48.0095H127.924Z" fill="#023F61"/>
<path d="M120.607 48.0093L123.085 42.5166L117.761 42.8218L117.24 48.0093H120.607Z" fill="#BEBECF"/>
<path d="M118.918 39.4042L117.759 40.1368L116.998 41.9678L116.801 44.4699L118.433 43.7989L119.7 45.3243L121.393 43.9207L122.431 44.8973L124.001 41.5404L123.725 39.4653L123.068 39.1602L118.918 39.4042Z" fill="#DEE0E8"/>
<path d="M119.275 34.599C119.275 34.599 118.885 33.7138 118.087 34.3028C117.288 34.8914 118.223 37.1652 118.801 36.481C119.38 35.7968 119.275 34.599 119.275 34.599Z" fill="#FB8E74"/>
<path d="M124.965 34.5518C124.965 34.5518 125.724 33.6138 126.297 34.1395C126.869 34.6651 124.987 37.0682 124.678 36.4253C124.368 35.7823 124.965 34.5518 124.965 34.5518Z" fill="#FB8E74"/>
<path d="M123.186 41.1769L124.003 36.8438L119.275 37.2535L118.232 41.3231C118.232 41.3231 119.058 43.2494 119.944 44.1038C119.944 44.1038 122.693 41.7288 123.186 41.1769Z" fill="#FB8877"/>
<path d="M127.021 32.8029C126.845 33.33 126.41 33.4616 126.378 33.769C126.346 34.0764 126.149 34.8667 125.849 35.1741C125.549 35.4816 125.394 35.5693 125.394 35.5693C125.394 35.5693 121.337 36.7112 119.277 35.1299C119.277 35.1299 119.142 34.5297 119.284 33.8125C119.424 33.1024 119.079 32.9779 119.479 32.6267C119.879 32.2754 120 31.968 120.01 31.5728C120.019 31.1777 120.05 30.6944 120.461 30.2993C120.872 29.9041 121.24 30.0357 121.64 29.6844C121.64 29.6844 122.232 28.6913 123.013 28.5784C123.795 28.4656 125.442 28.0513 126.422 29.2563C127.402 30.4612 126.95 31.5158 127.233 31.8922C127.516 32.2694 127.021 32.8029 127.021 32.8029Z" fill="#713336"/>
<path d="M119.243 33.8531C119.243 33.8531 117.329 39.1254 120.934 39.5206C124.119 39.5944 125.25 35.7074 125.706 33.7141C126.162 31.7207 125.88 29.6336 123.33 29.7018C120.781 29.7701 119.523 32.6722 119.243 33.8531Z" fill="#FBA990"/>
<path d="M120.244 31.9627C120.244 31.9627 120.48 32.3852 120.261 32.8114C120.042 33.2377 119.449 33.4015 119.36 33.9639C119.272 34.5263 119.011 35.696 118.852 35.7469C118.693 35.7983 118.806 34.605 118.832 34.196C118.859 33.7869 119.164 32.0957 120.014 31.0216C120.865 29.9475 121.39 29.4939 122.904 29.2476C124.417 29.0013 125.565 29.6382 125.986 30.562C126.407 31.4858 125.733 33.8383 125.733 33.8383C125.733 33.8383 125.834 32.72 125.459 32.4579C125.085 32.1955 124.775 32.0013 124.837 31.8479C124.899 31.6946 123.639 32.2506 122.38 31.8457C121.12 31.4408 120.713 31.6249 120.504 31.7546C120.294 31.8839 120.244 31.9627 120.244 31.9627Z" fill="#713336"/>
<path d="M116.677 42.0283C116.647 42.1505 114.917 46.27 114.917 46.27L116.436 47.0329L116.01 47.8873" stroke="#022755" stroke-width="0.183103" stroke-miterlimit="10"/>
<path d="M124.154 42.0283C124.123 42.1505 123.798 46.27 123.798 46.27L121.899 47.0329L121.899 47.8873" stroke="#022755" stroke-width="0.183103" stroke-miterlimit="10"/>
<path d="M127.845 47.9381H109.761C108.928 47.9381 108.422 47.2633 108.63 46.431L113.192 28.1311C113.399 27.2989 114.243 26.624 115.075 26.624H133.159C133.991 26.624 134.498 27.2989 134.29 28.1311L129.728 46.431C129.52 47.2633 128.677 47.9381 127.845 47.9381Z" stroke="white" stroke-width="0.430578" stroke-miterlimit="10"/>
<path d="M64.9373 27.7002H92.925" stroke="#73A5FF" stroke-width="1.29173" stroke-miterlimit="10" stroke-linecap="round" stroke-linejoin="round"/>
<path d="M62.7844 40.6182H90.7722" stroke="#73A5FF" stroke-width="1.29173" stroke-miterlimit="10" stroke-linecap="round" stroke-linejoin="round"/>
<path d="M74.5535 35.7383H102.541" stroke="#73A5FF" stroke-width="1.29173" stroke-miterlimit="10" stroke-linecap="round" stroke-linejoin="round"/>
<path d="M64.2195 32.0068H72.6158" stroke="#73A5FF" stroke-width="1.29173" stroke-miterlimit="10" stroke-linecap="round" stroke-linejoin="round"/>
<path d="M63.0713 35.7383H71.4677" stroke="#73A5FF" stroke-width="1.29173" stroke-miterlimit="10" stroke-linecap="round" stroke-linejoin="round"/>
<path d="M97.3743 27.7002H107.349" stroke="#73A5FF" stroke-width="1.29173" stroke-miterlimit="10" stroke-linecap="round" stroke-linejoin="round"/>
<path d="M102.262 46.6785H87.3666C87.2916 46.6785 87.2369 46.6076 87.2557 46.5349L87.9222 43.9735C87.9354 43.9229 87.9811 43.8877 88.0332 43.8877H102.929C103.004 43.8877 103.059 43.9586 103.04 44.0313L102.373 46.5926C102.36 46.6429 102.314 46.6785 102.262 46.6785Z" stroke="#7094D8" stroke-width="0.430578" stroke-miterlimit="10"/>
<path d="M83.7472 46.6785H68.8515C68.7765 46.6785 68.7218 46.6076 68.7405 46.5349L69.4071 43.9735C69.4202 43.9229 69.466 43.8877 69.5181 43.8877H84.4138C84.4888 43.8877 84.5435 43.9586 84.5248 44.0313L83.8582 46.5926C83.8451 46.6429 83.7993 46.6785 83.7472 46.6785Z" stroke="#7094D8" stroke-width="0.430578" stroke-miterlimit="10"/>
<path d="M100.891 17.582H118.329" stroke="#7094D8" stroke-width="0.430578" stroke-miterlimit="10"/>
<path d="M135.2 93.4363H54.767C53.9216 93.4363 53.3037 92.6374 53.517 91.8193L61.0256 62.9704C61.1737 62.4013 61.6877 62.0039 62.2756 62.0039H142.708C143.554 62.0039 144.171 62.8028 143.958 63.6209L136.45 92.4698C136.302 93.0393 135.788 93.4363 135.2 93.4363Z" fill="#BFD9FF"/>
<path d="M65.7983 68.1748H93.7861" stroke="#A9C2FF" stroke-width="1.29173" stroke-miterlimit="10" stroke-linecap="round" stroke-linejoin="round"/>
<path d="M63.6455 81.0928H91.6333" stroke="#A9C2FF" stroke-width="1.29173" stroke-miterlimit="10" stroke-linecap="round" stroke-linejoin="round"/>
<path d="M75.4146 76.2129H103.402" stroke="#A9C2FF" stroke-width="1.29173" stroke-miterlimit="10" stroke-linecap="round" stroke-linejoin="round"/>
<path d="M65.0808 72.4814H73.4772" stroke="#A9C2FF" stroke-width="1.29173" stroke-miterlimit="10" stroke-linecap="round" stroke-linejoin="round"/>
<path d="M63.9324 76.2129H72.3287" stroke="#A9C2FF" stroke-width="1.29173" stroke-miterlimit="10" stroke-linecap="round" stroke-linejoin="round"/>
<path d="M98.2354 68.1748H108.21" stroke="#A9C2FF" stroke-width="1.29173" stroke-miterlimit="10" stroke-linecap="round" stroke-linejoin="round"/>
<path d="M103.123 87.1521H88.2277C88.1527 87.1521 88.098 87.0813 88.1167 87.0085L88.7833 84.4472C88.7964 84.3966 88.8422 84.3613 88.8943 84.3613H103.79C103.865 84.3613 103.92 84.4322 103.901 84.5049L103.234 87.0663C103.221 87.1169 103.176 87.1521 103.123 87.1521Z" stroke="#84AEE5" stroke-width="0.430578" stroke-miterlimit="10"/>
<path d="M84.6084 87.1521H69.7127C69.6377 87.1521 69.5826 87.0813 69.6017 87.0085L70.2683 84.4472C70.2814 84.3966 70.3272 84.3613 70.3793 84.3613H85.275C85.35 84.3613 85.4047 84.4322 85.386 84.5049L84.7194 87.0663C84.7063 87.1169 84.6605 87.1521 84.6084 87.1521Z" stroke="#84AEE5" stroke-width="0.430578" stroke-miterlimit="10"/>
<path d="M129.304 83.4395C128.54 82.4224 125.443 81.6827 124.587 80.6659C124.15 80.1463 124.15 79.1809 124.254 78.3603C124.559 78.1661 124.812 77.9711 124.962 77.79C125.22 77.4144 125.51 76.8891 125.8 76.3129C125.888 76.3988 126.005 76.4659 126.156 76.4614C126.563 76.449 128.111 74.3417 127.712 73.8535C127.484 73.5742 127.115 73.8164 126.841 74.0751C127.251 73.1367 127.539 72.4173 127.539 72.4173H127.523C127.562 72.2988 127.598 72.18 127.628 72.0592C128.242 69.5957 126.744 67.5986 124.28 67.5986C121.816 67.5986 119.321 69.5957 118.707 72.0592C118.677 72.18 118.653 72.2992 118.633 72.4173H118.617C118.617 72.4173 118.547 73.1367 118.489 74.0751C118.343 73.8164 118.096 73.5742 117.728 73.8535C117.085 74.342 117.583 76.4494 117.984 76.4614C118.133 76.4659 118.283 76.3988 118.414 76.3129C118.417 76.8891 118.445 77.4144 118.515 77.79C118.589 78.0112 118.805 78.2534 119.086 78.49C118.779 79.2807 118.312 80.1737 117.653 80.6659C116.29 81.683 112.823 82.4227 111.552 83.4395C110.41 84.3542 109.39 87.0258 109.197 87.5537H129.608C129.678 87.0254 129.991 84.3542 129.304 83.4395Z" fill="#8DBCF8"/>
<g opacity="0.46">
<path d="M126.875 131.901H46.4426C45.5972 131.901 44.9798 131.102 45.1927 130.284L52.7013 101.435C52.8494 100.866 53.3634 100.469 53.9512 100.469H134.384C135.229 100.469 135.847 101.268 135.634 102.086L128.125 130.935C127.977 131.504 127.463 131.901 126.875 131.901Z" fill="#BFD9FF"/>
<path d="M57.4739 106.641H85.4616" stroke="#A9C2FF" stroke-width="1.29173" stroke-miterlimit="10" stroke-linecap="round" stroke-linejoin="round"/>
<path d="M55.3208 119.558H83.3086" stroke="#A9C2FF" stroke-width="1.29173" stroke-miterlimit="10" stroke-linecap="round" stroke-linejoin="round"/>
<path d="M67.0903 114.679H95.0781" stroke="#A9C2FF" stroke-width="1.29173" stroke-miterlimit="10" stroke-linecap="round" stroke-linejoin="round"/>
<path d="M56.7559 110.946H65.1522" stroke="#A9C2FF" stroke-width="1.29173" stroke-miterlimit="10" stroke-linecap="round" stroke-linejoin="round"/>
<path d="M55.6082 114.679H64.0045" stroke="#A9C2FF" stroke-width="1.29173" stroke-miterlimit="10" stroke-linecap="round" stroke-linejoin="round"/>
<path d="M89.9111 106.641H99.8862" stroke="#A9C2FF" stroke-width="1.29173" stroke-miterlimit="10" stroke-linecap="round" stroke-linejoin="round"/>
<path d="M94.7987 125.618H79.903C79.828 125.618 79.7733 125.547 79.792 125.474L80.4586 122.913C80.4717 122.862 80.5175 122.827 80.5696 122.827H95.4653C95.5403 122.827 95.595 122.898 95.5763 122.971L94.9097 125.532C94.8966 125.583 94.8512 125.618 94.7987 125.618Z" stroke="#84AEE5" stroke-width="0.430578" stroke-miterlimit="10"/>
<path d="M76.2841 125.618H61.3884C61.3134 125.618 61.2586 125.547 61.2774 125.474L61.944 122.913C61.9571 122.862 62.0028 122.827 62.0549 122.827H76.9507C77.0256 122.827 77.0804 122.898 77.0616 122.971L76.395 125.532C76.3815 125.583 76.3362 125.618 76.2841 125.618Z" stroke="#84AEE5" stroke-width="0.430578" stroke-miterlimit="10"/>
<path d="M120.979 121.905C120.216 120.888 117.118 120.148 116.262 119.131C115.825 118.612 115.825 117.646 115.929 116.825C116.234 116.631 116.487 116.436 116.638 116.255C116.895 115.88 117.185 115.354 117.476 114.778C117.563 114.864 117.681 114.931 117.832 114.927C118.239 114.914 119.787 112.807 119.388 112.319C119.16 112.039 118.791 112.282 118.517 112.54C118.927 111.602 119.215 110.883 119.215 110.883H119.199C119.238 110.764 119.274 110.645 119.304 110.524C119.918 108.061 118.42 106.063 115.956 106.063C113.492 106.063 110.997 108.061 110.383 110.524C110.353 110.645 110.329 110.764 110.309 110.883H110.293C110.293 110.883 110.223 111.602 110.165 112.54C110.019 112.282 109.772 112.039 109.404 112.319C108.761 112.807 109.259 114.915 109.66 114.927C109.809 114.931 109.959 114.864 110.09 114.778C110.093 115.354 110.121 115.88 110.191 116.255C110.265 116.476 110.481 116.719 110.762 116.955C110.455 117.746 109.988 118.639 109.329 119.131C107.966 120.148 104.499 120.888 103.228 121.905C102.086 122.819 101.066 125.491 100.873 126.019H121.284C121.354 125.491 121.666 122.819 120.979 121.905Z" fill="#8DBCF8"/>
</g>
<path d="M110.794 132.045H125.147" stroke="#7094D8" stroke-width="0.430578" stroke-miterlimit="10"/>
<path d="M61.9949 93.5801H96.1543" stroke="#7094D8" stroke-width="0.430578" stroke-miterlimit="10"/>
<path d="M103.977 93.5801H112.301" stroke="#7094D8" stroke-width="0.430578" stroke-miterlimit="10"/>
<path d="M139.93 62.1475H142.815C143.664 62.1475 144.27 62.9685 144.021 63.7794L142.8 67.7452" stroke="#7094D8" stroke-width="0.430578" stroke-miterlimit="10"/>
<path d="M48.5446 11.4216H47.0727C46.7031 11.4216 46.4785 11.1221 46.5704 10.7524L46.9374 9.28053C47.0296 8.91088 47.4038 8.61133 47.7734 8.61133H49.2453C49.615 8.61133 49.8395 8.91088 49.7477 9.28053L49.3806 10.7524C49.2884 11.1221 48.9143 11.4216 48.5446 11.4216Z" fill="#BFD9FF"/>
<path d="M47.4684 15.737H45.9966C45.6269 15.737 45.4023 15.4375 45.4942 15.0678L45.8612 13.596C45.9534 13.2263 46.3276 12.9268 46.6973 12.9268H48.1691C48.5388 12.9268 48.7634 13.2263 48.6715 13.596L48.3045 15.0678C48.2122 15.4375 47.8381 15.737 47.4684 15.737Z" fill="#EDF4FF"/>
<path d="M52.152 15.737H50.6802C50.3105 15.737 50.0859 15.4375 50.1778 15.0678L50.5448 13.596C50.637 13.2263 51.0112 12.9268 51.3809 12.9268H52.8527C53.2224 12.9268 53.4469 13.2263 53.3551 13.596L52.9881 15.0678C52.8958 15.4375 52.5217 15.737 52.152 15.737Z" fill="#BFD9FF"/>
<path d="M56.8356 15.737H55.3637C54.9941 15.737 54.7695 15.4375 54.8614 15.0678L55.2284 13.596C55.3206 13.2263 55.6948 12.9268 56.0644 12.9268H57.5363C57.906 12.9268 58.1305 13.2263 58.0387 13.596L57.6717 15.0678C57.5794 15.4375 57.2053 15.737 56.8356 15.737Z" fill="#EDF4FF"/>
<path d="M46.3678 20.1531H44.896C44.5263 20.1531 44.3018 19.8535 44.3936 19.4839L44.7606 18.012C44.8529 17.6423 45.227 17.3428 45.5967 17.3428H47.0685C47.4382 17.3428 47.6628 17.6423 47.5709 18.012L47.2039 19.4839C47.1117 19.8535 46.7371 20.1531 46.3678 20.1531Z" fill="#EDF4FF"/>
<path d="M45.1916 24.8699H43.7197C43.35 24.8699 43.1255 24.5703 43.2173 24.2007L43.5844 22.7288C43.6766 22.3591 44.0507 22.0596 44.4204 22.0596H45.8923C46.2619 22.0596 46.4865 22.3591 46.3947 22.7288L46.0276 24.2007C45.9354 24.5703 45.5609 24.8699 45.1916 24.8699Z" fill="#EDF4FF"/>
<path d="M51.0511 20.1531H49.5792C49.2096 20.1531 48.9846 19.8535 49.0768 19.4839L49.4439 18.012C49.5361 17.6423 49.9102 17.3428 50.2799 17.3428H51.7518C52.1214 17.3428 52.346 17.6423 52.2541 18.012L51.8871 19.4839C51.7949 19.8535 51.4207 20.1531 51.0511 20.1531Z" fill="#EDF4FF"/>
<path d="M48.9992 28.3826H47.5273C47.1577 28.3826 46.9331 28.083 47.0249 27.7133L47.392 26.2415C47.4842 25.8718 47.8584 25.5723 48.228 25.5723H49.6999C50.0695 25.5723 50.2941 25.8718 50.2023 26.2415L49.8352 27.7133C49.743 28.083 49.3688 28.3826 48.9992 28.3826Z" fill="#BFD9FF"/>
<path d="M72.1532 2.85317V2.85242C72.1457 2.85205 72.1386 2.85167 72.1311 2.8513C72.1086 2.8498 72.0869 2.8468 72.064 2.84568L72.0637 2.84755C71.9122 2.83818 71.7592 2.83105 71.6029 2.83105C67.2386 2.83105 62.8211 6.33004 61.6585 10.6756L61.6068 10.8833H61.6046C61.5993 10.905 61.5956 10.9264 61.5903 10.9481L61.5573 11.0812H61.5618C60.6039 15.4856 63.43 18.9913 67.9547 18.8084C72.0805 18.6412 76.2412 15.3484 77.4795 11.2672C78.8228 6.84066 76.3784 3.1486 72.1532 2.85317ZM75.1634 11.1172C74.2925 14.0186 71.3183 16.361 68.3915 16.454C65.2445 16.5537 63.2811 14.1116 63.9301 11.0403L64.0208 10.6756H64.0174C64.8546 7.63246 67.9532 5.18958 71.015 5.18958C71.1736 5.18958 71.3281 5.19783 71.4803 5.21095C74.4049 5.45801 76.089 8.03248 75.1634 11.1172Z" fill="#EBEDFC"/>
<path d="M71.7234 4.2124C71.5881 4.75489 71.8415 5.22577 72.3353 5.35661C74.7215 5.98795 75.9947 8.34685 75.1632 11.117C74.2923 14.0184 71.3181 16.3604 68.3913 16.4534C65.521 16.5445 63.6337 14.5215 63.8163 11.835C63.8542 11.2805 63.4605 10.8831 62.897 10.8831C62.1664 10.8831 61.4387 11.5422 61.3899 12.2609C61.1305 16.0943 63.8422 18.9747 67.9549 18.8082C72.0807 18.641 76.2414 15.3482 77.4797 11.267C78.6749 7.32711 76.8705 3.96759 73.4799 3.0682C72.7795 2.88187 71.9154 3.44273 71.7234 4.2124Z" fill="#A5C5FF"/>
<path d="M92.0324 2.04751L92.0327 2.04676C92.0256 2.04639 92.0185 2.04601 92.0117 2.04564C91.984 2.04376 91.9559 2.04264 91.9281 2.04076C91.7815 2.03176 91.6338 2.02539 91.4824 2.02539C87.0686 2.02539 82.5979 5.60348 81.4975 10.0176C80.3972 14.4314 83.083 18.0098 87.4971 18.0098C87.6478 18.0098 87.7986 18.0035 87.9493 17.9945C87.9778 17.993 88.0059 17.9915 88.0344 17.99C88.0422 17.9896 88.0501 17.9892 88.058 17.9885V17.9877C92.2603 17.7039 96.3805 14.2821 97.4625 10.0873C97.4685 10.0641 97.4756 10.0412 97.4816 10.018C98.5358 5.79056 96.1154 2.33281 92.0324 2.04751ZM88.482 15.6356C88.4745 15.6359 88.4674 15.6367 88.4599 15.6371C88.3669 15.6431 88.2739 15.6468 88.181 15.6487C88.1491 15.6491 88.1169 15.6509 88.085 15.6509C84.9737 15.6509 83.0804 13.1286 83.8561 10.0172C84.6317 6.9059 87.7828 4.38354 90.8941 4.38354C90.926 4.38354 90.9571 4.38542 90.9886 4.38579C91.0812 4.38729 91.1727 4.39142 91.2631 4.39741C91.2709 4.39779 91.2784 4.39854 91.2863 4.39929C94.1618 4.60286 95.8654 7.03937 95.1227 10.0172C95.1167 10.0405 95.1096 10.0633 95.1036 10.0866C94.3335 13.0345 91.4366 15.4354 88.482 15.6356Z" fill="white"/>
<path d="M94.7609 11.071C93.77 13.3302 91.5498 15.1118 89.1846 15.5474C88.5941 15.6561 88.0595 16.1353 87.9163 16.7089C87.7311 17.4515 88.2705 18.0053 89.035 17.8666C92.4057 17.2543 95.5737 14.7129 96.9773 11.4906C97.2949 10.7621 96.9098 10.0869 96.1687 10.0869C95.5932 10.0869 95.0091 10.5049 94.7609 11.071Z" fill="#BFD9FF"/>
<path d="M70.8298 30.1726H55.9341C55.8591 30.1726 55.804 30.1018 55.8232 30.029L56.4897 27.4677C56.5029 27.4171 56.5486 27.3818 56.6007 27.3818H71.4964C71.5714 27.3818 71.6261 27.4527 71.6074 27.5254L70.9408 30.0868C70.9277 30.1374 70.8819 30.1726 70.8298 30.1726Z" fill="#EDF4FF"/>
<path d="M139.925 42.0604C143.025 39.3227 143.808 35.1433 141.673 32.7255C139.538 30.3077 135.294 30.567 132.193 33.3047C129.093 36.0424 128.31 40.2218 130.445 42.6396C132.58 45.0574 136.824 44.7981 139.925 42.0604Z" fill="#73A5FF"/>
<path d="M145.831 44.7807C145.581 45.7802 144.569 46.5908 143.569 46.5908C142.57 46.5908 141.961 45.7806 142.211 44.7807C142.46 43.7812 143.472 42.9707 144.472 42.9707C145.472 42.9707 146.08 43.7809 145.831 44.7807Z" fill="#73A5FF"/>
<path d="M134.349 41.0369C134.141 41.0369 133.953 40.9574 133.834 40.7988L132.125 38.522C131.886 38.2044 132.015 37.6897 132.412 37.3722C132.809 37.0546 133.323 37.0546 133.561 37.3722L134.839 39.0738L139.403 35.4208C139.8 35.1032 140.315 35.1032 140.553 35.4208C140.791 35.7383 140.663 36.2531 140.266 36.5706L134.984 40.7988C134.785 40.9574 134.558 41.0369 134.349 41.0369Z" fill="white"/>
<path d="M178.036 153C193.613 153 206.239 151.94 206.239 150.632C206.239 149.324 193.613 148.264 178.036 148.264C162.46 148.264 149.833 149.324 149.833 150.632C149.833 151.94 162.46 153 178.036 153Z" fill="#BFD9FF"/>
<path d="M179.113 24.543C179.113 24.543 178.395 25.9781 177.964 29.1359C177.534 32.2934 178.682 50.5216 178.682 50.5216L191.025 49.2301L185.428 25.4045L179.113 24.543Z" fill="#024470"/>
<path d="M171.793 101.545L167.488 122.859L175.884 123.074C175.884 123.074 178.037 104.128 177.175 104.128C176.314 104.128 171.793 101.545 171.793 101.545Z" fill="#45242C"/>
<path d="M191.313 147.546C191.313 147.546 188.155 150.847 186.864 151.564C187.151 152.138 191.743 152.138 193.466 151.277C195.188 150.416 196.48 148.407 196.48 148.407L196.337 150.56H197.198C197.198 150.56 198.059 147.545 198.059 146.828C198.059 146.11 197.198 145.105 197.198 145.105L191.313 147.546Z" fill="#713336"/>
<path d="M190.021 105.062L193.178 143.814L196.91 143.527C196.91 143.527 201.216 115.109 199.494 105.349C197.771 95.589 190.021 105.062 190.021 105.062Z" fill="#FF8D68"/>
<path d="M193.179 143.814C193.179 143.814 192.03 146.828 190.452 148.264C188.873 149.699 192.891 149.699 194.614 148.264C196.336 146.828 196.48 145.967 197.054 145.68C197.628 145.393 196.91 143.527 196.91 143.527L193.179 143.814Z" fill="#FF8D68"/>
<path d="M165.396 146.895C165.396 146.895 161.728 149.616 160.333 150.106C160.52 150.721 165.047 151.495 166.889 150.937C168.732 150.378 170.344 148.615 170.344 148.615L169.84 150.713L170.688 150.858C170.688 150.858 172.045 148.033 172.166 147.325C172.287 146.618 171.608 145.482 171.608 145.482L165.396 146.895Z" fill="#713336"/>
<path d="M171.284 104.802L167.865 143.532L171.591 143.878C171.591 143.878 180.626 116.592 180.573 106.681C180.52 96.771 171.284 104.802 171.284 104.802Z" fill="#FF8D68"/>
<path d="M167.865 143.531C167.865 143.531 166.225 146.309 164.427 147.457C162.629 148.606 166.59 149.283 168.529 148.159C170.469 147.034 170.756 146.21 171.37 146.024C171.984 145.837 171.592 143.877 171.592 143.877L167.865 143.531Z" fill="#FF8D68"/>
<path d="M158.06 43.229L150.64 41.7676C150.64 41.7676 150.528 42.7794 151.202 43.0044C151.877 43.2293 151.877 43.2293 151.877 43.2293C151.877 43.2293 153.563 47.2764 154.35 47.7263C155.137 48.1758 159.86 50.1249 159.86 50.1249L161.095 45.3655L158.06 43.229Z" fill="#FF7759"/>
<path d="M163.397 49.2298C163.397 49.2298 163.325 48.7275 162.332 46.7142C161.232 44.4824 160.984 43.5665 160.984 43.5665C160.984 43.5665 157.498 42.2176 156.936 41.5428C156.374 40.8683 156.037 40.7559 156.037 40.7559C156.037 40.7559 155.363 41.9923 156.375 42.8917C157.386 43.7911 158.286 44.4655 158.286 44.4655C158.286 44.4655 158.173 47.0513 158.511 48.2881C158.848 49.5249 159.862 50.1247 159.862 50.1247L163.397 49.2298Z" fill="#FF8D68"/>
<path d="M174.951 53.3917C174.951 53.3917 169.927 61.4293 169.784 60.7118C169.64 59.9942 163.325 48.9424 163.325 48.9424L159.861 50.1245C159.861 50.1245 165.047 66.3091 168.349 68.8926C168.349 68.8926 168.636 69.3229 169.641 69.1797C170.645 69.0361 178.396 60.9986 178.396 60.9986L174.951 53.3917Z" fill="#FF8D68"/>
<path d="M179.651 43.8477C179.651 43.8477 176.96 44.924 175.668 46.7899C174.377 48.6558 170.645 57.1238 170.645 57.1238C170.645 57.1238 172.654 60.712 177.247 62.0035L183.562 50.3777L179.651 43.8477Z" fill="#E86D5E"/>
<path d="M176.314 71.4046C176.314 71.4046 176.529 74.8492 176.529 76.1411C176.529 76.1411 171.362 101.115 171.147 106.928C170.932 112.74 175.238 124.581 175.238 124.581C175.238 124.581 193.753 124.151 199.781 122.859L200.427 110.372C200.427 110.372 201.288 88.6277 200.427 82.3844C199.566 76.1411 195.906 72.9117 195.906 72.9117L194.83 69.8975L176.314 71.4046Z" fill="#713336"/>
<path d="M192.138 42.3398C192.138 42.3398 196.982 44.6005 198.489 46.9684C199.996 49.3367 204.517 62.1464 204.517 62.1464C204.517 62.1464 199.458 63.9763 195.045 63.9763C195.045 63.9763 195.475 68.0669 195.906 69.3585C196.336 70.65 194.829 71.1884 194.829 71.1884C194.829 71.1884 184.28 74.095 176.422 72.3723C176.422 72.3723 175.453 72.1571 175.453 71.7264C175.453 71.2956 175.561 70.2193 175.561 70.2193C175.561 70.2193 174.807 62.8992 174.592 61.6077C174.377 60.3158 172.009 56.7995 172.224 55.4C172.439 54.0005 176.099 47.506 176.099 47.506C176.099 47.506 178.575 44.5998 179.651 43.8462C180.728 43.0927 183.419 43.0927 183.419 43.0927L192.138 42.3398Z" fill="#E86D5E"/>
<path d="M182.958 38.4668C182.962 38.6355 183.576 42.2889 181.553 44.8746C179.529 47.5166 187.511 47.4041 189.366 44.7059C191.052 42.2889 190.884 41.8953 190.884 41.8953C190.884 41.8953 189.535 37.5108 189.928 34.6439C189.816 32.0585 182.845 33.6324 182.958 38.4668Z" fill="#FF8D68"/>
<path d="M182.907 23.2158C182.907 23.2158 180.58 23.8116 179.261 27.3848C177.943 30.958 178.822 38.5513 179.701 39.4447C180.579 40.3381 183.249 39.9966 186.951 38.7748C190.863 37.4836 192.185 33.417 192.883 30.7349C194.222 25.598 189.756 20.3126 182.907 23.2158Z" fill="#FF8D68"/>
<path d="M178.395 27.2705C178.395 27.2705 180.548 32.4375 188.729 32.7246L190.631 41.8566C190.631 41.8566 194.114 43.5298 195.475 44.2785C195.475 44.2785 197.054 27.7009 193.322 23.6823C189.591 19.6637 182.989 20.6681 180.405 22.9648C177.822 25.2614 178.395 27.2705 178.395 27.2705Z" fill="#024470"/>
<path d="M192.138 42.3405L190.308 40.6182C190.308 40.6182 188.693 45.2467 182.988 45.5699C182.988 45.5699 182.235 44.386 182.665 42.6636L181.697 43.4172C181.697 43.4172 179.651 46.3235 179.867 47.1846C180.082 48.0458 182.809 46.5387 182.809 46.5387C182.809 46.5387 186.038 48.4762 187.33 48.5838C188.621 48.6917 191.923 42.6636 192.138 42.3405Z" fill="white"/>
<path d="M188.857 32.5912C188.857 32.5912 189.72 31.1677 190.583 31.6922C191.446 32.2167 190.033 35.4379 188.857 35.5129C187.679 35.5879 188.307 33.4153 188.857 32.5912Z" fill="#FF7759"/>
<path d="M190.882 51.6699L194.183 63.4389" stroke="#BB524F" stroke-width="0.430578" stroke-miterlimit="10"/>
<path d="M188.837 52.3516C188.837 52.3516 189.591 54.6122 192.067 56.119" stroke="#BB524F" stroke-width="0.430578" stroke-miterlimit="10"/>
<path d="M192.604 49.5527C192.604 49.5527 193.035 46.5384 196.48 46.3232" stroke="#BB524F" stroke-width="0.430578" stroke-miterlimit="10"/>
<path d="M175.704 48.2607C175.704 48.2607 172.188 54.0376 172.224 55.4012C172.26 56.7647 174.52 60.6401 174.52 60.6401L177.319 67.9601" stroke="#BB524F" stroke-width="0.430578" stroke-miterlimit="10"/>
<path d="M187.868 72.2657L191.636 67.96" stroke="#BB524F" stroke-width="0.430578" stroke-miterlimit="10"/>
<path d="M156.292 44.4937L151.877 43.2295C151.877 43.2295 152.273 44.2065 152.56 44.4937C152.848 44.7809 155.933 45.8572 155.933 45.8572" stroke="#0085F9" stroke-width="0.384652" stroke-miterlimit="10"/>
<path d="M152.561 44.4932C152.561 44.4932 152.991 45.7847 153.207 46.0003C153.422 46.2155 156.149 47.005 156.149 47.005" stroke="#0085F9" stroke-width="0.384652" stroke-miterlimit="10"/>
<path d="M156.938 43.417L158.285 44.466L159.306 44.2062" stroke="#0085F9" stroke-width="0.384652" stroke-miterlimit="10"/>
<path d="M183.419 39.6848C183.419 39.6848 186.146 39.1108 187.581 36.5273" stroke="#0085F9" stroke-width="0.384652" stroke-miterlimit="10"/>
<path d="M181.051 33.3701L180.549 36.0972L181.481 36.3124" stroke="#0085F9" stroke-width="0.384652" stroke-miterlimit="10"/>
<path d="M180.907 37.5317C180.907 37.5317 182.271 37.8188 183.706 37.0293" stroke="#0085F9" stroke-width="0.384652" stroke-miterlimit="10"/>
<path d="M186.002 34.7699C186.002 35.5032 185.408 36.0975 184.675 36.0975C183.942 36.0975 183.347 35.5032 183.347 34.7699C183.347 34.0366 183.942 33.4424 184.675 33.4424C185.408 33.4424 186.002 34.0366 186.002 34.7699Z" fill="#FA6157"/>
<path d="M183.419 32.9751C183.419 33.1536 183.274 33.2979 183.096 33.2979C182.918 33.2979 182.773 33.1532 182.773 32.9751C182.773 32.7967 182.918 32.6523 183.096 32.6523C183.274 32.6523 183.419 32.7971 183.419 32.9751Z" fill="#024470"/>
<path d="M179.939 32.9751C179.939 33.1536 179.794 33.2979 179.616 33.2979C179.438 33.2979 179.293 33.1532 179.293 32.9751C179.293 32.7967 179.438 32.6523 179.616 32.6523C179.794 32.6523 179.939 32.7971 179.939 32.9751Z" fill="#024470"/>
<path d="M177.642 75.387C177.642 75.387 183.562 77.2169 189.16 74.8486" stroke="#562525" stroke-width="0.430578" stroke-miterlimit="10"/>
<path d="M179.4 77.5047C179.4 77.5047 182.414 78.5095 187.294 76.6436" stroke="#562525" stroke-width="0.430578" stroke-miterlimit="10"/>
<path d="M178.103 75.9609L166.729 82.5273L175.449 97.6292L186.822 91.0628L178.103 75.9609Z" fill="white"/>
<path d="M188.873 81.8103C188.873 81.8103 187.079 83.7838 186.541 84.2146C186.002 84.645 182.342 84.9681 182.342 84.9681C182.342 84.9681 180.728 87.6592 180.297 87.5516C179.867 87.444 179.974 87.1212 179.974 87.1212C179.974 87.1212 179.867 82.2771 180.19 81.7391C180.512 81.2007 185.787 79.694 185.787 79.694L186.433 78.9404L188.873 81.8103Z" fill="#FF8D68"/>
<path d="M202.938 62.6494C203.082 63.0802 204.23 66.4528 204.804 68.1751C205.378 69.8974 192.461 78.9398 190.451 80.5185L188.873 81.81L186.433 78.9394L197.771 67.6008L196.121 63.869L202.938 62.6494Z" fill="#FF8D68"/>
<path d="M180.297 87.5513L180.979 84.5371" stroke="#0085F9" stroke-width="0.384652" stroke-miterlimit="10"/>
<path d="M179.902 84.8239L180.692 83.1016" stroke="#0085F9" stroke-width="0.384652" stroke-miterlimit="10"/>
<path d="M180.19 81.7383L179.902 87.5512H180.835L182.342 84.9677" stroke="#0085F9" stroke-width="0.384652" stroke-miterlimit="10"/>
<path d="M33.9351 153C49.5112 153 62.1381 151.94 62.1381 150.632C62.1381 149.324 49.5112 148.264 33.9351 148.264C18.3591 148.264 5.73218 149.324 5.73218 150.632C5.73218 151.94 18.3591 153 33.9351 153Z" fill="#BFD9FF"/>
<path d="M22.5811 143.013C22.5811 143.013 23.1795 141.731 25.4019 142.073C27.6243 142.415 27.8808 142.842 28.1372 143.953C28.3936 145.064 29.1629 146.261 29.6758 146.517C30.1887 146.774 32.0692 148.056 33.6078 148.313C35.1464 148.569 35.3174 149.509 34.9755 149.937C34.6335 150.364 28.8214 150.706 27.5392 150.535C27.5392 150.535 23.1798 150.449 22.1545 150.108C21.1284 149.766 22.4956 143.44 22.5811 143.013Z" fill="#2D2737"/>
<path d="M20.1128 112.967C20.1128 112.967 19.4627 109.427 23.2009 108.239C26.9391 107.051 27.6465 108.779 28.7783 112.007C29.9102 115.236 27.8058 142.817 27.8058 142.817C27.8058 142.817 23.5012 143.552 22.3971 142.9C22.3971 142.9 19.1178 124.945 19.3461 120.018C19.5744 115.091 20.1128 112.967 20.1128 112.967Z" fill="#3D4776"/>
<path d="M21.9402 141.817C21.9402 141.817 26.8124 141.389 28.3511 141.133L28.2656 143.355C28.2656 143.355 24.4191 144.039 22.0257 143.697L21.9402 141.817Z" fill="#51598D"/>
<path d="M20.7438 43.8613C20.7438 43.8613 17.6666 44.0323 15.786 51.0411C13.9055 58.05 12.7088 66.5978 13.3926 68.8202C14.0765 71.0427 21.4272 77.0258 24.1625 77.0258C26.8978 77.0258 27.0688 74.9743 26.5559 73.2647C26.043 71.5552 20.7438 66.9397 20.7438 66.9397C20.7438 66.9397 25.0177 53.2636 24.8467 49.6735C24.6754 46.0838 22.6239 43.8613 20.7438 43.8613Z" fill="#7E78C7"/>
<path d="M59.2739 41.7708L58.7637 41.8229L59.9075 39.5585C59.9075 39.5585 62.8149 39.3752 63.2813 40.603L61.9477 43.5606L59.2739 41.7708Z" fill="#FF8D68"/>
<path d="M60.9081 35.3356C60.9081 35.3356 60.7945 33.0213 61.6182 32.6925C62.4415 32.3637 63.3638 33.0041 63.3638 33.0041C63.3638 33.0041 64.6966 32.8684 65.1217 33.4371C65.5468 34.0058 65.5123 34.8662 65.5123 34.8662C65.5123 34.8662 66.264 35.0346 66.4594 35.7491C66.6547 36.4637 66.3056 37.8456 66.3056 37.8456C66.3056 37.8456 65.4351 38.9137 64.4289 38.649C63.4226 38.3843 60.9081 35.3356 60.9081 35.3356Z" fill="#FF7759"/>
<path d="M59.3847 37.2046C59.3847 37.2046 59.0762 34.1758 59.4024 33.7754C59.7289 33.375 63.0659 28.7588 63.0659 28.7588C63.0659 28.7588 63.758 29.545 63.3599 30.4425C62.9617 31.34 61.3901 34.0626 61.3901 34.0626L61.3822 36.3892C61.3822 36.3892 60.3542 37.106 59.3847 37.2046Z" fill="#FF7759"/>
<path d="M59.6319 39.6272C59.6319 39.6272 58.8344 34.7628 59.3784 34.0954C59.9224 33.4277 62.5895 33.8173 63.099 34.01C63.6081 34.203 65.0174 36.0179 65.2127 36.7325C65.408 37.4471 64.0797 40.0305 63.2812 40.6019C62.4826 41.1729 60.0941 40.5595 59.6319 39.6272Z" fill="#FF8D68"/>
<path d="M57.7544 42.8353L58.7801 40.9548C58.7801 40.9548 61.1735 40.5274 62.3702 42.408C62.7121 43.0918 62.5412 43.0918 62.5412 43.0918L61.7719 44.6304L57.7544 42.8353Z" fill="#DEE0E8"/>
<path d="M33.4039 22.2563C33.4039 22.2563 35.933 22.9034 37.3655 26.7866C38.798 30.6699 37.8431 38.9216 36.8879 39.8922C35.9326 40.8628 33.0316 40.492 29.0085 39.1641C24.7578 37.7612 23.3216 33.3419 22.562 30.427C21.1074 24.845 25.9613 19.1011 33.4039 22.2563Z" fill="#FF8D68"/>
<path d="M24.3335 43.6905L26.385 36.3397C26.385 36.3397 30.4879 35.143 33.0519 37.8783L33.9067 39.075V43.8618C33.9067 43.8618 29.6331 44.7162 24.3335 43.6905Z" fill="#FF8D68"/>
<path d="M18.6069 83.2656C18.6069 83.2656 17.0683 92.2404 18.6069 102.497C20.1455 112.754 23.2228 113.78 26.0432 113.78C28.8639 113.78 29.6332 105.575 30.1461 101.985C30.659 98.3945 32.7105 86.086 28.8639 83.2652C25.0174 80.4448 20.6584 80.1884 18.6069 83.2656Z" fill="#3D4776"/>
<path d="M29.3768 95.3176C29.3768 95.3176 26.2995 87.1121 31.6847 83.522C37.0698 79.9319 41.1724 80.4448 42.4546 86.3428C43.7367 92.2408 43.9932 112.498 42.1981 116.601C40.4031 120.704 33.9922 114.293 29.3768 95.3176Z" fill="#3D4776"/>
<path d="M38.3389 22.6075C38.3389 22.6075 39.5525 24.1851 38.8244 26.0053C38.0963 27.8254 35.4267 28.5535 35.4267 28.5535C35.4267 28.5535 36.2762 29.767 35.4267 31.4657L34.8201 32.4364C34.8201 32.4364 35.6696 34.378 35.4267 34.8635C35.1841 35.349 34.3346 35.2275 34.3346 35.2275C34.3346 35.2275 33.3639 32.5578 32.9995 32.8004C32.6355 33.043 31.6649 34.2565 31.6649 35.3486C31.6649 36.4407 32.0289 37.2903 31.7863 38.0183C31.5438 38.7464 27.782 38.7464 26.2044 38.5038C24.6268 38.2613 22.2 33.4074 21.593 31.2228C21.593 31.2228 20.7435 28.1891 21.9571 25.6409C21.9571 25.6409 21.7145 23.4567 23.7772 21.2725C25.8403 19.0883 32.3929 19.8163 33.485 20.6659C33.485 20.6659 33.3635 19.4523 34.5771 19.6952C35.7907 19.9378 37.6108 21.0299 38.3389 22.6075Z" fill="#C53A45"/>
<path d="M34.6985 33.6499C34.6985 33.6499 34.3345 32.0723 32.9994 32.8004C31.6648 33.5284 33.242 37.2902 34.3345 37.0477C35.4266 36.8047 34.9411 34.2565 34.6985 33.6499Z" fill="#FF7759"/>
<path d="M23.2483 43.652C23.2483 43.652 23.8208 41.6395 24.3336 41.4686C24.8465 41.2976 31.1715 40.6138 34.5907 42.6653C36.1293 43.862 35.9583 44.7167 35.9583 44.7167C35.9583 44.7167 25.7527 42.7582 23.2483 43.652Z" fill="#DEE0E8"/>
<path d="M21.9403 43.178C21.9403 43.178 32.5392 42.4942 40.0613 45.7424C43.4804 47.4519 51.3013 55.1874 51.3013 55.1874L57.4554 42.366C57.4554 42.366 60.9173 41.1266 62.2849 44.3747C62.2849 44.3747 58.3957 59.504 55.1479 64.2904C53.0964 66 43.3095 60.4439 43.3095 60.4439C43.3095 60.4439 44.8481 80.2741 44.3352 89.1638C43.6514 90.8734 30.3172 91.7282 27.9238 91.5572C25.5304 91.3863 17.1539 88.651 16.9829 88.1381C16.812 87.6252 18.1796 67.1112 17.8377 64.7178C17.4958 62.3244 16.4701 50.5288 16.812 48.8192C17.1539 47.11 18.6925 43.8619 21.9403 43.178Z" fill="#7E78C7"/>
<path d="M33.2233 143.527C33.2233 143.527 33.8217 142.244 36.0441 142.586C38.2665 142.928 38.523 143.356 38.7794 144.467C39.0358 145.578 39.8052 146.775 40.318 147.031C40.8309 147.288 42.7114 148.57 44.25 148.826C45.7886 149.083 45.9596 150.023 45.6177 150.45C45.2758 150.878 39.4636 151.22 38.1814 151.049C38.1814 151.049 33.822 150.963 32.7963 150.621C31.7702 150.279 33.1375 143.954 33.2233 143.527Z" fill="#3E3343"/>
<path d="M34.2486 113.524C34.2486 113.524 33.9922 109.934 37.8387 109.165C41.6853 108.396 42.1981 110.191 42.9674 113.524C43.7367 116.858 38.608 144.039 38.608 144.039C38.608 144.039 34.2486 144.295 33.2233 143.526C33.2233 143.526 31.9411 125.32 32.7104 120.448C33.4793 115.575 34.2486 113.524 34.2486 113.524Z" fill="#3D4776"/>
<path d="M32.8814 143.953C32.8814 143.953 36.215 144.894 39.0354 144.381L39.2919 142.415L32.7959 141.987L32.8814 143.953Z" fill="#51598D"/>
<path d="M28.3511 93.3945C28.3511 93.3945 31.9412 104.934 34.6333 110.575" stroke="#2A2E59" stroke-width="0.384652" stroke-miterlimit="10"/>
<path d="M35.6592 112.883C35.6592 112.883 37.8389 111.601 40.0186 112.883" stroke="#2A2E59" stroke-width="0.384652" stroke-miterlimit="10"/>
<path d="M35.2744 114.294C35.2744 114.294 37.0695 113.268 40.1467 115.448" stroke="#2A2E59" stroke-width="0.384652" stroke-miterlimit="10"/>
<path d="M21.812 111.344C21.812 111.344 23.2224 110.062 26.4278 111.472" stroke="#2A2E59" stroke-width="0.384652" stroke-miterlimit="10"/>
<path d="M22.8376 112.627C22.8376 112.627 24.8891 111.601 26.8124 113.14" stroke="#2A2E59" stroke-width="0.384652" stroke-miterlimit="10"/>
<path d="M27.5818 114.678L26.8125 140.833" stroke="#2A2E59" stroke-width="0.384652" stroke-miterlimit="10"/>
<path d="M38.1807 92.7533C38.1807 92.7533 41.0869 94.4628 42.2836 91.7275" stroke="#2A2E59" stroke-width="0.384652" stroke-miterlimit="10"/>
<path d="M41.0869 93.0957C41.0869 93.0957 42.4546 103.695 42.1127 110.704" stroke="#2A2E59" stroke-width="0.384652" stroke-miterlimit="10"/>
<path d="M16.8118 53.2637L18.1794 67.9652" stroke="#524B81" stroke-width="0.384652" stroke-miterlimit="10"/>
<path d="M40.2749 58.3926C40.2749 58.3926 50.4037 65.7006 55.1477 64.2906" stroke="#524B81" stroke-width="0.384652" stroke-miterlimit="10"/>
<path d="M52.3269 56.5977C52.3269 56.5977 54.3784 57.7516 54.2502 60.4442" stroke="#524B81" stroke-width="0.384652" stroke-miterlimit="10"/>
<path d="M51.814 55.5713C51.814 55.5713 53.9937 54.9303 55.2758 57.1099" stroke="#524B81" stroke-width="0.384652" stroke-miterlimit="10"/>
<path d="M39.8903 46.7246C39.8903 46.7246 34.5056 49.5454 38.0953 56.0841" stroke="#524B81" stroke-width="0.384652" stroke-miterlimit="10"/>
<path d="M32.2617 38.1982C32.2617 38.1982 33.1592 40.5062 36.1723 40.1215" stroke="#0085F9" stroke-width="0.384652" stroke-miterlimit="10"/>
<path d="M61.2803 33.4551L62.2846 32.5576C62.2846 32.5576 62.9895 32.5539 63.3636 33.0045" stroke="#0085F9" stroke-width="0.384652" stroke-miterlimit="10"/>
<path d="M62.4771 33.6039C62.4771 33.5398 63.9088 32.7705 63.9088 32.7705C63.9088 32.7705 65.2124 33.0911 65.4047 33.7749C65.597 34.4587 65.4474 34.822 65.4474 34.822" stroke="#0085F9" stroke-width="0.384652" stroke-miterlimit="10"/>
<path d="M64.1653 34.8436C64.2294 34.8223 65.9817 34.9291 65.9817 34.9291C65.9817 34.9291 66.6228 35.3565 66.6014 36.1899C66.58 37.0233 66.3056 37.8455 66.3056 37.8455C66.3056 37.8455 65.6825 38.7325 64.614 38.7112" stroke="#0085F9" stroke-width="0.384652" stroke-miterlimit="10"/>
<path d="M65.1696 36.6387C65.1696 36.6387 65.3833 36.9806 65.1055 37.6003C64.8277 38.22 64.4914 39.843 63.2812 40.6022" stroke="#0085F9" stroke-width="0.384652" stroke-miterlimit="10"/>
<path d="M28.7997 25.5059C26.2994 24.2879 23.094 25.7624 23.094 25.7624C23.094 25.7624 23.4786 24.0955 25.2737 23.5186" stroke="#A03A45" stroke-width="0.51287" stroke-miterlimit="10"/>
<path d="M23.2224 26.7876C23.2224 26.7876 23.8635 26.7235 24.6969 28.0057" stroke="#A03A45" stroke-width="0.51287" stroke-miterlimit="10"/>
<path d="M34.2485 21.0391C34.2485 21.0391 37.4112 21.5519 37.4967 24.7146" stroke="#A03A45" stroke-width="0.51287" stroke-miterlimit="10"/>
</svg>
