<svg width="200" height="153" viewBox="0 0 200 153" fill="none" xmlns="http://www.w3.org/2000/svg">
<path d="M158.345 13.4774V152.522H30.8406V13.4774C30.8406 9.14988 34.3506 5.64453 38.6781 5.64453H150.512C154.84 5.64453 158.345 9.15035 158.345 13.4774Z" fill="#DFE3E8"/>
<path d="M158.345 13.4774V32.1859H30.8406V13.4774C30.8406 9.14988 34.3506 5.64453 38.6781 5.64453H150.512C154.84 5.64453 158.345 9.15035 158.345 13.4774Z" fill="#0085F9"/>
<path d="M48.9179 15.5036C47.4964 15.5036 46.3442 14.3514 46.3442 12.9299V2.57366C46.3442 1.15215 47.4964 0 48.9179 0C50.3394 0 51.4916 1.15215 51.4916 2.57366V12.9299C51.4916 14.3509 50.3389 15.5036 48.9179 15.5036Z" fill="#F1CB64"/>
<path d="M64.5431 15.5036C63.1216 15.5036 61.9695 14.3514 61.9695 12.9299V2.57366C61.9695 1.15215 63.1216 0 64.5431 0C65.9647 0 67.1168 1.15215 67.1168 2.57366V12.9299C67.1168 14.3509 65.9647 15.5036 64.5431 15.5036Z" fill="#F1CB64"/>
<path d="M80.1686 15.5036C78.7471 15.5036 77.595 14.3514 77.595 12.9299V2.57366C77.595 1.15215 78.7471 0 80.1686 0C81.5901 0 82.7423 1.15215 82.7423 2.57366V12.9299C82.7418 14.3509 81.5897 15.5036 80.1686 15.5036Z" fill="#F1CB64"/>
<path d="M95.7941 15.5036C94.3726 15.5036 93.2205 14.3514 93.2205 12.9299V2.57366C93.2205 1.15215 94.3726 0 95.7941 0C97.2156 0 98.3678 1.15215 98.3678 2.57366V12.9299C98.3678 14.3509 97.2156 15.5036 95.7941 15.5036Z" fill="#F1CB64"/>
<path d="M111.42 15.5036C109.999 15.5036 108.846 14.3514 108.846 12.9299V2.57366C108.846 1.15215 109.999 0 111.42 0C112.842 0 113.994 1.15215 113.994 2.57366V12.9299C113.994 14.3509 112.841 15.5036 111.42 15.5036Z" fill="#F1CB64"/>
<path d="M127.045 15.5036C125.624 15.5036 124.472 14.3514 124.472 12.9299V2.57366C124.472 1.15215 125.624 0 127.045 0C128.467 0 129.619 1.15215 129.619 2.57366V12.9299C129.619 14.3509 128.467 15.5036 127.045 15.5036Z" fill="#F1CB64"/>
<path d="M142.672 15.5036C141.25 15.5036 140.098 14.3514 140.098 12.9299V2.57366C140.098 1.15215 141.25 0 142.672 0C144.093 0 145.245 1.15215 145.245 2.57366V12.9299C145.245 14.3509 144.093 15.5036 142.672 15.5036Z" fill="#F1CB64"/>
<path d="M58.3626 57.2332H44.619C42.1803 57.2332 40.2036 55.256 40.2036 52.8178C40.2036 50.379 42.1808 48.4023 44.619 48.4023H58.3626C60.8014 48.4023 62.7781 50.3795 62.7781 52.8178C62.7781 55.256 60.8014 57.2332 58.3626 57.2332Z" fill="#C7CACF"/>
<path d="M87.0406 57.2332H73.297C70.8582 57.2332 68.8816 55.256 68.8816 52.8178C68.8816 50.379 70.8587 48.4023 73.297 48.4023H87.0406C89.4794 48.4023 91.456 50.3795 91.456 52.8178C91.4565 55.256 89.4794 57.2332 87.0406 57.2332Z" fill="#C7CACF"/>
<path d="M115.718 57.2332H101.974C99.5353 57.2332 97.5586 55.256 97.5586 52.8178C97.5586 50.379 99.5357 48.4023 101.974 48.4023H115.718C118.156 48.4023 120.133 50.3795 120.133 52.8178C120.134 55.256 118.156 57.2332 115.718 57.2332Z" fill="#C7CACF"/>
<path d="M144.395 57.2332H130.652C128.213 57.2332 126.236 55.256 126.236 52.8178C126.236 50.379 128.213 48.4023 130.652 48.4023H144.395C146.834 48.4023 148.811 50.3795 148.811 52.8178C148.811 55.256 146.834 57.2332 144.395 57.2332Z" fill="#C7CACF"/>
<path d="M62.7785 66.5518H40.2036V87.1288H62.7785V66.5518Z" fill="#8CBEEF"/>
<path d="M91.4565 66.5518H68.8816V87.1288H91.4565V66.5518Z" fill="#8CBEEF"/>
<path d="M120.134 66.5518H97.5586V87.1288H120.134V66.5518Z" fill="#8CBEEF"/>
<path d="M148.811 66.5518H126.236V87.1288H148.811V66.5518Z" fill="#8CBEEF"/>
<path d="M62.7785 92.7344H40.2036V113.311H62.7785V92.7344Z" fill="#8CBEEF"/>
<path d="M91.4565 92.7344H68.8816V113.311H91.4565V92.7344Z" fill="#1068C0"/>
<path d="M120.134 92.7344H97.5586V113.311H120.134V92.7344Z" fill="#8CBEEF"/>
<path d="M148.811 92.7344H126.236V113.311H148.811V92.7344Z" fill="#8CBEEF"/>
<path d="M62.7785 118.915H40.2036V139.492H62.7785V118.915Z" fill="#8CBEEF"/>
<path d="M91.4565 118.915H68.8816V139.492H91.4565V118.915Z" fill="#8CBEEF"/>
<path d="M120.134 118.915H97.5586V139.492H120.134V118.915Z" fill="#8CBEEF"/>
<path d="M148.811 118.915H126.236V139.492H148.811V118.915Z" fill="#8CBEEF"/>
<path d="M116.736 81.1804C117.081 80.5744 117.362 79.9201 117.565 79.2216C117.768 78.523 117.881 77.8198 117.915 77.1231L115.999 76.858C116.015 76.2117 115.941 75.5752 115.788 74.9622L117.602 74.2848C117.223 72.9099 116.525 71.6392 115.567 70.5825L114.023 71.7511C113.587 71.2937 113.09 70.8904 112.535 70.5576L113.338 68.7981C112.732 68.4535 112.078 68.172 111.379 67.9689C110.68 67.7658 109.978 67.653 109.281 67.6191L109.016 69.5352C108.37 69.5192 107.733 69.593 107.12 69.7458L106.443 67.9317C105.067 68.3106 103.797 69.0092 102.74 69.9672L103.909 71.5114C103.452 71.9467 103.048 72.4449 102.715 72.9987L100.956 72.1958C100.611 72.8017 100.329 73.4561 100.126 74.1546C99.9233 74.8531 99.8105 75.5564 99.7766 76.253L101.693 76.5186C101.677 77.165 101.75 77.8015 101.903 78.4144L100.089 79.0918C100.468 80.4673 101.167 81.7379 102.125 82.7941L103.669 81.6255C104.104 82.0829 104.602 82.4862 105.156 82.819L104.353 84.5785C104.959 84.9231 105.614 85.2047 106.312 85.4077C107.011 85.6108 107.714 85.7232 108.41 85.7575L108.676 83.8415C109.322 83.8574 109.958 83.7836 110.571 83.6309L111.249 85.4449C112.624 85.066 113.894 84.3675 114.951 83.4095L113.783 81.8653C114.24 81.43 114.643 80.9317 114.976 80.3779L116.736 81.1804ZM107.567 81.0882C105.137 80.3822 103.739 77.8395 104.445 75.4092C105.151 72.979 107.694 71.5814 110.124 72.2875C112.555 72.9935 113.952 75.5362 113.246 77.9665C112.54 80.3967 109.997 81.7943 107.567 81.0882ZM107.903 79.9328C106.111 79.4119 105.08 77.5373 105.601 75.7449C106.122 73.9529 107.996 72.9221 109.789 73.4429C111.581 73.9638 112.612 75.8384 112.091 77.6308C111.57 79.4227 109.695 80.4536 107.903 79.9328Z" fill="#DFE3E8"/>
<path d="M144.944 133.777C145.289 133.171 145.571 132.517 145.774 131.818C145.977 131.12 146.09 130.416 146.123 129.72L144.207 129.455C144.223 128.809 144.15 128.172 143.997 127.559L145.811 126.882C145.432 125.507 144.733 124.236 143.775 123.18L142.231 124.348C141.796 123.891 141.298 123.488 140.744 123.154L141.547 121.395C140.941 121.05 140.287 120.769 139.588 120.566C138.889 120.362 138.186 120.25 137.49 120.216L137.224 122.132C136.578 122.116 135.942 122.19 135.329 122.342L134.651 120.528C133.276 120.907 132.005 121.606 130.949 122.564L132.118 124.108C131.66 124.543 131.257 125.042 130.924 125.596L129.164 124.793C128.819 125.399 128.538 126.053 128.335 126.752C128.132 127.45 128.019 128.154 127.985 128.85L129.901 129.115C129.885 129.762 129.959 130.398 130.112 131.011L128.297 131.687C128.676 133.063 129.375 134.333 130.333 135.39L131.877 134.221C132.312 134.679 132.81 135.082 133.364 135.415L132.561 137.175C133.167 137.519 133.822 137.801 134.52 138.004C135.219 138.207 135.922 138.32 136.619 138.354L136.884 136.438C137.53 136.454 138.166 136.38 138.779 136.227L139.457 138.041C140.832 137.662 142.102 136.964 143.159 136.006L141.991 134.461C142.448 134.026 142.851 133.528 143.184 132.974L144.944 133.777ZM135.776 133.684C133.345 132.978 131.948 130.436 132.654 128.005C133.36 125.575 135.903 124.178 138.333 124.884C140.763 125.59 142.161 128.132 141.455 130.563C140.748 132.993 138.206 134.391 135.776 133.684ZM136.111 132.529C134.319 132.009 133.289 130.134 133.809 128.342C134.33 126.55 136.205 125.519 137.997 126.04C139.789 126.56 140.82 128.435 140.299 130.227C139.778 132.019 137.903 133.05 136.111 132.529Z" fill="#DFE3E8"/>
<path d="M169.664 130.84L171.952 145.796L171.178 150.615L152.807 149.483C152.343 149.454 151.99 149.055 152.018 148.591C152.04 148.243 152.273 147.945 152.605 147.84L161.015 144.533L158.013 128.911" fill="#FC7F4F"/>
<path d="M151.15 149.185C151.379 148.587 151.774 147.923 152.142 147.789L161.045 144.535C165.727 146.747 172.012 145.613 172.012 145.613L172.118 152.183C172.105 152.4 171.919 152.565 171.702 152.551L151.177 151.286C150.752 151.26 151.143 149.203 151.15 149.185Z" fill="#1A405C"/>
<path d="M159.143 144.803C159.594 145.465 159.968 146.181 160.252 146.929" stroke="#5A65A5" stroke-width="0.352557" stroke-miterlimit="10"/>
<path d="M158.011 145.396C158.477 146.123 158.655 146.537 158.92 147.202" stroke="#5A65A5" stroke-width="0.352557" stroke-miterlimit="10"/>
<path d="M157.06 145.821C157.376 146.301 157.677 146.957 157.914 147.48" stroke="#5A65A5" stroke-width="0.352557" stroke-miterlimit="10"/>
<path d="M172.064 151.154L151.023 149.856" stroke="#5A65A5" stroke-width="0.352557" stroke-miterlimit="10"/>
<path d="M172.051 148.011C172.051 148.011 167.175 147.771 166.564 150.814" stroke="#5A65A5" stroke-width="0.352557" stroke-miterlimit="10"/>
<path d="M153.967 147.122C153.967 147.122 155.258 149.197 155.483 150.132" stroke="#5A65A5" stroke-width="0.352557" stroke-miterlimit="10"/>
<path d="M166.104 76.7998C166.104 76.7998 152.863 102.433 152.959 111.781C153.048 120.486 158.385 142.821 158.385 142.821L172.628 141.03C172.628 141.03 167.417 113.524 167.925 110.738C168.433 107.951 178.129 89.1266 178.129 89.1266C178.129 89.1266 181.718 84.7633 181.017 76.8755" fill="#0085F9"/>
<path d="M170.246 141.329C170.246 141.329 165.216 113.575 165.724 110.789C166.232 108.002 175.449 89.5068 175.449 89.5068" stroke="#2A3C83" stroke-width="0.352557" stroke-miterlimit="10" stroke-linejoin="round"/>
<path d="M172.138 138.404L157.836 140.458" stroke="#2A3C83" stroke-width="0.352557" stroke-miterlimit="10" stroke-linejoin="round"/>
<path d="M190.437 125.085L196.237 139.211L197.58 143.903L180.463 150.669C180.031 150.84 179.542 150.628 179.371 150.196C179.243 149.872 179.328 149.503 179.584 149.267L185.797 142.705L179.067 128.279" fill="#FC7F4F"/>
<path d="M178.836 151.101C178.79 150.463 178.867 149.694 179.142 149.416L185.825 142.694C191.003 142.711 196.214 139.018 196.214 139.018L199.097 144.923C199.177 145.125 199.078 145.353 198.876 145.433L179.753 152.992C179.356 153.149 178.838 151.121 178.836 151.101Z" fill="#1A405C"/>
<path d="M184.216 143.745C184.906 144.154 185.547 144.643 186.123 145.2" stroke="#5A65A5" stroke-width="0.352557" stroke-miterlimit="10"/>
<path d="M183.443 144.761C184.172 145.222 184.51 145.521 185.032 146.011" stroke="#5A65A5" stroke-width="0.352557" stroke-miterlimit="10"/>
<path d="M182.761 145.551C183.252 145.851 183.802 146.317 184.238 146.691" stroke="#5A65A5" stroke-width="0.352557" stroke-miterlimit="10"/>
<path d="M198.611 144.016L179.006 151.765" stroke="#5A65A5" stroke-width="0.352557" stroke-miterlimit="10"/>
<path d="M197.267 141.176C197.267 141.176 192.749 143.026 193.486 146.042" stroke="#5A65A5" stroke-width="0.352557" stroke-miterlimit="10"/>
<path d="M180.512 148.039C180.512 148.039 182.562 149.37 183.162 150.122" stroke="#5A65A5" stroke-width="0.352557" stroke-miterlimit="10"/>
<path d="M175.355 78.1196C175.355 78.1196 169.474 102.698 171.077 111.909C172.87 122.212 182.098 140.02 182.098 140.02L195.16 134.423C195.16 134.423 185.375 112.856 185.648 108.337C185.819 105.509 189.301 88.2239 189.301 88.2239C189.301 88.2239 192.096 83.3144 190.064 75.6602" fill="#0085F9"/>
<path d="M192.151 135.713C192.151 135.713 182.351 114.62 182.686 108.792C182.849 105.964 185.328 92.8762 186.339 88.6789C187.35 84.4812 189.138 79.6643 187.103 76.1152" stroke="#2A3C83" stroke-width="0.352557" stroke-miterlimit="10" stroke-linejoin="round"/>
<path d="M171.011 103.442C172.072 96.5017 173.389 87.1797 174.922 78.8965" stroke="#2A3C83" stroke-width="0.352557" stroke-miterlimit="10" stroke-linejoin="round"/>
<path d="M182.384 79.3184C182.384 79.3184 183.125 81.5056 187.719 83.0099" stroke="#2A3C83" stroke-width="0.352557" stroke-miterlimit="10" stroke-linejoin="round"/>
<path d="M172.858 79.291C172.858 79.291 171.869 84.3683 172.241 85.0682C172.411 85.3879 173.873 85.7503 173.873 85.7503" stroke="#2A3C83" stroke-width="0.352557" stroke-miterlimit="10" stroke-linejoin="round"/>
<path d="M164.104 80.8118C164.104 80.8118 166.917 81.0426 168.636 79.3311" stroke="#2A3C83" stroke-width="0.352557" stroke-miterlimit="10" stroke-linejoin="round"/>
<path d="M194.147 132.149L180.914 137.661" stroke="#2A3C83" stroke-width="0.352557" stroke-miterlimit="10" stroke-linejoin="round"/>
<path d="M172.122 39.7461C172.122 39.7461 166.69 40.981 165.345 51.1732C164.382 55.3329 164.81 78.7812 164.812 78.7628C177.626 81.7276 191.646 78.4944 191.646 78.4944C191.646 78.4944 190.055 63.7279 189.445 58.1801C187.914 44.2527 178.539 40.7831 178.539 40.7831L172.122 39.7461Z" fill="#1A405C"/>
<path d="M174.359 39.9662C174.359 39.9662 171.526 34.2431 166.932 28.5128C160.907 20.9987 151.542 14.4463 151.542 14.4463C151.542 14.4463 144.719 18.6878 147.591 21.2708C151.427 24.1844 156.221 29.8192 159.83 34.8734C162.081 38.0262 166.457 47.5448 166.457 47.5448" fill="#FC7F4F"/>
<path d="M149.373 22.5939C147.168 20.7442 139.9 16.4331 140.015 15.8549C140.129 15.2767 142.705 16.7593 142.711 16.2672C142.716 15.7755 138.907 13.2253 139.175 12.6781C139.539 11.9368 143.301 14.7568 143.301 14.7568C143.301 14.7568 139.335 11.4625 139.837 10.9106C140.192 10.52 143.335 12.8948 144.65 13.6517C143.329 12.6504 141.382 10.7734 141.759 10.3752C142.134 9.98083 144.307 11.5518 146.037 12.6668C145.023 11.8701 143.255 10.3202 143.586 9.93618C143.917 9.55306 149.504 12.7825 154.716 16.8317" fill="#FC7F4F"/>
<path d="M183.203 57.5766C183.203 57.5766 177.864 66.8535 172.478 71.8467C165.415 78.3939 154.486 82.6645 154.486 82.6645C154.486 82.6645 148.359 77.4669 151.58 75.3333C155.802 73.0148 162.543 68.3136 166.855 63.8451C169.545 61.0571 174.102 52.1162 174.102 52.1162" fill="#FC7F4F"/>
<path d="M153.537 74.2861C151.085 75.7923 143.263 78.9883 143.291 79.5773C143.319 80.1658 146.085 79.0776 146.018 79.5655C145.951 80.053 141.808 82.0156 141.993 82.5961C142.244 83.3826 146.38 81.1459 146.38 81.1459C146.38 81.1459 141.972 83.8221 142.388 84.4412C142.682 84.8802 146.139 82.9924 147.551 82.4368C146.098 83.2331 143.896 84.8036 144.211 85.253C144.523 85.6982 146.904 84.4633 148.779 83.6143C147.659 84.2536 145.682 85.5266 145.954 85.9553C146.224 86.3826 152.225 83.7835 157.777 81.1145" fill="#FC7F4F"/>
<path d="M174.038 49.6357C172.449 54.0535 168.5 61.2955 168.5 61.2955L177.798 66.8861C177.798 66.8861 183.08 61.1333 185.357 53.9929" fill="#1A405C"/>
<path d="M177.797 66.8861C177.797 66.8861 183.584 59.6963 184.746 55.7002" stroke="#5A65A5" stroke-width="0.352557" stroke-miterlimit="10"/>
<path d="M168.5 61.2951C168.5 61.2951 172.455 54.5904 173.392 51.2881" stroke="#5A65A5" stroke-width="0.352557" stroke-miterlimit="10"/>
<path d="M164.999 54.2077C165.091 50.4494 163.725 42.5065 158.747 35.0309L167.601 28.7314C167.601 28.7314 174.71 35.1118 176.536 40.4885" fill="#1A405C"/>
<path d="M171.059 28.8344C171.059 28.8344 168.558 34.707 170.374 36.7636C171.317 37.8326 174.261 38.1762 175.575 37.2431C176.55 36.5507 178.191 32.0196 177.707 31.1824C175.86 27.9821 171.059 28.8344 171.059 28.8344Z" fill="#FC7F4F"/>
<path d="M172.107 31.7285C172.107 31.7285 170.868 33.0786 170.89 33.5162C170.912 33.9534 171.907 34.1715 171.907 34.1715" stroke="#AF3586" stroke-width="0.235038" stroke-miterlimit="10" stroke-linejoin="round"/>
<path d="M170.721 34.5059L173.394 35.3482C173.394 35.3482 172.635 36.6734 171.199 36.1102C170.174 35.7088 170.721 34.5059 170.721 34.5059Z" fill="white"/>
<path d="M171.082 31.0575C171.065 31.0838 171.047 31.1092 171.032 31.1364C171.016 31.1646 171.002 31.1928 170.986 31.221C170.971 31.2483 170.957 31.2756 170.942 31.3028C170.919 31.3437 170.902 31.3856 170.884 31.4283C170.876 31.4528 170.875 31.4777 170.88 31.5022C170.881 31.5266 170.889 31.5496 170.902 31.5713C170.925 31.6056 170.953 31.631 170.991 31.6469C171.028 31.6624 171.073 31.669 171.112 31.6563C171.157 31.6418 171.201 31.614 171.223 31.5713C171.258 31.5026 171.285 31.4302 171.313 31.3588C171.325 31.3301 171.336 31.3014 171.348 31.2728C171.359 31.2431 171.368 31.2121 171.377 31.182C171.389 31.1449 171.382 31.0904 171.361 31.0575C171.342 31.0274 171.317 31.0053 171.284 30.9912C171.208 30.9597 171.125 30.9888 171.082 31.0575Z" fill="#182B6D"/>
<path d="M172.06 30.5676C172.06 30.5676 171.734 29.9321 171.053 30.2738" stroke="#182B6D" stroke-width="0.235038" stroke-miterlimit="10" stroke-linecap="round" stroke-linejoin="round"/>
<path d="M174.076 32.3093C174.045 32.3643 174.017 32.4203 173.99 32.4776C173.957 32.5472 173.923 32.6163 173.898 32.6891C173.883 32.731 173.892 32.7954 173.916 32.832C173.938 32.8664 173.967 32.8917 174.005 32.9077C174.042 32.9232 174.087 32.9298 174.126 32.9171C174.169 32.903 174.218 32.8753 174.237 32.832C174.256 32.7897 174.274 32.7479 174.288 32.7037C174.298 32.6741 174.308 32.645 174.317 32.6153C174.337 32.5552 174.355 32.4955 174.371 32.4339C174.392 32.3554 174.352 32.2745 174.278 32.243C174.205 32.2125 174.115 32.2388 174.076 32.3093Z" fill="#182B6D"/>
<path d="M174.112 31.2353C174.112 31.2353 174.82 31.1188 175.382 32.0265" stroke="#182B6D" stroke-width="0.235038" stroke-miterlimit="10" stroke-linecap="round" stroke-linejoin="round"/>
<path d="M177.693 34.707L178.538 40.7828C178.538 40.7828 173.81 43.9295 171.507 40.1674L171.651 36.2357L177.693 34.707Z" fill="#FC7F4F"/>
<path d="M179.913 33.7951C179.977 33.584 180.048 33.3748 180.137 33.1652C180.347 32.6683 180.651 32.2354 180.878 31.7479C181.332 30.7734 181.071 29.515 180.268 28.8015C180.125 28.6745 179.967 28.5631 179.842 28.4188C179.562 28.094 179.483 27.6479 179.333 27.246C179.21 26.9174 179.021 26.5963 178.721 26.4144C178.033 25.9961 177.059 26.4558 176.371 26.037C176.222 25.9462 176.099 25.8202 175.966 25.7074C174.992 24.881 173.827 24.9953 172.696 25.3332C172.166 25.4917 171.985 25.6867 171.534 25.9984C171.041 26.3392 170.39 26.2776 169.895 26.6104C169.376 26.9597 169.211 27.6456 169.171 28.2698C169.156 28.4959 169.153 28.7305 169.238 28.9411C169.346 29.2118 169.586 29.4102 169.844 29.5456C170.463 29.8709 171.185 29.7994 171.861 29.7867C172.523 29.7741 173.314 29.3533 173.945 29.6302C174.56 29.9005 174.677 30.6804 175.448 30.7838C175.751 30.8247 176.126 30.7899 176.294 31.0456C176.484 31.3347 176.35 31.785 176.494 32.1155C176.63 32.4272 176.883 32.7148 177.064 33.0054C177.424 33.5826 177.956 33.9944 177.718 34.7075C177.552 35.203 176.946 35.98 177.147 36.5262C177.28 36.8863 178.054 36.9239 178.664 36.5116C179.293 36.0867 179.522 35.2222 179.709 34.534C179.778 34.2816 179.841 34.0367 179.913 33.7951Z" fill="#262739"/>
<path d="M177.138 33.7608C177.763 32.8644 178.318 32.9683 178.644 33.421C179.079 34.0245 178.358 35.3751 178 35.62C177.273 36.1154 176.66 36.1042 176.566 35.4959" fill="#FC7F4F"/>
<path d="M171.802 37.7494C173.952 37.9449 175.81 37.0146 175.81 37.0146" stroke="#AF3586" stroke-width="0.352557" stroke-miterlimit="10" stroke-linejoin="round"/>
<path d="M164.972 52.8188C164.972 52.8188 165.446 46.9668 164.876 45.1387" stroke="#5A65A5" stroke-width="0.352557" stroke-miterlimit="10"/>
<path d="M170.866 41.207C170.866 41.207 171.827 43.1202 174.712 43.2208C177.983 43.3346 179.457 41.2202 179.457 41.2202" stroke="#5A65A5" stroke-width="0.352557" stroke-miterlimit="10"/>
<path d="M49.8535 77.5351L47.6216 81.7737C47.6216 81.7737 46.099 81.7737 43.9982 80.7368C41.9125 79.7073 41.3047 78.2886 41.3047 78.2886L45.078 73.2969" fill="#FC7F4F"/>
<path d="M54.5982 69.5297C56.6741 70.7529 53.2454 78.4983 51.3721 78.9886C49.4988 79.4789 45.7796 75.8189 44.6712 72.7183C43.5627 69.6172 47.1292 67.9216 49.2262 67.2917C51.3237 66.6613 54.5982 69.5297 54.5982 69.5297Z" fill="#FC7F4F"/>
<path d="M53.0563 73.2829C53.0206 73.3445 52.9872 73.407 52.9543 73.47C52.9214 73.5334 52.8875 73.5959 52.8588 73.6613C52.8433 73.697 52.8339 73.7294 52.8447 73.7685C52.8537 73.8009 52.8786 73.8357 52.9087 73.8517C52.9717 73.885 53.0643 73.8709 53.0991 73.8018C53.1357 73.7285 53.1658 73.6524 53.1978 73.5771C53.226 73.5109 53.2528 73.4441 53.2777 73.3764C53.2876 73.3496 53.281 73.3068 53.2655 73.2829C53.2509 73.2603 53.2326 73.2439 53.2076 73.233C53.1531 73.21 53.0868 73.2302 53.0563 73.2829Z" fill="#182B6D"/>
<path d="M54.2079 72.5276C54.2079 72.5276 53.7524 71.8451 52.5542 72.0839" stroke="#182B6D" stroke-width="0.352557" stroke-miterlimit="10" stroke-linecap="round" stroke-linejoin="round"/>
<path d="M51.2341 76.2979L52.5546 77.2408C52.5546 77.2408 52.0384 78.2393 51.5665 77.851C51.0955 77.4627 51.2341 76.2979 51.2341 76.2979Z" fill="white"/>
<path d="M56.4627 71.2259C55.5202 70.9223 54.4837 70.3483 53.7696 69.9901C52.8159 70.1875 51.8245 71.0821 51.7991 72.0956C51.7935 72.3236 51.7704 72.6338 51.5443 72.6653C51.3882 72.6869 51.2599 72.5346 51.2162 72.3833C51.1725 72.2319 51.1781 72.0674 51.1161 71.9226C50.9901 71.6292 50.6037 71.5113 50.3014 71.6152C49.9996 71.719 49.7825 71.9926 49.6588 72.2869C49.3434 73.0399 49.0618 73.9514 49.7815 74.5832C49.8934 74.6815 50.0241 74.7661 50.096 74.8967C50.2521 75.1797 50.0678 75.5238 49.8835 75.789C49.3114 76.6111 48.4517 77.5348 46.7646 77.5348C45.5786 77.5348 43.6085 75.9704 43.4783 75.1891C43.4665 75.1196 42.3318 70.3314 44.4382 67.2858C45.5682 65.6522 47.5571 64.4625 49.6316 64.6359C50.913 64.7431 52.0313 65.4981 52.6588 65.9865C56.1181 66.6229 56.8599 70.1875 56.4627 71.2259Z" fill="#262739"/>
<path d="M54.4649 74.0537C54.4649 74.0537 54.7709 76.3759 54.313 76.6297C53.8552 76.8836 52.8896 76.2222 52.8896 76.2222" fill="#FC7F4F"/>
<path d="M55.4176 136.925L53.7248 147.857L53.6365 151.149L66.5438 151.083C66.8588 151.082 67.1131 150.825 67.1112 150.51C67.1098 150.274 66.9636 150.063 66.7427 149.979L61.176 147.42L63.3778 136.063" fill="#FC7F4F"/>
<path d="M67.6763 150.944C67.5442 150.531 67.3022 150.066 67.0582 149.961L61.1559 147.419C57.9025 148.738 53.6911 147.73 53.6911 147.73L52.9399 152.174C52.9409 152.321 53.0608 152.439 53.2079 152.439L67.5781 152.366C67.8667 152.364 67.6806 150.957 67.6763 150.944Z" fill="#0085F9"/>
<path d="M62.4333 147.674C62.1029 148.105 61.8227 148.575 61.6013 149.071" stroke="#313D77" stroke-width="0.352557" stroke-miterlimit="10"/>
<path d="M63.1762 148.119C62.8335 148.593 62.6967 148.868 62.4922 149.307" stroke="#313D77" stroke-width="0.352557" stroke-miterlimit="10"/>
<path d="M63.805 148.442C63.5723 148.755 63.3443 149.187 63.1633 149.532" stroke="#313D77" stroke-width="0.352557" stroke-miterlimit="10"/>
<path d="M53.0151 151.48L67.737 151.404" stroke="#313D77" stroke-width="0.352557" stroke-miterlimit="10"/>
<path d="M53.4241 149.307C53.4241 149.307 56.8824 149.377 57.18 151.461" stroke="#313D77" stroke-width="0.352557" stroke-miterlimit="10"/>
<path d="M65.8481 149.44C65.8481 149.44 64.8948 150.795 64.7068 151.42" stroke="#313D77" stroke-width="0.352557" stroke-miterlimit="10"/>
<path d="M15.3517 139.79L4.58223 138.507L1.29028 138.419L1.35609 151.326C1.3575 151.641 1.61464 151.896 1.92959 151.894C2.16556 151.892 2.37663 151.746 2.4603 151.525L5.01987 145.958L16.1809 147.215" fill="#FC7F4F"/>
<path d="M1.49485 152.459C1.90804 152.327 2.37247 152.085 2.47777 151.841L5.01994 145.939C3.70138 142.685 4.70922 138.474 4.70922 138.474L0.265122 137.723C0.117988 137.723 -0.000468681 137.843 1.39423e-06 137.99L0.0733359 152.36C0.0752162 152.649 1.48168 152.463 1.49485 152.459Z" fill="#0085F9"/>
<path d="M4.76496 147.215C4.3339 146.884 3.86383 146.604 3.36743 146.383" stroke="#313D77" stroke-width="0.352557" stroke-miterlimit="10"/>
<path d="M4.32094 147.958C3.84664 147.616 3.57258 147.479 3.13306 147.274" stroke="#313D77" stroke-width="0.352557" stroke-miterlimit="10"/>
<path d="M3.99709 148.586C3.68449 148.353 3.25202 148.125 2.90698 147.944" stroke="#313D77" stroke-width="0.352557" stroke-miterlimit="10"/>
<path d="M0.959473 137.798L1.03515 152.519" stroke="#313D77" stroke-width="0.352557" stroke-miterlimit="10"/>
<path d="M3.13288 138.206C3.13288 138.206 3.06285 141.664 0.979004 141.962" stroke="#313D77" stroke-width="0.352557" stroke-miterlimit="10"/>
<path d="M2.99851 150.631C2.99851 150.631 1.64376 149.677 1.01855 149.489" stroke="#313D77" stroke-width="0.352557" stroke-miterlimit="10"/>
<path d="M21.7571 109.782C19.4425 115.969 23.22 124.952 23.22 124.952L25.2108 139.421L6.32642 138.59L6.51304 151.149C6.51304 151.149 26.7691 152.59 31.6687 152.59C36.5683 152.59 38.4617 151.494 39.9002 148.623C42.0423 144.346 38.9633 120.701 38.9633 120.309L35.6018 105.12" fill="#1A405C"/>
<path d="M8.59326 138.689L8.73523 151.304" stroke="#4A4C52" stroke-width="0.352557" stroke-miterlimit="10"/>
<path d="M28.3079 113.127C28.3079 113.127 26.1644 124.082 37.0466 126.436C41.91 127.488 54.2763 127.834 54.2763 127.834L52.1643 144.759H64.5127C64.5127 144.759 67.0708 132.007 67.8413 123.477C68.3537 117.803 65.913 115.266 61.3246 114.696C57.4409 114.215 45.7614 113.455 45.7614 113.455L43.7983 110.99" fill="#1A405C"/>
<path d="M39.4862 126.829C39.4862 126.829 30.3277 126.857 28.1367 116.594" stroke="#4A4C52" stroke-width="0.352557" stroke-miterlimit="10"/>
<path d="M32.9697 115.625C32.9697 115.625 35.4484 116.099 38.676 115.888" stroke="#4A4C52" stroke-width="0.352557" stroke-miterlimit="10"/>
<path d="M21.0095 114.174C21.0095 114.174 23.4511 114.873 25.0376 114.858" stroke="#4A4C52" stroke-width="0.352557" stroke-miterlimit="10"/>
<path d="M52.9805 142.555H64.9697" stroke="#4A4C52" stroke-width="0.352557" stroke-miterlimit="10"/>
<path d="M84.2376 119.262C92.3973 116.769 96.9908 108.133 94.4976 99.9732C92.0044 91.8136 83.3686 87.22 75.2089 89.7132C67.0493 92.2064 62.4557 100.842 64.9489 109.002C67.4421 117.162 76.078 121.755 84.2376 119.262Z" fill="#FC7F4F"/>
<path d="M82.3185 115.372C88.3247 113.946 92.0383 107.922 90.6129 101.916C89.1876 95.9096 83.1632 92.1961 77.157 93.6214C71.1507 95.0467 67.4372 101.071 68.8625 107.077C70.2878 113.084 76.3123 116.797 82.3185 115.372Z" fill="white"/>
<path d="M72.0601 104.487C72.0601 108.727 75.4973 112.164 79.7373 112.164C83.9774 112.164 87.4146 108.727 87.4146 104.487C87.4146 100.247 83.9774 96.8096 79.7373 96.8096C75.4973 96.8096 72.0601 100.247 72.0601 104.487Z" fill="#FC7F4F"/>
<path d="M75.7158 104.487C75.7158 106.708 77.5162 108.508 79.7373 108.508C81.9584 108.508 83.7593 106.708 83.7593 104.487C83.7593 102.266 81.9584 100.465 79.7373 100.465C77.5167 100.465 75.7158 102.265 75.7158 104.487Z" fill="white"/>
<path d="M80.2465 108.116L78.0828 106.813L81.5486 105.952L80.2465 108.116Z" fill="#243956"/>
<path d="M74.6617 85.6415L72.1858 84.1514L72.5614 83.5271L74.413 84.6417L75.5276 82.79L76.1518 83.1656L74.6617 85.6415Z" fill="#243956"/>
<path d="M74.2105 83.8246L71.7351 82.3345L72.1107 81.7102L73.9623 82.8248L75.0769 80.9736L75.7007 81.3492L74.2105 83.8246Z" fill="#243956"/>
<path d="M74.4081 83.0694L73.7009 83.2451L79.6612 107.227L80.3683 107.051L74.4081 83.0694Z" fill="#243956"/>
<path d="M69.0338 97.8346L72.6793 98.1035C72.6793 98.1035 75.4814 97.1582 76.5978 97.1342C77.2818 97.1196 77.6362 97.4807 77.6362 97.4807C77.6362 97.4807 77.6362 97.8487 77.6362 98.5825C77.6362 99.3163 78.6191 99.6392 78.6191 99.1414V98.5355C78.6304 98.5759 80.6376 99.5297 79.4615 100.438C80.0134 100.552 80.3067 101.328 79.2594 101.86C79.5917 102.087 79.9762 102.716 79.2081 103.221C79.5489 103.739 78.856 104.31 78.3051 104.429C77.263 104.655 68.9233 104.48 68.9233 104.48" fill="#FC7F4F"/>
<path d="M47.7611 81.3764C53.7498 89.6601 50.5331 92.3452 46.2291 113.476C31.8542 113.476 20.8521 110.991 20.8521 110.991C20.8521 110.991 24.2756 99.9012 30.6202 87.5598C33.6456 81.6749 38.6754 78.7445 41.5222 77.9971" fill="#0085F9"/>
<path d="M38.675 90.6906C38.675 90.6906 47.9285 105.183 52.3265 105.827C59.3085 106.847 70.8555 106.56 70.8555 106.56L71.5442 96.3644C71.5442 96.3644 56.702 95.6137 56.0895 95.2658C54.1011 94.1353 47.7607 81.377 47.7607 81.377" fill="#0085F9"/>
<path d="M48.5285 103.181C48.5285 103.181 43.0996 98.6753 39.4861 91.6777" stroke="#313D77" stroke-width="0.352557" stroke-miterlimit="10"/>
<path d="M69.4046 96.251L68.5303 106.596" stroke="#313D77" stroke-width="0.352557" stroke-miterlimit="10"/>
</svg>
