<svg width="206" height="153" viewBox="0 0 206 153" fill="none" xmlns="http://www.w3.org/2000/svg">
<path d="M205.309 134.455H0V134.558H205.309V134.455Z" fill="#EBEBEB"/>
<path d="M184.737 141.064H171.137V141.167H184.737V141.064Z" fill="#EBEBEB"/>
<path d="M136.005 142.179H132.436V142.281H136.005V142.179Z" fill="#EBEBEB"/>
<path d="M170.726 137.251H162.845V137.354H170.726V137.251Z" fill="#EBEBEB"/>
<path d="M39.2764 137.941H21.5405V138.044H39.2764V137.941Z" fill="#EBEBEB"/>
<path d="M45.5331 137.941H42.9326V138.044H45.5331V137.941Z" fill="#EBEBEB"/>
<path d="M92.4495 139.676H53.9844V139.778H92.4495V139.676Z" fill="#EBEBEB"/>
<path d="M97.3223 116.143H18.0323C16.7401 116.143 15.6885 115.091 15.6885 113.799V2.34381C15.6885 1.05159 16.7401 0 18.0323 0H97.3223C98.6141 0 99.6656 1.05159 99.6656 2.34381V113.799C99.6656 115.091 98.6141 116.143 97.3223 116.143ZM18.0323 0.103065C16.7963 0.103065 15.7911 1.10826 15.7911 2.34422V113.799C15.7911 115.035 16.7963 116.04 18.0323 116.04H97.3223C98.5578 116.04 99.563 115.035 99.563 113.799V2.34381C99.563 1.10826 98.5578 0.102655 97.3223 0.102655L18.0323 0.103065Z" fill="#EBEBEB"/>
<path d="M186.137 116.143H106.848C105.556 116.143 104.504 115.091 104.504 113.799V2.34381C104.504 1.05159 105.556 0 106.848 0H186.137C187.43 0 188.481 1.05159 188.481 2.34381V113.799C188.482 115.091 187.43 116.143 186.137 116.143ZM106.848 0.103065C105.612 0.103065 104.607 1.10826 104.607 2.34422V113.799C104.607 115.035 105.612 116.04 106.848 116.04H186.137C187.373 116.04 188.379 115.035 188.379 113.799V2.34381C188.379 1.10826 187.373 0.102655 186.137 0.102655L106.848 0.103065Z" fill="#EBEBEB"/>
<path d="M97.332 51.8009V59.0134L101.046 59.3637C101.547 61.7814 102.505 64.0291 103.816 66.026L101.43 68.9073L106.53 74.0076L109.412 71.6215C111.408 72.9322 113.657 73.8906 116.074 74.3915L116.424 78.1055H123.637L123.987 74.3915C126.405 73.8901 128.653 72.9322 130.649 71.6215L133.531 74.0076L138.631 68.9073L136.245 66.0256C137.556 64.0287 138.514 61.7814 139.015 59.3637L142.729 59.0134V51.8009L139.015 51.4507C138.514 49.0325 137.556 46.7848 136.245 44.7884L138.631 41.9067L133.531 36.8064L130.649 39.1917C128.653 37.8818 126.405 36.9234 123.987 36.4221L123.637 32.708H116.424L116.074 36.4221C113.657 36.9234 111.408 37.8818 109.412 39.1917L106.53 36.8064L101.43 41.9067L103.816 44.788C102.505 46.7844 101.547 49.0325 101.046 51.4507L97.332 51.8009ZM120.031 45.6425C125.424 45.6425 129.795 50.0143 129.795 55.407C129.795 60.7996 125.423 65.1715 120.031 65.1715C114.638 65.1715 110.266 60.7996 110.266 55.407C110.266 50.0143 114.638 45.6425 120.031 45.6425Z" fill="#F0F0F0"/>
<path d="M85.1459 84.0776L87.2162 85.7919L90.881 82.1271L89.1671 80.0568C90.1082 78.6225 90.7968 77.0067 91.1569 75.2698L93.8255 75.0185V69.8365L91.1569 69.5848C90.7968 67.8475 90.1082 66.2325 89.1671 64.7982L90.881 62.7279L87.2162 59.0631L85.1459 60.777C83.7112 59.8359 82.0958 59.1477 80.3589 58.7868L80.1076 56.1182L74.9252 56.119L74.6743 58.7868C72.937 59.1473 71.3216 59.8359 69.8873 60.777L67.817 59.0631L64.1522 62.7279L65.8665 64.7982C64.925 66.2321 64.2364 67.8475 63.8763 69.5848L61.2085 69.8365V75.0189L63.8763 75.2702C64.2368 77.0071 64.925 78.6225 65.8665 80.0572L64.1522 82.1275L67.817 85.7923L69.8873 84.078C71.3216 85.0195 72.937 85.7077 74.6743 86.0682L74.9252 88.7365H80.1076L80.3589 86.0678C82.0962 85.7077 83.7112 85.0191 85.1459 84.0776ZM70.5008 72.4275C70.5008 68.5529 73.6416 65.4121 77.5166 65.4121C81.3908 65.4121 84.532 68.5529 84.532 72.4275C84.532 76.3021 81.3908 79.4433 77.5166 79.4433C73.6416 79.4433 70.5008 76.3021 70.5008 72.4275Z" fill="#F5F5F5"/>
<path d="M108.178 119.182C110.246 118.753 112.169 117.933 113.877 116.812L116.342 118.853L120.706 114.49L118.664 112.024C119.785 110.317 120.605 108.394 121.034 106.325L124.211 106.026V99.8568L121.034 99.5574C120.605 97.4891 119.785 95.5662 118.664 93.8585L120.706 91.3931L116.342 87.0307L113.877 89.071C112.169 87.9505 110.246 87.1305 108.178 86.7014L107.879 83.5244H101.709L101.409 86.7014C99.3411 87.1305 97.4186 87.9505 95.7104 89.071L93.2455 87.0307L88.8826 91.3931L90.923 93.8585C89.8024 95.5662 88.9828 97.4891 88.5542 99.5574L85.3772 99.8568V106.027L88.5542 106.326C88.9832 108.394 89.8028 110.317 90.923 112.025L88.8826 114.49L93.2455 118.853L95.7104 116.812C97.4182 117.933 99.3411 118.753 101.409 119.182L101.709 122.359H107.879L108.178 119.182ZM96.4413 102.941C96.4413 98.3289 100.181 94.5889 104.794 94.5889C109.407 94.5889 113.147 98.3289 113.147 102.941C113.147 107.555 109.407 111.294 104.794 111.294C100.181 111.294 96.4413 107.555 96.4413 102.941Z" fill="#FAFAFA"/>
<path d="M58.0863 44.5219L39.1963 41.9404L36.6148 60.8304L55.5048 63.4119L58.0863 44.5219Z" fill="#F5F5F5"/>
<path d="M41.8948 47.7334L54.1936 49.4149" stroke="#E0E0E0" stroke-width="1.23185" stroke-miterlimit="10"/>
<path d="M41.3713 51.5645L53.6702 53.2459" stroke="#E0E0E0" stroke-width="1.23185" stroke-miterlimit="10"/>
<path d="M40.8296 55.5254L48.0721 56.5158" stroke="#E0E0E0" stroke-width="1.23185" stroke-miterlimit="10"/>
<path d="M163.85 23.5144L144.784 23.583L144.853 42.6484L163.918 42.5798L163.85 23.5144Z" fill="#F0F0F0"/>
<path d="M148.263 28.9471L160.676 28.9023" stroke="#E0E0E0" stroke-width="1.23185" stroke-miterlimit="10"/>
<path d="M148.277 32.8129L160.69 32.7686" stroke="#E0E0E0" stroke-width="1.23185" stroke-miterlimit="10"/>
<path d="M148.292 36.8114L155.601 36.7852" stroke="#E0E0E0" stroke-width="1.23185" stroke-miterlimit="10"/>
<path d="M175.294 70.0293L156.379 72.4258L158.776 91.3406L177.69 88.9441L175.294 70.0293Z" fill="#F5F5F5"/>
<path d="M160.485 77.3172L172.799 75.7568" stroke="#E0E0E0" stroke-width="1.23185" stroke-miterlimit="10"/>
<path d="M160.97 81.1531L173.285 79.5928" stroke="#E0E0E0" stroke-width="1.23185" stroke-miterlimit="10"/>
<path d="M161.473 85.1191L168.725 84.2002" stroke="#E0E0E0" stroke-width="1.23185" stroke-miterlimit="10"/>
<path d="M73.8904 100.721L54.825 100.79L54.8936 119.855L73.959 119.787L73.8904 100.721Z" fill="#F0F0F0"/>
<path d="M58.303 106.151L70.716 106.106" stroke="#E0E0E0" stroke-width="1.23185" stroke-miterlimit="10"/>
<path d="M58.3169 110.018L70.7299 109.974" stroke="#E0E0E0" stroke-width="1.23185" stroke-miterlimit="10"/>
<path d="M58.3315 114.016L65.6414 113.99" stroke="#E0E0E0" stroke-width="1.23185" stroke-miterlimit="10"/>
<path d="M158.095 110.044L139.03 110.112L139.099 129.178L158.164 129.109L158.095 110.044Z" fill="#F0F0F0"/>
<path d="M142.507 115.475L154.92 115.431" stroke="#E0E0E0" stroke-width="1.23185" stroke-miterlimit="10"/>
<path d="M142.521 119.342L154.934 119.298" stroke="#E0E0E0" stroke-width="1.23185" stroke-miterlimit="10"/>
<path d="M142.535 123.339L149.845 123.313" stroke="#E0E0E0" stroke-width="1.23185" stroke-miterlimit="10"/>
<path d="M77.7379 22.2875L59.1262 26.4209L63.2596 45.0326L81.8713 40.8992L77.7379 22.2875Z" fill="#F0F0F0"/>
<path d="M63.6724 30.9148L75.7905 28.2236" stroke="#E0E0E0" stroke-width="1.23185" stroke-miterlimit="10"/>
<path d="M64.5107 34.6892L76.6289 31.998" stroke="#E0E0E0" stroke-width="1.23185" stroke-miterlimit="10"/>
<path d="M65.3777 38.5918L72.5138 37.0068" stroke="#E0E0E0" stroke-width="1.23185" stroke-miterlimit="10"/>
<path d="M40.7494 43.9951H40.4077L39.938 41.8213H41.2191L40.7494 43.9951Z" fill="#E0E0E0"/>
<path d="M40.5784 43.458C41.5365 43.458 42.3132 42.8465 42.3132 42.0923C42.3132 41.338 41.5365 40.7266 40.5784 40.7266C39.6202 40.7266 38.8435 41.338 38.8435 42.0923C38.8435 42.8465 39.6202 43.458 40.5784 43.458Z" fill="#E6E6E6"/>
<path d="M75.5836 24.9971H75.242L74.7722 22.8232H76.0533L75.5836 24.9971Z" fill="#E0E0E0"/>
<path d="M75.4128 24.4599C76.371 24.4599 77.1477 23.8485 77.1477 23.0942C77.1477 22.34 76.371 21.7285 75.4128 21.7285C74.4547 21.7285 73.678 22.34 73.678 23.0942C73.678 23.8485 74.4547 24.4599 75.4128 24.4599Z" fill="#E6E6E6"/>
<path d="M154.038 25.5449H153.696L153.226 23.3711H154.507L154.038 25.5449Z" fill="#E0E0E0"/>
<path d="M153.867 25.0078C154.825 25.0078 155.602 24.3963 155.602 23.6421C155.602 22.8878 154.825 22.2764 153.867 22.2764C152.909 22.2764 152.132 22.8878 152.132 23.6421C152.132 24.3963 152.909 25.0078 153.867 25.0078Z" fill="#E6E6E6"/>
<path d="M173.529 72.7627H173.187L172.718 70.5889H173.998L173.529 72.7627Z" fill="#E0E0E0"/>
<path d="M173.358 72.2246C174.316 72.2246 175.093 71.6131 175.093 70.8589C175.093 70.1046 174.316 69.4932 173.358 69.4932C172.4 69.4932 171.623 70.1046 171.623 70.8589C171.623 71.6131 172.4 72.2246 173.358 72.2246Z" fill="#E6E6E6"/>
<path d="M148.884 112.228H148.543L148.073 110.054H149.354L148.884 112.228Z" fill="#E0E0E0"/>
<path d="M148.713 111.69C149.671 111.69 150.448 111.079 150.448 110.325C150.448 109.57 149.671 108.959 148.713 108.959C147.755 108.959 146.978 109.57 146.978 110.325C146.978 111.079 147.755 111.69 148.713 111.69Z" fill="#E6E6E6"/>
<path d="M63.8434 102.454H63.5018L63.0325 100.28H64.3132L63.8434 102.454Z" fill="#E0E0E0"/>
<path d="M63.6724 101.917C64.6305 101.917 65.4072 101.306 65.4072 100.551C65.4072 99.797 64.6305 99.1855 63.6724 99.1855C62.7142 99.1855 61.9375 99.797 61.9375 100.551C61.9375 101.306 62.7142 101.917 63.6724 101.917Z" fill="#E6E6E6"/>
<path d="M102.654 153C146.624 153 182.269 150.918 182.269 148.351C182.269 145.783 146.624 143.701 102.654 143.701C58.6846 143.701 23.04 145.783 23.04 148.351C23.04 150.918 58.6846 153 102.654 153Z" fill="#F5F5F5"/>
<path d="M58.9927 79.6128C58.9927 76.9085 60.7727 74.708 62.9605 74.708C65.1483 74.708 66.9279 76.9081 66.9279 79.6128C66.9279 82.3176 65.1478 84.5177 62.9605 84.5177C60.7727 84.5181 58.9927 82.3176 58.9927 79.6128ZM59.8139 79.6128C59.8139 81.8647 61.2256 83.6964 62.9605 83.6964C64.6953 83.6964 66.1066 81.8647 66.1066 79.6128C66.1066 77.3614 64.6953 75.5292 62.9605 75.5292C61.2256 75.5297 59.8139 77.3614 59.8139 79.6128Z" fill="#263238"/>
<path d="M51.1865 79.6128C51.1865 76.9085 52.9666 74.708 55.1543 74.708C57.3421 74.708 59.1217 76.9081 59.1217 79.6128C59.1217 82.3176 57.3417 84.5177 55.1543 84.5177C52.9666 84.5181 51.1865 82.3176 51.1865 79.6128ZM52.0078 79.6128C52.0078 81.8647 53.4195 83.6964 55.1543 83.6964C56.8892 83.6964 58.3005 81.8647 58.3005 79.6128C58.3005 77.3614 56.8892 75.5292 55.1543 75.5292C53.4195 75.5292 52.0078 77.3614 52.0078 79.6128Z" fill="#263238"/>
<path d="M43.3794 79.6128C43.3794 76.9085 45.159 74.708 47.3472 74.708C49.535 74.708 51.3146 76.9081 51.3146 79.6128C51.3146 82.3176 49.5346 84.5177 47.3472 84.5177C45.159 84.5181 43.3794 82.3176 43.3794 79.6128ZM44.2006 79.6128C44.2006 81.8647 45.6123 83.6964 47.3472 83.6964C49.0821 83.6964 50.4934 81.8647 50.4934 79.6128C50.4934 77.3614 49.0821 75.5292 47.3472 75.5292C45.6119 75.5297 44.2006 77.3614 44.2006 79.6128Z" fill="#263238"/>
<path d="M35.573 79.6128C35.573 76.9085 37.353 74.708 39.5408 74.708C41.7286 74.708 43.5082 76.9081 43.5082 79.6128C43.5082 82.3176 41.7286 84.5177 39.5408 84.5177C37.353 84.5181 35.573 82.3176 35.573 79.6128ZM36.3942 79.6128C36.3942 81.8647 37.8059 83.6964 39.5408 83.6964C41.2757 83.6964 42.687 81.8647 42.687 79.6128C42.687 77.3614 41.2757 75.5292 39.5408 75.5292C37.8059 75.5297 36.3942 77.3614 36.3942 79.6128Z" fill="#263238"/>
<path d="M66.7991 79.6128C66.7991 76.9085 68.5787 74.708 70.7669 74.708C72.9547 74.708 74.7343 76.9081 74.7343 79.6128C74.7343 82.3176 72.9542 84.5177 70.7669 84.5177C68.5791 84.5181 66.7991 82.3176 66.7991 79.6128ZM67.6203 79.6128C67.6203 81.8647 69.032 83.6964 70.7669 83.6964C72.5017 83.6964 73.913 81.8647 73.913 79.6128C73.913 77.3614 72.5017 75.5292 70.7669 75.5292C69.032 75.5292 67.6203 77.3614 67.6203 79.6128Z" fill="#263238"/>
<path d="M30.4074 147.344H79.3054L79.3054 79.7071H30.4074L30.4074 147.344Z" fill="#263238"/>
<path opacity="0.7" d="M30.4074 147.344H79.3054L79.3054 79.7071H30.4074L30.4074 147.344Z" fill="white"/>
<path opacity="0.6" d="M34.817 147.344H79.3054L79.3054 79.7071H34.817L34.817 147.344Z" fill="white"/>
<path opacity="0.2" d="M31.8752 147.344L31.6699 84.1338L31.4646 147.344H31.8752Z" fill="black"/>
<path opacity="0.2" d="M33.9226 147.343L33.7173 88.0713L33.512 147.343H33.9226Z" fill="black"/>
<path opacity="0.2" d="M32.4878 79.7578L32.6931 127.278L32.8984 79.7578H32.4878Z" fill="black"/>
<path d="M71.9478 82.923C71.9478 83.6938 72.4631 84.3187 73.0991 84.3187C73.7352 84.3187 74.2505 83.6938 74.2505 82.923C74.2505 82.1523 73.7352 81.5273 73.0991 81.5273C72.4631 81.5273 71.9478 82.1523 71.9478 82.923Z" fill="#263238"/>
<path d="M73.1702 83.3367C73.2856 83.3367 73.4001 83.2883 73.4814 83.1943C74.278 82.2712 74.7346 80.9658 74.7346 79.6128C74.7346 76.9085 72.9546 74.708 70.7672 74.708C69.1551 74.708 67.7155 75.8955 67.1004 77.733C67.0285 77.9478 67.1443 78.1806 67.3595 78.2529C67.5747 78.3243 67.8075 78.2089 67.8793 77.9938C68.3807 76.4967 69.514 75.5292 70.7672 75.5292C72.5021 75.5292 73.9134 77.361 73.9134 79.6128C73.9134 80.772 73.529 81.8815 72.8597 82.658C72.7119 82.8296 72.7308 83.0891 72.9024 83.2374C72.98 83.3039 73.0753 83.3367 73.1702 83.3367Z" fill="#263238"/>
<g opacity="0.4">
<path d="M73.1702 83.3367C73.2856 83.3367 73.4001 83.2883 73.4814 83.1943C74.278 82.2712 74.7346 80.9658 74.7346 79.6128C74.7346 76.9085 72.9546 74.708 70.7672 74.708C69.1551 74.708 67.7155 75.8955 67.1004 77.733C67.0285 77.9478 67.1443 78.1806 67.3595 78.2529C67.5747 78.3243 67.8075 78.2089 67.8793 77.9938C68.3807 76.4967 69.514 75.5292 70.7672 75.5292C72.5021 75.5292 73.9134 77.361 73.9134 79.6128C73.9134 80.772 73.529 81.8815 72.8597 82.658C72.7119 82.8296 72.7308 83.0891 72.9024 83.2374C72.98 83.3039 73.0753 83.3367 73.1702 83.3367Z" fill="white"/>
</g>
<path d="M64.1414 82.923C64.1414 83.6938 64.6571 84.3187 65.2927 84.3187C65.9288 84.3187 66.4441 83.6938 66.4441 82.923C66.4441 82.1523 65.9284 81.5273 65.2927 81.5273C64.6571 81.5273 64.1414 82.1523 64.1414 82.923Z" fill="#263238"/>
<path d="M65.3645 83.3367C65.4799 83.3367 65.5944 83.2883 65.6758 83.1943C66.4719 82.2712 66.929 80.9658 66.929 79.6128C66.929 76.9085 65.1489 74.708 62.9616 74.708C61.3495 74.708 59.9098 75.8955 59.2947 77.733C59.2229 77.9478 59.3387 78.1806 59.5538 78.2529C59.769 78.3243 60.0018 78.2089 60.0737 77.9938C60.575 76.4967 61.7084 75.5292 62.9616 75.5292C64.6964 75.5292 66.1077 77.361 66.1077 79.6128C66.1077 80.772 65.7234 81.8815 65.0541 82.658C64.9062 82.8296 64.9251 83.0891 65.0968 83.2374C65.174 83.3039 65.2692 83.3367 65.3645 83.3367Z" fill="#263238"/>
<g opacity="0.4">
<path d="M65.3645 83.3367C65.4799 83.3367 65.5944 83.2883 65.6758 83.1943C66.4719 82.2712 66.929 80.9658 66.929 79.6128C66.929 76.9085 65.1489 74.708 62.9616 74.708C61.3495 74.708 59.9098 75.8955 59.2947 77.733C59.2229 77.9478 59.3387 78.1806 59.5538 78.2529C59.769 78.3243 60.0018 78.2089 60.0737 77.9938C60.575 76.4967 61.7084 75.5292 62.9616 75.5292C64.6964 75.5292 66.1077 77.361 66.1077 79.6128C66.1077 80.772 65.7234 81.8815 65.0541 82.658C64.9062 82.8296 64.9251 83.0891 65.0968 83.2374C65.174 83.3039 65.2692 83.3367 65.3645 83.3367Z" fill="white"/>
</g>
<path d="M56.3352 82.923C56.3352 83.6938 56.8505 84.3187 57.4866 84.3187C58.1226 84.3187 58.6379 83.6938 58.6379 82.923C58.6379 82.1523 58.1226 81.5273 57.4866 81.5273C56.8505 81.5273 56.3352 82.1523 56.3352 82.923Z" fill="#263238"/>
<path d="M57.5574 83.3367C57.6728 83.3367 57.7873 83.2883 57.8686 83.1943C58.6648 82.2712 59.1218 80.9658 59.1218 79.6128C59.1218 76.9085 57.3418 74.708 55.1544 74.708C53.5423 74.708 52.1027 75.8955 51.4876 77.733C51.4158 77.9478 51.5315 78.1806 51.7467 78.2529C51.9619 78.3243 52.1947 78.2089 52.2666 77.9938C52.7679 76.4967 53.9016 75.5292 55.1544 75.5292C56.8893 75.5292 58.3006 77.361 58.3006 79.6128C58.3006 80.772 57.9163 81.8815 57.2469 82.658C57.0991 82.8296 57.118 83.0891 57.2896 83.2374C57.3668 83.3039 57.4621 83.3367 57.5574 83.3367Z" fill="#263238"/>
<g opacity="0.4">
<path d="M57.5574 83.3367C57.6728 83.3367 57.7873 83.2883 57.8686 83.1943C58.6648 82.2712 59.1218 80.9658 59.1218 79.6128C59.1218 76.9085 57.3418 74.708 55.1544 74.708C53.5423 74.708 52.1027 75.8955 51.4876 77.733C51.4158 77.9478 51.5315 78.1806 51.7467 78.2529C51.9619 78.3243 52.1947 78.2089 52.2666 77.9938C52.7679 76.4967 53.9016 75.5292 55.1544 75.5292C56.8893 75.5292 58.3006 77.361 58.3006 79.6128C58.3006 80.772 57.9163 81.8815 57.2469 82.658C57.0991 82.8296 57.118 83.0891 57.2896 83.2374C57.3668 83.3039 57.4621 83.3367 57.5574 83.3367Z" fill="white"/>
</g>
<path d="M48.5281 82.923C48.5281 83.6938 49.0438 84.3187 49.6795 84.3187C50.3155 84.3187 50.8308 83.6938 50.8308 82.923C50.8308 82.1523 50.3151 81.5273 49.6795 81.5273C49.0434 81.5273 48.5281 82.1523 48.5281 82.923Z" fill="#263238"/>
<path d="M49.7505 83.3367C49.8659 83.3367 49.9804 83.2883 50.0617 83.1943C50.8583 82.2712 51.3149 80.9658 51.3149 79.6128C51.3149 76.9085 49.5349 74.708 47.3475 74.708C45.7355 74.708 44.2958 75.8955 43.6807 77.733C43.6089 77.9478 43.7247 78.1806 43.9398 78.2529C44.155 78.3243 44.3878 78.2089 44.4597 77.9938C44.961 76.4967 46.0943 75.5292 47.3475 75.5292C49.0824 75.5292 50.4937 77.361 50.4937 79.6128C50.4937 80.772 50.1094 81.8815 49.4401 82.658C49.2922 82.8296 49.3111 83.0891 49.4828 83.2374C49.56 83.3039 49.6552 83.3367 49.7505 83.3367Z" fill="#263238"/>
<g opacity="0.4">
<path d="M49.7505 83.3367C49.8659 83.3367 49.9804 83.2883 50.0617 83.1943C50.8583 82.2712 51.3149 80.9658 51.3149 79.6128C51.3149 76.9085 49.5349 74.708 47.3475 74.708C45.7355 74.708 44.2958 75.8955 43.6807 77.733C43.6089 77.9478 43.7247 78.1806 43.9398 78.2529C44.155 78.3243 44.3878 78.2089 44.4597 77.9938C44.961 76.4967 46.0943 75.5292 47.3475 75.5292C49.0824 75.5292 50.4937 77.361 50.4937 79.6128C50.4937 80.772 50.1094 81.8815 49.4401 82.658C49.2922 82.8296 49.3111 83.0891 49.4828 83.2374C49.56 83.3039 49.6552 83.3367 49.7505 83.3367Z" fill="white"/>
</g>
<path d="M40.7219 82.923C40.7219 83.6938 41.2377 84.3187 41.8733 84.3187C42.5093 84.3187 43.0247 83.6938 43.0247 82.923C43.0247 82.1523 42.5089 81.5273 41.8733 81.5273C41.2373 81.5273 40.7219 82.1523 40.7219 82.923Z" fill="#263238"/>
<path d="M41.9441 83.3367C42.0595 83.3367 42.174 83.2883 42.2553 83.1943C43.0515 82.2712 43.5085 80.9658 43.5085 79.6128C43.5085 76.9085 41.7289 74.708 39.5412 74.708C37.9291 74.708 36.4894 75.8955 35.8743 77.733C35.8025 77.9478 35.9183 78.1806 36.1334 78.2529C36.3486 78.3243 36.5814 78.2089 36.6533 77.9938C37.1546 76.4967 38.2879 75.5292 39.5412 75.5292C41.276 75.5292 42.6873 77.361 42.6873 79.6128C42.6873 80.772 42.303 81.8815 41.6337 82.658C41.4858 82.8296 41.5047 83.0891 41.6764 83.2374C41.7536 83.3039 41.8488 83.3367 41.9441 83.3367Z" fill="#263238"/>
<g opacity="0.4">
<path d="M41.9441 83.3367C42.0595 83.3367 42.174 83.2883 42.2553 83.1943C43.0515 82.2712 43.5085 80.9658 43.5085 79.6128C43.5085 76.9085 41.7289 74.708 39.5412 74.708C37.9291 74.708 36.4894 75.8955 35.8743 77.733C35.8025 77.9478 35.9183 78.1806 36.1334 78.2529C36.3486 78.3243 36.5814 78.2089 36.6533 77.9938C37.1546 76.4967 38.2879 75.5292 39.5412 75.5292C41.276 75.5292 42.6873 77.361 42.6873 79.6128C42.6873 80.772 42.303 81.8815 41.6337 82.658C41.4858 82.8296 41.5047 83.0891 41.6764 83.2374C41.7536 83.3039 41.8488 83.3367 41.9441 83.3367Z" fill="white"/>
</g>
<path d="M47.664 110.824H44.2227V116.692H47.664V110.824Z" fill="#0085F9"/>
<path d="M53.2385 106.555H49.7971V116.692H53.2385V106.555Z" fill="#0085F9"/>
<path d="M58.8137 108.156H55.3723V116.692H58.8137V108.156Z" fill="#0085F9"/>
<path d="M64.3887 103.886H60.9473V116.692H64.3887V103.886Z" fill="#0085F9"/>
<path d="M69.963 99.6162H66.522V116.692H69.963V99.6162Z" fill="#0085F9"/>
<path opacity="0.5" d="M47.664 110.824H44.2227V116.692H47.664V110.824Z" fill="white"/>
<path opacity="0.5" d="M53.2385 106.555H49.7971V116.692H53.2385V106.555Z" fill="white"/>
<path opacity="0.5" d="M58.8137 108.156H55.3723V116.692H58.8137V108.156Z" fill="white"/>
<path opacity="0.5" d="M64.3887 103.886H60.9473V116.692H64.3887V103.886Z" fill="white"/>
<path opacity="0.5" d="M69.963 99.6162H66.522V116.692H69.963V99.6162Z" fill="white"/>
<path d="M74.5513 115.88H39.4968V117.504H74.5513V115.88Z" fill="#263238"/>
<path d="M40.5981 111.555L51.5181 102.865L57.0927 106.101L72.4408 93.0176" stroke="#0085F9" stroke-width="1.21851" stroke-miterlimit="10"/>
<path d="M73.3366 92.2627L71.0527 92.6166L72.6619 94.3351L73.3366 92.2627Z" fill="#0085F9"/>
<g opacity="0.3">
<path d="M59.3776 122.782H39.5398C39.3131 122.782 39.1292 122.599 39.1292 122.372C39.1292 122.144 39.3131 121.961 39.5398 121.961H59.3776C59.6042 121.961 59.7882 122.144 59.7882 122.372C59.7882 122.599 59.6042 122.782 59.3776 122.782Z" fill="black"/>
</g>
<g opacity="0.3">
<path d="M74.6977 126.452H42.3706C42.1439 126.452 41.96 126.269 41.96 126.041C41.96 125.814 42.1439 125.631 42.3706 125.631H74.6977C74.9244 125.631 75.1083 125.814 75.1083 126.041C75.1083 126.269 74.9244 126.452 74.6977 126.452Z" fill="black"/>
<path d="M74.7433 128.51H39.5398C39.3131 128.51 39.1292 128.326 39.1292 128.099C39.1292 127.872 39.3131 127.688 39.5398 127.688H74.7429C74.9696 127.688 75.1535 127.872 75.1535 128.099C75.1539 128.326 74.97 128.51 74.7433 128.51Z" fill="black"/>
<path d="M74.7883 130.567H39.5852C39.3585 130.567 39.1746 130.384 39.1746 130.157C39.1746 129.93 39.3585 129.746 39.5852 129.746H74.7883C75.015 129.746 75.1989 129.93 75.1989 130.157C75.1989 130.384 75.015 130.567 74.7883 130.567Z" fill="black"/>
<path d="M69.0817 132.625H39.6301C39.4034 132.625 39.2195 132.441 39.2195 132.214C39.2195 131.987 39.4034 131.804 39.6301 131.804H69.0813C69.3079 131.804 69.4919 131.987 69.4919 132.214C69.4923 132.441 69.3084 132.625 69.0817 132.625Z" fill="black"/>
</g>
<g opacity="0.3">
<path d="M74.6977 136.313H42.3706C42.1439 136.313 41.96 136.13 41.96 135.903C41.96 135.676 42.1439 135.492 42.3706 135.492H74.6977C74.9244 135.492 75.1083 135.676 75.1083 135.903C75.1083 136.129 74.9244 136.313 74.6977 136.313Z" fill="black"/>
<path d="M74.7433 138.371H39.5398C39.3131 138.371 39.1292 138.187 39.1292 137.96C39.1292 137.733 39.3131 137.55 39.5398 137.55H74.7429C74.9696 137.55 75.1535 137.733 75.1535 137.96C75.1539 138.187 74.97 138.371 74.7433 138.371Z" fill="black"/>
<path d="M74.7883 140.429H39.5852C39.3585 140.429 39.1746 140.245 39.1746 140.018C39.1746 139.791 39.3585 139.607 39.5852 139.607H74.7883C75.015 139.607 75.1989 139.791 75.1989 140.018C75.1989 140.245 75.015 140.429 74.7883 140.429Z" fill="black"/>
<path d="M69.0817 142.486H39.6301C39.4034 142.486 39.2195 142.303 39.2195 142.076C39.2195 141.849 39.4034 141.665 39.6301 141.665H69.0813C69.3079 141.665 69.4919 141.849 69.4919 142.076C69.4923 142.302 69.3084 142.486 69.0817 142.486Z" fill="black"/>
</g>
<g opacity="0.3">
<path d="M59.3776 88.6796H39.5398C39.3131 88.6796 39.1292 88.4961 39.1292 88.269C39.1292 88.0419 39.3131 87.8584 39.5398 87.8584H59.3776C59.6042 87.8584 59.7882 88.0419 59.7882 88.269C59.7882 88.4957 59.6042 88.6796 59.3776 88.6796Z" fill="black"/>
</g>
<path d="M168.536 128.485H121.384C120.6 128.485 119.963 127.849 119.963 127.064V49.1702C119.963 48.3855 120.599 47.749 121.384 47.749H168.536C169.321 47.749 169.957 48.3851 169.957 49.1702V127.064C169.957 127.849 169.321 128.485 168.536 128.485Z" fill="#0085F9"/>
<path d="M158.443 50.2719H131.478V47.6272C131.478 47.481 131.596 47.3623 131.742 47.3623H158.178C158.325 47.3623 158.443 47.481 158.443 47.6272L158.443 50.2719Z" fill="#263238"/>
<path opacity="0.9" d="M167.981 50.2725H121.94V125.953H167.981V50.2725Z" fill="white"/>
<path d="M153.989 53.754H145.889L145.796 53.4707C145.678 53.1073 145.343 52.8634 144.963 52.8634C144.583 52.8634 144.248 53.1073 144.13 53.4707L144.038 53.7545H135.937C135.283 53.7545 134.751 53.2239 134.751 52.5719V49.5908C134.751 48.9387 135.283 48.4082 135.937 48.4082H153.988C154.64 48.4082 155.171 48.9387 155.171 49.5908V52.5719C155.171 53.2235 154.641 53.754 153.989 53.754ZM146.456 52.9328H153.989C154.188 52.9328 154.35 52.7706 154.35 52.5715V49.5904C154.35 49.3912 154.188 49.229 153.989 49.229H135.938C135.733 49.229 135.572 49.3879 135.572 49.5904V52.5715C135.572 52.7739 135.733 52.9328 135.938 52.9328H143.47C143.763 52.39 144.33 52.0418 144.963 52.0418C145.596 52.0418 146.163 52.39 146.456 52.9328Z" fill="#263238"/>
<g opacity="0.5">
<path d="M153.989 53.754H145.889L145.796 53.4707C145.678 53.1073 145.343 52.8634 144.963 52.8634C144.583 52.8634 144.248 53.1073 144.13 53.4707L144.038 53.7545H135.937C135.283 53.7545 134.751 53.2239 134.751 52.5719V49.5908C134.751 48.9387 135.283 48.4082 135.937 48.4082H153.988C154.64 48.4082 155.171 48.9387 155.171 49.5908V52.5719C155.171 53.2235 154.641 53.754 153.989 53.754ZM146.456 52.9328H153.989C154.188 52.9328 154.35 52.7706 154.35 52.5715V49.5904C154.35 49.3912 154.188 49.229 153.989 49.229H135.938C135.733 49.229 135.572 49.3879 135.572 49.5904V52.5715C135.572 52.7739 135.733 52.9328 135.938 52.9328H143.47C143.763 52.39 144.33 52.0418 144.963 52.0418C145.596 52.0418 146.163 52.39 146.456 52.9328Z" fill="white"/>
</g>
<path d="M152.717 49.7177H137.204C136.98 49.7177 136.798 49.5358 136.798 49.3116V48.3368C136.798 48.1126 136.98 47.9307 137.204 47.9307H152.717C152.942 47.9307 153.123 48.1126 153.123 48.3368V49.3116C153.123 49.5358 152.942 49.7177 152.717 49.7177Z" fill="#263238"/>
<path opacity="0.2" d="M152.717 49.7177H137.204C136.98 49.7177 136.798 49.5358 136.798 49.3116V48.3368C136.798 48.1126 136.98 47.9307 137.204 47.9307H152.717C152.942 47.9307 153.123 48.1126 153.123 48.3368V49.3116C153.123 49.5358 152.942 49.7177 152.717 49.7177Z" fill="white"/>
<path d="M164.383 113.694C165.492 108.998 162.584 104.292 157.888 103.183C153.192 102.075 148.486 104.983 147.377 109.679C146.269 114.375 149.177 119.081 153.873 120.189C158.569 121.298 163.275 118.39 164.383 113.694Z" fill="#0085F9"/>
<path opacity="0.3" d="M155.879 111.673H164.617C164.617 116.466 160.673 120.41 155.879 120.41C151.086 120.41 147.142 116.466 147.142 111.673C147.142 106.88 151.086 102.936 155.879 102.936C155.89 102.936 155.9 102.936 155.911 102.936L155.879 111.673Z" fill="white"/>
<path opacity="0.3" d="M155.879 111.673L160.594 119.028C159.187 119.93 157.551 120.41 155.879 120.41C151.086 120.41 147.142 116.466 147.142 111.673C147.142 106.88 151.086 102.936 155.879 102.936C155.89 102.936 155.9 102.936 155.91 102.936L155.879 111.673Z" fill="white"/>
<path opacity="0.3" d="M155.88 111.673L148.513 116.371C147.618 114.968 147.142 113.337 147.142 111.673C147.142 106.88 151.086 102.936 155.879 102.936C155.889 102.936 155.899 102.936 155.91 102.936L155.88 111.673Z" fill="white"/>
<g opacity="0.5">
<path d="M125.26 63.8232V84.4461H164.662V63.8232H125.26ZM164.354 67.0441H157.533V64.1312H164.354V67.0441ZM142.57 67.0441H135.55V64.1312H142.57V67.0441ZM142.878 64.1312H149.897V67.0441H142.878V64.1312ZM142.57 67.3521V84.1382H135.55V67.3521H142.57ZM142.878 67.3521H149.897V84.1382H142.878V67.3521ZM150.205 67.3521H157.225V84.1382H150.205V67.3521ZM150.205 67.0441V64.1312H157.225V67.0441H150.205ZM135.242 64.1312V67.0441H125.567V64.1312H135.242ZM125.567 67.3521H135.242V84.1382H125.567V67.3521ZM157.533 84.1382V67.3521H164.354V84.1382H157.533Z" fill="black"/>
<path d="M137.786 70.2333H140.629C140.856 70.2333 141.04 70.0494 141.04 69.8227C141.04 69.5961 140.856 69.4121 140.629 69.4121H137.786C137.56 69.4121 137.376 69.5961 137.376 69.8227C137.376 70.0498 137.559 70.2333 137.786 70.2333Z" fill="black"/>
<path d="M144.96 73.9599H148.046C148.272 73.9599 148.456 73.7764 148.456 73.5493C148.456 73.3222 148.272 73.1387 148.046 73.1387H144.96C144.734 73.1387 144.55 73.3222 144.55 73.5493C144.55 73.776 144.734 73.9599 144.96 73.9599Z" fill="black"/>
<path d="M148.182 80.5898H144.96C144.734 80.5898 144.55 80.7734 144.55 81.0005C144.55 81.2275 144.734 81.4111 144.96 81.4111H148.182C148.409 81.4111 148.593 81.2275 148.593 81.0005C148.593 80.7734 148.409 80.5898 148.182 80.5898Z" fill="black"/>
<path d="M155.325 76.8643H151.921C151.694 76.8643 151.51 77.0478 151.51 77.2749C151.51 77.5019 151.694 77.6855 151.921 77.6855H155.325C155.552 77.6855 155.736 77.5019 155.736 77.2749C155.736 77.0478 155.552 76.8643 155.325 76.8643Z" fill="black"/>
<path d="M162.669 69.4121H159.223C158.997 69.4121 158.813 69.5961 158.813 69.8227C158.813 70.0494 158.997 70.2333 159.223 70.2333H162.669C162.896 70.2333 163.079 70.0494 163.079 69.8227C163.079 69.5961 162.896 69.4121 162.669 69.4121Z" fill="black"/>
<path d="M162.229 80.5898H159.223C158.997 80.5898 158.813 80.7734 158.813 81.0005C158.813 81.2275 158.997 81.4111 159.223 81.4111H162.229C162.455 81.4111 162.639 81.2275 162.639 81.0005C162.639 80.7734 162.456 80.5898 162.229 80.5898Z" fill="black"/>
<path d="M137.786 77.6855H140.223C140.45 77.6855 140.634 77.5019 140.634 77.2749C140.634 77.0478 140.45 76.8643 140.223 76.8643H137.786C137.56 76.8643 137.376 77.0478 137.376 77.2749C137.376 77.5015 137.559 77.6855 137.786 77.6855Z" fill="black"/>
<path d="M140.629 80.5898H137.786C137.559 80.5898 137.375 80.7734 137.375 81.0005C137.375 81.2275 137.559 81.4111 137.786 81.4111H140.629C140.855 81.4111 141.039 81.2275 141.039 81.0005C141.039 80.7734 140.856 80.5898 140.629 80.5898Z" fill="black"/>
<path d="M127.049 70.2333H133.546C133.773 70.2333 133.957 70.0494 133.957 69.8227C133.957 69.5961 133.773 69.4121 133.546 69.4121H127.049C126.822 69.4121 126.638 69.5961 126.638 69.8227C126.638 70.0498 126.822 70.2333 127.049 70.2333Z" fill="black"/>
<path d="M127.049 73.9599H131.375C131.601 73.9599 131.785 73.7764 131.785 73.5493C131.785 73.3222 131.601 73.1387 131.375 73.1387H127.049C126.822 73.1387 126.638 73.3222 126.638 73.5493C126.638 73.776 126.822 73.9599 127.049 73.9599Z" fill="black"/>
<path d="M133.546 76.8643H127.049C126.822 76.8643 126.638 77.0478 126.638 77.2749C126.638 77.5019 126.822 77.6855 127.049 77.6855H133.546C133.773 77.6855 133.957 77.5019 133.957 77.2749C133.957 77.0478 133.773 76.8643 133.546 76.8643Z" fill="black"/>
<path d="M130.297 80.5898H127.049C126.822 80.5898 126.638 80.7734 126.638 81.0005C126.638 81.2275 126.822 81.4111 127.049 81.4111H130.297C130.524 81.4111 130.708 81.2275 130.708 81.0005C130.708 80.7734 130.524 80.5898 130.297 80.5898Z" fill="black"/>
</g>
<g opacity="0.5">
<path d="M141.044 59.4999H125.67C125.443 59.4999 125.26 59.316 125.26 59.0893C125.26 58.8627 125.443 58.6787 125.67 58.6787H141.044C141.271 58.6787 141.455 58.8627 141.455 59.0893C141.455 59.3164 141.271 59.4999 141.044 59.4999Z" fill="black"/>
</g>
<g opacity="0.5">
<path d="M135.652 61.8056H125.67C125.443 61.8056 125.26 61.6217 125.26 61.395C125.26 61.1683 125.443 60.9844 125.67 60.9844H135.652C135.879 60.9844 136.063 61.1683 136.063 61.395C136.063 61.6217 135.879 61.8056 135.652 61.8056Z" fill="black"/>
</g>
<g opacity="0.5">
<path d="M145.508 88.0078H125.67C125.443 88.0078 125.26 87.8242 125.26 87.5971C125.26 87.3701 125.443 87.1865 125.67 87.1865H145.508C145.734 87.1865 145.918 87.3701 145.918 87.5971C145.918 87.8242 145.735 88.0078 145.508 88.0078Z" fill="black"/>
</g>
<path d="M127.71 104.284H125.26V106.735H127.71V104.284Z" fill="#0085F9"/>
<g opacity="0.5">
<path d="M141.657 105.92H129.492C129.265 105.92 129.082 105.736 129.082 105.509C129.082 105.282 129.265 105.099 129.492 105.099H141.657C141.884 105.099 142.068 105.282 142.068 105.509C142.068 105.736 141.884 105.92 141.657 105.92Z" fill="black"/>
</g>
<path d="M127.71 108.394H125.26V110.844H127.71V108.394Z" fill="#0085F9"/>
<g opacity="0.5">
<path d="M141.657 110.029H129.492C129.265 110.029 129.082 109.846 129.082 109.619C129.082 109.392 129.265 109.208 129.492 109.208H141.657C141.884 109.208 142.068 109.392 142.068 109.619C142.068 109.845 141.884 110.029 141.657 110.029Z" fill="black"/>
</g>
<path d="M127.71 112.502H125.26V114.953H127.71V112.502Z" fill="#0085F9"/>
<g opacity="0.5">
<path d="M141.657 114.138H129.492C129.265 114.138 129.082 113.954 129.082 113.727C129.082 113.5 129.265 113.316 129.492 113.316H141.657C141.884 113.316 142.068 113.5 142.068 113.727C142.068 113.954 141.884 114.138 141.657 114.138Z" fill="black"/>
</g>
<path d="M127.71 116.61H125.26V119.061H127.71V116.61Z" fill="#0085F9"/>
<g opacity="0.5">
<path d="M141.657 118.246H129.492C129.265 118.246 129.082 118.062 129.082 117.835C129.082 117.608 129.265 117.425 129.492 117.425H141.657C141.884 117.425 142.068 117.608 142.068 117.835C142.068 118.062 141.884 118.246 141.657 118.246Z" fill="black"/>
</g>
<g opacity="0.5">
<path d="M164.115 91.6777H128.501C128.274 91.6777 128.09 91.4941 128.09 91.2671C128.09 91.04 128.274 90.8564 128.501 90.8564H164.115C164.342 90.8564 164.526 91.04 164.526 91.2671C164.526 91.4941 164.342 91.6777 164.115 91.6777Z" fill="black"/>
<path d="M164.16 93.7353H125.67C125.443 93.7353 125.26 93.5518 125.26 93.3247C125.26 93.0976 125.443 92.9141 125.67 92.9141H164.16C164.387 92.9141 164.571 93.0976 164.571 93.3247C164.571 93.5513 164.387 93.7353 164.16 93.7353Z" fill="black"/>
<path d="M164.206 95.7929H125.716C125.489 95.7929 125.305 95.6094 125.305 95.3823C125.305 95.1552 125.489 94.9717 125.716 94.9717H164.206C164.432 94.9717 164.616 95.1552 164.616 95.3823C164.616 95.6094 164.433 95.7929 164.206 95.7929Z" fill="black"/>
<path d="M158.499 97.8505H125.76C125.534 97.8505 125.35 97.667 125.35 97.4399C125.35 97.2128 125.534 97.0293 125.76 97.0293H158.499C158.725 97.0293 158.909 97.2128 158.909 97.4399C158.909 97.667 158.725 97.8505 158.499 97.8505Z" fill="black"/>
</g>
<path opacity="0.3" d="M127.71 108.393H125.26V110.843H127.71V108.393Z" fill="white"/>
<path opacity="0.5" d="M127.71 112.502H125.26V114.953H127.71V112.502Z" fill="white"/>
<path opacity="0.7" d="M127.71 116.61H125.26V119.061H127.71V116.61Z" fill="white"/>
<path d="M167.291 138.913C167.291 138.913 165.341 134.657 167.569 130.462C169.798 126.267 170.444 125.278 169.023 124.419C167.603 123.56 166.951 127.775 166.951 127.775C166.951 127.775 165.754 124.875 166.742 121.84C167.731 118.805 168.351 113.861 167.001 113.331C165.65 112.801 166.743 119.498 165.571 121.781C165.571 121.781 164.587 119.24 164.425 116.802C164.264 114.364 164.516 110.471 163.45 109.473C162.384 108.474 161.7 109.165 162.748 114.545C163.796 119.925 163.788 124.298 163.788 124.298C163.788 124.298 161.474 117.241 159.92 117.035C158.367 116.829 158.369 119.115 159.699 121.097C161.028 123.079 163.593 126.63 164.013 128.457C164.013 128.457 161.473 123.147 159.187 124.774C156.902 126.402 161.176 129.61 163.081 130.769C164.987 131.928 166.31 139.194 166.31 139.194L167.291 138.913Z" fill="#0085F9"/>
<path opacity="0.2" d="M167.291 138.913C167.291 138.913 165.341 134.657 167.569 130.462C169.798 126.267 170.444 125.278 169.023 124.419C167.603 123.56 166.951 127.775 166.951 127.775C166.951 127.775 165.754 124.875 166.742 121.84C167.731 118.805 168.351 113.861 167.001 113.331C165.65 112.801 166.743 119.498 165.571 121.781C165.571 121.781 164.587 119.24 164.425 116.802C164.264 114.364 164.516 110.471 163.45 109.473C162.384 108.474 161.7 109.165 162.748 114.545C163.796 119.925 163.788 124.298 163.788 124.298C163.788 124.298 161.474 117.241 159.92 117.035C158.367 116.829 158.369 119.115 159.699 121.097C161.028 123.079 163.593 126.63 164.013 128.457C164.013 128.457 161.473 123.147 159.187 124.774C156.902 126.402 161.176 129.61 163.081 130.769C164.987 131.928 166.31 139.194 166.31 139.194L167.291 138.913Z" fill="black"/>
<path d="M165.752 140.659C165.752 140.659 167.651 136.375 165.372 132.213C163.094 128.051 162.436 127.073 163.846 126.192C165.256 125.311 165.959 129.517 165.959 129.517C165.959 129.517 167.121 126.599 166.096 123.579C165.071 120.559 164.392 115.625 165.736 115.075C167.08 114.524 166.068 121.237 167.267 123.503C167.267 123.503 168.22 120.947 168.353 118.507C168.485 116.067 168.186 112.178 169.24 111.163C170.294 110.149 170.986 110.83 170.003 116.225C169.019 121.62 169.079 125.993 169.079 125.993C169.079 125.993 171.309 118.902 172.86 118.672C174.411 118.443 174.436 120.729 173.131 122.731C171.825 124.732 169.303 128.322 168.905 130.155C168.905 130.155 171.381 124.807 173.686 126.4C175.991 127.994 171.755 131.265 169.864 132.452C167.972 133.64 166.737 140.925 166.737 140.925L165.752 140.659Z" fill="#0085F9"/>
<path d="M174.512 137.604H158.822L160.092 148.832H173.242L174.512 137.604Z" fill="#263238"/>
<path d="M79.7648 41.3145H91.5611C93.5669 41.3145 95.1934 42.9409 95.1934 44.9468V55.2131C95.1934 57.2189 93.5669 58.8454 91.5611 58.8454H88.1168L89.3606 63.3195L85.6736 58.8454H79.7644C77.7585 58.8454 76.1321 57.2193 76.1321 55.2131V44.9468C76.1325 42.9405 77.7589 41.3145 79.7648 41.3145Z" fill="#0085F9"/>
<path opacity="0.7" d="M79.7648 41.3145H91.5611C93.5669 41.3145 95.1934 42.9409 95.1934 44.9468V55.2131C95.1934 57.2189 93.5669 58.8454 91.5611 58.8454H88.1168L89.3606 63.3195L85.6736 58.8454H79.7644C77.7585 58.8454 76.1321 57.2193 76.1321 55.2131V44.9468C76.1325 42.9405 77.7589 41.3145 79.7648 41.3145Z" fill="white"/>
<path opacity="0.7" d="M83.8819 52.3156C85.912 52.3156 87.5578 50.6698 87.5578 48.6397C87.5578 46.6096 85.912 44.9639 83.8819 44.9639C81.8518 44.9639 80.2061 46.6096 80.2061 48.6397C80.2061 50.6698 81.8518 52.3156 83.8819 52.3156Z" fill="white"/>
<path d="M83.8819 52.3156C85.912 52.3156 87.5578 50.6698 87.5578 48.6397C87.5578 46.6096 85.912 44.9639 83.8819 44.9639C81.8518 44.9639 80.2061 46.6096 80.2061 48.6397C80.2061 50.6698 81.8518 52.3156 83.8819 52.3156Z" stroke="#0085F9" stroke-width="1.06625" stroke-miterlimit="10"/>
<path d="M86.4814 51.2393L90.6722 55.43" stroke="#0085F9" stroke-width="1.06625" stroke-miterlimit="10"/>
<path d="M87.9194 52.6768L91.1206 55.8775" stroke="#0085F9" stroke-width="1.59936" stroke-miterlimit="10" stroke-linecap="round" stroke-linejoin="round"/>
<path d="M84.4513 46.9792C84.4513 47.4276 84.0875 47.7914 83.6391 47.7914C83.1907 47.7914 82.8269 47.4276 82.8269 46.9792C82.8269 46.5308 83.1907 46.167 83.6391 46.167C84.0879 46.167 84.4513 46.5304 84.4513 46.9792Z" fill="white"/>
<path d="M85.6696 47.578C85.6696 47.8022 85.4877 47.9841 85.2635 47.9841C85.0393 47.9841 84.8574 47.8022 84.8574 47.578C84.8574 47.3538 85.0393 47.1719 85.2635 47.1719C85.4881 47.1719 85.6696 47.3538 85.6696 47.578Z" fill="white"/>
<path d="M118.578 116.825H57.4211V126.668H118.578V116.825Z" fill="#0085F9"/>
<path opacity="0.8" d="M118.578 116.825H57.4211V126.668H118.578V116.825Z" fill="white"/>
<path opacity="0.2" d="M118.578 119.427V118.625L76.7053 118.961L118.578 119.427Z" fill="black"/>
<path opacity="0.2" d="M118.578 122.877V122.259L99.7805 122.931L118.578 122.877Z" fill="black"/>
<path opacity="0.2" d="M118.578 125.183V124.385L88.27 124.847L118.578 125.183Z" fill="black"/>
<path opacity="0.2" d="M71.0938 116.825L70.2073 124.163L71.2531 123.046C71.7368 125.114 73.1777 126.668 73.1777 126.668C73.1777 126.668 74.15 125.459 74.7212 123.845L103.282 123.517L74.9893 122.899C75.0739 122.503 75.1281 122.095 75.1281 121.683C75.1281 121.333 75.0895 120.991 75.0275 120.659L116.938 120.553L74.9306 120.224C74.7779 119.639 74.552 119.098 74.3135 118.629C74.9027 118.099 75.6775 117.788 76.5025 117.788H118.578V116.826L71.0938 116.825Z" fill="black"/>
<path d="M72.0371 121.688C72.0388 122.916 72.536 124.027 73.3417 124.833C74.1485 125.64 75.2617 126.137 76.4919 126.137H119.284C119.465 126.137 119.612 126.284 119.612 126.465V126.818C119.612 126.999 119.465 127.146 119.284 127.146H56.0735C54.5674 127.146 53.1988 126.534 52.2104 125.546C51.213 124.548 50.5992 123.167 50.6103 121.641C50.6324 118.617 53.1893 116.219 56.214 116.219H119.284C119.465 116.219 119.612 116.366 119.612 116.547V116.899C119.612 117.08 119.465 117.227 119.284 117.227H76.6233C74.1691 117.228 72.0343 119.234 72.0371 121.688Z" fill="#0085F9"/>
<path opacity="0.4" d="M72.0371 121.688C72.0388 122.916 72.536 124.027 73.3417 124.833C74.1485 125.64 75.2617 126.137 76.4919 126.137H119.284C119.465 126.137 119.612 126.284 119.612 126.465V126.818C119.612 126.999 119.465 127.146 119.284 127.146H56.0735C54.5674 127.146 53.1988 126.534 52.2104 125.546C51.213 124.548 50.5992 123.167 50.6103 121.641C50.6324 118.617 53.1893 116.219 56.214 116.219H119.284C119.465 116.219 119.612 116.366 119.612 116.547V116.899C119.612 117.08 119.465 117.227 119.284 117.227H76.6233C74.1691 117.228 72.0343 119.234 72.0371 121.688Z" fill="white"/>
<path d="M72.0372 121.688C72.0389 122.916 72.5361 124.027 73.3418 124.833C74.1486 125.64 75.2618 126.137 76.492 126.137H119.284C119.465 126.137 119.612 126.284 119.612 126.465V126.818C119.612 126.999 119.465 127.146 119.284 127.146H76.2469C74.7407 127.146 73.3721 126.534 72.3838 125.546C71.3864 124.548 70.7725 123.167 70.7836 121.641C70.8058 118.617 73.3627 116.219 76.3873 116.219H119.284C119.465 116.219 119.612 116.366 119.612 116.547V116.899C119.612 117.08 119.465 117.227 119.284 117.227H76.6234C74.1691 117.228 72.0343 119.234 72.0372 121.688Z" fill="#0085F9"/>
<path d="M80.0964 119.037V122.983L81.5246 121.555L82.9088 122.939V119.037H80.0964Z" fill="#263238"/>
<path opacity="0.6" d="M72.0372 121.688C72.0389 122.916 72.5361 124.027 73.3418 124.833C74.1486 125.64 75.2618 126.137 76.492 126.137H119.284C119.465 126.137 119.612 126.284 119.612 126.465V126.818C119.612 126.999 119.465 127.146 119.284 127.146H76.2469C74.7407 127.146 73.3721 126.534 72.3838 125.546C71.3864 124.548 70.7725 123.167 70.7836 121.641C70.8058 118.617 73.3627 116.219 76.3873 116.219H119.284C119.465 116.219 119.612 116.366 119.612 116.547V116.899C119.612 117.08 119.465 117.227 119.284 117.227H76.6234C74.1691 117.228 72.0343 119.234 72.0372 121.688Z" fill="white"/>
<path d="M121.53 138.511H60.3738V148.353H121.53V138.511Z" fill="#0085F9"/>
<path opacity="0.7" d="M121.53 138.511H60.3738V148.353H121.53V138.511Z" fill="white"/>
<path opacity="0.2" d="M121.53 141.112V140.31L79.6572 140.646L121.53 141.112Z" fill="black"/>
<path opacity="0.2" d="M121.53 144.563V143.944L102.733 144.617L121.53 144.563Z" fill="black"/>
<path opacity="0.2" d="M121.53 146.868V146.07L91.2224 146.532L121.53 146.868Z" fill="black"/>
<path opacity="0.2" d="M74.0459 138.511L73.1594 145.848L74.2053 144.732C74.689 146.799 76.1298 148.353 76.1298 148.353C76.1298 148.353 77.1018 147.144 77.6733 145.53L106.234 145.202L77.9415 144.584C78.0261 144.188 78.0803 143.781 78.0803 143.368C78.0803 143.019 78.0417 142.676 77.9797 142.344L119.89 142.238L77.8828 141.909C77.73 141.324 77.5042 140.783 77.2656 140.314C77.8548 139.784 78.6297 139.473 79.4546 139.473H121.53V138.511H74.0459Z" fill="black"/>
<path d="M74.9906 143.374C74.9922 144.602 75.4895 145.713 76.2951 146.518C77.102 147.325 78.2152 147.823 79.4454 147.823H122.237C122.418 147.823 122.565 147.97 122.565 148.151V148.503C122.565 148.684 122.418 148.831 122.237 148.831H55.6648C54.1587 148.831 52.7901 148.219 51.8017 147.231C50.8043 146.234 50.1905 144.853 50.2016 143.327C50.2237 140.302 52.7807 137.904 55.8053 137.904H122.238C122.419 137.904 122.566 138.051 122.566 138.232V138.585C122.566 138.766 122.419 138.913 122.238 138.913H79.5764C77.1225 138.913 74.9873 140.919 74.9906 143.374Z" fill="#263238"/>
<path opacity="0.2" d="M74.9906 143.374C74.9922 144.602 75.4895 145.713 76.2951 146.518C77.102 147.325 78.2152 147.823 79.4454 147.823H122.237C122.418 147.823 122.565 147.97 122.565 148.151V148.503C122.565 148.684 122.418 148.831 122.237 148.831H55.6648C54.1587 148.831 52.7901 148.219 51.8017 147.231C50.8043 146.234 50.1905 144.853 50.2016 143.327C50.2237 140.302 52.7807 137.904 55.8053 137.904H122.238C122.419 137.904 122.566 138.051 122.566 138.232V138.585C122.566 138.766 122.419 138.913 122.238 138.913H79.5764C77.1225 138.913 74.9873 140.919 74.9906 143.374Z" fill="white"/>
<path d="M74.9907 143.374C74.9924 144.602 75.4897 145.713 76.2953 146.518C77.1021 147.325 78.2153 147.823 79.4455 147.823H122.237C122.418 147.823 122.565 147.97 122.565 148.151V148.503C122.565 148.684 122.418 148.831 122.237 148.831H79.2C77.6938 148.831 76.3253 148.219 75.3369 147.231C74.3395 146.234 73.7256 144.853 73.7367 143.327C73.7589 140.302 76.3158 137.904 79.3404 137.904H122.237C122.418 137.904 122.565 138.051 122.565 138.232V138.585C122.565 138.766 122.418 138.913 122.237 138.913H79.5765C77.1227 138.913 74.9875 140.919 74.9907 143.374Z" fill="#263238"/>
<path d="M79.6575 142.124V146.07L81.086 144.642L82.4702 146.026V142.124H79.6575Z" fill="#0085F9"/>
<path opacity="0.4" d="M74.9907 143.374C74.9924 144.602 75.4897 145.713 76.2953 146.518C77.1021 147.325 78.2153 147.823 79.4455 147.823H122.237C122.418 147.823 122.565 147.97 122.565 148.151V148.503C122.565 148.684 122.418 148.831 122.237 148.831H79.2C77.6938 148.831 76.3253 148.219 75.3369 147.231C74.3395 146.234 73.7256 144.853 73.7367 143.327C73.7589 140.302 76.3158 137.904 79.3404 137.904H122.237C122.418 137.904 122.565 138.051 122.565 138.232V138.585C122.565 138.766 122.418 138.913 122.237 138.913H79.5765C77.1227 138.913 74.9875 140.919 74.9907 143.374Z" fill="white"/>
<path d="M54.87 137.496H77.5295V127.668H54.87V137.496Z" fill="#0085F9"/>
<path opacity="0.8" d="M54.87 137.496H77.5295V127.668H54.87V137.496Z" fill="white"/>
<path opacity="0.2" d="M75.7121 128.63H54.8704V127.668H75.6899L75.7121 128.63Z" fill="black"/>
<path opacity="0.2" d="M75.712 129.468L56.9094 129.869L75.712 130.27V129.468Z" fill="black"/>
<path opacity="0.2" d="M75.7123 133.102L55.801 133.438L75.7123 133.72V133.102Z" fill="black"/>
<path opacity="0.2" d="M75.7124 135.228L55.9785 135.627L75.7124 136.026V135.228Z" fill="black"/>
<path opacity="0.2" d="M54.8701 130.868L73.9606 131.445L54.8701 131.844V130.868Z" fill="black"/>
<path d="M105.442 132.531C105.44 133.759 104.943 134.87 104.137 135.675C103.33 136.482 102.217 136.98 100.987 136.98H53.8244C53.6433 136.98 53.4963 137.127 53.4963 137.308V137.66C53.4963 137.841 53.6433 137.988 53.8244 137.988H101.232C102.738 137.988 104.107 137.377 105.095 136.388C106.093 135.391 106.707 134.01 106.696 132.484C106.673 129.46 104.117 127.062 101.092 127.062H53.8244C53.6433 127.062 53.4963 127.209 53.4963 127.39V127.742C53.4963 127.923 53.6433 128.07 53.8244 128.07H100.856C103.31 128.07 105.445 130.077 105.442 132.531Z" fill="#263238"/>
<path opacity="0.4" d="M105.442 132.531C105.44 133.759 104.943 134.87 104.137 135.675C103.33 136.482 102.217 136.98 100.987 136.98H53.8244C53.6433 136.98 53.4963 137.127 53.4963 137.308V137.66C53.4963 137.841 53.6433 137.988 53.8244 137.988H101.232C102.738 137.988 104.107 137.377 105.095 136.388C106.093 135.391 106.707 134.01 106.696 132.484C106.673 129.46 104.117 127.062 101.092 127.062H53.8244C53.6433 127.062 53.4963 127.209 53.4963 127.39V127.742C53.4963 127.923 53.6433 128.07 53.8244 128.07H100.856C103.31 128.07 105.445 130.077 105.442 132.531Z" fill="white"/>
<path d="M122.642 132.589C122.642 135.307 120.439 137.51 117.721 137.51H75.7131V127.668H117.721C120.439 127.668 122.642 129.871 122.642 132.589Z" fill="#0085F9"/>
<path opacity="0.7" d="M75.7124 127.668V137.513H117.723C118.762 137.513 119.723 137.19 120.517 136.642C121.801 135.754 122.642 134.268 122.642 132.59C122.642 129.87 120.439 127.668 117.723 127.668H75.7124Z" fill="white"/>
<path opacity="0.2" d="M75.7124 130.269V129.467L117.585 129.803L75.7124 130.269Z" fill="black"/>
<path opacity="0.2" d="M75.7124 133.719V133.101L94.5101 133.773L75.7124 133.719Z" fill="black"/>
<path opacity="0.2" d="M75.7124 136.026V135.228L106.021 135.689L75.7124 136.026Z" fill="black"/>
<path opacity="0.2" d="M117.789 128.629C118.613 128.629 119.386 128.942 119.978 129.47C119.739 129.94 119.514 130.482 119.359 131.066L77.3519 131.396L119.261 131.5C119.201 131.833 119.16 132.176 119.16 132.525C119.16 132.939 119.214 133.346 119.302 133.739L91.0087 134.358L119.567 134.687C119.839 135.461 120.206 136.143 120.515 136.641C121.799 135.753 122.64 134.267 122.64 132.589C122.64 129.869 120.438 127.667 117.721 127.667H75.7107V128.629L117.789 128.629Z" fill="black"/>
<path d="M122.253 132.531C122.251 133.759 121.754 134.87 120.948 135.675C120.141 136.482 119.028 136.98 117.798 136.98H75.0061C74.825 136.98 74.678 137.127 74.678 137.308V137.66C74.678 137.841 74.825 137.988 75.0061 137.988H118.043C119.55 137.988 120.918 137.377 121.906 136.388C122.904 135.391 123.518 134.01 123.507 132.484C123.484 129.46 120.928 127.062 117.903 127.062H75.0061C74.825 127.062 74.678 127.209 74.678 127.39V127.742C74.678 127.923 74.825 128.07 75.0061 128.07H117.666C120.121 128.07 122.255 130.077 122.253 132.531Z" fill="#263238"/>
<path d="M117.585 131.281V135.227L116.157 133.799L114.773 135.183V131.281H117.585Z" fill="#0085F9"/>
<path d="M128.684 75.8166L127.656 75.8359C127.27 75.8433 126.911 76.0367 126.693 76.3558L125.672 77.8455C125.264 78.4413 125.17 79.1976 125.419 79.8752L125.573 80.2948C127.279 80.3794 129.185 79.2137 129.185 79.2137L129.766 78.9414C130.282 78.6992 130.505 78.1247 130.278 77.6225L129.753 76.4658C129.572 76.0663 129.147 75.808 128.684 75.8166Z" fill="#EEC1BB"/>
<path d="M109.208 77.6452L110.194 78.4364C110.535 78.7058 110.884 78.9682 111.236 79.226C111.938 79.7451 112.655 80.2398 113.377 80.7174C114.102 81.1917 114.841 81.6257 115.583 82.0359C116.331 82.4334 117.084 82.7849 117.842 83.0854L117.452 83.0033C117.433 83.0259 117.67 83.0243 117.946 82.9491C118.227 82.8764 118.557 82.7512 118.892 82.5939C119.564 82.274 120.272 81.87 120.964 81.4216C121.663 80.9773 122.356 80.4957 123.048 79.9996C123.743 79.5139 124.433 78.9829 125.106 78.4824L125.131 78.4635C125.593 78.1202 126.245 78.2159 126.589 78.6774C126.872 79.0581 126.855 79.5693 126.582 79.9294C126.021 80.6669 125.435 81.3305 124.823 82.0039C124.206 82.6666 123.557 83.3047 122.865 83.9206C122.165 84.5275 121.435 85.1233 120.579 85.6539C120.149 85.9187 119.688 86.1712 119.145 86.3893C118.599 86.5983 117.966 86.8011 117.072 86.7518C116.979 86.7469 116.89 86.7313 116.805 86.7067L116.681 86.6697C115.691 86.377 114.734 86.0271 113.825 85.6087C112.918 85.1911 112.038 84.7345 111.198 84.2294C110.354 83.7297 109.54 83.1905 108.752 82.6206C108.36 82.3324 107.972 82.0392 107.589 81.7357C107.198 81.4311 106.845 81.1329 106.438 80.7667C105.581 79.9968 105.511 78.6783 106.281 77.8213C107.024 76.9951 108.276 76.9003 109.133 77.5856L109.208 77.6452Z" fill="#EBC0BB"/>
<path d="M103.693 74.7242C102.733 77.3998 104.281 80.0639 108.003 83.1949C109.858 82.9214 112.356 79.1215 112.356 79.1215C112.356 79.1215 107.12 73.8833 103.693 74.7242Z" fill="#0085F9"/>
<path d="M106.896 58.0927C106.896 58.0927 103.228 54.3396 98.4509 59.0498C93.6738 63.76 92.7405 79.3631 92.7405 79.3631L105.213 81.787C105.213 81.787 106.827 79.9334 107.656 74.5921C108.485 69.2508 108.925 64.1431 109.977 62.9507C111.029 61.7583 106.896 58.0927 106.896 58.0927Z" fill="#263238"/>
<path d="M117.61 137.114L114.908 136.037L115.963 132.098L116.937 128.485L120.353 129.242L118.902 133.41L117.61 137.114Z" fill="#EEC1BB"/>
<path opacity="0.2" d="M118.868 133.493L115.933 132.172L116.922 128.522L120.345 129.26L118.868 133.493Z" fill="black"/>
<path d="M97.1641 101.63C97.1641 101.63 119.741 98.5855 126.023 102.592C132.304 106.599 120.146 131.007 120.146 131.007L116.344 130.167C116.344 130.167 119.193 110.821 118.98 110.01C118.767 109.199 108.134 114.479 93.5781 114.979L97.1641 101.63Z" fill="#263238"/>
<path opacity="0.2" d="M97.1641 101.63C97.1641 101.63 119.741 98.5855 126.023 102.592C132.304 106.599 120.146 131.007 120.146 131.007L116.344 130.167C116.344 130.167 119.193 110.821 118.98 110.01C118.767 109.199 108.134 114.479 93.5781 114.979L97.1641 101.63Z" fill="black"/>
<path d="M116.134 128.953L120.919 130.504L120.061 132.686L115.665 131.191L116.134 128.953Z" fill="#263238"/>
<path d="M118.559 136.629C118.559 136.629 119.498 135.406 120.087 135.961C120.764 136.6 118.559 136.629 118.559 136.629ZM118.559 136.629C118.559 136.629 120.404 136.694 120.363 137.325C120.3 138.28 118.559 136.629 118.559 136.629Z" stroke="#577AFA" stroke-width="0.19837" stroke-miterlimit="10" stroke-linecap="round" stroke-linejoin="round"/>
<path d="M114.402 134.356C114.508 134.053 118.177 135.51 118.177 135.51C118.177 135.51 119.72 138.604 121.788 139.859C123.856 141.114 122.168 142.05 119.665 141.237C117.162 140.424 115.252 139.802 113.474 139.224C111.696 138.646 113.299 137.493 114.402 134.356Z" fill="#2E353A"/>
<path opacity="0.4" d="M116.134 128.953L120.919 130.504L120.061 132.686L115.665 131.191L116.134 128.953Z" fill="white"/>
<path d="M129.392 144.928L126.593 145.716L125.035 141.948L123.611 138.488L126.783 137.011L128.166 141.202L129.392 144.928Z" fill="#EEC1BB"/>
<path d="M125.351 143.736C125.366 143.415 129.299 143.765 129.299 143.765C129.299 143.765 131.66 146.29 134 146.902C136.34 147.515 134.989 148.895 132.358 148.829C129.727 148.763 127.72 148.713 125.851 148.667C123.982 148.62 125.19 147.057 125.351 143.736Z" fill="#2E353A"/>
<path d="M129.772 144.193C129.772 144.193 130.323 142.752 131.046 143.117C131.878 143.536 129.772 144.193 129.772 144.193ZM129.772 144.193C129.772 144.193 131.559 143.728 131.7 144.345C131.912 145.279 129.772 144.193 129.772 144.193Z" stroke="#577AFA" stroke-width="0.19837" stroke-miterlimit="10" stroke-linecap="round" stroke-linejoin="round"/>
<path opacity="0.2" d="M128.191 141.288L125.057 142.024L123.623 138.526L126.788 137.029L128.191 141.288Z" fill="black"/>
<path d="M103.57 104.55C103.57 104.55 103.244 100.083 103.094 99.1712C102.939 98.2037 102.735 97.0725 102.542 96.496C101.549 93.5161 88.2732 97.0195 88.2732 97.0195L87.8963 99.0611C87.8963 99.0611 81.9062 110.356 85.9089 114.424C87.1255 115.662 89.5108 116.218 91.9474 116.198C91.9474 116.198 99.3919 116.558 113.235 115.913C113.235 115.913 112.211 123.977 123.623 139.778L127.44 138.556C127.44 138.556 119.892 109.873 119.259 109.361C113.739 104.902 103.57 104.55 103.57 104.55Z" fill="#263238"/>
<path d="M122.932 139.596L127.675 137.918L128.321 140.172L123.922 141.658L122.932 139.596Z" fill="#263238"/>
<path d="M108.033 76.8622C108.033 76.8622 107.557 78.0283 106.891 80.065C106.731 80.5413 106.567 81.0669 106.395 81.6336C106.169 82.3768 105.926 83.1939 105.684 84.0809C105.508 84.7214 105.331 85.3907 105.159 86.097C104.982 86.8115 104.801 87.567 104.625 88.3431C104.608 88.4334 104.584 88.5279 104.567 88.6182C103.898 91.6321 103.311 94.5475 102.941 98.2636L88.3561 96.9907C88.3561 96.9907 88.3069 92.4862 88.853 87.4069C89.1486 84.6598 89.6167 81.7485 90.36 79.2848C90.9389 77.3631 91.6863 75.7125 92.6471 74.6325C92.6471 74.6325 100.556 72.0374 108.033 76.8622Z" fill="#0085F9"/>
<path d="M100.593 72.538C96.2056 71.1366 94.502 74.5739 94.502 74.5739L96.8355 74.3443L101.581 80.2987L104.36 76.6996L106.109 77.6379C106.109 77.6379 104.405 73.7559 100.593 72.538Z" fill="#0085F9"/>
<path opacity="0.6" d="M100.593 72.538C96.2056 71.1366 94.502 74.5739 94.502 74.5739L96.8355 74.3443L101.581 80.2987L104.36 76.6996L106.109 77.6379C106.109 77.6379 104.405 73.7559 100.593 72.538Z" fill="white"/>
<path d="M101.462 79.9932L97.4392 73.9694C99.3387 73.1075 100.595 69.4797 100.867 67.4336L103.711 71.7295C102.783 73.1092 102.163 74.6863 104.29 75.8751C104.29 75.8751 101.462 79.98 101.462 79.9932Z" fill="#EEC1BB"/>
<path opacity="0.2" d="M102.026 69.1865L103.71 71.7278C103.489 72.0539 103.288 72.3914 103.138 72.733C102.298 72.3561 101.404 71.1004 101.612 70.2131C101.716 69.7708 101.881 69.3643 102.026 69.1865Z" fill="black"/>
<path d="M88.117 97.4717L92.6777 97.7718L92.5135 99.0591L87.6694 98.7101L88.117 97.4717Z" fill="black"/>
<path d="M103.293 99.8301L93.0635 99.0959L93.2277 97.8086L103.126 98.459L103.293 99.8301Z" fill="black"/>
<path d="M97.965 98.3212L97.931 99.1609C97.9232 99.3556 98.0714 99.5206 98.2656 99.5338L99.5172 99.6175C99.7143 99.6307 99.8847 99.4824 99.8995 99.2858L99.9623 98.4341C99.9771 98.2338 99.8247 98.0605 99.6244 98.049L98.344 97.9771C98.1437 97.966 97.9733 98.1208 97.965 98.3212Z" stroke="white" stroke-width="0.410618" stroke-miterlimit="10"/>
<path opacity="0.5" d="M122.932 139.596L127.675 137.918L128.321 140.172L123.922 141.658L122.932 139.596Z" fill="white"/>
<path d="M110.836 66.2172C110.836 66.2172 110.406 65.3647 109.594 65.2949" stroke="#263238" stroke-width="0.227482" stroke-miterlimit="10" stroke-linecap="round" stroke-linejoin="round"/>
<path d="M109.466 68.1094C109.466 68.1094 109.542 69.1027 109.805 69.7822C109.805 69.7822 109.358 70.0865 108.839 69.7757L109.466 68.1094Z" fill="#D4827D"/>
<path d="M110.372 67.4952C110.267 67.7514 110.044 67.9025 109.873 67.8327C109.702 67.7629 109.649 67.4985 109.754 67.2423C109.858 66.986 110.082 66.8349 110.253 66.9047C110.424 66.9745 110.477 67.239 110.372 67.4952Z" fill="#263238"/>
<path d="M110.177 66.8877L110.823 66.8971C110.823 66.8971 110.354 67.2527 110.177 66.8877Z" fill="#263238"/>
<path d="M100.921 69.705C100.939 69.7481 100.956 69.7908 100.984 69.8245C101.024 69.9058 101.07 69.9826 101.115 70.0639C101.381 70.5427 101.714 71.0186 102.168 71.3885C103.569 72.5522 104.778 72.9226 105.857 72.6237C105.909 72.6109 105.962 72.5933 106.014 72.5756C106.019 72.5806 106.019 72.5806 106.019 72.5806C107.625 71.9741 108.895 70.1033 109.963 67.6133C110.459 66.4738 110.787 65.4337 110.857 64.5292C110.858 64.5197 110.872 64.4918 110.872 64.4823C110.873 64.4446 110.884 64.3978 110.885 64.36C110.955 63.0821 110.538 62.0236 109.474 61.128C109.104 60.8164 108.658 60.5219 108.127 60.2489C103.443 57.8279 98.6687 65.196 100.921 69.705Z" fill="#EEC1BB"/>
<path d="M110.877 64.4988C110.877 64.4988 109.472 67.9311 105.629 67.7726C105.629 67.7726 102.558 70.5254 100.556 69.5773C97.8259 68.2847 97.3828 63.2505 100.286 59.8132C104.05 55.3564 111.935 58.8129 110.877 64.4988Z" fill="#263238"/>
<path d="M107.692 67.6232C107.95 67.1075 107.972 66.0341 107.112 65.7479C106.222 65.4519 104.734 67.2631 106.54 68.7454C106.799 68.9581 107.152 68.699 107.692 67.6232Z" fill="#EEC1BB"/>
<path d="M106.895 58.0928C106.895 58.0928 110.446 58.8832 111.549 61.0271C112.837 63.5306 112.837 65.449 109.233 66.6106C109.233 66.6106 104.808 62.2314 102.868 61.7087C100.927 61.186 99.4111 61.0648 99.4111 61.0648C100.801 57.3861 105.496 56.4926 106.895 58.0928Z" fill="#263238"/>
<path d="M105.63 67.7719C103.396 72.2329 98.4823 79.8174 93.2485 74.4662C93.2485 74.4662 95.1279 68.4174 98.9278 65.9175C102.728 63.4181 105.63 67.7719 105.63 67.7719Z" fill="#263238"/>
<path d="M104.817 75.2177C106.729 76.6266 104.283 81.2776 106.695 82.3132C106.695 82.3132 105.936 81.384 106.44 80.1185C106.944 78.853 108.994 75.513 108.179 70.9863L104.817 75.2177Z" fill="#263238"/>
<path opacity="0.2" d="M94.9258 85.0301C94.9258 85.0301 91.8051 87.1448 88.8528 87.4076C89.1484 84.6605 89.6165 81.7492 90.3598 79.2855C90.8402 79.0474 91.2672 78.916 91.5957 78.9242C93.7884 78.9653 94.5891 81.0225 94.5891 81.0225C94.5891 81.0225 94.9792 83.0838 94.9258 85.0301Z" fill="black"/>
<path d="M106.317 99.6645L105.66 98.8745C105.413 98.5772 105.037 98.4183 104.652 98.4466L102.851 98.5809C102.131 98.6347 101.481 99.0338 101.108 99.6518L100.877 100.034C101.877 101.419 103.978 102.179 103.978 102.179L104.553 102.462C105.065 102.713 105.653 102.529 105.903 102.037L106.478 100.905C106.677 100.514 106.613 100.02 106.317 99.6645Z" fill="#EEC1BB"/>
<path d="M93.6744 80.7898L93.6724 82.0533C93.6757 82.4881 93.6888 82.9246 93.7077 83.3607C93.741 84.2333 93.8034 85.1021 93.8814 85.9644C93.9643 86.8267 94.0871 87.6747 94.2308 88.5107C94.3881 89.343 94.5835 90.1503 94.8229 90.93L94.6431 90.574C94.786 90.8286 95.059 91.1826 95.3329 91.5238C95.6126 91.8695 95.9168 92.2206 96.2318 92.5688C96.8649 93.2644 97.5199 93.9694 98.1929 94.6626L100.221 96.7563L102.253 98.8661C102.652 99.28 102.64 99.939 102.226 100.338C101.874 100.677 101.342 100.718 100.946 100.467C100.097 99.9287 99.2909 99.3588 98.475 98.7864C97.6669 98.2066 96.8727 97.6071 96.0856 96.9899C95.3046 96.3654 94.5244 95.7322 93.7656 95.0449C93.3854 94.7012 93.0072 94.3464 92.6286 93.9649C92.2471 93.5769 91.8805 93.1831 91.4797 92.6202C91.4255 92.5442 91.3815 92.4641 91.3475 92.3816L91.2994 92.2637C90.9097 91.3078 90.5841 90.3416 90.3431 89.3709C90.1025 88.4023 89.9091 87.4295 89.7781 86.458C89.6405 85.4869 89.5535 84.515 89.5058 83.5434C89.4861 83.0573 89.4726 82.5715 89.4701 82.0829C89.4631 81.5864 89.4759 81.1253 89.5071 80.5779C89.5728 79.4282 90.5583 78.5491 91.7084 78.6148C92.8175 78.678 93.6744 79.5974 93.6748 80.6942L93.6744 80.7898Z" fill="#EBC0BB"/>
<path d="M92.5086 74.6592C89.8195 75.5814 88.7071 78.4545 88.5889 83.3171C89.9616 84.5945 94.489 84.1699 94.489 84.1699C94.489 84.1699 95.3062 76.8088 92.5086 74.6592Z" fill="#0085F9"/>
<path d="M121.489 103.444V104.741C121.489 105.074 121.097 105.21 120.769 105.21H94.8537C94.5207 105.21 94.1204 105.074 94.1204 104.741V103.444H121.489Z" fill="#263238"/>
<path opacity="0.4" d="M121.489 103.444V104.741C121.489 105.074 121.097 105.21 120.769 105.21H94.8537C94.5207 105.21 94.1204 105.074 94.1204 104.741V103.444H121.489Z" fill="white"/>
<path opacity="0.2" d="M121.489 103.444V104.741C121.489 105.074 121.097 105.21 120.769 105.21H103.676C103.344 105.21 102.949 105.074 102.949 104.741V103.444H121.489Z" fill="black"/>
<path d="M125.825 89.9799L122.74 103.973C122.64 104.434 122.191 104.768 121.738 104.768H104.886C104.437 104.768 104.149 104.35 104.253 103.889L107.334 90.0029C107.438 89.5458 107.883 89.3184 108.336 89.3184H125.188C125.64 89.3184 125.925 89.5228 125.825 89.9799Z" fill="#263238"/>
<path opacity="0.4" d="M125.825 89.9799L122.74 103.973C122.64 104.434 122.191 104.768 121.738 104.768H105.459C105.007 104.768 104.722 104.35 104.822 103.889L107.907 90.0029C108.008 89.5458 108.456 89.3184 108.909 89.3184H125.188C125.641 89.3184 125.925 89.5228 125.825 89.9799Z" fill="white"/>
<path opacity="0.2" d="M117.516 97.0917V97.0958C117.516 98.294 116.232 99.2671 115.29 99.2671C114.349 99.2671 113.791 98.2936 114.059 97.0958C114.327 95.9214 115.264 94.9643 116.186 94.9277C115.917 96.1255 116.492 97.0958 117.43 97.0958C117.45 97.0962 117.516 97.0962 117.516 97.0917Z" fill="black"/>
</svg>
