<svg width="210" height="154" viewBox="0 0 210 154" fill="none" xmlns="http://www.w3.org/2000/svg">
<path d="M188.455 143.427H174.627V143.531H188.455V143.427Z" fill="#EBEBEB"/>
<path d="M138.91 144.557H135.28V144.661H138.91V144.557Z" fill="#EBEBEB"/>
<path d="M174.212 139.549H166.199V139.653H174.212V139.549Z" fill="#EBEBEB"/>
<path d="M40.5629 140.25H22.5303V140.354H40.5629V140.25Z" fill="#EBEBEB"/>
<path d="M46.9233 140.25H44.2793V140.354H46.9233V140.25Z" fill="#EBEBEB"/>
<path d="M94.6233 142.013H55.5146V142.117H94.6233V142.013Z" fill="#EBEBEB"/>
<path d="M99.5788 118.086H18.9621C17.6483 118.086 16.5791 117.017 16.5791 115.703V2.38303C16.5791 1.06919 17.6483 0 18.9621 0H99.5788C100.892 0 101.961 1.06919 101.961 2.38303V115.703C101.961 117.017 100.892 118.086 99.5788 118.086ZM18.9621 0.104789C17.7055 0.104789 16.6835 1.1268 16.6835 2.38344V115.703C16.6835 116.96 17.7055 117.982 18.9621 117.982H99.5788C100.835 117.982 101.857 116.96 101.857 115.703V2.38303C101.857 1.1268 100.835 0.104372 99.5788 0.104372L18.9621 0.104789Z" fill="#EBEBEB"/>
<path d="M189.881 118.086H109.264C107.951 118.086 106.882 117.017 106.882 115.703V2.38303C106.882 1.06919 107.951 0 109.264 0H189.881C191.195 0 192.264 1.06919 192.264 2.38303V115.703C192.264 117.017 191.195 118.086 189.881 118.086ZM109.264 0.104789C108.008 0.104789 106.986 1.1268 106.986 2.38344V115.703C106.986 116.96 108.008 117.982 109.264 117.982H189.881C191.137 117.982 192.159 116.96 192.159 115.703V2.38303C192.159 1.1268 191.137 0.104372 189.881 0.104372L109.264 0.104789Z" fill="#EBEBEB"/>
<path d="M209.372 136.705H0.62793V136.809H209.372V136.705Z" fill="#EBEBEB"/>
<path d="M172.988 99.2809C168.25 102.935 166.88 110.932 166.642 116.57C166.62 117.083 165.819 117.086 165.84 116.57C166.092 110.599 167.451 102.546 172.583 98.5887C172.991 98.2739 173.391 98.9698 172.988 99.2809Z" fill="#F5F5F5"/>
<path d="M161.987 95.1935C163.196 95.054 164.213 96.2894 164.738 97.197C167.464 101.909 166.409 109.021 165.893 114.077C165.841 114.585 165.039 114.591 165.092 114.077C165.594 109.156 166.507 102.745 164.284 98.0683C163.902 97.2655 163.087 95.8681 161.987 95.995C161.476 96.0539 161.48 95.2519 161.987 95.1935Z" fill="#E6E6E6"/>
<path d="M159.051 101.666C164.12 100.415 164.753 111.653 164.903 114.076C164.934 114.592 164.133 114.59 164.101 114.076C163.898 110.798 163.736 106.1 161.364 103.469C160.885 102.937 160.052 102.244 159.264 102.439C158.764 102.563 158.55 101.79 159.051 101.666Z" fill="#E6E6E6"/>
<path d="M174.074 107.119C169.884 104.016 168.52 112.171 168.288 114.522C168.238 115.03 167.436 115.036 167.487 114.522C167.75 111.855 168.155 107.023 171.236 105.903C172.292 105.519 173.578 105.76 174.478 106.428C174.888 106.731 174.489 107.427 174.074 107.119Z" fill="#E6E6E6"/>
<path d="M157.406 108.592C158.035 107.955 159.002 107.532 159.9 107.683C162.456 108.112 163.166 111.969 163.553 113.97C163.651 114.474 162.878 114.69 162.78 114.183C162.446 112.456 160.835 106.263 157.973 109.158C157.61 109.526 157.043 108.959 157.406 108.592Z" fill="#F5F5F5"/>
<path d="M172.498 134.874H160.377C158.25 133.069 156.896 130.383 156.896 127.373C156.896 123.935 158.829 113.623 158.829 113.623H174.046C174.046 113.623 175.979 123.935 175.979 127.373C175.978 130.383 174.625 133.069 172.498 134.874Z" fill="#EBEBEB"/>
<path d="M174.427 111.075C170.772 111.075 167.195 109.593 166.438 107.765C165.681 105.938 168.03 104.456 171.685 104.456C172.892 104.456 174.089 104.62 175.18 104.902C176.037 104.62 177.097 104.456 178.304 104.456C181.96 104.456 185.537 105.938 186.294 107.765C187.051 109.593 184.702 111.075 181.046 111.075H174.427Z" fill="#F5F5F5"/>
<path d="M150.577 103.988C147.587 103.988 146.375 102.776 147.87 101.281C149.365 99.7862 153.001 98.5742 155.99 98.5742C156.978 98.5742 157.766 98.7087 158.332 98.9395C159.36 98.7087 160.417 98.5742 161.404 98.5742C164.394 98.5742 165.606 99.7862 164.111 101.281C162.616 102.776 158.98 103.988 155.99 103.988H150.577Z" fill="#F0F0F0"/>
<path d="M178.075 101.282C174.314 101.282 169.739 99.7578 167.858 97.8766C165.978 95.9958 167.502 94.4707 171.264 94.4707C172.506 94.4707 173.836 94.6398 175.129 94.9299C175.841 94.6394 176.833 94.4707 178.075 94.4707C181.837 94.4707 186.411 95.9954 188.292 97.8766C190.174 99.7578 188.648 101.282 184.886 101.282H178.075Z" fill="#EBEBEB"/>
<path d="M157.162 96.8834C155.281 96.8834 154.072 96.1211 154.462 95.1805C154.851 94.2399 156.692 93.4775 158.573 93.4775C159.194 93.4775 159.739 93.5619 160.18 93.7072C160.742 93.5619 161.357 93.4775 161.979 93.4775C163.859 93.4775 165.068 94.2399 164.679 95.1805C164.289 96.1211 162.449 96.8834 160.568 96.8834H157.162Z" fill="#F0F0F0"/>
<path d="M154.994 110.51C153.113 110.51 151.272 109.748 150.883 108.807C150.493 107.867 151.702 107.104 153.583 107.104C154.204 107.104 154.819 107.189 155.381 107.334C155.822 107.189 156.367 107.104 156.989 107.104C158.87 107.104 160.71 107.867 161.1 108.807C161.489 109.748 160.28 110.51 158.399 110.51H154.994Z" fill="#EBEBEB"/>
<path d="M158.484 115.533C158.689 114.374 158.829 113.623 158.829 113.623H174.047C174.047 113.623 174.187 114.374 174.392 115.533H158.484Z" fill="#F5F5F5"/>
<path d="M157.823 99.5977C157.823 99.5977 153.648 100.989 152.326 103.285C152.326 103.285 152.535 99.9454 157.823 99.5977Z" fill="#FAFAFA"/>
<path d="M159.786 94.1396C159.786 94.1396 158.699 94.7446 158.038 95.6489C158.038 95.6489 158.367 94.335 159.786 94.1396Z" fill="#FAFAFA"/>
<path d="M175.979 95.6475C175.979 95.6475 180.503 97.3024 183.286 100.434C183.286 100.434 181.128 96.08 175.979 95.6475Z" fill="#FAFAFA"/>
<path d="M175.979 105.72C175.979 105.72 178.694 106.696 180.712 109.409C180.712 109.409 179.875 106.275 175.979 105.72Z" fill="#E6E6E6"/>
<path d="M155.452 108.015C155.452 108.015 156.496 108.469 156.635 109.826C156.635 109.826 155.661 108.987 155.452 108.015Z" fill="#FAFAFA"/>
<path d="M184.556 48.9063V46.9775L129.323 46.9775V48.9063L184.556 48.9063Z" fill="#F5F5F5"/>
<path d="M144.043 48.9062H134.804V50.8893V51.2525V53.2356H139.423C139.423 52.1405 140.311 51.2525 141.406 51.2525H144.043L144.043 48.9062Z" fill="#E0E0E0"/>
<path d="M139.866 48.9062H133.132V53.2356H135.246C135.246 52.1405 136.134 51.2525 137.229 51.2525H139.866L139.866 48.9062Z" fill="#F5F5F5"/>
<path d="M169.835 48.9062H179.074V50.8893V51.2525V53.2356H174.455C174.455 52.1405 173.567 51.2525 172.472 51.2525H169.835V48.9062H169.835Z" fill="#EBEBEB"/>
<path d="M174.011 48.9062H180.745V53.2356H178.631C178.631 52.1405 177.743 51.2525 176.648 51.2525H174.011V48.9062H174.011Z" fill="#F5F5F5"/>
<path d="M163.546 47.1637H168.355C169.199 46.4473 169.736 45.3814 169.736 44.1874C169.736 42.8235 168.969 34.7217 168.969 34.7217H162.932C162.932 34.7217 162.165 42.8235 162.165 44.1874C162.165 45.3814 162.702 46.4473 163.546 47.1637Z" fill="#EBEBEB"/>
<path d="M166.602 41.8154C166.581 42.2029 166.569 42.5118 166.569 42.7172C166.569 44.5007 167.371 46.0922 168.632 47.1622H175.814C177.074 46.0922 177.876 44.5007 177.876 42.7172C177.876 42.5118 177.864 42.2024 177.844 41.8154H166.602Z" fill="#F5F5F5"/>
<path d="M163.536 41.8733C163.527 41.3585 163.107 40.9443 162.593 40.9443H156.968C156.454 40.9443 156.034 41.3585 156.025 41.8733C156.025 41.897 156.024 41.9192 156.024 41.9426C155.818 41.8766 155.605 41.839 155.398 41.839C154.475 41.839 153.855 42.5592 153.855 43.6313C153.855 44.6571 154.934 45.4236 155.897 45.4236C155.999 45.4236 156.095 45.4115 156.188 45.3944C156.415 46.0907 156.83 46.7019 157.376 47.1653H162.185C163.029 46.4489 163.566 45.3831 163.566 44.1891C163.566 43.8175 163.554 42.9454 163.536 41.8733ZM155.898 44.8228C155.245 44.8228 154.456 44.2913 154.456 43.6313C154.456 43.352 154.524 42.4398 155.398 42.4398C155.6 42.4398 155.814 42.4907 156.014 42.5801C156.002 43.3207 155.995 43.9035 155.995 44.1895C155.995 44.4024 156.018 44.6095 156.051 44.8132C156.003 44.819 155.952 44.8228 155.898 44.8228Z" fill="#E0E0E0"/>
<path d="M91.9534 31.4229H64.3369V91.9441H91.9534V31.4229Z" fill="#EBEBEB"/>
<path d="M64.3381 31.4229H36.7217V91.9441H64.3381V31.4229Z" fill="#EBEBEB"/>
<path d="M79.5039 130.545H88.7433V132.528V132.891V134.874H84.1238C84.1238 133.779 83.2358 132.891 82.1408 132.891H79.5043L79.5039 130.545Z" fill="#E0E0E0"/>
<path d="M49.1707 130.545H39.9316V132.528V132.891V134.874H44.5512C44.5512 133.779 45.4392 132.891 46.5342 132.891H49.1707V130.545Z" fill="#E0E0E0"/>
<path d="M91.9542 91.9453H36.7217V111.011H91.9542V91.9453Z" fill="#EBEBEB"/>
<path d="M91.9542 111.009H36.7217V130.074H91.9542V111.009Z" fill="#EBEBEB"/>
<path d="M91.9531 94.877V92.9482L36.7206 92.9482V94.877L91.9531 94.877Z" fill="#E0E0E0"/>
<path d="M64.3369 34.1876V32.2588L36.7204 32.2588V34.1876L64.3369 34.1876Z" fill="#E0E0E0"/>
<path d="M91.9531 34.1876V32.2588L64.3367 32.2588V34.1876L91.9531 34.1876Z" fill="#E0E0E0"/>
<path d="M91.9531 113.792V111.863L36.7206 111.863V113.792L91.9531 113.792Z" fill="#E0E0E0"/>
<path d="M91.9547 30.459H90.9903H37.6866H36.7222H35.7578V130.908H36.7222H37.6866H90.9903H91.9547H92.9191V30.459H91.9547ZM90.9903 93.1278V110.089H37.6866V93.1278H90.9903ZM65.3027 91.1986V32.3878H90.9899V91.1986H65.3027ZM63.3739 32.3878V91.1986H37.6866V32.3878H63.3739ZM37.6866 128.98V112.018H90.9903V128.98H37.6866Z" fill="#F5F5F5"/>
<path d="M44.9968 130.545H35.7578V132.528V132.891V134.874H40.3773C40.3773 133.779 41.2653 132.891 42.3604 132.891H44.9968V130.545Z" fill="#F5F5F5"/>
<path d="M83.6787 130.545H92.9182V132.528V132.891V134.874H88.2986C88.2986 133.779 87.4106 132.891 86.3156 132.891H83.6791L83.6787 130.545Z" fill="#F5F5F5"/>
<path d="M66.7052 103.146C66.7052 104.453 65.6456 105.513 64.3384 105.513C63.0313 105.513 61.9717 104.453 61.9717 103.146C61.9717 101.839 63.0313 100.779 64.3384 100.779C65.6452 100.779 66.7052 101.839 66.7052 103.146Z" fill="#E0E0E0"/>
<path d="M66.7052 101.477C66.7052 102.784 65.6456 103.844 64.3384 103.844C63.0313 103.844 61.9717 102.784 61.9717 101.477C61.9717 100.17 63.0313 99.1104 64.3384 99.1104C65.6452 99.1099 66.7052 100.17 66.7052 101.477Z" fill="#F5F5F5"/>
<path d="M66.7052 122.211C66.7052 123.519 65.6456 124.578 64.3384 124.578C63.0313 124.578 61.9717 123.519 61.9717 122.211C61.9717 120.904 63.0313 119.845 64.3384 119.845C65.6452 119.845 66.7052 120.904 66.7052 122.211Z" fill="#E0E0E0"/>
<path d="M66.7052 120.542C66.7052 121.849 65.6456 122.908 64.3384 122.908C63.0313 122.908 61.9717 121.849 61.9717 120.542C61.9717 119.234 63.0313 118.175 64.3384 118.175C65.6452 118.175 66.7052 119.234 66.7052 120.542Z" fill="#F5F5F5"/>
<path d="M61.209 60.5C61.209 59.8462 60.6792 59.3164 60.0254 59.3164C59.3716 59.3164 58.8418 59.8462 58.8418 60.5C58.8418 60.8315 58.8418 64.2056 58.8418 64.5367C58.8418 65.1905 59.3716 65.7203 60.0254 65.7203C60.6792 65.7203 61.209 65.1905 61.209 64.5367C61.209 64.1789 61.209 60.8578 61.209 60.5Z" fill="#E0E0E0"/>
<path d="M61.209 58.8301C61.209 58.1763 60.6792 57.6465 60.0254 57.6465C59.3716 57.6465 58.8418 58.1763 58.8418 58.8301C58.8418 59.1616 58.8418 62.5357 58.8418 62.8668C58.8418 63.5206 59.3716 64.0503 60.0254 64.0503C60.6792 64.0503 61.209 63.5206 61.209 62.8668C61.209 62.509 61.209 59.1879 61.209 58.8301Z" fill="#F5F5F5"/>
<path d="M69.9082 60.5C69.9082 59.8462 69.3784 59.3164 68.7246 59.3164C68.0708 59.3164 67.541 59.8462 67.541 60.5C67.541 60.8315 67.541 64.2056 67.541 64.5367C67.541 65.1905 68.0708 65.7203 68.7246 65.7203C69.3784 65.7203 69.9082 65.1905 69.9082 64.5367C69.9082 64.1789 69.9082 60.8578 69.9082 60.5Z" fill="#E0E0E0"/>
<path d="M69.9082 58.8301C69.9082 58.1763 69.3784 57.6465 68.7246 57.6465C68.0708 57.6465 67.541 58.1763 67.541 58.8301C67.541 59.1616 67.541 62.5357 67.541 62.8668C67.541 63.5206 68.0708 64.0503 68.7246 64.0503C69.3784 64.0503 69.9082 63.5206 69.9082 62.8668C69.9082 62.509 69.9082 59.1879 69.9082 58.8301Z" fill="#F5F5F5"/>
<path d="M184.556 66.9327V65.0039L129.323 65.0039V66.9327L184.556 66.9327Z" fill="#F5F5F5"/>
<path d="M144.043 66.9326H134.804V68.9157V69.2789V71.262H139.423C139.423 70.1669 140.311 69.2789 141.406 69.2789H144.043L144.043 66.9326Z" fill="#E0E0E0"/>
<path d="M139.866 66.9326H133.132V71.262H135.246C135.246 70.1669 136.134 69.2789 137.229 69.2789H139.866L139.866 66.9326Z" fill="#F5F5F5"/>
<path d="M169.835 66.9326H179.074V68.9157V69.2789V71.262H174.455C174.455 70.1669 173.567 69.2789 172.472 69.2789H169.835V66.9326H169.835Z" fill="#EBEBEB"/>
<path d="M174.011 66.9326H180.745V71.262H178.631C178.631 70.1669 177.743 69.2789 176.648 69.2789H174.011V66.9326H174.011Z" fill="#F5F5F5"/>
<path d="M158.962 59.0806C158.962 55.873 161.562 53.2725 164.77 53.2725C167.978 53.2725 170.578 55.873 170.578 59.0806V65.0907H158.962V59.0806Z" fill="#F0F0F0"/>
<path d="M169.191 60.1362C169.767 57.6973 168.257 55.2533 165.818 54.6774C163.379 54.1015 160.935 55.6118 160.359 58.0507C159.783 60.4897 161.294 62.9337 163.732 63.5096C166.171 64.0855 168.615 62.5752 169.191 60.1362Z" fill="#FAFAFA"/>
<path d="M164.771 55.2594C167.156 55.2594 169.108 57.1005 169.291 59.4389C169.3 59.3203 169.309 59.2017 169.309 59.0806C169.309 56.5745 167.277 54.543 164.771 54.543C162.265 54.543 160.233 56.5745 160.233 59.0806C160.233 59.2017 160.242 59.3203 160.251 59.4389C160.435 57.1009 162.386 55.2594 164.771 55.2594Z" fill="#E0E0E0"/>
<path d="M167.636 59.078C167.501 59.078 166.035 59.078 165.25 59.078C165.25 58.2927 165.25 56.8252 165.25 56.692C165.25 56.4269 165.035 56.2119 164.77 56.2119C164.505 56.2119 164.29 56.4269 164.29 56.692C164.29 56.8716 164.29 59.3781 164.29 59.5581C164.29 59.8232 164.505 60.0382 164.77 60.0382C164.946 60.0382 167.46 60.0382 167.636 60.0382C167.901 60.0382 168.116 59.8232 168.116 59.5581C168.116 59.293 167.901 59.078 167.636 59.078Z" fill="#E0E0E0"/>
<path d="M167.636 59.5618C167.901 59.5618 168.116 59.3468 168.116 59.0817C168.116 58.8166 167.901 58.6016 167.636 58.6016C167.457 58.6016 164.95 58.6016 164.77 58.6016C164.505 58.6016 164.29 58.8166 164.29 59.0817C164.29 59.3468 164.505 59.5618 164.77 59.5618C164.946 59.5618 167.46 59.5618 167.636 59.5618Z" fill="#F5F5F5"/>
<path d="M165.25 56.2155C165.25 55.9504 165.035 55.7354 164.77 55.7354C164.505 55.7354 164.29 55.9504 164.29 56.2155C164.29 56.395 164.29 58.9016 164.29 59.0815C164.29 59.3466 164.505 59.5616 164.77 59.5616C165.035 59.5616 165.25 59.3466 165.25 59.0815C165.25 58.9058 165.25 56.3912 165.25 56.2155Z" fill="#EBEBEB"/>
<path d="M102.987 153.954C147.693 153.954 183.934 151.838 183.934 149.227C183.934 146.616 147.693 144.5 102.987 144.5C58.282 144.5 22.041 146.616 22.041 149.227C22.041 151.838 58.282 153.954 102.987 153.954Z" fill="#F5F5F5"/>
<path d="M138.478 137.123H94.7733C91.1804 137.123 88.4204 134.211 88.6087 130.618L94.2874 22.2651C94.4757 18.6722 97.5409 15.7598 101.134 15.7598H144.839C148.432 15.7598 151.192 18.6722 151.004 22.2651L145.325 130.618C145.136 134.211 142.071 137.123 138.478 137.123Z" fill="#0085F9"/>
<path d="M144.61 20.1221H100.905C98.6304 20.1221 96.6824 21.9728 96.5634 24.2477L91.0927 128.634C90.9733 130.909 92.7271 132.76 95.002 132.76H138.707C140.982 132.76 142.93 130.909 143.049 128.634L148.52 24.2477C148.639 21.9728 146.885 20.1221 144.61 20.1221Z" fill="#0085F9"/>
<path opacity="0.8" d="M144.61 20.1221H100.905C98.6304 20.1221 96.6824 21.9728 96.5634 24.2477L91.0927 128.634C90.9733 130.909 92.7271 132.76 95.002 132.76H138.707C140.982 132.76 142.93 130.909 143.049 128.634L148.52 24.2477C148.639 21.9728 146.885 20.1221 144.61 20.1221Z" fill="white"/>
<path d="M148.409 15.7598H144.84C148.433 15.7598 151.193 18.6722 151.005 22.2651L145.326 130.618C145.138 134.211 142.072 137.123 138.479 137.123H142.049C145.642 137.123 148.707 134.211 148.895 130.618L154.574 22.2651C154.762 18.6726 152.002 15.7598 148.409 15.7598Z" fill="#0085F9"/>
<path opacity="0.4" d="M148.409 15.7598H144.84C148.433 15.7598 151.193 18.6722 151.005 22.2651L145.326 130.618C145.138 134.211 142.072 137.123 138.479 137.123H142.049C145.642 137.123 148.707 134.211 148.895 130.618L154.574 22.2651C154.762 18.6726 152.002 15.7598 148.409 15.7598Z" fill="white"/>
<path opacity="0.4" d="M100.898 20.1225L106.834 132.761H122.302L116.366 20.1221H100.904C100.902 20.1221 100.9 20.1225 100.898 20.1225Z" fill="white"/>
<path opacity="0.4" d="M125.079 132.761H128.559L122.623 20.1221H119.144L125.079 132.761Z" fill="white"/>
<path d="M103.106 13.8601C103.617 13.8601 104.127 13.8601 104.638 13.8601C104.879 13.8601 104.88 13.4844 104.638 13.4844C104.127 13.4844 103.617 13.4844 103.106 13.4844C102.865 13.4844 102.864 13.8601 103.106 13.8601Z" fill="#0085F9"/>
<path d="M91.9669 26.2275C92.0604 24.4407 91.9869 22.5307 92.3735 20.7772C93.2611 16.7514 96.8749 13.9968 100.923 13.8603C101.165 13.8519 101.165 13.4762 100.923 13.4845C97.307 13.6064 94.0343 15.6667 92.5581 19.02C91.5753 21.2519 91.7164 23.8378 91.5911 26.2275C91.5782 26.4692 91.9539 26.4684 91.9669 26.2275Z" fill="#0085F9"/>
<path d="M126.201 42.482H116.179C114.296 42.482 112.85 40.9556 112.949 39.0732L113.474 29.0514C113.573 27.1685 115.179 25.6426 117.062 25.6426H127.084C128.966 25.6426 130.413 27.1689 130.314 29.0514L129.789 39.0732C129.69 40.9556 128.084 42.482 126.201 42.482Z" fill="white"/>
<path d="M119.804 35.5743C119.161 34.9235 118.728 33.9294 118.632 32.7788C118.618 32.7801 118.604 32.7817 118.589 32.7817C118.184 32.7817 117.878 32.3363 117.907 31.7873C117.936 31.2379 118.288 30.7928 118.693 30.7928C118.729 30.7928 118.764 30.7974 118.798 30.8041C118.821 30.7139 118.847 30.6254 118.874 30.5373C121.289 30.4058 122.651 29.6072 123.369 28.958C123.688 29.5441 124.189 30.1336 124.956 30.3215C124.995 30.478 125.027 30.6392 125.052 30.8041C125.086 30.7974 125.122 30.7928 125.158 30.7928C125.563 30.7928 125.868 31.2383 125.839 31.7873C125.811 32.3367 125.459 32.7817 125.053 32.7817C125.039 32.7817 125.025 32.7801 125.011 32.7788C124.808 33.8564 124.324 34.7961 123.68 35.4453C124.04 35.5831 124.594 35.6729 125.449 35.6232C127.89 35.4812 126.602 30.4609 125.287 28.6615C124.482 27.5581 124.041 27.0438 123.577 27.2509C123.07 26.972 120.01 25.7082 118.031 29.4193C115.976 33.274 115.367 36.78 119.804 35.5743Z" fill="#0085F9"/>
<path d="M126.528 38.2746L124.002 37.4697C124.002 37.4697 121.819 38.3085 121.3 40.3796C120.999 38.3085 118.903 37.4697 118.903 37.4697L116.293 38.2746C114.729 38.4926 113.967 39.834 113.599 41.2188C114.184 41.9886 115.111 42.4813 116.18 42.4813H126.201C127.27 42.4813 128.249 41.9886 128.915 41.2188C128.691 39.834 128.069 38.4926 126.528 38.2746Z" fill="#0085F9"/>
<path d="M133.451 41.003C133.462 40.8022 133.457 40.6047 133.441 40.411L134.435 39.5531C134.34 39.1318 134.194 38.7319 134.003 38.359L132.722 38.4242C132.5 38.1077 132.232 37.8259 131.928 37.5867L132.061 36.3092C131.699 36.0988 131.308 35.9318 130.893 35.8145L129.985 36.7647C129.793 36.7379 129.596 36.7229 129.395 36.7229C129.194 36.7229 128.996 36.7379 128.801 36.7647L127.993 35.8145C127.566 35.9318 127.157 36.0988 126.773 36.3092L126.772 37.5867C126.443 37.8259 126.146 38.1077 125.89 38.4242L124.616 38.359C124.386 38.7319 124.198 39.1318 124.059 39.5531L124.964 40.411C124.927 40.6047 124.902 40.8018 124.891 41.003C124.881 41.2038 124.885 41.4013 124.902 41.595L123.907 42.4529C124.002 42.8742 124.149 43.2741 124.339 43.647L125.62 43.5818C125.843 43.8983 126.11 44.1801 126.414 44.4193L126.281 45.6968C126.643 45.9072 127.035 46.0742 127.45 46.1916L128.357 45.2414C128.549 45.2681 128.746 45.2831 128.947 45.2831C129.148 45.2831 129.346 45.2681 129.541 45.2414L130.349 46.1916C130.776 46.0742 131.185 45.9072 131.569 45.6968L131.571 44.4193C131.9 44.1801 132.196 43.8983 132.452 43.5818L133.726 43.647C133.956 43.2741 134.144 42.8738 134.283 42.4529L133.378 41.595C133.416 41.4017 133.441 41.2042 133.451 41.003ZM129.101 42.3452C128.36 42.3452 127.79 41.7445 127.829 41.003C127.868 40.2615 128.5 39.6608 129.242 39.6608C129.983 39.6608 130.552 40.2615 130.514 41.003C130.475 41.7445 129.842 42.3452 129.101 42.3452Z" fill="#0085F9"/>
<path opacity="0.4" d="M133.451 41.003C133.462 40.8022 133.457 40.6047 133.441 40.411L134.435 39.5531C134.34 39.1318 134.194 38.7319 134.003 38.359L132.722 38.4242C132.5 38.1077 132.232 37.8259 131.928 37.5867L132.061 36.3092C131.699 36.0988 131.308 35.9318 130.893 35.8145L129.985 36.7647C129.793 36.7379 129.596 36.7229 129.395 36.7229C129.194 36.7229 128.996 36.7379 128.801 36.7647L127.993 35.8145C127.566 35.9318 127.157 36.0988 126.773 36.3092L126.772 37.5867C126.443 37.8259 126.146 38.1077 125.89 38.4242L124.616 38.359C124.386 38.7319 124.198 39.1318 124.059 39.5531L124.964 40.411C124.927 40.6047 124.902 40.8018 124.891 41.003C124.881 41.2038 124.885 41.4013 124.902 41.595L123.907 42.4529C124.002 42.8742 124.149 43.2741 124.339 43.647L125.62 43.5818C125.843 43.8983 126.11 44.1801 126.414 44.4193L126.281 45.6968C126.643 45.9072 127.035 46.0742 127.45 46.1916L128.357 45.2414C128.549 45.2681 128.746 45.2831 128.947 45.2831C129.148 45.2831 129.346 45.2681 129.541 45.2414L130.349 46.1916C130.776 46.0742 131.185 45.9072 131.569 45.6968L131.571 44.4193C131.9 44.1801 132.196 43.8983 132.452 43.5818L133.726 43.647C133.956 43.2741 134.144 42.8738 134.283 42.4529L133.378 41.595C133.416 41.4017 133.441 41.2042 133.451 41.003ZM129.101 42.3452C128.36 42.3452 127.79 41.7445 127.829 41.003C127.868 40.2615 128.5 39.6608 129.242 39.6608C129.983 39.6608 130.552 40.2615 130.514 41.003C130.475 41.7445 129.842 42.3452 129.101 42.3452Z" fill="white"/>
<path d="M129.101 42.3466C128.36 42.3466 127.79 41.7458 127.829 41.0043C127.868 40.2629 128.5 39.6621 129.242 39.6621C129.983 39.6621 130.552 40.2629 130.513 41.0043C130.475 41.7458 129.842 42.3466 129.101 42.3466Z" fill="white"/>
<path d="M120.49 88.6853H119.069L119.198 86.2393H120.619L120.49 88.6853Z" fill="#0085F9"/>
<path d="M126.969 88.6858H125.548L125.759 84.6533H127.18L126.969 88.6858Z" fill="#0085F9"/>
<path d="M133.448 88.6844H132.026L132.321 83.0654H133.742L133.448 88.6844Z" fill="#0085F9"/>
<path d="M139.926 88.6839H138.505L138.882 81.4785H140.303L139.926 88.6839Z" fill="white"/>
<path d="M100.857 88.6832C101.516 88.6832 103.811 88.6832 104.469 88.6832C105.128 88.6832 107.423 88.6832 108.081 88.6832C110.077 88.6832 111.778 87.0658 111.883 85.0711C111.987 83.0759 110.455 81.459 108.46 81.459C107.801 81.459 105.506 81.459 104.848 81.459C104.189 81.459 101.894 81.459 101.235 81.459C99.2402 81.459 97.5381 83.0763 97.4337 85.0711C97.3294 87.0658 98.862 88.6832 100.857 88.6832Z" fill="white"/>
<path d="M101.194 82.2522C101.852 82.2522 104.147 82.2522 104.806 82.2522C105.465 82.2522 107.76 82.2522 108.418 82.2522C110.279 82.2522 111.736 83.6596 111.839 85.4677C111.86 85.3375 111.876 85.2051 111.883 85.0711C111.987 83.0759 110.455 81.459 108.46 81.459C107.801 81.459 105.506 81.459 104.847 81.459C104.188 81.459 101.893 81.459 101.235 81.459C99.2397 81.459 97.538 83.0763 97.4332 85.0711C97.4261 85.2051 97.4278 85.3375 97.4353 85.4677C97.728 83.6596 99.3328 82.2522 101.194 82.2522Z" fill="#0085F9"/>
<path opacity="0.3" d="M101.194 82.2522C101.852 82.2522 104.147 82.2522 104.806 82.2522C105.465 82.2522 107.76 82.2522 108.418 82.2522C110.279 82.2522 111.736 83.6596 111.839 85.4677C111.86 85.3375 111.876 85.2051 111.883 85.0711C111.987 83.0759 110.455 81.459 108.46 81.459C107.801 81.459 105.506 81.459 104.847 81.459C104.188 81.459 101.893 81.459 101.235 81.459C99.2397 81.459 97.538 83.0763 97.4332 85.0711C97.4261 85.2051 97.4278 85.3375 97.4353 85.4677C97.728 83.6596 99.3328 82.2522 101.194 82.2522Z" fill="white"/>
<path d="M97.4338 85.0715C97.5382 83.0763 99.2402 81.459 101.235 81.459C103.231 81.459 104.763 83.0763 104.658 85.0715C104.554 87.0667 102.852 88.6836 100.857 88.6836C98.8616 88.684 97.329 87.0667 97.4338 85.0715Z" fill="#0085F9"/>
<path d="M96.7893 119.813H95.3682L95.5377 116.574H96.9588L96.7893 119.813Z" fill="#0085F9"/>
<path d="M102.057 119.021H100.636L100.701 117.766H102.122L102.057 119.021Z" fill="#0085F9"/>
<path d="M107.262 119.416H105.841L105.948 117.367H107.369L107.262 119.416Z" fill="#0085F9"/>
<path d="M112.511 119.021H111.09L111.156 117.766H112.577L112.511 119.021Z" fill="#0085F9"/>
<path d="M117.694 119.813H116.272L116.442 116.574H117.863L117.694 119.813Z" fill="#0085F9"/>
<path d="M122.963 119.021H121.541L121.607 117.766H123.028L122.963 119.021Z" fill="#0085F9"/>
<path d="M128.168 119.416H126.747L126.854 117.367H128.276L128.168 119.416Z" fill="#0085F9"/>
<path d="M133.415 119.021H131.994L132.06 117.766H133.481L133.415 119.021Z" fill="#0085F9"/>
<path d="M138.6 119.813H137.179L137.348 116.574H138.769L138.6 119.813Z" fill="#0085F9"/>
<g opacity="0.3">
<path d="M96.7893 119.813H95.3682L95.5377 116.574H96.9588L96.7893 119.813Z" fill="black"/>
<path d="M102.057 119.021H100.636L100.701 117.766H102.122L102.057 119.021Z" fill="black"/>
<path d="M107.262 119.416H105.841L105.948 117.367H107.369L107.262 119.416Z" fill="black"/>
<path d="M112.511 119.021H111.09L111.156 117.766H112.577L112.511 119.021Z" fill="black"/>
<path d="M117.694 119.813H116.272L116.442 116.574H117.863L117.694 119.813Z" fill="black"/>
<path d="M122.963 119.021H121.541L121.607 117.766H123.028L122.963 119.021Z" fill="black"/>
<path d="M128.168 119.416H126.747L126.854 117.367H128.276L128.168 119.416Z" fill="black"/>
<path d="M133.415 119.021H131.994L132.06 117.766H133.481L133.415 119.021Z" fill="black"/>
<path d="M138.6 119.813H137.179L137.348 116.574H138.769L138.6 119.813Z" fill="black"/>
</g>
<path d="M113.684 120.348C113.702 119.992 113.768 118.75 113.786 118.394C113.805 118.037 113.87 116.796 113.888 116.44C113.945 115.36 113.116 114.485 112.036 114.485C110.957 114.485 110.036 115.36 109.98 116.44C109.961 116.796 109.896 118.037 109.877 118.394C109.859 118.75 109.794 119.992 109.775 120.348C109.719 121.427 110.548 122.302 111.627 122.302C112.706 122.302 113.627 121.428 113.684 120.348Z" fill="#0085F9"/>
<path d="M99.9452 106.096C100.604 106.096 102.899 106.096 103.558 106.096C104.217 106.096 106.511 106.096 107.17 106.096C109.165 106.096 110.867 104.478 110.972 102.484C111.077 100.488 109.544 98.8711 107.549 98.8711C106.89 98.8711 104.595 98.8711 103.937 98.8711C103.278 98.8711 100.983 98.8711 100.324 98.8711C98.3291 98.8711 96.6274 100.488 96.5226 102.484C96.4179 104.478 97.9505 106.096 99.9452 106.096Z" fill="white"/>
<path d="M100.282 99.6639C100.941 99.6639 103.236 99.6639 103.895 99.6639C104.553 99.6639 106.848 99.6639 107.507 99.6639C109.368 99.6639 110.825 101.071 110.928 102.88C110.949 102.75 110.965 102.617 110.971 102.483C111.076 100.488 109.544 98.8711 107.548 98.8711C106.89 98.8711 104.595 98.8711 103.936 98.8711C103.277 98.8711 100.983 98.8711 100.324 98.8711C98.3286 98.8711 96.6265 100.488 96.5221 102.483C96.515 102.617 96.5167 102.75 96.5242 102.88C96.8169 101.071 98.4213 99.6639 100.282 99.6639Z" fill="#0085F9"/>
<path opacity="0.3" d="M100.282 99.6639C100.941 99.6639 103.236 99.6639 103.895 99.6639C104.553 99.6639 106.848 99.6639 107.507 99.6639C109.368 99.6639 110.825 101.071 110.928 102.88C110.949 102.75 110.965 102.617 110.971 102.483C111.076 100.488 109.544 98.8711 107.548 98.8711C106.89 98.8711 104.595 98.8711 103.936 98.8711C103.277 98.8711 100.983 98.8711 100.324 98.8711C98.3286 98.8711 96.6265 100.488 96.5221 102.483C96.515 102.617 96.5167 102.75 96.5242 102.88C96.8169 101.071 98.4213 99.6639 100.282 99.6639Z" fill="white"/>
<path d="M103.747 102.483C103.852 100.488 105.554 98.8711 107.549 98.8711C109.544 98.8711 111.077 100.488 110.972 102.483C110.867 104.478 109.165 106.095 107.17 106.095C105.175 106.095 103.643 104.478 103.747 102.483Z" fill="#0085F9"/>
<path d="M100.652 55.5618C101.407 55.5618 139.295 55.5618 140.049 55.5618C141.108 55.5618 142.012 54.7034 142.067 53.6446C142.122 52.5859 141.309 51.7275 140.25 51.7275C139.393 51.7275 101.71 51.7275 100.853 51.7275C99.7942 51.7275 98.8912 52.5859 98.8357 53.6446C98.7802 54.7034 99.5934 55.5618 100.652 55.5618Z" fill="white"/>
<path d="M100.852 52.5625C101.709 52.5625 139.393 52.5625 140.25 52.5625C141.131 52.5625 141.835 53.1612 142.016 53.9715C142.04 53.8647 142.06 53.7565 142.066 53.6446C142.122 52.5859 141.308 51.7275 140.25 51.7275C139.393 51.7275 101.709 51.7275 100.852 51.7275C99.7936 51.7275 98.8906 52.5859 98.835 53.6446C98.8258 53.8217 98.8488 53.9899 98.8851 54.1527C99.0885 53.2505 99.9059 52.5625 100.852 52.5625Z" fill="#0085F9"/>
<path opacity="0.3" d="M100.852 52.5625C101.709 52.5625 139.393 52.5625 140.25 52.5625C141.131 52.5625 141.835 53.1612 142.016 53.9715C142.04 53.8647 142.06 53.7565 142.066 53.6446C142.122 52.5859 141.308 51.7275 140.25 51.7275C139.393 51.7275 101.709 51.7275 100.852 51.7275C99.7936 51.7275 98.8906 52.5859 98.835 53.6446C98.8258 53.8217 98.8488 53.9899 98.8851 54.1527C99.0885 53.2505 99.9059 52.5625 100.852 52.5625Z" fill="white"/>
<path d="M104.247 53.6424C104.352 51.6472 106.054 50.0303 108.049 50.0303C110.044 50.0303 111.576 51.6476 111.472 53.6424C111.367 55.6376 109.665 57.2549 107.67 57.2549C105.675 57.2545 104.143 55.6376 104.247 53.6424Z" fill="#0085F9"/>
<path d="M139.379 100.263C139.419 99.4944 138.829 98.8711 138.06 98.8711H135.84H126.431C125.662 98.8711 125.006 99.4944 124.966 100.263L124.733 104.704C124.693 105.473 125.284 106.096 126.053 106.096H135.462H137.682C138.451 106.096 139.107 105.473 139.147 104.704L139.379 100.263Z" fill="#0085F9"/>
<path d="M126.39 99.6643H135.799H138.019C138.788 99.6643 139.378 100.288 139.338 101.057L139.38 100.263C139.42 99.4944 138.83 98.8711 138.061 98.8711H135.84H126.432C125.663 98.8711 125.007 99.4944 124.967 100.263L124.925 101.057C124.965 100.288 125.621 99.6643 126.39 99.6643Z" fill="#0085F9"/>
<path opacity="0.3" d="M126.39 99.6643H135.799H138.019C138.788 99.6643 139.378 100.288 139.338 101.057L139.38 100.263C139.42 99.4944 138.83 98.8711 138.061 98.8711H135.84H126.432C125.663 98.8711 125.007 99.4944 124.967 100.263L124.925 101.057C124.965 100.288 125.621 99.6643 126.39 99.6643Z" fill="black"/>
<path d="M132.191 100.263C132.231 99.4944 131.64 98.8711 130.871 98.8711H128.651H126.431C125.662 98.8711 125.006 99.4944 124.966 100.263L124.733 104.704C124.693 105.473 125.284 106.096 126.053 106.096H128.273H130.493C131.262 106.096 131.918 105.473 131.958 104.704L132.191 100.263Z" fill="white"/>
<path d="M129.108 103.705H127.687L127.815 101.259H129.236L129.108 103.705Z" fill="#0085F9"/>
<path d="M139.427 67.4424C138.673 67.4424 100.784 67.4424 100.03 67.4424C98.971 67.4424 98.068 68.3007 98.0124 69.3595C97.9569 70.4182 98.7702 71.2766 99.8289 71.2766C100.686 71.2766 138.369 71.2766 139.226 71.2766C140.285 71.2766 141.188 70.4182 141.243 69.3595C141.299 68.3007 140.486 67.4424 139.427 67.4424Z" fill="#0085F9"/>
<path opacity="0.3" d="M100.03 68.2774C100.783 68.2774 138.672 68.2774 139.427 68.2774C140.308 68.2774 141.012 68.876 141.193 69.6864C141.217 69.5795 141.237 69.4714 141.243 69.3595C141.299 68.3007 140.485 67.4424 139.427 67.4424C138.672 67.4424 100.784 67.4424 100.03 67.4424C98.9708 67.4424 98.0673 68.3007 98.0118 69.3595C98.0026 69.5365 98.0256 69.7048 98.0619 69.8676C98.2652 68.965 99.0826 68.2774 100.03 68.2774Z" fill="black"/>
<path d="M133.313 72.9702H130.295C129.133 72.9702 128.241 72.0287 128.302 70.8669L128.46 67.8484C128.521 66.687 129.512 65.7451 130.673 65.7451H133.692C134.853 65.7451 135.746 66.6866 135.685 67.8484L135.527 70.8669C135.466 72.0287 134.475 72.9702 133.313 72.9702Z" fill="white"/>
<path d="M132.797 70.5838H131.376L131.504 68.1377H132.925L132.797 70.5838Z" fill="#0085F9"/>
<path d="M70.6863 56.6145L65.3508 62.6698C65.7825 65.5563 66.6396 73.9224 66.6396 73.9224C65.8385 74.9828 63.8796 74.6822 63.8796 74.6822C63.8796 74.6822 61.3129 68.8996 61.9671 62.1275C62.3453 58.2131 67.3644 50.5209 70.9343 48.3416C71.4996 47.9967 72.115 47.7337 72.8122 47.5492L73.5178 47.4678L71.0174 56.7719L70.6863 56.6145Z" fill="#0085F9"/>
<path opacity="0.6" d="M70.6863 56.6145L65.3508 62.6698C65.7825 65.5563 66.6396 73.9224 66.6396 73.9224C65.8385 74.9828 63.8796 74.6822 63.8796 74.6822C63.8796 74.6822 61.3129 68.8996 61.9671 62.1275C62.3453 58.2131 67.3644 50.5209 70.9343 48.3416C71.4996 47.9967 72.115 47.7337 72.8122 47.5492L73.5178 47.4678L71.0174 56.7719L70.6863 56.6145Z" fill="black"/>
<path d="M66.3358 74.6009L67.6283 75.9841C67.6709 76.0296 67.7035 76.0834 67.7244 76.1419L68.4842 78.2794C68.5251 78.3942 68.518 78.5207 68.4646 78.6305L68.0964 79.3853C68.0346 79.5118 67.9177 79.6028 67.7795 79.6312L65.1589 80.1685C64.9092 80.2195 64.6667 80.0558 64.6212 79.8049L64.1098 76.991C64.0997 76.9355 64.1001 76.8787 64.111 76.8232L64.4621 75.0176C64.498 74.833 64.6437 74.6898 64.8291 74.6573L65.9262 74.464C66.0765 74.4373 66.231 74.4886 66.3358 74.6009Z" fill="#FAB27B"/>
<path d="M67.4511 74.2818L63.3339 76.1505L63.2812 74.1574L67.0775 72.6982L67.4511 74.2818Z" fill="#0085F9"/>
<path opacity="0.5" d="M67.4511 74.2818L63.3339 76.1505L63.2812 74.1574L67.0775 72.6982L67.4511 74.2818Z" fill="white"/>
<path d="M65.8563 81.6465C63.4003 90.4267 64.4406 103.36 63.0926 112.036C62.1637 118.015 55.8262 137.689 55.8262 137.689L61.4209 139.385C61.4209 139.385 68.403 122.058 69.7553 116.89C71.9483 108.511 75.2482 92.6152 75.2482 92.6152C75.2482 92.6152 76.4777 88.1042 75.9207 87.6174C75.3642 87.1302 65.8563 81.6465 65.8563 81.6465Z" fill="#0085F9"/>
<path opacity="0.3" d="M72.0156 87.668L76.0603 88.9797L74.5464 96.0904C74.5464 96.0904 75.2946 89.2866 72.0156 87.668Z" fill="black"/>
<path d="M56.9523 137.438L55.9512 140.614L58.6615 141.833L60.0071 138.457L56.9523 137.438Z" fill="#FAB27B"/>
<path opacity="0.2" d="M56.3584 139.321L59.2224 140.425L59.604 139.468L56.5918 138.58L56.3584 139.321Z" fill="black"/>
<path d="M55.8881 135.951L62.7295 137.823L61.4913 140.024L55.5049 138.259L55.8881 135.951Z" fill="#0085F9"/>
<path opacity="0.5" d="M55.8881 135.951L62.7295 137.823L61.4913 140.024L55.5049 138.259L55.8881 135.951Z" fill="white"/>
<path d="M59.2423 142.264C59.2139 142.245 59.1993 142.212 59.2055 142.178C59.2122 142.144 59.2394 142.119 59.2732 142.114C59.3333 142.105 60.6972 141.905 61.1732 142.261C61.2625 142.326 61.323 142.423 61.3422 142.531C61.3756 142.657 61.3264 142.789 61.2191 142.863C61.0204 142.982 60.5816 142.894 60.1845 142.738C59.8568 142.608 59.5416 142.449 59.2423 142.264ZM59.527 142.259C60.0927 142.565 60.9005 142.876 61.1302 142.726C61.1619 142.708 61.1995 142.671 61.1803 142.555C61.1715 142.487 61.1318 142.426 61.0734 142.391C61.0316 142.359 60.9853 142.333 60.936 142.315C60.4739 142.208 59.9958 142.189 59.527 142.259Z" fill="#0085F9"/>
<path d="M59.2056 142.245C59.1884 142.222 59.1855 142.19 59.1985 142.164C59.2185 142.125 59.6414 141.297 60.1791 141.122C60.3349 141.069 60.5052 141.082 60.6509 141.158C60.8513 141.261 60.8751 141.391 60.8488 141.481C60.7762 141.867 59.737 142.259 59.2886 142.278C59.277 142.28 59.2653 142.276 59.2561 142.269C59.2369 142.268 59.2189 142.259 59.2056 142.245ZM60.544 141.281C60.4484 141.243 60.3424 141.24 60.2455 141.274C59.8994 141.456 59.6172 141.74 59.4373 142.087C59.9249 142.008 60.6405 141.663 60.706 141.439C60.7081 141.418 60.7206 141.36 60.5887 141.294L60.544 141.281Z" fill="#0085F9"/>
<path d="M59.0918 141.691L55.6046 140.325C55.4731 140.273 55.3236 140.32 55.2447 140.437L53.5025 143.027C53.3464 143.255 53.4048 143.567 53.6336 143.723C53.6628 143.743 53.6941 143.76 53.7271 143.774C54.9925 144.244 56.1377 144.614 57.7016 145.229C59.5482 145.953 58.9929 145.99 61.1522 146.873C62.4535 147.403 63.2759 146.009 62.7499 145.719C60.3364 144.404 60.3731 143.534 59.7498 142.242C59.6058 141.984 59.3716 141.788 59.0918 141.691Z" fill="#263238"/>
<path d="M81.8223 140.023L81.8861 143.082L84.8441 143.369L85.0219 140.023H81.8223Z" fill="#FAB27B"/>
<path opacity="0.2" d="M84.9471 141.444L84.9901 140.642L81.8389 140.773L81.8581 141.707L84.9471 141.444Z" fill="black"/>
<path d="M65.8583 81.6474C66.7839 77.2324 70.4816 73.3135 70.4816 73.3135L84.6662 74.2257C84.6662 74.2257 85.56 83.3441 85.7688 86.3921C86.19 92.5463 87.9126 102.099 87.9589 108.272C88.0211 116.616 86.1082 138.777 86.1082 138.777L80.7493 139.412C80.7493 139.412 80.829 118.918 79.9511 111.188C79.286 105.332 75.2877 89.2895 75.2877 89.2895C75.2877 89.2895 64.3061 89.0536 65.8583 81.6474Z" fill="#0085F9"/>
<path d="M79.834 138.53L86.9133 138.097L86.4512 140.58L80.2151 140.839L79.834 138.53Z" fill="#0085F9"/>
<path opacity="0.5" d="M79.834 138.53L86.9133 138.097L86.4512 140.58L80.2151 140.839L79.834 138.53Z" fill="white"/>
<path d="M85.4858 143.583C85.4528 143.574 85.4282 143.547 85.4227 143.513C85.4177 143.48 85.4348 143.446 85.4653 143.43C85.5192 143.402 86.742 142.766 87.3085 142.946C87.4142 142.978 87.5031 143.05 87.5569 143.146C87.6296 143.254 87.6267 143.395 87.5494 143.5C87.4008 143.678 86.9574 143.738 86.5312 143.721C86.1788 143.705 85.8294 143.659 85.4858 143.583ZM85.753 143.484C86.388 143.588 87.253 143.617 87.4208 143.4C87.4451 143.374 87.468 143.326 87.4117 143.222C87.3812 143.161 87.324 143.116 87.2568 143.102C87.2067 143.086 87.1549 143.077 87.1023 143.076C86.6305 143.126 86.173 143.264 85.753 143.484Z" fill="#0085F9"/>
<path d="M85.4411 143.576C85.4173 143.559 85.4044 143.53 85.4077 143.501C85.414 143.458 85.5422 142.537 85.9931 142.196C86.1229 142.095 86.2878 142.051 86.4506 142.075C86.6736 142.106 86.7387 142.222 86.7437 142.315C86.8017 142.703 85.9484 143.414 85.5313 143.58C85.5205 143.585 85.5084 143.585 85.4975 143.582C85.4783 143.587 85.4583 143.585 85.4411 143.576ZM86.3897 142.227C86.287 142.222 86.1859 142.254 86.105 142.318C85.8373 142.603 85.6641 142.964 85.6081 143.351C86.0432 143.116 86.6059 142.556 86.5942 142.323C86.5888 142.302 86.5817 142.242 86.436 142.224L86.3897 142.227Z" fill="#0085F9"/>
<path d="M85.1531 143.089L81.4107 142.942C81.2696 142.936 81.1435 143.029 81.1072 143.165L80.3106 146.183C80.238 146.451 80.3958 146.726 80.663 146.799C80.6972 146.808 80.7323 146.814 80.7678 146.816C82.118 146.845 83.3203 146.819 84.9999 146.887C86.9821 146.966 86.4699 147.183 88.7986 147.309C90.2018 147.382 90.522 145.797 89.9296 145.695C87.2184 145.244 86.9679 144.41 85.9551 143.393C85.7342 143.197 85.4487 143.089 85.1531 143.089Z" fill="#263238"/>
<path d="M80.7163 43.9725C80.4683 44.7624 79.8483 46.0955 80.7267 47.2845L76.4629 46.8716C76.4629 46.8716 76.9196 43.7275 77.1839 42.7034C77.3551 42.0404 77.5755 41.3202 79.8162 41.9465C81.0895 42.3026 80.882 43.4436 80.7163 43.9725Z" fill="#FAB27B"/>
<path d="M76.8702 42.8079C74.5244 40.9989 69.5629 36.0884 74.3219 31.8016C78.2863 28.2304 81.9235 30.3174 83.1664 32.7309C84.557 35.4313 87.7078 42.6488 80.7161 43.9727C79.4273 44.2169 78.088 43.7472 76.8702 42.8079Z" fill="#FAB27B"/>
<path d="M73.5166 47.0086C73.5166 47.0086 76.8047 44.1196 83.0537 47.9321L82.9673 48.8247L73.5763 47.9154L73.5166 47.0086Z" fill="#0085F9"/>
<path opacity="0.5" d="M73.5166 47.0086C73.5166 47.0086 76.8047 44.1196 83.0537 47.9321L82.9673 48.8247L73.5763 47.9154L73.5166 47.0086Z" fill="white"/>
<path opacity="0.1" d="M79.8164 43.1201C79.8398 44.0849 80.112 44.5859 80.4593 44.8347C80.5712 44.3308 80.7165 43.9705 80.7165 43.9705C79.8778 43.6036 79.8164 43.1201 79.8164 43.1201Z" fill="black"/>
<path d="M82.3239 47.8204C80.96 47.511 79.5952 47.3307 78.2284 47.1695C75.8049 46.8835 73.9579 46.6957 72.6194 47.2848C70.489 48.2224 70.2176 48.8265 70.2176 48.8265L70.6401 55.7255C70.6401 55.7255 71.1453 59.7055 70.8205 65.7461C70.8188 65.7753 70.653 72.3228 67.1182 75.836C67.1182 75.836 69.2553 77.6984 72.1861 78.2027L74.1817 73.43L74.81 78.457C74.81 78.457 81.9975 80.5878 87.9266 78.6235C87.9266 78.6235 84.6798 73.4375 85.7248 68.1354C86.2283 65.5816 86.5965 64.3876 86.8812 62.3732C87.1518 60.4574 86.8934 59.111 86.8934 59.111L85.5603 50.0097C85.5603 50.0097 83.1919 48.017 82.3239 47.8204Z" fill="#0085F9"/>
<path opacity="0.6" d="M82.3239 47.8204C80.96 47.511 79.5952 47.3307 78.2284 47.1695C75.8049 46.8835 73.9579 46.6957 72.6194 47.2848C70.489 48.2224 70.2176 48.8265 70.2176 48.8265L70.6401 55.7255C70.6401 55.7255 71.1453 59.7055 70.8205 65.7461C70.8188 65.7753 70.653 72.3228 67.1182 75.836C67.1182 75.836 69.2553 77.6984 72.1861 78.2027L74.1817 73.43L74.81 78.457C74.81 78.457 81.9975 80.5878 87.9266 78.6235C87.9266 78.6235 84.6798 73.4375 85.7248 68.1354C86.2283 65.5816 86.5965 64.3876 86.8812 62.3732C87.1518 60.4574 86.8934 59.111 86.8934 59.111L85.5603 50.0097C85.5603 50.0097 83.1919 48.017 82.3239 47.8204Z" fill="black"/>
<path d="M86.4523 64.9358C86.6226 64.014 86.7717 63.1444 86.8806 62.3724C87.1512 60.4566 86.8927 59.1102 86.8927 59.1102L84.9873 56.9668C84.9873 56.9668 86.7984 59.546 86.4523 64.9358Z" fill="black"/>
<path d="M103.491 55.1064L104.807 51.3553C104.833 51.2801 104.887 51.2179 104.958 51.1816L107.026 50.1258C107.139 50.0677 107.277 50.0853 107.372 50.1692L108.846 51.4663C108.968 51.5736 108.986 51.7573 108.888 51.8867L107.364 53.8886C107.347 53.912 107.332 53.9374 107.322 53.9646C107.206 54.2622 106.42 56.1351 104.747 56.6031C104.727 56.6089 104.707 56.6165 104.688 56.6265L104.126 56.9271C103.988 57.0005 103.818 56.9605 103.727 56.834L103.012 55.8341C102.898 55.675 102.958 55.4517 103.137 55.3711L103.326 55.2855C103.403 55.2513 103.463 55.1861 103.491 55.1064Z" fill="#FAB27B"/>
<path d="M82.2852 47.8154C84.4373 48.3736 86.5352 49.4674 88.4606 52.0388C90.976 55.3987 94.713 58.4384 94.713 58.4384C94.713 58.4384 99.5379 57.4135 102.584 54.7791L104.371 57.4465C104.371 57.4465 97.0375 62.9749 94.0533 62.686C91.5071 62.4392 86.8629 59.1248 86.8629 59.1248L84.9546 56.9781L82.2852 47.8154Z" fill="#0085F9"/>
<path opacity="0.6" d="M82.2852 47.8154C84.4373 48.3736 86.5352 49.4674 88.4606 52.0388C90.976 55.3987 94.713 58.4384 94.713 58.4384C94.713 58.4384 99.5379 57.4135 102.584 54.7791L104.371 57.4465C104.371 57.4465 97.0375 62.9749 94.0533 62.686C91.5071 62.4392 86.8629 59.1248 86.8629 59.1248L84.9546 56.9781L82.2852 47.8154Z" fill="black"/>
<path d="M102.756 54.4424L105.436 57.7685L103.641 58.2449L101.504 55.1191L102.756 54.4424Z" fill="#0085F9"/>
<path opacity="0.5" d="M102.756 54.4424L105.436 57.7685L103.641 58.2449L101.504 55.1191L102.756 54.4424Z" fill="white"/>
<path d="M84.9062 38.5V39.7959L85.7809 39.6719L84.9062 38.5Z" fill="#E07F50"/>
<path d="M78.0636 46.2464C76.0546 46.4531 70.12 46.5679 70.8348 42.2227C71.5495 37.8775 70.5814 35.7236 72.4225 32.6651C74.2636 29.6062 78.1028 28.709 81.5542 29.6133C84.4286 30.3664 84.6633 32.3791 83.8838 33.5911C83.1044 34.8031 82.7516 35.0264 82.8889 35.886C83.0263 36.7456 82.5044 37.2266 82.2786 37.6295C82.0765 37.9898 81.3634 38.2933 81.3634 38.2933C81.3634 38.2933 81.0971 39.2376 81.5146 40.8295C81.932 42.4214 82.7846 45.7609 78.0636 46.2464Z" fill="black"/>
<path d="M80.7356 29.648C81.6829 29.7527 82.6644 30.0099 83.5131 30.4445C84.1945 30.7931 84.8737 31.3183 85.0274 32.1128C85.2495 33.263 84.3602 34.3522 83.6551 35.1459C83.5424 35.2728 83.7569 35.426 83.8688 35.3003C85.1167 33.8963 86.0899 31.9258 84.2492 30.5819C83.2714 29.868 81.9538 29.5177 80.761 29.3858C80.5924 29.3666 80.5669 29.6292 80.7356 29.648Z" fill="black"/>
<path d="M72.4496 32.6388C71.1237 34.3543 71.0623 36.5975 70.7964 38.6415C70.6085 40.0868 68.9807 42.9024 70.1326 44.2651C70.2419 44.3945 70.449 44.2312 70.3392 44.1014C69.5531 43.1712 70.338 41.8015 70.6085 40.8375C70.8769 39.881 71.0176 38.9321 71.1199 37.9455C71.3015 36.195 71.5437 34.242 72.6605 32.7966C72.7644 32.6626 72.5532 32.5048 72.4496 32.6388Z" fill="black"/>
<path d="M84.008 36.0354C83.9855 36.0905 84.0289 35.9961 84.0368 35.9819C84.0644 35.9331 84.0961 35.8872 84.1333 35.8454C84.2639 35.6993 84.4288 35.6513 84.6196 35.7006C84.7758 35.7406 84.8426 35.4993 84.6864 35.4588C84.276 35.3532 83.9208 35.5899 83.7667 35.9686C83.7053 36.118 83.9479 36.1828 84.008 36.0354Z" fill="black"/>
<path d="M82.9805 37.9398C83.2494 38.7439 82.9943 39.5538 82.4107 39.7492C81.827 39.9446 81.1357 39.4511 80.8668 38.647C80.5979 37.8429 80.853 37.033 81.4367 36.8376C82.0203 36.6422 82.7113 37.1357 82.9805 37.9398Z" fill="#FAB27B"/>
<path d="M84.9433 35.9043C84.9086 36.2041 84.6164 36.2658 84.4648 36.2905C84.363 36.3072 84.3029 36.4892 84.3313 36.7042C84.3596 36.9192 84.4653 37.0829 84.5676 37.0695C84.6698 37.0561 84.7295 36.8708 84.7012 36.6558C84.6924 36.5894 84.6748 36.5309 84.6536 36.4779C85.1395 36.2141 84.9433 35.9043 84.9433 35.9043Z" fill="black"/>
</svg>
