<svg width="156" height="153" viewBox="0 0 156 153" fill="none" xmlns="http://www.w3.org/2000/svg">
<path d="M74.605 107.336C100.457 107.336 121.415 86.3783 121.415 60.5258C121.415 34.6734 100.457 13.7158 74.605 13.7158C48.7525 13.7158 27.7949 34.6734 27.7949 60.5258C27.7949 86.3783 48.7525 107.336 74.605 107.336Z" fill="#96B8FF"/>
<path d="M74.483 89.4122C78.9652 89.4122 82.5987 85.7787 82.5987 81.2964C82.5987 76.8142 78.9652 73.1807 74.483 73.1807C70.0007 73.1807 66.3672 76.8142 66.3672 81.2964C66.3672 85.7787 70.0007 89.4122 74.483 89.4122Z" fill="#E1ECFF"/>
<path d="M98.0337 69.4354C97.7085 70.0996 97.2346 70.7085 96.6223 71.2031C95.6295 72.0022 94.4361 72.3793 93.2565 72.362C91.7448 72.3447 90.2469 71.6805 89.223 70.411C85.3175 65.568 80.1805 62.8628 74.7321 62.7833H74.4727C69.0278 62.8628 63.8873 65.568 59.9818 70.411C58.9579 71.6805 57.4635 72.3447 55.9518 72.362C54.7722 72.3793 53.5787 72.0022 52.5859 71.2031C51.9736 70.7085 51.4997 70.0996 51.1711 69.4354C50.2924 67.6539 50.4723 65.4538 51.7938 63.8072C52.3991 63.0566 53.0253 62.3405 53.6756 61.659C59.3557 55.6745 66.6167 52.364 74.3827 52.2671H74.5107C74.5419 52.2671 74.573 52.2637 74.6041 52.2637C74.6353 52.2637 74.6629 52.2671 74.6941 52.2671H74.8255C82.5916 52.364 89.8525 55.6745 95.5327 61.6625C96.183 62.344 96.8091 63.0566 97.4145 63.8072C98.7359 65.4538 98.9123 67.6539 98.0337 69.4354Z" fill="#E1ECFF"/>
<path d="M112.359 54.7304C112.054 55.4084 111.598 56.031 111.006 56.5465C110.041 57.3871 108.858 57.8056 107.678 57.8333C106.63 57.8575 105.582 57.5704 104.679 56.9789C104.281 56.7194 103.908 56.4012 103.579 56.0207C95.6711 46.8986 85.4075 42.0037 74.6942 42.2355H74.5108C63.794 42.0072 53.5373 46.8986 45.6295 56.0207C45.3008 56.4012 44.9272 56.7194 44.526 56.9789C43.6265 57.5704 42.5784 57.8575 41.5302 57.8333C40.3506 57.8056 39.1641 57.3871 38.2024 56.5465C37.6074 56.031 37.1508 55.4084 36.8499 54.7304C36.0438 52.9212 36.2929 50.728 37.6801 49.1298C47.6255 37.6658 60.6911 31.491 74.5108 31.7159V31.7194H74.6942V31.7159C88.5139 31.491 101.583 37.6658 111.525 49.1298C112.916 50.728 113.165 52.9212 112.359 54.7304Z" fill="#E1ECFF"/>
<path d="M148.869 13.1335V21.0143C148.869 23.3732 147.242 25.2855 145.237 25.2855H140.046L131.371 29.5328L134.6 25.2855H122.256C120.25 25.2855 118.624 23.3732 118.624 21.0143V13.1335C118.624 10.7746 120.25 8.8623 122.256 8.8623H145.237C147.242 8.8623 148.869 10.7746 148.869 13.1335Z" fill="#96B8FF"/>
<path d="M12.6719 4.27115V12.152C12.6719 14.5109 14.2981 16.4232 16.3038 16.4232H21.4944L30.1692 20.6705L26.9406 16.4232H39.2847C41.2907 16.4232 42.9165 14.5109 42.9165 12.152V4.27115C42.9165 1.91228 41.2903 0 39.2847 0H16.3038C14.2977 0.000345926 12.6719 1.91228 12.6719 4.27115Z" fill="#96B8FF"/>
<path d="M155.69 36.9792V48.3193C155.69 50.6782 154.063 52.5905 152.058 52.5905H148.251L139.576 56.8377L142.804 52.5905H137.379C135.373 52.5905 133.747 50.6782 133.747 48.3193V36.9792C133.747 34.6203 135.373 32.708 137.379 32.708H152.058C154.063 32.708 155.69 34.6203 155.69 36.9792Z" fill="#96B8FF"/>
<path d="M2.91895 28.8065V38.8384C2.91895 40.925 4.35731 42.6166 6.13191 42.6166H9.4995L17.1735 46.3737L14.3176 42.6166H19.1169C20.8915 42.6166 22.3299 40.925 22.3299 38.8384V28.8065C22.3299 26.7199 20.8915 25.0283 19.1169 25.0283H6.13191C4.35731 25.028 2.91895 26.7199 2.91895 28.8065Z" fill="#96B8FF"/>
<path d="M2.52577 123.479C-2.55554 144.392 15.1514 147.15 15.1514 147.15C15.1514 147.15 22.7216 130.91 2.52577 123.479Z" fill="#1A7AAA"/>
<path d="M15.1224 147.083C15.1809 147.052 15.203 146.979 15.1719 146.921L4.26585 126.473C4.23471 126.414 4.16207 126.392 4.10361 126.423C4.04515 126.454 4.02301 126.527 4.05414 126.586L14.9602 147.034C14.9916 147.092 15.0639 147.114 15.1224 147.083Z" fill="#92CCDD"/>
<path d="M7.58567 132.954C7.58636 132.953 7.5874 132.953 7.58844 132.952C7.62095 132.934 7.64275 132.902 7.64794 132.865L8.21526 128.901C8.2246 128.836 8.17928 128.775 8.11355 128.766C8.04783 128.757 7.98729 128.802 7.97795 128.868L7.43277 132.678L3.73447 131.125C3.67325 131.099 3.60337 131.129 3.57777 131.189C3.55217 131.251 3.58054 131.321 3.64177 131.346L7.48293 132.958C7.51614 132.973 7.55384 132.971 7.58567 132.954Z" fill="#92CCDD"/>
<path d="M9.75657 137.025C9.75726 137.025 9.7583 137.024 9.75933 137.024C9.79185 137.005 9.81365 136.973 9.81883 136.936L10.3862 132.973C10.3955 132.907 10.3502 132.846 10.2845 132.837C10.2187 132.828 10.1582 132.873 10.1488 132.939L9.60367 136.749L5.90537 135.197C5.84414 135.171 5.77427 135.2 5.74867 135.261C5.72307 135.322 5.75144 135.392 5.81266 135.417L9.65383 137.029C9.68704 137.044 9.72474 137.042 9.75657 137.025Z" fill="#92CCDD"/>
<path d="M11.9284 141.096C11.9291 141.096 11.9302 141.095 11.9312 141.095C11.9637 141.076 11.9855 141.044 11.9907 141.008L12.558 137.044C12.5674 136.978 12.5221 136.918 12.4563 136.908C12.3906 136.899 12.3301 136.945 12.3207 137.01L11.7755 140.821L8.07725 139.268C8.01602 139.242 7.94614 139.272 7.92054 139.332C7.89494 139.394 7.92331 139.464 7.98454 139.489L11.8257 141.101C11.8589 141.115 11.8966 141.113 11.9284 141.096Z" fill="#92CCDD"/>
<path d="M14.0993 145.168C14.1 145.167 14.1011 145.166 14.1021 145.166C14.1346 145.148 14.1564 145.116 14.1616 145.079L14.7289 141.115C14.7383 141.05 14.693 140.989 14.6272 140.98C14.5615 140.97 14.501 141.016 14.4916 141.081L13.9464 144.892L10.2481 143.34C10.1869 143.314 10.117 143.343 10.0914 143.404C10.0658 143.465 10.0942 143.535 10.1554 143.56L13.9966 145.173C14.0298 145.186 14.0675 145.184 14.0993 145.168Z" fill="#92CCDD"/>
<path d="M38.0047 123.479C43.086 144.392 25.379 147.15 25.379 147.15C25.379 147.15 17.8088 130.91 38.0047 123.479Z" fill="#1A7AAA"/>
<path d="M25.4093 147.083C25.3508 147.052 25.3287 146.979 25.3598 146.921L36.2658 126.473C36.297 126.414 36.3696 126.392 36.4281 126.423C36.4865 126.454 36.5087 126.527 36.4775 126.586L25.5715 147.034C25.5404 147.092 25.4677 147.114 25.4093 147.083Z" fill="#92CCDD"/>
<path d="M32.9453 132.954C32.9446 132.953 32.9435 132.953 32.9425 132.952C32.91 132.934 32.8882 132.902 32.883 132.865L32.3157 128.901C32.3063 128.836 32.3516 128.775 32.4174 128.766C32.4831 128.757 32.5436 128.802 32.553 128.868L33.0982 132.678L36.7965 131.126C36.8577 131.1 36.9276 131.129 36.9532 131.19C36.9788 131.251 36.9504 131.321 36.8892 131.346L33.048 132.959C33.0148 132.973 32.9771 132.971 32.9453 132.954Z" fill="#92CCDD"/>
<path d="M30.7744 137.025C30.7737 137.025 30.7726 137.024 30.7716 137.024C30.7391 137.005 30.7173 136.973 30.7121 136.936L30.1448 132.973C30.1354 132.907 30.1807 132.846 30.2465 132.837C30.3122 132.828 30.3727 132.873 30.3821 132.939L30.9273 136.749L34.6256 135.197C34.6868 135.171 34.7567 135.2 34.7823 135.261C34.8079 135.322 34.7795 135.392 34.7183 135.417L30.8771 137.029C30.8439 137.044 30.8062 137.042 30.7744 137.025Z" fill="#92CCDD"/>
<path d="M28.6025 141.096C28.6018 141.096 28.6008 141.095 28.5997 141.095C28.5672 141.076 28.5454 141.044 28.5402 141.008L27.9729 137.044C27.9636 136.978 28.0089 136.918 28.0746 136.908C28.1403 136.899 28.2009 136.945 28.2102 137.01L28.7554 140.821L32.4537 139.268C32.5149 139.242 32.5848 139.272 32.6104 139.332C32.636 139.394 32.6076 139.464 32.5464 139.489L28.7052 141.101C28.672 141.115 28.634 141.113 28.6025 141.096Z" fill="#92CCDD"/>
<path d="M26.4316 145.168C26.4309 145.167 26.4299 145.166 26.4288 145.166C26.3963 145.148 26.3745 145.116 26.3693 145.079L25.802 141.115C25.7927 141.05 25.838 140.989 25.9037 140.98C25.9694 140.97 26.03 141.016 26.0393 141.081L26.5845 144.892L30.2828 143.34C30.344 143.314 30.4139 143.343 30.4395 143.404C30.4651 143.465 30.4367 143.535 30.3755 143.56L26.5343 145.173C26.5011 145.186 26.4631 145.184 26.4316 145.168Z" fill="#92CCDD"/>
<path d="M29.5451 137.999C30.0166 139.503 29.5977 141.261 28.7907 142.526C27.9864 143.79 26.8438 144.653 25.7008 145.424C24.7523 146.062 23.7315 146.675 22.6557 146.619H19.6464C18.5675 146.675 17.547 146.062 16.6013 145.424C15.4587 144.653 14.3157 143.79 13.5087 142.526C12.7016 141.261 12.2855 139.503 12.7542 137.999C13.1842 136.626 14.2825 135.611 14.4461 134.152C14.6596 132.255 13.187 130.492 13.4921 128.614C13.7138 127.255 14.7817 126.398 15.7748 125.752C16.4681 125.3 17.2142 124.828 17.6082 123.988C18.307 122.493 17.5972 120.604 17.7414 118.885C17.9134 116.843 19.4942 115.143 21.1502 115.218C22.8061 115.143 24.387 116.843 24.5589 118.885C24.706 120.604 23.9958 122.493 24.6949 123.988C25.0858 124.828 25.832 125.3 26.5283 125.752C27.5211 126.398 28.5862 127.255 28.808 128.614C29.1131 130.492 27.6405 132.255 27.8539 134.152C28.0168 135.611 29.1151 136.626 29.5451 137.999Z" fill="#7E7EC4"/>
<path d="M21.2852 146.606C21.2084 146.606 21.1465 146.544 21.1465 146.468V119.64C21.1465 119.563 21.2084 119.501 21.2852 119.501C21.362 119.501 21.4239 119.563 21.4239 119.64V146.468C21.4239 146.544 21.362 146.606 21.2852 146.606Z" fill="#92CCDD"/>
<path d="M21.2855 128.068C21.2844 128.068 21.2831 128.068 21.282 128.068C21.2391 128.067 21.199 128.046 21.1737 128.011L18.435 124.272C18.3897 124.21 18.4032 124.123 18.4648 124.078C18.5267 124.032 18.6135 124.046 18.6589 124.108L21.2914 127.702L24.2234 124.102C24.2719 124.042 24.3594 124.034 24.4185 124.082C24.478 124.13 24.487 124.218 24.4386 124.277L21.3934 128.016C21.3668 128.049 21.327 128.068 21.2855 128.068Z" fill="#92CCDD"/>
<path d="M21.2855 133.409C21.2844 133.409 21.2831 133.409 21.282 133.409C21.2391 133.408 21.199 133.387 21.1737 133.352L18.435 129.613C18.3897 129.551 18.4032 129.464 18.4648 129.419C18.5267 129.373 18.6135 129.387 18.6589 129.448L21.2914 133.043L24.2234 129.443C24.2719 129.383 24.3594 129.375 24.4185 129.423C24.478 129.472 24.487 129.559 24.4386 129.618L21.3934 133.358C21.3668 133.39 21.327 133.409 21.2855 133.409Z" fill="#92CCDD"/>
<path d="M21.2855 138.751C21.2844 138.751 21.2831 138.751 21.282 138.751C21.2391 138.75 21.199 138.729 21.1737 138.694L18.435 134.955C18.3897 134.893 18.4032 134.806 18.4648 134.76C18.5267 134.715 18.6135 134.729 18.6589 134.79L21.2914 138.385L24.2234 134.785C24.2719 134.725 24.3594 134.717 24.4185 134.765C24.478 134.813 24.487 134.9 24.4386 134.96L21.3934 138.699C21.3668 138.732 21.327 138.751 21.2855 138.751Z" fill="#92CCDD"/>
<path d="M21.2855 144.092C21.2844 144.092 21.2831 144.092 21.282 144.092C21.2391 144.091 21.199 144.07 21.1737 144.036L18.435 140.296C18.3897 140.234 18.4032 140.148 18.4648 140.102C18.5267 140.057 18.6135 140.07 18.6589 140.132L21.2914 143.727L24.2234 140.126C24.2719 140.067 24.3594 140.058 24.4185 140.106C24.478 140.155 24.487 140.242 24.4386 140.301L21.3934 144.041C21.3668 144.074 21.327 144.092 21.2855 144.092Z" fill="#92CCDD"/>
<path d="M74.4437 123.697C69.3624 144.611 87.0694 147.369 87.0694 147.369C87.0694 147.369 94.6396 131.129 74.4437 123.697Z" fill="#1A7AAA"/>
<path d="M87.0394 147.302C87.0978 147.271 87.12 147.198 87.0889 147.14L76.1828 126.692C76.1517 126.633 76.0791 126.611 76.0206 126.642C75.9621 126.673 75.94 126.746 75.9711 126.804L86.8771 147.252C86.9083 147.311 86.9809 147.333 87.0394 147.302Z" fill="#92CCDD"/>
<path d="M79.5027 133.172C79.5034 133.172 79.5044 133.171 79.5054 133.171C79.5379 133.153 79.5597 133.121 79.5649 133.084L80.1322 129.12C80.1416 129.054 80.0963 128.994 80.0305 128.985C79.9648 128.975 79.9043 129.021 79.8949 129.086L79.3498 132.897L75.6515 131.345C75.5902 131.319 75.5204 131.348 75.4948 131.409C75.4692 131.47 75.4975 131.54 75.5588 131.565L79.3999 133.178C79.4331 133.191 79.4712 133.189 79.5027 133.172Z" fill="#92CCDD"/>
<path d="M81.6736 137.244C81.6742 137.243 81.6753 137.243 81.6763 137.242C81.7088 137.224 81.7306 137.192 81.7358 137.155L82.3031 133.192C82.3125 133.126 82.2672 133.065 82.2014 133.056C82.1357 133.047 82.0752 133.092 82.0658 133.158L81.5207 136.968L77.8224 135.415C77.7611 135.39 77.6913 135.419 77.6657 135.479C77.6401 135.541 77.6684 135.611 77.7297 135.636L81.5708 137.248C81.604 137.263 81.6417 137.261 81.6736 137.244Z" fill="#92CCDD"/>
<path d="M83.8454 141.315C83.8461 141.315 83.8472 141.314 83.8482 141.314C83.8807 141.295 83.9022 141.263 83.9077 141.226L84.475 137.263C84.4844 137.197 84.439 137.137 84.3733 137.127C84.3076 137.118 84.2471 137.164 84.2377 137.229L83.6925 141.039L79.9942 139.487C79.933 139.461 79.8631 139.491 79.8375 139.551C79.8119 139.612 79.8403 139.683 79.9015 139.708L83.7427 141.32C83.7759 141.334 83.8136 141.332 83.8454 141.315Z" fill="#92CCDD"/>
<path d="M86.0173 145.386C86.018 145.386 86.019 145.385 86.0201 145.385C86.0526 145.367 86.0744 145.334 86.0796 145.298L86.6469 141.334C86.6562 141.268 86.6109 141.208 86.5452 141.198C86.4795 141.189 86.4189 141.234 86.4096 141.3L85.8644 145.111L82.1661 143.558C82.1049 143.532 82.035 143.562 82.0094 143.622C81.9838 143.684 82.0122 143.754 82.0734 143.779L85.9146 145.391C85.9478 145.405 85.9855 145.403 86.0173 145.386Z" fill="#92CCDD"/>
<path d="M101.753 141.827C101.733 143.402 100.788 144.943 99.6272 145.894C98.469 146.845 97.1147 147.309 95.7888 147.686C94.6887 147.997 93.5282 148.262 92.5225 147.874L89.6628 146.937C88.6202 146.654 87.8411 145.754 87.141 144.853C86.2952 143.765 85.4778 142.59 85.1045 141.136C84.7313 139.683 84.8831 137.883 85.7967 136.6C86.6325 135.429 87.9923 134.807 88.6022 133.471C89.3957 131.735 88.5454 129.6 89.4196 127.911C90.0537 126.688 91.335 126.207 92.4796 125.901C93.2794 125.688 94.1353 125.472 94.7711 124.796C95.9005 123.593 95.814 121.577 96.4862 119.988C97.2849 118.101 99.3165 116.978 100.867 117.564C102.464 118.008 103.437 120.117 102.965 122.11C102.569 123.79 101.306 125.364 101.505 127.002C101.615 127.922 102.177 128.602 102.698 129.249C103.441 130.172 104.186 131.318 103.974 132.679C103.679 134.558 101.73 135.776 101.343 137.645C101.044 139.082 101.772 140.388 101.753 141.827Z" fill="#7E7EC4"/>
<path d="M91.2244 147.435C91.1514 147.411 91.112 147.333 91.1359 147.26L99.4876 121.765C99.5114 121.692 99.5896 121.653 99.6626 121.677C99.7356 121.701 99.775 121.779 99.7512 121.852L91.3995 147.347C91.3756 147.419 91.2974 147.459 91.2244 147.435Z" fill="#92CCDD"/>
<path d="M96.9954 129.819C96.9943 129.818 96.9929 129.818 96.9919 129.817C96.9514 129.803 96.9199 129.77 96.9065 129.73L95.4677 125.324C95.4442 125.251 95.4837 125.172 95.5563 125.149C95.6293 125.125 95.7075 125.164 95.7313 125.237L97.114 129.473L101.021 126.964C101.086 126.922 101.172 126.942 101.213 127.006C101.254 127.07 101.236 127.156 101.171 127.197L97.1133 129.803C97.0784 129.826 97.0351 129.832 96.9954 129.819Z" fill="#92CCDD"/>
<path d="M95.3332 134.894C95.3322 134.894 95.3308 134.894 95.3298 134.893C95.2893 134.879 95.2578 134.846 95.2443 134.806L93.8056 130.4C93.7821 130.327 93.8215 130.249 93.8942 130.225C93.9672 130.201 94.0454 130.241 94.0692 130.313L95.4519 134.549L99.3588 132.04C99.4235 131.998 99.5093 132.018 99.5504 132.082C99.5919 132.146 99.5733 132.232 99.5089 132.273L95.4508 134.879C95.4163 134.902 95.373 134.908 95.3332 134.894Z" fill="#92CCDD"/>
<path d="M93.6701 139.971C93.6691 139.971 93.6677 139.97 93.6667 139.97C93.6262 139.955 93.5947 139.923 93.5812 139.882L92.1425 135.476C92.119 135.403 92.1584 135.325 92.2311 135.301C92.3041 135.277 92.3823 135.317 92.4061 135.389L93.7888 139.625L97.696 137.117C97.7607 137.074 97.8465 137.094 97.8877 137.158C97.9292 137.223 97.9105 137.308 97.8462 137.35L93.7881 139.956C93.7532 139.978 93.7096 139.984 93.6701 139.971Z" fill="#92CCDD"/>
<path d="M92.0071 145.046C92.006 145.046 92.0046 145.045 92.0036 145.045C91.9631 145.031 91.9317 144.998 91.9182 144.958L90.4795 140.551C90.4559 140.478 90.4954 140.4 90.568 140.376C90.641 140.352 90.7192 140.392 90.743 140.465L92.1257 144.7L96.0329 142.192C96.0976 142.15 96.1834 142.17 96.2246 142.233C96.2661 142.298 96.2474 142.383 96.1831 142.425L92.125 145.031C92.0901 145.054 92.0465 145.059 92.0071 145.046Z" fill="#92CCDD"/>
<path d="M114.343 123.163C109.262 144.076 126.969 146.835 126.969 146.835C126.969 146.835 134.539 130.595 114.343 123.163Z" fill="#1A7AAA"/>
<path d="M126.939 146.768C126.997 146.736 127.019 146.664 126.988 146.605L116.082 126.157C116.051 126.099 115.978 126.077 115.92 126.108C115.862 126.139 115.839 126.212 115.871 126.27L126.777 146.718C126.808 146.777 126.88 146.799 126.939 146.768Z" fill="#92CCDD"/>
<path d="M119.403 132.639C119.404 132.639 119.405 132.638 119.406 132.638C119.438 132.619 119.46 132.587 119.465 132.551L120.033 128.587C120.042 128.521 119.997 128.461 119.931 128.451C119.865 128.442 119.805 128.487 119.795 128.553L119.25 132.363L115.552 130.811C115.491 130.785 115.421 130.815 115.395 130.875C115.37 130.937 115.398 131.007 115.459 131.032L119.3 132.644C119.334 132.658 119.371 132.656 119.403 132.639Z" fill="#92CCDD"/>
<path d="M121.574 136.71C121.575 136.709 121.576 136.708 121.577 136.708C121.609 136.69 121.631 136.658 121.636 136.621L122.204 132.657C122.213 132.592 122.168 132.531 122.102 132.522C122.036 132.512 121.976 132.558 121.966 132.623L121.421 136.433L117.723 134.881C117.662 134.855 117.592 134.885 117.566 134.945C117.54 135.007 117.569 135.076 117.63 135.102L121.471 136.714C121.504 136.728 121.542 136.726 121.574 136.71Z" fill="#92CCDD"/>
<path d="M123.745 140.781C123.746 140.78 123.747 140.78 123.748 140.779C123.78 140.761 123.802 140.729 123.807 140.692L124.374 136.729C124.384 136.663 124.338 136.602 124.273 136.593C124.207 136.584 124.146 136.629 124.137 136.695L123.592 140.505L119.894 138.953C119.832 138.927 119.763 138.956 119.737 139.017C119.711 139.078 119.74 139.148 119.801 139.174L123.642 140.786C123.675 140.799 123.713 140.798 123.745 140.781Z" fill="#92CCDD"/>
<path d="M125.917 144.852C125.917 144.852 125.918 144.851 125.919 144.851C125.952 144.832 125.973 144.8 125.979 144.764L126.546 140.8C126.556 140.734 126.51 140.674 126.445 140.664C126.379 140.655 126.318 140.7 126.309 140.766L125.764 144.576L122.066 143.024C122.004 142.998 121.934 143.028 121.909 143.088C121.883 143.149 121.912 143.22 121.973 143.245L125.814 144.857C125.847 144.871 125.885 144.869 125.917 144.852Z" fill="#92CCDD"/>
<path d="M149.822 123.163C154.903 144.076 137.196 146.835 137.196 146.835C137.196 146.835 129.626 130.595 149.822 123.163Z" fill="#1A7AAA"/>
<path d="M137.227 146.768C137.168 146.736 137.146 146.664 137.177 146.605L148.083 126.157C148.114 126.099 148.187 126.077 148.245 126.108C148.304 126.139 148.326 126.212 148.295 126.27L137.389 146.718C137.357 146.777 137.285 146.799 137.227 146.768Z" fill="#92CCDD"/>
<path d="M144.763 132.639C144.762 132.639 144.761 132.638 144.76 132.638C144.727 132.619 144.706 132.587 144.7 132.551L144.133 128.587C144.124 128.521 144.169 128.461 144.235 128.451C144.3 128.442 144.361 128.487 144.37 128.553L144.916 132.363L148.614 130.811C148.675 130.785 148.745 130.815 148.771 130.875C148.796 130.937 148.768 131.007 148.707 131.032L144.865 132.644C144.832 132.658 144.794 132.656 144.763 132.639Z" fill="#92CCDD"/>
<path d="M142.592 136.71C142.591 136.709 142.59 136.708 142.589 136.708C142.556 136.69 142.535 136.658 142.529 136.621L141.962 132.657C141.953 132.592 141.998 132.531 142.064 132.522C142.13 132.512 142.19 132.558 142.199 132.623L142.745 136.433L146.443 134.881C146.504 134.855 146.574 134.885 146.6 134.945C146.625 135.007 146.597 135.076 146.536 135.102L142.694 136.714C142.661 136.728 142.624 136.726 142.592 136.71Z" fill="#92CCDD"/>
<path d="M140.42 140.781C140.419 140.78 140.418 140.78 140.417 140.779C140.385 140.761 140.363 140.729 140.358 140.692L139.79 136.729C139.781 136.663 139.826 136.602 139.892 136.593C139.958 136.584 140.018 136.629 140.028 136.695L140.573 140.505L144.271 138.953C144.332 138.927 144.402 138.956 144.428 139.017C144.453 139.078 144.425 139.148 144.364 139.174L140.523 140.786C140.489 140.799 140.452 140.798 140.42 140.781Z" fill="#92CCDD"/>
<path d="M138.249 144.852C138.248 144.852 138.247 144.851 138.246 144.851C138.214 144.832 138.192 144.8 138.187 144.764L137.619 140.8C137.61 140.734 137.655 140.674 137.721 140.664C137.787 140.655 137.847 140.7 137.857 140.766L138.402 144.576L142.1 143.024C142.161 142.998 142.231 143.028 142.257 143.088C142.282 143.149 142.254 143.22 142.193 143.245L138.352 144.857C138.319 144.871 138.281 144.869 138.249 144.852Z" fill="#92CCDD"/>
<path d="M141.363 137.683C141.834 139.186 141.415 140.945 140.608 142.209C139.804 143.474 138.661 144.337 137.518 145.107C136.57 145.745 135.549 146.358 134.473 146.303H131.464C130.385 146.358 129.364 145.745 128.419 145.107C127.276 144.336 126.133 143.474 125.326 142.209C124.519 140.945 124.103 139.186 124.572 137.683C125.002 136.31 126.1 135.295 126.264 133.836C126.477 131.939 125.004 130.175 125.309 128.297C125.531 126.938 126.599 126.081 127.592 125.435C128.285 124.983 129.032 124.512 129.426 123.671C130.124 122.176 129.415 120.288 129.559 118.568C129.731 116.527 131.312 114.827 132.968 114.902C134.624 114.827 136.204 116.527 136.376 118.568C136.523 120.288 135.813 122.177 136.512 123.671C136.903 124.512 137.649 124.983 138.346 125.435C139.338 126.081 140.404 126.939 140.625 128.297C140.93 130.175 139.458 131.939 139.671 133.836C139.834 135.295 140.933 136.31 141.363 137.683Z" fill="#7E7EC4"/>
<path d="M133.102 146.29C133.025 146.29 132.963 146.228 132.963 146.151V119.323C132.963 119.246 133.025 119.185 133.102 119.185C133.178 119.185 133.24 119.246 133.24 119.323V146.151C133.24 146.228 133.178 146.29 133.102 146.29Z" fill="#92CCDD"/>
<path d="M133.102 127.752C133.101 127.752 133.099 127.752 133.098 127.752C133.056 127.751 133.015 127.729 132.99 127.695L130.251 123.955C130.206 123.894 130.22 123.807 130.281 123.761C130.343 123.716 130.43 123.73 130.475 123.791L133.108 127.386L136.04 123.786C136.088 123.726 136.176 123.717 136.235 123.766C136.294 123.814 136.303 123.901 136.255 123.961L133.21 127.7C133.183 127.733 133.144 127.752 133.102 127.752Z" fill="#92CCDD"/>
<path d="M133.102 133.093C133.101 133.093 133.099 133.093 133.098 133.093C133.056 133.092 133.015 133.071 132.99 133.037L130.251 129.297C130.206 129.235 130.22 129.148 130.281 129.103C130.343 129.057 130.43 129.071 130.475 129.133L133.108 132.728L136.04 129.128C136.088 129.068 136.176 129.06 136.235 129.108C136.294 129.156 136.303 129.243 136.255 129.303L133.21 133.042C133.183 133.075 133.144 133.093 133.102 133.093Z" fill="#92CCDD"/>
<path d="M133.102 138.434C133.101 138.434 133.099 138.434 133.098 138.434C133.056 138.433 133.015 138.412 132.99 138.378L130.251 134.638C130.206 134.576 130.22 134.489 130.281 134.444C130.343 134.398 130.43 134.412 130.475 134.474L133.108 138.069L136.04 134.468C136.088 134.408 136.176 134.4 136.235 134.448C136.294 134.497 136.303 134.584 136.255 134.643L133.21 138.383C133.183 138.416 133.144 138.434 133.102 138.434Z" fill="#92CCDD"/>
<path d="M133.102 143.776C133.101 143.776 133.099 143.776 133.098 143.776C133.056 143.775 133.015 143.754 132.99 143.719L130.251 139.98C130.206 139.918 130.22 139.831 130.281 139.786C130.343 139.74 130.43 139.754 130.475 139.816L133.108 143.41L136.04 139.81C136.088 139.75 136.176 139.742 136.235 139.79C136.294 139.838 136.303 139.926 136.255 139.985L133.21 143.724C133.183 143.757 133.144 143.776 133.102 143.776Z" fill="#92CCDD"/>
<path d="M155.736 144.23L0.263672 145.164C0.263672 145.164 26.5696 153 77.9995 153C129.429 153 155.736 144.23 155.736 144.23Z" fill="#E2E2E8"/>
<path d="M107.259 74.2152L115.236 70.0869L116.638 82.1369L101.973 71.7598L102.997 67.3116C100.475 57.2458 101.967 51.6252 102.075 51.2412C100.629 57.1296 107.259 74.2152 107.259 74.2152Z" fill="#E4ECEF"/>
<path d="M101.973 71.7598L116.638 82.1369C104.166 85.9566 99.8057 81.171 99.8057 81.171L101.973 71.7598Z" fill="white"/>
<path d="M133.462 55.6226L128.269 59.9778C127.6 60.03 126.939 60.1203 126.48 60.1466C126.139 60.1639 125.761 60.3123 125.386 60.5247L126.462 59.6637L132.598 54.7588L133.462 55.6226Z" fill="#D6D6D6"/>
<path d="M128.269 59.9774C129.613 59.8726 130.995 59.9161 130.873 60.9287C130.689 62.4473 130.663 64.2772 129.511 64.6816C128.362 65.0888 124.243 65.4264 124.243 65.4264L123.07 62.4473C123.07 62.4473 124.222 61.1788 125.386 60.5243C125.761 60.3119 126.139 60.1635 126.48 60.1462C126.939 60.1199 127.6 60.0296 128.269 59.9774Z" fill="#CE8451"/>
<path d="M126.462 59.6631L125.385 60.5241C124.222 61.1786 123.07 62.4471 123.07 62.4471L119.375 63.4915C119.375 63.4915 124.996 59.7036 126.462 59.6631Z" fill="#B76F3D"/>
<path d="M117.705 63.9631L119.375 63.492L123.07 62.4476L124.242 65.4267L115.236 70.0874L107.258 74.2157C107.258 74.2157 100.628 57.13 102.074 51.2417C102.077 51.233 102.077 51.2272 102.08 51.2213C102.235 50.6045 102.476 50.1129 102.825 49.7784C102.825 49.7784 103.971 48.5625 105.746 48.7368C106.072 48.769 106.421 48.8503 106.787 48.9928C107.2 49.1557 107.593 49.5311 107.963 50.0898C109.7 52.705 110.884 59.2682 110.866 65.8982L117.705 63.9631Z" fill="white"/>
<path d="M111.314 52.6788L112.789 53.8162C112.789 53.8162 117.848 59.2884 118.203 61.8195C118.203 61.8195 118.494 62.739 117.706 63.9636L110.866 65.8983C110.884 59.2683 109.7 52.705 107.963 50.0898H107.966L111.314 52.6788Z" fill="#E4ECEF"/>
<path d="M118.273 31.0087L118.281 30.997C119.305 30.7119 120.466 30.9679 121.278 31.6601C122.086 32.3495 122.523 33.4551 122.401 34.514C122.299 35.3927 121.845 36.2478 122.005 37.1178C122.141 37.848 122.688 38.4327 122.93 39.1339C123.253 40.0679 122.991 41.1295 122.432 41.9442C121.877 42.7588 121.056 43.358 120.204 43.8526C120 43.972 119.788 44.0913 119.643 44.2774C119.148 44.9174 119.712 45.8019 119.858 46.5962C120.114 48.0013 118.81 49.3598 117.391 49.5113C115.971 49.6656 114.586 48.8713 113.641 47.8007L113.478 47.7834L113.847 44.5601L116.317 45.0312L117.143 41.8542L118.319 42.0898C121.123 35.3027 118.476 33.304 118.476 33.304L118.438 33.3012C118.432 34.0401 117.981 34.7354 117.382 35.1661C116.753 35.6141 115.983 35.8206 115.217 35.9282C114.452 36.0389 113.678 36.0648 112.919 36.2046C112.378 36.3007 111.825 36.4692 111.43 36.8532C111.081 37.1936 110.897 37.6678 110.775 38.139C110.595 38.846 110.536 39.5732 110.391 40.2858C110.249 40.9984 110.004 41.7172 109.518 42.2583C109.044 42.7879 108.675 43.3434 107.965 43.3434L106.894 45.9355C106.871 45.9704 106.842 46.0022 106.81 46.0316C105.239 45.7466 103.904 44.4462 103.525 42.8896C103.124 41.2516 103.749 39.4307 105.012 38.3133C106.428 37.0566 108.491 36.6639 109.777 35.2761C110.58 34.4033 110.981 33.231 111.229 32.07C111.362 31.4415 111.476 30.7666 111.903 30.2868C112.305 29.8388 112.916 29.6409 113.509 29.5683C115.195 29.3652 116.876 30.0429 118.273 31.0087Z" fill="#0085F9"/>
<path d="M106.854 46.0399L106.895 45.935C107.178 45.5919 107.271 45.0709 107.439 44.6492C107.614 44.213 107.788 43.7792 107.966 43.343C108.676 43.343 109.045 42.7875 109.519 42.2578C110.005 41.7168 110.25 40.9983 110.392 40.2854C110.538 39.5728 110.596 38.8453 110.776 38.1386C110.898 37.6674 111.082 37.1931 111.431 36.8528C111.826 36.4688 112.379 36.3 112.92 36.2041C113.68 36.0644 114.453 36.0384 115.219 35.9277C115.984 35.8202 116.754 35.6136 117.383 35.1657C117.982 34.735 118.433 34.0397 118.439 33.3008L118.477 33.3035C118.477 33.3035 121.124 35.3023 118.32 42.0894L117.144 41.8538L116.318 45.0308L113.848 44.5596L110.605 43.8294L111.314 52.6792L107.966 50.09H107.963C107.594 49.5313 107.201 49.156 106.788 48.993C106.421 48.8505 106.072 48.7689 105.746 48.737L105.749 48.7197L106.854 46.0399Z" fill="#CE8451"/>
<path d="M118.281 30.997L118.272 31.0087C116.876 30.0429 115.194 29.3649 113.51 29.5687C112.916 29.6413 112.306 29.8392 111.904 30.2871C111.477 30.7673 111.363 31.4422 111.229 32.0704C110.982 33.2313 110.581 34.4037 109.778 35.2764C108.492 36.6643 106.429 37.0569 105.012 38.3137C103.75 39.4307 103.124 41.252 103.526 42.8899C103.904 44.4462 105.239 45.7466 106.811 46.032C106.726 46.1164 106.624 46.1863 106.502 46.2357C105.045 46.8235 103.331 46.7653 101.926 46.0583C101.426 45.8082 100.948 45.4647 100.684 44.9703C100.064 43.8212 100.797 42.4509 101.016 41.1651C101.138 40.4408 101.091 39.6901 100.876 38.9889C100.681 38.3431 100.346 37.7439 100.169 37.0922C99.6713 35.2564 100.625 33.1358 102.33 32.289C103.203 31.8556 104.195 31.7449 105.135 31.4802C106.261 31.163 107.322 30.6192 108.236 29.8918C109.03 29.2604 109.74 28.4748 110.694 28.1289C111.712 27.7622 112.85 27.9601 113.877 28.3064C115.52 28.8588 117.039 29.7866 118.281 30.997Z" fill="#0085F9"/>
<path d="M113.848 44.5593L113.479 47.7827L112.789 53.8163L111.314 52.6786L110.604 43.8291L113.848 44.5593Z" fill="#B76F3D"/>
<path d="M142.012 140.897L135.894 143.722L132.205 139.643L133.54 144.272L132.048 145.054L127.891 135.719L131.419 133.758L135.894 138.465L142.012 140.897Z" fill="#0085F9"/>
<path d="M116.638 82.1377L115.628 88.1533L115.393 87.4719L116.638 82.1377Z" fill="#2888E8"/>
<path d="M131.419 133.757L127.891 135.718C127.891 135.718 118.907 121.089 116.278 117.125C113.652 113.164 115.808 108.892 115.808 108.892C115.808 108.892 114.766 107.353 112.833 104.827C110.885 102.285 108.035 98.7424 104.434 94.7677C104.171 94.4772 103.922 94.1901 103.683 93.9064C97.4389 86.4378 99.8051 81.1729 99.8051 81.1729C99.8051 81.1729 104.167 85.957 116.638 82.138L115.392 87.4722L115.628 88.1536L131.419 133.757Z" fill="#2888E8"/>
<path d="M104.434 94.7694C108.036 98.7434 110.887 102.284 112.833 104.827L111.652 111.87L103.812 97.3701L103.809 97.3673L103.684 93.9053C103.922 94.1907 104.172 94.4785 104.434 94.7694Z" fill="#1D7DDE"/>
<path d="M103.811 97.3701L111.651 111.87L101.059 134.151H96.2764C96.2764 134.151 98.3505 112.556 104.277 110.144L103.811 97.3701Z" fill="#2888E8"/>
<path d="M102.866 139.408L107.416 146.155H100.669L98.2374 140.153V146.155H96.2764V134.151H101.059L102.866 139.408Z" fill="#0085F9"/>
<path d="M43.9011 33.3907L47.04 38.2724L39.706 45.1961L41.5882 34.9207L38.1756 37.0184L34.9987 39.1362L32.8024 34.4873L31.272 34.7229L29.1221 28.0288C31.4989 27.3276 33.9398 26.2134 33.9398 26.2134C33.9398 26.2134 35.467 30.1933 38.2542 29.8588C38.2542 29.8588 37.7246 26.0159 39.9008 26.2134C42.077 26.4085 39.9419 31.9388 43.9011 33.3907Z" fill="#FFD599"/>
<path d="M41.9029 22.7981C45.4725 21.7597 43.9017 33.3904 43.9017 33.3904C39.9422 31.9385 42.0776 26.4082 39.9014 26.2135C37.7252 26.0156 38.2548 29.8588 38.2548 29.8588C35.4676 30.1933 33.9404 26.2135 33.9404 26.2135C33.9404 26.2135 31.4995 27.3277 29.1227 28.0289C27.191 28.599 25.2998 28.8958 24.7996 28.0956C23.6826 26.3093 24.919 25.0556 28.6833 24.7211C32.4477 24.3894 35.6655 20.5434 38.0974 19.8975C40.5296 19.2489 41.9029 22.7981 41.9029 22.7981Z" fill="#2888E8"/>
<path d="M41.5883 34.9209L39.7058 45.1963L38.8825 40.8034L38.1758 37.0186L41.5883 34.9209Z" fill="#EFBB78"/>
<path d="M62.1825 142.118V147.416H46.0596L55.4767 142.118H62.1825Z" fill="#006099"/>
<path d="M54.1125 83.8818L62.1826 142.118H55.4769L41.0704 100.281L38.999 94.2679C39.9998 93.3834 39.1938 90.6575 41.3527 90.4219C43.5113 90.1891 41.2365 86.9685 41.2365 86.9685L41.5886 87.1401L43.0228 83.9545L54.1125 83.8818Z" fill="#0085F9"/>
<path d="M41.0706 100.281L22.3294 139.515L16.2871 136.929L30.6351 91.7021L41.0706 100.281Z" fill="#0085F9"/>
<path d="M38.9995 94.2677L41.0709 100.281L30.6357 91.7016L33.0735 84.0213L33.1956 84.0186L35.907 88.8159H35.9097C35.5984 89.6042 35.386 90.5002 35.3919 91.4805C35.4095 95.0121 37.9988 95.1491 38.9995 94.2677Z" fill="#0085F9"/>
<path d="M38.6177 83.9834L38.1756 85.4671C38.1756 85.4671 36.7123 86.7646 35.9094 88.8156H35.9067L33.1953 84.0183L38.6177 83.9834Z" fill="#0085F9"/>
<path d="M22.3293 139.515L19.6093 145.141L4.75488 136.929H16.287L22.3293 139.515Z" fill="#006099"/>
<path d="M33.6113 62.1594C34.1758 57.1206 34.6702 52.5737 34.8798 50.2958C35.5083 43.5115 38.8829 40.8033 38.8829 40.8033L39.7062 45.1962L47.0401 38.2725C47.0401 38.2725 55.7066 39.2559 55.4711 43.3344C55.3548 45.3622 54.5052 50.456 53.6791 55.0699V55.0758C52.8441 59.7451 52.0353 63.9198 52.0353 63.9198L43.0226 83.9555L38.6179 83.9845L44.8172 63.2421L45.2565 46.4737L32.5783 73.3341L32.3428 73.3079C32.459 72.3043 32.5783 71.2655 32.6977 70.2066C33.0004 67.5589 33.3145 64.7922 33.6113 62.1594Z" fill="#1295C9"/>
<path d="M53.6787 55.0762L54.1122 83.8828L43.0225 83.9555L52.0352 63.9198C52.0352 63.9198 52.8437 59.7455 53.6787 55.0762Z" fill="#0F8EB5"/>
<path d="M45.2566 46.4736L44.8172 63.2421L38.6179 83.9845L33.1952 84.0194L33.1166 83.8828L33.0731 84.0225L31.1006 84.0343C31.1006 84.0343 31.6534 79.3041 32.3428 73.3082L32.5784 73.3344L45.2566 46.4736Z" fill="#0F8EB5"/>
<path d="M43.0226 83.9551L41.5883 87.1404L41.2362 86.9688L38.1758 85.4678L38.6179 83.9841L43.0226 83.9551Z" fill="#1295C9"/>
<path d="M41.2365 86.9687C41.2365 86.9687 43.5116 90.1893 41.3527 90.4221C39.1941 90.6577 39.9998 93.3836 38.999 94.2681C37.9983 95.1496 35.409 95.0129 35.3917 91.481C35.3858 90.5007 35.5982 89.6047 35.9096 88.8163C36.7125 86.7653 38.1757 85.4678 38.1757 85.4678L41.2365 86.9687Z" fill="#FFD599"/>
<path d="M23.5841 57.1729L33.6121 62.159C33.3153 64.7919 33.0012 67.5586 32.6985 70.206L22.3301 60.1025L23.5841 57.1729Z" fill="#0F8EB5"/>
<path d="M17.1917 52.5587L16.4528 51.6656C16.9852 50.9035 19.4524 51.0401 20.3161 51.9157C21.1771 52.7943 23.5831 57.1727 23.5831 57.1727L22.3291 60.1023C22.3291 60.1023 14.9135 57.3969 14.4191 56.2595C13.9653 55.221 12.3041 51.9305 13.4651 51.4708C13.5758 51.4272 13.7124 51.4096 13.8812 51.4213C14.9287 51.4999 16.2114 51.9596 17.1917 52.5587Z" fill="#FFD599"/>
<path d="M16.4528 51.6666L17.1917 52.5598C16.2113 51.9606 14.9283 51.5009 13.8812 51.4224C13.7124 51.4106 13.5757 51.4282 13.465 51.4718L11.2656 48.0479L13.5667 48.1786L16.4528 51.6666Z" fill="#D6D6D6"/>
</svg>
