<svg width="206" height="153" viewBox="0 0 206 153" fill="none" xmlns="http://www.w3.org/2000/svg">
<path d="M205.655 134.455H0.345703V134.558H205.655V134.455Z" fill="#EBEBEB"/>
<path d="M185.083 141.064H171.482V141.167H185.083V141.064Z" fill="#EBEBEB"/>
<path d="M136.351 142.179H132.781V142.281H136.351V142.179Z" fill="#EBEBEB"/>
<path d="M171.072 137.251H163.191V137.354H171.072V137.251Z" fill="#EBEBEB"/>
<path d="M39.6216 137.941H21.8857V138.044H39.6216V137.941Z" fill="#EBEBEB"/>
<path d="M45.8778 137.941H43.2773V138.044H45.8778V137.941Z" fill="#EBEBEB"/>
<path d="M92.7952 139.676H54.3301V139.778H92.7952V139.676Z" fill="#EBEBEB"/>
<path d="M97.668 116.143H18.378C17.0858 116.143 16.0342 115.091 16.0342 113.799V2.34381C16.0342 1.05159 17.0858 0 18.378 0H97.668C98.9598 0 100.011 1.05159 100.011 2.34381V113.799C100.011 115.091 98.9598 116.143 97.668 116.143ZM18.378 0.103065C17.142 0.103065 16.1368 1.10826 16.1368 2.34422V113.799C16.1368 115.035 17.142 116.04 18.378 116.04H97.668C98.9035 116.04 99.9087 115.035 99.9087 113.799V2.34381C99.9087 1.10826 98.9035 0.102655 97.668 0.102655L18.378 0.103065Z" fill="#EBEBEB"/>
<path d="M186.483 116.143H107.193C105.901 116.143 104.85 115.091 104.85 113.799V2.34381C104.85 1.05159 105.901 0 107.193 0H186.483C187.775 0 188.826 1.05159 188.826 2.34381V113.799C188.827 115.091 187.775 116.143 186.483 116.143ZM107.193 0.103065C105.957 0.103065 104.952 1.10826 104.952 2.34422V113.799C104.952 115.035 105.957 116.04 107.193 116.04H186.483C187.719 116.04 188.724 115.035 188.724 113.799V2.34381C188.724 1.10826 187.719 0.102655 186.483 0.102655L107.193 0.103065Z" fill="#EBEBEB"/>
<path d="M97.6777 51.8009V59.0134L101.392 59.3637C101.893 61.7814 102.851 64.0291 104.161 66.026L101.776 68.9073L106.876 74.0076L109.758 71.6215C111.754 72.9322 114.002 73.8906 116.42 74.3915L116.77 78.1055H123.983L124.333 74.3915C126.75 73.8901 128.998 72.9322 130.995 71.6215L133.877 74.0076L138.977 68.9073L136.591 66.0256C137.901 64.0287 138.859 61.7814 139.361 59.3637L143.075 59.0134V51.8009L139.361 51.4507C138.859 49.0325 137.901 46.7848 136.591 44.7884L138.977 41.9067L133.877 36.8064L130.995 39.1917C128.998 37.8818 126.75 36.9234 124.333 36.4221L123.983 32.708H116.77L116.42 36.4221C114.002 36.9234 111.754 37.8818 109.758 39.1917L106.876 36.8064L101.776 41.9067L104.161 44.788C102.851 46.7844 101.893 49.0325 101.392 51.4507L97.6777 51.8009ZM120.376 45.6425C125.769 45.6425 130.141 50.0143 130.141 55.407C130.141 60.7996 125.769 65.1715 120.376 65.1715C114.984 65.1715 110.612 60.7996 110.612 55.407C110.612 50.0143 114.984 45.6425 120.376 45.6425Z" fill="#F0F0F0"/>
<path d="M85.4921 84.0776L87.5624 85.7919L91.2272 82.1271L89.5133 80.0568C90.4544 78.6225 91.143 77.0067 91.5031 75.2698L94.1717 75.0185V69.8365L91.5031 69.5848C91.143 67.8475 90.4544 66.2325 89.5133 64.7982L91.2272 62.7279L87.5624 59.0631L85.4921 60.777C84.0574 59.8359 82.442 59.1477 80.7051 58.7868L80.4538 56.1182L75.2714 56.119L75.0205 58.7868C73.2832 59.1473 71.6678 59.8359 70.2335 60.777L68.1632 59.0631L64.4984 62.7279L66.2127 64.7982C65.2712 66.2321 64.5826 67.8475 64.2225 69.5848L61.5547 69.8365V75.0189L64.2225 75.2702C64.583 77.0071 65.2712 78.6225 66.2127 80.0572L64.4984 82.1275L68.1632 85.7923L70.2335 84.078C71.6678 85.0195 73.2832 85.7077 75.0205 86.0682L75.2714 88.7365H80.4538L80.7051 86.0678C82.4424 85.7077 84.0574 85.0191 85.4921 84.0776ZM70.847 72.4275C70.847 68.5529 73.9878 65.4121 77.8628 65.4121C81.737 65.4121 84.8782 68.5529 84.8782 72.4275C84.8782 76.3021 81.737 79.4433 77.8628 79.4433C73.9878 79.4433 70.847 76.3021 70.847 72.4275Z" fill="#F5F5F5"/>
<path d="M108.523 119.182C110.592 118.753 112.515 117.933 114.223 116.812L116.688 118.853L121.051 114.49L119.01 112.024C120.13 110.317 120.95 108.394 121.379 106.325L124.556 106.026V99.8568L121.379 99.5574C120.95 97.4891 120.13 95.5662 119.01 93.8585L121.051 91.3931L116.688 87.0307L114.223 89.071C112.515 87.9505 110.592 87.1305 108.523 86.7014L108.225 83.5244H102.054L101.755 86.7014C99.6865 87.1305 97.764 87.9505 96.0559 89.071L93.5909 87.0307L89.2281 91.3931L91.2685 93.8585C90.1479 95.5662 89.3283 97.4891 88.8996 99.5574L85.7227 99.8568V106.027L88.8996 106.326C89.3287 108.394 90.1483 110.317 91.2685 112.025L89.2281 114.49L93.5909 118.853L96.0559 116.812C97.7636 117.933 99.6865 118.753 101.755 119.182L102.054 122.359H108.225L108.523 119.182ZM96.7868 102.941C96.7868 98.3289 100.526 94.5889 105.14 94.5889C109.753 94.5889 113.492 98.3289 113.492 102.941C113.492 107.555 109.753 111.294 105.14 111.294C100.526 111.294 96.7868 107.555 96.7868 102.941Z" fill="#FAFAFA"/>
<path d="M58.433 44.5219L39.543 41.9404L36.9615 60.8304L55.8515 63.4119L58.433 44.5219Z" fill="#F5F5F5"/>
<path d="M42.2402 47.7334L54.5391 49.4149" stroke="#E0E0E0" stroke-width="1.23185" stroke-miterlimit="10"/>
<path d="M41.7168 51.5645L54.0156 53.2459" stroke="#E0E0E0" stroke-width="1.23185" stroke-miterlimit="10"/>
<path d="M41.1758 55.5254L48.4183 56.5158" stroke="#E0E0E0" stroke-width="1.23185" stroke-miterlimit="10"/>
<path d="M164.196 23.5144L145.131 23.583L145.199 42.6484L164.265 42.5798L164.196 23.5144Z" fill="#F0F0F0"/>
<path d="M148.609 28.9471L161.022 28.9023" stroke="#E0E0E0" stroke-width="1.23185" stroke-miterlimit="10"/>
<path d="M148.625 32.8129L161.038 32.7686" stroke="#E0E0E0" stroke-width="1.23185" stroke-miterlimit="10"/>
<path d="M148.639 36.8114L155.948 36.7852" stroke="#E0E0E0" stroke-width="1.23185" stroke-miterlimit="10"/>
<path d="M175.639 70.0293L156.725 72.4258L159.121 91.3406L178.036 88.9441L175.639 70.0293Z" fill="#F5F5F5"/>
<path d="M160.83 77.3172L173.145 75.7568" stroke="#E0E0E0" stroke-width="1.23185" stroke-miterlimit="10"/>
<path d="M161.316 81.1531L173.631 79.5928" stroke="#E0E0E0" stroke-width="1.23185" stroke-miterlimit="10"/>
<path d="M161.818 85.1191L169.07 84.2002" stroke="#E0E0E0" stroke-width="1.23185" stroke-miterlimit="10"/>
<path d="M74.2353 100.721L55.1699 100.79L55.2386 119.855L74.304 119.787L74.2353 100.721Z" fill="#F0F0F0"/>
<path d="M58.6484 106.151L71.0614 106.106" stroke="#E0E0E0" stroke-width="1.23185" stroke-miterlimit="10"/>
<path d="M58.6621 110.018L71.0751 109.974" stroke="#E0E0E0" stroke-width="1.23185" stroke-miterlimit="10"/>
<path d="M58.6777 114.015L65.9876 113.989" stroke="#E0E0E0" stroke-width="1.23185" stroke-miterlimit="10"/>
<path d="M158.44 110.044L139.375 110.112L139.444 129.178L158.509 129.109L158.44 110.044Z" fill="#F0F0F0"/>
<path d="M142.854 115.475L155.267 115.431" stroke="#E0E0E0" stroke-width="1.23185" stroke-miterlimit="10"/>
<path d="M142.867 119.342L155.28 119.298" stroke="#E0E0E0" stroke-width="1.23185" stroke-miterlimit="10"/>
<path d="M142.881 123.339L150.191 123.313" stroke="#E0E0E0" stroke-width="1.23185" stroke-miterlimit="10"/>
<path d="M78.0843 22.2885L59.4727 26.4219L63.606 45.0335L82.2177 40.9002L78.0843 22.2885Z" fill="#F0F0F0"/>
<path d="M64.0176 30.9148L76.1357 28.2236" stroke="#E0E0E0" stroke-width="1.23185" stroke-miterlimit="10"/>
<path d="M64.8574 34.6902L76.9756 31.999" stroke="#E0E0E0" stroke-width="1.23185" stroke-miterlimit="10"/>
<path d="M65.7246 38.5928L72.8607 37.0078" stroke="#E0E0E0" stroke-width="1.23185" stroke-miterlimit="10"/>
<path d="M41.0946 43.9951H40.7529L40.2832 41.8213H41.5643L41.0946 43.9951Z" fill="#E0E0E0"/>
<path d="M40.9243 43.458C41.8825 43.458 42.6592 42.8465 42.6592 42.0923C42.6592 41.338 41.8825 40.7266 40.9243 40.7266C39.9662 40.7266 39.1895 41.338 39.1895 42.0923C39.1895 42.8465 39.9662 43.458 40.9243 43.458Z" fill="#E6E6E6"/>
<path d="M75.9286 24.9971H75.5869L75.1172 22.8232H76.3983L75.9286 24.9971Z" fill="#E0E0E0"/>
<path d="M75.7583 24.4599C76.7164 24.4599 77.4932 23.8485 77.4932 23.0942C77.4932 22.34 76.7164 21.7285 75.7583 21.7285C74.8002 21.7285 74.0234 22.34 74.0234 23.0942C74.0234 23.8485 74.8002 24.4599 75.7583 24.4599Z" fill="#E6E6E6"/>
<path d="M154.384 25.5449H154.042L153.572 23.3711H154.853L154.384 25.5449Z" fill="#E0E0E0"/>
<path d="M154.213 25.0078C155.172 25.0078 155.948 24.3963 155.948 23.6421C155.948 22.8878 155.172 22.2764 154.213 22.2764C153.255 22.2764 152.479 22.8878 152.479 23.6421C152.479 24.3963 153.255 25.0078 154.213 25.0078Z" fill="#E6E6E6"/>
<path d="M173.873 72.7627H173.532L173.062 70.5889H174.343L173.873 72.7627Z" fill="#E0E0E0"/>
<path d="M173.704 72.2246C174.662 72.2246 175.438 71.6131 175.438 70.8589C175.438 70.1046 174.662 69.4932 173.704 69.4932C172.745 69.4932 171.969 70.1046 171.969 70.8589C171.969 71.6131 172.745 72.2246 173.704 72.2246Z" fill="#E6E6E6"/>
<path d="M149.229 112.228H148.888L148.418 110.054H149.699L149.229 112.228Z" fill="#E0E0E0"/>
<path d="M149.059 111.69C150.017 111.69 150.794 111.079 150.794 110.325C150.794 109.57 150.017 108.959 149.059 108.959C148.101 108.959 147.324 109.57 147.324 110.325C147.324 111.079 148.101 111.69 149.059 111.69Z" fill="#E6E6E6"/>
<path d="M64.1899 102.454H63.8482L63.3789 100.28H64.6596L64.1899 102.454Z" fill="#E0E0E0"/>
<path d="M64.0181 101.917C64.9762 101.917 65.7529 101.306 65.7529 100.551C65.7529 99.797 64.9762 99.1855 64.0181 99.1855C63.0599 99.1855 62.2832 99.797 62.2832 100.551C62.2832 101.306 63.0599 101.917 64.0181 101.917Z" fill="#E6E6E6"/>
<path d="M103 153C146.97 153 182.614 150.918 182.614 148.351C182.614 145.783 146.97 143.701 103 143.701C59.0303 143.701 23.3857 145.783 23.3857 148.351C23.3857 150.918 59.0303 153 103 153Z" fill="#F5F5F5"/>
<path d="M59.3379 79.6128C59.3379 76.9085 61.1179 74.708 63.3057 74.708C65.4935 74.708 67.2731 76.9081 67.2731 79.6128C67.2731 82.3176 65.4931 84.5177 63.3057 84.5177C61.1179 84.5181 59.3379 82.3176 59.3379 79.6128ZM60.1591 79.6128C60.1591 81.8647 61.5708 83.6964 63.3057 83.6964C65.0406 83.6964 66.4518 81.8647 66.4518 79.6128C66.4518 77.3614 65.0406 75.5292 63.3057 75.5292C61.5708 75.5297 60.1591 77.3614 60.1591 79.6128Z" fill="#263238"/>
<path d="M51.5312 79.6128C51.5312 76.9085 53.3113 74.708 55.4991 74.708C57.6868 74.708 59.4664 76.9081 59.4664 79.6128C59.4664 82.3176 57.6864 84.5177 55.4991 84.5177C53.3113 84.5181 51.5312 82.3176 51.5312 79.6128ZM52.3525 79.6128C52.3525 81.8647 53.7642 83.6964 55.4991 83.6964C57.2339 83.6964 58.6452 81.8647 58.6452 79.6128C58.6452 77.3614 57.2339 75.5292 55.4991 75.5292C53.7642 75.5292 52.3525 77.3614 52.3525 79.6128Z" fill="#263238"/>
<path d="M43.7266 79.6128C43.7266 76.9085 45.5062 74.708 47.6944 74.708C49.8821 74.708 51.6618 76.9081 51.6618 79.6128C51.6618 82.3176 49.8817 84.5177 47.6944 84.5177C45.5062 84.5181 43.7266 82.3176 43.7266 79.6128ZM44.5478 79.6128C44.5478 81.8647 45.9595 83.6964 47.6944 83.6964C49.4292 83.6964 50.8405 81.8647 50.8405 79.6128C50.8405 77.3614 49.4292 75.5292 47.6944 75.5292C45.9591 75.5297 44.5478 77.3614 44.5478 79.6128Z" fill="#263238"/>
<path d="M35.9189 79.6128C35.9189 76.9085 37.699 74.708 39.8867 74.708C42.0745 74.708 43.8541 76.9081 43.8541 79.6128C43.8541 82.3176 42.0745 84.5177 39.8867 84.5177C37.699 84.5181 35.9189 82.3176 35.9189 79.6128ZM36.7402 79.6128C36.7402 81.8647 38.1519 83.6964 39.8867 83.6964C41.6216 83.6964 43.0329 81.8647 43.0329 79.6128C43.0329 77.3614 41.6216 75.5292 39.8867 75.5292C38.1519 75.5297 36.7402 77.3614 36.7402 79.6128Z" fill="#263238"/>
<path d="M67.1465 79.6128C67.1465 76.9085 68.9261 74.708 71.1143 74.708C73.3021 74.708 75.0817 76.9081 75.0817 79.6128C75.0817 82.3176 73.3017 84.5177 71.1143 84.5177C68.9265 84.5181 67.1465 82.3176 67.1465 79.6128ZM67.9677 79.6128C67.9677 81.8647 69.3794 83.6964 71.1143 83.6964C72.8492 83.6964 74.2604 81.8647 74.2604 79.6128C74.2604 77.3614 72.8492 75.5292 71.1143 75.5292C69.3794 75.5292 67.9677 77.3614 67.9677 79.6128Z" fill="#263238"/>
<path d="M30.7523 147.344H79.6504L79.6504 79.7071H30.7523L30.7523 147.344Z" fill="#263238"/>
<path opacity="0.7" d="M30.7523 147.344H79.6504L79.6504 79.7071H30.7523L30.7523 147.344Z" fill="white"/>
<path opacity="0.6" d="M35.162 147.344H79.6504L79.6504 79.7071H35.162L35.162 147.344Z" fill="white"/>
<path opacity="0.2" d="M32.2212 147.344L32.0159 84.1338L31.8105 147.344H32.2212Z" fill="black"/>
<path opacity="0.2" d="M34.268 147.343L34.0627 88.0713L33.8574 147.343H34.268Z" fill="black"/>
<path opacity="0.2" d="M32.834 79.7578L33.0393 127.278L33.2446 79.7578H32.834Z" fill="black"/>
<path d="M72.2949 82.923C72.2949 83.6938 72.8102 84.3187 73.4463 84.3187C74.0823 84.3187 74.5977 83.6938 74.5977 82.923C74.5977 82.1523 74.0823 81.5273 73.4463 81.5273C72.8102 81.5273 72.2949 82.1523 72.2949 82.923Z" fill="#263238"/>
<path d="M73.5168 83.3367C73.6322 83.3367 73.7468 83.2883 73.8281 83.1943C74.6247 82.2712 75.0813 80.9658 75.0813 79.6128C75.0813 76.9085 73.3013 74.708 71.1139 74.708C69.5018 74.708 68.0622 75.8955 67.4471 77.733C67.3752 77.9478 67.491 78.1806 67.7062 78.2529C67.9214 78.3243 68.1542 78.2089 68.226 77.9938C68.7274 76.4967 69.8607 75.5292 71.1139 75.5292C72.8488 75.5292 74.2601 77.361 74.2601 79.6128C74.2601 80.772 73.8757 81.8815 73.2064 82.658C73.0586 82.8296 73.0775 83.0891 73.2491 83.2374C73.3267 83.3039 73.422 83.3367 73.5168 83.3367Z" fill="#263238"/>
<g opacity="0.4">
<path d="M73.5168 83.3367C73.6322 83.3367 73.7468 83.2883 73.8281 83.1943C74.6247 82.2712 75.0813 80.9658 75.0813 79.6128C75.0813 76.9085 73.3013 74.708 71.1139 74.708C69.5018 74.708 68.0622 75.8955 67.4471 77.733C67.3752 77.9478 67.491 78.1806 67.7062 78.2529C67.9214 78.3243 68.1542 78.2089 68.226 77.9938C68.7274 76.4967 69.8607 75.5292 71.1139 75.5292C72.8488 75.5292 74.2601 77.361 74.2601 79.6128C74.2601 80.772 73.8757 81.8815 73.2064 82.658C73.0586 82.8296 73.0775 83.0891 73.2491 83.2374C73.3267 83.3039 73.422 83.3367 73.5168 83.3367Z" fill="white"/>
</g>
<path d="M64.4883 82.923C64.4883 83.6938 65.004 84.3187 65.6397 84.3187C66.2757 84.3187 66.791 83.6938 66.791 82.923C66.791 82.1523 66.2753 81.5273 65.6397 81.5273C65.004 81.5273 64.4883 82.1523 64.4883 82.923Z" fill="#263238"/>
<path d="M65.7102 83.3367C65.8256 83.3367 65.9402 83.2883 66.0215 83.1943C66.8176 82.2712 67.2747 80.9658 67.2747 79.6128C67.2747 76.9085 65.4946 74.708 63.3073 74.708C61.6952 74.708 60.2555 75.8955 59.6404 77.733C59.5686 77.9478 59.6844 78.1806 59.8995 78.2529C60.1147 78.3243 60.3475 78.2089 60.4194 77.9938C60.9208 76.4967 62.0541 75.5292 63.3073 75.5292C65.0421 75.5292 66.4534 77.361 66.4534 79.6128C66.4534 80.772 66.0691 81.8815 65.3998 82.658C65.252 82.8296 65.2708 83.0891 65.4425 83.2374C65.5197 83.3039 65.6149 83.3367 65.7102 83.3367Z" fill="#263238"/>
<g opacity="0.4">
<path d="M65.7102 83.3367C65.8256 83.3367 65.9402 83.2883 66.0215 83.1943C66.8176 82.2712 67.2747 80.9658 67.2747 79.6128C67.2747 76.9085 65.4946 74.708 63.3073 74.708C61.6952 74.708 60.2555 75.8955 59.6404 77.733C59.5686 77.9478 59.6844 78.1806 59.8995 78.2529C60.1147 78.3243 60.3475 78.2089 60.4194 77.9938C60.9208 76.4967 62.0541 75.5292 63.3073 75.5292C65.0421 75.5292 66.4534 77.361 66.4534 79.6128C66.4534 80.772 66.0691 81.8815 65.3998 82.658C65.252 82.8296 65.2708 83.0891 65.4425 83.2374C65.5197 83.3039 65.6149 83.3367 65.7102 83.3367Z" fill="white"/>
</g>
<path d="M56.6816 82.923C56.6816 83.6938 57.197 84.3187 57.833 84.3187C58.4691 84.3187 58.9844 83.6938 58.9844 82.923C58.9844 82.1523 58.4691 81.5273 57.833 81.5273C57.197 81.5273 56.6816 82.1523 56.6816 82.923Z" fill="#263238"/>
<path d="M57.9036 83.3367C58.0189 83.3367 58.1335 83.2883 58.2148 83.1943C59.011 82.2712 59.468 80.9658 59.468 79.6128C59.468 76.9085 57.688 74.708 55.5006 74.708C53.8885 74.708 52.4489 75.8955 51.8338 77.733C51.7619 77.9478 51.8777 78.1806 52.0929 78.2529C52.3081 78.3243 52.5409 78.2089 52.6127 77.9938C53.1141 76.4967 54.2478 75.5292 55.5006 75.5292C57.2355 75.5292 58.6468 77.361 58.6468 79.6128C58.6468 80.772 58.2624 81.8815 57.5931 82.658C57.4453 82.8296 57.4642 83.0891 57.6358 83.2374C57.713 83.3039 57.8083 83.3367 57.9036 83.3367Z" fill="#263238"/>
<g opacity="0.4">
<path d="M57.9036 83.3367C58.0189 83.3367 58.1335 83.2883 58.2148 83.1943C59.011 82.2712 59.468 80.9658 59.468 79.6128C59.468 76.9085 57.688 74.708 55.5006 74.708C53.8885 74.708 52.4489 75.8955 51.8338 77.733C51.7619 77.9478 51.8777 78.1806 52.0929 78.2529C52.3081 78.3243 52.5409 78.2089 52.6127 77.9938C53.1141 76.4967 54.2478 75.5292 55.5006 75.5292C57.2355 75.5292 58.6468 77.361 58.6468 79.6128C58.6468 80.772 58.2624 81.8815 57.5931 82.658C57.4453 82.8296 57.4642 83.0891 57.6358 83.2374C57.713 83.3039 57.8083 83.3367 57.9036 83.3367Z" fill="white"/>
</g>
<path d="M48.875 82.923C48.875 83.6938 49.3907 84.3187 50.0264 84.3187C50.6624 84.3187 51.1777 83.6938 51.1777 82.923C51.1777 82.1523 50.662 81.5273 50.0264 81.5273C49.3903 81.5273 48.875 82.1523 48.875 82.923Z" fill="#263238"/>
<path d="M50.0969 83.3367C50.2123 83.3367 50.3269 83.2883 50.4082 83.1943C51.2048 82.2712 51.6614 80.9658 51.6614 79.6128C51.6614 76.9085 49.8813 74.708 47.694 74.708C46.0819 74.708 44.6423 75.8955 44.0272 77.733C43.9553 77.9478 44.0711 78.1806 44.2863 78.2529C44.5014 78.3243 44.7342 78.2089 44.8061 77.9938C45.3075 76.4967 46.4408 75.5292 47.694 75.5292C49.4288 75.5292 50.8401 77.361 50.8401 79.6128C50.8401 80.772 50.4558 81.8815 49.7865 82.658C49.6387 82.8296 49.6576 83.0891 49.8292 83.2374C49.9064 83.3039 50.0017 83.3367 50.0969 83.3367Z" fill="#263238"/>
<g opacity="0.4">
<path d="M50.0969 83.3367C50.2123 83.3367 50.3269 83.2883 50.4082 83.1943C51.2048 82.2712 51.6614 80.9658 51.6614 79.6128C51.6614 76.9085 49.8813 74.708 47.694 74.708C46.0819 74.708 44.6423 75.8955 44.0272 77.733C43.9553 77.9478 44.0711 78.1806 44.2863 78.2529C44.5014 78.3243 44.7342 78.2089 44.8061 77.9938C45.3075 76.4967 46.4408 75.5292 47.694 75.5292C49.4288 75.5292 50.8401 77.361 50.8401 79.6128C50.8401 80.772 50.4558 81.8815 49.7865 82.658C49.6387 82.8296 49.6576 83.0891 49.8292 83.2374C49.9064 83.3039 50.0017 83.3367 50.0969 83.3367Z" fill="white"/>
</g>
<path d="M41.0684 82.923C41.0684 83.6938 41.5841 84.3187 42.2197 84.3187C42.8558 84.3187 43.3711 83.6938 43.3711 82.923C43.3711 82.1523 42.8554 81.5273 42.2197 81.5273C41.5837 81.5273 41.0684 82.1523 41.0684 82.923Z" fill="#263238"/>
<path d="M42.2903 83.3367C42.4057 83.3367 42.5202 83.2883 42.6015 83.1943C43.3977 82.2712 43.8547 80.9658 43.8547 79.6128C43.8547 76.9085 42.0751 74.708 39.8873 74.708C38.2753 74.708 36.8356 75.8955 36.2205 77.733C36.1487 77.9478 36.2645 78.1806 36.4796 78.2529C36.6948 78.3243 36.9276 78.2089 36.9995 77.9938C37.5008 76.4967 38.6341 75.5292 39.8873 75.5292C41.6222 75.5292 43.0335 77.361 43.0335 79.6128C43.0335 80.772 42.6492 81.8815 41.9799 82.658C41.832 82.8296 41.8509 83.0891 42.0226 83.2374C42.0998 83.3039 42.195 83.3367 42.2903 83.3367Z" fill="#263238"/>
<g opacity="0.4">
<path d="M42.2903 83.3367C42.4057 83.3367 42.5202 83.2883 42.6015 83.1943C43.3977 82.2712 43.8547 80.9658 43.8547 79.6128C43.8547 76.9085 42.0751 74.708 39.8873 74.708C38.2753 74.708 36.8356 75.8955 36.2205 77.733C36.1487 77.9478 36.2645 78.1806 36.4796 78.2529C36.6948 78.3243 36.9276 78.2089 36.9995 77.9938C37.5008 76.4967 38.6341 75.5292 39.8873 75.5292C41.6222 75.5292 43.0335 77.361 43.0335 79.6128C43.0335 80.772 42.6492 81.8815 41.9799 82.658C41.832 82.8296 41.8509 83.0891 42.0226 83.2374C42.0998 83.3039 42.195 83.3367 42.2903 83.3367Z" fill="white"/>
</g>
<path d="M48.0098 110.824H44.5684V116.692H48.0098V110.824Z" fill="#0085F9"/>
<path d="M53.5859 106.555H50.1445V116.692H53.5859V106.555Z" fill="#0085F9"/>
<path d="M59.1601 108.156H55.7188V116.692H59.1601V108.156Z" fill="#0085F9"/>
<path d="M64.7363 103.886H61.2949V116.692H64.7363V103.886Z" fill="#0085F9"/>
<path d="M70.3101 99.6162H66.8691V116.692H70.3101V99.6162Z" fill="#0085F9"/>
<path opacity="0.5" d="M48.0098 110.824H44.5684V116.692H48.0098V110.824Z" fill="white"/>
<path opacity="0.5" d="M53.5859 106.555H50.1445V116.692H53.5859V106.555Z" fill="white"/>
<path opacity="0.5" d="M59.1601 108.156H55.7188V116.692H59.1601V108.156Z" fill="white"/>
<path opacity="0.5" d="M64.7363 103.886H61.2949V116.692H64.7363V103.886Z" fill="white"/>
<path opacity="0.5" d="M70.3101 99.6162H66.8691V116.692H70.3101V99.6162Z" fill="white"/>
<path d="M74.8982 115.88H39.8438V117.504H74.8982V115.88Z" fill="#263238"/>
<path d="M40.9453 111.555L51.8653 102.865L57.4398 106.101L72.7879 93.0176" stroke="#0085F9" stroke-width="1.21851" stroke-miterlimit="10"/>
<path d="M73.6823 92.2627L71.3984 92.6166L73.0076 94.3351L73.6823 92.2627Z" fill="#0085F9"/>
<g opacity="0.3">
<path d="M59.723 122.782H39.8852C39.6586 122.782 39.4746 122.599 39.4746 122.372C39.4746 122.144 39.6586 121.961 39.8852 121.961H59.723C59.9497 121.961 60.1336 122.144 60.1336 122.372C60.1336 122.599 59.9497 122.782 59.723 122.782Z" fill="black"/>
</g>
<g opacity="0.3">
<path d="M75.0425 126.452H42.7153C42.4886 126.452 42.3047 126.269 42.3047 126.041C42.3047 125.814 42.4886 125.631 42.7153 125.631H75.0425C75.2691 125.631 75.4531 125.814 75.4531 126.041C75.4531 126.269 75.2691 126.452 75.0425 126.452Z" fill="black"/>
<path d="M75.0888 128.51H39.8852C39.6586 128.51 39.4746 128.326 39.4746 128.099C39.4746 127.872 39.6586 127.688 39.8852 127.688H75.0883C75.315 127.688 75.499 127.872 75.499 128.099C75.4994 128.326 75.3154 128.51 75.0888 128.51Z" fill="black"/>
<path d="M75.1333 130.567H39.9301C39.7035 130.567 39.5195 130.384 39.5195 130.157C39.5195 129.93 39.7035 129.746 39.9301 129.746H75.1333C75.3599 129.746 75.5439 129.93 75.5439 130.157C75.5439 130.384 75.3599 130.567 75.1333 130.567Z" fill="black"/>
<path d="M69.4267 132.625H39.9751C39.7484 132.625 39.5645 132.441 39.5645 132.214C39.5645 131.987 39.7484 131.804 39.9751 131.804H69.4263C69.6529 131.804 69.8369 131.987 69.8369 132.214C69.8373 132.441 69.6533 132.625 69.4267 132.625Z" fill="black"/>
</g>
<g opacity="0.3">
<path d="M75.0425 136.313H42.7153C42.4886 136.313 42.3047 136.13 42.3047 135.903C42.3047 135.676 42.4886 135.492 42.7153 135.492H75.0425C75.2691 135.492 75.4531 135.676 75.4531 135.903C75.4531 136.129 75.2691 136.313 75.0425 136.313Z" fill="black"/>
<path d="M75.0888 138.371H39.8852C39.6586 138.371 39.4746 138.187 39.4746 137.96C39.4746 137.733 39.6586 137.55 39.8852 137.55H75.0883C75.315 137.55 75.499 137.733 75.499 137.96C75.4994 138.187 75.3154 138.371 75.0888 138.371Z" fill="black"/>
<path d="M75.1333 140.429H39.9301C39.7035 140.429 39.5195 140.245 39.5195 140.018C39.5195 139.791 39.7035 139.607 39.9301 139.607H75.1333C75.3599 139.607 75.5439 139.791 75.5439 140.018C75.5439 140.245 75.3599 140.429 75.1333 140.429Z" fill="black"/>
<path d="M69.4267 142.486H39.9751C39.7484 142.486 39.5645 142.303 39.5645 142.076C39.5645 141.849 39.7484 141.665 39.9751 141.665H69.4263C69.6529 141.665 69.8369 141.849 69.8369 142.076C69.8373 142.302 69.6533 142.486 69.4267 142.486Z" fill="black"/>
</g>
<g opacity="0.3">
<path d="M59.723 88.6796H39.8852C39.6586 88.6796 39.4746 88.4961 39.4746 88.269C39.4746 88.0419 39.6586 87.8584 39.8852 87.8584H59.723C59.9497 87.8584 60.1336 88.0419 60.1336 88.269C60.1336 88.4957 59.9497 88.6796 59.723 88.6796Z" fill="black"/>
</g>
<path d="M168.882 128.485H121.73C120.945 128.485 120.309 127.849 120.309 127.064V49.1702C120.309 48.3855 120.945 47.749 121.73 47.749H168.881C169.666 47.749 170.303 48.3851 170.303 49.1702V127.064C170.303 127.849 169.667 128.485 168.882 128.485Z" fill="#0085F9"/>
<path d="M158.788 50.2719H131.822V47.6272C131.822 47.481 131.941 47.3623 132.087 47.3623H158.523C158.669 47.3623 158.788 47.481 158.788 47.6272L158.788 50.2719Z" fill="#263238"/>
<path opacity="0.9" d="M168.325 50.2725H122.285V125.953H168.325V50.2725Z" fill="white"/>
<path d="M154.334 53.754H146.234L146.141 53.4707C146.023 53.1073 145.688 52.8634 145.308 52.8634C144.928 52.8634 144.593 53.1073 144.475 53.4707L144.383 53.7545H136.282C135.628 53.7545 135.096 53.2239 135.096 52.5719V49.5908C135.096 48.9387 135.628 48.4082 136.282 48.4082H154.333C154.985 48.4082 155.516 48.9387 155.516 49.5908V52.5719C155.516 53.2235 154.986 53.754 154.334 53.754ZM146.801 52.9328H154.334C154.533 52.9328 154.695 52.7706 154.695 52.5715V49.5904C154.695 49.3912 154.533 49.229 154.334 49.229H136.283C136.078 49.229 135.917 49.3879 135.917 49.5904V52.5715C135.917 52.7739 136.078 52.9328 136.283 52.9328H143.815C144.108 52.39 144.675 52.0418 145.308 52.0418C145.941 52.0418 146.508 52.39 146.801 52.9328Z" fill="#263238"/>
<g opacity="0.5">
<path d="M154.334 53.754H146.234L146.141 53.4707C146.023 53.1073 145.688 52.8634 145.308 52.8634C144.928 52.8634 144.593 53.1073 144.475 53.4707L144.383 53.7545H136.282C135.628 53.7545 135.096 53.2239 135.096 52.5719V49.5908C135.096 48.9387 135.628 48.4082 136.282 48.4082H154.333C154.985 48.4082 155.516 48.9387 155.516 49.5908V52.5719C155.516 53.2235 154.986 53.754 154.334 53.754ZM146.801 52.9328H154.334C154.533 52.9328 154.695 52.7706 154.695 52.5715V49.5904C154.695 49.3912 154.533 49.229 154.334 49.229H136.283C136.078 49.229 135.917 49.3879 135.917 49.5904V52.5715C135.917 52.7739 136.078 52.9328 136.283 52.9328H143.815C144.108 52.39 144.675 52.0418 145.308 52.0418C145.941 52.0418 146.508 52.39 146.801 52.9328Z" fill="white"/>
</g>
<path d="M153.062 49.7177H137.549C137.324 49.7177 137.143 49.5358 137.143 49.3116V48.3368C137.143 48.1126 137.324 47.9307 137.549 47.9307H153.062C153.286 47.9307 153.468 48.1126 153.468 48.3368V49.3116C153.468 49.5358 153.286 49.7177 153.062 49.7177Z" fill="#263238"/>
<path opacity="0.2" d="M153.062 49.7177H137.549C137.324 49.7177 137.143 49.5358 137.143 49.3116V48.3368C137.143 48.1126 137.324 47.9307 137.549 47.9307H153.062C153.286 47.9307 153.468 48.1126 153.468 48.3368V49.3116C153.468 49.5358 153.286 49.7177 153.062 49.7177Z" fill="white"/>
<path d="M164.729 113.694C165.837 108.998 162.929 104.292 158.233 103.183C153.537 102.075 148.832 104.983 147.723 109.679C146.614 114.375 149.522 119.081 154.218 120.189C158.914 121.298 163.62 118.39 164.729 113.694Z" fill="#0085F9"/>
<path opacity="0.3" d="M156.225 111.673H164.963C164.963 116.466 161.019 120.41 156.225 120.41C151.432 120.41 147.488 116.466 147.488 111.673C147.488 106.88 151.432 102.936 156.225 102.936C156.236 102.936 156.246 102.936 156.257 102.936L156.225 111.673Z" fill="white"/>
<path opacity="0.3" d="M156.225 111.673L160.94 119.028C159.533 119.93 157.897 120.41 156.225 120.41C151.432 120.41 147.488 116.466 147.488 111.673C147.488 106.88 151.432 102.936 156.225 102.936C156.236 102.936 156.246 102.936 156.256 102.936L156.225 111.673Z" fill="white"/>
<path opacity="0.3" d="M156.226 111.673L148.859 116.371C147.964 114.968 147.488 113.337 147.488 111.673C147.488 106.88 151.432 102.936 156.225 102.936C156.236 102.936 156.246 102.936 156.256 102.936L156.226 111.673Z" fill="white"/>
<g opacity="0.5">
<path d="M125.605 63.8232V84.4461H165.008V63.8232H125.605ZM164.7 67.0441H157.879V64.1312H164.7V67.0441ZM142.915 67.0441H135.896V64.1312H142.915V67.0441ZM143.223 64.1312H150.243V67.0441H143.223V64.1312ZM142.915 67.3521V84.1382H135.896V67.3521H142.915ZM143.223 67.3521H150.243V84.1382H143.223V67.3521ZM150.551 67.3521H157.571V84.1382H150.551V67.3521ZM150.551 67.0441V64.1312H157.571V67.0441H150.551ZM135.588 64.1312V67.0441H125.913V64.1312H135.588ZM125.913 67.3521H135.588V84.1382H125.913V67.3521ZM157.879 84.1382V67.3521H164.7V84.1382H157.879Z" fill="black"/>
<path d="M138.133 70.2333H140.976C141.203 70.2333 141.387 70.0494 141.387 69.8227C141.387 69.5961 141.203 69.4121 140.976 69.4121H138.133C137.907 69.4121 137.723 69.5961 137.723 69.8227C137.723 70.0498 137.906 70.2333 138.133 70.2333Z" fill="black"/>
<path d="M145.307 73.9599H148.392C148.619 73.9599 148.803 73.7764 148.803 73.5493C148.803 73.3222 148.619 73.1387 148.392 73.1387H145.307C145.08 73.1387 144.896 73.3222 144.896 73.5493C144.896 73.776 145.08 73.9599 145.307 73.9599Z" fill="black"/>
<path d="M148.529 80.5898H145.307C145.08 80.5898 144.896 80.7734 144.896 81.0005C144.896 81.2275 145.08 81.4111 145.307 81.4111H148.529C148.755 81.4111 148.939 81.2275 148.939 81.0005C148.939 80.7734 148.755 80.5898 148.529 80.5898Z" fill="black"/>
<path d="M155.671 76.8643H152.266C152.039 76.8643 151.855 77.0478 151.855 77.2749C151.855 77.5019 152.039 77.6855 152.266 77.6855H155.671C155.897 77.6855 156.081 77.5019 156.081 77.2749C156.081 77.0478 155.897 76.8643 155.671 76.8643Z" fill="black"/>
<path d="M163.014 69.4121H159.569C159.342 69.4121 159.158 69.5961 159.158 69.8227C159.158 70.0494 159.342 70.2333 159.569 70.2333H163.014C163.241 70.2333 163.425 70.0494 163.425 69.8227C163.425 69.5961 163.241 69.4121 163.014 69.4121Z" fill="black"/>
<path d="M162.574 80.5898H159.569C159.342 80.5898 159.158 80.7734 159.158 81.0005C159.158 81.2275 159.342 81.4111 159.569 81.4111H162.574C162.801 81.4111 162.985 81.2275 162.985 81.0005C162.985 80.7734 162.801 80.5898 162.574 80.5898Z" fill="black"/>
<path d="M138.133 77.6855H140.57C140.797 77.6855 140.98 77.5019 140.98 77.2749C140.98 77.0478 140.797 76.8643 140.57 76.8643H138.133C137.907 76.8643 137.723 77.0478 137.723 77.2749C137.723 77.5015 137.906 77.6855 138.133 77.6855Z" fill="black"/>
<path d="M140.974 80.5898H138.131C137.905 80.5898 137.721 80.7734 137.721 81.0005C137.721 81.2275 137.905 81.4111 138.131 81.4111H140.974C141.201 81.4111 141.385 81.2275 141.385 81.0005C141.385 80.7734 141.201 80.5898 140.974 80.5898Z" fill="black"/>
<path d="M127.395 70.2333H133.893C134.119 70.2333 134.303 70.0494 134.303 69.8227C134.303 69.5961 134.119 69.4121 133.893 69.4121H127.395C127.168 69.4121 126.984 69.5961 126.984 69.8227C126.984 70.0498 127.168 70.2333 127.395 70.2333Z" fill="black"/>
<path d="M127.395 73.9599H131.721C131.948 73.9599 132.132 73.7764 132.132 73.5493C132.132 73.3222 131.948 73.1387 131.721 73.1387H127.395C127.168 73.1387 126.984 73.3222 126.984 73.5493C126.984 73.776 127.168 73.9599 127.395 73.9599Z" fill="black"/>
<path d="M133.893 76.8643H127.395C127.168 76.8643 126.984 77.0478 126.984 77.2749C126.984 77.5019 127.168 77.6855 127.395 77.6855H133.893C134.119 77.6855 134.303 77.5019 134.303 77.2749C134.303 77.0478 134.12 76.8643 133.893 76.8643Z" fill="black"/>
<path d="M130.644 80.5898H127.395C127.168 80.5898 126.984 80.7734 126.984 81.0005C126.984 81.2275 127.168 81.4111 127.395 81.4111H130.644C130.87 81.4111 131.054 81.2275 131.054 81.0005C131.054 80.7734 130.871 80.5898 130.644 80.5898Z" fill="black"/>
</g>
<g opacity="0.5">
<path d="M141.39 59.4999H126.016C125.789 59.4999 125.605 59.316 125.605 59.0893C125.605 58.8627 125.789 58.6787 126.016 58.6787H141.39C141.617 58.6787 141.801 58.8627 141.801 59.0893C141.801 59.3164 141.617 59.4999 141.39 59.4999Z" fill="black"/>
</g>
<g opacity="0.5">
<path d="M135.998 61.8056H126.016C125.789 61.8056 125.605 61.6217 125.605 61.395C125.605 61.1683 125.789 60.9844 126.016 60.9844H135.998C136.225 60.9844 136.409 61.1683 136.409 61.395C136.409 61.6217 136.225 61.8056 135.998 61.8056Z" fill="black"/>
</g>
<g opacity="0.5">
<path d="M145.853 88.0078H126.016C125.789 88.0078 125.605 87.8242 125.605 87.5971C125.605 87.3701 125.789 87.1865 126.016 87.1865H145.853C146.08 87.1865 146.264 87.3701 146.264 87.5971C146.264 87.8242 146.081 88.0078 145.853 88.0078Z" fill="black"/>
</g>
<path d="M128.056 104.284H125.605V106.735H128.056V104.284Z" fill="#0085F9"/>
<g opacity="0.5">
<path d="M142.003 105.92H129.838C129.612 105.92 129.428 105.736 129.428 105.509C129.428 105.282 129.612 105.099 129.838 105.099H142.003C142.23 105.099 142.414 105.282 142.414 105.509C142.414 105.736 142.23 105.92 142.003 105.92Z" fill="black"/>
</g>
<path d="M128.056 108.394H125.605V110.844H128.056V108.394Z" fill="#0085F9"/>
<g opacity="0.5">
<path d="M142.003 110.029H129.838C129.612 110.029 129.428 109.846 129.428 109.619C129.428 109.392 129.612 109.208 129.838 109.208H142.003C142.23 109.208 142.414 109.392 142.414 109.619C142.414 109.845 142.23 110.029 142.003 110.029Z" fill="black"/>
</g>
<path d="M128.056 112.502H125.605V114.953H128.056V112.502Z" fill="#0085F9"/>
<g opacity="0.5">
<path d="M142.003 114.138H129.838C129.612 114.138 129.428 113.954 129.428 113.727C129.428 113.5 129.612 113.316 129.838 113.316H142.003C142.23 113.316 142.414 113.5 142.414 113.727C142.414 113.954 142.23 114.138 142.003 114.138Z" fill="black"/>
</g>
<path d="M128.056 116.61H125.605V119.061H128.056V116.61Z" fill="#0085F9"/>
<g opacity="0.5">
<path d="M142.003 118.246H129.838C129.612 118.246 129.428 118.062 129.428 117.835C129.428 117.608 129.612 117.425 129.838 117.425H142.003C142.23 117.425 142.414 117.608 142.414 117.835C142.414 118.062 142.23 118.246 142.003 118.246Z" fill="black"/>
</g>
<g opacity="0.5">
<path d="M164.46 91.6777H128.846C128.62 91.6777 128.436 91.4941 128.436 91.2671C128.436 91.04 128.62 90.8564 128.846 90.8564H164.46C164.687 90.8564 164.871 91.04 164.871 91.2671C164.871 91.4941 164.687 91.6777 164.46 91.6777Z" fill="black"/>
<path d="M164.506 93.7353H126.016C125.789 93.7353 125.605 93.5518 125.605 93.3247C125.605 93.0976 125.789 92.9141 126.016 92.9141H164.506C164.733 92.9141 164.917 93.0976 164.917 93.3247C164.917 93.5513 164.733 93.7353 164.506 93.7353Z" fill="black"/>
<path d="M164.551 95.7929H126.061C125.834 95.7929 125.65 95.6094 125.65 95.3823C125.65 95.1552 125.834 94.9717 126.061 94.9717H164.551C164.778 94.9717 164.962 95.1552 164.962 95.3823C164.962 95.6094 164.778 95.7929 164.551 95.7929Z" fill="black"/>
<path d="M158.844 97.8505H126.106C125.879 97.8505 125.695 97.667 125.695 97.4399C125.695 97.2128 125.879 97.0293 126.106 97.0293H158.844C159.071 97.0293 159.255 97.2128 159.255 97.4399C159.255 97.667 159.071 97.8505 158.844 97.8505Z" fill="black"/>
</g>
<path opacity="0.3" d="M128.056 108.393H125.605V110.843H128.056V108.393Z" fill="white"/>
<path opacity="0.5" d="M128.056 112.502H125.605V114.953H128.056V112.502Z" fill="white"/>
<path opacity="0.7" d="M128.056 116.61H125.605V119.061H128.056V116.61Z" fill="white"/>
<path d="M167.637 138.913C167.637 138.913 165.686 134.657 167.915 130.462C170.143 126.267 170.79 125.278 169.369 124.419C167.948 123.56 167.297 127.775 167.297 127.775C167.297 127.775 166.099 124.875 167.088 121.84C168.077 118.805 168.697 113.861 167.346 113.331C165.996 112.801 167.088 119.498 165.917 121.781C165.917 121.781 164.933 119.24 164.771 116.802C164.609 114.364 164.862 110.471 163.796 109.473C162.729 108.474 162.046 109.165 163.094 114.545C164.142 119.925 164.134 124.298 164.134 124.298C164.134 124.298 161.819 117.241 160.266 117.035C158.713 116.829 158.715 119.115 160.044 121.097C161.374 123.079 163.938 126.63 164.359 128.457C164.359 128.457 161.818 123.147 159.533 124.774C157.247 126.402 161.522 129.61 163.427 130.769C165.332 131.928 166.655 139.194 166.655 139.194L167.637 138.913Z" fill="#0085F9"/>
<path opacity="0.2" d="M167.637 138.913C167.637 138.913 165.686 134.657 167.915 130.462C170.143 126.267 170.79 125.278 169.369 124.419C167.948 123.56 167.297 127.775 167.297 127.775C167.297 127.775 166.099 124.875 167.088 121.84C168.077 118.805 168.697 113.861 167.346 113.331C165.996 112.801 167.088 119.498 165.917 121.781C165.917 121.781 164.933 119.24 164.771 116.802C164.609 114.364 164.862 110.471 163.796 109.473C162.729 108.474 162.046 109.165 163.094 114.545C164.142 119.925 164.134 124.298 164.134 124.298C164.134 124.298 161.819 117.241 160.266 117.035C158.713 116.829 158.715 119.115 160.044 121.097C161.374 123.079 163.938 126.63 164.359 128.457C164.359 128.457 161.818 123.147 159.533 124.774C157.247 126.402 161.522 129.61 163.427 130.769C165.332 131.928 166.655 139.194 166.655 139.194L167.637 138.913Z" fill="black"/>
<path d="M166.097 140.659C166.097 140.659 167.996 136.375 165.717 132.213C163.439 128.051 162.781 127.073 164.191 126.192C165.601 125.311 166.304 129.517 166.304 129.517C166.304 129.517 167.466 126.599 166.441 123.579C165.416 120.559 164.737 115.625 166.081 115.075C167.425 114.524 166.413 121.237 167.612 123.503C167.612 123.503 168.565 120.947 168.698 118.507C168.83 116.067 168.53 112.178 169.585 111.163C170.639 110.149 171.33 110.83 170.347 116.225C169.364 121.62 169.424 125.993 169.424 125.993C169.424 125.993 171.654 118.902 173.205 118.672C174.756 118.443 174.781 120.729 173.476 122.731C172.17 124.732 169.648 128.322 169.249 130.155C169.249 130.155 171.726 124.807 174.031 126.4C176.336 127.994 172.1 131.265 170.209 132.452C168.317 133.64 167.082 140.925 167.082 140.925L166.097 140.659Z" fill="#0085F9"/>
<path d="M174.856 137.604H159.166L160.436 148.832H173.587L174.856 137.604Z" fill="#263238"/>
<path d="M80.1113 41.3145H91.9075C93.9134 41.3145 95.5398 42.9409 95.5398 44.9468V55.2131C95.5398 57.2189 93.9134 58.8454 91.9075 58.8454H88.4632L89.707 63.3195L86.0201 58.8454H80.1108C78.105 58.8454 76.4785 57.2193 76.4785 55.2131V44.9468C76.4789 42.9405 78.1054 41.3145 80.1113 41.3145Z" fill="#0085F9"/>
<path opacity="0.7" d="M80.1113 41.3145H91.9075C93.9134 41.3145 95.5398 42.9409 95.5398 44.9468V55.2131C95.5398 57.2189 93.9134 58.8454 91.9075 58.8454H88.4632L89.707 63.3195L86.0201 58.8454H80.1108C78.105 58.8454 76.4785 57.2193 76.4785 55.2131V44.9468C76.4789 42.9405 78.1054 41.3145 80.1113 41.3145Z" fill="white"/>
<path opacity="0.7" d="M84.2286 52.3156C86.2587 52.3156 87.9044 50.6698 87.9044 48.6397C87.9044 46.6096 86.2587 44.9639 84.2286 44.9639C82.1985 44.9639 80.5527 46.6096 80.5527 48.6397C80.5527 50.6698 82.1985 52.3156 84.2286 52.3156Z" fill="white"/>
<path d="M84.2286 52.3156C86.2587 52.3156 87.9044 50.6698 87.9044 48.6397C87.9044 46.6096 86.2587 44.9639 84.2286 44.9639C82.1985 44.9639 80.5527 46.6096 80.5527 48.6397C80.5527 50.6698 82.1985 52.3156 84.2286 52.3156Z" stroke="#0085F9" stroke-width="1.06625" stroke-miterlimit="10"/>
<path d="M86.8281 51.2393L91.0189 55.43" stroke="#0085F9" stroke-width="1.06625" stroke-miterlimit="10"/>
<path d="M88.2656 52.6768L91.4668 55.8775" stroke="#0085F9" stroke-width="1.59936" stroke-miterlimit="10" stroke-linecap="round" stroke-linejoin="round"/>
<path d="M84.7963 46.9792C84.7963 47.4276 84.4325 47.7914 83.9841 47.7914C83.5357 47.7914 83.1719 47.4276 83.1719 46.9792C83.1719 46.5308 83.5357 46.167 83.9841 46.167C84.4329 46.167 84.7963 46.5304 84.7963 46.9792Z" fill="white"/>
<path d="M86.0153 47.578C86.0153 47.8022 85.8334 47.9841 85.6092 47.9841C85.385 47.9841 85.2031 47.8022 85.2031 47.578C85.2031 47.3538 85.385 47.1719 85.6092 47.1719C85.8338 47.1719 86.0153 47.3538 86.0153 47.578Z" fill="white"/>
<path d="M118.922 116.825H57.7656V126.668H118.922V116.825Z" fill="#0085F9"/>
<path opacity="0.8" d="M118.922 116.825H57.7656V126.668H118.922V116.825Z" fill="white"/>
<path opacity="0.2" d="M118.922 119.427V118.625L77.0488 118.961L118.922 119.427Z" fill="black"/>
<path opacity="0.2" d="M118.923 122.877V122.259L100.125 122.931L118.923 122.877Z" fill="black"/>
<path opacity="0.2" d="M118.921 125.183V124.385L88.6133 124.847L118.921 125.183Z" fill="black"/>
<path opacity="0.2" d="M71.4373 116.825L70.5508 124.163L71.5966 123.046C72.0803 125.114 73.5212 126.668 73.5212 126.668C73.5212 126.668 74.4935 125.459 75.0647 123.845L103.625 123.517L75.3328 122.899C75.4174 122.503 75.4716 122.095 75.4716 121.683C75.4716 121.333 75.433 120.991 75.371 120.659L117.281 120.553L75.2741 120.224C75.1214 119.639 74.8955 119.098 74.657 118.629C75.2462 118.099 76.021 117.788 76.846 117.788H118.922V116.826L71.4373 116.825Z" fill="black"/>
<path d="M72.3821 121.688C72.3838 122.916 72.881 124.027 73.6866 124.833C74.4935 125.64 75.6067 126.137 76.8369 126.137H119.629C119.81 126.137 119.957 126.284 119.957 126.465V126.818C119.957 126.999 119.81 127.146 119.629 127.146H56.4185C54.9124 127.146 53.5438 126.534 52.5554 125.546C51.558 124.548 50.9441 123.167 50.9552 121.641C50.9774 118.617 53.5343 116.219 56.5589 116.219H119.629C119.81 116.219 119.957 116.366 119.957 116.547V116.899C119.957 117.08 119.81 117.227 119.629 117.227H76.9683C74.514 117.228 72.3792 119.234 72.3821 121.688Z" fill="#0085F9"/>
<path opacity="0.4" d="M72.3821 121.688C72.3838 122.916 72.881 124.027 73.6866 124.833C74.4935 125.64 75.6067 126.137 76.8369 126.137H119.629C119.81 126.137 119.957 126.284 119.957 126.465V126.818C119.957 126.999 119.81 127.146 119.629 127.146H56.4185C54.9124 127.146 53.5438 126.534 52.5554 125.546C51.558 124.548 50.9441 123.167 50.9552 121.641C50.9774 118.617 53.5343 116.219 56.5589 116.219H119.629C119.81 116.219 119.957 116.366 119.957 116.547V116.899C119.957 117.08 119.81 117.227 119.629 117.227H76.9683C74.514 117.228 72.3792 119.234 72.3821 121.688Z" fill="white"/>
<path d="M72.3807 121.688C72.3824 122.916 72.8796 124.027 73.6853 124.833C74.4921 125.64 75.6053 126.137 76.8355 126.137H119.627C119.808 126.137 119.955 126.284 119.955 126.465V126.818C119.955 126.999 119.808 127.146 119.627 127.146H76.5904C75.0842 127.146 73.7156 126.534 72.7273 125.546C71.7299 124.548 71.116 123.167 71.1271 121.641C71.1493 118.617 73.7062 116.219 76.7308 116.219H119.627C119.808 116.219 119.955 116.366 119.955 116.547V116.899C119.955 117.08 119.808 117.227 119.627 117.227H76.9669C74.5126 117.228 72.3778 119.234 72.3807 121.688Z" fill="#0085F9"/>
<path d="M80.4414 119.037V122.983L81.8695 121.555L83.2537 122.939V119.037H80.4414Z" fill="#263238"/>
<path opacity="0.6" d="M72.3807 121.688C72.3824 122.916 72.8796 124.027 73.6853 124.833C74.4921 125.64 75.6053 126.137 76.8355 126.137H119.627C119.808 126.137 119.955 126.284 119.955 126.465V126.818C119.955 126.999 119.808 127.146 119.627 127.146H76.5904C75.0842 127.146 73.7156 126.534 72.7273 125.546C71.7299 124.548 71.116 123.167 71.1271 121.641C71.1493 118.617 73.7062 116.219 76.7308 116.219H119.627C119.808 116.219 119.955 116.366 119.955 116.547V116.899C119.955 117.08 119.808 117.227 119.627 117.227H76.9669C74.5126 117.228 72.3778 119.234 72.3807 121.688Z" fill="white"/>
<path d="M121.875 138.511H60.7188V148.353H121.875V138.511Z" fill="#0085F9"/>
<path opacity="0.7" d="M121.875 138.511H60.7188V148.353H121.875V138.511Z" fill="white"/>
<path opacity="0.2" d="M121.875 141.112V140.31L80.002 140.646L121.875 141.112Z" fill="black"/>
<path opacity="0.2" d="M121.875 144.563V143.944L103.078 144.617L121.875 144.563Z" fill="black"/>
<path opacity="0.2" d="M121.874 146.868V146.07L91.5664 146.532L121.874 146.868Z" fill="black"/>
<path opacity="0.2" d="M74.3904 138.511L73.5039 145.848L74.5497 144.732C75.0335 146.799 76.4743 148.353 76.4743 148.353C76.4743 148.353 77.4463 147.144 78.0178 145.53L106.578 145.202L78.286 144.584C78.3706 144.188 78.4248 143.781 78.4248 143.368C78.4248 143.019 78.3862 142.676 78.3242 142.344L120.234 142.238L78.2272 141.909C78.0745 141.324 77.8487 140.783 77.6101 140.314C78.1993 139.784 78.9742 139.473 79.7991 139.473H121.874V138.511H74.3904Z" fill="black"/>
<path d="M75.336 143.374C75.3377 144.602 75.8349 145.713 76.6406 146.518C77.4474 147.325 78.5606 147.823 79.7908 147.823H122.583C122.764 147.823 122.911 147.97 122.911 148.151V148.503C122.911 148.684 122.764 148.831 122.583 148.831H56.0103C54.5042 148.831 53.1356 148.219 52.1472 147.231C51.1498 146.234 50.5359 144.853 50.547 143.327C50.5692 140.302 53.1261 137.904 56.1507 137.904H122.583C122.764 137.904 122.911 138.051 122.911 138.232V138.585C122.911 138.766 122.764 138.913 122.583 138.913H79.9218C77.468 138.913 75.3328 140.919 75.336 143.374Z" fill="#263238"/>
<path opacity="0.2" d="M75.336 143.374C75.3377 144.602 75.8349 145.713 76.6406 146.518C77.4474 147.325 78.5606 147.823 79.7908 147.823H122.583C122.764 147.823 122.911 147.97 122.911 148.151V148.503C122.911 148.684 122.764 148.831 122.583 148.831H56.0103C54.5042 148.831 53.1356 148.219 52.1472 147.231C51.1498 146.234 50.5359 144.853 50.547 143.327C50.5692 140.302 53.1261 137.904 56.1507 137.904H122.583C122.764 137.904 122.911 138.051 122.911 138.232V138.585C122.911 138.766 122.764 138.913 122.583 138.913H79.9218C77.468 138.913 75.3328 140.919 75.336 143.374Z" fill="white"/>
<path d="M75.3362 143.374C75.3378 144.602 75.8351 145.713 76.6407 146.518C77.4476 147.325 78.5608 147.823 79.791 147.823H122.583C122.764 147.823 122.911 147.97 122.911 148.151V148.503C122.911 148.684 122.764 148.831 122.583 148.831H79.5455C78.0393 148.831 76.6707 148.219 75.6824 147.231C74.685 146.234 74.0711 144.853 74.0822 143.327C74.1044 140.302 76.6613 137.904 79.6859 137.904H122.583C122.764 137.904 122.911 138.051 122.911 138.232V138.585C122.911 138.766 122.764 138.913 122.583 138.913H79.922C77.4681 138.913 75.3329 140.919 75.3362 143.374Z" fill="#263238"/>
<path d="M80.002 142.124V146.07L81.4305 144.642L82.8147 146.026V142.124H80.002Z" fill="#0085F9"/>
<path opacity="0.4" d="M75.3362 143.374C75.3378 144.602 75.8351 145.713 76.6407 146.518C77.4476 147.325 78.5608 147.823 79.791 147.823H122.583C122.764 147.823 122.911 147.97 122.911 148.151V148.503C122.911 148.684 122.764 148.831 122.583 148.831H79.5455C78.0393 148.831 76.6707 148.219 75.6824 147.231C74.685 146.234 74.0711 144.853 74.0822 143.327C74.1044 140.302 76.6613 137.904 79.6859 137.904H122.583C122.764 137.904 122.911 138.051 122.911 138.232V138.585C122.911 138.766 122.764 138.913 122.583 138.913H79.922C77.4681 138.913 75.3329 140.919 75.3362 143.374Z" fill="white"/>
<path d="M55.2154 137.496H77.875V127.668H55.2154V137.496Z" fill="#0085F9"/>
<path opacity="0.8" d="M55.2154 137.496H77.875V127.668H55.2154V137.496Z" fill="white"/>
<path opacity="0.2" d="M76.0566 128.63H55.2148V127.668H76.0344L76.0566 128.63Z" fill="black"/>
<path opacity="0.2" d="M76.0565 129.468L57.2539 129.869L76.0565 130.27V129.468Z" fill="black"/>
<path opacity="0.2" d="M76.0558 133.102L56.1445 133.438L76.0558 133.72V133.102Z" fill="black"/>
<path opacity="0.2" d="M76.0562 135.228L56.3223 135.627L76.0562 136.026V135.228Z" fill="black"/>
<path opacity="0.2" d="M55.2148 130.868L74.3053 131.445L55.2148 131.844V130.868Z" fill="black"/>
<path d="M105.787 132.531C105.785 133.759 105.288 134.87 104.483 135.675C103.676 136.482 102.562 136.98 101.332 136.98H54.1699C53.9888 136.98 53.8418 137.127 53.8418 137.308V137.66C53.8418 137.841 53.9888 137.988 54.1699 137.988H101.578C103.084 137.988 104.453 137.377 105.441 136.388C106.438 135.391 107.052 134.01 107.041 132.484C107.019 129.46 104.462 127.062 101.437 127.062H54.1699C53.9888 127.062 53.8418 127.209 53.8418 127.39V127.742C53.8418 127.923 53.9888 128.07 54.1699 128.07H101.201C103.656 128.07 105.79 130.077 105.787 132.531Z" fill="#263238"/>
<path opacity="0.4" d="M105.787 132.531C105.785 133.759 105.288 134.87 104.483 135.675C103.676 136.482 102.562 136.98 101.332 136.98H54.1699C53.9888 136.98 53.8418 137.127 53.8418 137.308V137.66C53.8418 137.841 53.9888 137.988 54.1699 137.988H101.578C103.084 137.988 104.453 137.377 105.441 136.388C106.438 135.391 107.052 134.01 107.041 132.484C107.019 129.46 104.462 127.062 101.437 127.062H54.1699C53.9888 127.062 53.8418 127.209 53.8418 127.39V127.742C53.8418 127.923 53.9888 128.07 54.1699 128.07H101.201C103.656 128.07 105.79 130.077 105.787 132.531Z" fill="white"/>
<path d="M122.988 132.589C122.988 135.307 120.784 137.51 118.066 137.51H76.0586V127.668H118.066C120.784 127.668 122.988 129.871 122.988 132.589Z" fill="#0085F9"/>
<path opacity="0.7" d="M76.0566 127.668V137.513H118.067C119.106 137.513 120.068 137.19 120.861 136.642C122.145 135.754 122.986 134.268 122.986 132.59C122.986 129.87 120.784 127.668 118.067 127.668H76.0566Z" fill="white"/>
<path opacity="0.2" d="M76.0586 130.269V129.467L117.931 129.803L76.0586 130.269Z" fill="black"/>
<path opacity="0.2" d="M76.0586 133.719V133.101L94.8563 133.773L76.0586 133.719Z" fill="black"/>
<path opacity="0.2" d="M76.0586 136.026V135.228L106.367 135.689L76.0586 136.026Z" fill="black"/>
<path opacity="0.2" d="M118.135 128.629C118.959 128.629 119.732 128.942 120.324 129.47C120.085 129.94 119.86 130.482 119.705 131.066L77.6979 131.396L119.607 131.5C119.546 131.833 119.506 132.176 119.506 132.525C119.506 132.939 119.56 133.346 119.647 133.739L91.3546 134.358L119.913 134.687C120.185 135.461 120.552 136.143 120.861 136.641C122.145 135.753 122.986 134.267 122.986 132.589C122.986 129.869 120.784 127.667 118.067 127.667H76.0566V128.629L118.135 128.629Z" fill="black"/>
<path d="M122.598 132.531C122.596 133.759 122.099 134.87 121.294 135.675C120.487 136.482 119.374 136.98 118.143 136.98H75.3515C75.1704 136.98 75.0234 137.127 75.0234 137.308V137.66C75.0234 137.841 75.1704 137.988 75.3515 137.988H118.389C119.895 137.988 121.264 137.377 122.252 136.388C123.249 135.391 123.863 134.01 123.852 132.484C123.83 129.46 121.273 127.062 118.248 127.062H75.3515C75.1704 127.062 75.0234 127.209 75.0234 127.39V127.742C75.0234 127.923 75.1704 128.07 75.3515 128.07H118.012C120.466 128.07 122.601 130.077 122.598 132.531Z" fill="#263238"/>
<path d="M117.931 131.281V135.227L116.503 133.799L115.119 135.183V131.281H117.931Z" fill="#0085F9"/>
<path d="M129.029 75.8166L128.002 75.8359C127.615 75.8433 127.256 76.0367 127.038 76.3558L126.017 77.8455C125.609 78.4413 125.515 79.1976 125.764 79.8752L125.919 80.2948C127.625 80.3794 129.531 79.2137 129.531 79.2137L130.111 78.9414C130.627 78.6992 130.85 78.1247 130.623 77.6225L130.099 76.4658C129.918 76.0663 129.492 75.808 129.029 75.8166Z" fill="#EEC1BB"/>
<path d="M109.552 77.6452L110.537 78.4364C110.878 78.7058 111.228 78.9682 111.58 79.226C112.282 79.7451 112.999 80.2398 113.721 80.7174C114.446 81.1917 115.184 81.6257 115.927 82.0359C116.675 82.4334 117.427 82.7849 118.186 83.0854L117.795 83.0033C117.777 83.0259 118.014 83.0243 118.29 82.9491C118.571 82.8764 118.901 82.7512 119.235 82.5939C119.908 82.274 120.616 81.87 121.308 81.4216C122.006 80.9773 122.7 80.4957 123.391 79.9996C124.087 79.5139 124.777 78.9829 125.449 78.4824L125.475 78.4635C125.936 78.1202 126.589 78.2159 126.932 78.6774C127.216 79.0581 127.199 79.5693 126.926 79.9294C126.365 80.6669 125.778 81.3305 125.166 82.0039C124.55 82.6666 123.9 83.3047 123.209 83.9206C122.509 84.5275 121.778 85.1233 120.923 85.6539C120.493 85.9187 120.031 86.1712 119.489 86.3893C118.942 86.5983 118.309 86.8011 117.415 86.7518C117.323 86.7469 117.233 86.7313 117.148 86.7067L117.025 86.6697C116.035 86.377 115.077 86.0271 114.169 85.6087C113.262 85.1911 112.382 84.7345 111.541 84.2294C110.697 83.7297 109.884 83.1905 109.095 82.6206C108.703 82.3324 108.316 82.0392 107.933 81.7357C107.541 81.4311 107.189 81.1329 106.782 80.7667C105.925 79.9968 105.854 78.6783 106.624 77.8213C107.367 76.9951 108.62 76.9003 109.476 77.5856L109.552 77.6452Z" fill="#EBC0BB"/>
<path d="M104.038 74.7242C103.078 77.3998 104.626 80.0639 108.348 83.1949C110.203 82.9214 112.701 79.1215 112.701 79.1215C112.701 79.1215 107.465 73.8833 104.038 74.7242Z" fill="#0085F9"/>
<path d="M107.239 58.0927C107.239 58.0927 103.572 54.3396 98.7945 59.0498C94.0173 63.76 93.084 79.3631 93.084 79.3631L105.557 81.787C105.557 81.787 107.171 79.9334 108 74.5921C108.829 69.2508 109.269 64.1431 110.321 62.9507C111.373 61.7583 107.239 58.0927 107.239 58.0927Z" fill="#263238"/>
<path d="M117.954 137.114L115.252 136.037L116.307 132.098L117.281 128.485L120.697 129.242L119.246 133.41L117.954 137.114Z" fill="#EEC1BB"/>
<path opacity="0.2" d="M119.212 133.493L116.277 132.172L117.266 128.522L120.689 129.26L119.212 133.493Z" fill="black"/>
<path d="M97.5078 101.63C97.5078 101.63 120.085 98.5855 126.366 102.592C132.648 106.599 120.49 131.007 120.49 131.007L116.688 130.167C116.688 130.167 119.537 110.821 119.324 110.01C119.111 109.199 108.477 114.479 93.9219 114.979L97.5078 101.63Z" fill="#263238"/>
<path opacity="0.2" d="M97.5078 101.63C97.5078 101.63 120.085 98.5855 126.366 102.592C132.648 106.599 120.49 131.007 120.49 131.007L116.688 130.167C116.688 130.167 119.537 110.821 119.324 110.01C119.111 109.199 108.477 114.479 93.9219 114.979L97.5078 101.63Z" fill="black"/>
<path d="M116.478 128.953L121.264 130.504L120.406 132.686L116.01 131.191L116.478 128.953Z" fill="#263238"/>
<path d="M118.904 136.629C118.904 136.629 119.844 135.406 120.433 135.961C121.11 136.6 118.904 136.629 118.904 136.629ZM118.904 136.629C118.904 136.629 120.75 136.694 120.708 137.325C120.645 138.28 118.904 136.629 118.904 136.629Z" stroke="#577AFA" stroke-width="0.19837" stroke-miterlimit="10" stroke-linecap="round" stroke-linejoin="round"/>
<path d="M114.747 134.356C114.853 134.053 118.522 135.51 118.522 135.51C118.522 135.51 120.065 138.604 122.133 139.859C124.201 141.114 122.513 142.05 120.01 141.237C117.507 140.424 115.597 139.802 113.819 139.224C112.041 138.646 113.644 137.493 114.747 134.356Z" fill="#2E353A"/>
<path opacity="0.4" d="M116.478 128.953L121.264 130.504L120.406 132.686L116.01 131.191L116.478 128.953Z" fill="white"/>
<path d="M129.736 144.928L126.937 145.716L125.379 141.948L123.955 138.488L127.126 137.011L128.51 141.202L129.736 144.928Z" fill="#EEC1BB"/>
<path d="M125.694 143.736C125.71 143.415 129.642 143.765 129.642 143.765C129.642 143.765 132.004 146.29 134.344 146.902C136.684 147.515 135.333 148.895 132.702 148.829C130.071 148.763 128.064 148.713 126.194 148.667C124.325 148.62 125.533 147.057 125.694 143.736Z" fill="#2E353A"/>
<path d="M130.117 144.193C130.117 144.193 130.668 142.752 131.391 143.117C132.223 143.536 130.117 144.193 130.117 144.193ZM130.117 144.193C130.117 144.193 131.904 143.728 132.045 144.345C132.257 145.279 130.117 144.193 130.117 144.193Z" stroke="#577AFA" stroke-width="0.19837" stroke-miterlimit="10" stroke-linecap="round" stroke-linejoin="round"/>
<path opacity="0.2" d="M128.535 141.288L125.401 142.024L123.967 138.526L127.132 137.029L128.535 141.288Z" fill="black"/>
<path d="M103.914 104.55C103.914 104.55 103.589 100.083 103.438 99.1712C103.284 98.2037 103.079 97.0725 102.886 96.496C101.893 93.5161 88.6175 97.0195 88.6175 97.0195L88.2405 99.0611C88.2405 99.0611 82.2504 110.356 86.2531 114.424C87.4698 115.662 89.8551 116.218 92.2917 116.198C92.2917 116.198 99.7362 116.558 113.579 115.913C113.579 115.913 112.555 123.977 123.967 139.778L127.784 138.556C127.784 138.556 120.237 109.873 119.604 109.361C114.083 104.902 103.914 104.55 103.914 104.55Z" fill="#263238"/>
<path d="M123.277 139.596L128.02 137.918L128.665 140.172L124.267 141.658L123.277 139.596Z" fill="#263238"/>
<path d="M108.377 76.8622C108.377 76.8622 107.901 78.0283 107.236 80.065C107.076 80.5413 106.911 81.0669 106.739 81.6336C106.513 82.3768 106.271 83.1939 106.028 84.0809C105.852 84.7214 105.675 85.3907 105.503 86.097C105.326 86.8115 105.146 87.567 104.969 88.3431C104.953 88.4334 104.928 88.5279 104.912 88.6182C104.242 91.6321 103.655 94.5475 103.286 98.2636L88.7004 96.9907C88.7004 96.9907 88.6511 92.4862 89.1972 87.4069C89.4929 84.6598 89.961 81.7485 90.7042 79.2848C91.2832 77.3631 92.0305 75.7125 92.9913 74.6325C92.9913 74.6325 100.9 72.0374 108.377 76.8622Z" fill="#0085F9"/>
<path d="M100.937 72.538C96.5494 71.1366 94.8457 74.5739 94.8457 74.5739L97.1792 74.3443L101.924 80.2987L104.704 76.6996L106.453 77.6379C106.453 77.6379 104.749 73.7559 100.937 72.538Z" fill="#0085F9"/>
<path opacity="0.6" d="M100.937 72.538C96.5494 71.1366 94.8457 74.5739 94.8457 74.5739L97.1792 74.3443L101.924 80.2987L104.704 76.6996L106.453 77.6379C106.453 77.6379 104.749 73.7559 100.937 72.538Z" fill="white"/>
<path d="M101.806 79.9932L97.7832 73.9694C99.6827 73.1075 100.939 69.4797 101.211 67.4336L104.055 71.7295C103.127 73.1092 102.507 74.6863 104.634 75.8751C104.634 75.8751 101.806 79.98 101.806 79.9932Z" fill="#EEC1BB"/>
<path opacity="0.2" d="M102.37 69.1865L104.054 71.7278C103.833 72.0539 103.632 72.3914 103.482 72.733C102.642 72.3561 101.748 71.1004 101.956 70.2131C102.061 69.7708 102.225 69.3643 102.37 69.1865Z" fill="black"/>
<path d="M88.4612 97.4717L93.022 97.7718L92.8577 99.0591L88.0137 98.7101L88.4612 97.4717Z" fill="black"/>
<path d="M103.638 99.8301L93.4082 99.0959L93.5724 97.8086L103.471 98.459L103.638 99.8301Z" fill="black"/>
<path d="M98.3098 98.3212L98.2757 99.1609C98.2679 99.3556 98.4161 99.5206 98.6103 99.5338L99.8619 99.6175C100.059 99.6307 100.229 99.4824 100.244 99.2858L100.307 98.4341C100.322 98.2338 100.169 98.0605 99.9691 98.049L98.6888 97.9771C98.4884 97.966 98.318 98.1208 98.3098 98.3212Z" stroke="white" stroke-width="0.410618" stroke-miterlimit="10"/>
<path opacity="0.5" d="M123.277 139.596L128.02 137.918L128.665 140.172L124.267 141.658L123.277 139.596Z" fill="white"/>
<path d="M111.18 66.2172C111.18 66.2172 110.75 65.3647 109.938 65.2949" stroke="#263238" stroke-width="0.227482" stroke-miterlimit="10" stroke-linecap="round" stroke-linejoin="round"/>
<path d="M109.809 68.1094C109.809 68.1094 109.885 69.1027 110.148 69.7822C110.148 69.7822 109.701 70.0865 109.182 69.7757L109.809 68.1094Z" fill="#D4827D"/>
<path d="M110.715 67.4952C110.61 67.7514 110.387 67.9025 110.216 67.8327C110.045 67.7629 109.992 67.4985 110.097 67.2423C110.201 66.986 110.425 66.8349 110.596 66.9047C110.767 66.9745 110.82 67.239 110.715 67.4952Z" fill="#263238"/>
<path d="M110.52 66.8877L111.166 66.8971C111.166 66.8971 110.697 67.2527 110.52 66.8877Z" fill="#263238"/>
<path d="M101.264 69.705C101.282 69.7481 101.3 69.7908 101.327 69.8245C101.368 69.9058 101.413 69.9826 101.458 70.0639C101.725 70.5427 102.058 71.0186 102.511 71.3885C103.913 72.5522 105.121 72.9226 106.201 72.6237C106.253 72.6109 106.305 72.5933 106.358 72.5756C106.362 72.5806 106.362 72.5806 106.362 72.5806C107.969 71.9741 109.238 70.1033 110.306 67.6133C110.802 66.4738 111.131 65.4337 111.201 64.5292C111.201 64.5197 111.216 64.4918 111.216 64.4823C111.217 64.4446 111.227 64.3978 111.229 64.36C111.298 63.0821 110.881 62.0236 109.818 61.128C109.448 60.8164 109.002 60.5219 108.47 60.2489C103.786 57.8279 99.0122 65.196 101.264 69.705Z" fill="#EEC1BB"/>
<path d="M111.221 64.4988C111.221 64.4988 109.817 67.9311 105.974 67.7726C105.974 67.7726 102.902 70.5254 100.9 69.5773C98.1704 68.2847 97.7273 63.2505 100.63 59.8132C104.395 55.3564 112.28 58.8129 111.221 64.4988Z" fill="#263238"/>
<path d="M108.036 67.6232C108.294 67.1075 108.316 66.0341 107.456 65.7479C106.566 65.4519 105.078 67.2631 106.884 68.7454C107.143 68.9581 107.496 68.699 108.036 67.6232Z" fill="#EEC1BB"/>
<path d="M107.24 58.0928C107.24 58.0928 110.791 58.8832 111.894 61.0271C113.182 63.5306 113.182 65.449 109.578 66.6106C109.578 66.6106 105.153 62.2314 103.212 61.7087C101.271 61.186 99.7559 61.0648 99.7559 61.0648C101.146 57.3861 105.841 56.4926 107.24 58.0928Z" fill="#263238"/>
<path d="M105.975 67.7719C103.741 72.2329 98.8275 79.8174 93.5938 74.4662C93.5938 74.4662 95.4732 68.4174 99.273 65.9175C103.073 63.4181 105.975 67.7719 105.975 67.7719Z" fill="#263238"/>
<path d="M105.162 75.2177C107.074 76.6266 104.628 81.2776 107.04 82.3132C107.04 82.3132 106.281 81.384 106.785 80.1185C107.289 78.853 109.339 75.513 108.524 70.9863L105.162 75.2177Z" fill="#263238"/>
<path opacity="0.2" d="M95.2703 85.0301C95.2703 85.0301 92.1496 87.1448 89.1973 87.4076C89.4929 84.6605 89.961 81.7492 90.7042 79.2855C91.1847 79.0474 91.6117 78.916 91.9402 78.9242C94.1329 78.9653 94.9336 81.0225 94.9336 81.0225C94.9336 81.0225 95.3237 83.0838 95.2703 85.0301Z" fill="black"/>
<path d="M106.661 99.6645L106.004 98.8745C105.756 98.5772 105.381 98.4183 104.996 98.4466L103.195 98.5809C102.475 98.6347 101.825 99.0338 101.452 99.6518L101.221 100.034C102.221 101.419 104.322 102.179 104.322 102.179L104.897 102.462C105.409 102.713 105.997 102.529 106.247 102.037L106.822 100.905C107.021 100.514 106.957 100.02 106.661 99.6645Z" fill="#EEC1BB"/>
<path d="M94.0187 80.7898L94.0166 82.0533C94.0199 82.4881 94.033 82.9246 94.0519 83.3607C94.0852 84.2333 94.1476 85.1021 94.2256 85.9644C94.3086 86.8267 94.4314 87.6747 94.5751 88.5107C94.7323 89.343 94.9278 90.1503 95.1672 90.93L94.9873 90.574C95.1302 90.8286 95.4033 91.1826 95.6772 91.5238C95.9568 91.8695 96.2611 92.2206 96.576 92.5688C97.2092 93.2644 97.8641 93.9694 98.5371 94.6626L100.565 96.7563L102.598 98.8661C102.996 99.28 102.984 99.939 102.57 100.338C102.218 100.677 101.686 100.718 101.29 100.467C100.441 99.9287 99.6351 99.3588 98.8192 98.7864C98.0111 98.2066 97.217 97.6071 96.4298 96.9899C95.6488 96.3654 94.8687 95.7322 94.1098 95.0449C93.7296 94.7012 93.3514 94.3464 92.9728 93.9649C92.5914 93.5769 92.2247 93.1831 91.8239 92.6202C91.7697 92.5442 91.7258 92.4641 91.6917 92.3816L91.6437 92.2637C91.254 91.3078 90.9284 90.3416 90.6873 89.3709C90.4467 88.4023 90.2533 87.4295 90.1223 86.458C89.9848 85.4869 89.8977 84.515 89.8501 83.5434C89.8304 83.0573 89.8168 82.5715 89.8144 82.0829C89.8074 81.5864 89.8201 81.1253 89.8513 80.5779C89.917 79.4282 90.9025 78.5491 92.0526 78.6148C93.1617 78.678 94.0187 79.5974 94.0191 80.6942L94.0187 80.7898Z" fill="#EBC0BB"/>
<path d="M92.8534 74.6582C90.1642 75.5805 89.0519 78.4536 88.9336 83.3161C90.3063 84.5935 94.8338 84.1689 94.8338 84.1689C94.8338 84.1689 95.6509 76.8078 92.8534 74.6582Z" fill="#0085F9"/>
<path d="M121.833 103.444V104.741C121.833 105.074 121.442 105.21 121.113 105.21H95.1982C94.8652 105.21 94.4648 105.074 94.4648 104.741V103.444H121.833Z" fill="#263238"/>
<path opacity="0.4" d="M121.833 103.444V104.741C121.833 105.074 121.442 105.21 121.113 105.21H95.1982C94.8652 105.21 94.4648 105.074 94.4648 104.741V103.444H121.833Z" fill="white"/>
<path opacity="0.2" d="M121.833 103.444V104.741C121.833 105.074 121.441 105.21 121.113 105.21H104.02C103.688 105.21 103.293 105.074 103.293 104.741V103.444H121.833Z" fill="black"/>
<path d="M126.169 89.9799L123.084 103.973C122.984 104.434 122.535 104.768 122.082 104.768H105.231C104.782 104.768 104.493 104.35 104.597 103.889L107.679 90.0029C107.783 89.5458 108.228 89.3184 108.68 89.3184H125.532C125.985 89.3184 126.269 89.5228 126.169 89.9799Z" fill="#263238"/>
<path opacity="0.4" d="M126.17 89.9799L123.085 103.973C122.984 104.434 122.536 104.768 122.083 104.768H105.804C105.351 104.768 105.067 104.35 105.166 103.889L108.252 90.0029C108.352 89.5458 108.8 89.3184 109.253 89.3184H125.533C125.985 89.3184 126.27 89.5228 126.17 89.9799Z" fill="white"/>
<path opacity="0.2" d="M117.861 97.0917V97.0958C117.861 98.294 116.576 99.2671 115.635 99.2671C114.693 99.2671 114.135 98.2936 114.403 97.0958C114.672 95.9214 115.609 94.9643 116.53 94.9277C116.262 96.1255 116.837 97.0958 117.774 97.0958C117.794 97.0962 117.861 97.0962 117.861 97.0917Z" fill="black"/>
</svg>
