<svg width="326" height="250" viewBox="0 0 326 250" fill="none" xmlns="http://www.w3.org/2000/svg">
<g opacity="0.2">
<path d="M73.1267 62.6023C69.0386 60.6798 62.2778 63.8056 60.1221 68.3796C56.0071 77.1113 69.3163 89.757 74.1563 88.3997C79.5649 86.883 80.6326 66.1318 73.1267 62.6023Z" stroke="#0F31AC" stroke-width="1.47842" stroke-miterlimit="10" stroke-linecap="round" stroke-dasharray="3.7 3.7 3.7 3.7 3.7 3.7"/>
<path d="M52.681 82.3792C51.2221 81.5352 35.7676 72.5954 27.0215 79.6706C20.8804 84.6384 20.8216 95.2572 25.4365 101.225C34.5767 113.045 62.9195 107.746 65.8603 99.2881C67.8407 93.5924 58.543 85.7701 52.681 82.3792Z" stroke="#0F31AC" stroke-width="1.47842" stroke-miterlimit="10" stroke-linecap="round" stroke-dasharray="3.7 3.7 3.7 3.7 3.7 3.7"/>
<path d="M72.5671 228.337C110.185 219 152.928 209.495 219.3 211.114C256.42 212.019 264.831 200.5 292.963 186.178C318.038 173.413 330.353 148.03 322.79 133.645C315.154 119.121 291.895 124.904 272.847 103.285C264.172 93.4383 265.699 86.5371 260.691 75.6182C244.831 41.0446 185.389 14.0213 156.077 28.3228C117.352 47.2163 150.458 128.852 107.171 151.153C79.7899 165.26 59.0943 138.179 32.0584 158.852C18.6624 169.095 2.27867 183.464 1.01159 199.065C1.01159 199.065 -0.76251 237.208 72.5671 228.337Z" stroke="#0F31AC" stroke-width="1.47842" stroke-miterlimit="10" stroke-linecap="round" stroke-dasharray="3.7 3.7 3.7 3.7 3.7 3.7"/>
<path d="M280.4 185.855C280.4 185.855 273.586 194.89 266.77 207.285C260.626 218.464 255.953 233.526 254.921 246.101C252.027 245.965 248.849 245.836 245.412 245.714C225.059 244.992 195.675 244.539 163.003 244.539C125.859 244.539 92.9665 245.125 72.7603 246.025C72.0647 246.056 71.3838 246.087 70.7186 246.119C45.4915 214.851 -5.30768 160.377 41.4414 137.967C41.4414 137.967 44.8662 136.924 50.0007 134.683C66.2515 127.591 99.6461 108.505 95.9315 72.5194C95.9315 72.5194 94.666 65.8045 94.666 56.4608C94.666 34.6128 101.583 -1.6026 147.76 0.0502695C175.723 1.05264 201.477 15.2824 217.047 38.059C232.319 60.3986 256.738 87.8847 276.624 72.1927C281.214 68.5691 287.284 67.2267 292.951 68.8197C307.265 72.8403 323.526 93.6542 280.4 185.855Z" fill="#407BFF"/>
</g>
<path opacity="0.15" d="M317.533 247.318C317.533 248.797 248.347 249.995 163.003 249.995C114.848 249.995 71.8383 249.614 43.4976 249.015C36.9699 248.878 31.2212 248.728 26.3672 248.57C23.1699 248.465 20.3608 248.356 17.9727 248.244C11.8284 247.956 8.47266 247.644 8.47266 247.318C8.47266 246.903 13.9193 246.51 23.6406 246.16C27.6217 246.016 32.3193 245.88 37.6534 245.752C65.7203 245.079 111.409 244.641 163.003 244.641C208.385 244.641 249.199 244.979 277.471 245.519C302.364 245.995 317.533 246.626 317.533 247.318Z" fill="#040C2B"/>
<path d="M183.602 55.4258H129.828V89.4373H183.602V55.4258Z" fill="#E3E9F7"/>
<path d="M180.662 58.4707H132.766V86.3927H180.662V58.4707Z" fill="#F4F6FC"/>
<path d="M183.6 49.3037H129.848V55.4391H183.6V49.3037Z" fill="#CDD7FB"/>
<path d="M132.962 53.0669C133.532 53.0669 133.994 52.6273 133.994 52.0852C133.994 51.543 133.532 51.1035 132.962 51.1035C132.392 51.1035 131.93 51.543 131.93 52.0852C131.93 52.6273 132.392 53.0669 132.962 53.0669Z" fill="#E3E9F7"/>
<path d="M135.97 53.0669C136.54 53.0669 137.002 52.6273 137.002 52.0852C137.002 51.543 136.54 51.1035 135.97 51.1035C135.4 51.1035 134.938 51.543 134.938 52.0852C134.938 52.6273 135.4 53.0669 135.97 53.0669Z" fill="#E3E9F7"/>
<path d="M138.982 53.0669C139.552 53.0669 140.014 52.6273 140.014 52.0852C140.014 51.543 139.552 51.1035 138.982 51.1035C138.411 51.1035 137.949 51.543 137.949 52.0852C137.949 52.6273 138.411 53.0669 138.982 53.0669Z" fill="#E3E9F7"/>
<path d="M170.888 64.2314H166.496V82.6004H170.888V64.2314Z" fill="#407BFF"/>
<path d="M164.907 67.9033H160.516V82.5999H164.907V67.9033Z" fill="#407BFF"/>
<path d="M158.923 71.5381H154.531V82.6001H158.923V71.5381Z" fill="#407BFF"/>
<path d="M152.943 75.2861H148.551V82.6001H152.943V75.2861Z" fill="#407BFF"/>
<path d="M146.962 78.8447H142.57V82.5999H146.962V78.8447Z" fill="#407BFF"/>
<path d="M140.586 62.2627V82.5933H172.842" stroke="#040C2B" stroke-width="0.0378623" stroke-miterlimit="10"/>
<path d="M142.555 74.3394C142.555 74.3394 152.759 73.7912 161.784 64.5576" stroke="#040C2B" stroke-width="0.189297" stroke-miterlimit="10"/>
<path d="M162.274 65.4032L162.717 63.5684L160.906 64.102L162.274 65.4032Z" fill="#040C2B"/>
<path d="M286.082 135.381H232.309V169.392H286.082V135.381Z" fill="#E3E9F7"/>
<path d="M283.142 138.426H235.246V166.348H283.142V138.426Z" fill="#F4F6FC"/>
<path d="M286.081 129.259H232.328V135.394H286.081V129.259Z" fill="#CDD7FB"/>
<path d="M235.439 133.022C236.009 133.022 236.471 132.582 236.471 132.04C236.471 131.498 236.009 131.059 235.439 131.059C234.868 131.059 234.406 131.498 234.406 132.04C234.406 132.582 234.868 133.022 235.439 133.022Z" fill="#E3E9F7"/>
<path d="M238.45 133.022C239.021 133.022 239.483 132.582 239.483 132.04C239.483 131.498 239.021 131.059 238.45 131.059C237.88 131.059 237.418 131.498 237.418 132.04C237.418 132.582 237.88 133.022 238.45 133.022Z" fill="#E3E9F7"/>
<path d="M241.462 133.022C242.032 133.022 242.495 132.582 242.495 132.04C242.495 131.498 242.032 131.059 241.462 131.059C240.892 131.059 240.43 131.498 240.43 132.04C240.43 132.582 240.892 133.022 241.462 133.022Z" fill="#E3E9F7"/>
<path d="M257.859 153.098L267.289 143.669C268.49 144.901 269.438 146.327 270.107 147.91C270.804 149.557 271.168 151.301 271.189 153.098H257.859Z" fill="#0085F9"/>
<path d="M257.609 141.271C259.166 141.293 260.677 141.609 262.103 142.213C263.48 142.795 264.722 143.619 265.795 144.664L257.609 152.85L257.609 141.271Z" fill="#407BFF"/>
<path d="M257.436 163.502C254.702 163.502 252.131 162.437 250.198 160.504C248.264 158.57 247.199 156 247.199 153.265C247.199 150.531 248.264 147.96 250.198 146.026C252.09 144.134 254.592 143.074 257.261 143.029V153.45H267.672C267.625 156.117 266.564 158.617 264.672 160.507C262.739 162.439 260.169 163.502 257.436 163.502Z" fill="#CDD7FB"/>
<path d="M247.188 85.6777H193.414V119.689H247.188V85.6777Z" fill="#E3E9F7"/>
<path d="M244.248 88.7227H196.352V116.645H244.248V88.7227Z" fill="#F4F6FC"/>
<path d="M247.186 79.5557H193.434V85.6911H247.186V79.5557Z" fill="#CDD7FB"/>
<path d="M196.548 83.3188C197.118 83.3188 197.58 82.8793 197.58 82.3371C197.58 81.795 197.118 81.3555 196.548 81.3555C195.978 81.3555 195.516 81.795 195.516 82.3371C195.516 82.8793 195.978 83.3188 196.548 83.3188Z" fill="#E3E9F7"/>
<path d="M199.56 83.3188C200.13 83.3188 200.592 82.8793 200.592 82.3371C200.592 81.795 200.13 81.3555 199.56 81.3555C198.99 81.3555 198.527 81.795 198.527 82.3371C198.527 82.8793 198.99 83.3188 199.56 83.3188Z" fill="#E3E9F7"/>
<path d="M202.568 83.3188C203.138 83.3188 203.6 82.8793 203.6 82.3371C203.6 81.795 203.138 81.3555 202.568 81.3555C201.997 81.3555 201.535 81.795 201.535 82.3371C201.535 82.8793 201.997 83.3188 202.568 83.3188Z" fill="#E3E9F7"/>
<path d="M230.777 102.684C230.777 108.469 226.088 113.158 220.303 113.158C217.935 113.158 215.75 112.373 213.996 111.047C211.464 109.136 209.828 106.101 209.828 102.684C209.828 101.058 210.199 99.5195 210.859 98.1469C210.86 98.1451 210.861 98.1433 210.862 98.1415C210.888 98.0873 210.915 98.0334 210.942 97.9798C210.948 97.9686 210.953 97.9574 210.959 97.9461C210.982 97.9014 211.005 97.8569 211.028 97.8126C211.035 97.7985 211.043 97.7843 211.05 97.7703C211.073 97.7272 211.097 97.6844 211.12 97.6417C211.127 97.6285 211.134 97.6152 211.142 97.6021C211.172 97.5473 211.203 97.4927 211.234 97.4385C211.266 97.3826 211.299 97.3271 211.333 97.272C211.366 97.2168 211.4 97.1619 211.434 97.1073C211.486 97.0256 211.539 96.9444 211.592 96.8643C211.61 96.8383 211.627 96.8125 211.645 96.7865C211.647 96.7837 211.649 96.7808 211.65 96.7782C211.667 96.7537 211.684 96.7293 211.701 96.705C211.719 96.6787 211.738 96.6524 211.757 96.6261C211.775 96.5998 211.794 96.5738 211.813 96.5478C211.832 96.5218 211.851 96.4957 211.87 96.4699C211.927 96.3921 211.985 96.3156 212.044 96.2398C212.062 96.2174 212.08 96.195 212.097 96.1729C212.102 96.1661 212.108 96.1597 212.113 96.1533C212.13 96.1324 212.146 96.1115 212.163 96.0909C212.164 96.0888 212.166 96.087 212.167 96.0855C212.207 96.0368 212.247 95.9886 212.287 95.9407C212.301 95.9239 212.315 95.9072 212.329 95.8907C212.347 95.8698 212.364 95.8492 212.383 95.8288C212.406 95.802 212.429 95.7752 212.453 95.7487C212.503 95.6917 212.554 95.6356 212.605 95.5799C212.623 95.5598 212.642 95.54 212.661 95.5201C212.731 95.4454 212.802 95.3717 212.874 95.2993C212.889 95.2844 212.904 95.2695 212.918 95.2548C212.933 95.2406 212.947 95.2267 212.961 95.2128C212.975 95.1986 212.99 95.1847 213.004 95.1708C213.028 95.147 213.053 95.1236 213.077 95.1002C214.957 93.3088 217.501 92.209 220.303 92.209C223.876 92.209 227.031 93.9983 228.922 96.7297C229.167 97.0835 229.39 97.453 229.59 97.8367C229.637 97.9258 229.683 98.0158 229.727 98.1065C229.741 98.1366 229.756 98.167 229.77 98.1975C229.785 98.2279 229.799 98.2583 229.813 98.2887C229.87 98.4108 229.924 98.5343 229.976 98.659C230.028 98.7837 230.078 98.9097 230.125 99.0367C230.184 99.1954 230.239 99.3563 230.29 99.5186C230.301 99.551 230.311 99.5835 230.321 99.6162C230.371 99.7791 230.417 99.944 230.459 100.11C230.484 100.21 230.508 100.31 230.53 100.411C230.544 100.474 230.557 100.538 230.57 100.601C230.572 100.61 230.573 100.618 230.575 100.627C230.708 101.292 230.777 101.98 230.777 102.684Z" fill="#407BFF"/>
<path d="M227.391 95.1663C227.325 95.1128 227.248 95.1202 227.178 95.1759C227.154 95.1953 227.13 95.2153 227.105 95.2344C227.09 95.2461 227.072 95.2597 227.054 95.2514C226.973 95.2143 226.88 95.2233 226.801 95.1856C226.653 95.1141 226.492 95.0903 226.334 95.0521C226.259 95.0339 226.186 95.0084 226.114 94.978C226.038 94.946 225.967 94.8966 225.881 94.8864C225.76 94.872 225.639 94.8584 225.549 94.8633C225.448 94.8634 225.379 94.8631 225.311 94.8637C225.283 94.8639 225.249 94.8591 225.23 94.88C225.159 94.9546 225.063 94.9408 224.976 94.9575C224.952 94.9622 224.926 94.9569 224.905 94.9741C224.778 95.0744 224.645 95.1671 224.542 95.2935C224.53 95.3078 224.515 95.3198 224.501 95.3319C224.423 95.3988 224.344 95.4655 224.285 95.5514C224.262 95.585 224.231 95.6122 224.197 95.6356C224.128 95.6837 224.058 95.7311 223.976 95.7575C223.907 95.7802 223.86 95.8411 223.792 95.8662C223.639 95.9225 223.645 95.918 223.654 96.1043C223.657 96.147 223.676 96.1888 223.687 96.231C223.694 96.2581 223.704 96.2848 223.709 96.3123C223.724 96.3918 223.774 96.4395 223.853 96.4446C223.917 96.4487 223.977 96.4337 224.029 96.3936C224.051 96.3764 224.072 96.3574 224.095 96.3409C224.125 96.3185 224.152 96.3162 224.187 96.342C224.272 96.4046 224.326 96.4933 224.39 96.5729C224.419 96.6083 224.407 96.643 224.368 96.6677C224.341 96.6842 224.315 96.7008 224.29 96.7201C224.271 96.7353 224.271 96.7583 224.277 96.7805C224.284 96.805 224.304 96.8196 224.326 96.815C224.412 96.7981 224.503 96.7993 224.578 96.7491C224.615 96.7239 224.652 96.7024 224.698 96.7046C224.745 96.707 224.765 96.6776 224.776 96.639C224.794 96.579 224.814 96.5194 224.814 96.456C224.813 96.41 224.828 96.3781 224.876 96.3646C224.897 96.3588 224.916 96.3468 224.934 96.3343C225.03 96.2655 225.035 96.1981 224.951 96.1185C224.939 96.1078 224.927 96.0978 224.915 96.0877C224.82 96.008 224.831 95.8992 224.94 95.8404C224.967 95.8255 224.995 95.8106 225.022 95.7952C225.099 95.7516 225.168 95.7025 225.204 95.6144C225.226 95.5601 225.274 95.526 225.336 95.5229C225.377 95.5208 225.417 95.5245 225.458 95.5257C225.474 95.5262 225.49 95.5303 225.498 95.5455C225.509 95.5688 225.489 95.5789 225.475 95.5902C225.413 95.6423 225.359 95.7022 225.285 95.7403C225.212 95.7772 225.16 95.8318 225.174 95.9272C225.195 96.0624 225.244 96.1721 225.389 96.2107C225.395 96.2122 225.402 96.2135 225.407 96.216C225.464 96.2406 225.495 96.2875 225.491 96.3389C225.485 96.4072 225.458 96.4468 225.39 96.4556C225.3 96.4672 225.259 96.5182 225.244 96.6005C225.24 96.6219 225.236 96.6433 225.232 96.6646C225.204 96.7864 225.133 96.8494 225.024 96.8369C224.993 96.8332 224.962 96.8427 224.931 96.8451C224.823 96.8536 224.729 96.9071 224.627 96.9349C224.599 96.9425 224.574 96.9548 224.552 96.9241C224.492 96.8425 224.419 96.8431 224.338 96.8899C224.308 96.9069 224.278 96.9145 224.241 96.8958C224.159 96.8545 224.136 96.8209 224.164 96.7324C224.184 96.6728 224.182 96.6154 224.175 96.5568C224.171 96.5234 224.152 96.4984 224.113 96.5006C224.053 96.5039 223.976 96.5718 223.955 96.6311C223.93 96.7034 223.928 96.7766 223.936 96.8507C223.942 96.9018 223.924 96.9343 223.877 96.9541C223.83 96.9734 223.787 96.999 223.74 97.0157C223.666 97.0419 223.602 97.0856 223.562 97.1482C223.508 97.2329 223.422 97.27 223.343 97.3185C223.305 97.3422 223.269 97.3608 223.252 97.4061C223.226 97.4781 223.145 97.4742 223.095 97.5129C223.066 97.5344 223.036 97.5132 223.006 97.5036C222.963 97.4896 222.912 97.4834 222.888 97.5287C222.849 97.5986 222.79 97.6096 222.721 97.609C222.677 97.6087 222.634 97.6141 222.592 97.6292C222.574 97.6359 222.557 97.6444 222.556 97.6667C222.554 97.7003 222.608 97.7723 222.645 97.7745C222.771 97.7821 222.834 97.873 222.898 97.9616C222.938 98.0175 222.951 98.0803 222.924 98.1481C222.911 98.1797 222.905 98.2135 222.9 98.2479C222.889 98.3304 222.873 98.3422 222.792 98.3412C222.77 98.3409 222.748 98.3416 222.726 98.3382C222.56 98.312 222.391 98.3161 222.224 98.3029C222.205 98.3015 222.186 98.3026 222.17 98.3142C222.109 98.3583 222.02 98.3815 222.059 98.4936C222.073 98.5353 222.037 98.5856 222.05 98.632C222.067 98.6873 222.051 98.736 222.034 98.7872C222.02 98.8326 221.992 98.8706 221.972 98.9131C221.962 98.9353 221.941 98.9632 221.962 98.9828C222.014 99.0339 222.003 99.0973 222.004 99.1586C222.005 99.2065 222.03 99.2262 222.075 99.2263C222.09 99.2264 222.106 99.2284 222.121 99.226C222.201 99.213 222.266 99.2363 222.328 99.2896C222.376 99.3313 222.443 99.3523 222.502 99.3244C222.551 99.3015 222.598 99.2924 222.647 99.2985C222.776 99.3145 222.859 99.2309 222.939 99.1567C222.977 99.1208 222.994 99.0556 223.032 99.0102C223.04 99.0011 223.039 98.9774 223.033 98.9655C223.01 98.9233 223.033 98.8945 223.056 98.8641C223.081 98.8317 223.107 98.8003 223.128 98.7656C223.152 98.7256 223.18 98.7026 223.23 98.6953C223.297 98.6853 223.343 98.6322 223.392 98.5889C223.426 98.5586 223.412 98.5128 223.415 98.473C223.42 98.4002 223.468 98.3571 223.547 98.363C223.594 98.3665 223.639 98.3825 223.684 98.3914C223.715 98.3973 223.749 98.4183 223.775 98.4005C223.837 98.3587 223.907 98.3335 223.969 98.2938C224.045 98.2448 224.054 98.2397 224.12 98.2952C224.145 98.3156 224.164 98.3401 224.177 98.3692C224.199 98.4228 224.238 98.4628 224.28 98.5008C224.371 98.5827 224.468 98.6547 224.582 98.7023C224.665 98.7372 224.721 98.8066 224.778 98.8723C224.828 98.9313 224.789 99.0141 224.713 99.0364C224.636 99.0591 224.559 99.0526 224.481 99.0522C224.455 99.052 224.428 99.0564 224.419 99.084C224.409 99.1134 224.432 99.1299 224.454 99.1427C224.522 99.1817 224.595 99.2099 224.662 99.2507C224.705 99.2767 224.746 99.2534 224.746 99.2012C224.746 99.139 224.774 99.1105 224.828 99.0947C224.894 99.0752 224.907 99.0132 224.934 98.9613C224.955 98.9218 224.942 98.8924 224.925 98.8565C224.905 98.8167 224.928 98.7917 224.973 98.7936C225.004 98.795 225.022 98.8191 225.048 98.8298C225.081 98.8438 225.102 98.8287 225.103 98.7926C225.105 98.752 225.077 98.7291 225.05 98.7097C224.983 98.6633 224.913 98.6217 224.847 98.5747C224.816 98.5529 224.787 98.5364 224.749 98.5253C224.684 98.506 224.619 98.4721 224.591 98.4056C224.569 98.3538 224.538 98.3152 224.495 98.2825C224.48 98.2714 224.467 98.2569 224.457 98.2412C224.435 98.205 224.44 98.1429 224.467 98.119C224.498 98.0917 224.537 98.0788 224.57 98.106C224.629 98.1558 224.702 98.1892 224.743 98.2606C224.773 98.3107 224.823 98.341 224.879 98.3536C224.918 98.3627 224.948 98.3802 224.974 98.4087C224.993 98.4301 225.016 98.4464 225.041 98.4595C225.146 98.5145 225.19 98.605 225.192 98.72C225.193 98.7479 225.187 98.7779 225.207 98.8014C225.277 98.8848 225.308 98.9959 225.391 99.071C225.418 99.0957 225.433 99.1306 225.433 99.1629C225.433 99.2561 225.498 99.2743 225.567 99.2901C225.622 99.3029 225.639 99.2932 225.658 99.24C225.702 99.1235 225.747 99.0073 225.688 98.8823C225.685 98.8768 225.685 98.8701 225.684 98.8638C225.678 98.8087 225.732 98.7222 225.776 98.7161C225.857 98.7049 225.938 98.763 225.945 98.838C225.948 98.8754 225.949 98.9131 225.948 98.9506C225.944 99.0291 225.969 99.1003 226.011 99.1627C226.048 99.2165 226.094 99.2631 226.171 99.2602C226.231 99.2579 226.287 99.2843 226.34 99.3091C226.385 99.3302 226.422 99.3389 226.46 99.3035C226.487 99.2784 226.514 99.2809 226.546 99.2901C226.591 99.3029 226.635 99.3149 226.678 99.3364C226.739 99.3674 226.803 99.3704 226.863 99.3283C226.883 99.3143 226.907 99.3025 226.931 99.297C226.994 99.2824 227.063 99.3188 227.069 99.377C227.076 99.448 227.09 99.5237 227.064 99.5909C227.038 99.655 227.017 99.7187 227.002 99.7861C226.991 99.8407 226.977 99.8967 226.953 99.9463C226.922 100.01 226.92 100.07 226.939 100.137C226.962 100.218 227.001 100.292 227.033 100.37C227.086 100.501 227.157 100.621 227.244 100.732C227.283 100.782 227.316 100.835 227.335 100.895C227.347 100.929 227.367 100.956 227.396 100.976C227.455 101.016 227.49 101.075 227.524 101.135C227.558 101.196 227.564 101.266 227.578 101.333C227.597 101.422 227.632 101.498 227.719 101.543C227.743 101.555 227.766 101.576 227.781 101.598C227.865 101.718 227.942 101.845 227.989 101.98C228.04 102.128 228.12 102.262 228.173 102.408C228.192 102.461 228.236 102.5 228.29 102.525C228.339 102.548 228.372 102.514 228.409 102.492C228.417 102.487 228.427 102.486 228.436 102.483C228.605 102.42 228.775 102.36 228.932 102.27C228.962 102.252 228.997 102.249 229.031 102.242C229.1 102.226 229.161 102.197 229.195 102.13C229.216 102.089 229.251 102.059 229.289 102.04C229.393 101.986 229.499 101.938 229.597 101.87C229.708 101.793 229.824 101.727 229.853 101.58C229.86 101.549 229.879 101.523 229.896 101.497C229.943 101.427 229.989 101.357 230.012 101.274C230.021 101.242 230.027 101.213 230.004 101.185C229.969 101.142 229.935 101.097 229.899 101.054C229.872 101.022 229.84 100.996 229.794 101.003C229.739 101.011 229.706 100.982 229.68 100.939C229.667 100.918 229.65 100.899 229.636 100.878C229.558 100.763 229.475 100.758 229.394 100.866C229.368 100.9 229.339 100.928 229.299 100.939C229.225 100.957 229.15 100.951 229.075 100.942C229.048 100.939 229.029 100.922 229.037 100.889C229.074 100.739 228.99 100.656 228.87 100.593C228.747 100.528 228.659 100.43 228.612 100.299C228.585 100.224 228.647 100.157 228.726 100.167C228.837 100.183 228.88 100.265 228.912 100.355C228.927 100.397 228.934 100.447 228.976 100.465C229.087 100.513 229.175 100.602 229.297 100.634C229.361 100.65 229.415 100.664 229.476 100.638C229.499 100.628 229.523 100.622 229.545 100.61C229.592 100.584 229.607 100.59 229.633 100.639C229.64 100.652 229.646 100.667 229.65 100.682C229.667 100.739 229.705 100.769 229.764 100.778C229.844 100.791 229.923 100.812 230.003 100.827C230.169 100.857 230.336 100.872 230.504 100.834C230.539 100.826 230.575 100.821 230.611 100.818C230.219 98.6346 229.149 96.6869 227.629 95.1983C227.616 95.2011 227.604 95.2041 227.592 95.207C227.516 95.2252 227.454 95.2164 227.391 95.1663Z" fill="#0085F9"/>
<path d="M229.024 102.607C228.948 102.654 228.862 102.65 228.781 102.671C228.649 102.705 228.523 102.759 228.387 102.782C228.286 102.799 228.173 102.738 228.17 102.642C228.167 102.564 228.128 102.515 228.082 102.464C228.035 102.413 227.985 102.365 227.946 102.309C227.913 102.264 227.881 102.234 227.825 102.215C227.713 102.178 227.647 102.101 227.64 101.974C227.636 101.899 227.603 101.83 227.55 101.772C227.462 101.676 227.402 101.57 227.391 101.434C227.383 101.342 227.349 101.251 227.284 101.178C227.208 101.094 227.143 101.004 227.106 100.895C227.092 100.854 227.067 100.816 227.053 100.776C227.015 100.665 226.914 100.582 226.929 100.443C226.937 100.365 226.889 100.281 226.874 100.199C226.851 100.072 226.755 100.012 226.657 99.9572C226.578 99.9124 226.499 99.9377 226.43 99.9896C226.385 100.024 226.342 100.03 226.291 100.002C226.256 99.9834 226.215 99.9782 226.175 99.9691C226.054 99.9413 225.929 99.9268 225.815 99.8718C225.762 99.8467 225.706 99.8362 225.657 99.7965C225.609 99.7568 225.541 99.7539 225.477 99.7677C225.453 99.773 225.431 99.7843 225.405 99.7858C225.344 99.7894 225.317 99.8396 225.283 99.879C225.253 99.9132 225.27 99.9473 225.282 99.9841C225.301 100.043 225.271 100.081 225.209 100.085C225.172 100.088 225.142 100.072 225.115 100.049C225.056 99.9982 224.988 99.9713 224.91 99.9699C224.85 99.9688 224.807 99.9462 224.79 99.8856C224.767 99.8022 224.701 99.7781 224.627 99.7673C224.593 99.7625 224.558 99.7625 224.524 99.7667C224.44 99.777 224.37 99.7419 224.304 99.7013C224.232 99.6579 224.217 99.5867 224.256 99.5115C224.271 99.4833 224.281 99.4546 224.279 99.422C224.275 99.3722 224.274 99.323 224.284 99.2727C224.293 99.221 224.262 99.1749 224.213 99.1675C224.164 99.1599 224.111 99.1509 224.065 99.1738C224.026 99.1939 223.988 99.1897 223.948 99.1907C223.859 99.1928 223.766 99.1662 223.684 99.2245C223.664 99.2386 223.642 99.2327 223.621 99.2228C223.567 99.1973 223.513 99.2051 223.456 99.2153C223.352 99.2339 223.251 99.2672 223.142 99.2608C223.088 99.2577 223.04 99.2866 223.004 99.3294C222.988 99.3492 222.97 99.3623 222.945 99.3725C222.834 99.419 222.717 99.432 222.599 99.4453C222.541 99.4518 222.485 99.4519 222.432 99.4074C222.388 99.3708 222.328 99.3941 222.297 99.4443C222.277 99.4761 222.252 99.5062 222.24 99.5407C222.218 99.602 222.174 99.6335 222.12 99.6638C221.989 99.7373 221.889 99.8435 221.849 99.9905C221.824 100.081 221.785 100.161 221.727 100.23C221.662 100.308 221.607 100.398 221.497 100.426C221.46 100.436 221.436 100.462 221.419 100.501C221.399 100.546 221.377 100.604 221.339 100.624C221.26 100.664 221.238 100.728 221.219 100.802C221.213 100.826 221.202 100.849 221.189 100.871C221.13 100.976 221.056 101.071 221.003 101.182C220.949 101.296 220.928 101.399 220.975 101.52C221.022 101.64 221.062 101.766 221.015 101.899C221.007 101.919 221.006 101.942 221.003 101.963C220.996 102.012 220.975 102.05 220.939 102.084C220.885 102.136 220.859 102.201 220.859 102.277C220.86 102.422 220.92 102.543 220.998 102.658C221.022 102.694 221.064 102.703 221.095 102.73C221.15 102.778 221.183 102.843 221.237 102.891C221.272 102.923 221.299 102.96 221.313 103.007C221.365 103.186 221.475 103.322 221.631 103.419C221.721 103.475 221.806 103.537 221.886 103.606C221.968 103.677 222.054 103.697 222.152 103.641C222.176 103.627 222.204 103.619 222.231 103.61C222.332 103.58 222.429 103.55 222.54 103.585C222.609 103.607 222.685 103.638 222.767 103.601C222.867 103.557 222.971 103.519 223.068 103.473C223.166 103.427 223.261 103.41 223.365 103.41C223.487 103.41 223.558 103.46 223.597 103.575C223.634 103.682 223.662 103.698 223.778 103.68C223.863 103.666 223.944 103.673 224.022 103.716C224.119 103.771 224.135 103.807 224.116 103.921C224.106 103.98 224.073 104.034 224.076 104.094C224.081 104.174 224.065 104.249 224.034 104.322C224.022 104.351 224.01 104.381 224.025 104.413C224.048 104.46 224.06 104.512 224.096 104.555C224.162 104.634 224.222 104.718 224.289 104.796C224.344 104.862 224.385 104.932 224.396 105.02C224.402 105.075 224.426 105.127 224.456 105.175C224.49 105.229 224.512 105.288 224.508 105.353C224.502 105.465 224.53 105.569 224.574 105.671C224.625 105.791 224.617 105.902 224.517 105.997C224.474 106.037 224.453 106.086 224.444 106.144C224.429 106.237 224.393 106.324 224.37 106.414C224.348 106.501 224.349 106.593 224.343 106.683C224.341 106.714 224.358 106.743 224.377 106.769C224.419 106.828 224.444 106.895 224.473 106.961C224.511 107.05 224.538 107.146 224.607 107.217C224.669 107.281 224.683 107.357 224.677 107.441C224.672 107.5 224.664 107.561 224.684 107.618C224.705 107.679 224.711 107.74 224.715 107.802C224.72 107.901 224.738 108.007 224.807 108.073C224.927 108.186 224.986 108.321 225.017 108.476C225.017 108.479 225.018 108.482 225.02 108.484C225.051 108.541 225.061 108.602 225.053 108.687C225.031 108.751 225.086 108.823 225.097 108.902C225.099 108.914 225.106 108.929 225.115 108.934C225.179 108.965 225.238 109.013 225.315 109.001C225.434 108.983 225.558 108.986 225.672 108.938C225.686 108.933 225.703 108.93 225.718 108.931C225.839 108.935 225.95 108.903 226.064 108.866C226.18 108.828 226.269 108.765 226.344 108.674C226.372 108.641 226.4 108.605 226.434 108.579C226.493 108.533 226.532 108.475 226.565 108.41C226.597 108.345 226.637 108.283 226.693 108.238C226.758 108.186 226.791 108.119 226.816 108.045C226.827 108.012 226.841 107.98 226.845 107.946C226.861 107.823 226.931 107.744 227.038 107.689C227.08 107.668 227.119 107.636 227.135 107.59C227.18 107.466 227.214 107.34 227.164 107.208C227.155 107.185 227.149 107.16 227.145 107.136C227.124 107.023 227.16 106.931 227.252 106.865C227.291 106.837 227.322 106.802 227.349 106.765C227.378 106.726 227.412 106.698 227.457 106.68C227.566 106.635 227.661 106.571 227.737 106.479C227.808 106.392 227.851 106.297 227.836 106.179C227.826 106.093 227.828 106.006 227.844 105.918C227.862 105.82 227.864 105.721 227.796 105.631C227.752 105.572 227.716 105.5 227.719 105.424C227.724 105.298 227.706 105.176 227.678 105.054C227.667 105.004 227.673 104.953 227.705 104.911C227.726 104.883 227.739 104.851 227.752 104.82C227.803 104.699 227.856 104.579 227.966 104.497C227.986 104.482 228 104.46 228.014 104.44C228.072 104.362 228.125 104.28 228.187 104.206C228.243 104.14 228.297 104.065 228.377 104.027C228.568 103.936 228.689 103.777 228.783 103.6C228.888 103.402 228.975 103.194 229.069 102.99C229.077 102.97 229.077 102.947 229.084 102.926C229.111 102.841 229.077 102.752 229.098 102.666C229.106 102.632 229.054 102.589 229.024 102.607Z" fill="#0085F9"/>
<path d="M210.195 100.737C210.189 100.786 210.209 100.82 210.249 100.847C210.326 100.9 210.378 100.974 210.418 101.056C210.443 101.106 210.468 101.156 210.5 101.203C210.546 101.269 210.547 101.343 210.514 101.416C210.464 101.529 210.505 101.639 210.617 101.694C210.628 101.7 210.643 101.703 210.649 101.713C210.698 101.788 210.772 101.824 210.856 101.848C210.87 101.852 210.883 101.864 210.893 101.876C210.935 101.924 210.99 101.954 211.048 101.978C211.167 102.027 211.286 102.075 211.405 102.121C211.459 102.142 211.515 102.144 211.571 102.125C211.6 102.116 211.631 102.11 211.66 102.099C211.703 102.083 211.741 102.094 211.776 102.117C211.804 102.137 211.832 102.156 211.852 102.186C211.993 102.389 212.205 102.461 212.434 102.501C212.491 102.51 212.536 102.541 212.563 102.587C212.596 102.642 212.63 102.698 212.639 102.766C212.652 102.865 212.697 102.939 212.799 102.975C212.857 102.996 212.911 103.031 212.939 103.094C212.961 103.144 213.006 103.168 213.058 103.173C213.12 103.179 213.172 103.197 213.212 103.249C213.239 103.284 213.281 103.275 213.317 103.266C213.35 103.257 213.355 103.227 213.353 103.198C213.351 103.172 213.356 103.149 213.372 103.127C213.392 103.1 213.397 103.066 213.378 103.04C213.357 103.011 213.319 103.018 213.29 103.026C213.212 103.048 213.15 103.022 213.093 102.972C213.074 102.955 213.056 102.938 213.036 102.922C212.956 102.86 212.937 102.77 212.968 102.686C213.011 102.571 213 102.444 213.062 102.334C213.081 102.299 213.069 102.254 213.067 102.214C213.066 102.193 213.052 102.181 213.037 102.169C212.944 102.094 212.839 102.067 212.722 102.087C212.678 102.094 212.635 102.089 212.592 102.088C212.555 102.087 212.535 102.069 212.524 102.035C212.502 101.968 212.509 101.905 212.549 101.849C212.593 101.787 212.623 101.719 212.651 101.649C212.684 101.567 212.672 101.471 212.743 101.399C212.774 101.368 212.741 101.325 212.691 101.315C212.567 101.29 212.451 101.323 212.337 101.366C212.301 101.38 212.282 101.404 212.278 101.443C212.271 101.509 212.246 101.57 212.219 101.63C212.184 101.704 212.147 101.73 212.064 101.722C211.998 101.716 211.935 101.716 211.869 101.726C211.751 101.746 211.635 101.664 211.577 101.557C211.512 101.435 211.521 101.305 211.511 101.176C211.51 101.157 211.516 101.139 211.518 101.12C211.529 101.006 211.574 100.903 211.621 100.801C211.645 100.749 211.663 100.698 211.66 100.639C211.657 100.576 211.679 100.52 211.732 100.484C211.793 100.442 211.848 100.392 211.919 100.363C211.985 100.335 212.051 100.307 212.111 100.266C212.165 100.229 212.222 100.226 212.289 100.249C212.397 100.286 212.515 100.286 212.628 100.302C212.659 100.307 212.671 100.287 212.687 100.265C212.714 100.227 212.745 100.191 212.794 100.18C212.852 100.167 212.909 100.151 212.968 100.142C213.023 100.132 213.077 100.141 213.105 100.196C213.128 100.241 213.158 100.249 213.204 100.243C213.312 100.228 213.369 100.287 213.355 100.395C213.349 100.435 213.351 100.475 213.36 100.515C213.382 100.614 213.415 100.706 213.474 100.791C213.515 100.851 213.544 100.86 213.597 100.81C213.655 100.757 213.685 100.691 213.689 100.611C213.694 100.512 213.665 100.42 213.643 100.326C213.597 100.139 213.651 99.9842 213.802 99.8709C213.926 99.7777 214.056 99.6911 214.197 99.6227C214.276 99.5841 214.355 99.5523 214.405 99.4658C214.436 99.4123 214.476 99.3622 214.49 99.3025C214.511 99.2108 214.558 99.1352 214.617 99.066C214.688 98.9829 214.761 98.9021 214.835 98.8216C214.916 98.7322 215.006 98.6703 215.127 98.6556C215.184 98.6486 215.234 98.6213 215.286 98.6003C215.322 98.5858 215.342 98.56 215.337 98.5204C215.331 98.467 215.36 98.4333 215.396 98.3998C215.449 98.3491 215.525 98.3344 215.579 98.2953C215.654 98.2414 215.726 98.2564 215.801 98.2534C215.841 98.2518 215.869 98.2692 215.885 98.3125C215.907 98.3685 215.95 98.3747 215.996 98.3359C216.025 98.3118 216.05 98.2832 216.076 98.2569C216.097 98.2371 216.117 98.2135 216.148 98.2164C216.241 98.2256 216.322 98.1686 216.414 98.1721C216.435 98.1729 216.457 98.165 216.477 98.1582C216.526 98.1421 216.537 98.0921 216.501 98.0554C216.485 98.0391 216.466 98.0315 216.443 98.0284C216.409 98.0239 216.375 98.0168 216.342 98.01C216.245 97.9904 216.205 97.9286 216.229 97.8333C216.239 97.7901 216.259 97.7489 216.293 97.7205C216.344 97.6774 216.363 97.6248 216.347 97.5624C216.337 97.5199 216.36 97.5046 216.39 97.492C216.461 97.4624 216.537 97.4569 216.611 97.4681C216.702 97.482 216.79 97.4848 216.879 97.4555C216.927 97.4396 216.962 97.4864 216.941 97.5344C216.924 97.5716 216.898 97.6038 216.867 97.6305C216.827 97.6646 216.81 97.711 216.793 97.7585C216.779 97.7963 216.784 97.8168 216.827 97.8246C216.886 97.8351 216.944 97.8457 217.004 97.8314C217.066 97.8165 217.13 97.8155 217.185 97.853C217.239 97.89 217.302 97.8965 217.362 97.9097C217.448 97.9285 217.51 97.8509 217.478 97.7668C217.458 97.7147 217.453 97.6648 217.479 97.613C217.518 97.5341 217.516 97.5324 217.437 97.5009C217.37 97.4745 217.356 97.443 217.36 97.3728C217.365 97.2776 217.418 97.1963 217.43 97.1026C217.437 97.0461 217.434 97.005 217.387 96.972C217.366 96.9576 217.346 96.9425 217.348 96.9127C217.352 96.8595 217.315 96.8405 217.275 96.8304C217.17 96.8041 217.142 96.7263 217.138 96.6324C217.136 96.5762 217.139 96.5198 217.137 96.4635C217.135 96.3671 217.107 96.2792 217.044 96.2041C216.997 96.1469 216.981 96.1435 216.922 96.1888C216.847 96.246 216.77 96.298 216.689 96.3463C216.636 96.3785 216.576 96.3742 216.533 96.3365C216.493 96.3022 216.488 96.2662 216.517 96.2004C216.523 96.186 216.531 96.1725 216.537 96.1582C216.562 96.1008 216.56 96.0758 216.509 96.0485C216.463 96.0238 216.432 95.9877 216.397 95.9518C216.363 95.9169 216.327 95.8762 216.275 95.8694C216.176 95.8568 216.077 95.8476 215.977 95.847C215.94 95.8468 215.906 95.8577 215.881 95.881C215.818 95.9405 215.794 96.0256 215.749 96.0967C215.761 96.2078 215.697 96.2633 215.603 96.2964C215.594 96.2995 215.584 96.3021 215.576 96.3067C215.528 96.3348 215.523 96.3583 215.557 96.4036C215.612 96.478 215.613 96.4992 215.564 96.578C215.531 96.6323 215.485 96.6714 215.431 96.7061C215.348 96.7593 215.251 96.7766 215.164 96.8207C215.124 96.8413 215.094 96.8635 215.098 96.9111C215.103 96.9882 215.048 97.0514 215.05 97.1288C215.05 97.1584 215.019 97.1817 214.99 97.1971C214.966 97.2105 214.94 97.2228 214.915 97.2351C214.852 97.2656 214.817 97.255 214.789 97.1911C214.768 97.1411 214.762 97.0896 214.795 97.0393C214.835 96.9794 214.855 96.9086 214.905 96.854C214.928 96.8283 214.916 96.8057 214.888 96.7959C214.837 96.7786 214.786 96.7674 214.732 96.7675C214.619 96.7676 214.521 96.7112 214.447 96.6412C214.377 96.5749 214.302 96.5338 214.215 96.512C214.163 96.4991 214.142 96.4714 214.134 96.4238C214.127 96.3873 214.13 96.3477 214.106 96.3159C214.07 96.2673 214.092 96.2285 214.124 96.1902C214.163 96.1436 214.215 96.1143 214.262 96.0781C214.39 95.9795 214.529 95.9031 214.692 95.8828C214.774 95.8726 214.837 95.8279 214.895 95.775C214.934 95.7387 214.978 95.7222 215.029 95.7183C215.114 95.712 215.192 95.7311 215.255 95.7889C215.286 95.818 215.315 95.8153 215.348 95.7981C215.395 95.7736 215.442 95.7495 215.49 95.7248C215.522 95.7076 215.553 95.7056 215.586 95.728C215.615 95.7472 215.647 95.7612 215.683 95.7595C215.71 95.7583 215.732 95.7486 215.743 95.7231C215.754 95.6994 215.744 95.6792 215.725 95.6653C215.69 95.6394 215.675 95.603 215.665 95.5631C215.644 95.4887 215.657 95.4631 215.734 95.4584C215.787 95.4553 215.83 95.4355 215.871 95.4053C215.94 95.3543 216.023 95.3194 216.062 95.233C216.071 95.2117 216.096 95.1973 216.114 95.1795C216.138 95.1552 216.162 95.1316 216.178 95.0996C216.206 95.042 216.257 95.0212 216.318 95.0307C216.365 95.0381 216.411 95.0363 216.458 95.0355C216.525 95.0343 216.59 95.0522 216.631 95.1093C216.657 95.1466 216.687 95.1724 216.727 95.1931C216.787 95.2239 216.791 95.2634 216.74 95.3107C216.701 95.3467 216.657 95.3776 216.609 95.4011C216.581 95.4145 216.548 95.4267 216.539 95.4599C216.524 95.518 216.477 95.524 216.43 95.53C216.376 95.5369 216.325 95.525 216.273 95.5088C216.192 95.4833 216.106 95.5278 216.079 95.6066C216.067 95.64 216.075 95.6619 216.114 95.6654C216.216 95.6748 216.319 95.699 216.421 95.6745C216.462 95.6649 216.489 95.6805 216.51 95.7102C216.526 95.7331 216.541 95.7585 216.548 95.7849C216.565 95.8466 216.609 95.8768 216.664 95.8972C216.725 95.9201 216.787 95.9429 216.848 95.9669C216.904 95.989 216.951 95.986 217.004 95.9459C217.061 95.9026 217.114 95.8544 217.175 95.8162C217.256 95.7664 217.27 95.689 217.226 95.6044C217.212 95.5766 217.197 95.5489 217.185 95.5204C217.175 95.4996 217.171 95.4762 217.194 95.4618C217.216 95.4488 217.236 95.4581 217.255 95.472C217.291 95.4983 217.309 95.54 217.341 95.5706C217.391 95.6194 217.434 95.6228 217.49 95.58C217.532 95.5474 217.573 95.5142 217.614 95.4806C217.673 95.433 217.679 95.4057 217.653 95.3339C217.639 95.2944 217.618 95.2625 217.578 95.2426C217.488 95.1975 217.428 95.1322 217.441 95.022C217.447 94.9694 217.42 94.933 217.382 94.9012C217.321 94.8495 217.249 94.821 217.171 94.8063C217.083 94.7897 217.022 94.7394 216.994 94.6571C216.976 94.6045 216.941 94.584 216.893 94.5723C216.766 94.5419 216.637 94.5431 216.511 94.5582C216.423 94.5686 216.337 94.5743 216.25 94.5752C216.19 94.5753 216.131 94.5709 216.072 94.5766C216.013 94.5823 215.952 94.5837 215.902 94.6211C215.841 94.6661 215.781 94.7113 215.724 94.7597C215.651 94.8215 215.644 94.8493 215.677 94.9397C215.684 94.9604 215.697 94.9797 215.685 95.0018C215.662 95.0457 215.625 95.0746 215.575 95.0784C215.528 95.082 215.479 95.0822 215.451 95.0323C215.421 94.9774 215.399 94.92 215.391 94.8564C215.384 94.7995 215.341 94.7632 215.298 94.775C215.223 94.7959 215.145 94.8143 215.082 94.8608C215.013 94.9116 214.94 94.9615 214.975 95.0735C214.994 95.1372 214.973 95.1486 214.917 95.1836C214.872 95.2111 214.832 95.1973 214.79 95.1883C214.722 95.1732 214.65 95.1647 214.588 95.1892C214.539 95.2084 214.493 95.2143 214.443 95.2149C214.387 95.2155 214.331 95.2174 214.275 95.2268C214.197 95.2398 214.121 95.2344 214.059 95.1681C214.019 95.1248 213.957 95.1129 213.902 95.1236C213.805 95.1429 213.705 95.1514 213.608 95.1783C213.458 95.2201 213.307 95.2424 213.172 95.1302C213.144 95.1069 213.112 95.1006 213.078 95.1002C211.593 96.5158 210.524 98.3635 210.07 100.441C210.124 100.517 210.136 100.615 210.19 100.691C210.198 100.702 210.196 100.722 210.195 100.737Z" fill="#0085F9"/>
<path d="M210.112 101.085C210.127 101.044 210.116 101.006 210.088 100.972C210.053 100.928 210.033 100.878 210.015 100.824C210.01 100.808 210.006 100.791 210.002 100.774C209.986 100.861 209.971 100.949 209.957 101.036C209.978 101.059 209.997 101.082 210.017 101.106C210.049 101.143 210.095 101.132 210.112 101.085Z" fill="#0085F9"/>
<path d="M218.607 104.924C218.518 104.913 218.45 104.868 218.393 104.801C218.371 104.775 218.346 104.749 218.319 104.729C218.242 104.669 218.163 104.611 218.055 104.636C217.915 104.66 217.795 104.59 217.685 104.526C217.503 104.42 217.304 104.354 217.113 104.27C217.027 104.232 216.982 104.181 216.96 104.098C216.952 104.068 216.954 104.035 216.932 104.011C216.877 103.95 216.855 103.877 216.839 103.799C216.828 103.745 216.816 103.683 216.765 103.652C216.713 103.62 216.673 103.577 216.634 103.533C216.62 103.516 216.604 103.5 216.581 103.495C216.479 103.471 216.382 103.424 216.271 103.434C216.124 103.448 216.022 103.37 215.951 103.249C215.909 103.179 215.862 103.122 215.781 103.098C215.728 103.082 215.702 103.039 215.686 102.99C215.674 102.955 215.699 102.924 215.706 102.891C215.714 102.855 215.728 102.814 215.682 102.793C215.639 102.774 215.594 102.751 215.547 102.766C215.491 102.783 215.436 102.782 215.38 102.782C215.338 102.782 215.301 102.788 215.266 102.816C215.213 102.861 215.148 102.864 215.091 102.829C215.043 102.8 214.993 102.791 214.94 102.786C214.882 102.78 214.832 102.758 214.786 102.723C214.722 102.673 214.645 102.644 214.574 102.608C214.521 102.581 214.454 102.581 214.393 102.571C214.368 102.568 214.345 102.572 214.325 102.593C214.263 102.661 214.184 102.686 214.095 102.706C213.992 102.729 213.897 102.774 213.869 102.899C213.849 102.987 213.732 103.047 213.64 103.028C213.606 103.021 213.572 103.022 213.537 103.025C213.521 103.026 213.504 103.032 213.503 103.05C213.501 103.088 213.478 103.133 213.528 103.158C213.549 103.168 213.555 103.183 213.554 103.203C213.553 103.24 213.572 103.27 213.59 103.298C213.651 103.39 213.661 103.491 213.65 103.595C213.64 103.685 213.632 103.774 213.579 103.854C213.548 103.9 213.503 103.927 213.467 103.966C213.425 104.012 213.404 104.077 213.353 104.113C213.258 104.181 213.229 104.284 213.206 104.386C213.191 104.451 213.185 104.527 213.221 104.588C213.276 104.679 213.258 104.753 213.19 104.825C213.163 104.853 213.145 104.887 213.149 104.926C213.159 105.04 213.182 105.149 213.287 105.22C213.377 105.281 213.419 105.376 213.446 105.477C213.461 105.532 213.483 105.582 213.525 105.623C213.605 105.704 213.663 105.803 213.713 105.902C213.756 105.987 213.806 106.069 213.842 106.159C213.884 106.262 213.978 106.336 214.056 106.416C214.062 106.422 214.073 106.423 214.082 106.426C214.148 106.454 214.215 106.48 214.28 106.51C214.404 106.568 214.504 106.657 214.596 106.756C214.617 106.779 214.623 106.81 214.633 106.841C214.68 106.989 214.673 107.144 214.681 107.295C214.692 107.514 214.698 107.732 214.722 107.949C214.726 107.986 214.726 108.025 214.718 108.061C214.697 108.158 214.707 108.252 214.716 108.349C214.728 108.466 214.776 108.571 214.796 108.685C214.816 108.804 214.824 108.919 214.798 109.038C214.777 109.132 214.774 109.229 214.764 109.325C214.761 109.347 214.761 109.369 214.772 109.389C214.835 109.507 214.856 109.636 214.88 109.766C214.896 109.856 214.925 109.943 214.99 110.018C215.097 110.143 215.142 110.296 215.157 110.458C215.161 110.505 215.174 110.55 215.2 110.59C215.23 110.635 215.244 110.685 215.252 110.738C215.265 110.834 215.282 110.93 215.344 111.01C215.355 111.024 215.359 111.044 215.368 111.06C215.444 111.184 215.493 111.326 215.601 111.43C215.672 111.498 215.745 111.557 215.857 111.515C215.94 111.484 216.056 111.547 216.079 111.636C216.093 111.695 216.127 111.709 216.178 111.714C216.218 111.718 216.26 111.713 216.298 111.729C216.37 111.759 216.445 111.756 216.52 111.756C216.558 111.756 216.592 111.75 216.598 111.707C216.604 111.667 216.571 111.647 216.542 111.63C216.532 111.624 216.517 111.623 216.505 111.623C216.457 111.623 216.412 111.606 216.371 111.584C216.287 111.537 216.195 111.494 216.157 111.398C216.135 111.344 216.102 111.304 216.059 111.266C215.946 111.165 215.966 111.129 216.01 111.04C216.015 111.029 216.024 111.016 216.022 111.005C216.014 110.936 216.061 110.898 216.103 110.855C216.179 110.776 216.162 110.695 216.063 110.646C215.976 110.604 215.945 110.501 215.996 110.421C216.029 110.369 216.055 110.318 216.033 110.254C216.021 110.22 216.039 110.191 216.06 110.169C216.098 110.128 216.117 110.08 216.125 110.026C216.133 109.973 216.155 109.925 216.186 109.881C216.217 109.838 216.241 109.791 216.249 109.737C216.259 109.668 216.305 109.627 216.366 109.601C216.389 109.591 216.413 109.586 216.437 109.578C216.546 109.537 216.642 109.484 216.647 109.348C216.648 109.336 216.654 109.324 216.658 109.312C216.695 109.212 216.73 109.114 216.823 109.047C216.871 109.013 216.913 108.967 216.939 108.913C216.976 108.834 217.011 108.754 217.044 108.673C217.074 108.598 217.092 108.516 217.164 108.467C217.239 108.417 217.22 108.316 217.281 108.258C217.295 108.246 217.307 108.231 217.322 108.22C217.355 108.192 217.371 108.155 217.371 108.113C217.372 108.063 217.372 108.014 217.357 107.964C217.3 107.769 217.333 107.689 217.508 107.582C217.538 107.564 217.57 107.552 217.603 107.542C217.632 107.532 217.663 107.524 217.689 107.505C217.756 107.457 217.83 107.434 217.915 107.43C217.989 107.427 218.075 107.429 218.106 107.332C218.11 107.322 218.124 107.314 218.135 107.308C218.172 107.287 218.185 107.253 218.181 107.213C218.176 107.16 218.195 107.117 218.224 107.074C218.261 107.02 218.296 106.961 218.292 106.892C218.289 106.825 218.292 106.762 218.335 106.706C218.351 106.686 218.346 106.658 218.347 106.633C218.348 106.602 218.343 106.569 218.352 106.54C218.373 106.474 218.363 106.414 218.345 106.348C218.315 106.241 218.309 106.129 218.386 106.036C218.491 105.908 218.551 105.749 218.671 105.633C218.678 105.627 218.684 105.619 218.688 105.611C218.79 105.439 218.828 105.26 218.763 105.064C218.736 104.985 218.691 104.934 218.607 104.924Z" fill="#0085F9"/>
<path d="M221.245 95.0403C221.388 95.0108 221.436 94.9337 221.402 94.7892C221.381 94.7014 221.398 94.6741 221.481 94.643C221.629 94.5875 221.749 94.4993 221.804 94.3433C221.812 94.32 221.816 94.2945 221.836 94.2764C221.878 94.2371 221.89 94.1866 221.886 94.1312C221.882 94.0859 221.898 94.0455 221.939 94.0301C222.04 93.9913 222.132 93.9274 222.242 93.9082C222.327 93.8932 222.415 93.883 222.493 93.8396C222.51 93.8302 222.526 93.8206 222.522 93.7976C222.519 93.7791 222.502 93.7748 222.487 93.7705C222.429 93.7532 222.369 93.7559 222.31 93.7593C222.197 93.7658 222.082 93.7609 221.976 93.7272C221.857 93.6891 221.735 93.6644 221.613 93.6422C221.412 93.6058 221.21 93.5986 221.007 93.6369C220.929 93.6519 220.851 93.6636 220.767 93.6551C220.653 93.6437 220.537 93.643 220.421 93.6616C220.224 93.6934 220.027 93.7237 219.827 93.7262C219.774 93.7268 219.722 93.7488 219.668 93.7387C219.467 93.7005 219.273 93.7858 219.073 93.7721C219.061 93.7713 219.048 93.7761 219.037 93.7808C218.973 93.8075 218.906 93.8229 218.838 93.8301C218.723 93.8422 218.617 93.8986 218.5 93.9036C218.471 93.9048 218.433 93.9088 218.42 93.9426C218.403 93.9853 218.364 93.9909 218.33 94.0026C218.229 94.0376 218.121 94.0335 218.016 94.0461C217.954 94.0536 217.893 94.0655 217.833 94.0797C217.79 94.0896 217.778 94.1144 217.777 94.1536C217.776 94.2191 217.832 94.2965 217.903 94.3243C217.965 94.3491 218.032 94.3573 218.096 94.3438C218.232 94.3152 218.363 94.3405 218.495 94.3637C218.603 94.3824 218.672 94.4617 218.678 94.5699C218.681 94.6245 218.672 94.6762 218.644 94.723C218.611 94.7771 218.613 94.8317 218.645 94.8827C218.674 94.9303 218.693 94.9834 218.73 95.0275C218.78 95.0863 218.764 95.1182 218.686 95.132C218.519 95.1613 218.432 95.2623 218.433 95.4312C218.422 95.5016 218.459 95.5729 218.452 95.649C218.444 95.7279 218.46 95.8045 218.493 95.8765C218.514 95.9218 218.539 95.965 218.562 96.0092C218.595 96.0727 218.606 96.0792 218.681 96.0622C218.749 96.0468 218.803 96.0662 218.849 96.116C218.958 96.2326 219.018 96.1912 219.084 96.121C219.146 96.0556 219.219 95.9998 219.258 95.9142C219.268 95.8924 219.285 95.8703 219.306 95.8578C219.374 95.815 219.421 95.7557 219.459 95.6855C219.511 95.59 219.586 95.5327 219.705 95.5267C219.771 95.5234 219.841 95.514 219.908 95.5017C220.054 95.475 220.188 95.4198 220.305 95.3252C220.351 95.288 220.401 95.2476 220.462 95.2464C220.579 95.2438 220.689 95.2064 220.804 95.1915C220.888 95.1806 220.967 95.152 221.044 95.116C221.109 95.0857 221.174 95.055 221.245 95.0403Z" fill="#0085F9"/>
<path d="M228.957 106.122C228.946 106.056 228.917 105.997 228.889 105.938C228.868 105.895 228.837 105.892 228.811 105.93C228.765 105.997 228.717 106.064 228.683 106.137C228.616 106.284 228.524 106.396 228.355 106.427C228.314 106.435 228.264 106.443 228.243 106.488C228.211 106.558 228.159 106.623 228.172 106.706C228.179 106.753 228.175 106.802 228.188 106.846C228.222 106.961 228.172 107.056 228.112 107.142C228.068 107.206 228.043 107.267 228.053 107.333C228.049 107.428 228.071 107.51 228.09 107.591C228.113 107.689 228.228 107.776 228.31 107.76C228.367 107.748 228.422 107.724 228.477 107.702C228.493 107.696 228.511 107.681 228.518 107.665C228.546 107.603 228.584 107.545 228.601 107.478C228.639 107.329 228.7 107.188 228.752 107.045C228.796 106.925 228.856 106.81 228.873 106.682C228.883 106.609 228.906 106.543 228.944 106.483C228.993 106.407 229.004 106.328 228.979 106.241C228.968 106.203 228.963 106.162 228.957 106.122Z" fill="#0085F9"/>
<path d="M222.594 96.783C222.634 96.8255 222.681 96.8527 222.731 96.8788C222.775 96.9017 222.803 96.9437 222.802 96.9918C222.8 97.0412 222.752 97.0375 222.716 97.044C222.671 97.0519 222.643 97.0764 222.638 97.1239C222.635 97.1454 222.628 97.1664 222.626 97.1878C222.617 97.2597 222.588 97.3258 222.57 97.3948C222.553 97.4587 222.588 97.4899 222.652 97.4712C222.661 97.4686 222.671 97.4652 222.678 97.4599C222.773 97.3927 222.883 97.3921 222.992 97.3867C223.053 97.3837 223.107 97.362 223.161 97.3391C223.182 97.3306 223.202 97.3168 223.202 97.292C223.203 97.256 223.229 97.2379 223.251 97.2155C223.314 97.15 223.309 97.1054 223.225 97.0791C223.168 97.0612 223.142 97.027 223.132 96.9767C223.123 96.9281 223.105 96.8887 223.061 96.8619C223.049 96.8542 223.037 96.8411 223.031 96.8277C222.986 96.7333 222.928 96.6457 222.938 96.5298C222.946 96.4296 222.856 96.3527 222.74 96.3519C222.678 96.3381 222.625 96.3684 222.581 96.4329C222.541 96.4904 222.509 96.5381 222.523 96.6177C222.534 96.6827 222.55 96.7351 222.594 96.783Z" fill="#0085F9"/>
<path d="M221.778 95.3951C221.732 95.4008 221.685 95.3997 221.639 95.4075C221.52 95.4274 221.399 95.4553 221.28 95.4108C221.186 95.3758 221.118 95.4134 221.051 95.4713C221.02 95.4978 221.019 95.5236 221.051 95.5479C221.089 95.5774 221.112 95.6156 221.128 95.6614C221.143 95.7077 221.174 95.7385 221.229 95.7435C221.309 95.7506 221.391 95.7496 221.467 95.7827C221.473 95.7851 221.48 95.7838 221.492 95.7845C221.501 95.7816 221.518 95.7797 221.531 95.7722C221.642 95.7078 221.766 95.677 221.888 95.6418C221.927 95.6306 221.953 95.6061 221.978 95.5774C222.001 95.5501 222.004 95.5215 221.978 95.4937C221.923 95.4363 221.868 95.3838 221.778 95.3951Z" fill="#0085F9"/>
<path d="M213.584 101.32C213.634 101.374 213.696 101.41 213.758 101.446C213.784 101.461 213.796 101.482 213.803 101.512C213.818 101.577 213.833 101.591 213.89 101.574C213.948 101.556 213.992 101.569 214.04 101.599C214.087 101.628 214.136 101.62 214.181 101.591C214.235 101.557 214.236 101.527 214.185 101.493C214.154 101.472 214.118 101.458 214.087 101.437C214.025 101.395 213.946 101.379 213.895 101.323C213.809 101.229 213.7 101.182 213.585 101.14C213.514 101.114 213.446 101.08 213.363 101.089C213.3 101.077 213.24 101.112 213.176 101.123C213.113 101.133 213.066 101.168 213.024 101.209C213.001 101.232 212.963 101.26 212.982 101.295C213.005 101.339 213.043 101.299 213.073 101.294C213.132 101.286 213.181 101.24 213.242 101.243C213.348 101.248 213.449 101.28 213.553 101.301C213.564 101.303 213.576 101.312 213.584 101.32Z" fill="#0085F9"/>
<path d="M222.541 96.8048C222.483 96.7636 222.342 96.7725 222.286 96.8175C222.248 96.8482 222.216 96.8872 222.162 96.8967C222.099 96.9081 222.09 96.9176 222.1 96.9855C222.108 97.0423 222.099 97.092 222.065 97.1355C222.037 97.1724 222.044 97.2029 222.067 97.2376C222.089 97.2705 222.113 97.2981 222.155 97.292C222.187 97.2929 222.213 97.2814 222.236 97.2651C222.291 97.2263 222.35 97.2009 222.417 97.1974C222.446 97.1959 222.463 97.1813 222.474 97.156C222.489 97.1217 222.51 97.0888 222.508 97.05C222.507 97.0098 222.52 96.9825 222.553 96.955C222.606 96.9114 222.597 96.8444 222.541 96.8048Z" fill="#0085F9"/>
<path d="M214.302 101.711C214.262 101.715 214.222 101.722 214.182 101.73C214.163 101.734 214.147 101.746 214.149 101.768C214.15 101.786 214.164 101.797 214.179 101.799C214.299 101.814 214.418 101.862 214.538 101.838C214.626 101.821 214.714 101.805 214.802 101.788C214.831 101.782 214.859 101.777 214.865 101.743C214.872 101.706 214.844 101.69 214.818 101.671C214.747 101.62 214.653 101.617 214.584 101.562C214.57 101.551 214.542 101.557 214.52 101.558C214.492 101.558 214.464 101.561 214.454 101.561C214.424 101.559 214.411 101.556 214.399 101.558C214.364 101.565 214.32 101.528 214.295 101.568C214.271 101.606 214.319 101.625 214.333 101.654C214.349 101.687 214.342 101.706 214.302 101.711Z" fill="#0085F9"/>
<path opacity="0.1" d="M230.777 102.683C230.777 108.468 226.088 113.158 220.303 113.158C217.935 113.158 215.75 112.372 213.996 111.047C214.465 111.059 214.919 111.054 215.358 111.033C215.584 111.023 215.805 111.009 216.023 110.991C219.904 110.667 222.626 109.112 224.533 107.106C226 105.565 226.986 103.758 227.648 102.037C227.701 101.9 227.752 101.763 227.801 101.627C228.508 99.6595 228.801 97.8462 228.922 96.7302V96.7295C229.167 97.0833 229.39 97.4528 229.59 97.8365C229.637 97.9256 229.683 98.0156 229.727 98.1063C229.741 98.1364 229.756 98.1668 229.77 98.1973C229.785 98.2277 229.799 98.2581 229.813 98.2885C229.87 98.4106 229.924 98.5341 229.976 98.6588C230.028 98.7835 230.078 98.9095 230.125 99.0365C230.184 99.1952 230.239 99.3561 230.29 99.5184C230.301 99.5508 230.311 99.5833 230.321 99.616C230.371 99.7789 230.417 99.9438 230.459 100.11C230.484 100.21 230.508 100.31 230.53 100.411C230.544 100.474 230.557 100.538 230.57 100.601C230.572 100.609 230.573 100.618 230.575 100.626C230.708 101.292 230.777 101.979 230.777 102.683Z" fill="black"/>
<path d="M220.819 95.5253C220.8 95.5118 220.753 95.5147 220.735 95.5295C220.723 95.5396 220.712 95.5524 220.694 95.5556C220.673 95.5594 220.671 95.5625 220.674 95.5849C220.676 95.6036 220.673 95.62 220.662 95.6343C220.653 95.6465 220.655 95.6566 220.663 95.668C220.67 95.6788 220.678 95.6879 220.692 95.6859C220.702 95.6862 220.711 95.6825 220.719 95.6771C220.737 95.6643 220.756 95.6559 220.778 95.6547C220.788 95.6543 220.793 95.6494 220.797 95.6411C220.802 95.6298 220.809 95.619 220.808 95.6062C220.808 95.5929 220.812 95.5839 220.823 95.5749C220.841 95.5604 220.838 95.5383 220.819 95.5253Z" fill="#0085F9"/>
<path d="M124.965 89.6045H71.1914V123.616H124.965V89.6045Z" fill="#E3E9F7"/>
<path d="M122.025 92.6494H74.1289V120.571H122.025V92.6494Z" fill="#F4F6FC"/>
<path d="M124.964 83.4824H71.2109V89.6179H124.964V83.4824Z" fill="#CDD7FB"/>
<path d="M74.3254 87.2456C74.8956 87.2456 75.3579 86.8061 75.3579 86.2639C75.3579 85.7217 74.8956 85.2822 74.3254 85.2822C73.7552 85.2822 73.293 85.7217 73.293 86.2639C73.293 86.8061 73.7552 87.2456 74.3254 87.2456Z" fill="#E3E9F7"/>
<path d="M77.3371 87.2456C77.9072 87.2456 78.3694 86.8061 78.3694 86.2639C78.3694 85.7217 77.9072 85.2822 77.3371 85.2822C76.7669 85.2822 76.3047 85.7217 76.3047 86.2639C76.3047 86.8061 76.7669 87.2456 77.3371 87.2456Z" fill="#E3E9F7"/>
<path d="M80.3449 87.2456C80.9151 87.2456 81.3773 86.8061 81.3773 86.2639C81.3773 85.7217 80.9151 85.2822 80.3449 85.2822C79.7747 85.2822 79.3125 85.7217 79.3125 86.2639C79.3125 86.8061 79.7747 87.2456 80.3449 87.2456Z" fill="#E3E9F7"/>
<path d="M97.7574 117.832C103.955 117.832 108.98 112.808 108.98 106.61C108.98 100.412 103.955 95.3877 97.7574 95.3877C91.5595 95.3877 86.5352 100.412 86.5352 106.61C86.5352 112.808 91.5595 117.832 97.7574 117.832Z" fill="#407BFF"/>
<path d="M97.7552 116.369C95.1485 116.369 92.6978 115.354 90.8545 113.51C89.0112 111.667 87.9961 109.216 87.9961 106.61C87.9961 104.003 89.0112 101.552 90.8545 99.709C92.6978 97.8657 95.1485 96.8506 97.7552 96.8506C100.362 96.8506 102.813 97.8657 104.656 99.709C106.499 101.552 107.514 104.003 107.514 106.61C107.514 109.216 106.499 111.667 104.656 113.51C102.813 115.354 100.362 116.369 97.7552 116.369Z" fill="white"/>
<path d="M97.7569 114.906C95.541 114.906 93.4577 114.043 91.8908 112.477C90.3239 110.91 89.4609 108.826 89.4609 106.61C89.4609 104.394 90.3239 102.311 91.8908 100.744C93.4577 99.1773 95.541 98.3145 97.7569 98.3145C99.9729 98.3145 102.056 99.1774 103.623 100.744C105.19 102.311 106.053 104.395 106.053 106.61C106.053 108.826 105.19 110.91 103.623 112.477C102.056 114.044 99.9728 114.906 97.7569 114.906Z" fill="#407BFF"/>
<path d="M97.7586 113.443C95.9335 113.443 94.2176 112.732 92.927 111.442C91.6365 110.151 90.9258 108.435 90.9258 106.61C90.9258 104.785 91.6365 103.069 92.927 101.779C94.2176 100.488 95.9335 99.7773 97.7586 99.7773C99.5837 99.7773 101.3 100.488 102.59 101.779C103.881 103.069 104.591 104.785 104.591 106.61C104.591 108.435 103.881 110.151 102.59 111.442C101.3 112.732 99.5836 113.443 97.7586 113.443Z" fill="white"/>
<path d="M97.7564 111.98C96.3221 111.98 94.9737 111.421 93.9595 110.407C92.9453 109.393 92.3867 108.044 92.3867 106.61C92.3867 105.176 92.9453 103.827 93.9595 102.813C94.9737 101.799 96.3221 101.24 97.7564 101.24C99.1907 101.24 100.539 101.799 101.553 102.813C102.568 103.827 103.126 105.176 103.126 106.61C103.126 108.044 102.568 109.393 101.553 110.407C100.539 111.421 99.1907 111.98 97.7564 111.98Z" fill="#407BFF"/>
<path d="M97.7581 110.516C96.7147 110.516 95.7336 110.11 94.9958 109.372C94.2579 108.634 93.8516 107.653 93.8516 106.61C93.8516 105.566 94.2579 104.585 94.9958 103.847C95.7336 103.109 96.7147 102.703 97.7581 102.703C98.8016 102.703 99.7826 103.109 100.52 103.847C101.258 104.585 101.665 105.566 101.665 106.61C101.665 107.653 101.258 108.634 100.52 109.372C99.7826 110.11 98.8016 110.516 97.7581 110.516Z" fill="white"/>
<path d="M97.756 109.054C97.1033 109.054 96.4897 108.8 96.0282 108.338C95.5667 107.877 95.3125 107.263 95.3125 106.61C95.3125 105.958 95.5667 105.344 96.0282 104.883C96.4896 104.421 97.1032 104.167 97.7559 104.167C98.4085 104.167 99.0222 104.421 99.4836 104.883C99.9451 105.344 100.199 105.958 100.199 106.61C100.199 107.263 99.9452 107.877 99.4836 108.338C99.0222 108.8 98.4086 109.054 97.756 109.054Z" fill="#407BFF"/>
<path d="M97.7576 107.59C97.4919 107.59 97.2523 107.491 97.0644 107.303C96.8766 107.116 96.7773 106.876 96.7773 106.61C96.7773 106.345 96.8766 106.105 97.0645 105.917C97.2523 105.729 97.492 105.63 97.7576 105.63C98.0233 105.63 98.2629 105.729 98.4508 105.917C98.6386 106.105 98.7379 106.345 98.7379 106.61C98.7379 106.876 98.6386 107.115 98.4508 107.303C98.2629 107.491 98.0232 107.59 97.7576 107.59Z" fill="white"/>
<path d="M98.4062 106.133L107.349 100.236" stroke="#040C2B" stroke-width="0.243318" stroke-miterlimit="10"/>
<path d="M98.4887 106.079C98.561 105.727 98.3854 105.24 98.2017 104.943C98.1684 105.526 98.0151 106.117 97.6836 106.61C98.2619 106.491 98.8619 106.614 99.4191 106.79C99.1885 106.495 98.8629 106.166 98.4887 106.079Z" fill="#040C2B"/>
<path d="M108.326 100.629L108.271 100.613L107.297 100.418L109.059 99.2559L110.098 99.4604L108.326 100.629Z" fill="#040C2B"/>
<path d="M109.161 98.0391L108.926 99.0539L107.164 100.216C107.28 99.8924 107.354 99.5519 107.395 99.2041L109.161 98.0391Z" fill="#040C2B"/>
<path d="M193.816 151.773C191.425 146.121 188.005 141.048 183.65 136.693C179.295 132.338 174.221 128.917 168.57 126.527C162.715 124.051 156.5 122.795 150.098 122.795C143.696 122.795 137.481 124.051 131.626 126.527C125.975 128.917 120.901 132.338 116.546 136.693C112.191 141.048 108.771 146.121 106.381 151.773C103.904 157.628 102.648 163.842 102.648 170.245C102.648 176.647 103.904 182.862 106.381 188.717C108.771 194.368 112.191 199.442 116.546 203.797C120.901 208.152 125.975 211.572 131.626 213.962C137.481 216.439 143.696 217.694 150.098 217.694C156.5 217.694 162.715 216.439 168.57 213.962C174.221 211.572 179.295 208.152 183.65 203.797C188.005 199.441 191.425 194.368 193.816 188.717C196.292 182.862 197.548 176.647 197.548 170.245C197.548 163.842 196.292 157.628 193.816 151.773ZM150.098 209.719C128.297 209.719 110.623 192.046 110.623 170.245C110.623 148.443 128.297 130.77 150.098 130.77C171.899 130.77 189.573 148.443 189.573 170.245C189.573 192.046 171.899 209.719 150.098 209.719Z" fill="#0085F9"/>
<path d="M117.152 156.329C117.845 154.125 118.854 152.015 120.087 150.042C121.323 148.069 122.791 146.237 124.44 144.588C126.089 142.938 127.921 141.47 129.893 140.234C131.866 139 133.977 137.991 136.182 137.3C134.152 138.399 132.199 139.587 130.361 140.927C128.521 142.262 126.795 143.738 125.192 145.339C123.589 146.941 122.113 148.668 120.778 150.508C119.438 152.346 118.25 154.299 117.152 156.329Z" fill="#407BFF"/>
<path d="M224.575 244.295L183.09 208.623C179.132 205.22 178.683 199.254 182.086 195.297C185.488 191.339 191.455 190.89 195.412 194.293L236.897 229.965C240.855 233.368 241.304 239.334 237.901 243.291C234.498 247.249 228.532 247.698 224.575 244.295Z" fill="#0085F9"/>
<path d="M183.524 188.022H150.727V182.603C150.727 175.058 156.844 168.94 164.39 168.94H169.861C177.407 168.94 183.524 175.058 183.524 182.603L183.524 188.022Z" fill="#BDC9F9" stroke="white" stroke-width="1.10881" stroke-miterlimit="10"/>
<path d="M175.592 168.143C180.268 163.467 180.268 155.885 175.592 151.209C170.916 146.533 163.334 146.533 158.658 151.209C153.982 155.885 153.982 163.467 158.658 168.143C163.334 172.819 170.916 172.819 175.592 168.143Z" fill="#BDC9F9" stroke="white" stroke-width="1.10881" stroke-miterlimit="10"/>
<path d="M150.727 188.022H117.93V182.603C117.93 175.058 124.047 168.94 131.593 168.94H137.064C144.61 168.94 150.727 175.058 150.727 182.603L150.727 188.022Z" fill="#BDC9F9" stroke="white" stroke-width="1.10881" stroke-miterlimit="10"/>
<path d="M142.791 168.143C147.468 163.467 147.468 155.885 142.791 151.209C138.115 146.533 130.534 146.533 125.858 151.209C121.181 155.885 121.181 163.467 125.858 168.143C130.534 172.819 138.115 172.819 142.791 168.143Z" fill="#BDC9F9" stroke="white" stroke-width="1.10881" stroke-miterlimit="10"/>
<path d="M167.126 196.594H134.328V191.176C134.328 183.63 140.445 177.513 147.991 177.513H153.463C161.009 177.513 167.126 183.63 167.126 191.176L167.126 196.594Z" fill="#BDC9F9" stroke="white" stroke-width="1.10881" stroke-miterlimit="10"/>
<path d="M159.19 176.715C163.866 172.039 163.866 164.457 159.19 159.781C154.514 155.105 146.932 155.105 142.256 159.781C137.58 164.457 137.58 172.039 142.256 176.715C146.932 181.391 154.514 181.391 159.19 176.715Z" fill="#BDC9F9" stroke="white" stroke-width="1.10881" stroke-miterlimit="10"/>
<path d="M223.315 213.953L221.645 215.914C221.645 215.914 218.533 216.415 216.503 217.583C216.503 218.052 217.004 218.381 217.482 218.226L219.345 217.625L216.322 221.213C216.322 221.213 215.42 224.968 219.525 223.216C219.525 223.216 223.405 220.796 223.675 217.708L226.021 214.913L224.397 213.202L223.315 213.953Z" fill="#DE995F"/>
<path d="M236.214 190.589L235.785 194.661L234.68 205.15L226.515 218.001L224.297 216.103L224.295 216.102L222.668 214.711L227.154 207.375C227.55 206.727 227.99 206.102 228.494 205.522C230.279 203.467 230.849 198.451 231.031 195.367C231.121 193.85 231.117 192.8 231.117 192.8L236.214 190.589Z" fill="white"/>
<path d="M231.705 185.874L231.209 192.258C231.209 192.258 230.079 191.997 228.773 191.783C227.318 191.545 225.645 191.366 225.074 191.674L227.671 184.672L228.277 183.037C228.277 183.037 229.224 185.749 231.705 185.874Z" fill="#CC8B5B"/>
<path opacity="0.15" d="M228.773 191.783C227.318 191.545 225.645 191.366 225.074 191.674L227.671 184.672L227.939 184.727L228.773 191.783Z" fill="black"/>
<path d="M218.172 183.037C218.172 183.037 214.879 189.713 225.255 192.925C225.255 192.925 229.071 194.244 227.591 184.886C227.591 184.886 225.119 176.153 218.172 183.037Z" fill="#DE995F"/>
<path d="M219.116 184.414C219.116 184.414 219.207 186.208 217.898 188.377C217.898 188.377 213.838 188.711 217.402 181.243C217.402 181.243 220.064 174.943 227.146 180.074C227.146 180.074 228.802 184.51 229.44 184.837L227.485 185.165C227.485 185.165 224.169 181.535 223.763 185.165C223.763 185.165 224.034 186.583 224.845 187.292L224.53 187.877L222.816 186.708C222.816 186.708 220.515 184.122 219.116 184.414Z" fill="black"/>
<path d="M240.139 239.779C240.139 239.779 241.673 240.781 241.583 242.95V245.537L239.1 245.682C238.514 245.717 238.019 245.287 238.019 244.744C238.019 244.744 235.989 246.205 233.508 246.747C233.508 246.747 230.183 247.385 228.185 245.957C227.877 245.738 227.797 245.338 228.01 245.037C228.322 244.597 229.177 244.053 231.422 243.775C231.627 243.75 231.823 243.682 231.996 243.578C232.583 243.227 233.991 242.276 235.696 240.384L240.139 239.779Z" fill="#040C2B"/>
<path d="M262.087 235.628C262.087 235.628 264.478 236.838 265.267 238.11L264.078 240.797C263.842 241.332 263.169 241.572 262.605 241.323C262.605 241.323 262.647 244.381 260.635 246.433C260.485 246.586 260.282 246.684 260.061 246.714C259.126 246.839 256.401 247.095 254.125 246.246C254.125 246.246 252.275 245.036 256.019 244.202C256.019 244.202 258.636 244.035 258.41 241.532L258.23 238.653L260.485 235.941L262.087 235.628Z" fill="#040C2B"/>
<path d="M249.568 207.11C249.568 207.11 249.427 207.721 249.028 208.705C248.846 209.154 248.611 209.681 248.31 210.262C247.338 212.143 245.689 214.599 242.985 216.863C241.344 218.239 239.313 219.543 236.81 220.606C236.365 220.794 236.126 221.247 236.238 221.688C236.664 223.365 237.667 227.673 238.331 233.46C238.365 233.752 238.433 234.04 238.533 234.318L240.704 240.306L240.073 240.342L233.644 240.697L229.809 222.631C229.809 222.631 228.231 217.833 233.057 213.995C233.057 213.995 238.88 209.323 241.541 207.628C241.758 207.49 241.955 207.372 242.125 207.277L246.006 207.19L249.568 207.11Z" fill="#081956"/>
<path opacity="0.15" d="M236.238 221.688C236.664 223.365 237.666 227.673 238.331 233.46C238.364 233.752 238.432 234.04 238.533 234.319L240.704 240.307L240.073 240.342L238.019 234.147L236.215 223.883C234.997 220.378 236.621 220.086 236.621 220.086C238.154 219.753 242.53 216.54 242.53 216.54L244.983 210.465L248.309 210.263C246.748 213.286 243.435 217.794 236.81 220.606C236.364 220.794 236.126 221.247 236.238 221.688Z" fill="black"/>
<path d="M224.575 244.296L178.259 204.469C176.97 203.361 176.823 201.417 177.932 200.128L186.24 190.466C187.349 189.177 189.292 189.03 190.581 190.139L236.898 229.965C240.855 233.368 241.304 239.335 237.902 243.292C234.499 247.249 228.533 247.699 224.575 244.296Z" fill="#0085F9"/>
<path d="M262.672 235.896C262.672 235.896 262.576 236.124 262.403 236.496C261.785 237.824 260.179 240.977 258.414 242.062L243.071 236.024C243.071 236.024 236.711 233.229 239.959 226.553L242.985 216.863L245.436 209.016L246.006 207.19L246.5 205.608L252.906 201.687C252.906 201.687 254.176 202.879 255.157 204.834C255.16 204.842 255.164 204.849 255.168 204.857C256.265 207.053 256.993 210.204 255.161 213.703L245.868 228.973L262.672 235.896Z" fill="#081956"/>
<path opacity="0.15" d="M255.159 204.834C252.952 207.038 250.869 208.184 249.03 208.705C247.686 209.086 246.473 209.133 245.438 209.016C243.121 208.755 241.698 207.674 241.698 207.674L241.543 207.628C241.76 207.49 241.956 207.372 242.126 207.277L246.008 207.19L246.502 205.608L252.908 201.687C252.908 201.687 254.178 202.879 255.159 204.834Z" fill="black"/>
<path opacity="0.15" d="M235.787 194.66L234.682 205.15L226.517 218L224.299 216.103L224.297 216.101L229.851 206.55L231.231 203.46L231.033 195.367C231.348 195.32 231.663 195.273 231.977 195.226C233.247 195.037 234.517 194.849 235.787 194.66Z" fill="black"/>
<path d="M224.328 217.396L221.824 219.92C221.824 219.92 219.298 219.043 216.005 220.295C216.005 220.77 216.439 221.145 216.951 221.115L219.479 220.963L215.419 224.926C215.419 224.926 215.148 228.974 218.712 227.221C218.712 227.221 222.501 225.052 223.99 222.84L227.035 220.024L224.328 217.396Z" fill="#DE995F"/>
<path d="M254.995 204.52C254.995 204.52 248.763 210.666 241.497 207.657L235.449 201.686C235.449 201.686 232.588 198.246 231.033 195.366H231.033C230.54 194.454 230.156 192.7 230.059 192.028L230.517 190.588L231.389 185.915C231.389 185.915 238.6 185.351 243.057 189.836C243.987 190.772 245.005 191.629 246.078 192.422C248.775 194.415 253.516 198.633 254.995 204.52Z" fill="white"/>
<path opacity="0.15" d="M232.779 198.157C232.779 198.157 230.869 193.697 232.899 190.609L234.91 198.157H232.779Z" fill="black"/>
<path opacity="0.15" d="M237.247 203.463L239.552 196.054C239.552 196.054 239.575 185.143 232.898 191.026C233.097 191.731 233.296 192.435 233.494 193.139C234.25 195.821 235.007 198.504 235.763 201.186C235.763 201.951 235.763 202.716 235.763 203.48L236.489 202.715L237.247 203.463Z" fill="black"/>
<path d="M226.922 212.868L223.223 218.459L226.019 221.004C226.019 221.004 232.47 214.62 234.004 211.658L239.056 196.763C239.056 196.763 240.184 190.171 235.763 189.462C235.763 189.462 231.027 189.253 232.606 196.012L232.831 198.807L230.305 206.276L226.922 212.868Z" fill="white"/>
<path opacity="0.15" d="M235.764 221.004C235.764 221.004 232.922 220.253 231.93 218C231.93 218 232.877 221.087 235.764 221.004Z" fill="black"/>
<path opacity="0.15" d="M235.761 222.112C235.761 222.112 232.944 222.569 231.906 222.11C231.906 222.11 233.978 223.073 235.761 222.112Z" fill="black"/>
<path opacity="0.15" d="M245.891 228.994C245.891 228.994 244.086 228.869 241.695 230.413C241.695 230.413 243.635 228.661 245.891 228.994Z" fill="black"/>
<path opacity="0.15" d="M245.89 228.952C245.89 228.952 242.822 230.371 242.552 231.372C242.552 231.372 242.101 230.204 245.89 228.952Z" fill="black"/>
<path opacity="0.15" d="M262.673 235.896C262.673 235.896 262.577 236.125 262.404 236.496L245.375 228.953L253.471 215.393C257.44 209.343 254.748 205.233 254.748 205.233L255.169 204.857C256.266 207.054 256.994 210.204 255.162 213.703L245.869 228.973L262.673 235.896Z" fill="black"/>
<path d="M98.5779 187.482H83.6797L93.6011 168.595H108.499L98.5779 187.482Z" fill="#E3E9F7"/>
<path d="M100.053 176.011C100.075 175.666 100.011 175.357 99.8615 175.092C99.7121 174.827 99.4851 174.618 99.1866 174.473C98.8795 174.323 98.5103 174.246 98.0895 174.245H98.085L97.6875 175.002H97.692C98.9674 175.006 99.5022 175.958 98.8876 177.132H99.7116C99.9151 176.744 100.03 176.366 100.053 176.011Z" fill="#F6471E"/>
<path d="M97.9684 179.014C97.885 179.071 97.8 179.127 97.7133 179.18C97.2852 179.446 96.8394 179.654 96.3878 179.8C95.92 179.95 95.4677 180.027 95.043 180.027C94.6185 180.027 94.2466 179.95 93.9371 179.8C93.6389 179.654 93.4118 179.446 93.2624 179.18C93.1128 178.915 93.0484 178.606 93.0707 178.262C93.0939 177.905 93.2095 177.526 93.4143 177.136C93.6191 176.746 93.9014 176.367 94.2531 176.011C94.542 175.718 94.8669 175.45 95.2215 175.213C95.2833 175.172 95.3461 175.131 95.4101 175.092C95.8381 174.827 96.284 174.618 96.7353 174.473C97.2035 174.321 97.6557 174.245 98.0802 174.245H98.0845L97.687 175.002H97.6827C96.996 175.002 96.2351 175.276 95.5811 175.711C95.0132 176.089 94.526 176.588 94.2382 177.136C93.6191 178.315 94.1573 179.27 95.4404 179.27C96.1483 179.27 96.9346 178.98 97.6018 178.521L97.9669 179.012L97.9684 179.014Z" fill="#407BFF"/>
<path d="M99.7107 177.133L99.7088 177.136C99.504 177.526 99.2217 177.905 98.8698 178.262C98.5993 178.537 98.2969 178.789 97.9681 179.014L97.9667 179.012L97.6016 178.522C97.604 178.52 97.6064 178.518 97.6087 178.517C97.664 178.478 97.7186 178.439 97.772 178.399C98.2405 178.045 98.6368 177.609 98.8848 177.136L98.8868 177.133H99.7107Z" fill="#0085F9"/>
<path d="M102.987 172.949H101.428C101.385 172.949 101.367 172.917 101.387 172.878L101.418 172.82C101.438 172.781 101.49 172.749 101.532 172.749H103.092C103.135 172.749 103.153 172.781 103.132 172.82L103.102 172.878C103.082 172.917 103.03 172.949 102.987 172.949Z" fill="#407BFF"/>
<path d="M103.669 173.431H101.172C101.131 173.431 101.113 173.4 101.133 173.361L101.163 173.305C101.183 173.267 101.233 173.236 101.274 173.236H103.771C103.813 173.236 103.83 173.267 103.81 173.305L103.781 173.361C103.761 173.4 103.711 173.431 103.669 173.431Z" fill="#407BFF"/>
<path d="M94.5728 174.078H93.0129C92.9702 174.078 92.9188 174.11 92.8982 174.149L92.8679 174.207C92.8473 174.246 92.8653 174.278 92.908 174.278H94.4679C94.5107 174.278 94.562 174.246 94.5827 174.207L94.6129 174.149C94.6335 174.11 94.6156 174.078 94.5728 174.078Z" fill="#407BFF"/>
<path d="M95.7595 173.596H93.2626C93.221 173.596 93.1711 173.627 93.151 173.665L93.1216 173.721C93.1016 173.759 93.119 173.79 93.1605 173.79H95.6575C95.699 173.79 95.7489 173.759 95.769 173.721L95.7983 173.665C95.8184 173.627 95.801 173.596 95.7595 173.596Z" fill="#407BFF"/>
<path d="M98.5682 180.564H97.6708C97.6211 180.564 97.5613 180.601 97.5373 180.647L97.5022 180.714C97.4781 180.76 97.499 180.797 97.5487 180.797H98.4461C98.4959 180.797 98.5557 180.76 98.5796 180.714L98.6148 180.647C98.6388 180.601 98.618 180.564 98.5682 180.564Z" fill="#407BFF"/>
<path d="M100.155 180.122H97.8862C97.8461 180.122 97.7979 180.152 97.7786 180.189L97.7502 180.243C97.7309 180.28 97.7477 180.309 97.7878 180.309H100.057C100.097 180.309 100.145 180.28 100.165 180.243L100.193 180.189C100.212 180.152 100.195 180.122 100.155 180.122Z" fill="#407BFF"/>
<path d="M90.3776 181.219H89.2608C89.217 181.219 89.1986 181.186 89.2197 181.146L89.2507 181.087C89.2719 181.046 89.3246 181.014 89.3684 181.014H90.4852C90.5291 181.014 90.5475 181.046 90.5263 181.087L90.4953 181.146C90.4741 181.186 90.4214 181.219 90.3776 181.219Z" fill="#407BFF"/>
<path d="M91.7544 181.688H89.0104C88.9703 181.688 88.9536 181.658 88.9728 181.622L89.0012 181.568C89.0205 181.531 89.0686 181.501 89.1087 181.501H91.8527C91.8928 181.501 91.9097 181.531 91.8903 181.568L91.862 181.622C91.8427 181.658 91.7945 181.688 91.7544 181.688Z" fill="#407BFF"/>
<path d="M99.3711 175.441H101.483L102.253 173.976" stroke="#F6471E" stroke-width="0.016854" stroke-miterlimit="10"/>
<path d="M98.6562 178.083H99.7574L99.0526 179.425" stroke="#0085F9" stroke-width="0.016854" stroke-miterlimit="10"/>
<path d="M96.6819 174.698L97.7011 172.758H94.4877L94.2383 173.233" stroke="#0F31AC" stroke-width="0.016854" stroke-miterlimit="10"/>
<path d="M90.2305 180.436L91.1195 178.743H93.3667" stroke="#407BFF" stroke-width="0.016854" stroke-miterlimit="10"/>
<path d="M81.3592 166.535L80.5133 170.606L78.032 170.662L73.4286 170.765L71.5781 168.597C71.861 168.291 72.0672 167.678 72.2178 166.91C72.351 166.229 72.4404 165.425 72.4991 164.606C72.6715 162.202 72.5826 159.662 72.5826 159.662L79.0328 161.724C79.2444 164.791 81.3592 166.535 81.3592 166.535Z" fill="#C9885B"/>
<path d="M72.0538 155.116C72.0538 155.116 69.3067 163.408 75.6392 165.421C75.912 165.508 76.2057 165.504 76.4769 165.412C77.6433 165.02 80.6204 163.416 80.4074 157.283C80.4074 157.283 77.711 147.767 72.0538 155.116Z" fill="#DB965F"/>
<path d="M77.6217 211.813L77.5979 212.367L77.351 218.139C77.2722 219.989 76.8387 221.807 76.0747 223.493L73.1604 229.928C71.0075 234.808 70.5534 238.301 70.5883 240.474C70.5941 240.843 70.5042 241.186 70.3434 241.483C69.9215 242.263 69.0127 242.725 68.0716 242.5C67.1363 242.276 66.5039 241.441 66.5039 240.516C66.5039 240.373 66.5192 240.228 66.5504 240.083L67.2176 236.993C67.4323 235.999 67.5401 234.986 67.5454 233.969C67.5829 226.958 68.9327 224.043 69.6724 222.97C70.1572 222.267 70.4797 221.475 70.872 220.716C71.6001 219.308 71.6291 218.099 71.5795 217.494C71.561 217.263 71.5023 217.038 71.4076 216.827L70.1767 214.083C69.7099 213.043 70.1858 211.821 71.2336 211.371L74.7754 209.85C76.1577 209.256 77.6857 210.31 77.6217 211.813Z" fill="#DB965F"/>
<path opacity="0.15" d="M77.5999 212.366L77.353 218.138C77.2742 219.989 76.8407 221.806 76.0767 223.493L73.1624 229.927C71.0095 234.808 70.5554 238.3 70.5903 240.474C70.5961 240.842 70.5062 241.186 70.3454 241.483C68.5061 236.511 74.96 222.79 74.96 222.79C76.176 220.675 74.96 213.22 74.96 213.22L77.5999 212.366Z" fill="black"/>
<path d="M84.3705 210.841L81.9385 222.578L79.1364 242.193L76.11 243.947L75.4883 244.308C75.4883 244.308 76.3062 235.219 75.667 230.735C75.51 229.631 75.4708 228.512 75.5808 227.403C75.6707 226.497 75.8393 225.451 76.1534 224.492C76.5029 223.425 76.6811 222.309 76.6525 221.186L76.4744 214.249L76.3872 210.841H84.3705Z" fill="#DB965F"/>
<path d="M75.7009 240.546C75.7009 240.546 74.5556 243.663 75.0706 245.681C75.1574 246.021 75.4575 246.264 75.808 246.281C76.9117 246.334 79.4645 246.491 80.6429 246.835C80.6429 246.835 84.052 247.084 85.5613 246.51C85.9176 246.374 86.1373 246.012 86.0892 245.634C86.0135 245.039 85.711 244.113 84.6027 243.663L79.3492 240.574C79.3492 240.574 76.1358 242.636 75.7009 240.546Z" fill="#040C2B"/>
<path d="M66.7811 238.805C66.7811 238.805 65.2425 241.748 65.4923 243.816C65.5343 244.164 65.8005 244.443 66.1459 244.505C67.2335 244.701 69.7446 245.186 70.8687 245.68C70.8687 245.68 74.2169 246.367 75.7878 245.993C76.1587 245.905 76.4234 245.574 76.4246 245.193C76.4264 244.593 76.2461 243.636 75.2054 243.046L70.3953 239.304C70.3953 239.304 66.9423 240.933 66.7811 238.805Z" fill="#040C2B"/>
<path d="M84.8861 167.706L84.8713 168.108L84.6054 175.468L84.5398 177.287L84.2887 184.224L69.2306 185.75L68.622 185.811L68.5818 185.815L68.6189 184.771L68.723 181.815C68.7764 181.317 68.8129 180.827 68.8356 180.345C68.9435 178.028 68.7172 175.912 68.3613 174.11C67.886 171.702 67.1791 169.851 66.7266 168.822C66.7868 168.774 66.8196 168.756 66.8196 168.756L67.7396 168.44L68.4544 168.195L72.2125 166.905C72.214 166.907 72.2161 166.908 72.2178 166.91C74.4367 168.905 76.2936 169.322 77.7412 169.076C80.087 168.676 81.3591 166.535 81.3591 166.535L83.6124 167.286L84.267 167.504L84.3727 167.54C84.4494 167.56 84.5245 167.583 84.5985 167.606C84.6969 167.637 84.7931 167.67 84.8861 167.706Z" fill="#D0D6F8"/>
<path d="M73.1099 177.639L72.5812 177.797L72.1054 176.475C69.7791 169.708 67.7383 168.441 67.7383 168.441L68.4531 168.195C71.7205 171.797 72.7927 176.475 72.7927 176.475L73.1099 177.639Z" fill="#262C84"/>
<path d="M84.2639 167.505V176.476H83.9467L83.6094 167.287L84.2639 167.505Z" fill="#262C84"/>
<path d="M65.5506 173.515L64.8633 186.309L68.4056 187.102L68.5643 178.643L65.5506 173.515Z" fill="#DB965F"/>
<path d="M84.5033 188.674C83.1318 189.749 79.52 189.623 79.52 189.623L67.4273 191.173C66.6524 191.273 65.9309 190.998 65.4232 190.503C64.9241 190.018 64.6309 189.321 64.6966 188.556L64.7827 187.546L64.8258 187.04L64.8949 186.232L65.2558 186.262L66.4418 186.36L69.0451 186.575L75.0504 187.071C76.1905 187.03 77.4382 186.674 78.2327 186.404C78.6632 186.258 79.076 186.062 79.4542 185.81C80.223 185.298 81.1552 184.895 81.8947 184.62C82.6348 184.345 83.1824 184.198 83.1824 184.198C83.3133 184.57 83.1397 184.98 82.7813 185.143L81.2918 185.825L82.8696 185.701C83.4038 185.66 83.9423 185.768 84.4085 186.032C86.1538 187.018 84.5033 188.674 84.5033 188.674Z" fill="#DB965F"/>
<path d="M86.6434 197.682C86.6429 197.678 86.6429 197.674 86.6429 197.67C86.6429 197.518 86.6407 197.362 86.637 197.203C86.6323 196.997 86.6243 196.787 86.6138 196.573C86.387 191.973 84.9002 185.603 84.7977 185.169C84.794 185.153 84.7924 185.137 84.7929 185.121C84.8823 179.288 84.8194 176.394 84.7982 175.661C84.7966 175.608 84.7744 175.56 84.739 175.525C84.7036 175.491 84.6555 175.469 84.6021 175.468L84.5106 175.467L84.25 175.464L83.9629 175.461C83.9359 175.46 83.909 175.466 83.8836 175.476L68.8593 175.965L68.6245 180.826C68.5648 180.986 68.5336 181.095 68.5209 181.145C68.5161 181.164 68.514 181.184 68.515 181.203C68.5314 181.545 68.5452 181.885 68.5573 182.221C68.5895 183.095 68.6081 183.947 68.6155 184.771C68.6187 185.123 68.6197 185.469 68.6187 185.811C68.616 187.503 68.569 189.063 68.5018 190.44C68.3992 192.534 68.2502 194.205 68.137 195.279C68.0243 196.351 67.9546 197.428 67.9287 198.506C67.924 198.709 67.9191 198.909 67.9149 199.107C67.8663 201.291 67.8483 203.185 67.852 204.826C67.8684 212.272 68.3353 214.509 68.4711 215.005C68.4912 215.078 68.5499 215.132 68.6239 215.146C74.5015 216.287 84.593 214.872 85.9592 214.671C86.0501 214.657 86.1199 214.583 86.1279 214.492C87.0458 204.136 86.6566 197.889 86.6434 197.682Z" fill="#081956"/>
<path d="M103.078 179.769C102.56 179.634 102.011 179.666 101.505 179.843L100.011 180.364L101.278 179.325C101.582 179.076 101.646 178.635 101.424 178.309C101.424 178.309 100.933 178.591 100.287 179.046C99.642 179.5 98.8433 180.127 98.2305 180.818C97.929 181.158 97.58 181.454 97.201 181.705C96.5014 182.168 95.3857 182.83 94.2938 183.161L88.3607 184.213L88.0639 184.244L88.0454 182.723L87.9452 174.306L85.8152 174.747L85.5504 176.794L84.4929 183.393L84.4595 183.814L84.4453 184.662L84.4859 185.939C84.4935 186.179 84.518 186.418 84.5594 186.654L84.661 187.237C84.7925 187.993 85.2539 188.593 85.8602 188.934C86.4773 189.284 87.2449 189.365 87.9689 189.071L99.2665 184.488C99.2665 184.488 101.838 184.651 102.639 183.666C102.639 183.666 105.017 180.278 103.078 179.769Z" fill="#DB965F"/>
<path d="M90.8723 182.45L88.0956 183.219L85.5525 183.925L84.8118 184.13L84.5807 184.194L84.2852 184.225L84.5437 177.076L84.8827 167.706C87.7446 168.794 88.1231 171.823 88.1231 171.823L90.8723 182.45Z" fill="white"/>
<path d="M68.7218 181.815L68.5806 185.816L68.4046 185.833L60.7383 183.243L63.9634 174.36C65.1334 170.31 66.3801 169.095 66.7254 168.822C67.5872 170.783 69.3717 175.722 68.7218 181.815Z" fill="white"/>
<path d="M89.711 179.172C88.43 179.153 86.9062 178.511 85.484 177.699C82.9731 176.268 80.7758 174.307 80.7758 174.307C79.6677 173.113 79.0099 171.852 78.6399 170.648C77.6496 167.432 78.7139 164.632 78.7139 164.632C78.928 164.073 79.1104 163.573 79.2685 163.115V163.115C79.2987 163.029 79.3277 162.945 79.3557 162.862C79.3557 162.861 79.3557 162.861 79.3562 162.861C79.7507 161.694 79.9891 160.799 80.2111 159.858C80.3052 159.462 80.1704 159.046 79.8611 158.782L78.6081 157.706C78.3279 157.594 77.9594 156.682 77.6739 155.848C77.4206 155.107 77.2334 154.428 77.2334 154.428C77.2858 154.936 77.3037 155.449 77.3037 155.909C77.3043 156.837 77.2334 157.548 77.2334 157.548L75.383 157.6C75.5733 157.257 75.6061 156.729 75.5696 156.193C75.5057 155.242 75.2244 154.27 75.2244 154.27C75.1165 155.162 74.9838 155.823 74.8468 156.312C74.4477 157.735 74.0083 157.706 74.0083 157.706C74.2134 157.25 74.3525 156.801 74.444 156.378C74.7771 154.838 74.4842 153.635 74.4842 153.635L73.2893 156.567L72.7395 157.918C71.4706 159.927 72.1579 161.936 72.1579 161.936C72.3075 162.368 72.4276 162.772 72.5227 163.148C72.538 163.208 72.5523 163.267 72.5666 163.325C72.5666 163.326 72.5666 163.326 72.5666 163.326C72.7093 163.929 72.7876 164.46 72.8209 164.922C72.9541 166.773 72.3694 167.54 72.3694 167.54C72.2002 167.791 72.0098 168.03 71.8037 168.257L71.8031 168.258C69.7528 170.511 66.1307 171.558 66.1307 171.558C66.7651 170.712 66.7123 167.699 66.7123 167.699C65.602 172.933 63.9102 172.563 63.9102 172.563C64.9237 172.259 65.0728 170.511 65.4698 168.835C65.7373 167.706 66.6472 165.963 67.0348 164.87C67.4292 163.756 67.8776 162.386 68.263 161.176C68.788 159.53 69.1972 158.182 69.1972 158.182C69.2707 157.838 69.3479 157.512 69.4283 157.201C71.2074 150.341 74.643 151.309 74.643 151.309C78.0066 150.249 80.0548 152.442 81.2957 155.253C82.9025 158.895 83.1552 163.575 83.1552 163.575C83.2382 164.899 83.9831 166.512 84.6768 167.751C85.4032 169.048 85.915 170.455 86.163 171.921C86.22 172.259 86.2835 172.581 86.3517 172.887C87.2029 173.898 88.2169 174.862 89.1443 175.119C89.1908 175.132 89.2374 175.143 89.2834 175.152C89.2395 175.146 89.1925 175.137 89.1428 175.127C88.5459 175.002 87.563 174.617 86.4866 173.452C87.2712 176.514 88.4952 177.797 88.4952 177.797C88.1779 178.061 85.9309 176.184 85.9309 176.184C86.1244 176.701 87.4906 177.7 88.5253 178.4C89.1854 178.847 89.711 179.172 89.711 179.172Z" fill="black"/>
<path d="M89.6836 175.183C89.7177 175.182 89.7357 175.18 89.7357 175.18C89.7185 175.181 89.701 175.182 89.6836 175.183Z" fill="black"/>
<path d="M89.6835 175.183C89.6134 175.185 89.4744 175.183 89.2812 175.152C89.4179 175.18 89.5522 175.19 89.6835 175.183Z" fill="black"/>
<path d="M68.8542 173.541C68.8542 173.541 65.9463 178.247 66.7394 181.207C66.7394 181.207 65.2591 177.559 68.8542 173.541Z" fill="black"/>
<path d="M82.0716 173.012L81.3843 162.808L80.4326 156.04L77.2961 152.627L71.6032 153.449L68.5896 164.605C68.5896 164.605 63.3026 171.267 66.7392 179.197C66.7392 179.197 67.4567 180.935 69.2324 182.379C70.8266 180.485 71.4598 175.88 71.4598 175.88C71.3693 180.963 69.2382 182.375 69.2324 182.379C69.3053 182.438 69.3756 182.498 69.4439 182.558C74.8444 187.28 83.2214 185.812 86.5809 179.473C86.6291 179.382 86.6769 179.29 86.7243 179.198L82.0716 173.012Z" fill="black"/>
<path d="M109.629 151.016H98.0977V127.065" stroke="#0085F9" stroke-width="0.221763" stroke-miterlimit="10"/>
<path d="M156.715 127.065V92.6182" stroke="#0085F9" stroke-width="0.221763" stroke-miterlimit="10"/>
<path d="M191.758 149.325H227.905" stroke="#0085F9" stroke-width="0.221763" stroke-miterlimit="10"/>
<path d="M175.938 135.418H220.29V123.591" stroke="#0085F9" stroke-width="0.221763" stroke-miterlimit="10"/>
<path d="M98.0773 129.431C98.9959 129.431 99.7405 128.686 99.7405 127.768C99.7405 126.849 98.9959 126.104 98.0773 126.104C97.1587 126.104 96.4141 126.849 96.4141 127.768C96.4141 128.686 97.1587 129.431 98.0773 129.431Z" fill="#0085F9"/>
<path d="M156.714 95.2796C157.633 95.2796 158.377 94.5349 158.377 93.6163C158.377 92.6978 157.633 91.9531 156.714 91.9531C155.795 91.9531 155.051 92.6978 155.051 93.6163C155.051 94.5349 155.795 95.2796 156.714 95.2796Z" fill="#0085F9"/>
<path d="M220.3 125.513C221.219 125.513 221.963 124.768 221.963 123.85C221.963 122.931 221.219 122.187 220.3 122.187C219.381 122.187 218.637 122.931 218.637 123.85C218.637 124.768 219.381 125.513 220.3 125.513Z" fill="#0085F9"/>
<path d="M228.163 150.989C229.082 150.989 229.826 150.244 229.826 149.325C229.826 148.407 229.082 147.662 228.163 147.662C227.245 147.662 226.5 148.407 226.5 149.325C226.5 150.244 227.245 150.989 228.163 150.989Z" fill="#0085F9"/>
</svg>
