<svg width="250" height="251" viewBox="0 0 250 251" fill="none" xmlns="http://www.w3.org/2000/svg">
<g clip-path="url(#clip0_699_7363)">
<path d="M280 213.194H-30V213.349H280V213.194Z" fill="#EBEBEB"/>
<path d="M248.938 223.173H228.402V223.328H248.938V223.173Z" fill="#EBEBEB"/>
<path d="M175.358 224.855H169.969V225.01H175.358V224.855Z" fill="#EBEBEB"/>
<path d="M227.782 217.415H215.883V217.57H227.782V217.415Z" fill="#EBEBEB"/>
<path d="M29.3031 218.457H2.52344V218.612H29.3031V218.457Z" fill="#EBEBEB"/>
<path d="M38.7507 218.457H34.8242V218.612H38.7507V218.457Z" fill="#EBEBEB"/>
<path d="M109.591 221.076H51.5117V221.231H109.591V221.076Z" fill="#EBEBEB"/>
<path d="M116.948 185.543H-2.77354C-4.72468 185.543 -6.3125 183.956 -6.3125 182.005V13.7167C-6.3125 11.7656 -4.72468 10.1777 -2.77354 10.1777H116.948C118.898 10.1777 120.486 11.7656 120.486 13.7167V182.005C120.486 183.956 118.898 185.543 116.948 185.543ZM-2.77354 10.3334C-4.63974 10.3334 -6.1575 11.8511 -6.1575 13.7173V182.005C-6.1575 183.871 -4.63974 185.389 -2.77354 185.389H116.948C118.813 185.389 120.331 183.871 120.331 182.005V13.7167C120.331 11.8511 118.813 10.3327 116.948 10.3327L-2.77354 10.3334Z" fill="#EBEBEB"/>
<path d="M251.052 185.543H131.331C129.38 185.543 127.793 183.956 127.793 182.005V13.7167C127.793 11.7656 129.381 10.1777 131.331 10.1777H251.052C253.004 10.1777 254.591 11.7656 254.591 13.7167V182.005C254.592 183.956 253.004 185.543 251.052 185.543ZM131.331 10.3334C129.466 10.3334 127.948 11.8511 127.948 13.7173V182.005C127.948 183.871 129.466 185.389 131.331 185.389H251.052C252.918 185.389 254.436 183.871 254.436 182.005V13.7167C254.436 11.8511 252.918 10.3327 251.052 10.3327L131.331 10.3334Z" fill="#EBEBEB"/>
<path d="M192.78 94.0634C210.731 94.0634 225.283 79.5113 225.283 61.5605C225.283 43.6096 210.731 29.0576 192.78 29.0576C174.829 29.0576 160.277 43.6096 160.277 61.5605C160.277 79.5113 174.829 94.0634 192.78 94.0634Z" fill="#E0E0E0"/>
<path d="M190.311 94.0634C208.262 94.0634 222.814 79.5113 222.814 61.5605C222.814 43.6096 208.262 29.0576 190.311 29.0576C172.361 29.0576 157.809 43.6096 157.809 61.5605C157.809 79.5113 172.361 94.0634 190.311 94.0634Z" fill="#F5F5F5"/>
<path d="M211.548 82.8004C223.278 71.0705 223.278 52.0526 211.548 40.3227C199.819 28.5928 180.801 28.5928 169.071 40.3227C157.341 52.0526 157.341 71.0705 169.071 82.8003C180.801 94.5302 199.819 94.5302 211.548 82.8004Z" fill="white"/>
<path d="M195.427 83.4239C195.099 83.4239 194.8 83.2001 194.719 82.8665L189.603 61.7313C189.508 61.3407 189.748 60.947 190.139 60.8522C190.528 60.7561 190.923 60.9973 191.018 61.3885L196.135 82.5237C196.229 82.9143 195.989 83.308 195.599 83.4028C195.541 83.4177 195.484 83.4239 195.427 83.4239Z" fill="#F5F5F5"/>
<path d="M190.311 63.0178C189.937 63.0178 189.565 62.8758 189.281 62.5912L171.704 45.0142C171.135 44.4457 171.135 43.5237 171.704 42.9552C172.273 42.386 173.194 42.386 173.763 42.9552L190.311 59.5018L199.96 49.8527C200.529 49.2835 201.451 49.2835 202.02 49.8527C202.588 50.4212 202.588 51.3432 202.02 51.9117L191.34 62.5912C191.056 62.8758 190.684 63.0178 190.311 63.0178Z" fill="#EBEBEB"/>
<path d="M107.327 208.667H112.223V175.126H107.327V208.667Z" fill="#F0F0F0"/>
<path d="M8.25211 213.192H108.992V208.666H8.25211V213.192Z" fill="#F0F0F0"/>
<path d="M107.329 175.126H5.01953V208.667H107.329V175.126Z" fill="#F5F5F5"/>
<path d="M100.712 180.963H11.6406V200.119H100.712V180.963Z" fill="#F0F0F0"/>
<path d="M34.5033 183.531H77.8438C78.6517 183.531 79.312 182.87 79.312 182.063V181.787C79.312 180.979 78.651 180.318 77.8438 180.318H34.5033C33.6961 180.318 33.0352 180.979 33.0352 181.787V182.063C33.0352 182.871 33.6961 183.531 34.5033 183.531Z" fill="#F5F5F5"/>
<path d="M2.77566 175.125H107.328V172.129H2.77566V175.125Z" fill="#F0F0F0"/>
<path d="M114.577 172.13H107.328V175.126H114.577V172.13Z" fill="#E6E6E6"/>
<path d="M236.406 139.712H226.859V213.194H236.406V139.712Z" fill="#F0F0F0"/>
<path d="M143.292 213.194H226.859V139.713H143.292V213.194Z" fill="#F5F5F5"/>
<path d="M142.527 206.744H215.898V167.443H142.527V206.744Z" fill="#FAFAFA"/>
<path d="M142.527 163.271H215.898V150.333H142.527V163.271Z" fill="#FAFAFA"/>
<path opacity="0.7" d="M216.553 167.442H215.898V206.744H216.553V167.442Z" fill="#E6E6E6"/>
<path opacity="0.7" d="M216.553 150.332H215.898V163.271H216.553V150.332Z" fill="#E6E6E6"/>
<path opacity="0.7" d="M236.404 142.812H143.078V144.474H236.404V142.812Z" fill="#E6E6E6"/>
<path d="M237.522 138.707H226.859V143.513H237.522V138.707Z" fill="#F0F0F0"/>
<path d="M142.177 143.513H226.859V138.707H142.177V143.513Z" fill="#F5F5F5"/>
<path d="M173.947 124.56C173.327 123.689 173.038 122.622 172.832 121.573C172.674 120.514 172.594 119.429 172.669 118.36C172.801 116.22 173.267 114.105 174.019 112.126C174.351 111.115 174.834 110.174 175.261 109.209C175.754 108.278 176.255 107.352 176.808 106.461C177.389 105.587 177.984 104.724 178.617 103.892C179.292 103.087 179.959 102.282 180.699 101.536C180.341 102.535 179.909 103.475 179.485 104.414C179.06 105.352 178.68 106.306 178.24 107.223L177.042 110.018L176.492 111.424L176.204 112.121L175.958 112.83C175.242 114.704 174.687 116.616 174.274 118.559C174.064 119.532 173.918 120.516 173.84 121.516C173.762 122.517 173.756 123.529 173.947 124.56Z" fill="#E6E6E6"/>
<path d="M161.907 126.202C161.962 124.614 161.865 123.12 161.518 121.743C161.177 120.368 160.568 119.15 159.7 118.123C158.821 117.101 157.695 116.261 156.425 115.543C155.159 114.809 153.758 114.228 152.309 113.55C153.898 113.381 155.515 113.542 157.073 114.056C157.853 114.311 158.613 114.663 159.33 115.112C160.04 115.572 160.703 116.13 161.273 116.788C162.403 118.115 163.053 119.842 163.12 121.522C163.188 123.202 162.782 124.854 161.907 126.202Z" fill="#E6E6E6"/>
<path d="M162.445 125.986C162.381 124.179 162.235 122.454 161.954 120.779C161.671 119.108 161.255 117.493 160.597 115.998C159.954 114.496 159.079 113.12 157.972 111.882C156.864 110.643 155.522 109.574 154.051 108.509C155.844 108.776 157.589 109.534 159.075 110.693C160.556 111.859 161.75 113.433 162.49 115.181C163.252 116.923 163.573 118.813 163.565 120.656C163.541 122.498 163.222 124.334 162.445 125.986Z" fill="#E6E6E6"/>
<path d="M173.118 122.817C171.736 121.084 170.659 119.15 169.708 117.168C168.773 115.176 168.007 113.102 167.407 110.978C166.792 108.859 166.413 106.667 166.211 104.465C166.02 102.262 166.102 100.024 166.515 97.8564C166.968 100.029 167.312 102.134 167.814 104.22C168.304 106.302 168.8 108.371 169.393 110.423C169.971 112.477 170.579 114.527 171.215 116.582C171.843 118.642 172.503 120.695 173.118 122.817Z" fill="#E6E6E6"/>
<path d="M172.562 122.663C170.99 121.182 169.681 119.472 168.481 117.7C167.295 115.917 166.255 114.035 165.362 112.082C164.46 110.133 163.762 108.085 163.23 105.999C162.719 103.907 162.441 101.745 162.516 99.5938C163.296 101.61 163.974 103.574 164.774 105.503C165.572 107.428 166.368 109.341 167.24 111.23C168.102 113.122 168.985 115.008 169.886 116.901C170.78 118.8 171.696 120.692 172.562 122.663Z" fill="#E6E6E6"/>
<path d="M174.864 124.645C173.099 123.753 171.532 122.557 170.062 121.265C168.603 119.958 167.269 118.509 166.07 116.949C164.859 115.401 163.845 113.691 162.995 111.913C162.157 110.128 161.567 108.214 161.32 106.264C162.385 107.931 163.327 109.561 164.409 111.118C165.481 112.672 166.551 114.211 167.71 115.698C168.856 117.192 170.029 118.671 171.23 120.147C172.427 121.629 173.651 123.094 174.864 124.645Z" fill="#E6E6E6"/>
<path d="M171.495 122.672C169.786 122.01 168.256 120.982 166.856 119.822C165.456 118.655 164.2 117.312 163.113 115.843C162.551 115.12 162.08 114.332 161.6 113.555C161.178 112.741 160.723 111.948 160.403 111.086C159.68 109.409 159.259 107.602 159.109 105.793C160.081 107.349 160.881 108.891 161.845 110.344C162.284 111.091 162.8 111.789 163.258 112.516C163.771 113.211 164.232 113.935 164.767 114.612C165.789 115.997 166.862 117.349 167.992 118.674C169.117 120.008 170.282 121.314 171.495 122.672Z" fill="#E6E6E6"/>
<path d="M174.137 123.737C173.323 123.216 172.741 122.379 172.289 121.514C171.875 120.63 171.54 119.684 171.393 118.715C171.072 116.778 171.153 114.791 171.554 112.913C171.731 111.965 172.024 111.053 172.299 110.139C172.649 109.253 172.966 108.354 173.389 107.507C173.823 106.665 174.26 105.826 174.76 105.027C175.295 104.244 175.82 103.463 176.425 102.733C176.228 103.673 175.951 104.56 175.682 105.446C175.401 106.325 175.19 107.225 174.903 108.088C174.641 108.96 174.435 109.842 174.172 110.704L173.867 112.012C173.764 112.447 173.635 112.878 173.576 113.317C173.201 115.058 173.005 116.807 173.002 118.557C172.994 119.435 173.077 120.307 173.239 121.179C173.401 122.053 173.668 122.913 174.137 123.737Z" fill="#E6E6E6"/>
<path d="M172.988 121.756C171.601 120.356 170.685 118.529 170.114 116.62C169.561 114.701 169.347 112.653 169.574 110.647C169.608 110.143 169.732 109.652 169.81 109.155L169.956 108.415L170.174 107.695C170.332 107.219 170.47 106.737 170.649 106.271C170.854 105.816 171.068 105.365 171.284 104.918L171.614 104.252L172.016 103.626L172.839 102.4C173.449 101.628 174.12 100.906 174.817 100.232C174.494 101.172 174.065 102.019 173.721 102.899L173.231 104.22L172.978 104.869L172.783 105.537C172.651 105.979 172.517 106.418 172.373 106.851L172.068 108.184L171.909 108.845L171.815 109.518C171.757 109.966 171.646 110.408 171.624 110.859C171.419 112.654 171.474 114.465 171.695 116.281C171.916 118.105 172.344 119.917 172.988 121.756Z" fill="#E6E6E6"/>
<path d="M170.37 121.003L161.484 113.096L162.801 123.827L170.37 121.003Z" fill="#E6E6E6"/>
<path d="M153.25 119.56H179.025L175.65 138.708H156.625L153.25 119.56Z" fill="#F5F5F5"/>
<path d="M169.352 119.56H179.024L175.65 138.708H170.569L169.352 119.56Z" fill="#EBEBEB"/>
<path d="M201.796 124.599C201.919 123.712 201.874 122.87 201.69 122.057C201.512 121.25 201.272 120.476 200.923 119.74C200.245 118.268 199.356 116.896 198.3 115.614C198.069 115.273 197.765 114.979 197.494 114.663C197.219 114.348 196.958 114.023 196.67 113.715C196.07 113.123 195.52 112.478 194.908 111.88C194.287 111.293 193.705 110.652 193.081 110.046C192.461 109.435 191.831 108.826 191.246 108.133C192.085 108.444 192.88 108.84 193.685 109.233C194.478 109.641 195.208 110.153 195.957 110.644C196.336 110.883 196.675 111.178 197.023 111.462C197.373 111.745 197.711 112.041 198.055 112.333C198.697 112.969 199.343 113.609 199.911 114.327C201.068 115.735 201.983 117.41 202.456 119.226C202.696 120.13 202.775 121.088 202.697 122.017C202.608 122.94 202.349 123.875 201.796 124.599Z" fill="#E6E6E6"/>
<path d="M216.289 122C215.638 121.47 215.182 120.708 214.893 119.879C214.729 119.463 214.683 119.019 214.617 118.568C214.599 118.344 214.617 118.118 214.621 117.89C214.63 117.662 214.623 117.428 214.685 117.21C214.997 115.395 216.065 113.827 217.313 112.646C217.626 112.347 217.974 112.102 218.304 111.83C218.646 111.574 218.973 111.294 219.344 111.098C219.708 110.887 220.068 110.672 220.436 110.472C220.62 110.373 220.799 110.264 220.986 110.175L221.561 109.934C221.944 109.775 222.329 109.623 222.716 109.478C223.099 109.326 223.489 109.192 223.892 109.101C224.698 108.908 225.495 108.713 226.316 108.608C225.663 109.139 224.985 109.578 224.315 110.021C223.972 110.225 223.646 110.457 223.325 110.689C223 110.917 222.674 111.138 222.347 111.353C221.672 111.757 221.096 112.273 220.461 112.704C220.136 112.914 219.864 113.173 219.579 113.419C219.298 113.665 218.988 113.888 218.726 114.148C217.654 115.168 216.754 116.291 216.253 117.599C216.111 117.923 216.064 118.269 215.964 118.616C215.934 118.967 215.857 119.332 215.881 119.701C215.875 120.446 216.018 121.216 216.289 122Z" fill="#E6E6E6"/>
<path d="M215.625 122.001C214.495 120.608 213.939 118.766 213.894 116.913C213.844 115.048 214.369 113.166 215.279 111.539L216.024 110.359C216.31 109.997 216.614 109.65 216.915 109.303L217.372 108.788L217.886 108.339C218.229 108.04 218.577 107.75 218.926 107.464C219.663 106.946 220.435 106.485 221.21 106.056C222.033 105.703 222.846 105.351 223.69 105.089C223.074 105.749 222.426 106.318 221.79 106.887C221.196 107.507 220.585 108.087 220.001 108.679C219.732 108.996 219.461 109.308 219.186 109.612L218.772 110.066L218.415 110.56C218.179 110.888 217.921 111.2 217.692 111.529L217.075 112.552C216.306 113.937 215.75 115.419 215.507 117.007C215.256 118.594 215.283 120.265 215.625 122.001Z" fill="#E6E6E6"/>
<path d="M202.586 122.916C203.097 120.998 203.66 119.153 204.197 117.306C204.74 115.464 205.263 113.633 205.749 111.798C206.214 109.958 206.632 108.118 206.99 106.253C207.314 104.382 207.532 102.507 207.703 100.521C208.39 102.388 208.615 104.412 208.604 106.411C208.537 108.408 208.235 110.392 207.745 112.317C207.234 114.236 206.551 116.101 205.706 117.886C204.845 119.661 203.864 121.387 202.586 122.916Z" fill="#E6E6E6"/>
<path d="M203.234 122.609C204.04 120.718 204.908 118.912 205.762 117.105C206.621 115.303 207.481 113.515 208.309 111.72C209.123 109.919 209.922 108.119 210.661 106.286C211.385 104.446 212.03 102.588 212.653 100.623C212.892 102.67 212.648 104.754 212.209 106.768C211.733 108.775 211.028 110.716 210.181 112.582C209.322 114.442 208.305 116.221 207.162 117.911C206.004 119.589 204.747 121.208 203.234 122.609Z" fill="#E6E6E6"/>
<path d="M200.711 124.969C201.918 123.305 203.168 121.738 204.404 120.167C205.644 118.602 206.881 117.052 208.09 115.487C209.285 113.913 210.466 112.337 211.596 110.715C212.712 109.083 213.756 107.417 214.802 105.641C214.578 107.69 213.875 109.666 212.997 111.531C212.085 113.381 210.966 115.116 209.723 116.745C208.47 118.366 207.082 119.874 205.59 121.266C204.084 122.643 202.498 123.939 200.711 124.969Z" fill="#E6E6E6"/>
<path d="M204.504 122.267C205.686 120.781 206.875 119.38 208.035 117.962C209.2 116.552 210.333 115.137 211.434 113.704C212.537 112.271 213.56 110.794 214.565 109.288C215.568 107.774 216.433 106.193 217.382 104.536C217.266 106.43 216.756 108.305 215.994 110.055C215.209 111.793 214.235 113.452 213.074 114.955C211.915 116.46 210.615 117.849 209.192 119.092C207.757 120.319 206.227 121.449 204.504 122.267Z" fill="#E6E6E6"/>
<path d="M201.473 123.994C202.205 122.538 202.457 121.053 202.414 119.633C202.359 118.207 201.946 116.83 201.334 115.509L201.125 115.006L200.856 114.522L200.337 113.539C199.924 112.914 199.548 112.258 199.122 111.621C198.667 111.006 198.258 110.342 197.8 109.703C197.34 109.065 196.87 108.426 196.453 107.709C197.176 108.085 197.846 108.539 198.525 108.994C199.185 109.469 199.769 110.04 200.375 110.592C200.685 110.862 200.928 111.2 201.199 111.51C201.466 111.826 201.727 112.148 201.98 112.477L202.644 113.546L202.961 114.091L203.22 114.675C203.93 116.209 204.3 117.999 204.028 119.737C203.749 121.453 202.869 123.099 201.473 123.994Z" fill="#E6E6E6"/>
<path d="M202.624 122.014C203.144 120.399 203.508 118.831 203.666 117.283C203.823 115.739 203.73 114.229 203.338 112.807C203.149 112.093 202.881 111.4 202.535 110.735C202.202 110.065 201.797 109.417 201.333 108.794C200.416 107.535 199.288 106.372 198.094 105.157C199.731 105.636 201.25 106.512 202.541 107.712C203.192 108.306 203.762 109.004 204.238 109.772C204.722 110.534 205.087 111.383 205.327 112.263C205.813 114.028 205.75 115.911 205.25 117.599C204.743 119.285 203.876 120.842 202.624 122.014Z" fill="#E6E6E6"/>
<path d="M205.652 120.548L215.352 111.235L214.962 120.367L205.652 120.548Z" fill="#E6E6E6"/>
<path d="M195.051 119.56H220.826L217.451 138.708H198.426L195.051 119.56Z" fill="#F5F5F5"/>
<path d="M211.152 119.56H220.825L217.45 138.708H212.369L211.152 119.56Z" fill="#EBEBEB"/>
<path d="M34.4002 32.3535V132.76C34.4002 141.459 27.3477 148.512 18.6484 148.512H91.8301C100.529 148.512 107.582 141.459 107.582 132.76V32.3535H34.4002Z" fill="#F5F5F5"/>
<path d="M96.0805 57.7764H48.8086V105.048H96.0805V57.7764Z" fill="#F0F0F0"/>
<path d="M94.6235 56.3213H47.3516V103.593H94.6235V56.3213Z" fill="white"/>
<path d="M58.9651 110.595H46.9414V122.618H58.9651V110.595Z" fill="white"/>
<path d="M94.6252 110.595H82.6016V122.618H94.6252V110.595Z" fill="white"/>
<path d="M76.7971 110.595H64.7734V122.618H76.7971V110.595Z" fill="white"/>
<path d="M34.3984 32.3535V44.3065H107.58V32.3535H34.3984Z" fill="#F0F0F0"/>
<path d="M38.793 28.5157V36.1932C38.793 37.3736 39.7502 38.3309 40.9307 38.3309C42.1112 38.3309 43.0685 37.3736 43.0685 36.1932V28.5157C43.0685 27.3352 42.1112 26.3779 40.9307 26.3779C39.7496 26.3779 38.793 27.3346 38.793 28.5157Z" fill="#E6E6E6"/>
<path d="M98.9141 28.5157V36.1932C98.9141 37.3736 99.8713 38.3309 101.052 38.3309C102.232 38.3309 103.19 37.3736 103.19 36.1932V28.5157C103.19 27.3352 102.232 26.3779 101.052 26.3779C99.8713 26.3779 98.9141 27.3346 98.9141 28.5157Z" fill="#E6E6E6"/>
<path d="M86.8867 28.5157V36.1932C86.8867 37.3736 87.844 38.3309 89.0245 38.3309C90.205 38.3309 91.1622 37.3736 91.1622 36.1932V28.5157C91.1622 27.3352 90.205 26.3779 89.0245 26.3779C87.844 26.3779 86.8867 27.3346 86.8867 28.5157Z" fill="#E6E6E6"/>
<path d="M74.8633 28.5157V36.1932C74.8633 37.3736 75.8206 38.3309 77.001 38.3309C78.1815 38.3309 79.1388 37.3736 79.1388 36.1932V28.5157C79.1388 27.3352 78.1815 26.3779 77.001 26.3779C75.8199 26.3779 74.8633 27.3346 74.8633 28.5157Z" fill="#E6E6E6"/>
<path d="M62.8398 28.5157V36.1932C62.8398 37.3736 63.7971 38.3309 64.9776 38.3309C66.1581 38.3309 67.1154 37.3736 67.1154 36.1932V28.5157C67.1154 27.3352 66.1581 26.3779 64.9776 26.3779C63.7965 26.3779 62.8398 27.3346 62.8398 28.5157Z" fill="#E6E6E6"/>
<path d="M50.8164 28.5157V36.1932C50.8164 37.3736 51.7737 38.3309 52.9542 38.3309C54.1346 38.3309 55.0919 37.3736 55.0919 36.1932V28.5157C55.0919 27.3352 54.1346 26.3779 52.9542 26.3779C51.7731 26.3779 50.8164 27.3346 50.8164 28.5157Z" fill="#E6E6E6"/>
<path d="M85.2386 141.923C85.2386 145.562 88.1892 148.513 91.8286 148.513H85.2386H9.48451C5.84511 148.513 2.89453 145.562 2.89453 141.923H85.2386Z" fill="#E6E6E6"/>
<path d="M125 241.194C191.391 241.194 245.211 238.051 245.211 234.174C245.211 230.296 191.391 227.153 125 227.153C58.6094 227.153 4.78906 230.296 4.78906 234.174C4.78906 238.051 58.6094 241.194 125 241.194Z" fill="#F5F5F5"/>
<path opacity="0.2" d="M137.144 174.96C137.144 174.96 91.5781 201.861 91.5781 227.349H182.711C182.711 201.861 137.144 174.96 137.144 174.96Z" fill="#0085F9"/>
<path opacity="0.2" d="M137.146 207.057C137.146 207.057 95.0742 217.476 95.0742 227.349H179.218C179.218 217.476 137.146 207.057 137.146 207.057Z" fill="#0085F9"/>
<path opacity="0.3" d="M142.676 182.39C151.227 190.799 167.859 209.445 167.859 227.349H156.459C156.459 209.444 147.354 190.799 142.676 182.39Z" fill="white"/>
<path opacity="0.2" d="M137.144 174.959C137.144 174.959 91.5781 148.058 91.5781 122.569H182.711C182.711 148.058 137.144 174.959 137.144 174.959Z" fill="#0085F9"/>
<path opacity="0.2" d="M137.144 172.502C137.144 172.502 113.879 161.328 113.879 150.74H160.409C160.409 161.327 137.144 172.502 137.144 172.502Z" fill="#0085F9"/>
<path opacity="0.3" d="M132.175 167.529C123.623 159.119 106.992 140.474 106.992 122.569H118.392C118.392 140.474 127.497 159.119 132.175 167.529Z" fill="white"/>
<path opacity="0.3" d="M142.676 167.529C151.227 159.119 167.442 138.317 167.859 122.569H164.818C163.393 141.768 149.444 159.392 142.676 167.529Z" fill="white"/>
<path d="M176.53 113.575H171.363V114.195H176.53V113.575Z" fill="#0085F9"/>
<path d="M194.064 122.093H193.444C193.444 117.738 189.901 114.195 185.547 114.195H180.098V113.575H185.547C190.243 113.575 194.064 117.396 194.064 122.093Z" fill="#0085F9"/>
<path d="M185.545 129.396H88.7466C85.2554 129.396 82.3984 126.54 82.3984 123.048V122.092C82.3984 118.601 85.2548 115.744 88.7466 115.744H185.545C189.037 115.744 191.894 118.6 191.894 122.092V123.048C191.893 126.54 189.037 129.396 185.545 129.396Z" fill="#0085F9"/>
<path d="M185.545 220.522H88.7466C85.2554 220.522 82.3984 223.379 82.3984 226.871V227.826C82.3984 231.317 85.2548 234.174 88.7466 234.174H185.545C189.037 234.174 191.894 231.318 191.894 227.826V226.871C191.893 223.379 189.037 220.522 185.545 220.522Z" fill="#0085F9"/>
<path d="M57.2459 164.909L53.043 161.178L60.2071 150.169L64.4094 153.9L57.2459 164.909Z" fill="#FF8B7B"/>
<path d="M53.9109 158.811L59.2572 162.52C59.4518 162.655 59.5045 162.892 59.3849 163.09L56.7096 167.5C56.4318 167.957 55.7325 168.087 55.2898 167.768C53.4509 166.445 52.7422 165.803 50.5139 164.008C49.1431 162.903 45.8782 160.246 44.1918 158.495C42.542 156.782 44.2848 155.125 45.1559 155.717C47.218 157.119 50.8128 158.658 52.8885 158.535C53.263 158.513 53.6263 158.614 53.9109 158.811Z" fill="#263238"/>
<path opacity="0.2" d="M64.4098 153.904L60.205 150.172L56.7578 155.474L61.0656 159.048L64.4098 153.904Z" fill="black"/>
<path d="M107.174 98.9282C107.174 98.9282 78.9664 97.0031 75.4677 106.563C67.515 128.295 57.1641 151.357 57.1641 151.357L65.5031 157.374C65.5031 157.374 83.0844 130.502 88.4263 113.245C99.2763 115.878 118.892 118.133 125.213 110.879C130.605 104.692 126.569 98.9288 126.569 98.9288L107.174 98.9282Z" fill="#263238"/>
<path opacity="0.3" d="M83.01 115.827C82.354 118.476 81.3577 126.081 80.7383 131.123C82.1048 128.468 83.4111 125.777 84.5835 123.147L83.01 115.827Z" fill="black"/>
<path d="M64.9502 160.098L55.5156 152.706L57.4444 148.566L67.99 156.621L64.9502 160.098Z" fill="#0085F9"/>
<path d="M51.6481 158.469C52.0877 158.774 52.637 159.021 53.0344 159.178C53.084 159.198 53.1405 159.187 53.1783 159.15C53.2167 159.112 53.2285 159.056 53.2105 159.007C53.1318 158.796 52.4231 156.94 51.6841 156.765C51.513 156.724 51.348 156.771 51.2079 156.901C50.9767 157.113 50.8831 157.348 50.9296 157.599C50.9885 157.917 51.2792 158.214 51.6481 158.469ZM52.841 158.806C51.8719 158.385 51.2637 157.924 51.1943 157.549C51.1658 157.393 51.2296 157.247 51.3902 157.098C51.4646 157.03 51.5378 157.008 51.6208 157.028C52.0189 157.122 52.5329 158.072 52.841 158.806Z" fill="#0085F9"/>
<path d="M53.0094 159.164C53.0268 159.176 53.0473 159.184 53.069 159.187C53.1148 159.193 53.1607 159.176 53.1905 159.14C53.2351 159.085 54.2916 157.79 54.1323 156.994C54.0895 156.78 53.9667 156.618 53.7696 156.513C53.5321 156.387 53.3064 156.408 53.1347 156.57C52.6647 157.012 52.6852 158.498 52.9636 159.109C52.9741 159.132 52.9896 159.151 53.0094 159.164ZM53.697 156.784C53.7894 156.848 53.8452 156.934 53.8675 157.047C53.963 157.522 53.4583 158.333 53.1316 158.776C52.9605 158.139 53.0113 157.057 53.3194 156.766C53.3777 156.71 53.4683 156.659 53.6431 156.751C53.6629 156.762 53.6809 156.773 53.697 156.784Z" fill="#0085F9"/>
<path d="M94.3089 171.416L88.8827 172.502L87.8789 157.972L93.3919 158.147L94.3089 171.416Z" fill="#FF8B7B"/>
<path d="M88.1443 170.515L94.3288 167.902C94.5538 167.807 94.7895 167.891 94.8961 168.105L97.2626 172.872C97.5082 173.366 97.2347 174.048 96.7127 174.258C94.5439 175.131 93.462 175.439 90.7421 176.588C89.0687 177.294 84.5595 179.343 82.1247 179.946C79.7433 180.536 79.1623 178.123 80.1407 177.651C82.4576 176.532 86.3004 173.131 87.3389 171.254C87.5268 170.915 87.8151 170.654 88.1443 170.515Z" fill="#263238"/>
<path d="M86.5983 172.299C87.1067 172.085 87.625 171.742 87.9822 171.483C88.0268 171.451 88.0479 171.395 88.0367 171.342C88.0249 171.288 87.9828 171.246 87.9295 171.234C87.7019 171.187 85.6937 170.779 85.1326 171.327C85.0024 171.454 84.9522 171.623 84.9876 171.816C85.0452 172.136 85.1984 172.347 85.442 172.445C85.752 172.569 86.1718 172.479 86.5983 172.299ZM87.5506 171.446C86.6485 172.058 85.9107 172.334 85.5456 172.187C85.3943 172.126 85.3013 171.989 85.261 171.767C85.2424 171.665 85.2635 171.588 85.3267 171.527C85.6286 171.232 86.7403 171.309 87.5506 171.446Z" fill="#0085F9"/>
<path d="M87.9529 171.498C87.9728 171.489 87.9914 171.476 88.0056 171.459C88.036 171.422 88.0459 171.372 88.0311 171.326C88.0081 171.257 87.4631 169.621 86.6813 169.321C86.4705 169.239 86.2622 169.257 86.0619 169.371C85.8214 169.509 85.7141 169.717 85.7606 169.956C85.8871 170.61 87.1934 171.412 87.8798 171.507C87.9052 171.511 87.93 171.507 87.9529 171.498ZM86.2579 169.584C86.3645 169.539 86.4705 169.538 86.5809 169.58C87.0471 169.76 87.4755 170.647 87.6808 171.176C87.0316 170.974 86.1165 170.332 86.0334 169.903C86.0173 169.821 86.0223 169.714 86.199 169.613C86.2194 169.602 86.2386 169.592 86.2579 169.584Z" fill="#0085F9"/>
<path opacity="0.2" d="M93.395 158.15L87.8789 157.976L88.4065 165.563L93.9028 165.463L93.395 158.15Z" fill="black"/>
<path d="M120.881 98.9297C120.881 98.9297 80.5632 102.741 82.0313 114.877C84.1486 132.381 85.6999 163.025 85.6999 163.025L95.9751 163.428C95.9751 163.428 99.8266 136.482 97.5735 118.56C108.007 118.56 130.672 119.108 134.659 113.719C139.394 107.321 137.201 98.9297 137.201 98.9297H120.881Z" fill="#263238"/>
<path d="M97.1078 164.061L84.7753 163.449L84.332 158.082L97.8561 159.016L97.1078 164.061Z" fill="#0085F9"/>
<path d="M111.932 63.3972C111.843 64.5063 111.748 65.494 111.612 66.53C111.483 67.5536 111.341 68.5742 111.185 69.5941C110.883 71.6357 110.478 73.6662 110.019 75.7048C109.535 77.7384 108.995 79.7794 108.286 81.8267C107.563 83.872 106.752 85.9348 105.478 88.031C104.827 89.0763 104.071 90.144 102.979 91.1831C102.686 91.4621 102.436 91.6574 102.182 91.857C101.927 92.0672 101.671 92.2427 101.414 92.4243C100.902 92.7845 100.386 93.1032 99.8684 93.3866C97.8019 94.528 95.7516 95.3048 93.6981 95.9124C92.6751 96.2231 91.649 96.4816 90.6242 96.7079C89.6012 96.9398 88.5769 97.1357 87.5508 97.2963C85.49 97.6274 83.4774 97.8456 81.3465 97.9169C80.1747 97.956 79.1926 97.0377 79.1536 95.8659C79.1213 94.9037 79.7351 94.0692 80.6044 93.7803L80.6874 93.753C84.3113 92.5508 88.0245 91.2482 91.3651 89.6858C93.031 88.899 94.6281 88.0453 95.9432 87.0942C96.2705 86.8561 96.578 86.6149 96.8577 86.3762C96.9953 86.2553 97.1404 86.1375 97.2557 86.016C97.3816 85.8945 97.5111 85.7699 97.57 85.6973C97.8906 85.334 98.2737 84.7512 98.6191 84.0797C99.3203 82.7213 99.931 81.0461 100.425 79.3126C100.926 77.5728 101.361 75.755 101.722 73.9055C102.105 72.0598 102.404 70.1769 102.708 68.2902C103.001 66.4197 103.24 64.4567 103.453 62.6575L103.465 62.5564C103.742 60.2228 105.858 58.5562 108.191 58.8327C110.469 59.1024 112.11 61.1323 111.932 63.3972Z" fill="#0085F9"/>
<path d="M81.4896 92.6777L78.3828 92.8743L80.8647 98.5789C80.8647 98.5789 86.2289 98.4568 86.1179 95.8156L85.1489 94.5532C84.3187 93.4707 82.9671 92.7782 81.4896 92.6777Z" fill="#FF8B7B"/>
<path d="M74.9922 93.3312L77.6724 98.5777H80.8623L78.3805 92.873L74.9922 93.3312Z" fill="#FF8B7B"/>
<path d="M111.483 54.6065L117.481 53.3783L122.251 52.6876C122.934 52.5884 123.627 52.5345 124.315 52.5971C128.022 52.9332 131.207 55.5235 132.217 59.1939C133.411 63.5308 134.491 68.8566 135.321 73.5767C136.474 80.1295 137.075 89.9776 137.201 98.9291H108.775C108.179 82.7192 104.708 72.2623 103.536 65.792C102.808 61.7706 104.864 57.7605 108.553 56.0028L111.483 54.6065Z" fill="#0085F9"/>
<path d="M108.773 58.1708C108.841 60.8368 109.381 70.3445 112.249 75.7441C112.755 70.6818 118.762 55.2686 118.762 55.2686L108.773 58.1708Z" fill="#F5F5F5"/>
<path opacity="0.3" d="M135.966 78.0234C135.967 78.024 135.968 78.0246 135.969 78.0259C135.957 77.9248 135.944 77.8281 135.931 77.7283C135.913 77.5758 135.894 77.4276 135.874 77.2769C135.843 77.037 135.812 76.7989 135.781 76.5639C135.75 76.3407 135.721 76.1188 135.689 75.9005C135.658 75.6835 135.626 75.4721 135.595 75.2601C135.568 75.0846 135.543 74.9067 135.515 74.7355C135.453 74.3406 135.39 73.9537 135.325 73.5799C135.12 72.418 134.9 71.2183 134.667 70.0074C134.661 69.9733 134.654 69.9392 134.648 69.9051C134.414 68.6936 134.169 67.4716 133.911 66.2589C133.906 66.2322 133.9 66.2056 133.894 66.1783C133.784 65.6618 133.672 65.1491 133.558 64.6395C133.515 64.4473 133.472 64.2575 133.428 64.0666C133.353 63.7361 133.278 63.4088 133.201 63.0833C133.14 62.8247 133.079 62.5674 133.018 62.312C133.005 62.2599 132.993 62.206 132.98 62.1539H132.979C132.732 61.1334 132.478 60.1376 132.218 59.194L127.909 56.9248C128.404 58.8307 128.878 60.9207 129.325 63.0678C128.788 63.348 128.33 63.6847 127.91 64.0765C126.883 64.9972 126.916 66.9514 127.946 69.2609C130.877 75.8348 132.322 82.9822 132.635 90.1729C132.763 93.0938 132.844 96.0518 132.882 98.923L137.203 98.9292C137.099 91.8234 136.702 84.1614 135.966 78.0234Z" fill="black"/>
<path d="M115.246 42.6572L112.815 46.3685L109.506 51.4271C109.733 51.5455 110.238 52.3391 110.529 52.9244C111.133 54.1427 111.633 55.0541 109.076 56.7976C108.528 57.1708 108.509 57.7623 108.633 58.4133C108.784 59.2032 109.247 60.0333 112.008 59.5454C115.205 58.9812 117.345 57.2911 118.936 55.6996C119.856 54.7801 119.645 54.0875 118.759 53.1352C116.248 50.4382 115.498 46.1311 115.246 42.6572Z" fill="#FF8B7B"/>
<path d="M109.395 59.6385L111.153 60.7409L114.004 59.5312C113.31 58.9063 112.542 58.3805 111.493 58.2373C110.661 58.4779 110.003 59.0179 109.395 59.6385Z" fill="#263238"/>
<path d="M111.492 58.2382C112.8 58.7782 113.458 59.9928 114.05 61.3977C114.05 61.3977 120.321 56.6436 120.452 53.5138C120.115 52.4505 118.546 52.6365 118.546 52.6365C118.546 52.6365 116.638 55.943 111.492 58.2382Z" fill="white"/>
<path d="M111.489 58.2366C110.182 58.7766 109.502 59.9391 109.502 61.3453C109.502 61.3453 106.714 58.0705 108.984 55.5985C109.502 55.2271 110.928 54.8682 110.928 54.8682C110.928 54.8682 110.249 56.2284 111.489 58.2366Z" fill="white"/>
<path d="M111.702 60.2266C111.702 60.2266 111.222 60.2266 110.9 60.2266C110.645 60.6761 110.281 66.4892 110.141 69.5811C110.56 71.4523 111.107 73.2807 111.817 74.8474C111.829 74.8654 111.835 74.8902 111.847 74.9082C111.89 75.0055 111.932 75.1028 111.981 75.1934C112.066 75.3818 112.157 75.5641 112.254 75.7402C112.388 74.4159 112.898 72.3686 113.585 70.079C112.746 66.4954 111.702 60.2266 111.702 60.2266Z" fill="#263238"/>
<path opacity="0.2" d="M110.319 50.1848L112.349 46.5801C112.391 46.67 112.439 46.7735 112.487 46.8771C112.646 47.2639 112.805 47.7469 112.923 48.2584C113.296 49.8605 112.052 52.1464 110.685 53.2376C110.63 53.1341 110.581 53.0306 110.526 52.927C110.271 52.4019 109.836 51.7118 109.587 51.4905C109.56 51.4626 109.532 51.4421 109.504 51.4285L110.319 50.1848Z" fill="black"/>
<path d="M100.41 42.4385C99.9193 40.2326 103.422 37.1927 103.422 37.1927L99.2738 35.7432C97.4033 37.1003 98.6179 40.9406 100.41 42.4385Z" fill="#263238"/>
<path d="M114.39 36.0876C115.367 41.5889 116.215 44.7496 114.179 48.2799C111.117 53.5896 103.905 52.9535 101.324 47.9098C98.9998 43.3695 97.7927 35.1359 102.518 31.5232C107.172 27.9637 113.413 30.5863 114.39 36.0876Z" fill="#FF8B7B"/>
<path d="M114.463 41.6548L111.862 40.9418V37.5907C111.862 37.5907 108.568 35.7046 109.082 33.4057C109.308 31.8557 110.14 29.5648 110.14 29.5648C110.14 29.5648 115.359 29.2294 116.944 29.8965C116.669 30.2883 115.601 31.1495 115.601 31.1495C115.601 31.1495 117.657 32.5271 118.764 34.3871C117.976 34.456 116.977 35.2483 116.977 35.2483C116.977 35.2483 117.667 39.8295 114.463 41.6548Z" fill="#263238"/>
<path d="M108.469 25.9928C110.384 27.1919 109.274 29.4009 109.274 29.4009L114.403 29.5107C114.13 27.8894 109.685 25.9091 108.469 25.9928Z" fill="#263238"/>
<path d="M110.469 34.5332C110.105 35.5674 105.952 36.8291 102.165 36.9531C99.616 37.0368 96.635 35.9146 96.635 35.9146C96.635 35.9146 97.3046 35.1619 98.5142 34.5933C96.224 34.0248 93.3261 32.0154 92.5312 30.3842C94.6002 29.6495 96.1632 29.7648 97.6878 30.0208C95.7503 28.3673 95.7242 26.1719 95.7242 26.1719C95.7242 26.1719 105.417 30.0177 109.15 28.4231C113.209 26.689 116.288 29.9415 113.622 32.424C110.956 34.9064 110.469 34.5332 110.469 34.5332Z" fill="#263238"/>
<path d="M117.352 40.0718C117.412 41.3924 116.914 42.6225 116.243 43.4192C115.233 44.6177 113.676 43.6616 113.315 42.1662C112.991 40.8202 113.411 38.7419 114.733 38.0978C116.036 37.4647 117.284 38.5621 117.352 40.0718Z" fill="#FF8B7B"/>
<path d="M106.001 41.1783C106.143 41.6086 106.032 42.0408 105.754 42.1424C105.476 42.2441 105.136 41.9782 104.995 41.5473C104.854 41.117 104.965 40.6848 105.242 40.5832C105.52 40.4815 105.86 40.7481 106.001 41.1783Z" fill="#263238"/>
<path d="M101.193 42.943C101.334 43.3733 101.223 43.8054 100.945 43.9071C100.668 44.0088 100.328 43.7428 100.186 43.3119C100.045 42.8816 100.156 42.4495 100.434 42.3478C100.712 42.2461 101.051 42.5127 101.193 42.943Z" fill="#263238"/>
<path d="M102.837 42.7148C102.837 42.7148 102.87 45.1347 102.391 46.5229C103.252 46.836 104.203 46.0945 104.203 46.0945L102.837 42.7148Z" fill="#A02724"/>
<path d="M105.782 47.7492C107.468 47.1658 108.047 45.7888 108.073 45.7249C108.101 45.6573 108.068 45.5798 108 45.5519C107.932 45.524 107.854 45.5569 107.827 45.6251C107.82 45.6406 107.163 47.2098 105.218 47.632C105.145 47.6475 105.1 47.7182 105.117 47.7901C105.132 47.862 105.203 47.9073 105.275 47.8912C105.453 47.8521 105.622 47.8044 105.782 47.7492Z" fill="#263238"/>
<path d="M107.067 38.6631C107.105 38.6426 107.138 38.6122 107.164 38.5725C107.243 38.4492 107.207 38.2842 107.084 38.2049C105.861 37.4193 104.741 37.937 104.694 37.96C104.564 38.0071 104.505 38.1813 104.569 38.314C104.632 38.4467 104.79 38.5025 104.923 38.4399C104.969 38.4188 105.836 38.035 106.796 38.6519C106.881 38.7071 106.985 38.7077 107.067 38.6631Z" fill="#263238"/>
<path d="M100.241 40.3328C100.246 40.2894 100.24 40.2442 100.222 40.2014C100.166 40.0656 100.01 40.0011 99.8746 40.0575C98.5323 40.6149 98.3196 41.8301 98.3116 41.8816C98.2756 42.0161 98.3853 42.1631 98.531 42.1866C98.6761 42.2102 98.8125 42.1122 98.8361 41.9678C98.8454 41.9175 99.0239 40.9863 100.079 40.5492C100.171 40.5101 100.23 40.4258 100.241 40.3328Z" fill="#263238"/>
<path d="M130.891 56.5239C131.575 57.3653 132.172 58.1254 132.778 58.9419C133.382 59.7448 133.967 60.5601 134.541 61.3853C135.696 63.029 136.781 64.7296 137.834 66.4687C138.861 68.2277 139.864 70.0157 140.749 71.9278C141.628 73.8399 142.45 75.8344 143.01 78.1173C143.28 79.2655 143.488 80.5024 143.494 81.9148C143.483 83.3085 143.262 84.5343 142.945 85.6918C142.301 87.9895 141.352 89.9692 140.269 91.7932C139.735 92.709 139.159 93.5813 138.558 94.4245C137.962 95.2702 137.337 96.0849 136.686 96.871C135.38 98.457 134.033 99.9072 132.477 101.324C131.61 102.113 130.267 102.049 129.479 101.183C128.835 100.475 128.759 99.4521 129.223 98.6709L129.278 98.5791C131.157 95.4209 133.014 92.0809 134.32 88.8179C134.968 87.186 135.489 85.5523 135.704 84.0736C135.805 83.3445 135.849 82.6383 135.789 82.0971C135.74 81.575 135.596 80.8949 135.363 80.1763C134.893 78.7255 134.187 77.1445 133.351 75.5914C132.526 74.0315 131.593 72.4635 130.604 70.9203C129.623 69.3666 128.572 67.8377 127.507 66.3125L125.88 64.0439C125.336 63.3055 124.766 62.5212 124.249 61.8454L124.211 61.7958C122.783 59.929 123.14 57.2586 125.006 55.8308C126.836 54.4289 129.444 54.7495 130.891 56.5239Z" fill="#0085F9"/>
<path d="M71.8212 102.258L124.57 99.8705C125.262 99.8388 125.854 100.379 125.886 101.073L70.6185 103.574C70.5875 102.881 71.1287 102.29 71.8212 102.258Z" fill="#0085F9"/>
<g opacity="0.6">
<path d="M71.8212 102.258L124.57 99.8705C125.262 99.8388 125.854 100.379 125.886 101.073L70.6185 103.574C70.5875 102.881 71.1287 102.29 71.8212 102.258Z" fill="white"/>
</g>
<path d="M63.4245 77.7836L100.952 76.0848C101.411 76.0644 101.9 76.4147 102.042 76.8685L109.247 99.7316C109.389 100.185 109.133 100.57 108.675 100.59L71.1466 102.289C70.6872 102.31 70.1992 101.959 70.0566 101.505L62.8522 78.6423C62.709 78.1891 62.9651 77.8047 63.4245 77.7836Z" fill="#0085F9"/>
<path opacity="0.6" d="M63.4245 77.7836L100.952 76.0848C101.411 76.0644 101.9 76.4147 102.042 76.8685L109.247 99.7316C109.389 100.185 109.133 100.57 108.675 100.59L71.1466 102.289C70.6872 102.31 70.1992 101.959 70.0566 101.505L62.8522 78.6423C62.709 78.1891 62.9651 77.8047 63.4245 77.7836Z" fill="white"/>
<path opacity="0.5" d="M102.043 76.8686L109.247 99.7317C109.39 100.186 109.134 100.57 108.675 100.59L100.953 76.0849C101.412 76.0638 101.9 76.4147 102.043 76.8686Z" fill="#0085F9"/>
<path opacity="0.5" d="M110.7 100.499L124.571 99.8705C125.263 99.8388 125.855 100.379 125.887 101.073L109.497 101.814C109.466 101.122 110.007 100.53 110.7 100.499Z" fill="#0085F9"/>
<path d="M128.223 98.418L124.676 98.9376L128.309 103.987C128.309 103.987 134.079 103.062 133.412 100.504L132.198 99.4764C131.156 98.5941 129.688 98.2035 128.223 98.418Z" fill="#FF8B7B"/>
<path d="M120.336 100.447L124.783 104.325L128.309 103.987L124.675 98.9375L120.336 100.447Z" fill="#FF8B7B"/>
</g>
<defs>
<clipPath id="clip0_699_7363">
<rect width="250" height="250" fill="white" transform="translate(0 0.0576172)"/>
</clipPath>
</defs>
</svg>
