<svg width="253" height="211" viewBox="0 0 253 211" fill="none" xmlns="http://www.w3.org/2000/svg">
<path d="M178.173 6.00476C177.899 5.88987 177.615 5.76986 177.337 5.66569C170.585 2.98682 163.531 1.14644 156.302 0.3968C153.963 0.156284 151.605 0.018918 149.234 0.000534593C141.853 -0.0326577 134.317 1.47989 127.516 4.51469C123.449 6.32137 119.643 8.68466 116.281 11.5811C105.953 20.4659 105.734 32.6495 100.793 44.6304C97.2768 53.1353 93.1553 61.4604 87.7511 68.9481C82.3469 76.4357 75.6768 82.9573 67.7806 87.7987C58.7038 93.3577 49.0545 93.8566 39.6197 97.7043C36.6294 98.9238 33.1963 101.196 29.9148 104.844C28.0663 106.618 26.3898 108.601 24.9768 110.782C23.5491 112.968 22.3807 115.363 21.5345 117.992C17.5642 130.258 20.0281 144.276 25.7535 155.814C31.8783 168.139 40.5062 178.606 50.7974 186.887C57.373 192.193 64.6156 196.589 72.3223 200.03C88.4201 207.198 106.483 210.138 124.484 208.099C176.408 202.219 228.706 163.41 238.18 110.117C238.265 109.62 238.346 109.134 238.421 108.633C238.483 108.337 238.529 108.022 238.57 107.717C238.815 106.135 239.006 104.531 239.158 102.935C239.544 98.7491 239.626 94.5475 239.363 90.3739C239.147 87.0874 238.724 83.8249 238.088 80.5965C237.342 76.8637 236.467 73.2008 235.435 69.6456C234.637 66.8325 233.74 64.0765 232.729 61.3848C230.454 55.2499 227.637 49.432 224.166 43.9333C222.498 41.2744 220.675 38.6869 218.675 36.1975C216.047 32.8747 213.121 29.6995 209.873 26.6728C203.604 20.8152 196.581 15.5442 189.014 11.2706C185.511 9.29029 181.884 7.5168 178.173 6.00476Z" fill="#CADFF4"/>
<path d="M90.1686 122.238H91.2685H136.789H186.016C176.978 122.922 185.524 143.637 192.373 165.184C198.109 183.217 202.66 201.848 194.723 209.786H98.8854C116.31 192.362 73.5776 123.488 90.1686 122.238Z" fill="white"/>
<path d="M100.942 145.059H135.034" stroke="#1D85EE" stroke-width="0.947308" stroke-miterlimit="10"/>
<path d="M102.271 149.964H120.79" stroke="#1D85EE" stroke-width="0.947308" stroke-miterlimit="10"/>
<path d="M175.227 147.879H156.096C155.114 147.879 154.102 147.083 153.836 146.101C153.57 145.119 154.15 144.323 155.132 144.323H174.263C175.245 144.323 176.257 145.119 176.523 146.101C176.789 147.083 176.209 147.879 175.227 147.879Z" fill="#1D85EE"/>
<path d="M105.38 161.432H139.473" stroke="#1D85EE" stroke-width="0.947308" stroke-miterlimit="10"/>
<path d="M106.711 166.336H125.228" stroke="#1D85EE" stroke-width="0.947308" stroke-miterlimit="10"/>
<path d="M179.666 164.251H160.535C159.553 164.251 158.541 163.454 158.275 162.472C158.008 161.49 158.589 160.694 159.571 160.694H178.702C179.684 160.694 180.696 161.49 180.962 162.472C181.228 163.454 180.648 164.251 179.666 164.251Z" fill="#1D85EE"/>
<path d="M185.775 193.575H166.644C165.662 193.575 164.649 192.779 164.383 191.797C164.117 190.815 164.697 190.019 165.679 190.019H184.81C185.792 190.019 186.805 190.815 187.071 191.797C187.337 192.779 186.757 193.575 185.775 193.575Z" fill="#1D85EE"/>
<path d="M111.286 182.089H185.137" stroke="#1D85EE" stroke-width="0.947308" stroke-miterlimit="10"/>
<path d="M186.016 122.238C176.978 122.922 185.525 143.637 192.373 165.184H220.138C201.816 164.971 201.944 121.053 186.016 122.238Z" fill="#2E2C3F"/>
<path d="M134.15 18.1007C134.15 18.1007 115.893 17.2673 118.799 43.4085C120.433 58.1939 132.227 93.4477 136.789 122.239H186.016C201.944 121.053 201.816 164.971 220.138 165.184C220.896 165.184 221.687 165.12 222.52 164.971C252.155 159.64 217.542 69.5502 214.636 43.409C211.912 18.838 227.872 18.1012 229.795 18.1012H134.15V18.1007Z" fill="white"/>
<path d="M136.789 122.238H186.016" stroke="#2E2C3F" stroke-width="0.510038" stroke-miterlimit="10"/>
<path d="M207.058 18.1007H134.15C134.15 18.1007 115.893 17.2673 118.799 43.4085" stroke="#2E2C3F" stroke-width="0.510038" stroke-miterlimit="10"/>
<path d="M138.111 42.2311C138.111 42.6742 138.007 43.0792 137.799 43.4462C137.598 43.8062 137.29 44.097 136.875 44.3186C136.466 44.5332 135.964 44.6405 135.369 44.6405H134.362V47.1123H132.326V39.7905H135.369C135.957 39.7905 136.456 39.8943 136.864 40.1021C137.28 40.3098 137.591 40.5971 137.799 40.9641C138.007 41.331 138.111 41.7534 138.111 42.2311ZM135.172 43.0204C135.746 43.0204 136.034 42.7573 136.034 42.2311C136.034 41.698 135.746 41.4314 135.172 41.4314H134.362V43.0204H135.172ZM138.596 44.194C138.596 43.5916 138.703 43.0654 138.918 42.6154C139.14 42.1653 139.437 41.8191 139.811 41.5768C140.192 41.3345 140.614 41.2133 141.078 41.2133C141.48 41.2133 141.826 41.2929 142.117 41.4522C142.408 41.6114 142.633 41.8261 142.792 42.0961V41.286H144.828V47.1123H142.792V46.3022C142.633 46.5723 142.404 46.7869 142.106 46.9461C141.816 47.1054 141.473 47.185 141.078 47.185C140.614 47.185 140.192 47.0638 139.811 46.8215C139.437 46.5792 139.14 46.233 138.918 45.783C138.703 45.326 138.596 44.7963 138.596 44.194ZM142.792 44.194C142.792 43.8201 142.688 43.5258 142.48 43.3112C142.28 43.0966 142.03 42.9892 141.733 42.9892C141.428 42.9892 141.175 43.0966 140.974 43.3112C140.774 43.5189 140.673 43.8132 140.673 44.194C140.673 44.5678 140.774 44.8656 140.974 45.0871C141.175 45.3018 141.428 45.4091 141.733 45.4091C142.03 45.4091 142.28 45.3018 142.48 45.0871C142.688 44.8725 142.792 44.5748 142.792 44.194ZM152.26 41.286L148.563 49.8852H146.351L147.743 46.8631L145.354 41.286H147.618L148.843 44.5886L150.027 41.286H152.26ZM154.828 42.3142C155.057 41.9818 155.334 41.7187 155.659 41.5249C155.985 41.331 156.334 41.2341 156.708 41.2341V43.4047H156.137C155.694 43.4047 155.365 43.4912 155.15 43.6643C154.936 43.8374 154.828 44.1386 154.828 44.5678V47.1123H152.793V41.286H154.828V42.3142ZM160.149 47.185C159.567 47.185 159.044 47.0638 158.58 46.8215C158.123 46.5792 157.763 46.233 157.5 45.783C157.237 45.3329 157.106 44.8032 157.106 44.194C157.106 43.5916 157.237 43.0654 157.5 42.6154C157.77 42.1653 158.134 41.8191 158.591 41.5768C159.055 41.3345 159.577 41.2133 160.159 41.2133C160.741 41.2133 161.26 41.3345 161.717 41.5768C162.181 41.8191 162.544 42.1653 162.807 42.6154C163.077 43.0654 163.212 43.5916 163.212 44.194C163.212 44.7963 163.077 45.326 162.807 45.783C162.544 46.233 162.181 46.5792 161.717 46.8215C161.253 47.0638 160.73 47.185 160.149 47.185ZM160.149 45.4195C160.432 45.4195 160.668 45.3156 160.855 45.1079C161.049 44.8933 161.146 44.5886 161.146 44.194C161.146 43.7993 161.049 43.4981 160.855 43.2904C160.668 43.0827 160.436 42.9789 160.159 42.9789C159.882 42.9789 159.65 43.0827 159.463 43.2904C159.276 43.4981 159.183 43.7993 159.183 44.194C159.183 44.5955 159.273 44.9002 159.453 45.1079C159.633 45.3156 159.865 45.4195 160.149 45.4195ZM166.076 39.427V47.1123H164.04V39.427H166.076ZM169.271 39.427V47.1123H167.235V39.427H169.271Z" fill="#2E2C3F"/>
<path d="M195.717 48.7407C199.956 48.7407 203.392 45.3047 203.392 41.0662C203.392 36.8276 199.956 33.3916 195.717 33.3916C191.478 33.3916 188.042 36.8276 188.042 41.0662C188.042 45.3047 191.478 48.7407 195.717 48.7407Z" fill="#F5B55D"/>
<path d="M196.154 44.3574V45.3869H195.4V44.3666C194.499 44.3114 193.625 44.0173 193.147 43.6037L193.561 42.6753C194.011 43.043 194.701 43.3095 195.4 43.3739V41.535C194.38 41.2868 193.285 40.9559 193.285 39.6778C193.285 38.7402 193.966 37.9217 195.4 37.7838V36.7451H196.154V37.7654C196.834 37.8022 197.524 38.0044 198.02 38.3261L197.643 39.2545C197.156 38.9695 196.641 38.8133 196.154 38.7581V40.6153C197.174 40.8635 198.287 41.1852 198.287 42.4634C198.287 43.4009 197.597 44.2103 196.154 44.3574ZM195.4 40.4223V38.7857C194.747 38.8868 194.472 39.2177 194.472 39.6221C194.472 40.0638 194.867 40.2661 195.4 40.4223ZM197.11 42.5461C197.11 42.0957 196.706 41.8843 196.154 41.728V43.3555C196.825 43.2539 197.11 42.9414 197.11 42.5461Z" fill="white"/>
<path d="M134.525 59.5752H168.618" stroke="#1D85EE" stroke-width="0.947308" stroke-miterlimit="10"/>
<path d="M135.877 64.4805H154.395" stroke="#1D85EE" stroke-width="0.947308" stroke-miterlimit="10"/>
<path d="M208.823 62.395H189.692C188.71 62.395 187.694 61.5989 187.423 60.617C187.153 59.635 187.729 58.8389 188.712 58.8389H207.843C208.825 58.8389 209.841 59.635 210.111 60.617C210.381 61.5989 209.805 62.395 208.823 62.395Z" fill="#1D85EE"/>
<path d="M139.037 76.7773H173.129" stroke="#1D85EE" stroke-width="0.947308" stroke-miterlimit="10"/>
<path d="M140.388 81.6836H158.907" stroke="#1D85EE" stroke-width="0.947308" stroke-miterlimit="10"/>
<path d="M213.335 79.5982H194.203C193.222 79.5982 192.206 78.8021 191.935 77.8201C191.665 76.8381 192.241 76.042 193.224 76.042H212.355C213.337 76.042 214.352 76.8381 214.623 77.8201C214.894 78.8021 214.317 79.5982 213.335 79.5982Z" fill="#1D85EE"/>
<path d="M143.734 93.9814H177.827" stroke="#1D85EE" stroke-width="0.947308" stroke-miterlimit="10"/>
<path d="M145.086 98.8857H163.604" stroke="#1D85EE" stroke-width="0.947308" stroke-miterlimit="10"/>
<path d="M218.032 96.8013H198.901C197.919 96.8013 196.903 96.0052 196.633 95.0232C196.362 94.0412 196.939 93.2451 197.921 93.2451H217.052C218.034 93.2451 219.05 94.0412 219.32 95.0232C219.591 96.0052 219.014 96.8013 218.032 96.8013Z" fill="#1D85EE"/>
<path d="M149.165 111.185H183.257" stroke="#1D85EE" stroke-width="0.947308" stroke-miterlimit="10"/>
<path d="M150.516 116.09H169.034" stroke="#1D85EE" stroke-width="0.947308" stroke-miterlimit="10"/>
<path d="M223.462 114.005H204.331C203.349 114.005 202.334 113.209 202.063 112.227C201.792 111.245 202.369 110.449 203.351 110.449H222.482C223.464 110.449 224.48 111.245 224.751 112.227C225.021 113.209 224.444 114.005 223.462 114.005Z" fill="#1D85EE"/>
<path d="M9.43677 130.1V205.214C9.43677 207.598 11.3563 209.518 13.7324 209.518H68.3597C70.7358 209.518 72.663 207.598 72.663 205.214V130.1C72.663 127.724 70.7358 125.797 68.3597 125.797H13.7324C11.3563 125.797 9.43677 127.724 9.43677 130.1Z" fill="#2E2C3F"/>
<path d="M14.2751 130.1V205.214C14.2751 207.598 16.1947 209.518 18.5707 209.518H73.1981C75.5742 209.518 77.5014 207.598 77.5014 205.214V130.1C77.5014 127.724 75.5742 125.797 73.1981 125.797H18.5707C16.1942 125.797 14.2751 127.724 14.2751 130.1Z" fill="#1D85EE"/>
<path d="M14.2751 130.1V156.71H77.5014V130.1C77.5014 127.724 75.5742 125.797 73.1981 125.797H18.5707C16.1942 125.797 14.2751 127.724 14.2751 130.1Z" fill="#2E2C3F"/>
<path d="M18.5707 125.797C16.1947 125.797 14.2751 127.724 14.2751 130.1V156.71" stroke="white" stroke-width="0.245214" stroke-miterlimit="10"/>
<path d="M24.7068 150.508H67.0662C68.2755 150.508 69.2559 149.528 69.2559 148.319V137.167C69.2559 135.958 68.2755 134.978 67.0662 134.978H24.7068C23.4975 134.978 22.5171 135.958 22.5171 137.167V148.319C22.5171 149.528 23.4975 150.508 24.7068 150.508Z" fill="#1D85EE"/>
<path d="M67.7075 148.319V137.167C67.7075 136.813 67.42 136.525 67.0656 136.525H24.7061C24.3517 136.525 24.0647 136.812 24.0647 137.167V148.318C24.0647 148.672 24.3517 148.959 24.7056 148.959H67.0666C67.4205 148.96 67.7075 148.673 67.7075 148.319Z" fill="white"/>
<path d="M63.2375 171.895C66.5615 171.895 69.256 169.201 69.256 165.877C69.256 162.553 66.5615 159.858 63.2375 159.858C59.9136 159.858 57.219 162.553 57.219 165.877C57.219 169.201 59.9136 171.895 63.2375 171.895Z" fill="white" stroke="#2E2C3F" stroke-width="0.537358" stroke-miterlimit="10"/>
<path d="M45.8867 171.895C49.2106 171.895 51.9052 169.201 51.9052 165.877C51.9052 162.553 49.2106 159.858 45.8867 159.858C42.5627 159.858 39.8682 162.553 39.8682 165.877C39.8682 169.201 42.5627 171.895 45.8867 171.895Z" fill="white" stroke="#2E2C3F" stroke-width="0.537358" stroke-miterlimit="10"/>
<path d="M28.5356 171.895C31.8596 171.895 34.5541 169.201 34.5541 165.877C34.5541 162.553 31.8596 159.858 28.5356 159.858C25.2117 159.858 22.5171 162.553 22.5171 165.877C22.5171 169.201 25.2117 171.895 28.5356 171.895Z" fill="white" stroke="#2E2C3F" stroke-width="0.537358" stroke-miterlimit="10"/>
<path d="M63.2375 187.573C66.5615 187.573 69.256 184.879 69.256 181.555C69.256 178.231 66.5615 175.536 63.2375 175.536C59.9136 175.536 57.219 178.231 57.219 181.555C57.219 184.879 59.9136 187.573 63.2375 187.573Z" fill="white" stroke="#2E2C3F" stroke-width="0.537358" stroke-miterlimit="10"/>
<path d="M45.8867 187.573C49.2106 187.573 51.9052 184.879 51.9052 181.555C51.9052 178.231 49.2106 175.536 45.8867 175.536C42.5627 175.536 39.8682 178.231 39.8682 181.555C39.8682 184.879 42.5627 187.573 45.8867 187.573Z" fill="white" stroke="#2E2C3F" stroke-width="0.537358" stroke-miterlimit="10"/>
<path d="M63.2375 202.364C66.5615 202.364 69.256 199.67 69.256 196.346C69.256 193.022 66.5615 190.327 63.2375 190.327C59.9136 190.327 57.219 193.022 57.219 196.346C57.219 199.67 59.9136 202.364 63.2375 202.364Z" fill="white" stroke="#2E2C3F" stroke-width="0.537358" stroke-miterlimit="10"/>
<path d="M45.8867 202.364C49.2106 202.364 51.9052 199.67 51.9052 196.346C51.9052 193.022 49.2106 190.327 45.8867 190.327C42.5627 190.327 39.8682 193.022 39.8682 196.346C39.8682 199.67 42.5627 202.364 45.8867 202.364Z" fill="white" stroke="#2E2C3F" stroke-width="0.537358" stroke-miterlimit="10"/>
<path d="M28.5356 175.536C31.8594 175.536 34.5541 178.231 34.5541 181.555C34.5541 181.605 34.548 181.654 34.5465 181.704V196.196C34.5475 196.246 34.5541 196.295 34.5541 196.345C34.5541 199.669 31.8594 202.364 28.5356 202.364C25.2118 202.364 22.5171 199.669 22.5171 196.345V181.555C22.5171 178.23 25.2118 175.536 28.5356 175.536Z" fill="white" stroke="#2E2C3F" stroke-width="0.537358" stroke-miterlimit="10"/>
<path d="M31.2922 131.587C31.9657 131.587 32.5116 131.041 32.5116 130.368C32.5116 129.694 31.9657 129.148 31.2922 129.148C30.6187 129.148 30.0728 129.694 30.0728 130.368C30.0728 131.041 30.6187 131.587 31.2922 131.587Z" fill="#F5B55D"/>
<path d="M23.7365 131.587C24.41 131.587 24.956 131.041 24.956 130.368C24.956 129.694 24.41 129.148 23.7365 129.148C23.063 129.148 22.5171 129.694 22.5171 130.368C22.5171 131.041 23.063 131.587 23.7365 131.587Z" fill="#F5B55D"/>
<path d="M52.9494 39.6961C52.9494 39.6961 46.9697 37.3251 46.791 49.6803C46.673 57.8538 35.7589 50.8829 38.0726 67.4463C39.3462 76.5645 53.3932 73.7682 53.3932 73.7682L61.1551 44.4318L52.9494 39.6961Z" fill="#2E2C3F"/>
<path d="M46.6047 67.2054C46.6047 67.2054 50.3136 62.3134 50.2012 53.619C50.1711 51.2844 58.2894 58.2884 58.2894 58.2884L58.2164 72.363L51.5759 75.1624L46.6047 67.2054Z" fill="#FBAE94"/>
<path d="M50.2956 51.4775C50.2956 51.4775 49.5674 57.4505 51.8122 60.83C54.0566 64.21 56.6083 65.4872 59.0936 64.138C63.2467 61.8835 65.2107 56.5109 65.9716 53.7846C66.7324 51.0582 68.2041 41.3344 62.9771 39.565C57.7501 37.7956 53.4433 39.9352 51.6269 43.8882C49.8105 47.8411 50.2956 51.4775 50.2956 51.4775Z" fill="#FBAE94"/>
<path d="M51.8123 60.8301C53.6945 63.6642 55.7923 65.02 57.8859 64.588" stroke="#2E2C3F" stroke-width="0.268704" stroke-miterlimit="10"/>
<path d="M50.099 49.8455C50.099 49.8455 52.3898 50.0691 57.025 49.7214C62.5083 49.3103 64.8992 45.6714 64.8992 45.6714C64.8992 45.6714 66.7181 47.6849 66.3867 51.6741C66.3867 51.6741 71.217 48.9973 67.5525 43.5267C67.5525 43.5267 67.0077 38.629 62.3275 37.4464C57.6454 36.2632 54.1086 38.1025 51.7418 41.0398C48.6023 44.9366 50.099 49.8455 50.099 49.8455Z" fill="#2E2C3F"/>
<path d="M59.3889 56.5469C59.3889 56.5469 60.1528 58.4991 59.4032 58.6467C58.6535 58.7937 58.2195 58.449 58.2195 58.449" stroke="#2E2C3F" stroke-width="0.268704" stroke-miterlimit="10"/>
<path d="M56.7471 59.9775C56.7471 59.9775 57.6233 61.8128 59.4096 60.5153L56.7471 59.9775Z" fill="white"/>
<path d="M51.2919 50.0446C51.2919 50.0446 50.0704 47.9473 48.8576 49.0835C47.6448 50.2203 50.2701 54.8401 50.2701 54.8401" fill="#FBAE94"/>
<path d="M63.5733 55.1636C63.7128 54.7888 63.623 54.4095 63.3727 54.3163C63.1223 54.2231 62.8064 54.4515 62.6669 54.8263C62.5274 55.2011 62.6172 55.5804 62.8675 55.6736C63.1178 55.7667 63.4338 55.5384 63.5733 55.1636Z" fill="#2E2C3F"/>
<path d="M56.6627 53.2144C56.8022 52.8396 56.7123 52.4602 56.462 52.3671C56.2117 52.2739 55.8957 52.5022 55.7562 52.877C55.6167 53.2518 55.7066 53.6312 55.9569 53.7243C56.2072 53.8175 56.5232 53.5892 56.6627 53.2144Z" fill="#2E2C3F"/>
<path d="M62.55 52.5967C62.55 52.5967 64.08 52.3991 64.9506 53.4086L62.55 52.5967Z" fill="#2E2C3F"/>
<path d="M55.311 51.2478C55.311 51.2478 56.7822 50.7841 57.8168 51.6241L55.311 51.2478Z" fill="#2E2C3F"/>
<path d="M50.5309 50.5294C50.5309 50.5294 49.9309 49.6261 49.5576 49.9264C49.1843 50.2266 50.0938 52.3157 50.3271 52.8417" fill="#2E2C3F"/>
<path d="M52.9494 39.6963C52.9494 39.6963 49.5403 42.0121 49.5061 46.4925" stroke="white" stroke-width="0.23975" stroke-miterlimit="10"/>
<path d="M64.7954 69.373C64.7954 69.373 68.0937 70.545 67.4242 77.6854C66.7548 84.8253 66.9253 97.0835 66.9253 97.0835L93.1069 100.345L92.0274 103.963C92.0274 103.963 87.9728 104.1 77.1302 105.284C70.0337 106.059 63.721 105.116 60.4518 102.899C53.8695 98.4367 60.7306 74.7849 60.7306 74.7849L64.7954 69.373Z" fill="#FBAE94"/>
<path d="M64.8633 69.2012C64.8633 69.2012 67.7673 70.7045 67.7673 75.0783C67.7673 79.452 66.9702 95.9889 67.4145 96.1942C67.8587 96.3989 69.8406 96.809 69.8406 96.809C69.8406 96.809 72.0272 97.1736 72.5741 97.72C72.5741 97.72 70.2277 102.276 71.082 105.659C71.082 105.659 70.3303 106.171 68.3142 105.42C68.3142 105.42 64.0089 105.385 62.1298 104.839C60.2506 104.293 61.207 97.9712 61.207 97.9712C61.207 97.9712 64.0774 76.6505 64.0432 76.7527C64.0089 76.8553 64.1458 69.4407 64.1458 69.4407L64.8633 69.2012Z" fill="#1D85EE"/>
<path d="M108.582 179.586C108.582 179.586 110.68 182.942 111.582 185.31L114.375 184.536L111.933 179.511L108.582 179.586Z" fill="#2E2C3F"/>
<path d="M107.416 172.565C107.416 172.565 107.345 178.794 108.718 179.744C110.091 180.695 111.421 180.745 113.521 181.84C115.621 182.935 117.428 183.465 119.166 184.618C120.904 185.77 122.629 186.267 126.313 185.009C129.996 183.752 134.641 181.583 132.137 179.393C129.633 177.203 119.252 177.238 119.252 177.238L107.416 172.565Z" fill="#2E2C3F"/>
<path d="M105.996 168.29C105.996 168.29 107.148 170.344 107.347 172.154C107.546 173.963 108.218 177.439 109.808 178.745C111.397 180.051 115.607 182.302 120.537 184.266C122.878 185.199 126.869 184.157 129.774 182.129C132.678 180.102 132.531 179.483 131.418 178.929C130.306 178.376 124.939 177.246 121.544 175.225C118.15 173.204 114.776 170.032 113.5 168.008C111.786 165.288 112.014 165.475 112.014 165.475L105.996 168.29Z" fill="#FBAE94"/>
<path d="M128.738 177.993C128.738 177.993 125.252 180.322 123.76 184.529L122.29 184.922L119.71 184.304C119.71 184.304 120.942 178.841 125.766 177.079L128.738 177.993Z" fill="#2E2C3F"/>
<path d="M99.7932 199.245C99.7932 199.245 100.777 203.079 100.92 205.609L103.816 205.717L103.01 200.188L99.7932 199.245Z" fill="#2E2C3F"/>
<path d="M100.808 192.2C100.808 192.2 98.8541 198.115 99.8748 199.436C100.896 200.758 102.148 201.208 103.818 202.888C105.487 204.567 107.049 205.62 108.357 207.244C109.665 208.869 111.158 209.865 115.049 209.781C118.941 209.698 124.025 209.037 122.301 206.192C120.577 203.347 110.673 200.238 110.673 200.238L100.808 192.2Z" fill="#2E2C3F"/>
<path d="M100.749 187.696C100.749 187.696 101.225 190.002 100.867 191.787C100.509 193.571 100.097 197.088 101.216 198.814C102.336 200.539 105.667 203.959 109.771 207.324C111.719 208.921 115.839 209.136 119.221 208.083C122.602 207.03 122.65 206.396 121.757 205.531C120.864 204.667 116.091 201.966 113.467 199.011C110.844 196.057 108.589 192.013 107.986 189.697C107.175 186.587 107.336 186.834 107.336 186.834L100.749 187.696Z" fill="#FBAE94"/>
<path d="M119.486 203.829C119.486 203.829 115.458 204.993 112.762 208.551L111.243 208.48L108.97 207.109C108.97 207.109 111.798 202.275 116.929 202.057L119.486 203.829Z" fill="#2E2C3F"/>
<path d="M90.7945 143.624C89.7686 142.848 69.3267 135.532 66.6295 134.575C66.5171 134.533 66.4395 134.498 66.3879 134.48C66.4569 134.498 66.5171 134.507 66.5861 134.523C78.3755 137.462 92.8453 140.547 92.8453 140.547L106.241 172.39C107.939 177.276 91.8888 144.443 90.7945 143.624Z" fill="#2E2C3F"/>
<path d="M113.727 192.263C113.727 192.263 103.679 195.78 97.155 194.099C97.155 194.099 77.7472 147.079 77.0752 145.571C76.7652 144.873 71.8528 139.823 66.6303 134.575C66.6217 134.558 66.6043 134.541 66.5875 134.523C60.477 128.379 53.9795 121.976 53.9795 121.976L61.6755 100.638C61.6755 100.638 80.592 115.452 87.1156 123.312C91.235 128.276 100.465 154.311 106.928 172.934C108.626 177.821 110.332 182.285 111.504 185.637L111.513 185.646C111.677 186.128 111.832 186.577 111.978 187.008L112.116 187.43C113.133 190.462 113.727 192.263 113.727 192.263Z" fill="#2E2C3F"/>
<path d="M38.3335 104.153C38.3335 104.153 36.2976 121.976 45.4459 127.443C54.5942 132.909 92.8475 140.544 92.8475 140.544L106.249 172.738C106.249 172.738 114.282 171.176 116.401 165.375C116.401 165.375 108.48 131.459 104.575 126.996C100.67 122.534 65.1927 108.923 65.1927 108.923L61.6784 100.639L49.0158 98.4355L38.3335 104.153Z" fill="#2E2C3F"/>
<path d="M66.5869 134.523C78.3763 137.462 92.8461 140.548 92.8461 140.548L106.241 172.39" stroke="white" stroke-width="0.23975" stroke-miterlimit="10"/>
<path d="M75.5727 113.037C69.6471 110.632 65.1927 108.923 65.1927 108.923L62.7109 104.941" stroke="white" stroke-width="0.23975" stroke-miterlimit="10"/>
<path d="M49.1576 60.3184C49.1576 60.3184 40.593 61.8672 38.3058 68.7599C35.7934 76.3313 36.5287 105.762 37.7001 109.862C37.7001 109.862 57.8438 110.451 62.552 101.776C62.552 101.776 62.0567 96.3652 62.2926 94.8659C63.0177 90.2639 65.3886 87.1122 65.6118 83.4861C65.835 79.8599 64.1947 71.9352 64.8642 69.2016L58.3039 64.4521C58.3039 64.4521 58.6455 68.86 56.5472 68.0343C53.5472 66.8547 49.1576 60.3184 49.1576 60.3184Z" fill="#1D85EE"/>
<path d="M62.5516 101.775C62.5516 101.775 62.0563 96.3651 62.2922 94.8658C63.0173 90.2638 65.3883 87.1121 65.6114 83.4859C65.7228 81.6792 65.3714 78.8053 65.0732 76.0381" stroke="#2E2C3F" stroke-width="0.268704" stroke-miterlimit="10"/>
<path d="M40.6484 63.8506C40.6484 63.8506 37.0784 66.0821 34.6237 79.9162C32.169 93.7502 29.4917 100.779 34.5124 103.233C39.5326 105.688 61.6228 96.8744 61.6228 96.8744L61.1765 92.0768L41.541 92.6344C41.541 92.6344 45.7804 77.0152 45.5572 71.4368C45.3341 65.8585 40.6484 63.8506 40.6484 63.8506Z" fill="#FBAE94"/>
<path d="M91.8386 97.1392L73.9878 97.0273L60.9907 102.104L88.0409 102.048L91.8386 97.1392Z" fill="#2E2C3F"/>
<path d="M100.634 81.937C97.7726 86.1453 86.1497 103.051 86.1497 103.051L94.0356 99.942L106.463 81.4508C106.661 81.1567 106.439 80.7625 106.084 80.7799L102.376 80.9616C101.673 80.9964 101.03 81.3554 100.634 81.937Z" fill="#2E2C3F"/>
<path d="M60.9907 102.104V103.152H87.1529L88.0409 102.049L60.9907 102.104Z" fill="white"/>
<path d="M101.636 81.8403C98.774 86.0486 87.1521 103.152 87.1521 103.152L94.9467 99.9418L107.464 81.3542C107.662 81.06 107.44 80.6658 107.085 80.6832L103.377 80.865C102.675 80.8997 102.031 81.2582 101.636 81.8403Z" fill="white"/>
<path d="M99.4975 90.3377C99.8017 89.8109 99.8231 89.2538 99.5454 89.0935C99.2678 88.9332 98.7961 89.2303 98.4919 89.7571C98.1877 90.2839 98.1663 90.8409 98.444 91.0012C98.7217 91.1616 99.1933 90.8645 99.4975 90.3377Z" fill="#2E2C3F"/>
<path d="M58.9465 92.4407C58.9465 92.4407 60.5255 91.4506 61.4891 89.8446C62.4527 88.2386 63.0951 87.1682 64.7005 86.3655C66.3065 85.5627 67.6444 84.6257 69.2234 84.8933C70.8023 85.1609 72.4885 86.1245 72.4885 86.1245C72.4885 86.1245 72.2745 87.0881 71.0163 86.7398C69.7585 86.392 68.6612 86.4452 68.6612 86.4452L67.2962 87.3817C67.2962 87.3817 69.3837 87.8903 69.4373 88.2651C69.4373 88.2651 70.7487 88.5863 70.7487 89.2823C70.7487 89.2823 72.1137 90.3797 71.7123 91.3964C71.3109 92.4136 70.2937 93.484 69.4644 92.8686C69.4644 92.8686 70.187 91.6374 69.6248 91.5302C69.0625 91.423 67.6975 92.5474 66.8146 93.3767C65.9312 94.2065 64.2987 95.9193 63.0144 96.4815C61.7296 97.0437 59.1871 97.5789 59.1871 97.5789L58.9465 92.4407Z" fill="#FBAE94"/>
<path d="M67.2964 87.3833C67.2964 87.3833 65.5301 87.3297 65.0215 87.5973" stroke="#2E2C3F" stroke-width="0.268704" stroke-miterlimit="10"/>
<path d="M69.4378 88.2666L67.0291 88.5873" stroke="#2E2C3F" stroke-width="0.268704" stroke-miterlimit="10"/>
<path d="M70.7492 89.2832C70.7492 89.2832 68.5815 89.4972 67.8855 89.9792" stroke="#2E2C3F" stroke-width="0.268704" stroke-miterlimit="10"/>
<path d="M47.153 92.4811C47.153 92.4811 45.3305 91.9801 44.5564 92.3902H41.9597C41.9597 92.3902 44.3741 83.1878 44.5109 82.1399C44.512 82.1333 44.5069 82.1266 44.5069 82.12C44.8352 80.513 47.0254 69.4395 45.6951 66.3996C44.2602 63.1197 45.6043 61.502 45.6043 61.502C45.6043 61.502 39.2032 62.9823 37.0851 68.1077C34.9669 73.2331 33.8736 81.3647 33.8736 81.3647C33.8736 81.3647 31.2539 92.4806 30.5247 95.8519C29.796 99.2232 29.8415 105.237 34.5793 104.963C39.3171 104.69 42.7798 103.597 42.7798 103.597C42.7798 103.597 46.4244 103.597 47.6091 102.048C47.6091 102.048 49.6134 93.7567 47.153 92.4811Z" fill="#1D85EE"/>
<path d="M47.153 92.4811C47.153 92.4811 45.3305 91.9801 44.5564 92.3902H41.9597C41.9597 92.3902 46.2762 75.7843 45.9688 71.4336" stroke="#2E2C3F" stroke-width="0.268704" stroke-miterlimit="10"/>
<path d="M41.9597 92.3901C41.9597 92.3901 38.52 92.0255 36.4702 93.0509" stroke="#2E2C3F" stroke-width="0.268704" stroke-miterlimit="10"/>
<path d="M44.5562 92.3896C44.5562 92.3896 45.2854 97.2873 43.5083 102.617" stroke="#2E2C3F" stroke-width="0.268704" stroke-miterlimit="10"/>
<path d="M90.861 102.783C90.861 102.783 90.8344 104.452 91.5294 104.38C92.2244 104.308 92.8627 103.652 92.8627 103.652C92.8627 103.652 93.4576 104.42 94.4223 103.182C94.4223 103.182 95.4757 103.25 96.1431 101.602C96.1431 101.602 97.0567 101.004 97.2395 100.35C97.4223 99.6963 97.8799 96.9189 97.6541 96.6095C97.6541 96.6095 97.6194 96.4042 97.4034 96.4905C97.4034 96.4905 97.4672 95.7296 97.0485 95.652C96.6298 95.5749 96.4577 96.3919 96.4577 96.3919C96.4577 96.3919 96.067 95.4773 95.6473 95.6331C95.227 95.7883 94.601 98.7879 94.601 98.7879C94.601 98.7879 94.3957 96.754 93.8646 97.6119C93.333 98.4703 93.1226 99.8322 92.3735 101.035C91.6244 102.239 90.861 102.783 90.861 102.783Z" fill="#FBAE94"/>
<path d="M94.6006 98.7881C94.6006 98.7881 94.452 99.7767 93.9429 100.884C93.4343 101.991 92.9006 103.237 92.9006 103.237" stroke="#2E2C3F" stroke-width="0.268704" stroke-miterlimit="10"/>
<path d="M96.4574 96.3916C96.4574 96.3916 96.2056 98.712 95.817 99.7966C95.4284 100.881 94.6165 102.613 94.6165 102.613" stroke="#2E2C3F" stroke-width="0.268704" stroke-miterlimit="10"/>
<path d="M96.1433 101.602C96.1433 101.602 96.871 99.8394 97.0558 98.8232" stroke="#2E2C3F" stroke-width="0.268704" stroke-miterlimit="10"/>
<path d="M216.297 153.804C214.771 153.804 213.533 155.618 213.533 157.856C213.533 160.094 214.771 161.908 216.297 161.908" stroke="#2E2C3F" stroke-width="0.708324" stroke-miterlimit="10"/>
<path d="M206.832 153.498C205.301 153.498 204.06 155.317 204.06 157.562C204.06 159.806 205.301 161.626 206.832 161.626" stroke="#2E2C3F" stroke-width="0.708324" stroke-miterlimit="10"/>
<path d="M197.461 153.438C195.919 153.438 194.668 155.271 194.668 157.532C194.668 159.793 195.919 161.626 197.461 161.626" stroke="#2E2C3F" stroke-width="0.708324" stroke-miterlimit="10"/>
<path d="M188.232 153.132C186.632 153.132 185.335 155.033 185.335 157.379C185.335 159.724 186.632 161.626 188.232 161.626" stroke="#2E2C3F" stroke-width="0.708324" stroke-miterlimit="10"/>
<path d="M178.782 153.254C177.205 153.254 175.927 155.128 175.927 157.44C175.927 159.751 177.205 161.626 178.782 161.626" stroke="#2E2C3F" stroke-width="0.708324" stroke-miterlimit="10"/>
<path d="M169.569 173.375C169.569 173.375 170.15 209.41 171.447 209.792C172.746 210.174 225.709 209.227 226.758 207.602C227.806 205.978 191.166 167.565 191.166 167.565L169.569 173.375Z" fill="#2E2C3F"/>
<path d="M171.198 156.56C171.198 156.56 171.88 163.68 172.847 172.831C174.223 186.007 176.179 203.402 177.468 209.877H226.76C227.637 209.436 224.085 182.251 223.499 174.024C223.483 173.836 223.472 173.647 223.461 173.481C223.45 173.309 223.44 173.142 223.429 172.97C222.972 165.625 222.064 157.758 222.064 157.758L171.198 156.56Z" fill="white"/>
<path d="M226.76 209.874C227.636 209.435 224.082 182.251 223.499 174.025" stroke="#2E2C3F" stroke-width="0.177094" stroke-miterlimit="10" stroke-linecap="round" stroke-linejoin="round"/>
<g opacity="0.4">
<path d="M214.155 183.281L218.438 183.291C218.887 183.292 219.21 182.917 219.159 182.452L218.681 178.07C218.63 177.604 218.224 177.22 217.772 177.212L213.473 177.136C213.011 177.128 212.678 177.505 212.731 177.978L213.225 182.425C213.278 182.897 213.695 183.28 214.155 183.281Z" fill="#1D85EE"/>
<path d="M203.665 183.253L208.172 183.265C208.645 183.266 208.984 182.881 208.93 182.404L208.424 177.909C208.37 177.431 207.942 177.037 207.467 177.029L202.943 176.948C202.457 176.94 202.106 177.326 202.162 177.812L202.686 182.375C202.742 182.859 203.181 183.252 203.665 183.253Z" fill="#1D85EE"/>
<path d="M192.616 183.226L197.365 183.237C197.864 183.238 198.22 182.843 198.163 182.354L197.627 177.741C197.569 177.251 197.118 176.846 196.619 176.836L191.851 176.752C191.338 176.743 190.969 177.14 191.028 177.639L191.584 182.324C191.643 182.821 192.105 183.225 192.616 183.226Z" fill="#1D85EE"/>
<path d="M180.961 183.197L185.972 183.21C186.498 183.212 186.874 182.806 186.813 182.303L186.244 177.565C186.183 177.061 185.707 176.645 185.18 176.635L180.148 176.546C179.607 176.536 179.218 176.944 179.28 177.457L179.871 182.271C179.933 182.781 180.422 183.196 180.961 183.197Z" fill="#1D85EE"/>
<path d="M215.437 194.837L219.69 194.726C220.136 194.714 220.456 194.331 220.406 193.87L219.931 189.522C219.881 189.06 219.477 188.689 219.029 188.693L214.761 188.74C214.302 188.745 213.972 189.13 214.024 189.599L214.515 194.011C214.566 194.48 214.98 194.849 215.437 194.837Z" fill="#1D85EE"/>
<path d="M205.023 195.11L209.497 194.992C209.966 194.98 210.303 194.587 210.25 194.114L209.747 189.655C209.694 189.181 209.269 188.801 208.798 188.806L204.306 188.855C203.824 188.86 203.476 189.256 203.531 189.737L204.051 194.264C204.107 194.744 204.542 195.122 205.023 195.11Z" fill="#1D85EE"/>
<path d="M194.056 195.397L198.769 195.274C199.264 195.261 199.618 194.857 199.561 194.372L199.029 189.797C198.973 189.31 198.525 188.92 198.029 188.925L193.297 188.977C192.788 188.983 192.422 189.388 192.481 189.882L193.032 194.529C193.089 195.022 193.549 195.411 194.056 195.397Z" fill="#1D85EE"/>
<path d="M182.489 195.7L187.462 195.569C187.984 195.556 188.357 195.141 188.297 194.643L187.732 189.945C187.672 189.445 187.2 189.044 186.676 189.05L181.683 189.105C181.146 189.111 180.76 189.528 180.822 190.035L181.407 194.809C181.47 195.315 181.955 195.714 182.489 195.7Z" fill="#1D85EE"/>
<path d="M216.708 206.304L220.931 206.072C221.374 206.047 221.692 205.657 221.642 205.2L221.171 200.886C221.121 200.427 220.721 200.069 220.276 200.087L216.037 200.255C215.582 200.273 215.254 200.666 215.306 201.131L215.792 205.509C215.844 205.973 216.255 206.329 216.708 206.304Z" fill="#1D85EE"/>
<path d="M206.369 206.87L210.811 206.627C211.277 206.601 211.611 206.201 211.559 205.732L211.06 201.308C211.007 200.838 210.586 200.472 210.118 200.49L205.659 200.667C205.179 200.686 204.834 201.089 204.889 201.566L205.404 206.056C205.46 206.532 205.892 206.897 206.369 206.87Z" fill="#1D85EE"/>
<path d="M195.483 207.468L200.161 207.211C200.652 207.184 201.004 206.772 200.948 206.291L200.42 201.753C200.364 201.27 199.919 200.894 199.427 200.914L194.73 201.1C194.225 201.12 193.861 201.534 193.92 202.024L194.466 206.633C194.524 207.122 194.98 207.495 195.483 207.468Z" fill="#1D85EE"/>
<path d="M184.005 208.098L188.94 207.827C189.457 207.799 189.828 207.376 189.769 206.882L189.209 202.223C189.149 201.727 188.681 201.342 188.161 201.362L183.206 201.559C182.673 201.58 182.29 202.006 182.352 202.509L182.932 207.242C182.993 207.744 183.474 208.127 184.005 208.098Z" fill="#1D85EE"/>
</g>
<path d="M169.25 157.31C169.25 157.31 169.356 165.153 169.463 173.932L172.846 172.834L180.796 173.025C180.796 173.025 218.293 173.096 223.43 172.971C222.972 165.628 222.066 157.761 222.066 157.761L171.196 156.562L169.25 157.31Z" fill="#1D85EE"/>
<path d="M169.25 157.309C169.25 157.309 169.356 165.153 169.462 173.931L172.846 172.833L171.196 156.561L169.25 157.309Z" fill="#2E2C3F"/>
<path d="M172.846 172.833L171.196 156.562" stroke="#2E2C3F" stroke-width="0.177094" stroke-miterlimit="10" stroke-linecap="round" stroke-linejoin="round"/>
<path d="M216.286 163.297C216.997 163.297 217.574 162.721 217.574 162.01C217.574 161.299 216.997 160.723 216.286 160.723C215.575 160.723 214.999 161.299 214.999 162.01C214.999 162.721 215.575 163.297 216.286 163.297Z" fill="#2E2C3F"/>
<path d="M206.909 163.128C207.62 163.128 208.197 162.552 208.197 161.841C208.197 161.13 207.62 160.554 206.909 160.554C206.198 160.554 205.622 161.13 205.622 161.841C205.622 162.552 206.198 163.128 206.909 163.128Z" fill="#2E2C3F"/>
<path d="M197.532 162.961C198.243 162.961 198.819 162.385 198.819 161.674C198.819 160.963 198.243 160.387 197.532 160.387C196.821 160.387 196.244 160.963 196.244 161.674C196.244 162.385 196.821 162.961 197.532 162.961Z" fill="#2E2C3F"/>
<path d="M188.155 162.792C188.866 162.792 189.442 162.216 189.442 161.505C189.442 160.794 188.866 160.218 188.155 160.218C187.444 160.218 186.867 160.794 186.867 161.505C186.867 162.216 187.444 162.792 188.155 162.792Z" fill="#2E2C3F"/>
<path d="M178.777 162.624C179.488 162.624 180.064 162.047 180.064 161.336C180.064 160.625 179.488 160.049 178.777 160.049C178.066 160.049 177.49 160.625 177.49 161.336C177.49 162.047 178.066 162.624 178.777 162.624Z" fill="#2E2C3F"/>
<path d="M216.297 161.909C217.823 161.909 219.061 160.094 219.061 157.857C219.061 155.619 217.823 153.805 216.297 153.805" stroke="#2E2C3F" stroke-width="0.708324" stroke-miterlimit="10"/>
<path d="M206.832 161.626C208.363 161.626 209.604 159.806 209.604 157.562C209.604 155.317 208.363 153.498 206.832 153.498" stroke="#2E2C3F" stroke-width="0.708324" stroke-miterlimit="10"/>
<path d="M197.461 161.625C199.003 161.625 200.254 159.792 200.254 157.531C200.254 155.27 199.004 153.437 197.461 153.437" stroke="#2E2C3F" stroke-width="0.708324" stroke-miterlimit="10"/>
<path d="M188.232 161.626C189.832 161.626 191.129 159.724 191.129 157.379C191.129 155.033 189.832 153.132 188.232 153.132" stroke="#2E2C3F" stroke-width="0.708324" stroke-miterlimit="10"/>
<path d="M178.782 161.626C180.359 161.626 181.637 159.752 181.637 157.441C181.637 155.129 180.359 153.255 178.782 153.255" stroke="#2E2C3F" stroke-width="0.708324" stroke-miterlimit="10"/>
<path d="M97.5838 41.7529C92.2138 41.7529 87.86 46.1062 87.86 51.4767C87.86 53.4724 88.4631 55.326 89.2965 56.8039L87.3489 61.0091L92.0346 59.4557C93.6089 60.5525 95.5193 61.2006 97.5838 61.2006C102.954 61.2006 107.308 56.8473 107.308 51.4767C107.308 46.1067 102.954 41.7529 97.5838 41.7529Z" fill="#1D85EE"/>
<path d="M93.0457 51.3024L93.9597 54.567L103.187 49.6484" stroke="white" stroke-width="1.7932" stroke-miterlimit="10" stroke-linecap="round" stroke-linejoin="round"/>
<path d="M127.564 106.505C133.999 108.056 140.639 103.861 142.213 96.7541C143.871 89.2654 139.219 81.9621 132.051 80.8621C125.204 79.8117 119.084 84.9468 118.151 91.9693C117.262 98.6603 121.392 105.018 127.564 106.505Z" fill="#1D85EE"/>
<path d="M123.137 105.282C126.677 108.592 131.66 109.829 136.28 108.437C138.621 107.732 140.779 106.375 142.514 104.492C145.237 101.537 146.702 97.5861 146.557 93.3845C146.409 89.0894 144.602 85.1563 141.491 82.4004C137.379 78.7579 131.721 77.9485 126.886 80.1683H126.886L127.335 81.5266L126.885 80.1683C124.602 81.2167 122.623 82.8972 121.147 85.0077C118.968 88.1263 118.029 91.9214 118.439 95.7212C118.842 99.4474 120.503 102.819 123.137 105.282ZM122.642 86.3707C123.968 84.5104 125.681 83.1331 127.587 82.2814C131.585 80.4951 136.377 81.0395 139.998 84.2612C145.456 89.118 145.774 97.7117 140.944 103.061C139.421 104.746 137.58 105.887 135.635 106.493C131.784 107.694 127.48 106.806 124.295 103.837C119.592 99.4546 118.78 91.7877 122.642 86.3707Z" fill="#2E2C3F"/>
<path d="M127.729 105.565C133.662 106.975 139.752 103.083 141.173 96.5479C142.664 89.6919 138.407 83.0131 131.855 81.9831C125.573 80.9955 119.923 85.6838 119.044 92.1471C118.203 98.3286 122.02 104.208 127.729 105.565Z" fill="#1D85EE"/>
<path d="M124.784 79.6639C122.501 80.7123 120.521 82.3929 119.046 84.5034C116.867 87.6219 115.928 91.4171 116.338 95.2168C116.74 98.9425 118.401 102.314 121.035 104.777C124.575 108.087 129.558 109.325 134.179 107.932C136.519 107.227 138.677 105.871 140.412 103.987C143.135 101.032 144.6 97.0812 144.455 92.8796C144.307 88.5845 142.5 84.6515 139.389 81.8955C135.278 78.253 129.619 77.4436 124.784 79.6634L124.784 79.6639ZM120.541 85.8658C121.867 84.0055 123.58 82.6283 125.485 81.7765C129.483 79.9902 134.276 80.5346 137.897 83.7563C143.355 88.6131 143.673 97.2068 138.842 102.556C137.32 104.242 135.479 105.382 133.534 105.988C129.683 107.189 125.379 106.302 122.194 103.333C117.491 98.9497 116.679 91.2828 120.541 85.8658Z" fill="white"/>
<path d="M126.607 85.1261C126.764 85.0592 126.845 84.8651 126.788 84.6925L126.141 82.7352C126.083 82.5616 125.909 82.4773 125.753 82.5468C125.597 82.6157 125.517 82.8123 125.574 82.9849L126.221 84.9361C126.278 85.1082 126.451 85.193 126.607 85.1261Z" fill="#2E2C3F"/>
<path d="M138.665 91.0515L140.618 90.3187C140.793 90.2533 140.889 90.0562 140.834 89.879C140.779 89.7013 140.592 89.6109 140.418 89.6768L138.464 90.4162C138.294 90.4811 138.2 90.6751 138.256 90.8503C138.311 91.0254 138.494 91.1158 138.665 91.0515Z" fill="#2E2C3F"/>
<path d="M133.285 105.272C133.442 105.223 133.525 105.052 133.472 104.89L132.865 103.056C132.811 102.893 132.64 102.803 132.484 102.854C132.327 102.906 132.244 103.079 132.298 103.241L132.905 105.07C132.958 105.231 133.128 105.322 133.285 105.272Z" fill="#2E2C3F"/>
<path d="M119.824 98.1163L121.443 97.5091C121.587 97.455 121.659 97.2819 121.604 97.122C121.549 96.9622 121.387 96.8769 121.243 96.9316L119.624 97.5438C119.483 97.5975 119.413 97.769 119.468 97.9263C119.523 98.0846 119.683 98.1694 119.824 98.1163Z" fill="#2E2C3F"/>
<path d="M129.691 94.362L129.694 94.361L135.47 92.1453C135.658 92.0728 135.76 91.8553 135.695 91.6587C135.631 91.4636 135.428 91.364 135.24 91.435C135.24 91.435 135.238 91.4355 135.237 91.436L129.461 93.6742C129.283 93.7431 129.192 93.9525 129.256 94.1419C129.32 94.3304 129.514 94.4284 129.691 94.362Z" fill="#2E2C3F"/>
<path d="M129.742 94.4313C129.775 94.4186 129.806 94.3971 129.832 94.3665C129.913 94.2705 129.905 94.1229 129.815 94.0366L124.323 88.8193C124.234 88.734 124.098 88.7442 124.022 88.8448C123.946 88.9434 123.955 89.092 124.044 89.1768L129.523 94.3854C129.584 94.4446 129.669 94.4589 129.742 94.4313Z" fill="#2E2C3F"/>
<path d="M129.448 94.9122C129.861 94.9954 130.26 94.7059 130.338 94.2641C130.417 93.8214 130.143 93.395 129.727 93.3133C129.312 93.2321 128.915 93.5252 128.839 93.9664C128.763 94.4071 129.036 94.8294 129.448 94.9122Z" fill="#2E2C3F"/>
<path d="M0 210H252.102" stroke="#2E2C3F" stroke-width="0.537358" stroke-miterlimit="10"/>
</svg>
