<svg width="273" height="210" viewBox="0 0 273 210" fill="none" xmlns="http://www.w3.org/2000/svg">
<g opacity="0.2">
<path d="M61.0281 52.4383C57.6038 50.828 51.941 53.4461 50.1354 57.2774C46.6886 64.5911 57.8364 75.1831 61.8904 74.0463C66.4207 72.7759 67.315 55.3947 61.0281 52.4383Z" stroke="#0F31AC" stroke-width="1.23833" stroke-miterlimit="10" stroke-linecap="round" stroke-dasharray="3.1 3.1 3.1 3.1 3.1 3.1"/>
<path d="M43.9008 69.0038C42.6787 68.2969 29.734 60.8089 22.4082 66.7351C17.2644 70.8962 17.2152 79.7904 21.0807 84.7893C28.7365 94.69 52.4765 90.2512 54.9398 83.1668C56.5985 78.396 48.8107 71.844 43.9008 69.0038Z" stroke="#0F31AC" stroke-width="1.23833" stroke-miterlimit="10" stroke-linecap="round" stroke-dasharray="3.1 3.1 3.1 3.1 3.1 3.1"/>
<path d="M60.5574 191.259C92.066 183.438 127.868 175.476 183.461 176.832C214.553 177.591 221.598 167.942 245.162 155.946C266.164 145.254 276.48 123.994 270.144 111.944C263.748 99.7793 244.267 104.622 228.312 86.5143C221.047 78.267 222.325 72.4865 218.13 63.3409C204.846 34.3819 155.057 11.7472 130.506 23.7261C98.0694 39.5513 125.799 107.93 89.5417 126.609C66.6072 138.425 49.2725 115.742 26.6272 133.057C15.4067 141.637 1.68361 153.672 0.622306 166.74C0.622306 166.74 -0.863686 198.689 60.5574 191.259Z" stroke="#0F31AC" stroke-width="1.23833" stroke-miterlimit="10" stroke-linecap="round" stroke-dasharray="3.1 3.1 3.1 3.1 3.1 3.1"/>
<path d="M234.639 155.676C234.639 155.676 228.931 163.244 223.223 173.627C218.076 182.99 214.162 195.606 213.298 206.139C210.874 206.024 208.212 205.917 205.333 205.814C188.285 205.209 163.673 204.831 136.307 204.831C105.195 204.831 77.6443 205.321 60.7194 206.075C60.1368 206.101 59.5665 206.127 59.0093 206.154C37.8791 179.964 -4.67048 134.336 34.4867 115.565C34.4867 115.565 37.3553 114.691 41.656 112.815C55.2677 106.874 83.239 90.8877 80.1277 60.7461C80.1277 60.7461 79.0677 55.1217 79.0677 47.2954C79.0677 28.9954 84.8613 -1.33866 123.539 0.0457868C146.962 0.885373 168.533 12.8043 181.574 31.882C194.366 50.5937 214.819 73.6161 231.476 60.4725C235.321 57.4373 240.405 56.3129 245.152 57.6472C257.141 61.0149 270.761 78.4487 234.639 155.676Z" fill="#1D85EE"/>
</g>
<path opacity="0.15" d="M265.742 207.16C265.742 208.398 207.792 209.402 136.307 209.402C95.9729 209.402 59.9478 209.083 36.2095 208.581C30.7419 208.466 25.9268 208.341 21.8611 208.208C19.183 208.12 16.8301 208.029 14.8298 207.935C9.68338 207.694 6.87256 207.433 6.87256 207.16C6.87256 206.812 11.4347 206.483 19.5772 206.19C22.9119 206.069 26.8465 205.955 31.3144 205.848C54.8233 205.284 93.0922 204.917 136.307 204.917C174.32 204.917 208.506 205.201 232.186 205.653C253.036 206.051 265.742 206.58 265.742 207.16Z" fill="#040C2B"/>
<path d="M28.0501 151.289L15.6836 151.541C14.3101 151.569 13.174 150.478 13.146 149.105L12.9263 138.312C12.8983 136.939 13.9891 135.803 15.3626 135.775L27.7292 135.523C29.1026 135.495 30.2387 136.586 30.2667 137.959L30.4864 148.752C30.5144 150.125 29.4236 151.261 28.0501 151.289Z" fill="#DEE4FC"/>
<path d="M27.0349 146.093L26.9912 146.9L26.9903 146.916L26.9943 146.917L27.3645 147.044C27.2981 147.286 27.1973 147.512 27.0681 147.717C27.0658 147.721 27.0635 147.724 27.0611 147.728L26.9186 147.658L26.6839 147.543L26.1993 148.191L26.3713 148.434C26.1693 148.569 25.9466 148.671 25.7096 148.734L25.6325 148.354L24.8543 148.338L24.7368 148.768C24.4757 148.719 24.2303 148.622 24.0086 148.488L24.2346 148.107L23.7041 147.506L23.2715 147.767L23.2677 147.77C23.2574 147.754 23.2473 147.738 23.2374 147.722C23.0697 147.455 22.9511 147.15 22.8945 146.823L23.2754 146.738L23.3187 145.915L22.9254 145.792C22.9947 145.497 23.1146 145.223 23.2747 144.981L23.6785 145.223L24.2233 144.631L24.0075 144.268C24.2859 144.096 24.6007 143.985 24.9359 143.949L25.0219 144.439L25.7992 144.477L25.9216 144.072C25.9918 144.043 26.4163 144.31 26.6224 144.489L26.372 144.856L26.8927 145.489L27.2277 145.304C27.3287 145.525 27.3989 145.764 27.4327 146.015L27.0349 146.093ZM25.1908 144.829C24.9009 144.823 24.6219 144.906 24.3821 145.067C24.2998 145.122 24.2222 145.187 24.1503 145.26C23.8685 145.546 23.7084 145.93 23.6993 146.343C23.6901 146.755 23.8331 147.146 24.102 147.443C24.3708 147.74 24.7333 147.908 25.1225 147.916C25.5119 147.924 25.8814 147.771 26.1632 147.484C26.4449 147.198 26.605 146.814 26.6142 146.402C26.6233 145.989 26.4803 145.599 26.2115 145.301C26.1841 145.271 26.1557 145.242 26.1264 145.215C25.8684 144.972 25.5404 144.836 25.1908 144.829Z" fill="white"/>
<path d="M26.364 140.805L26.3148 141.752L26.3138 141.771L26.3182 141.773L26.7228 141.92C26.6497 142.205 26.5391 142.471 26.3975 142.711C26.395 142.715 26.3924 142.72 26.3898 142.724L26.2341 142.642L25.9777 142.508L25.4467 143.268L25.6343 143.554C25.4132 143.712 25.1695 143.832 24.9102 143.906L24.8265 143.461L23.9756 143.443L23.8464 143.948C23.561 143.89 23.2929 143.778 23.0507 143.62L23.2985 143.173L22.7194 142.469L22.246 142.776L22.2418 142.779C22.2306 142.761 22.2196 142.742 22.2087 142.723C22.0259 142.41 21.8967 142.052 21.8354 141.668L22.2521 141.568L22.3008 140.602L21.871 140.459C21.9473 140.112 22.079 139.791 22.2544 139.507L22.6955 139.79L23.2924 139.095L23.057 138.669C23.3617 138.467 23.7062 138.336 24.0727 138.294L24.1659 138.868L25.0158 138.912L25.1504 138.436C25.2272 138.402 25.6909 138.714 25.9159 138.925L25.6415 139.355L26.2097 140.098L26.5764 139.88C26.6864 140.139 26.7628 140.419 26.7993 140.714L26.364 140.805ZM24.3496 139.325C24.0327 139.319 23.7275 139.417 23.4649 139.607C23.3749 139.671 23.2899 139.747 23.211 139.833C22.9025 140.169 22.7267 140.62 22.716 141.104C22.7053 141.588 22.861 142.046 23.1545 142.394C23.4479 142.742 23.844 142.939 24.2696 142.947C24.6952 142.956 25.0996 142.776 25.4082 142.44C25.7168 142.103 25.8926 141.652 25.9032 141.168C25.9139 140.685 25.7582 140.226 25.4648 139.878C25.4349 139.843 25.4039 139.809 25.372 139.777C25.0903 139.492 24.732 139.333 24.3496 139.325Z" fill="white"/>
<path d="M22.2068 144.267L22.1391 145.57L22.1378 145.596L22.1438 145.599L22.7001 145.802C22.5996 146.193 22.4475 146.56 22.2528 146.891C22.2493 146.897 22.2458 146.903 22.2423 146.909L22.0282 146.796L21.6755 146.611L20.9454 147.658L21.2034 148.051C20.8994 148.269 20.5643 148.434 20.2078 148.536L20.0927 147.923L18.9227 147.899L18.745 148.595C18.3525 148.515 17.9838 148.36 17.6509 148.143L17.9916 147.527L17.1955 146.558L16.5444 146.981L16.5387 146.984C16.5232 146.959 16.5081 146.934 16.4932 146.908C16.2418 146.476 16.0642 145.984 15.98 145.455L16.5529 145.317L16.6199 143.987L16.0289 143.79C16.1339 143.313 16.3149 142.87 16.5562 142.48L17.1626 142.868L17.9833 141.912L17.6597 141.326C18.0786 141.048 18.5524 140.866 19.0564 140.809L19.1844 141.599L20.3531 141.66L20.5382 141.004C20.6439 140.957 21.2814 141.387 21.5908 141.677L21.2135 142.27L21.9947 143.292L22.4989 142.993C22.6501 143.349 22.7551 143.735 22.8053 144.141L22.2068 144.267ZM19.4371 142.229C19.0013 142.22 18.5816 142.355 18.2205 142.616C18.0968 142.705 17.9799 142.809 17.8715 142.928C17.4473 143.39 17.2056 144.012 17.1908 144.678C17.1761 145.344 17.3901 145.975 17.7936 146.454C18.197 146.934 18.7416 147.204 19.3269 147.216C19.9122 147.228 20.4682 146.98 20.8925 146.517C21.3167 146.054 21.5585 145.433 21.5732 144.767C21.5879 144.1 21.3739 143.47 20.9704 142.99C20.9293 142.941 20.8867 142.895 20.8428 142.85C20.4555 142.458 19.9628 142.239 19.4371 142.229Z" fill="white"/>
<path d="M264.129 110.971H251.76C250.386 110.971 249.272 109.857 249.272 108.483V97.6886C249.272 96.3148 250.386 95.2012 251.76 95.2012H264.129C265.503 95.2012 266.616 96.3149 266.616 97.6886V108.483C266.616 109.857 265.503 110.971 264.129 110.971Z" fill="#DEE4FC"/>
<path d="M256.897 101.218C256.897 102.194 256.708 102.927 256.331 103.417C255.953 103.907 255.399 104.152 254.669 104.152C253.969 104.152 253.428 103.901 253.046 103.398C252.664 102.895 252.473 102.168 252.473 101.218C252.473 99.2783 253.205 98.3086 254.669 98.3086C255.386 98.3086 255.937 98.56 256.321 99.0629C256.705 99.5658 256.897 100.284 256.897 101.218ZM254.077 101.23C254.077 101.769 254.125 102.171 254.221 102.437C254.316 102.702 254.47 102.834 254.682 102.834C255.089 102.834 255.293 102.3 255.293 101.23C255.293 100.169 255.089 99.6389 254.682 99.6389C254.47 99.6389 254.316 99.7694 254.221 100.03C254.125 100.291 254.077 100.692 254.077 101.23ZM261.277 98.4423L256.114 107.749H254.587L259.749 98.4423H261.277ZM263.415 104.935C263.415 105.907 263.227 106.638 262.849 107.128C262.471 107.618 261.917 107.863 261.187 107.863C260.487 107.863 259.946 107.612 259.564 107.109C259.182 106.606 258.991 105.881 258.991 104.935C258.991 102.996 259.723 102.026 261.188 102.026C261.905 102.026 262.455 102.277 262.839 102.78C263.223 103.283 263.415 104.002 263.415 104.935ZM260.596 104.948C260.596 105.487 260.643 105.889 260.739 106.154C260.834 106.419 260.988 106.552 261.2 106.552C261.608 106.552 261.811 106.017 261.811 104.948C261.811 103.887 261.608 103.356 261.2 103.356C260.988 103.356 260.834 103.487 260.739 103.748C260.643 104.009 260.596 104.409 260.596 104.948Z" fill="white"/>
<path d="M79.9898 94.5654H67.6207C66.2469 94.5654 65.1333 93.4517 65.1333 92.078V81.2833C65.1333 79.9095 66.247 78.7959 67.6207 78.7959H79.9898C81.3636 78.7959 82.4773 79.9096 82.4773 81.2833V92.078C82.4773 93.4517 81.3636 94.5654 79.9898 94.5654Z" fill="#DEE4FC"/>
<path d="M77.2558 88.4712C77.2558 89.1998 76.9922 89.7853 76.4653 90.2274C75.9383 90.6697 75.2005 90.9344 74.2519 91.0213V92.4304H73.3103V91.0488C72.1921 91.0259 71.2114 90.8289 70.3683 90.4577V88.643C70.767 88.84 71.247 89.0142 71.8083 89.1654C72.3696 89.3166 72.8703 89.406 73.3103 89.4335V87.3026L72.8497 87.1239C71.9424 86.7665 71.2996 86.3781 70.9216 85.9588C70.5435 85.5395 70.3545 85.0205 70.3545 84.4019C70.3545 83.7376 70.6145 83.1911 71.1346 82.7625C71.6547 82.3341 72.3799 82.0741 73.3103 81.9824V80.9307H74.2519V81.9549C75.3012 82.0008 76.2498 82.2116 77.0977 82.5873L76.4515 84.1958C75.7366 83.9026 75.0034 83.7238 74.2519 83.6596V85.6874C75.1455 86.0311 75.7813 86.329 76.1595 86.581C76.5375 86.833 76.8147 87.1102 76.9911 87.4127C77.1675 87.715 77.2558 88.068 77.2558 88.4712ZM72.4236 84.4019C72.4236 84.6036 72.4934 84.7696 72.6331 84.9002C72.7729 85.0308 72.9986 85.1649 73.3103 85.3024V83.6871C72.7191 83.7741 72.4236 84.0124 72.4236 84.4019ZM75.1868 88.5742C75.1868 88.3818 75.1087 88.2192 74.953 88.0862C74.7972 87.9533 74.5635 87.8159 74.2519 87.6738V89.3853C74.8751 89.28 75.1868 89.0096 75.1868 88.5742Z" fill="white"/>
<path d="M187.848 40.3896H175.479C174.105 40.3896 172.992 39.2759 172.992 37.9022V27.1075C172.992 25.7337 174.105 24.6201 175.479 24.6201H187.848C189.222 24.6201 190.336 25.7338 190.336 27.1075V37.9022C190.336 39.2759 189.222 40.3896 187.848 40.3896Z" fill="#DEE4FC"/>
<path d="M175.264 35.9188L181.504 31.7143C181.305 31.1439 181.234 30.5142 181.322 29.8664C181.61 27.742 183.496 26.2323 185.533 26.4944C187.57 26.7566 188.988 28.6912 188.7 30.8157C188.411 32.9402 186.526 34.4499 184.488 34.1877C183.63 34.0773 182.883 33.6695 182.326 33.0766L176.128 37.2508C175.771 37.5058 175.287 37.4144 175.048 37.0466C174.809 36.6787 174.906 36.1739 175.264 35.9188ZM184.583 33.4883C186.248 33.7024 187.793 32.4648 188.029 30.7293C188.265 28.9939 187.102 27.4079 185.438 27.1938C183.774 26.9797 182.228 28.2172 181.992 29.9527C181.757 31.6882 182.919 33.2742 184.583 33.4883Z" fill="white"/>
<path d="M187.433 29.085C187.526 29.3245 187.58 29.5784 187.611 29.8343C187.642 30.0906 187.643 30.3508 187.619 30.6092C187.595 30.8677 187.529 31.1224 187.436 31.3642L187.358 31.5425C187.329 31.6002 187.294 31.6554 187.262 31.7115L187.212 31.7945C187.194 31.8207 187.174 31.8463 187.154 31.8718C187.115 31.9228 187.074 31.973 187.034 32.0224C187.064 31.9652 187.094 31.9089 187.125 31.8534L187.171 31.7705L187.209 31.683C187.234 31.6249 187.262 31.5686 187.284 31.5099L187.345 31.3315C187.368 31.2731 187.379 31.2108 187.397 31.1507C187.412 31.0899 187.431 31.0301 187.439 30.9678L187.474 30.7831L187.496 30.5963C187.522 30.3468 187.526 30.0947 187.515 29.8423C187.502 29.59 187.476 29.3375 187.433 29.085Z" fill="white"/>
<path d="M226.089 202.965V205.335C226.089 205.561 225.907 205.744 225.681 205.744H207.655C207.43 205.744 207.247 205.561 207.247 205.335V202.965C207.247 202.739 207.43 202.557 207.655 202.557H225.681C225.907 202.557 226.089 202.739 226.089 202.965Z" fill="#FDC538"/>
<path d="M217.123 202.557H216.213V205.744H217.123V202.557Z" fill="#FEE29B"/>
<path d="M215.897 202.557H214.987V205.744H215.897V202.557Z" fill="#FEE29B"/>
<path d="M218.349 202.557H217.438V205.744H218.349V202.557Z" fill="#FEE29B"/>
<path d="M225.389 199.776V202.146C225.389 202.371 225.206 202.554 224.981 202.554H206.955C206.73 202.554 206.547 202.371 206.547 202.146V199.776C206.547 199.55 206.73 199.367 206.955 199.367H224.981C225.206 199.367 225.389 199.55 225.389 199.776Z" fill="#FDB606"/>
<path d="M212.5 199.366H211.59V202.553H212.5V199.366Z" fill="#FEE29B"/>
<path d="M211.275 199.366H210.364V202.553H211.275V199.366Z" fill="#FEE29B"/>
<path d="M213.727 199.366H212.816V202.553H213.727V199.366Z" fill="#FEE29B"/>
<path d="M226.86 196.59V198.96C226.86 199.186 226.677 199.369 226.452 199.369H208.426C208.2 199.369 208.018 199.186 208.018 198.96V196.59C208.018 196.364 208.2 196.182 208.426 196.182H226.452C226.677 196.182 226.86 196.364 226.86 196.59Z" fill="#FDC538"/>
<path d="M217.894 196.182H216.983V199.369H217.894V196.182Z" fill="#FEE29B"/>
<path d="M216.668 196.182H215.757V199.369H216.668V196.182Z" fill="#FEE29B"/>
<path d="M219.12 196.182H218.209V199.369H219.12V196.182Z" fill="#FEE29B"/>
<path d="M225.704 193.402V195.773C225.704 195.998 225.521 196.181 225.296 196.181H207.27C207.045 196.181 206.862 195.998 206.862 195.773V193.402C206.862 193.177 207.045 192.994 207.27 192.994H225.296C225.521 192.994 225.704 193.177 225.704 193.402Z" fill="#FDB606"/>
<path d="M212.816 192.994H211.905V196.181H212.816V192.994Z" fill="#FEE29B"/>
<path d="M211.59 192.994H210.679V196.181H211.59V192.994Z" fill="#FEE29B"/>
<path d="M214.041 192.994H213.131V196.181H214.041V192.994Z" fill="#FEE29B"/>
<path d="M226.51 190.217V192.587C226.51 192.813 226.327 192.996 226.101 192.996H208.076C207.85 192.996 207.667 192.813 207.667 192.587V190.217C207.667 189.991 207.85 189.809 208.076 189.809H226.101C226.327 189.809 226.51 189.991 226.51 190.217Z" fill="#FDC538"/>
<path d="M217.544 189.809H216.633V192.996H217.544V189.809Z" fill="#FEE29B"/>
<path d="M216.318 189.809H215.408V192.996H216.318V189.809Z" fill="#FEE29B"/>
<path d="M218.77 189.809H217.859V192.996H218.77V189.809Z" fill="#FEE29B"/>
<path d="M225.354 187.027V189.398C225.354 189.623 225.171 189.806 224.946 189.806H206.92C206.695 189.806 206.512 189.623 206.512 189.398V187.027C206.512 186.802 206.695 186.619 206.92 186.619H224.946C225.171 186.619 225.354 186.802 225.354 187.027Z" fill="#FDB606"/>
<path d="M212.466 186.618H211.555V189.805H212.466V186.618Z" fill="#FEE29B"/>
<path d="M211.24 186.618H210.329V189.805H211.24V186.618Z" fill="#FEE29B"/>
<path d="M213.691 186.618H212.781V189.805H213.691V186.618Z" fill="#FEE29B"/>
<path d="M210.414 206.184H178.551C177.439 206.184 176.538 205.282 176.538 204.17V163.594C176.538 162.482 177.439 161.581 178.551 161.581H210.414C211.526 161.581 212.427 162.482 212.427 163.594V204.17C212.427 205.282 211.526 206.184 210.414 206.184Z" fill="#0085F9"/>
<g opacity="0.2">
<path d="M185.17 183.786H179.938C179.768 183.786 179.629 183.647 179.629 183.476V179.284C179.629 179.113 179.768 178.975 179.938 178.975H185.17C185.341 178.975 185.479 179.113 185.479 179.284V183.476C185.479 183.647 185.341 183.786 185.17 183.786Z" fill="black"/>
<path d="M185.17 189.979H179.938C179.768 189.979 179.629 189.84 179.629 189.67V185.478C179.629 185.307 179.768 185.168 179.938 185.168H185.17C185.341 185.168 185.479 185.307 185.479 185.478V189.67C185.479 189.84 185.341 189.979 185.17 189.979Z" fill="black"/>
<path d="M185.17 196.172H179.938C179.768 196.172 179.629 196.034 179.629 195.863V191.671C179.629 191.5 179.768 191.361 179.938 191.361H185.17C185.341 191.361 185.479 191.5 185.479 191.671V195.863C185.479 196.034 185.341 196.172 185.17 196.172Z" fill="black"/>
<path d="M185.17 202.365H179.938C179.768 202.365 179.629 202.226 179.629 202.055V197.863C179.629 197.692 179.768 197.554 179.938 197.554H185.17C185.341 197.554 185.479 197.692 185.479 197.863V202.055C185.479 202.226 185.341 202.365 185.17 202.365Z" fill="black"/>
<path d="M193.158 183.786H187.927C187.756 183.786 187.618 183.647 187.618 183.476V179.284C187.618 179.113 187.756 178.975 187.927 178.975H193.158C193.329 178.975 193.468 179.113 193.468 179.284V183.476C193.468 183.647 193.329 183.786 193.158 183.786Z" fill="black"/>
<path d="M193.158 189.979H187.927C187.756 189.979 187.618 189.84 187.618 189.67V185.478C187.618 185.307 187.756 185.168 187.927 185.168H193.158C193.329 185.168 193.468 185.307 193.468 185.478V189.67C193.468 189.84 193.329 189.979 193.158 189.979Z" fill="black"/>
<path d="M193.158 196.172H187.927C187.756 196.172 187.618 196.034 187.618 195.863V191.671C187.618 191.5 187.756 191.361 187.927 191.361H193.158C193.329 191.361 193.468 191.5 193.468 191.671V195.863C193.468 196.034 193.329 196.172 193.158 196.172Z" fill="black"/>
<path d="M193.158 202.365H187.927C187.756 202.365 187.618 202.226 187.618 202.055V197.863C187.618 197.692 187.756 197.554 187.927 197.554H193.158C193.329 197.554 193.468 197.692 193.468 197.863V202.055C193.468 202.226 193.329 202.365 193.158 202.365Z" fill="black"/>
<path d="M201.147 183.786H195.916C195.745 183.786 195.606 183.647 195.606 183.476V179.284C195.606 179.113 195.745 178.975 195.916 178.975H201.147C201.318 178.975 201.457 179.113 201.457 179.284V183.476C201.457 183.647 201.318 183.786 201.147 183.786Z" fill="black"/>
<path d="M201.147 189.979H195.916C195.745 189.979 195.606 189.84 195.606 189.67V185.478C195.606 185.307 195.745 185.168 195.916 185.168H201.147C201.318 185.168 201.457 185.307 201.457 185.478V189.67C201.457 189.84 201.318 189.979 201.147 189.979Z" fill="black"/>
<path d="M201.147 196.172H195.916C195.745 196.172 195.606 196.034 195.606 195.863V191.671C195.606 191.5 195.745 191.361 195.916 191.361H201.147C201.318 191.361 201.457 191.5 201.457 191.671V195.863C201.457 196.034 201.318 196.172 201.147 196.172Z" fill="black"/>
<path d="M201.147 202.365H195.916C195.745 202.365 195.606 202.226 195.606 202.055V197.863C195.606 197.692 195.745 197.554 195.916 197.554H201.147C201.318 197.554 201.457 197.692 201.457 197.863V202.055C201.457 202.226 201.318 202.365 201.147 202.365Z" fill="black"/>
<path d="M209.136 183.786H203.905C203.734 183.786 203.595 183.647 203.595 183.476V179.284C203.595 179.113 203.734 178.975 203.905 178.975H209.136C209.307 178.975 209.446 179.113 209.446 179.284V183.476C209.446 183.647 209.307 183.786 209.136 183.786Z" fill="black"/>
<path d="M209.136 189.979H203.905C203.734 189.979 203.595 189.84 203.595 189.67V185.478C203.595 185.307 203.734 185.168 203.905 185.168H209.136C209.307 185.168 209.446 185.307 209.446 185.478V189.67C209.446 189.84 209.307 189.979 209.136 189.979Z" fill="black"/>
<path d="M209.136 196.172H203.905C203.734 196.172 203.595 196.034 203.595 195.863V191.671C203.595 191.5 203.734 191.361 203.905 191.361H209.136C209.307 191.361 209.446 191.5 209.446 191.671V195.863C209.446 196.034 209.307 196.172 209.136 196.172Z" fill="black"/>
<path d="M209.136 202.365H203.905C203.734 202.365 203.595 202.226 203.595 202.055V197.863C203.595 197.692 203.734 197.554 203.905 197.554H209.136C209.307 197.554 209.446 197.692 209.446 197.863V202.055C209.446 202.226 209.307 202.365 209.136 202.365Z" fill="black"/>
</g>
<path d="M185.059 183.587H179.828C179.657 183.587 179.519 183.448 179.519 183.277V179.085C179.519 178.914 179.657 178.775 179.828 178.775H185.059C185.23 178.775 185.369 178.914 185.369 179.085V183.277C185.369 183.448 185.23 183.587 185.059 183.587Z" fill="#E3E9F7"/>
<path d="M185.059 189.78H179.828C179.657 189.78 179.519 189.641 179.519 189.47V185.278C179.519 185.107 179.657 184.969 179.828 184.969H185.059C185.23 184.969 185.369 185.107 185.369 185.278V189.47C185.369 189.641 185.23 189.78 185.059 189.78Z" fill="#E3E9F7"/>
<path d="M185.059 195.973H179.828C179.657 195.973 179.519 195.835 179.519 195.664V191.472C179.519 191.301 179.657 191.162 179.828 191.162H185.059C185.23 191.162 185.369 191.301 185.369 191.472V195.664C185.369 195.835 185.23 195.973 185.059 195.973Z" fill="#E3E9F7"/>
<path d="M185.059 202.167H179.828C179.657 202.167 179.519 202.028 179.519 201.857V197.665C179.519 197.494 179.657 197.355 179.828 197.355H185.059C185.23 197.355 185.369 197.494 185.369 197.665V201.857C185.369 202.028 185.23 202.167 185.059 202.167Z" fill="#E3E9F7"/>
<path d="M193.048 183.587H187.817C187.646 183.587 187.507 183.448 187.507 183.277V179.085C187.507 178.914 187.646 178.775 187.817 178.775H193.048C193.219 178.775 193.358 178.914 193.358 179.085V183.277C193.358 183.448 193.219 183.587 193.048 183.587Z" fill="#E3E9F7"/>
<path d="M193.048 189.78H187.817C187.646 189.78 187.507 189.641 187.507 189.47V185.278C187.507 185.107 187.646 184.969 187.817 184.969H193.048C193.219 184.969 193.358 185.107 193.358 185.278V189.47C193.358 189.641 193.219 189.78 193.048 189.78Z" fill="#E3E9F7"/>
<path d="M193.048 195.973H187.817C187.646 195.973 187.507 195.835 187.507 195.664V191.472C187.507 191.301 187.646 191.162 187.817 191.162H193.048C193.219 191.162 193.358 191.301 193.358 191.472V195.664C193.358 195.835 193.219 195.973 193.048 195.973Z" fill="#E3E9F7"/>
<path d="M193.048 202.167H187.817C187.646 202.167 187.507 202.028 187.507 201.857V197.665C187.507 197.494 187.646 197.355 187.817 197.355H193.048C193.219 197.355 193.358 197.494 193.358 197.665V201.857C193.358 202.028 193.219 202.167 193.048 202.167Z" fill="#E3E9F7"/>
<path d="M201.037 183.587H195.806C195.635 183.587 195.496 183.448 195.496 183.277V179.085C195.496 178.914 195.635 178.775 195.806 178.775H201.037C201.208 178.775 201.346 178.914 201.346 179.085V183.277C201.346 183.448 201.208 183.587 201.037 183.587Z" fill="#E3E9F7"/>
<path d="M201.037 189.78H195.806C195.635 189.78 195.496 189.641 195.496 189.47V185.278C195.496 185.107 195.635 184.969 195.806 184.969H201.037C201.208 184.969 201.346 185.107 201.346 185.278V189.47C201.346 189.641 201.208 189.78 201.037 189.78Z" fill="#E3E9F7"/>
<path d="M201.037 195.973H195.806C195.635 195.973 195.496 195.835 195.496 195.664V191.472C195.496 191.301 195.635 191.162 195.806 191.162H201.037C201.208 191.162 201.346 191.301 201.346 191.472V195.664C201.346 195.835 201.208 195.973 201.037 195.973Z" fill="#E3E9F7"/>
<path d="M201.037 202.167H195.806C195.635 202.167 195.496 202.028 195.496 201.857V197.665C195.496 197.494 195.635 197.355 195.806 197.355H201.037C201.208 197.355 201.346 197.494 201.346 197.665V201.857C201.346 202.028 201.208 202.167 201.037 202.167Z" fill="#E3E9F7"/>
<path d="M209.026 183.587H203.794C203.623 183.587 203.485 183.448 203.485 183.277V179.085C203.485 178.914 203.623 178.775 203.794 178.775H209.026C209.197 178.775 209.335 178.914 209.335 179.085V183.277C209.335 183.448 209.197 183.587 209.026 183.587Z" fill="#E3E9F7"/>
<path d="M209.026 189.78H203.794C203.623 189.78 203.485 189.641 203.485 189.47V185.278C203.485 185.107 203.623 184.969 203.794 184.969H209.026C209.197 184.969 209.335 185.107 209.335 185.278V189.47C209.335 189.641 209.197 189.78 209.026 189.78Z" fill="#E3E9F7"/>
<path d="M209.026 195.973H203.794C203.623 195.973 203.485 195.835 203.485 195.664V191.472C203.485 191.301 203.623 191.162 203.794 191.162H209.026C209.197 191.162 209.335 191.301 209.335 191.472V195.664C209.335 195.835 209.197 195.973 209.026 195.973Z" fill="#E3E9F7"/>
<path d="M209.026 202.167H203.794C203.623 202.167 203.485 202.028 203.485 201.857V197.665C203.485 197.494 203.623 197.355 203.794 197.355H209.026C209.197 197.355 209.335 197.494 209.335 197.665V201.857C209.335 202.028 209.197 202.167 209.026 202.167Z" fill="#F6471E"/>
<path d="M209.333 165.399H179.521V174.62H209.333V165.399Z" fill="#F4F6FC"/>
<path opacity="0.15" d="M209.333 165.399V174.62H179.521V174.333H209.073V165.399H209.333Z" fill="black"/>
<path d="M205.484 199.579V199.107H207.337V199.579H205.484ZM205.484 200.413V199.941H207.337V200.413H205.484Z" fill="white"/>
<path d="M182.952 194.592H182.519V193.407L182.523 193.213L182.53 193C182.458 193.072 182.408 193.119 182.38 193.141L182.145 193.33L181.937 193.07L182.596 192.545H182.952L182.952 194.592Z" fill="#0085F9"/>
<path d="M181.722 187.528C181.722 187.122 181.807 186.821 181.979 186.623C182.15 186.425 182.406 186.326 182.748 186.326C182.865 186.326 182.956 186.333 183.022 186.347V186.693C182.939 186.674 182.857 186.665 182.776 186.665C182.628 186.665 182.507 186.687 182.413 186.732C182.319 186.777 182.249 186.843 182.202 186.931C182.155 187.019 182.128 187.143 182.119 187.305H182.138C182.23 187.146 182.378 187.067 182.581 187.067C182.764 187.067 182.908 187.124 183.011 187.239C183.115 187.354 183.167 187.513 183.167 187.715C183.167 187.934 183.105 188.107 182.982 188.234C182.859 188.361 182.688 188.425 182.469 188.425C182.318 188.425 182.186 188.39 182.074 188.32C181.961 188.25 181.875 188.148 181.813 188.013C181.752 187.879 181.722 187.717 181.722 187.528ZM182.461 188.079C182.553 188.079 182.624 188.048 182.674 187.986C182.723 187.924 182.748 187.836 182.748 187.721C182.748 187.621 182.725 187.542 182.679 187.485C182.633 187.427 182.563 187.399 182.469 187.399C182.382 187.399 182.307 187.427 182.245 187.484C182.183 187.541 182.152 187.607 182.152 187.683C182.152 187.794 182.181 187.888 182.239 187.964C182.297 188.041 182.371 188.079 182.461 188.079Z" fill="#0085F9"/>
<path d="M181.95 182.203L182.719 180.522H181.709V180.158H183.178V180.43L182.404 182.203H181.95Z" fill="#0085F9"/>
<path d="M190.434 180.131C190.63 180.131 190.788 180.175 190.908 180.265C191.028 180.354 191.088 180.474 191.088 180.625C191.088 180.73 191.059 180.823 191.001 180.905C190.943 180.986 190.85 181.059 190.721 181.124C190.874 181.206 190.984 181.291 191.051 181.381C191.118 181.47 191.151 181.568 191.151 181.674C191.151 181.842 191.085 181.977 190.954 182.079C190.822 182.182 190.649 182.233 190.434 182.233C190.21 182.233 190.034 182.185 189.906 182.09C189.778 181.995 189.714 181.86 189.714 181.685C189.714 181.568 189.745 181.465 189.807 181.374C189.87 181.284 189.969 181.204 190.106 181.135C189.99 181.061 189.906 180.982 189.854 180.898C189.803 180.814 189.777 180.722 189.777 180.622C189.777 180.476 189.838 180.357 189.959 180.267C190.081 180.176 190.239 180.131 190.434 180.131ZM190.115 181.66C190.115 181.74 190.143 181.803 190.199 181.847C190.255 181.892 190.331 181.915 190.429 181.915C190.536 181.915 190.616 181.892 190.669 181.845C190.723 181.799 190.749 181.738 190.749 181.663C190.749 181.6 190.723 181.542 190.67 181.487C190.617 181.432 190.532 181.374 190.413 181.313C190.214 181.404 190.115 181.52 190.115 181.66ZM190.431 180.447C190.358 180.447 190.298 180.466 190.253 180.504C190.208 180.542 190.185 180.592 190.185 180.656C190.185 180.712 190.203 180.762 190.239 180.806C190.275 180.851 190.34 180.896 190.434 180.943C190.526 180.9 190.589 180.856 190.626 180.811C190.662 180.766 190.68 180.715 190.68 180.656C190.68 180.592 190.657 180.541 190.61 180.503C190.564 180.466 190.504 180.447 190.431 180.447Z" fill="#0085F9"/>
<path d="M199.144 181.028C199.144 181.432 199.059 181.733 198.889 181.931C198.719 182.13 198.462 182.23 198.117 182.23C197.996 182.23 197.904 182.223 197.842 182.21V181.863C197.92 181.883 198.002 181.892 198.088 181.892C198.233 181.892 198.352 181.871 198.445 181.829C198.538 181.786 198.61 181.719 198.659 181.628C198.709 181.537 198.737 181.412 198.745 181.252H198.728C198.674 181.34 198.611 181.402 198.54 181.437C198.469 181.473 198.381 181.49 198.274 181.49C198.096 181.49 197.955 181.433 197.853 181.319C197.75 181.205 197.699 181.046 197.699 180.842C197.699 180.623 197.761 180.449 197.886 180.322C198.01 180.195 198.18 180.131 198.395 180.131C198.546 180.131 198.678 180.166 198.792 180.237C198.905 180.308 198.992 180.411 199.053 180.546C199.113 180.681 199.144 180.842 199.144 181.028ZM198.403 180.478C198.313 180.478 198.243 180.509 198.193 180.571C198.143 180.632 198.117 180.721 198.117 180.837C198.117 180.936 198.14 181.014 198.186 181.072C198.232 181.13 198.301 181.159 198.395 181.159C198.482 181.159 198.558 181.13 198.62 181.073C198.683 181.015 198.714 180.949 198.714 180.874C198.714 180.763 198.685 180.67 198.626 180.593C198.568 180.516 198.494 180.478 198.403 180.478Z" fill="#0085F9"/>
<path d="M183.16 199.763C183.16 200.12 183.101 200.385 182.984 200.557C182.867 200.729 182.686 200.814 182.443 200.814C182.206 200.814 182.028 200.726 181.908 200.548C181.789 200.371 181.729 200.109 181.729 199.763C181.729 199.402 181.787 199.135 181.904 198.964C182.02 198.793 182.2 198.707 182.443 198.707C182.679 198.707 182.857 198.797 182.978 198.976C183.099 199.155 183.16 199.418 183.16 199.763ZM182.158 199.763C182.158 200.014 182.18 200.194 182.224 200.303C182.267 200.411 182.34 200.466 182.443 200.466C182.543 200.466 182.616 200.411 182.661 200.301C182.706 200.19 182.728 200.011 182.728 199.763C182.728 199.512 182.706 199.331 182.66 199.222C182.615 199.112 182.542 199.057 182.443 199.057C182.341 199.057 182.268 199.112 182.224 199.222C182.18 199.331 182.158 199.512 182.158 199.763Z" fill="#0085F9"/>
<path d="M198.217 199.97H197.495V199.56H198.217V198.83H198.626V199.56H199.348V199.97H198.626V200.69H198.217V199.97Z" fill="#0085F9"/>
<path d="M206.413 187.71L205.823 188.3L205.489 187.966L206.079 187.377L205.485 186.783L205.818 186.449L206.413 187.043L207.002 186.454L207.336 186.787L206.746 187.377L207.333 187.963L206.999 188.297L206.413 187.71Z" fill="#0085F9"/>
<path d="M190.056 199.761C190.056 199.64 190.088 199.549 190.153 199.487C190.217 199.425 190.311 199.395 190.435 199.395C190.554 199.395 190.646 199.426 190.712 199.489C190.777 199.553 190.81 199.643 190.81 199.761C190.81 199.874 190.777 199.964 190.71 200.029C190.644 200.094 190.552 200.127 190.435 200.127C190.314 200.127 190.221 200.095 190.155 200.031C190.089 199.967 190.056 199.877 190.056 199.761Z" fill="#0085F9"/>
<path d="M205.485 181.412V180.949H207.336V181.412H205.485Z" fill="#0085F9"/>
<path d="M206.141 180.517C206.141 180.431 206.164 180.366 206.21 180.322C206.257 180.278 206.324 180.256 206.412 180.256C206.497 180.256 206.563 180.278 206.61 180.324C206.656 180.369 206.68 180.433 206.68 180.517C206.68 180.598 206.656 180.662 206.609 180.709C206.562 180.756 206.496 180.779 206.412 180.779C206.326 180.779 206.259 180.756 206.212 180.711C206.165 180.665 206.141 180.601 206.141 180.517Z" fill="#0085F9"/>
<path d="M206.141 181.846C206.141 181.759 206.164 181.694 206.21 181.65C206.257 181.606 206.324 181.584 206.412 181.584C206.497 181.584 206.563 181.607 206.61 181.652C206.656 181.697 206.68 181.762 206.68 181.846C206.68 181.927 206.656 181.99 206.609 182.037C206.562 182.084 206.496 182.107 206.412 182.107C206.326 182.107 206.259 182.084 206.212 182.039C206.165 181.993 206.141 181.929 206.141 181.846Z" fill="#0085F9"/>
<path d="M191.151 194.606H189.72V194.305L190.234 193.785C190.386 193.629 190.485 193.521 190.532 193.461C190.579 193.401 190.612 193.345 190.633 193.294C190.653 193.242 190.664 193.189 190.664 193.134C190.664 193.052 190.641 192.991 190.596 192.951C190.55 192.911 190.49 192.891 190.414 192.891C190.335 192.891 190.258 192.909 190.183 192.945C190.109 192.982 190.031 193.033 189.95 193.101L189.714 192.822C189.815 192.736 189.899 192.675 189.965 192.64C190.031 192.604 190.104 192.577 190.182 192.558C190.26 192.539 190.348 192.529 190.445 192.529C190.573 192.529 190.686 192.553 190.784 192.599C190.882 192.646 190.958 192.711 191.012 192.795C191.066 192.879 191.094 192.976 191.094 193.084C191.094 193.178 191.077 193.266 191.044 193.349C191.011 193.432 190.959 193.516 190.89 193.603C190.82 193.69 190.698 193.814 190.522 193.974L190.259 194.222V194.242H191.151L191.151 194.606Z" fill="#0085F9"/>
<path d="M199.07 193.003C199.07 193.131 199.031 193.24 198.953 193.329C198.876 193.419 198.767 193.481 198.627 193.514V193.523C198.792 193.543 198.917 193.593 199.002 193.673C199.087 193.753 199.13 193.86 199.13 193.996C199.13 194.193 199.059 194.346 198.916 194.456C198.773 194.565 198.569 194.62 198.304 194.62C198.082 194.62 197.885 194.583 197.713 194.51V194.141C197.792 194.181 197.88 194.214 197.975 194.239C198.07 194.265 198.164 194.277 198.258 194.277C198.4 194.277 198.506 194.253 198.574 194.204C198.642 194.156 198.676 194.078 198.676 193.971C198.676 193.874 198.637 193.806 198.559 193.766C198.48 193.726 198.355 193.706 198.183 193.706H198.028V193.374H198.186C198.345 193.374 198.461 193.353 198.534 193.312C198.607 193.27 198.644 193.199 198.644 193.098C198.644 192.943 198.547 192.866 198.353 192.866C198.286 192.866 198.217 192.877 198.148 192.899C198.078 192.922 198.001 192.96 197.916 193.016L197.716 192.717C197.902 192.583 198.125 192.516 198.384 192.516C198.595 192.516 198.763 192.559 198.886 192.644C199.008 192.731 199.07 192.85 199.07 193.003Z" fill="#0085F9"/>
<path d="M199.193 187.972H198.947V188.397H198.524V187.972H197.65V187.671L198.547 186.35H198.947V187.636H199.193V187.972ZM198.524 187.636V187.289C198.524 187.231 198.526 187.147 198.531 187.037C198.535 186.927 198.539 186.863 198.542 186.845H198.531C198.496 186.922 198.455 186.996 198.406 187.069L198.031 187.636H198.524Z" fill="#0085F9"/>
<path d="M190.468 187.075C190.666 187.075 190.824 187.131 190.941 187.242C191.058 187.353 191.117 187.505 191.117 187.698C191.117 187.927 191.046 188.103 190.905 188.226C190.764 188.35 190.563 188.411 190.3 188.411C190.072 188.411 189.889 188.374 189.749 188.301V187.927C189.822 187.966 189.908 187.998 190.006 188.023C190.104 188.047 190.197 188.06 190.285 188.06C190.549 188.06 190.681 187.951 190.681 187.735C190.681 187.529 190.544 187.425 190.271 187.425C190.221 187.425 190.167 187.43 190.107 187.44C190.047 187.45 189.999 187.46 189.961 187.472L189.789 187.379L189.866 186.336H190.976V186.703H190.246L190.208 187.105L190.257 187.095C190.314 187.082 190.384 187.075 190.468 187.075Z" fill="#0085F9"/>
<path d="M207.34 193.332H205.481V193.804H207.34V193.332Z" fill="#0085F9"/>
<path d="M193.616 169.532C193.875 169.532 194.079 169.596 194.228 169.725C194.376 169.853 194.451 170.029 194.451 170.253C194.451 170.507 194.37 170.707 194.207 170.852C194.045 170.997 193.822 171.069 193.537 171.069C193.259 171.069 193.048 171.025 192.902 170.936V170.667C192.98 170.717 193.078 170.757 193.195 170.786C193.311 170.814 193.427 170.828 193.54 170.828C193.737 170.828 193.891 170.782 194 170.689C194.11 170.596 194.164 170.461 194.164 170.285C194.164 169.941 193.954 169.77 193.533 169.77C193.427 169.77 193.284 169.786 193.106 169.818L192.961 169.726L193.053 168.574H194.277V168.832H193.292L193.23 169.571C193.359 169.545 193.488 169.532 193.616 169.532Z" fill="black"/>
<path d="M196.552 170.47H196.186V171.035H195.919V170.47H194.722V170.226L195.89 168.561H196.186V170.215H196.552V170.47ZM195.919 170.215V169.397C195.919 169.237 195.924 169.056 195.935 168.854H195.922C195.868 168.961 195.818 169.051 195.77 169.121L195.001 170.216L195.919 170.215Z" fill="black"/>
<path d="M198.315 169.154C198.315 169.311 198.27 169.439 198.182 169.539C198.094 169.639 197.969 169.706 197.808 169.739V169.753C198.005 169.778 198.152 169.84 198.247 169.941C198.343 170.043 198.39 170.175 198.39 170.339C198.39 170.573 198.309 170.754 198.146 170.88C197.984 171.006 197.752 171.069 197.453 171.069C197.322 171.069 197.203 171.06 197.095 171.04C196.987 171.02 196.881 170.986 196.779 170.936V170.67C196.886 170.723 197 170.763 197.12 170.791C197.241 170.818 197.355 170.832 197.463 170.832C197.888 170.832 198.101 170.665 198.101 170.332C198.101 170.033 197.866 169.884 197.397 169.884H197.155V169.643H197.401C197.592 169.643 197.744 169.601 197.857 169.516C197.969 169.432 198.025 169.314 198.025 169.164C198.025 169.044 197.984 168.949 197.901 168.881C197.819 168.812 197.707 168.778 197.566 168.778C197.458 168.778 197.356 168.793 197.261 168.822C197.165 168.851 197.057 168.905 196.934 168.983L196.793 168.795C196.894 168.715 197.01 168.653 197.142 168.607C197.274 168.562 197.413 168.539 197.559 168.539C197.798 168.539 197.984 168.594 198.116 168.703C198.248 168.813 198.315 168.963 198.315 169.154Z" fill="black"/>
<path d="M200.379 171.036H198.761V170.795L199.409 170.143C199.606 169.944 199.737 169.801 199.799 169.716C199.862 169.631 199.909 169.547 199.941 169.467C199.972 169.386 199.988 169.299 199.988 169.206C199.988 169.074 199.948 168.97 199.868 168.893C199.789 168.817 199.678 168.778 199.537 168.778C199.435 168.778 199.338 168.795 199.246 168.829C199.155 168.862 199.053 168.924 198.941 169.012L198.793 168.822C199.019 168.633 199.266 168.539 199.533 168.539C199.765 168.539 199.946 168.598 200.077 168.717C200.208 168.835 200.274 168.994 200.274 169.194C200.274 169.35 200.23 169.504 200.143 169.657C200.055 169.81 199.891 170.003 199.651 170.236L199.112 170.763V170.776H200.378V171.036H200.379Z" fill="black"/>
<path d="M201.767 171.036H201.494V169.281C201.494 169.135 201.499 168.997 201.508 168.867C201.484 168.891 201.458 168.915 201.429 168.941C201.399 168.967 201.266 169.076 201.028 169.27L200.88 169.078L201.531 168.574H201.767V171.036Z" fill="black"/>
<path d="M203.124 170.635L203.15 170.674C203.12 170.786 203.078 170.916 203.023 171.065C202.968 171.214 202.911 171.352 202.852 171.48H202.641C202.671 171.363 202.705 171.219 202.741 171.047C202.778 170.876 202.803 170.738 202.818 170.635L203.124 170.635Z" fill="black"/>
<path d="M205.166 171.036H203.548V170.795L204.196 170.143C204.394 169.944 204.524 169.801 204.587 169.716C204.65 169.631 204.697 169.547 204.728 169.467C204.76 169.386 204.776 169.299 204.776 169.206C204.776 169.074 204.736 168.97 204.656 168.893C204.576 168.817 204.466 168.778 204.324 168.778C204.222 168.778 204.126 168.795 204.034 168.829C203.943 168.862 203.841 168.924 203.729 169.012L203.58 168.822C203.807 168.633 204.054 168.539 204.321 168.539C204.552 168.539 204.734 168.598 204.865 168.717C204.996 168.835 205.062 168.994 205.062 169.194C205.062 169.35 205.018 169.504 204.93 169.657C204.843 169.81 204.679 170.003 204.439 170.236L203.9 170.763V170.776H205.166V171.036Z" fill="black"/>
<path d="M206.289 169.532C206.548 169.532 206.752 169.596 206.901 169.725C207.05 169.853 207.124 170.029 207.124 170.253C207.124 170.507 207.043 170.707 206.881 170.852C206.719 170.997 206.495 171.069 206.21 171.069C205.933 171.069 205.721 171.025 205.575 170.936V170.667C205.654 170.717 205.751 170.757 205.868 170.786C205.985 170.814 206.1 170.828 206.213 170.828C206.411 170.828 206.564 170.782 206.674 170.689C206.783 170.596 206.838 170.461 206.838 170.285C206.838 169.941 206.627 169.77 206.206 169.77C206.1 169.77 205.957 169.786 205.779 169.818L205.634 169.726L205.727 168.574H206.951V168.832H205.966L205.903 169.571C206.033 169.545 206.161 169.532 206.289 169.532Z" fill="black"/>
<path d="M175.439 204.363C178.553 201.249 178.553 196.2 175.439 193.086C172.325 189.972 167.276 189.972 164.162 193.086C161.047 196.2 161.047 201.249 164.162 204.363C167.276 207.477 172.325 207.477 175.439 204.363Z" fill="#FDC538"/>
<path d="M169.803 205.859C173.743 205.859 176.938 202.665 176.938 198.725C176.938 194.784 173.743 191.59 169.803 191.59C165.862 191.59 162.668 194.784 162.668 198.725C162.668 202.665 165.862 205.859 169.803 205.859Z" fill="#FDB606"/>
<path opacity="0.5" d="M163.529 199.31C163.39 198.431 163.465 197.509 163.745 196.649C163.882 196.218 164.074 195.805 164.304 195.414C164.536 195.024 164.813 194.662 165.124 194.331C165.437 194.003 165.784 193.707 166.158 193.451C166.534 193.199 166.934 192.98 167.354 192.814C168.192 192.476 169.101 192.325 169.99 192.385C169.102 192.442 168.235 192.652 167.44 193.015C167.044 193.199 166.663 193.414 166.31 193.669C165.955 193.921 165.624 194.206 165.327 194.523C165.251 194.601 165.181 194.684 165.108 194.764C165.037 194.847 164.97 194.932 164.901 195.016C164.837 195.104 164.771 195.191 164.709 195.279C164.65 195.371 164.587 195.459 164.529 195.552C164.296 195.919 164.106 196.313 163.951 196.721C163.642 197.538 163.506 198.421 163.529 199.31Z" fill="white"/>
<path d="M169.688 202.328V201.338C169.106 201.328 168.504 201.151 168.153 200.906L168.394 200.249C168.755 200.485 169.277 200.671 169.839 200.671C170.551 200.671 171.033 200.269 171.033 199.71C171.033 199.171 170.641 198.837 169.899 198.543C168.875 198.151 168.243 197.7 168.243 196.847C168.243 196.033 168.835 195.416 169.758 195.269V194.278H170.381V195.229C170.983 195.249 171.394 195.406 171.685 195.573L171.434 196.22C171.223 196.102 170.812 195.886 170.17 195.886C169.397 195.886 169.106 196.337 169.106 196.729C169.106 197.239 169.477 197.494 170.35 197.847C171.384 198.259 171.906 198.769 171.906 199.641C171.906 200.416 171.354 201.142 170.32 201.308V202.328H169.688Z" fill="white"/>
<path opacity="0.1" d="M184.794 204.363C187.908 201.249 187.908 196.2 184.794 193.086C181.68 189.972 176.631 189.972 173.516 193.086C170.402 196.2 170.402 201.249 173.516 204.363C176.631 207.477 181.68 207.477 184.794 204.363Z" fill="black"/>
<path d="M186.09 204.363C189.204 201.249 189.204 196.2 186.09 193.086C182.976 189.972 177.927 189.972 174.813 193.086C171.699 196.2 171.699 201.249 174.813 204.363C177.927 207.477 182.976 207.477 186.09 204.363Z" fill="#FDC538"/>
<path d="M185.496 203.77C188.283 200.983 188.283 196.466 185.496 193.68C182.71 190.893 178.193 190.893 175.406 193.68C172.62 196.466 172.62 200.983 175.406 203.77C178.193 206.556 182.71 206.556 185.496 203.77Z" fill="#FDB606"/>
<path opacity="0.5" d="M174.18 199.31C174.041 198.431 174.116 197.509 174.397 196.649C174.533 196.218 174.726 195.805 174.955 195.414C175.187 195.024 175.465 194.662 175.775 194.331C176.089 194.003 176.435 193.707 176.81 193.451C177.186 193.199 177.585 192.98 178.005 192.814C178.843 192.476 179.753 192.325 180.642 192.385C179.754 192.442 178.886 192.652 178.091 193.015C177.695 193.199 177.314 193.414 176.961 193.669C176.606 193.921 176.276 194.206 175.978 194.523C175.902 194.601 175.832 194.684 175.759 194.764C175.689 194.847 175.621 194.932 175.552 195.016C175.488 195.104 175.423 195.191 175.36 195.279C175.301 195.371 175.238 195.459 175.181 195.552C174.948 195.919 174.758 196.313 174.602 196.721C174.294 197.538 174.157 198.421 174.18 199.31Z" fill="white"/>
<path d="M180.339 202.328V201.338C179.757 201.328 179.155 201.151 178.804 200.906L179.045 200.249C179.406 200.485 179.928 200.671 180.49 200.671C181.203 200.671 181.684 200.269 181.684 199.71C181.684 199.171 181.293 198.837 180.55 198.543C179.527 198.151 178.895 197.7 178.895 196.847C178.895 196.033 179.487 195.416 180.41 195.269V194.278H181.032V195.229C181.634 195.249 182.045 195.406 182.336 195.573L182.086 196.22C181.875 196.102 181.463 195.886 180.821 195.886C180.049 195.886 179.758 196.337 179.758 196.729C179.758 197.239 180.129 197.494 181.002 197.847C182.035 198.259 182.557 198.769 182.557 199.641C182.557 200.416 182.005 201.142 180.972 201.308V202.328H180.339Z" fill="white"/>
<path d="M69.1903 206.697C69.9238 206.697 70.5184 205.923 70.5184 204.968C70.5184 204.013 69.9238 203.238 69.1903 203.238C68.4569 203.238 67.8623 204.013 67.8623 204.968C67.8623 205.923 68.4569 206.697 69.1903 206.697Z" fill="#0085F9"/>
<path d="M75.0478 206.697C75.7812 206.697 76.3758 205.923 76.3758 204.968C76.3758 204.013 75.7812 203.238 75.0478 203.238C74.3143 203.238 73.7197 204.013 73.7197 204.968C73.7197 205.923 74.3143 206.697 75.0478 206.697Z" fill="#0085F9"/>
<path d="M85.9447 206.697C86.6782 206.697 87.2728 205.923 87.2728 204.968C87.2728 204.013 86.6782 203.238 85.9447 203.238C85.2113 203.238 84.6167 204.013 84.6167 204.968C84.6167 205.923 85.2113 206.697 85.9447 206.697Z" fill="#0085F9"/>
<path d="M91.8017 206.697C92.5351 206.697 93.1297 205.923 93.1297 204.968C93.1297 204.013 92.5351 203.238 91.8017 203.238C91.0682 203.238 90.4736 204.013 90.4736 204.968C90.4736 205.923 91.0682 206.697 91.8017 206.697Z" fill="#0085F9"/>
<path d="M93.13 204.593L93.1641 197.946L81.8584 193.078V191.168L78.8618 190.86V193.386L67.8286 197.699V204.969H68.7821L68.714 199.424L78.8618 197.946V199.732L81.5861 199.609V197.946L91.802 199.301V204.969L93.13 204.593Z" fill="#0085F9"/>
<path d="M79.8832 192.154L73.6855 198.254V204.969H75.0476V199.979L79.8832 197.946L85.9447 199.794V204.969H87.2387V198.562L80.4962 192.154H79.8832Z" fill="#0085F9"/>
<path d="M81.5339 176.009H79.1182V193.388H81.5339V176.009Z" fill="#0085F9"/>
<path d="M83.6632 173.06H76.9888V177.201H83.6632V173.06Z" fill="#0085F9"/>
<path d="M88.7792 174.064H74.1878C72.6502 174.064 71.4038 172.818 71.4038 171.28V169.421H91.5632V171.28C91.5632 172.818 90.3168 174.064 88.7792 174.064Z" fill="#0085F9"/>
<path d="M75.252 151.255V154.016H85.4678C85.4678 154.016 89.6904 152.886 90.1672 168.196H92.0741C92.0741 168.196 92.8233 151.318 85.3316 151.255L75.252 151.255Z" fill="#6275BA"/>
<path d="M62.1074 122.078H74.9795C74.9795 122.078 76.2735 121.952 76.2054 124.901L78.1123 154.518C78.1123 154.518 78.6572 164.243 85.8764 164.62H93.5725C93.5725 164.62 97.1821 166.063 95.0027 169.389L94.1173 170.142L79.4064 170.769L65.6489 162.236L62.1074 122.078Z" fill="#6275BA"/>
<path d="M64.7636 123.898C64.7636 123.898 62.8567 119.757 60.9497 123.898L63.2653 157.969C63.2653 157.969 63.4833 168.242 71.513 170.384L79.2703 170.77C79.2703 170.77 84.4464 168.323 79.2703 164.621L73.4812 164.997C73.4812 164.997 66.5344 163.491 66.7387 155.083L64.7636 123.898Z" fill="#0085F9"/>
<path d="M92.5503 196.841L93.8427 198.91L96.4079 202.148L98.3624 203.125L100.378 201.415C100.214 201.349 100.023 201.029 99.8185 200.546C99.482 199.752 99.1125 198.519 98.7772 197.266C98.0283 194.471 97.9117 191.544 98.4382 188.698L102.149 168.616L103.001 164.978C103.443 163.09 102.662 161.127 101.044 160.059L97.0798 158.538L92.5601 160.126L92.8508 160.708L96.2247 167.455L93.4151 192.07C93.3761 194.032 93.0975 195.029 92.9033 195.491C92.7958 195.748 92.714 195.839 92.714 195.839L92.5503 196.841Z" fill="#DB965F"/>
<path d="M92.2492 198.805L92.157 202.26L92.8043 202.477L92.8092 199.368C92.8092 199.368 93.5873 198.98 94.8364 201.098C94.8364 201.098 95.8686 203.692 97.423 204.04C97.423 204.04 98.1516 204.226 99.2162 204.292C100.273 204.357 101.66 204.304 102.994 203.833C102.994 203.833 104.118 203.576 102.349 202.493C102.349 202.493 100.33 201.316 99.8184 200.546C99.7952 200.512 99.7751 200.478 99.7586 200.445C99.7696 200.498 100.072 201.972 98.3764 202.055C98.3764 202.055 97.4773 202.39 95.7732 200.569C95.364 200.133 94.9084 199.571 94.4082 198.852C94.4082 198.852 92.563 196.864 92.9282 195.481C92.9282 195.481 92.9197 195.484 92.9032 195.491C92.6578 195.593 90.7125 196.492 92.2492 198.805Z" fill="#040C2B"/>
<path opacity="0.15" d="M92.2492 198.806L92.157 202.26L92.8043 202.478L92.8092 199.368C92.8092 199.368 93.5873 198.98 94.8364 201.099C94.8364 201.099 95.8686 203.692 97.423 204.04C97.423 204.04 98.1516 204.226 99.2162 204.292C98.0667 203.506 97.1311 202.661 97.1311 202.661C96.99 202.567 96.8562 202.448 96.7292 202.308C96.3505 201.891 96.0353 201.284 95.7733 200.57C95.14 198.844 94.8156 196.492 94.6508 194.666C94.5016 193.014 94.5684 191.35 94.841 189.714L97.4767 173.9C100.103 161.928 97.4767 162.478 97.4767 162.478L92.8507 160.708L96.2247 167.456L93.4151 192.07C93.376 194.033 93.0975 195.03 92.9033 195.492C92.6578 195.594 90.7125 196.493 92.2492 198.806Z" fill="black"/>
<path d="M88.59 194.452C88.5289 197.506 87.8888 198.222 87.8888 198.222L87.7249 199.224L89.0176 201.293L91.5828 204.53L93.5373 205.507L95.5529 203.797C94.9367 203.551 93.9334 199.711 93.3427 197.224C93.0221 195.875 92.9714 194.475 93.1949 193.106L97.263 168.189C97.7996 166.119 97.303 163.918 95.9299 162.279L94.3313 160.371L86.269 165.135L89.2518 167.021C90.6631 167.913 91.399 169.567 91.117 171.212L89.6878 179.554C89.5465 180.385 89.4483 181.223 89.3937 182.065L88.59 194.452Z" fill="#DB965F"/>
<path d="M87.4238 201.188L87.338 204.405C87.3342 204.546 87.4231 204.673 87.5569 204.718C87.7646 204.788 87.9795 204.633 87.9799 204.414L88.0454 201.628C88.0454 201.628 88.7623 201.363 90.0113 203.481C90.0113 203.481 91.0435 206.074 92.5977 206.422C92.5977 206.422 95.4902 207.161 98.1694 206.215C98.1694 206.215 99.2928 205.958 97.5238 204.875C97.5238 204.875 95.3178 203.589 94.9332 202.826C94.9332 202.826 95.2789 204.354 93.5512 204.437C93.5512 204.437 92.1683 204.953 89.5831 201.235C89.5831 201.235 87.7379 199.247 88.103 197.864C88.103 197.864 85.7867 198.723 87.4238 201.188Z" fill="#040C2B"/>
<path d="M71.6874 162.466C74.0303 165.585 85.7895 167.404 89.8512 167.947C89.9898 167.965 90.1218 168.005 90.2433 168.062L93.1543 166.479L98.6457 163.492L102.762 161.485C102.203 160.517 101.389 159.705 100.377 159.172L85.6148 151.622L82.9555 151.53L81.1818 151.469L74.1377 151.224C73.9337 151.724 73.7859 152.225 73.6857 152.718L70.1298 152.595C68.0942 157.595 71.6874 162.466 71.6874 162.466Z" fill="#040C2B"/>
<path d="M81.3643 133.305C82.7055 135.467 85.8986 138.127 88.4395 140.042C90.4203 141.534 92.004 142.574 92.004 142.574L94.7812 137.837L86.8338 128.151C86.3861 127.842 85.9744 127.625 85.5969 127.487C81.6141 126.029 81.3643 133.305 81.3643 133.305Z" fill="white"/>
<path opacity="0.1" d="M81.3643 133.305C82.7055 135.468 85.8986 138.127 88.4395 140.042C88.2068 133.438 87.2559 129.963 86.2077 128C82.2249 126.542 81.3643 133.305 81.3643 133.305Z" fill="black"/>
<path d="M97.6597 141.383L105.521 136.387C105.521 136.387 111.857 135.523 112.475 131.432C112.475 131.432 113.394 127.816 107.804 129.996L106.871 130.54L107.512 129.526C107.776 129.11 107.656 128.559 107.243 128.29C107.243 128.29 104.289 130.833 103.665 133.069C103.665 133.069 102.943 134.381 101.066 135.082L95.5884 137.935L97.6597 141.383Z" fill="#DB965F"/>
<path d="M91.0937 140.096C91.0937 140.096 90.8614 144.178 95.4681 142.91L98.824 141.012L100.959 139.805C100.959 139.805 99.4618 137.023 99.8707 135.466C99.8707 135.466 98.866 135.86 97.4732 136.494C95.5458 137.37 92.8755 138.707 91.0937 140.096Z" fill="white"/>
<path d="M75.061 107.873C75.061 107.873 80.7412 107.812 81.4131 115.386C81.4131 115.386 81.5662 119.621 82.1522 121.002C82.3318 121.426 82.3642 121.902 82.2058 122.333C82.0944 122.637 81.892 122.922 81.5283 123.046C81.1483 123.177 80.8427 123.473 80.7488 123.864C80.6011 124.478 80.7177 125.429 82.0237 126.563C82.0237 126.563 83.856 128.334 82.4513 129.25L67.1819 129.739L65.2274 127.418L64.6777 126.502C64.6777 126.502 66.5144 126.472 67.5263 125.815C68.0911 125.448 68.2122 124.666 67.8036 124.131C67.3337 123.515 66.6508 122.337 67.4262 121.432C67.4262 121.432 68.2202 119.905 68.037 117.646C68.037 117.646 67.6095 108.362 75.061 107.873Z" fill="#131A3F"/>
<path d="M70.5107 125.372L72.4653 129.952L80.4664 129.647L78.9395 126.41C78.9395 126.41 78.2975 125.822 77.7839 124.495C77.5212 123.816 77.2916 122.944 77.1988 121.86L72.0988 116.882C72.0988 116.882 72.1708 119.466 71.7903 121.864C71.5625 123.297 71.1734 124.663 70.5107 125.372Z" fill="#C9885B"/>
<path opacity="0.15" d="M71.79 121.864C71.7947 121.871 71.7995 121.878 71.8042 121.885C72.4171 122.802 73.2637 123.542 74.2599 124.016C75.6365 124.671 76.8016 124.761 77.7836 124.495C77.521 123.816 77.2913 122.944 77.1985 121.86L72.0985 116.882C72.0985 116.882 72.1706 119.466 71.79 121.864Z" fill="black"/>
<path d="M78.4202 110.255C78.4202 110.255 83.1842 119.844 77.0154 123.631C77.0154 123.631 71.7017 124.425 70.9688 116.302C70.9688 116.302 72.1903 106.346 78.4202 110.255Z" fill="#DB965F"/>
<path d="M79.0312 112.454C79.0312 112.454 77.2597 109.663 74.522 113.189C74.1759 113.635 73.9392 114.155 73.8167 114.706C73.3519 116.796 71.6991 122.665 67.854 122.288L71.763 110.317L75.5498 108.606L79.0007 110.103L81.4133 119.967L80.436 122.715C80.436 122.715 80.0084 112.943 79.0312 112.454Z" fill="#131A3F"/>
<path d="M64.6172 127.569L64.7906 128.173L68.0613 139.557L68.1596 139.898C68.3912 140.76 68.58 141.621 68.7334 142.468C68.7995 142.832 68.8585 143.193 68.9115 143.551C69.111 144.895 69.2245 146.186 69.2836 147.367C69.3703 149.124 69.335 150.636 69.2774 151.716C69.2283 152.645 70.0685 153.407 71.0766 153.343L85.9258 152.4C86.9117 152.338 87.6284 151.51 87.4749 150.61C87.1182 148.525 86.5458 145.063 86.4215 143.614C86.4215 143.614 86.4828 140.629 86.8488 136.97C86.8488 136.97 87.9483 127.118 84.8947 127.062L80.582 126.66L80.4531 126.648L80.3909 126.643L79.4587 126.555L78.0608 125.005L77.9925 124.866C77.9917 124.886 77.9902 124.905 77.9886 124.924L77.9626 124.896C77.9641 124.901 77.9718 124.931 77.9841 124.982C77.8943 125.852 77.2713 126.582 76.9091 126.94C76.8877 126.96 76.8669 126.98 76.8478 126.999L76.8455 127.001C76.8194 127.025 76.7964 127.047 76.7749 127.066C76.768 127.072 76.7618 127.078 76.7557 127.084C76.7457 127.092 76.7365 127.101 76.7281 127.108C76.7158 127.119 76.7051 127.128 76.6951 127.137C76.6843 127.146 76.6752 127.154 76.6675 127.16C76.6605 127.165 76.656 127.169 76.6529 127.171C76.6506 127.174 76.6491 127.174 76.6491 127.174C76.6414 127.171 76.633 127.167 76.6246 127.164C76.5709 127.144 76.5171 127.121 76.4627 127.098C76.3944 127.069 76.3253 127.039 76.2563 127.008C76.2409 127 76.2256 126.993 76.2095 126.986C76.1926 126.979 76.1757 126.972 76.1596 126.963C76.1412 126.955 76.1212 126.946 76.1028 126.936C76.0974 126.934 76.0936 126.933 76.0883 126.93C76.0852 126.929 76.0829 126.927 76.0798 126.926C76.0706 126.922 76.0622 126.917 76.053 126.913C73.6761 125.776 71.0605 124.091 71.0605 124.091L69.5306 126.172L69.4516 126.263L69.4424 126.274C68.389 126.447 67.5266 126.637 66.8384 126.815C65.29 127.218 64.6172 127.569 64.6172 127.569Z" fill="white"/>
<path opacity="0.1" d="M64.7905 128.173L68.0613 139.557L68.1595 139.898C68.3912 140.759 68.5799 141.621 68.7334 142.467C68.7664 142.65 68.7978 142.831 68.827 143.011C68.8392 143.087 68.8515 143.162 68.8638 143.237C68.8799 143.342 68.896 143.446 68.9114 143.551C68.9336 143.202 68.9482 142.839 68.9543 142.467C69.0487 137.302 67.7091 130.06 65.9913 128.305C65.3153 128.481 64.9678 128.362 64.7905 128.173Z" fill="black"/>
<path opacity="0.15" d="M64.7112 128.067L64.6172 127.568C64.6172 127.568 64.5762 127.836 64.7112 128.067Z" fill="black"/>
<path opacity="0.15" d="M71.0781 127.148L71.0836 127.352L74.5113 130.29L75.9742 127.538L75.9943 127.5L76.1885 127.135L76.2563 127.008C76.2405 127 76.2252 126.994 76.2093 126.986C76.1928 126.979 76.1756 126.972 76.1592 126.964C76.1408 126.955 76.1213 126.946 76.1024 126.937C76.0975 126.934 76.0932 126.933 76.0883 126.93C76.0853 126.929 76.0828 126.928 76.0798 126.926L75.8856 127.231L74.328 129.679L71.0781 127.148Z" fill="black"/>
<path opacity="0.15" d="M76.7554 127.084L76.847 127.225L76.9325 127.358L76.9777 127.427L77.0846 127.592L79.0311 130.595L79.6388 128.012L79.5552 127.827L78.9701 129.862L77.0974 127.34L76.9771 127.178L76.8494 127.007L76.8452 127.001C76.8195 127.025 76.7963 127.047 76.7749 127.066C76.7682 127.072 76.7614 127.078 76.7554 127.084Z" fill="black"/>
<path d="M81.6577 145.498C81.6577 145.496 81.6577 145.494 81.6583 145.492L81.6577 145.498Z" fill="#131A3F"/>
<path d="M81.6577 145.498C81.6577 145.496 81.6577 145.494 81.6583 145.492" stroke="#131A3F" stroke-width="0.0560158" stroke-miterlimit="10"/>
<path d="M60.0776 142.07L59.4101 144.555C58.861 146.599 60.4723 148.582 62.5854 148.462L64.7696 148.339L64.9018 145.075L66.2379 139.65L67.2739 135.634C68.3546 127.815 65.4685 127.429 65.4685 127.429C63.7655 126.62 62.6598 132.061 62.6598 132.061L60.0776 142.07Z" fill="white"/>
<path d="M98.2557 126.579L98.256 126.576C98.256 126.576 98.2548 126.576 98.2557 126.579Z" fill="#9AAAF7" stroke="#131A3F" stroke-width="0.0560158" stroke-miterlimit="10"/>
<path opacity="0.1" d="M68.9116 143.551C69.1111 144.896 69.2937 147.282 69.3528 148.463L75.5222 146.752L77.7548 146.531C77.7288 146.468 77.7049 146.399 77.682 146.325C77.6774 146.308 77.6727 146.291 77.6674 146.274L78.1638 147.081C78.4791 147.058 78.7684 146.91 78.9886 146.683C80.3144 145.318 83.2399 146.545 83.2399 146.545C86.6986 146.608 83.7562 142.763 83.7562 142.763C81.1269 140.489 78.2466 142.87 78.2466 142.87C78.0302 142.944 77.7679 143.006 77.4771 143.058C77.4832 142.94 77.487 142.872 77.487 142.872L75.3694 142.67L69.3174 142.466L68.9545 142.467C68.9485 142.84 68.9339 143.202 68.9116 143.551Z" fill="black"/>
<path d="M78.9887 146.388C78.7683 146.615 78.4791 146.763 78.1635 146.786L74.4042 147.064L73.7803 147.109L73.3682 143.776C73.3682 143.776 73.6991 143.799 74.198 143.818C75.317 143.858 77.2659 143.753 78.2462 143.419C78.2462 143.419 81.1266 141.038 83.7559 143.312C83.7559 143.312 86.7947 147.013 83.3354 146.95C83.3354 146.95 80.3147 145.022 78.9887 146.388Z" fill="#DB965F"/>
<path d="M77.7551 147.08C77.7288 147.017 77.7049 146.948 77.6823 146.874C77.3997 145.932 77.4489 144.22 77.4761 143.628C77.4827 143.497 77.4874 143.421 77.4874 143.421L75.3694 143.219L69.3173 143.016L63.6557 143.028L63.1382 148.463L67.8446 148.059L75.5225 147.301L77.7551 147.08Z" fill="white"/>
<path d="M76.6641 127.408L77.2882 134.733L77.6572 133.191L78.3901 133.497L76.9328 127.358L76.8473 127.225L76.7556 127.084C76.7459 127.093 76.7367 127.1 76.7281 127.108C76.716 127.119 76.7049 127.128 76.6951 127.137C76.6842 127.146 76.675 127.154 76.6677 127.16L76.6641 127.408Z" fill="#040C2B"/>
<path d="M74.3589 134.534L75.3362 133.924L76.0691 134.962L76.5552 127.135L76.3409 127.537L74.3589 134.534Z" fill="#040C2B"/>
<path d="M76.5271 128.673C77.2523 128.673 77.8402 128.208 77.8402 127.635C77.8402 127.062 77.2523 126.597 76.5271 126.597C75.8018 126.597 75.2139 127.062 75.2139 127.635C75.2139 128.208 75.8018 128.673 76.5271 128.673Z" fill="#040C2B"/>
<path d="M62.1074 152.635C62.1074 153.398 62.7782 154.016 63.6057 154.016H72.3233C72.3233 154.016 76.5459 152.886 77.0227 168.196H78.9296C78.9296 168.196 79.6788 151.318 72.1871 151.255H63.6057C62.7783 151.255 62.1074 151.873 62.1074 152.635Z" fill="#0085F9"/>
<path opacity="0.1" d="M47.7124 205.175C47.7124 205.637 47.8957 206.05 48.185 206.329L48.864 203.671C48.2119 203.782 47.7124 204.414 47.7124 205.175Z" fill="black"/>
<path d="M52.7256 153.414H139.364C140.006 153.414 140.526 152.47 140.526 151.304C140.526 150.139 140.006 149.194 139.364 149.194H52.7256C52.0841 149.194 51.564 150.139 51.564 151.304C51.564 152.47 52.0841 153.414 52.7256 153.414Z" fill="#407BFF"/>
<path d="M124.957 206.676C125.531 206.562 125.898 206.053 125.78 205.533L113.658 152.11C113.538 151.579 112.959 151.239 112.373 151.356L110.664 151.695C110.078 151.811 109.71 152.338 109.848 152.866L123.678 205.95C123.813 206.467 124.382 206.79 124.957 206.676Z" fill="#407BFF"/>
<path d="M63.4024 206.676C62.8279 206.562 62.4612 206.053 62.5792 205.533L74.7011 152.11C74.8215 151.579 75.4 151.239 75.9865 151.356L77.6949 151.695C78.2813 151.811 78.6487 152.338 78.5113 152.866L64.6811 205.95C64.5465 206.467 63.9769 206.79 63.4024 206.676Z" fill="#407BFF"/>
<path d="M141.759 206.676C142.334 206.562 142.701 206.053 142.583 205.533L130.461 152.11C130.34 151.579 129.762 151.239 129.175 151.356L127.467 151.695C126.88 151.811 126.513 152.338 126.65 152.866L140.481 205.95C140.615 206.467 141.185 206.79 141.759 206.676Z" fill="#407BFF"/>
<path d="M46.5997 206.676C46.0251 206.562 45.6585 206.053 45.7765 205.533L57.8983 152.11C58.0188 151.579 58.5973 151.239 59.1838 151.356L60.8921 151.695C61.4785 151.811 61.846 152.338 61.7086 152.866L47.8784 205.95C47.7437 206.467 47.1742 206.79 46.5997 206.676Z" fill="#407BFF"/>
<path d="M130.633 149.156H113.363C112.2 149.156 111.257 148.623 111.257 147.967C111.257 147.31 112.2 146.777 113.363 146.777H130.633C131.797 146.777 132.74 147.31 132.74 147.967C132.74 148.623 131.797 149.156 130.633 149.156Z" fill="#0B2581"/>
<path d="M112.077 149.156H99.9257C99.1073 149.156 98.4438 148.623 98.4438 147.967C98.4438 147.31 99.1073 146.777 99.9257 146.777H112.077C112.895 146.777 113.559 147.31 113.559 147.967C113.559 148.623 112.895 149.156 112.077 149.156Z" fill="#0F31AC"/>
<path d="M112.823 146.332L120.143 130.652C120.292 130.333 120.612 130.13 120.963 130.13H139.285C139.951 130.13 140.388 130.823 140.102 131.424L132.739 147.623L113.624 147.62C112.971 147.606 112.547 146.925 112.823 146.332Z" fill="#0F31AC"/>
<path d="M105.162 144.566H87.7554L96.7052 124.891H114.112L105.162 144.566Z" fill="#407BFF"/>
<path d="M112.013 129.496C112.013 129.496 104.96 131.639 109.374 135.332C109.374 135.332 113.535 130.816 112.013 129.496Z" fill="#DB965F"/>
<path d="M81.0006 146.953H79.7319V147.765H81.0006V146.953Z" fill="#F6471E"/>
<path d="M82.6246 146.953H81.356V147.765H82.6246V146.953Z" fill="#F6471E"/>
<path d="M84.2486 146.953H82.98V147.765H84.2486V146.953Z" fill="#F6471E"/>
<path d="M85.8727 146.953H84.604V147.765H85.8727V146.953Z" fill="#F6471E"/>
<path d="M87.4962 146.953H86.2275V147.765H87.4962V146.953Z" fill="#F6471E"/>
<path d="M89.5263 149.186H79.3259C78.8216 149.186 78.4126 148.777 78.4126 148.273C78.4126 147.768 78.8215 147.359 79.3259 147.359H89.5263V149.186Z" fill="#F6471E"/>
<path d="M89.5162 149.182L87.0332 147.837L90.6237 145.881C90.8027 145.783 91.019 145.783 91.1982 145.88L92.4201 146.542C92.8396 146.77 92.8403 147.371 92.4214 147.6L89.5162 149.182Z" fill="#F6471E"/>
<path d="M156.894 45.793H94.5171V86.7055H156.894V45.793Z" fill="#E3E9F7"/>
<path d="M156.893 38.2168H94.5479V45.8107H156.893V38.2168Z" fill="#407BFF"/>
<path d="M98.3935 42.8774C99.0993 42.8774 99.6714 42.3334 99.6714 41.6623C99.6714 40.9913 99.0993 40.4473 98.3935 40.4473C97.6878 40.4473 97.1157 40.9913 97.1157 41.6623C97.1157 42.3334 97.6878 42.8774 98.3935 42.8774Z" fill="#E3E9F7"/>
<path d="M102.121 42.8774C102.826 42.8774 103.398 42.3334 103.398 41.6623C103.398 40.9913 102.826 40.4473 102.121 40.4473C101.415 40.4473 100.843 40.9913 100.843 41.6623C100.843 42.3334 101.415 42.8774 102.121 42.8774Z" fill="#E3E9F7"/>
<path d="M105.848 42.8774C106.553 42.8774 107.125 42.3334 107.125 41.6623C107.125 40.9913 106.553 40.4473 105.848 40.4473C105.142 40.4473 104.57 40.9913 104.57 41.6623C104.57 42.3334 105.142 42.8774 105.848 42.8774Z" fill="#E3E9F7"/>
<path d="M151.146 47.6855H100.248V84.8164H151.146V47.6855Z" fill="white"/>
<path d="M141.343 49.5664H105.372H100.248V55.2469H105.372H141.343H151.163V49.5664H141.343Z" fill="#F4F6FC"/>
<path d="M137.909 53.3309V51.4854H138.3V53.3309H137.909Z" fill="#407BFF"/>
<path d="M140.402 53.3309H139.905L139.102 51.9347H139.091C139.107 52.1814 139.115 52.3572 139.115 52.4624V53.3309H138.765V51.4854H139.259L140.06 52.8676H140.069C140.056 52.6278 140.05 52.4582 140.05 52.3589V51.4854H140.402V53.3309H140.402Z" fill="#407BFF"/>
<path d="M141.919 51.4854H142.314L141.687 53.3309H141.26L140.634 51.4854H141.029L141.377 52.5836C141.396 52.6484 141.416 52.7239 141.436 52.8102C141.457 52.8964 141.47 52.9564 141.475 52.99C141.484 52.9126 141.516 52.7771 141.57 52.5836L141.919 51.4854Z" fill="#407BFF"/>
<path d="M144.222 52.4054C144.222 52.7109 144.146 52.9456 143.995 53.1097C143.843 53.2738 143.626 53.3559 143.343 53.3559C143.061 53.3559 142.844 53.2739 142.692 53.1097C142.541 52.9456 142.465 52.71 142.465 52.4028C142.465 52.0957 142.541 51.8611 142.693 51.6991C142.845 51.5371 143.062 51.4561 143.346 51.4561C143.63 51.4561 143.847 51.5377 143.997 51.7009C144.147 51.8642 144.222 52.099 144.222 52.4054ZM142.875 52.4054C142.875 52.6115 142.914 52.7668 142.992 52.8712C143.071 52.9755 143.188 53.0277 143.343 53.0277C143.656 53.0277 143.812 52.8203 143.812 52.4054C143.812 51.9897 143.656 51.7817 143.346 51.7817C143.19 51.7817 143.073 51.8341 142.994 51.9389C142.915 52.0436 142.875 52.1992 142.875 52.4054Z" fill="#407BFF"/>
<path d="M144.604 53.3309V51.4854H144.996V53.3309H144.604Z" fill="#407BFF"/>
<path d="M146.244 51.7846C146.097 51.7846 145.983 51.84 145.902 51.9506C145.821 52.0613 145.781 52.2155 145.781 52.4132C145.781 52.8247 145.936 53.0306 146.244 53.0306C146.374 53.0306 146.531 52.9982 146.715 52.9333V53.2616C146.564 53.3247 146.395 53.3562 146.208 53.3562C145.939 53.3562 145.734 53.2748 145.592 53.112C145.45 52.9491 145.378 52.7154 145.378 52.4108C145.378 52.2189 145.413 52.0508 145.483 51.9065C145.553 51.7621 145.653 51.6515 145.784 51.5745C145.915 51.4974 146.069 51.459 146.244 51.459C146.424 51.459 146.604 51.5023 146.785 51.589L146.658 51.9071C146.589 51.8743 146.52 51.8457 146.45 51.8213C146.38 51.7968 146.312 51.7846 146.244 51.7846Z" fill="#407BFF"/>
<path d="M148.171 53.3309H147.108V51.4854H148.171V51.806H147.499V52.2112H148.124V52.5318H147.499V53.0077H148.171V53.3309Z" fill="#407BFF"/>
<path d="M104.255 52.1324V51.7746C104.255 51.6688 104.169 51.583 104.063 51.583H103.709C103.404 51.583 103.156 51.8303 103.156 52.1353V52.4901C103.156 52.596 103.242 52.6818 103.348 52.6818H103.706V53.0395C103.706 53.1453 103.791 53.2312 103.897 53.2312H104.252C104.557 53.2312 104.804 52.9839 104.804 52.6789V52.324C104.804 52.2182 104.719 52.1324 104.613 52.1324H104.255Z" fill="#407BFF"/>
<path d="M110.266 51.7744H105.774V52.3936H110.266V51.7744Z" fill="#407BFF"/>
<path d="M112.56 52.4209H105.774V53.0401H112.56V52.4209Z" fill="#407BFF"/>
<path d="M103.156 57.6709H112.56" stroke="#B4C4FB" stroke-width="0.495331" stroke-miterlimit="10"/>
<path d="M103.156 58.4785H109.167" stroke="#B4C4FB" stroke-width="0.495331" stroke-miterlimit="10"/>
<path d="M103.156 59.2871H109.167" stroke="#B4C4FB" stroke-width="0.495331" stroke-miterlimit="10"/>
<path d="M148.171 57.5889H146.753V57.7505H148.171V57.5889Z" fill="#407BFF"/>
<path d="M146.228 57.5889H144.911V57.7505H146.228V57.5889Z" fill="#407BFF"/>
<path d="M144.346 57.5889H143.02V57.7505H144.346V57.5889Z" fill="#407BFF"/>
<path d="M146.657 57.2627L146.399 57.9548H146.268L146.526 57.2627H146.657Z" fill="#407BFF"/>
<path d="M144.815 57.2627L144.557 57.9548H144.426L144.684 57.2627H144.815Z" fill="#407BFF"/>
<path d="M103.156 77.5615H112.56" stroke="#407BFF" stroke-width="0.612557" stroke-miterlimit="10"/>
<path d="M103.156 78.3691H111.235" stroke="#407BFF" stroke-width="0.567767" stroke-miterlimit="10"/>
<path d="M103.156 79.1777H109.91" stroke="#407BFF" stroke-width="0.519126" stroke-miterlimit="10"/>
<path d="M101.799 82.9414H148.172V82.3597H101.799V82.9414Z" fill="#BDC9F9"/>
<path d="M148.172 60.8701H101.799V62.8737H148.172V60.8701Z" fill="#F4F6FC"/>
<path d="M148.172 62.874H101.799V64.8776H148.172V62.874Z" fill="#E3E9F7"/>
<path d="M148.172 66.8809H101.799V68.8845H148.172V66.8809Z" fill="#E3E9F7"/>
<path d="M148.172 64.877H101.799V66.8806H148.172V64.877Z" fill="#F4F6FC"/>
<path d="M126.931 63.876H128.417" stroke="#0085F9" stroke-width="0.510464" stroke-miterlimit="10"/>
<path d="M126.931 65.8789H128.417" stroke="#0085F9" stroke-width="0.510464" stroke-miterlimit="10"/>
<path d="M126.931 67.8828H128.417" stroke="#0085F9" stroke-width="0.510464" stroke-miterlimit="10"/>
<path d="M135.958 63.876H136.899" stroke="#0085F9" stroke-width="0.510464" stroke-miterlimit="10"/>
<path d="M135.958 65.8789H136.899" stroke="#0085F9" stroke-width="0.510464" stroke-miterlimit="10"/>
<path d="M135.958 67.8828H136.899" stroke="#0085F9" stroke-width="0.510464" stroke-miterlimit="10"/>
<path d="M144.573 63.8916H146.058" stroke="#0085F9" stroke-width="0.510464" stroke-miterlimit="10"/>
<path d="M144.573 65.8955H146.058" stroke="#0085F9" stroke-width="0.510464" stroke-miterlimit="10"/>
<path d="M144.573 67.8984H146.058" stroke="#0085F9" stroke-width="0.510464" stroke-miterlimit="10"/>
<path d="M103.173 63.876H113.951" stroke="#0085F9" stroke-width="0.510464" stroke-miterlimit="10"/>
<path d="M103.173 65.8789H115.837" stroke="#0085F9" stroke-width="0.510464" stroke-miterlimit="10"/>
<path d="M103.173 67.8828H117.582" stroke="#0085F9" stroke-width="0.510464" stroke-miterlimit="10"/>
<path d="M148.172 72.4395H134.84V74.4431H148.172V72.4395Z" fill="#BDC9F9"/>
<path d="M135.597 70.0781H141.252" stroke="#0085F9" stroke-width="0.510464" stroke-miterlimit="10"/>
<path d="M135.597 71.2412H139.54" stroke="#0085F9" stroke-width="0.510464" stroke-miterlimit="10"/>
<path d="M144.588 70.0781H146.042" stroke="#0085F9" stroke-width="0.510464" stroke-miterlimit="10"/>
<path d="M144.588 71.2412H146.042" stroke="#0085F9" stroke-width="0.510464" stroke-miterlimit="10"/>
<path d="M103.173 61.8721H117.582" stroke="white" stroke-width="0.714651" stroke-miterlimit="10"/>
<path d="M135.338 61.8721H137.519" stroke="white" stroke-width="0.714651" stroke-miterlimit="10"/>
<path d="M144.225 61.8721H146.406" stroke="white" stroke-width="0.714651" stroke-miterlimit="10"/>
<path d="M126.583 61.8721H128.764" stroke="white" stroke-width="0.714651" stroke-miterlimit="10"/>
<path d="M144.589 73.4424H146.043" stroke="white" stroke-width="0.714651" stroke-miterlimit="10"/>
<path d="M135.598 73.4424H140.51" stroke="white" stroke-width="0.714651" stroke-miterlimit="10"/>
<path d="M139.038 77.842C139.038 77.842 137.684 77.8785 138.064 78.8851C138.248 79.3736 138.833 79.5738 139.288 79.316C139.471 79.212 139.687 79.0551 139.939 78.8219C139.939 78.8219 140.978 76.7837 140.331 77.352C140.331 77.352 139.75 77.797 139.904 78.7066C139.984 79.1818 140.485 79.4619 140.93 79.2768C141.311 79.1184 141.632 78.8928 141.292 78.6455C141.292 78.6455 140.321 79.2246 141.205 79.4619C141.335 79.4966 141.472 79.4959 141.601 79.4601L141.912 79.3738C142.058 79.3331 142.212 79.3291 142.36 79.3621L142.756 79.4501C142.926 79.4879 143.103 79.477 143.267 79.4187L143.68 79.2719C143.823 79.221 143.977 79.2061 144.128 79.2286L144.188 79.2377C144.497 79.284 144.808 79.1719 145.015 78.9395" stroke="#407BFF" stroke-width="0.185749" stroke-miterlimit="10"/>
<path opacity="0.1" d="M156.894 65.8936V86.7061H115.321V73.4703H115.351V65.8936H156.894Z" fill="black" stroke="#0F31AC" stroke-width="0.123833" stroke-miterlimit="10"/>
<path d="M199.554 74.3369H116.373V115.249H199.554V74.3369Z" fill="#E3E9F7"/>
<path d="M199.553 66.7598H116.404V74.3537H199.553V66.7598Z" fill="#407BFF"/>
<path d="M120.25 71.4145C120.955 71.4145 121.527 70.8705 121.527 70.1994C121.527 69.5284 120.955 68.9844 120.25 68.9844C119.544 68.9844 118.972 69.5284 118.972 70.1994C118.972 70.8705 119.544 71.4145 120.25 71.4145Z" fill="#E3E9F7"/>
<path d="M123.977 71.4145C124.682 71.4145 125.254 70.8705 125.254 70.1994C125.254 69.5284 124.682 68.9844 123.977 68.9844C123.271 68.9844 122.699 69.5284 122.699 70.1994C122.699 70.8705 123.271 71.4145 123.977 71.4145Z" fill="#E3E9F7"/>
<path d="M127.704 71.4145C128.409 71.4145 128.981 70.8705 128.981 70.1994C128.981 69.5284 128.409 68.9844 127.704 68.9844C126.998 68.9844 126.426 69.5284 126.426 70.1994C126.426 70.8705 126.998 71.4145 127.704 71.4145Z" fill="#E3E9F7"/>
<path d="M131.984 77.7344H118.994V81.9988H131.984V77.7344Z" fill="#F4F6FC" stroke="#0F31AC" stroke-width="0.123833" stroke-miterlimit="10"/>
<path d="M144.974 77.7344H131.984V81.9988H144.974V77.7344Z" fill="#F4F6FC" stroke="#0F31AC" stroke-width="0.123833" stroke-miterlimit="10"/>
<path d="M157.964 77.7344H144.974V81.9988H157.964V77.7344Z" fill="#F4F6FC" stroke="#0F31AC" stroke-width="0.123833" stroke-miterlimit="10"/>
<path d="M170.954 77.7344H157.964V81.9988H170.954V77.7344Z" fill="#F4F6FC" stroke="#0F31AC" stroke-width="0.123833" stroke-miterlimit="10"/>
<path d="M183.943 77.7344H170.954V81.9988H183.943V77.7344Z" fill="#F4F6FC" stroke="#0F31AC" stroke-width="0.123833" stroke-miterlimit="10"/>
<path d="M196.934 77.7344H183.944V81.9988H196.934V77.7344Z" fill="#F4F6FC" stroke="#0F31AC" stroke-width="0.123833" stroke-miterlimit="10"/>
<path d="M131.984 81.999H118.994V86.2635H131.984V81.999Z" fill="#F4F6FC" stroke="#0F31AC" stroke-width="0.123833" stroke-miterlimit="10"/>
<path d="M144.974 81.999H131.984V86.2635H144.974V81.999Z" fill="#CDD7FB" stroke="#0F31AC" stroke-width="0.123833" stroke-miterlimit="10"/>
<path d="M157.964 81.999H144.974V86.2635H157.964V81.999Z" fill="white" stroke="#0F31AC" stroke-width="0.123833" stroke-miterlimit="10"/>
<path d="M170.954 81.999H157.964V86.2635H170.954V81.999Z" fill="white" stroke="#0F31AC" stroke-width="0.123833" stroke-miterlimit="10"/>
<path d="M183.943 81.999H170.954V86.2635H183.943V81.999Z" fill="white" stroke="#0F31AC" stroke-width="0.123833" stroke-miterlimit="10"/>
<path d="M196.934 81.999H183.944V86.2635H196.934V81.999Z" fill="white" stroke="#0F31AC" stroke-width="0.123833" stroke-miterlimit="10"/>
<path d="M131.984 86.2637H118.994V90.5281H131.984V86.2637Z" fill="#F4F6FC" stroke="#0F31AC" stroke-width="0.123833" stroke-miterlimit="10"/>
<path d="M144.974 86.2637H131.984V90.5281H144.974V86.2637Z" fill="white" stroke="#0F31AC" stroke-width="0.123833" stroke-miterlimit="10"/>
<path d="M157.964 86.2637H144.974V90.5281H157.964V86.2637Z" fill="white" stroke="#0F31AC" stroke-width="0.123833" stroke-miterlimit="10"/>
<path d="M170.954 86.2637H157.964V90.5281H170.954V86.2637Z" fill="#CDD7FB" stroke="#0F31AC" stroke-width="0.123833" stroke-miterlimit="10"/>
<path d="M183.943 86.2637H170.954V90.5281H183.943V86.2637Z" fill="white" stroke="#0F31AC" stroke-width="0.123833" stroke-miterlimit="10"/>
<path d="M196.934 86.2637H183.944V90.5281H196.934V86.2637Z" fill="white" stroke="#0F31AC" stroke-width="0.123833" stroke-miterlimit="10"/>
<path d="M131.984 90.5283H118.994V94.7928H131.984V90.5283Z" fill="#F4F6FC" stroke="#0F31AC" stroke-width="0.123833" stroke-miterlimit="10"/>
<path d="M144.974 90.5283H131.984V94.7928H144.974V90.5283Z" fill="white" stroke="#0F31AC" stroke-width="0.123833" stroke-miterlimit="10"/>
<path d="M157.964 90.5283H144.974V94.7928H157.964V90.5283Z" fill="white" stroke="#0F31AC" stroke-width="0.123833" stroke-miterlimit="10"/>
<path d="M170.954 90.5283H157.964V94.7928H170.954V90.5283Z" fill="white" stroke="#0F31AC" stroke-width="0.123833" stroke-miterlimit="10"/>
<path d="M183.943 90.5283H170.954V94.7928H183.943V90.5283Z" fill="white" stroke="#0F31AC" stroke-width="0.123833" stroke-miterlimit="10"/>
<path d="M196.934 90.5283H183.944V94.7928H196.934V90.5283Z" fill="white" stroke="#0F31AC" stroke-width="0.123833" stroke-miterlimit="10"/>
<path d="M131.984 94.792H118.994V99.0564H131.984V94.792Z" fill="#F4F6FC" stroke="#0F31AC" stroke-width="0.123833" stroke-miterlimit="10"/>
<path d="M144.974 94.792H131.984V99.0564H144.974V94.792Z" fill="white" stroke="#0F31AC" stroke-width="0.123833" stroke-miterlimit="10"/>
<path d="M157.964 94.792H144.974V99.0564H157.964V94.792Z" fill="white" stroke="#0F31AC" stroke-width="0.123833" stroke-miterlimit="10"/>
<path d="M170.954 94.792H157.964V99.0564H170.954V94.792Z" fill="white" stroke="#0F31AC" stroke-width="0.123833" stroke-miterlimit="10"/>
<path d="M183.943 94.792H170.954V99.0564H183.943V94.792Z" fill="white" stroke="#0F31AC" stroke-width="0.123833" stroke-miterlimit="10"/>
<path d="M196.934 94.792H183.944V99.0564H196.934V94.792Z" fill="white" stroke="#0F31AC" stroke-width="0.123833" stroke-miterlimit="10"/>
<path d="M131.984 99.0566H118.994V103.321H131.984V99.0566Z" fill="#F4F6FC" stroke="#0F31AC" stroke-width="0.123833" stroke-miterlimit="10"/>
<path d="M144.974 99.0566H131.984V103.321H144.974V99.0566Z" fill="white" stroke="#0F31AC" stroke-width="0.123833" stroke-miterlimit="10"/>
<path d="M157.964 99.0566H144.974V103.321H157.964V99.0566Z" fill="white" stroke="#0F31AC" stroke-width="0.123833" stroke-miterlimit="10"/>
<path d="M170.954 99.0566H157.964V103.321H170.954V99.0566Z" fill="white" stroke="#0F31AC" stroke-width="0.123833" stroke-miterlimit="10"/>
<path d="M183.943 99.0566H170.954V103.321H183.943V99.0566Z" fill="white" stroke="#0F31AC" stroke-width="0.123833" stroke-miterlimit="10"/>
<path d="M196.934 99.0566H183.944V103.321H196.934V99.0566Z" fill="white" stroke="#0F31AC" stroke-width="0.123833" stroke-miterlimit="10"/>
<path d="M131.984 103.321H118.994V107.586H131.984V103.321Z" fill="#F4F6FC" stroke="#0F31AC" stroke-width="0.123833" stroke-miterlimit="10"/>
<path d="M144.974 103.321H131.984V107.586H144.974V103.321Z" fill="white" stroke="#0F31AC" stroke-width="0.123833" stroke-miterlimit="10"/>
<path d="M157.964 103.321H144.974V107.586H157.964V103.321Z" fill="white" stroke="#0F31AC" stroke-width="0.123833" stroke-miterlimit="10"/>
<path d="M170.954 103.321H157.964V107.586H170.954V103.321Z" fill="white" stroke="#0F31AC" stroke-width="0.123833" stroke-miterlimit="10"/>
<path d="M183.943 103.321H170.954V107.586H183.943V103.321Z" fill="white" stroke="#0F31AC" stroke-width="0.123833" stroke-miterlimit="10"/>
<path d="M196.934 103.321H183.944V107.586H196.934V103.321Z" fill="white" stroke="#0F31AC" stroke-width="0.123833" stroke-miterlimit="10"/>
<path d="M131.984 107.585H118.994V111.849H131.984V107.585Z" fill="#F4F6FC" stroke="#0F31AC" stroke-width="0.123833" stroke-miterlimit="10"/>
<path d="M144.974 107.585H131.984V111.849H144.974V107.585Z" fill="white" stroke="#0F31AC" stroke-width="0.123833" stroke-miterlimit="10"/>
<path d="M157.964 107.585H144.974V111.849H157.964V107.585Z" fill="white" stroke="#0F31AC" stroke-width="0.123833" stroke-miterlimit="10"/>
<path d="M170.954 107.585H157.964V111.849H170.954V107.585Z" fill="white" stroke="#0F31AC" stroke-width="0.123833" stroke-miterlimit="10"/>
<path d="M183.943 107.585H170.954V111.849H183.943V107.585Z" fill="white" stroke="#0F31AC" stroke-width="0.123833" stroke-miterlimit="10"/>
<path d="M196.934 107.585H183.944V111.849H196.934V107.585Z" fill="#0085F9" stroke="#0F31AC" stroke-width="0.123833" stroke-miterlimit="10"/>
<path opacity="0.1" d="M199.585 95.7988V115.229H147.084V102.872H147.122V95.7988H199.585Z" fill="black" stroke="#0F31AC" stroke-width="0.123833" stroke-miterlimit="10"/>
<path d="M220.73 104.675H148.074V145.587H220.73V104.675Z" fill="#E3E9F7"/>
<path d="M220.728 97.0977H148.105V104.692H220.728V97.0977Z" fill="#407BFF"/>
<path d="M151.951 101.755C152.656 101.755 153.229 101.211 153.229 100.54C153.229 99.8692 152.656 99.3252 151.951 99.3252C151.245 99.3252 150.673 99.8692 150.673 100.54C150.673 101.211 151.245 101.755 151.951 101.755Z" fill="#E3E9F7"/>
<path d="M155.678 101.755C156.383 101.755 156.956 101.211 156.956 100.54C156.956 99.8692 156.383 99.3252 155.678 99.3252C154.972 99.3252 154.4 99.8692 154.4 100.54C154.4 101.211 154.972 101.755 155.678 101.755Z" fill="#E3E9F7"/>
<path d="M159.405 101.755C160.111 101.755 160.683 101.211 160.683 100.54C160.683 99.8692 160.111 99.3252 159.405 99.3252C158.699 99.3252 158.127 99.8692 158.127 100.54C158.127 101.211 158.699 101.755 159.405 101.755Z" fill="#E3E9F7"/>
<path d="M218.115 108.073H150.688V142.189H218.115V108.073Z" fill="#F9FBFD"/>
<path d="M166.964 113.184H163.094V137.077H166.964V113.184Z" fill="#EEF2FA"/>
<path d="M172.147 113.184H168.277V137.077H172.147V113.184Z" fill="#EEF2FA"/>
<path d="M177.331 113.184H173.46V137.077H177.331V113.184Z" fill="#EEF2FA"/>
<path d="M182.514 113.184H178.644V137.077H182.514V113.184Z" fill="#EEF2FA"/>
<path d="M187.697 113.184H183.827V137.077H187.697V113.184Z" fill="#EEF2FA"/>
<path d="M192.88 113.184H189.01V137.077H192.88V113.184Z" fill="#EEF2FA"/>
<path d="M198.063 113.184H194.193V137.077H198.063V113.184Z" fill="#EEF2FA"/>
<path d="M203.246 113.184H199.376V137.077H203.246V113.184Z" fill="#EEF2FA"/>
<path d="M208.429 113.184H204.559V137.077H208.429V113.184Z" fill="#EEF2FA"/>
<path d="M166.964 122.551H163.094V137.077H166.964V122.551Z" fill="#407BFF"/>
<path d="M172.147 125.511H168.277V137.078H172.147V125.511Z" fill="#0085F9"/>
<path d="M177.331 131.551H173.46V137.077H177.331V131.551Z" fill="#6286E8"/>
<path d="M182.514 128.606H178.644V137.077H182.514V128.606Z" fill="#407BFF"/>
<path d="M187.697 131.551H183.827V137.077H187.697V131.551Z" fill="#0085F9"/>
<path d="M192.88 119.233H189.01V137.077H192.88V119.233Z" fill="#6286E8"/>
<path d="M198.063 115.508H194.193V137.077H198.063V115.508Z" fill="#407BFF"/>
<path d="M203.246 126.439H199.376V137.077H203.246V126.439Z" fill="#0085F9"/>
<path d="M208.429 122.551H204.559V137.077H208.429V122.551Z" fill="#6286E8"/>
<path d="M158.554 136.688H157.966V136.62L158.19 136.473C158.256 136.429 158.3 136.398 158.321 136.379C158.343 136.361 158.358 136.344 158.368 136.327C158.378 136.311 158.383 136.294 158.383 136.275C158.383 136.25 158.371 136.23 158.348 136.215C158.324 136.2 158.292 136.193 158.25 136.193C158.217 136.193 158.185 136.197 158.154 136.205C158.123 136.213 158.087 136.227 158.046 136.248L157.971 136.188C158.019 136.162 158.066 136.143 158.112 136.132C158.157 136.121 158.205 136.115 158.257 136.115C158.338 136.115 158.402 136.129 158.451 136.156C158.499 136.184 158.524 136.221 158.524 136.267C158.524 136.293 158.517 136.317 158.503 136.34C158.489 136.363 158.467 136.386 158.438 136.411C158.409 136.435 158.361 136.468 158.293 136.509L158.142 136.605V136.608H158.554V136.688Z" fill="#0085F9"/>
<path d="M159.247 136.406C159.247 136.504 159.223 136.577 159.174 136.624C159.126 136.672 159.052 136.696 158.952 136.696C158.856 136.696 158.783 136.671 158.733 136.622C158.683 136.573 158.658 136.501 158.658 136.406C158.658 136.306 158.682 136.233 158.731 136.185C158.779 136.138 158.853 136.114 158.952 136.114C159.049 136.114 159.123 136.139 159.172 136.188C159.222 136.238 159.247 136.31 159.247 136.406ZM158.799 136.406C158.799 136.483 158.812 136.538 158.836 136.571C158.86 136.604 158.899 136.62 158.952 136.62C159.006 136.62 159.045 136.603 159.07 136.57C159.094 136.536 159.107 136.482 159.107 136.406C159.107 136.33 159.094 136.275 159.07 136.241C159.045 136.207 159.006 136.19 158.952 136.19C158.899 136.19 158.86 136.207 158.836 136.24C158.812 136.274 158.799 136.329 158.799 136.406Z" fill="#0085F9"/>
<path d="M158.585 133.341H158.468V133.464H158.332V133.341H157.936V133.271L158.332 132.897H158.468V133.265H158.585V133.341ZM158.332 133.265V133.124C158.332 133.073 158.334 133.032 158.338 132.999H158.333C158.322 133.017 158.305 133.037 158.281 133.061L158.066 133.265H158.332Z" fill="#0085F9"/>
<path d="M159.247 133.181C159.247 133.279 159.223 133.352 159.174 133.4C159.126 133.447 159.052 133.471 158.952 133.471C158.856 133.471 158.783 133.447 158.733 133.397C158.683 133.348 158.658 133.276 158.658 133.181C158.658 133.081 158.682 133.008 158.731 132.961C158.779 132.913 158.853 132.89 158.952 132.89C159.049 132.89 159.123 132.914 159.172 132.964C159.222 133.013 159.247 133.086 159.247 133.181ZM158.799 133.181C158.799 133.258 158.812 133.313 158.836 133.346C158.86 133.379 158.899 133.396 158.952 133.396C159.006 133.396 159.045 133.379 159.07 133.345C159.094 133.312 159.107 133.257 159.107 133.181C159.107 133.105 159.094 133.05 159.07 133.017C159.045 132.983 159.006 132.966 158.952 132.966C158.899 132.966 158.86 132.982 158.836 133.016C158.812 133.049 158.799 133.104 158.799 133.181Z" fill="#0085F9"/>
<path d="M157.969 130.002C157.969 129.781 158.107 129.671 158.383 129.671C158.427 129.671 158.463 129.673 158.493 129.677V129.753C158.463 129.747 158.429 129.745 158.389 129.745C158.296 129.745 158.226 129.761 158.18 129.793C158.133 129.826 158.108 129.878 158.104 129.95H158.111C158.13 129.929 158.156 129.912 158.189 129.901C158.223 129.89 158.262 129.884 158.308 129.884C158.386 129.884 158.448 129.9 158.492 129.931C158.536 129.962 158.557 130.005 158.557 130.059C158.557 130.118 158.532 130.165 158.481 130.199C158.43 130.234 158.361 130.251 158.273 130.251C158.211 130.251 158.157 130.241 158.112 130.222C158.066 130.202 158.03 130.174 158.006 130.137C157.981 130.1 157.969 130.055 157.969 130.002ZM158.271 130.176C158.319 130.176 158.356 130.166 158.382 130.146C158.408 130.126 158.421 130.097 158.421 130.06C158.421 130.027 158.408 130.002 158.384 129.983C158.36 129.965 158.323 129.955 158.275 129.955C158.245 129.955 158.217 129.96 158.192 129.968C158.166 129.976 158.146 129.988 158.132 130.002C158.117 130.017 158.11 130.032 158.11 130.047C158.11 130.083 158.125 130.114 158.155 130.139C158.185 130.164 158.224 130.176 158.271 130.176Z" fill="#0085F9"/>
<path d="M159.247 129.96C159.247 130.058 159.223 130.131 159.174 130.179C159.126 130.227 159.052 130.251 158.952 130.251C158.856 130.251 158.783 130.226 158.733 130.177C158.683 130.128 158.658 130.055 158.658 129.96C158.658 129.861 158.682 129.787 158.731 129.74C158.779 129.693 158.853 129.669 158.952 129.669C159.049 129.669 159.123 129.694 159.172 129.743C159.222 129.793 159.247 129.865 159.247 129.96ZM158.799 129.96C158.799 130.037 158.812 130.092 158.836 130.125C158.86 130.158 158.899 130.175 158.952 130.175C159.006 130.175 159.045 130.158 159.07 130.125C159.094 130.091 159.107 130.036 159.107 129.96C159.107 129.885 159.094 129.83 159.07 129.796C159.045 129.762 159.006 129.745 158.952 129.745C158.899 129.745 158.86 129.762 158.836 129.795C158.812 129.828 158.799 129.883 158.799 129.96Z" fill="#0085F9"/>
<path d="M158.259 126.448C158.341 126.448 158.406 126.461 158.454 126.485C158.502 126.51 158.526 126.543 158.526 126.584C158.526 126.642 158.472 126.688 158.366 126.722C158.434 126.744 158.482 126.768 158.511 126.792C158.539 126.817 158.554 126.844 158.554 126.874C158.554 126.921 158.527 126.958 158.475 126.986C158.422 127.014 158.351 127.028 158.261 127.028C158.167 127.028 158.094 127.015 158.042 126.989C157.991 126.963 157.965 126.925 157.965 126.877C157.965 126.846 157.978 126.817 158.005 126.792C158.033 126.767 158.077 126.745 158.139 126.725C158.086 126.705 158.048 126.683 158.025 126.66C158.003 126.637 157.992 126.611 157.992 126.583C157.992 126.542 158.016 126.509 158.066 126.485C158.115 126.46 158.179 126.448 158.259 126.448ZM158.098 126.874C158.098 126.901 158.113 126.922 158.141 126.937C158.17 126.951 158.209 126.959 158.259 126.959C158.31 126.959 158.349 126.951 158.378 126.936C158.406 126.92 158.42 126.9 158.42 126.873C158.42 126.852 158.407 126.833 158.381 126.816C158.355 126.799 158.315 126.783 158.262 126.768L158.245 126.763C158.193 126.778 158.156 126.795 158.133 126.812C158.11 126.83 158.098 126.851 158.098 126.874ZM158.258 126.518C158.218 126.518 158.186 126.525 158.162 126.537C158.138 126.55 158.126 126.567 158.126 126.589C158.126 126.603 158.13 126.615 158.139 126.625C158.148 126.636 158.16 126.646 158.177 126.654C158.194 126.663 158.222 126.673 158.261 126.685C158.309 126.672 158.342 126.657 158.362 126.642C158.381 126.627 158.391 126.609 158.391 126.589C158.391 126.567 158.379 126.55 158.355 126.537C158.33 126.525 158.298 126.518 158.258 126.518Z" fill="#0085F9"/>
<path d="M159.247 126.738C159.247 126.836 159.222 126.909 159.174 126.956C159.125 127.004 159.051 127.028 158.952 127.028C158.855 127.028 158.782 127.003 158.732 126.954C158.683 126.905 158.658 126.833 158.658 126.738C158.658 126.638 158.682 126.565 158.73 126.517C158.779 126.47 158.853 126.446 158.952 126.446C159.049 126.446 159.122 126.471 159.172 126.52C159.222 126.57 159.247 126.642 159.247 126.738ZM158.799 126.738C158.799 126.815 158.811 126.87 158.835 126.903C158.86 126.936 158.899 126.952 158.952 126.952C159.005 126.952 159.044 126.935 159.069 126.902C159.094 126.868 159.106 126.814 159.106 126.738C159.106 126.662 159.094 126.607 159.069 126.573C159.044 126.539 159.005 126.522 158.952 126.522C158.899 126.522 158.86 126.539 158.835 126.572C158.811 126.606 158.799 126.661 158.799 126.738Z" fill="#0085F9"/>
<path d="M158.029 123.801H157.89V123.437C157.89 123.393 157.891 123.358 157.894 123.333C157.885 123.339 157.874 123.346 157.861 123.353C157.848 123.361 157.803 123.385 157.728 123.425L157.658 123.367L157.913 123.236H158.029L158.029 123.801Z" fill="#0085F9"/>
<path d="M158.9 123.519C158.9 123.617 158.876 123.69 158.828 123.738C158.779 123.785 158.705 123.809 158.606 123.809C158.509 123.809 158.436 123.785 158.386 123.735C158.336 123.686 158.312 123.614 158.312 123.519C158.312 123.419 158.336 123.346 158.384 123.298C158.433 123.251 158.506 123.228 158.606 123.228C158.702 123.228 158.776 123.252 158.826 123.302C158.875 123.351 158.9 123.424 158.9 123.519ZM158.453 123.519C158.453 123.596 158.465 123.651 158.489 123.684C158.513 123.717 158.552 123.733 158.606 123.733C158.659 123.733 158.698 123.717 158.723 123.683C158.747 123.65 158.76 123.595 158.76 123.519C158.76 123.443 158.747 123.388 158.723 123.354C158.698 123.321 158.659 123.304 158.606 123.304C158.552 123.304 158.513 123.32 158.489 123.353C158.465 123.387 158.453 123.442 158.453 123.519Z" fill="#0085F9"/>
<path d="M159.594 123.519C159.594 123.617 159.569 123.69 159.521 123.738C159.473 123.785 159.399 123.809 159.299 123.809C159.203 123.809 159.129 123.785 159.08 123.735C159.03 123.686 159.005 123.614 159.005 123.519C159.005 123.419 159.029 123.346 159.078 123.298C159.126 123.251 159.2 123.228 159.299 123.228C159.396 123.228 159.469 123.252 159.519 123.302C159.569 123.351 159.594 123.424 159.594 123.519ZM159.146 123.519C159.146 123.596 159.158 123.651 159.182 123.684C159.207 123.717 159.246 123.733 159.299 123.733C159.352 123.733 159.391 123.717 159.416 123.683C159.441 123.65 159.453 123.595 159.453 123.519C159.453 123.443 159.441 123.388 159.416 123.354C159.391 123.321 159.352 123.304 159.299 123.304C159.246 123.304 159.207 123.32 159.182 123.353C159.158 123.387 159.146 123.442 159.146 123.519Z" fill="#0085F9"/>
<path d="M158.029 120.579H157.89V120.214C157.89 120.17 157.891 120.136 157.894 120.11C157.885 120.117 157.874 120.123 157.861 120.131C157.848 120.138 157.803 120.162 157.728 120.202L157.658 120.144L157.913 120.014H158.029L158.029 120.579Z" fill="#0085F9"/>
<path d="M158.901 120.579H158.313V120.51L158.536 120.364C158.603 120.32 158.646 120.288 158.668 120.27C158.689 120.252 158.705 120.234 158.715 120.218C158.725 120.202 158.73 120.184 158.73 120.166C158.73 120.14 158.718 120.12 158.695 120.106C158.671 120.091 158.638 120.084 158.597 120.084C158.564 120.084 158.532 120.088 158.501 120.096C158.47 120.104 158.434 120.118 158.393 120.139L158.318 120.079C158.366 120.052 158.413 120.034 158.458 120.023C158.504 120.011 158.552 120.006 158.604 120.006C158.684 120.006 158.749 120.02 158.797 120.047C158.846 120.075 158.87 120.111 158.87 120.158C158.87 120.183 158.863 120.207 158.849 120.23C158.835 120.253 158.814 120.277 158.785 120.301C158.756 120.326 158.707 120.359 158.64 120.4L158.489 120.495V120.499H158.901V120.579Z" fill="#0085F9"/>
<path d="M159.594 120.296C159.594 120.394 159.569 120.467 159.521 120.515C159.473 120.563 159.399 120.586 159.299 120.586C159.203 120.586 159.129 120.562 159.08 120.513C159.03 120.463 159.005 120.391 159.005 120.296C159.005 120.197 159.029 120.123 159.078 120.076C159.126 120.029 159.2 120.005 159.299 120.005C159.396 120.005 159.469 120.03 159.519 120.079C159.569 120.128 159.594 120.201 159.594 120.296ZM159.146 120.296C159.146 120.373 159.158 120.428 159.182 120.461C159.207 120.494 159.246 120.511 159.299 120.511C159.352 120.511 159.391 120.494 159.416 120.46C159.441 120.427 159.453 120.372 159.453 120.296C159.453 120.22 159.441 120.166 159.416 120.132C159.391 120.098 159.352 120.081 159.299 120.081C159.246 120.081 159.207 120.097 159.182 120.131C159.158 120.164 159.146 120.219 159.146 120.296Z" fill="#0085F9"/>
<path d="M158.029 117.358H157.89V116.993C157.89 116.95 157.891 116.915 157.894 116.89C157.885 116.896 157.874 116.903 157.861 116.91C157.848 116.918 157.803 116.941 157.728 116.981L157.658 116.924L157.913 116.793H158.029L158.029 117.358Z" fill="#0085F9"/>
<path d="M158.931 117.234H158.815V117.358H158.679V117.234H158.283V117.164L158.679 116.791H158.815V117.159H158.931V117.234ZM158.679 117.159V117.017C158.679 116.967 158.681 116.925 158.685 116.893H158.68C158.669 116.91 158.651 116.931 158.628 116.955L158.412 117.159L158.679 117.159Z" fill="#0085F9"/>
<path d="M159.594 117.076C159.594 117.174 159.569 117.247 159.521 117.294C159.473 117.342 159.399 117.366 159.299 117.366C159.203 117.366 159.129 117.341 159.08 117.292C159.03 117.243 159.005 117.171 159.005 117.076C159.005 116.976 159.029 116.902 159.078 116.855C159.126 116.808 159.2 116.784 159.299 116.784C159.396 116.784 159.469 116.809 159.519 116.858C159.569 116.908 159.594 116.98 159.594 117.076ZM159.146 117.076C159.146 117.153 159.158 117.208 159.182 117.241C159.207 117.274 159.246 117.29 159.299 117.29C159.352 117.29 159.391 117.273 159.416 117.24C159.441 117.206 159.453 117.152 159.453 117.076C159.453 117 159.441 116.945 159.416 116.911C159.391 116.877 159.352 116.86 159.299 116.86C159.246 116.86 159.207 116.877 159.182 116.91C159.158 116.943 159.146 116.999 159.146 117.076Z" fill="#0085F9"/>
<path d="M158.029 114.135H157.89V113.771C157.89 113.727 157.891 113.692 157.894 113.667C157.885 113.673 157.874 113.68 157.861 113.687C157.848 113.695 157.803 113.719 157.728 113.759L157.658 113.701L157.913 113.57H158.029L158.029 114.135Z" fill="#0085F9"/>
<path d="M158.315 113.895C158.315 113.674 158.453 113.563 158.729 113.563C158.773 113.563 158.81 113.566 158.84 113.57V113.646C158.81 113.64 158.775 113.637 158.735 113.637C158.642 113.637 158.573 113.654 158.526 113.686C158.479 113.718 158.454 113.771 158.45 113.842H158.457C158.476 113.821 158.502 113.805 158.535 113.794C158.569 113.782 158.609 113.776 158.654 113.776C158.733 113.776 158.794 113.792 158.838 113.824C158.882 113.855 158.904 113.898 158.904 113.952C158.904 114.011 158.878 114.058 158.827 114.092C158.777 114.126 158.707 114.144 158.62 114.144C158.558 114.144 158.504 114.134 158.458 114.114C158.412 114.095 158.377 114.067 158.352 114.029C158.327 113.992 158.315 113.947 158.315 113.895ZM158.617 114.069C158.665 114.069 158.702 114.059 158.728 114.038C158.754 114.018 158.767 113.99 158.767 113.952C158.767 113.92 158.755 113.894 158.73 113.876C158.706 113.857 158.67 113.848 158.621 113.848C158.591 113.848 158.563 113.852 158.538 113.86C158.513 113.869 158.493 113.88 158.478 113.895C158.463 113.909 158.456 113.924 158.456 113.94C158.456 113.976 158.471 114.006 158.501 114.031C158.532 114.056 158.57 114.069 158.617 114.069Z" fill="#0085F9"/>
<path d="M159.594 113.853C159.594 113.951 159.569 114.024 159.521 114.072C159.473 114.119 159.399 114.143 159.299 114.143C159.203 114.143 159.129 114.119 159.08 114.069C159.03 114.02 159.005 113.948 159.005 113.853C159.005 113.753 159.029 113.68 159.078 113.632C159.126 113.585 159.2 113.562 159.299 113.562C159.396 113.562 159.469 113.586 159.519 113.636C159.569 113.685 159.594 113.758 159.594 113.853ZM159.146 113.853C159.146 113.93 159.158 113.985 159.182 114.018C159.207 114.051 159.246 114.067 159.299 114.067C159.352 114.067 159.391 114.051 159.416 114.017C159.441 113.984 159.453 113.929 159.453 113.853C159.453 113.777 159.441 113.722 159.416 113.688C159.391 113.655 159.352 113.638 159.299 113.638C159.246 113.638 159.207 113.654 159.182 113.687C159.158 113.721 159.146 113.776 159.146 113.853Z" fill="#0085F9"/>
<path d="M160.378 139.371H211.146" stroke="#407BFF" stroke-width="0.123833" stroke-miterlimit="10"/>
<path d="M160.378 139.371V110.89" stroke="#407BFF" stroke-width="0.123833" stroke-miterlimit="10"/>
</svg>
