<svg width="310" height="150" viewBox="0 0 310 150" fill="none" xmlns="http://www.w3.org/2000/svg">
<g opacity="0.3">
<path d="M264.943 82.5015H262.271C253.482 82.5015 246.358 75.1492 246.358 66.0797C246.358 58.5116 240.413 52.3765 233.079 52.3765H215.494C219.898 49.6704 222.883 44.4447 222.883 38.4412C222.883 29.6592 216.498 22.5401 208.623 22.5401H193.097C186.373 22.5401 179.947 19.6109 175.656 14.4339C168.349 5.61665 157.315 0 144.968 0C132.622 0 121.587 5.61651 114.28 14.4339C109.99 19.6111 103.564 22.5401 96.8401 22.5401H80.464C73.3883 22.5401 67.6524 28.9363 67.6524 36.8263C67.6524 46.2815 60.7786 53.9466 52.2992 53.9466H49.7208C41.0286 53.9466 33.9822 61.8041 33.9822 71.4967C33.9822 81.1893 41.0286 89.0468 49.7208 89.0468C58.2001 89.0468 65.0739 96.7118 65.0739 106.167V109.431C65.0739 113.873 66.8918 117.841 69.7432 120.461H43.1027C35.0854 120.461 28.5859 126.961 28.5859 134.978C28.5859 142.995 35.0852 149.495 43.1027 149.495H144.493C144.971 149.495 145.443 149.471 145.91 149.426H235.752C243.085 149.426 249.03 143.291 249.03 135.722V132.592C249.03 123.522 256.155 116.17 264.943 116.17C273.952 116.17 281.256 108.633 281.256 99.3358C281.256 90.0383 273.952 82.5015 264.943 82.5015Z" fill="#9BC1F9"/>
</g>
<path d="M259.113 92.1098V135.637L254.769 147.203C254.215 148.676 252.805 149.653 251.231 149.653H189.27V98.1306C189.27 96.2865 190.766 94.7923 192.61 94.7923H224.052L224.925 91.3604C225.268 90.0139 226.478 89.0732 227.868 89.0732H256.076C257.753 89.0732 259.113 90.4307 259.113 92.1098Z" fill="#C73F25"/>
<path d="M262.045 100.123V127.824L259.111 135.637L254.767 147.203C254.213 148.675 252.803 149.653 251.228 149.653H192.508V100.123C192.508 98.7993 193.581 97.7266 194.904 97.7266H259.649C260.972 97.7266 262.045 98.7993 262.045 100.123Z" fill="#D1D2D3"/>
<path d="M264.478 102.249V121.351L259.113 135.637L254.769 147.203C254.215 148.675 252.805 149.653 251.231 149.653H197.469V102.249C197.469 100.925 198.541 99.8525 199.865 99.8525H262.081C263.405 99.8527 264.478 100.925 264.478 102.249Z" fill="#DEECF5"/>
<path d="M270.32 105.793L264.478 121.352L262.047 127.824L259.113 135.637L254.769 147.203C254.215 148.676 252.805 149.653 251.231 149.653H189.27L192.51 141.024L197.469 127.82L206.387 104.071C206.745 103.116 207.66 102.483 208.679 102.483H268.029C269.738 102.483 270.92 104.193 270.32 105.793Z" fill="#FBBA28"/>
<path d="M44.2328 128.914C44.5467 127.486 44.6182 126.039 44.4631 124.627L47.5148 122.874L46.7143 120.605L45.9138 118.335L42.4379 118.885C41.6725 117.688 40.709 116.607 39.5686 115.691L40.4874 112.294L38.3167 111.255L36.146 110.216L34.0769 113.064C32.6488 112.75 31.202 112.678 29.7896 112.834L28.037 109.782L25.7677 110.582L23.4985 111.383L24.0486 114.859C22.8515 115.625 21.7699 116.588 20.8547 117.729L17.4571 116.81L16.4186 118.981L15.3801 121.152L18.2273 123.221C17.9134 124.649 17.8419 126.096 17.997 127.509L14.9453 129.261L15.7458 131.531L16.5463 133.8L20.0222 133.25C20.7876 134.447 21.7509 135.529 22.8915 136.444L21.9728 139.842L24.1434 140.88L26.3141 141.919L28.3832 139.071C29.8113 139.385 31.2581 139.457 32.6703 139.302L34.423 142.354L36.6922 141.553L38.9615 140.752L38.4114 137.276C39.6085 136.511 40.6901 135.547 41.6051 134.406L45.0027 135.325L46.0412 133.154L47.0797 130.984L44.2328 128.914ZM31.5829 135.089C26.601 135.284 22.4045 131.403 22.2096 126.421C22.0148 121.438 25.8955 117.241 30.8775 117.046C35.8594 116.851 40.0559 120.732 40.2508 125.715C40.4456 130.697 36.5648 134.894 31.5829 135.089Z" fill="#92BFF8"/>
<path d="M296.475 118.526C295.647 117.295 294.637 116.23 293.492 115.355L294.344 111.889L292.119 110.888L289.895 109.886L287.864 112.82C286.451 112.543 284.983 112.492 283.513 112.688L281.665 109.635L279.383 110.499L277.102 111.364L277.741 114.875C276.511 115.703 275.446 116.714 274.571 117.858L271.106 117.006L270.104 119.231L269.102 121.456L272.036 123.486C271.759 124.9 271.708 126.368 271.904 127.838L268.852 129.686L269.716 131.968L270.581 134.249L274.092 133.61C274.919 134.841 275.93 135.906 277.075 136.781L276.223 140.246L278.448 141.248L280.672 142.25L282.702 139.316C284.116 139.593 285.584 139.644 287.054 139.448L288.902 142.501L291.183 141.637L293.465 140.772L292.825 137.261C294.056 136.433 295.121 135.422 295.996 134.278L299.461 135.13L300.463 132.905L301.465 130.68L298.53 128.65C298.807 127.236 298.858 125.768 298.662 124.298L301.715 122.45L300.85 120.168L299.986 117.887L296.475 118.526ZM288.527 134.628C283.8 136.419 278.516 134.039 276.724 129.312C274.933 124.584 277.312 119.3 282.039 117.508C286.766 115.717 292.051 118.097 293.842 122.824C295.634 127.552 293.254 132.836 288.527 134.628Z" fill="#92BFF8"/>
<path d="M144.295 35.2728L147.347 33.4239L146.484 31.142L145.62 28.8621L142.108 29.5014C141.281 28.2694 140.269 27.2053 139.126 26.3293L139.978 22.864L137.752 21.8626L135.527 20.8592L133.498 23.7945C132.084 23.5174 130.615 23.4668 129.147 23.663L127.298 20.6084L125.016 21.4743L122.736 22.338L123.375 25.8499C122.143 26.6773 121.079 27.6887 120.203 28.8316L116.738 27.98L114.735 32.4306L117.668 34.4615C117.393 35.8755 117.341 37.3423 117.537 38.8129L114.484 40.6599L115.35 42.9419L116.214 45.2238L119.724 44.5845C120.553 45.8144 121.562 46.8806 122.707 47.7566L121.856 51.2219L124.081 52.2233L126.304 53.2246L128.335 50.2913C129.749 50.5685 131.216 50.6191 132.687 50.4229L134.536 53.4754L136.816 52.6117L139.097 51.7458L138.458 48.236C139.688 47.4087 140.754 46.3972 141.628 45.2522L145.094 46.1038L146.095 43.8786L147.098 41.6553L144.163 39.6242C144.441 38.2102 144.491 36.7416 144.295 35.2728ZM134.16 45.6021C129.434 47.3945 124.148 45.0133 122.358 40.2858C120.566 35.5582 122.947 30.2742 127.672 28.4838C132.4 26.6914 137.684 29.0705 139.476 33.7981C141.267 38.5258 138.888 43.8117 134.16 45.6021Z" fill="white"/>
<g opacity="0.35">
<path d="M93.4418 148.176L104.483 141.101C109.763 137.317 112.914 131.102 112.914 124.465V92.112C112.914 90.89 112.22 89.7666 111.103 89.0948C110.845 88.9397 110.565 88.8088 110.266 88.7061C109.908 88.5836 109.554 88.4631 109.203 88.3443C109.071 88.2996 108.941 88.2563 108.81 88.212C108.597 88.1404 108.383 88.0683 108.172 87.9981C107.955 87.9255 107.741 87.8549 107.527 87.7839C107.405 87.7437 107.282 87.7027 107.161 87.6629C106.893 87.5746 106.628 87.4886 106.364 87.4028C106.301 87.3824 106.237 87.3611 106.174 87.3409C105.864 87.2405 105.558 87.1422 105.253 87.0449C105.238 87.0402 105.223 87.0356 105.209 87.0309C85.6338 80.7977 76.1909 81.1856 56.2024 88.6647C54.6688 89.2384 53.6797 90.5646 53.6797 92.0262V124.465C53.6797 131.102 56.8304 137.317 62.1111 141.101L73.1521 148.176H93.4418Z" fill="#92BFF8"/>
</g>
<path d="M109.06 84.6671C108.802 84.5121 108.522 84.381 108.223 84.2783C107.865 84.1558 107.511 84.0354 107.16 83.9167C107.028 83.8719 106.898 83.8287 106.767 83.7846C106.554 83.7129 106.34 83.6408 106.13 83.5704C105.916 83.4992 105.706 83.43 105.495 83.3603C105.37 83.3186 105.242 83.2761 105.117 83.235C104.84 83.1438 104.566 83.0547 104.293 82.966C104.241 82.9489 104.187 82.9312 104.134 82.9141C103.822 82.8129 103.512 82.7136 103.205 82.6156C103.192 82.6115 103.179 82.6072 103.167 82.6033C83.591 76.37 74.1482 76.7578 54.1594 84.2369C52.626 84.8107 51.6367 86.1368 51.6367 87.5986V120.037C51.6367 126.674 54.7875 132.89 60.0681 136.673L79.1238 148.885C79.7575 149.292 80.5055 149.495 81.2538 149.494C81.6726 149.494 82.0889 149.428 82.4869 149.301C82.8011 149.201 83.1038 149.064 83.384 148.885L102.44 136.673C107.72 132.89 110.871 126.674 110.871 120.037V87.6848V87.6843C110.871 86.4624 110.177 85.3391 109.06 84.6671Z" fill="#1D3B77"/>
<path d="M107.368 87.477C107.305 87.439 107.234 87.4064 107.159 87.3807C106.806 87.2596 106.456 87.1404 106.109 87.0235L105.09 86.681L104.465 86.4738C104.465 86.4738 103.548 86.1721 103.283 86.0862L102.17 85.728C92.8044 82.7458 86.5069 81.5293 80.434 81.5293C73.4665 81.5293 66.4215 83.1495 55.3069 87.3083C55.0176 87.4166 54.9216 87.5743 54.9141 87.5989V120.038C54.9141 125.59 57.5278 130.788 61.9103 133.961L80.8929 146.125C80.981 146.182 81.1145 146.216 81.2502 146.216H81.2524C81.3309 146.216 81.4101 146.203 81.4888 146.178C81.5606 146.155 81.6006 146.133 81.6133 146.125L100.594 133.961C104.977 130.788 107.591 125.589 107.591 120.038L107.592 87.6967C107.586 87.6752 107.531 87.5749 107.368 87.477ZM105.678 120.037C105.678 124.955 103.375 129.565 99.5152 132.38L81.2527 144.084L62.9895 132.38C59.1297 129.564 56.8268 124.955 56.8268 120.037V88.7837C67.2182 84.946 73.8921 83.4419 80.434 83.4419C86.2956 83.4419 92.425 84.6323 101.59 87.5504L102.697 87.907C102.955 87.9907 103.867 88.2906 103.867 88.2906L104.489 88.4966C104.489 88.4966 105.619 88.8769 105.679 88.8971L105.678 120.037Z" fill="#92BFF8"/>
<path d="M92.6008 105.684H90.1353C90.2074 105.281 90.2434 104.87 90.2434 104.449V103.606C90.2434 99.719 87.081 96.5566 83.1942 96.5566H78.8605C74.9738 96.5566 71.8114 99.719 71.8114 103.606V104.449C71.8114 104.87 71.8473 105.281 71.9194 105.684H69.1806C67.7466 105.684 66.5859 106.847 66.5859 108.278V119.593C66.5859 125.996 71.7774 131.188 78.1826 131.188H85.0284C91.044 131.188 95.9219 126.312 95.9219 120.294V109.007C95.9221 107.173 94.4351 105.684 92.6008 105.684ZM82.0822 117.071V122.326C82.0822 122.783 81.7095 123.156 81.254 123.156C81.0274 123.156 80.8198 123.063 80.6695 122.913C80.519 122.762 80.4258 122.555 80.4258 122.326V117.071C78.7122 116.694 77.4287 115.167 77.4287 113.339C77.4287 112.646 77.613 111.996 77.9349 111.437C78.5937 110.287 79.8349 109.513 81.254 109.513C82.6456 109.513 83.8657 110.257 84.535 111.369C84.8802 111.943 85.0793 112.619 85.0793 113.339C85.0793 115.167 83.7958 116.694 82.0822 117.071ZM74.8149 105.684C74.6941 105.294 74.6306 104.879 74.6306 104.449V103.606C74.6306 101.274 76.5285 99.3759 78.8605 99.3759H83.1942C85.5285 99.3759 87.4263 101.274 87.4263 103.606V104.449C87.4263 104.879 87.3628 105.294 87.2421 105.684H74.8149Z" fill="#92BFF8"/>
<g opacity="0.35">
<path d="M194.576 46.2875C200.526 40.3378 200.526 30.6915 194.576 24.7418C188.627 18.7921 178.98 18.7921 173.031 24.7418C167.081 30.6915 167.081 40.3378 173.031 46.2875C178.98 52.2372 188.627 52.2372 194.576 46.2875Z" fill="#132959"/>
</g>
<path d="M182.54 48.7796C190.954 48.7796 197.775 41.9585 197.775 33.5443C197.775 25.1301 190.954 18.3091 182.54 18.3091C174.126 18.3091 167.305 25.1301 167.305 33.5443C167.305 41.9585 174.126 48.7796 182.54 48.7796Z" fill="#92BFF8"/>
<path d="M186.696 32.3731H186.627V29.6644C186.627 28.5072 186.157 27.459 185.399 26.7007C184.64 25.9424 183.593 25.4731 182.435 25.4731C180.12 25.4731 178.244 27.3494 178.244 29.6646V32.3793C177.447 32.4442 176.82 33.1117 176.82 33.9253V40.0629C176.82 40.92 177.515 41.6148 178.372 41.6148H186.696C187.553 41.6148 188.248 40.9199 188.248 40.0629V33.9253C188.248 33.068 187.553 32.3731 186.696 32.3731ZM182.861 37.9146V38.9775C182.861 39.2127 182.67 39.4028 182.435 39.4028C182.201 39.4028 182.01 39.2127 182.01 38.9775V37.9152C181.301 37.7273 180.777 37.0808 180.777 36.3123C180.777 35.3967 181.519 34.6545 182.435 34.6545C183.351 34.6545 184.093 35.3966 184.093 36.3123C184.094 37.0808 183.57 37.7273 182.861 37.9146ZM185.767 32.3731H179.103V29.6644C179.103 27.8273 180.598 26.3322 182.435 26.3322C184.272 26.3322 185.768 27.8273 185.768 29.6644L185.767 32.3731ZM182.435 35.5137C181.995 35.5137 181.637 35.8718 181.637 36.3123C181.637 36.7526 181.995 37.1108 182.435 37.1108C182.876 37.1108 183.234 36.7526 183.234 36.3123C183.234 35.8718 182.876 35.5137 182.435 35.5137Z" fill="#1D3B77"/>
<g opacity="0.35">
<path d="M101.659 36.3828H64.9317C63.3018 36.3828 61.9805 37.704 61.9805 39.334V58.3976C61.9805 60.0274 63.3017 61.3487 64.9315 61.3487H91.9075C91.9176 61.3487 91.9266 61.3565 91.9276 61.3666C92.4539 65.9109 96.3137 69.4361 100.998 69.4361C101.333 69.4361 101.663 69.4184 101.99 69.3837C101.293 68.8886 100.432 68.086 99.8668 66.8585C99.6851 66.4638 99.2659 65.4494 99.2982 64.1035C99.3124 63.5282 99.4057 62.9973 99.546 62.5162C99.7483 61.8226 100.388 61.3485 101.11 61.3485H101.66C103.29 61.3485 104.611 60.0273 104.611 58.3973V39.335C104.611 37.7046 103.289 36.3828 101.659 36.3828Z" fill="#132959"/>
</g>
<path d="M100.194 34.5293H63.4668C61.837 34.5293 60.5156 35.8507 60.5156 37.4805V56.5441C60.5156 58.1739 61.8368 59.4951 63.4667 59.4951H90.4427C90.4527 59.4951 90.4616 59.503 90.4628 59.5131C90.989 64.0574 94.8488 67.5826 99.5336 67.5826C99.868 67.5826 100.198 67.5649 100.525 67.5302C99.8279 67.0351 98.9673 66.2324 98.402 65.005C98.2202 64.6103 97.801 63.5958 97.8334 62.25C97.8475 61.6747 97.9407 61.1438 98.0811 60.6628C98.2834 59.9692 98.9229 59.4951 99.6453 59.4951H100.195C101.825 59.4951 103.146 58.1739 103.146 56.5439V37.4815C103.146 35.8511 101.824 34.5293 100.194 34.5293Z" fill="#92BFF8"/>
<path d="M64.6052 40.7041L99.0625 40.7041V39.2237L64.6052 39.2237V40.7041Z" fill="#132959"/>
<path d="M64.6052 44.2778L99.0625 44.2778V42.7974L64.6052 42.7974V44.2778Z" fill="#132959"/>
<path d="M73.1326 47.8511H99.0586V46.3707H73.1326V47.8511Z" fill="#132959"/>
<path d="M76.914 51.4243H99.0625V49.9439H76.914V51.4243Z" fill="#132959"/>
<g opacity="0.35">
<path d="M232.486 46.7563H268.413C270.007 46.7563 271.3 48.0489 271.3 49.6432V68.2918C271.3 69.8861 270.007 71.1786 268.413 71.1786H242.024C242.014 71.1786 242.006 71.1863 242.005 71.1961C241.49 75.6416 237.714 79.09 233.131 79.09C232.804 79.09 232.481 79.0725 232.162 79.0387C232.843 78.5545 233.685 77.7692 234.238 76.5685C234.416 76.1824 234.826 75.1899 234.795 73.8735C234.781 73.3107 234.69 72.7913 234.552 72.3208C234.354 71.6424 233.729 71.1786 233.022 71.1786H232.484C230.89 71.1786 229.598 69.8861 229.598 68.2918V49.6442C229.598 48.0493 230.891 46.7563 232.486 46.7563Z" fill="#132959"/>
</g>
<path d="M234.04 44.7178H269.968C271.562 44.7178 272.855 46.0103 272.855 47.6048V66.2534C272.855 67.8477 271.562 69.1402 269.968 69.1402H243.579C243.569 69.1402 243.56 69.1479 243.559 69.1577C243.045 73.6031 239.269 77.0516 234.686 77.0516C234.359 77.0516 234.036 77.0341 233.716 77.0003C234.398 76.516 235.24 75.7308 235.793 74.5301C235.971 74.1439 236.381 73.1515 236.349 71.8351C236.335 71.2723 236.244 70.7528 236.107 70.2824C235.909 69.6039 235.283 69.1402 234.577 69.1402H234.039C232.445 69.1402 231.152 67.8477 231.152 66.2534V47.6058C231.152 46.0107 232.445 44.7178 234.04 44.7178Z" fill="#1D3B77"/>
<path d="M259.931 51.9829C257.554 51.9829 255.569 53.6594 255.093 55.8946H239.129V57.9644H240.477V60.3238H242.535V58.8627H243.486V60.3238H245.545V57.9644H255.093C255.569 60.1996 257.554 61.8762 259.931 61.8762C262.663 61.8762 264.878 59.6616 264.878 56.9296C264.878 54.1976 262.663 51.9829 259.931 51.9829ZM259.931 60.2679C258.09 60.2679 256.593 58.7703 256.593 56.9294C256.593 55.0887 258.09 53.5911 259.931 53.5911C261.772 53.5911 263.27 55.0887 263.27 56.9294C263.269 58.7703 261.772 60.2679 259.931 60.2679Z" fill="#92BFF8"/>
<path d="M219.998 139.984C219.998 143.151 217.431 145.717 214.265 145.717H110.704C107.539 145.717 104.973 143.151 104.973 139.984V67.8332C104.973 64.6687 107.539 62.1021 110.704 62.1021H214.265C217.431 62.1021 219.998 64.6687 219.998 67.8332V139.984Z" fill="#9BC5ED"/>
<path d="M214.963 66.9321H110.008V140.888H214.963V66.9321Z" fill="#629CDC"/>
<path d="M213.574 68.4756H111.398V139.342H213.574V68.4756Z" fill="#29478F"/>
<path d="M92.9688 141.939V142.209C92.9688 146.234 96.2303 149.495 100.255 149.495H224.707C228.731 149.495 231.993 146.234 231.993 142.209V141.939H92.9688Z" fill="#5F8ACE"/>
<path d="M231.635 144.462C231.865 143.754 231.993 142.996 231.993 142.209V141.939H92.9688V142.209C92.9688 142.996 93.0977 143.754 93.3282 144.462H231.635Z" fill="#29478F"/>
<path d="M212.382 124.594C212.382 115.398 204.928 107.941 195.729 107.941C188.288 107.941 181.989 112.827 179.857 119.563C179.621 120.31 179.435 121.079 179.306 121.867H173.123L168.661 121.866L152.656 121.867L152.547 121.866H148.337L132.293 121.867L132.152 121.867V121.873C131.726 121.928 130.922 123.124 130.922 124.594C130.922 126.064 131.726 127.26 132.152 127.315V127.321L133.469 127.321L133.47 127.321L133.723 127.321C133.725 127.321 133.727 127.321 133.728 127.321H148.041C148.042 127.321 148.042 127.321 148.043 127.321C148.045 127.322 148.046 127.322 148.048 127.322H148.296L151.493 127.321L156.721 127.321L166.464 127.322L167.143 127.321L175.859 127.322H179.305C180.607 135.219 187.463 141.247 195.728 141.247C195.791 141.247 195.853 141.247 195.916 141.246C195.962 141.246 196.008 141.245 196.054 141.244C196.109 141.243 196.163 141.242 196.217 141.24C196.262 141.239 196.308 141.238 196.353 141.236C196.463 141.232 196.573 141.227 196.682 141.221C196.739 141.217 196.796 141.214 196.853 141.21C196.91 141.206 196.967 141.202 197.023 141.198C197.071 141.194 197.119 141.19 197.167 141.186C197.229 141.181 197.291 141.175 197.352 141.169C197.353 141.169 197.354 141.169 197.354 141.169C197.415 141.163 197.477 141.157 197.538 141.15C197.579 141.146 197.62 141.141 197.661 141.136C197.714 141.13 197.766 141.124 197.819 141.117C197.872 141.111 197.924 141.104 197.977 141.097C198.035 141.089 198.093 141.081 198.151 141.072C198.198 141.065 198.245 141.058 198.291 141.051C198.343 141.043 198.396 141.035 198.448 141.027C198.502 141.018 198.557 141.009 198.612 140.998C198.658 140.99 198.704 140.982 198.75 140.974C198.754 140.973 198.759 140.973 198.763 140.972C198.813 140.962 198.862 140.953 198.911 140.944C198.963 140.934 199.016 140.923 199.068 140.912C199.12 140.902 199.171 140.891 199.222 140.88C199.273 140.869 199.324 140.858 199.375 140.847C199.58 140.801 199.783 140.752 199.984 140.699C200.286 140.619 200.584 140.531 200.879 140.436C200.977 140.403 201.075 140.371 201.173 140.337C201.221 140.32 201.27 140.303 201.319 140.286C201.367 140.269 201.415 140.251 201.464 140.233C201.512 140.215 201.56 140.198 201.609 140.18C201.729 140.134 201.848 140.088 201.967 140.039C202.027 140.015 202.086 139.991 202.145 139.966C202.204 139.941 202.263 139.916 202.322 139.891C202.369 139.871 202.416 139.85 202.463 139.83C202.509 139.809 202.556 139.788 202.603 139.767C202.673 139.735 202.743 139.703 202.812 139.67C202.847 139.654 202.881 139.638 202.916 139.621C202.951 139.605 202.985 139.588 203.019 139.571C203.065 139.549 203.11 139.526 203.156 139.503C203.202 139.48 203.247 139.457 203.293 139.434C203.384 139.388 203.474 139.341 203.564 139.293C203.565 139.292 203.566 139.292 203.567 139.291C203.611 139.267 203.656 139.244 203.7 139.219C203.744 139.195 203.788 139.171 203.832 139.146C203.876 139.121 203.92 139.096 203.964 139.071C204.053 139.021 204.141 138.97 204.228 138.918C204.267 138.895 204.306 138.871 204.345 138.848C204.381 138.826 204.418 138.804 204.454 138.781C204.472 138.77 204.49 138.759 204.508 138.748C204.544 138.725 204.581 138.702 204.617 138.679C204.66 138.652 204.703 138.625 204.745 138.597C204.781 138.574 204.817 138.551 204.853 138.527C205.006 138.427 205.157 138.325 205.305 138.219C205.344 138.192 205.382 138.165 205.421 138.137C205.693 137.942 205.959 137.739 206.219 137.528C206.285 137.475 206.35 137.421 206.415 137.366C206.447 137.339 206.479 137.311 206.512 137.284C206.531 137.268 206.55 137.251 206.569 137.235C206.592 137.215 206.614 137.196 206.636 137.177C206.693 137.128 206.748 137.079 206.804 137.029C206.834 137.003 206.864 136.976 206.894 136.948C207.146 136.72 207.392 136.484 207.63 136.24C207.658 136.211 207.687 136.182 207.715 136.153C207.774 136.092 207.832 136.03 207.89 135.968C210.677 132.992 212.382 128.992 212.382 124.594ZM185.602 124.594C185.602 122.759 186.09 121.037 186.943 119.553C188.69 116.512 191.97 114.464 195.729 114.464C201.325 114.464 205.859 118.999 205.859 124.594C205.859 130.19 201.324 134.725 195.729 134.725C190.136 134.725 185.602 130.19 185.602 124.594Z" fill="#FFCE00"/>
<g opacity="0.3502">
<path d="M195.729 141.248C187.464 141.248 180.607 135.219 179.305 127.322H132.152V127.315C131.726 127.26 130.922 126.064 130.922 124.594C130.922 123.124 131.726 121.929 132.152 121.874V121.867H132.292C132.207 122.193 132.155 122.55 132.155 122.928C132.155 124.398 132.959 125.594 133.388 125.649V125.656L179.099 126.093C180.401 133.991 188.697 139.582 196.965 139.582C202.07 139.582 206.639 137.284 209.692 133.666C206.724 138.232 201.582 141.248 195.729 141.248Z" fill="#E2940A"/>
</g>
<path d="M145.512 137.834H142.169C142.018 137.834 141.895 137.957 141.895 138.109V140.973C141.895 141.124 141.772 141.247 141.62 141.247H140.136C139.984 141.247 139.861 141.124 139.861 140.973V138.109C139.861 137.957 139.738 137.834 139.586 137.834H136.244C136.092 137.834 135.969 137.957 135.969 138.109V140.973C135.969 141.124 135.846 141.247 135.694 141.247H133.74C133.588 141.247 133.465 141.124 133.465 140.973V127.596C133.465 127.444 133.588 127.321 133.74 127.321H148.016C148.168 127.321 148.291 127.444 148.291 127.596V140.973C148.291 141.124 148.168 141.247 148.016 141.247H146.061C145.91 141.247 145.787 141.124 145.787 140.973V138.109C145.787 137.957 145.664 137.834 145.512 137.834Z" fill="#FFCE00"/>
<g opacity="0.52">
<path d="M148.297 129.582V127.321H133.471V129.582H148.297Z" fill="#E2940A"/>
</g>
<path d="M193.014 112.897C196.562 112.371 200.632 112.962 203.468 115.133C206.011 117.08 207.446 120.273 207.676 123.377C207.796 124.984 209.402 125.573 210.057 124.101C210.124 123.952 210.177 123.798 210.216 123.639C210.503 122.473 210.147 120.536 209.687 119.427C208.139 115.685 205.269 112.479 201.505 110.894C198.168 109.489 194.277 109.356 190.851 110.527C189.399 111.023 187.973 111.693 186.777 112.667C185.694 113.55 184.33 115.095 184.44 116.604C184.476 117.1 184.771 117.605 185.245 117.752C185.392 117.797 185.552 117.806 185.697 117.759C185.932 117.684 186.099 117.477 186.217 117.261C187.581 114.774 190.25 113.306 193.014 112.897Z" fill="#FFE05F"/>
<g opacity="0.35">
<path d="M181.472 55.3672H136.353C135.131 55.3672 134.141 56.3573 134.141 57.5794V60.7951V109.572C134.141 110.793 135.131 111.784 136.353 111.784H181.472C182.693 111.784 183.684 110.794 183.684 109.572V60.7951V57.5794C183.684 56.3575 182.693 55.3672 181.472 55.3672Z" fill="#132959"/>
</g>
<path d="M181.148 55.5818V58.7975H131.605V55.5818C131.605 54.3599 132.596 53.3696 133.817 53.3696H178.936C180.158 53.3696 181.148 54.3598 181.148 55.5818Z" fill="#132959"/>
<path d="M181.148 58.7979V107.574C181.148 108.796 180.158 109.787 178.936 109.787H133.817C132.596 109.787 131.605 108.796 131.605 107.574V58.7979H181.148Z" fill="#92BFF8"/>
<path d="M135.008 56.9316C135.477 56.9316 135.856 56.5519 135.856 56.0835C135.856 55.6151 135.477 55.2354 135.008 55.2354C134.54 55.2354 134.16 55.6151 134.16 56.0835C134.16 56.5519 134.54 56.9316 135.008 56.9316Z" fill="white"/>
<path d="M138.364 56.9316C138.832 56.9316 139.212 56.5519 139.212 56.0835C139.212 55.6151 138.832 55.2354 138.364 55.2354C137.895 55.2354 137.516 55.6151 137.516 56.0835C137.516 56.5519 137.895 56.9316 138.364 56.9316Z" fill="white"/>
<path d="M141.715 56.9316C142.184 56.9316 142.563 56.5519 142.563 56.0835C142.563 55.6151 142.184 55.2354 141.715 55.2354C141.247 55.2354 140.867 55.6151 140.867 56.0835C140.867 56.5519 141.247 56.9316 141.715 56.9316Z" fill="white"/>
<path d="M157.875 75.6293C161.459 74.8004 163.693 71.2226 162.864 67.6381C162.035 64.0535 158.458 61.8197 154.873 62.6486C151.289 63.4775 149.055 67.0552 149.884 70.6398C150.713 74.2243 154.29 76.4582 157.875 75.6293Z" fill="#1D3B77"/>
<path d="M158.413 66.6117C158.413 67.7397 157.498 68.9575 156.37 68.9575C155.243 68.9575 154.328 67.7398 154.328 66.6117C154.328 65.4838 155.243 64.6836 156.37 64.6836C157.499 64.6834 158.413 65.4837 158.413 66.6117Z" fill="#D8E6FF"/>
<path d="M153.839 73.3009H158.825C159.35 73.3009 159.815 72.9617 159.975 72.4618L160.243 71.6233C160.439 71.0094 160.12 70.3446 159.515 70.1232C157.486 69.3814 155.388 69.4765 153.238 70.1917C152.636 70.392 152.302 71.036 152.468 71.6485L152.675 72.4101C152.817 72.9359 153.295 73.3009 153.839 73.3009Z" fill="#D8E6FF"/>
<path d="M171.391 87.6339H139.49C137.645 87.6339 136.148 86.1378 136.148 84.292C136.148 82.4463 137.645 80.9502 139.49 80.9502H171.391C173.237 80.9502 174.733 82.4463 174.733 84.292C174.733 86.1378 173.237 87.6339 171.391 87.6339Z" fill="#1D3B77"/>
<path d="M141.147 83.4335L140.567 84.1972V84.2094L141.489 84.0872V84.5026L140.567 84.3867V84.4049L141.153 85.1381L140.768 85.358L140.396 84.5026H140.383L139.992 85.3642L139.644 85.1441L140.224 84.3989V84.3806L139.32 84.5028V84.0874L140.219 84.2036V84.1914L139.644 83.4397L140.017 83.226L140.396 84.0811H140.408L140.78 83.2197L141.147 83.4335Z" fill="#D8E6FF"/>
<path d="M144.905 83.4335L144.324 84.1972V84.2094L145.247 84.0872V84.5026L144.324 84.3867V84.4049L144.911 85.1381L144.526 85.358L144.153 84.5026H144.141L143.75 85.3642L143.402 85.1441L143.982 84.3989V84.3806L143.078 84.5028V84.0874L143.976 84.2036V84.1914L143.402 83.4397L143.774 83.226L144.153 84.0811H144.166L144.538 83.2197L144.905 83.4335Z" fill="#D8E6FF"/>
<path d="M148.666 83.4335L148.086 84.1972V84.2094L149.009 84.0872V84.5026L148.086 84.3867V84.4049L148.673 85.1381L148.288 85.358L147.915 84.5026H147.903L147.512 85.3642L147.164 85.1441L147.744 84.3989V84.3806L146.84 84.5028V84.0874L147.738 84.2036V84.1914L147.164 83.4397L147.536 83.226L147.915 84.0811H147.927L148.3 83.2197L148.666 83.4335Z" fill="#D8E6FF"/>
<path d="M152.428 83.4335L151.848 84.1972V84.2094L152.771 84.0872V84.5026L151.848 84.3867V84.4049L152.435 85.1381L152.049 85.358L151.677 84.5026H151.665L151.274 85.3642L150.925 85.1441L151.506 84.3989V84.3806L150.602 84.5028V84.0874L151.5 84.2036V84.1914L150.925 83.4397L151.298 83.226L151.677 84.0811H151.689L152.062 83.2197L152.428 83.4335Z" fill="#D8E6FF"/>
<path d="M156.186 83.4335L155.606 84.1972V84.2094L156.528 84.0872V84.5026L155.606 84.3867V84.4049L156.192 85.1381L155.807 85.358L155.435 84.5026H155.422L155.031 85.3642L154.683 85.1441L155.263 84.3989V84.3806L154.359 84.5028V84.0874L155.257 84.2036V84.1914L154.683 83.4397L155.056 83.226L155.435 84.0811H155.447L155.819 83.2197L156.186 83.4335Z" fill="#D8E6FF"/>
<path d="M159.944 83.4335L159.364 84.1972V84.2094L160.286 84.0872V84.5026L159.364 84.3867V84.4049L159.95 85.1381L159.565 85.358L159.193 84.5026H159.18L158.789 85.3642L158.441 85.1441L159.021 84.3989V84.3806L158.117 84.5028V84.0874L159.015 84.2036V84.1914L158.441 83.4397L158.814 83.226L159.193 84.0811H159.205L159.577 83.2197L159.944 83.4335Z" fill="#D8E6FF"/>
<path d="M163.702 83.4335L163.121 84.1972V84.2094L164.044 84.0872V84.5026L163.121 84.3867V84.4049L163.708 85.1381L163.323 85.358L162.95 84.5026H162.938L162.547 85.3642L162.199 85.1441L162.779 84.3989V84.3806L161.875 84.5028V84.0874L162.773 84.2036V84.1914L162.199 83.4397L162.571 83.226L162.95 84.0811H162.962L163.335 83.2197L163.702 83.4335Z" fill="#D8E6FF"/>
<path d="M167.463 83.4335L166.883 84.1972V84.2094L167.806 84.0872V84.5026L166.883 84.3867V84.4049L167.47 85.1381L167.085 85.358L166.712 84.5026H166.7L166.309 85.3642L165.961 85.1441L166.541 84.3989V84.3806L165.637 84.5028V84.0874L166.535 84.2036V84.1914L165.961 83.4397L166.333 83.226L166.712 84.0811H166.724L167.097 83.2197L167.463 83.4335Z" fill="#D8E6FF"/>
<path d="M171.221 83.4335L170.641 84.1972V84.2094L171.563 84.0872V84.5026L170.641 84.3867V84.4049L171.227 85.1381L170.842 85.358L170.47 84.5026H170.458L170.067 85.3642L169.718 85.1441L170.299 84.3989V84.3806L169.395 84.5028V84.0874L170.293 84.2036V84.1914L169.718 83.4397L170.091 83.226L170.47 84.0811H170.482L170.855 83.2197L171.221 83.4335Z" fill="#D8E6FF"/>
<path d="M171.391 100.483H139.49C137.645 100.483 136.148 98.9869 136.148 97.1412C136.148 95.2955 137.645 93.7993 139.49 93.7993H171.391C173.237 93.7993 174.733 95.2955 174.733 97.1412C174.733 98.9867 173.237 100.483 171.391 100.483Z" fill="#1D3B77"/>
<path d="M141.147 96.2833L140.567 97.0469V97.0592L141.489 96.937V97.3524L140.567 97.2364V97.2546L141.153 97.9879L140.768 98.2078L140.396 97.3524H140.383L139.992 98.2139L139.644 97.9938L140.224 97.2487V97.2303L139.32 97.3525V96.9371L140.219 97.0532V97.041L139.644 96.2893L140.017 96.0756L140.396 96.9307H140.408L140.78 96.0693L141.147 96.2833Z" fill="#D8E6FF"/>
<path d="M144.905 96.2833L144.324 97.0469V97.0592L145.247 96.937V97.3524L144.324 97.2364V97.2546L144.911 97.9879L144.526 98.2078L144.153 97.3524H144.141L143.75 98.2139L143.402 97.9938L143.982 97.2487V97.2303L143.078 97.3525V96.9371L143.976 97.0532V97.041L143.402 96.2893L143.774 96.0756L144.153 96.9307H144.166L144.538 96.0693L144.905 96.2833Z" fill="#D8E6FF"/>
<path d="M148.666 96.2833L148.086 97.0469V97.0592L149.009 96.937V97.3524L148.086 97.2364V97.2546L148.673 97.9879L148.288 98.2078L147.915 97.3524H147.903L147.512 98.2139L147.164 97.9938L147.744 97.2487V97.2303L146.84 97.3525V96.9371L147.738 97.0532V97.041L147.164 96.2893L147.536 96.0756L147.915 96.9307H147.927L148.3 96.0693L148.666 96.2833Z" fill="#D8E6FF"/>
<path d="M152.428 96.2833L151.848 97.0469V97.0592L152.771 96.937V97.3524L151.848 97.2364V97.2546L152.435 97.9879L152.049 98.2078L151.677 97.3524H151.665L151.274 98.2139L150.925 97.9938L151.506 97.2487V97.2303L150.602 97.3525V96.9371L151.5 97.0532V97.041L150.925 96.2893L151.298 96.0756L151.677 96.9307H151.689L152.062 96.0693L152.428 96.2833Z" fill="#D8E6FF"/>
<path d="M156.186 96.2833L155.606 97.0469V97.0592L156.528 96.937V97.3524L155.606 97.2364V97.2546L156.192 97.9879L155.807 98.2078L155.435 97.3524H155.422L155.031 98.2139L154.683 97.9938L155.263 97.2487V97.2303L154.359 97.3525V96.9371L155.257 97.0532V97.041L154.683 96.2893L155.056 96.0756L155.435 96.9307H155.447L155.819 96.0693L156.186 96.2833Z" fill="#D8E6FF"/>
<path d="M159.944 96.2833L159.364 97.0469V97.0592L160.286 96.937V97.3524L159.364 97.2364V97.2546L159.95 97.9879L159.565 98.2078L159.193 97.3524H159.18L158.789 98.2139L158.441 97.9938L159.021 97.2487V97.2303L158.117 97.3525V96.9371L159.015 97.0532V97.041L158.441 96.2893L158.814 96.0756L159.193 96.9307H159.205L159.577 96.0693L159.944 96.2833Z" fill="#D8E6FF"/>
<path d="M163.702 96.2834L163.121 97.0471V97.0593L164.044 96.9371V97.3525L163.121 97.2366V97.2548L163.708 97.988L163.323 98.2079L162.95 97.3525H162.938L162.547 98.2141L162.199 97.9938L162.779 97.2487V97.2303L161.875 97.3525V96.9371L162.773 97.0532V97.041L162.199 96.2893L162.571 96.0756L162.95 96.9307H162.962L163.335 96.0693L163.702 96.2834Z" fill="#D8E6FF"/>
<path d="M167.463 96.2833L166.883 97.0469V97.0592L167.806 96.937V97.3524L166.883 97.2364V97.2546L167.47 97.9879L167.085 98.2078L166.712 97.3524H166.7L166.309 98.2139L165.961 97.9938L166.541 97.2487V97.2303L165.637 97.3525V96.9371L166.535 97.0532V97.041L165.961 96.2893L166.333 96.0756L166.712 96.9307H166.724L167.097 96.0693L167.463 96.2833Z" fill="#D8E6FF"/>
<path d="M171.221 96.2833L170.641 97.0469V97.0592L171.563 96.937V97.3524L170.641 97.2364V97.2546L171.227 97.9879L170.842 98.2078L170.47 97.3524H170.458L170.067 98.2139L169.718 97.9938L170.299 97.2487V97.2303L169.395 97.3525V96.9371L170.293 97.0532V97.041L169.718 96.2893L170.091 96.0756L170.47 96.9307H170.482L170.855 96.0693L171.221 96.2833Z" fill="#D8E6FF"/>
<path d="M309.839 148.989H0V150H309.839V148.989Z" fill="#1D3B77"/>
</svg>
