<svg width="257" height="180" viewBox="0 0 257 180" fill="none" xmlns="http://www.w3.org/2000/svg">
<path fill-rule="evenodd" clip-rule="evenodd" d="M128.113 168.778C157.913 168.778 185.336 169.223 207.1 169.971C260.359 139.529 241.916 80.1909 222.793 46.6275C196.18 -0.0853848 133.292 -16.8744 107.28 20.3955C71.9733 70.9836 37.9133 53.3312 19.5213 91.7509C1.13034 130.171 29.0613 167.003 49.1259 169.971C70.8894 169.223 98.3136 168.778 128.113 168.778Z" fill="#DEEDF9"/>
<path fill-rule="evenodd" clip-rule="evenodd" d="M128.112 168.778C198.866 168.778 256.224 171.29 256.224 174.389C256.224 177.487 198.866 180 128.112 180C57.3578 180 0 177.488 0 174.389C0 171.289 57.3578 168.778 128.112 168.778Z" fill="#D2E5F6"/>
<path fill-rule="evenodd" clip-rule="evenodd" d="M45.5858 155.85C44.1243 154.021 42.0692 152.511 41.4655 150.249C40.754 147.579 42.3222 144.769 41.9331 142.034C41.4453 138.592 38.129 136.359 36.3288 133.385C34.5671 130.47 35.3924 129.491 35.2319 126.09C34.9899 120.964 30.7869 114.494 25.1857 116.23C19.4997 117.994 20.4282 123.28 21.4288 127.256C22.1426 130.089 21.6762 130.497 20.9834 133.334C20.1462 136.76 17.4478 140.072 18.5765 143.416C19.2737 145.483 21.3007 146.878 22.0336 148.933C22.8645 151.26 21.8583 153.787 21.4716 156.228C20.6554 161.369 21.8266 165.646 25.5613 169.89C25.9626 170.272 26.3798 170.626 26.8113 170.954C32.0436 170.66 37.931 170.387 44.3841 170.143L44.4312 170.092C47.85 166.361 48.8696 159.957 45.5858 155.85Z" fill="#C1DFF4"/>
<path fill-rule="evenodd" clip-rule="evenodd" d="M27.7702 120.858C27.6814 120.626 27.4216 120.51 27.1899 120.599C26.9583 120.687 26.8425 120.948 26.9313 121.179C27.3755 122.341 27.7487 123.557 28.068 124.823C27.9399 124.706 27.807 124.593 27.6686 124.482C27.0594 123.992 26.3658 123.564 25.5912 123.197C25.3675 123.092 25.0999 123.188 24.9943 123.412C24.8885 123.637 24.984 123.905 25.2089 124.01C25.9208 124.346 26.5534 124.737 27.1091 125.183C27.6329 125.606 28.0902 126.077 28.4773 126.599C29.0515 129.341 29.4271 132.29 29.7642 135.399C29.245 134.59 28.6882 133.864 28.0981 133.222C27.0717 132.106 25.935 131.239 24.6898 130.622C24.468 130.513 24.1983 130.603 24.0893 130.825C23.979 131.046 24.0691 131.315 24.2916 131.425C25.4337 131.991 26.4816 132.794 27.437 133.831C28.386 134.863 29.2391 136.125 29.9994 137.616L30.0858 138.459C30.277 140.313 30.4738 142.213 30.7053 144.154C30.7065 144.173 30.7084 144.192 30.7121 144.211C30.9548 146.239 31.2371 148.311 31.5945 150.416C30.6244 148.918 29.5786 147.591 28.4602 146.44C26.821 144.753 25.0225 143.437 23.0661 142.496C22.8424 142.387 22.5739 142.482 22.466 142.706C22.359 142.929 22.4533 143.198 22.6762 143.305C24.5378 144.201 26.2499 145.455 27.816 147.066C29.3775 148.674 30.7917 150.637 32.0608 152.955C32.6128 155.744 33.318 158.587 34.2531 161.461V161.462L34.2563 161.473C34.7151 162.883 35.2299 164.299 35.8101 165.721C34.4498 164.555 33.0062 163.546 31.4786 162.695C29.3516 161.511 27.0648 160.635 24.623 160.07C24.3815 160.014 24.1395 160.165 24.0836 160.406C24.0273 160.648 24.178 160.89 24.4196 160.946C26.7849 161.494 28.9931 162.339 31.0423 163.48C33.0705 164.608 34.9492 166.031 36.6767 167.745C37.0761 168.63 37.5009 169.516 37.955 170.403L38.9445 170.361C37.3526 167.303 36.1104 164.253 35.1257 161.236C34.9567 159.044 35.2165 156.853 35.9046 154.664C36.6026 152.442 37.7416 150.218 39.3221 147.989C39.4648 147.788 39.4177 147.507 39.2154 147.364C39.0144 147.221 38.7332 147.269 38.5904 147.47C36.9568 149.773 35.7765 152.082 35.0504 154.393C34.6376 155.706 34.3703 157.018 34.2509 158.331C32.9032 153.463 32.1553 148.704 31.6091 144.164C32.1374 142.239 32.7255 140.61 33.3763 139.278C34.0228 137.952 34.7263 136.93 35.4855 136.212C35.6652 136.042 35.673 135.759 35.5033 135.578C35.3335 135.398 35.0481 135.39 34.8691 135.56C34.0283 136.355 33.2606 137.463 32.5669 138.885C32.135 139.77 31.7305 140.78 31.3517 141.915C31.2189 140.715 31.0975 139.533 30.9773 138.369L30.8841 137.463C30.8829 137.448 30.8818 137.43 30.8794 137.414C30.2398 131.244 29.5945 125.629 27.7702 120.858Z" fill="white"/>
<path fill-rule="evenodd" clip-rule="evenodd" d="M30.5457 158.26C28.9855 157.42 27.1056 156.975 26.0162 155.579C24.7292 153.931 24.989 151.51 23.9075 149.719C22.5484 147.466 19.5771 146.894 17.441 145.354C15.3497 143.847 15.6352 142.919 14.5156 140.598C12.8293 137.099 7.98416 133.838 4.59681 136.706C1.15918 139.62 3.37134 143.026 5.24646 145.501C6.5834 147.262 6.37872 147.684 6.73731 149.866C7.16923 152.5 6.27088 155.607 8.04729 157.602C9.14543 158.835 10.971 159.206 12.0898 160.42C13.3589 161.796 13.406 163.853 13.8602 165.669C14.4618 168.079 15.512 170.015 17.1733 171.581C21.6545 171.243 26.9237 170.926 32.8686 170.637C33.3251 169.985 33.6959 169.274 33.9613 168.523C35.2358 164.911 34.0488 160.149 30.5457 158.26Z" fill="#BAD9F2"/>
<path fill-rule="evenodd" clip-rule="evenodd" d="M7.76722 139.165C7.63674 139.031 7.42176 139.026 7.28579 139.157C7.1509 139.287 7.14777 139.503 7.27825 139.638C7.93142 140.316 8.55176 141.052 9.14974 141.839C9.02524 141.796 8.89908 141.757 8.77096 141.72C8.19983 141.56 7.59067 141.467 6.94308 141.441C6.75545 141.433 6.59683 141.579 6.59007 141.767C6.58331 141.955 6.72927 142.112 6.9173 142.12C7.51293 142.143 8.06945 142.228 8.58773 142.374C9.07789 142.512 9.53638 142.706 9.96036 142.955C11.1736 144.695 12.3078 146.638 13.4647 148.703C12.863 148.294 12.2605 147.953 11.6578 147.68C10.6124 147.207 9.56451 146.941 8.5147 146.879C8.32668 146.868 8.16611 147.011 8.15581 147.199C8.14474 147.385 8.28747 147.547 8.47431 147.556C9.43766 147.613 10.4057 147.861 11.3782 148.301C12.3447 148.738 13.314 149.364 14.2852 150.179L14.5953 150.74C15.2767 151.975 15.9771 153.241 16.7136 154.523C16.7203 154.536 16.727 154.549 16.735 154.56C17.5048 155.902 18.3154 157.261 19.1879 158.622C18.0683 157.866 16.9471 157.252 15.8275 156.78C14.1852 156.09 12.5425 155.707 10.9002 155.631C10.7134 155.623 10.5539 155.768 10.546 155.955C10.5369 156.143 10.6821 156.302 10.8696 156.31C12.4314 156.384 13.996 156.749 15.5633 157.408C17.1271 158.065 18.694 159.012 20.2645 160.252C21.4765 162.032 22.8099 163.802 24.313 165.528L24.3186 165.535C25.0563 166.381 25.834 167.216 26.6593 168.034C25.3663 167.624 24.0612 167.349 22.7461 167.21C20.9122 167.014 19.0609 167.081 17.1922 167.411C17.0078 167.444 16.8844 167.62 16.9157 167.806C16.9483 167.991 17.1247 168.115 17.3103 168.082C19.1203 167.763 20.909 167.697 22.6738 167.884C24.4208 168.07 26.1512 168.505 27.8633 169.186C28.4534 169.731 29.0674 170.269 29.7059 170.796L30.7187 170.743C28.4938 168.967 26.5636 167.07 24.8534 165.112C24.0869 163.635 23.6181 162.032 23.4495 160.304C23.2773 158.549 23.4114 156.662 23.852 154.642C23.8925 154.459 23.7754 154.277 23.5922 154.237C23.4101 154.197 23.2281 154.314 23.1885 154.496C22.7332 156.585 22.5952 158.543 22.7736 160.368C22.8748 161.404 23.0786 162.398 23.3832 163.348C21.002 160.357 19.0718 157.263 17.3463 154.261C17.1429 152.765 17.0706 151.455 17.1293 150.335C17.1877 149.22 17.3744 148.3 17.6902 147.575C17.7655 147.404 17.687 147.202 17.5149 147.128C17.3427 147.053 17.1429 147.132 17.0675 147.303C16.7177 148.106 16.5118 149.106 16.4492 150.302C16.4108 151.045 16.4277 151.869 16.5008 152.772C16.0534 151.976 15.6171 151.188 15.1888 150.413L14.8561 149.811C14.8505 149.799 14.8438 149.787 14.8383 149.777C12.5641 145.668 10.4518 141.948 7.76722 139.165Z" fill="white"/>
<path fill-rule="evenodd" clip-rule="evenodd" d="M204.98 154.115C206.575 152.12 208.817 150.471 209.476 148.002C210.253 145.089 208.542 142.024 208.967 139.038C209.499 135.281 213.117 132.846 215.081 129.599C217.005 126.42 216.103 125.35 216.278 121.639C216.543 116.046 221.131 108.986 227.242 110.879C233.447 112.804 232.433 118.572 231.342 122.913C230.564 126.003 231.072 126.447 231.827 129.543C232.742 133.283 235.686 136.898 234.455 140.546C233.694 142.801 231.481 144.324 230.682 146.567C229.775 149.107 230.873 151.863 231.295 154.528C232.186 160.138 230.908 164.804 226.833 169.437C226.339 169.906 225.824 170.337 225.288 170.733C219.65 170.445 213.359 170.183 206.519 169.952C206.424 169.855 206.331 169.756 206.239 169.657C202.51 165.584 201.398 158.597 204.98 154.115Z" fill="#C1DFF4"/>
<path fill-rule="evenodd" clip-rule="evenodd" d="M224.423 115.931C224.52 115.678 224.803 115.552 225.056 115.649C225.309 115.744 225.436 116.029 225.339 116.282C224.855 117.549 224.447 118.877 224.098 120.258C224.238 120.131 224.384 120.007 224.533 119.887C225.199 119.352 225.955 118.884 226.801 118.484C227.046 118.369 227.337 118.474 227.453 118.719C227.567 118.963 227.463 119.255 227.218 119.371C226.442 119.738 225.751 120.165 225.146 120.651C224.572 121.111 224.075 121.626 223.652 122.196C223.026 125.189 222.615 128.408 222.246 131.799C222.814 130.917 223.42 130.124 224.065 129.424C225.185 128.205 226.425 127.26 227.784 126.587C228.027 126.466 228.319 126.565 228.439 126.808C228.56 127.049 228.461 127.343 228.219 127.463C226.973 128.08 225.829 128.956 224.786 130.088C223.752 131.213 222.819 132.592 221.991 134.218L221.896 135.139C221.688 137.162 221.473 139.236 221.22 141.354C221.219 141.374 221.217 141.395 221.213 141.415C220.947 143.628 220.639 145.889 220.25 148.187C221.309 146.551 222.449 145.105 223.669 143.849C225.459 142.007 227.422 140.572 229.556 139.543C229.8 139.426 230.093 139.528 230.211 139.773C230.328 140.017 230.225 140.31 229.981 140.428C227.95 141.406 226.081 142.774 224.373 144.532C222.669 146.286 221.125 148.427 219.74 150.957C219.138 154.002 218.369 157.103 217.349 160.24L217.348 160.241L217.345 160.253H217.344C216.843 161.792 216.281 163.338 215.65 164.889C217.133 163.616 218.709 162.515 220.376 161.587C222.697 160.295 225.192 159.339 227.856 158.722C228.121 158.66 228.385 158.825 228.445 159.088C228.507 159.352 228.343 159.616 228.079 159.677C225.497 160.275 223.089 161.197 220.851 162.443C218.639 163.675 216.589 165.226 214.703 167.097C214.238 168.129 213.74 169.161 213.207 170.195L212.124 170.153C213.911 166.749 215.3 163.352 216.396 159.994C216.58 157.602 216.297 155.21 215.545 152.822C214.784 150.398 213.541 147.971 211.816 145.539C211.661 145.319 211.713 145.012 211.933 144.855C212.153 144.699 212.459 144.751 212.615 144.971C214.398 147.486 215.685 150.004 216.478 152.526C216.929 153.959 217.22 155.392 217.351 156.824C218.822 151.512 219.637 146.319 220.233 141.364C219.657 139.264 219.016 137.486 218.305 136.031C217.599 134.586 216.832 133.469 216.004 132.687C215.808 132.502 215.799 132.191 215.984 131.994C216.17 131.799 216.48 131.79 216.676 131.975C217.593 132.842 218.431 134.052 219.188 135.603C219.658 136.569 220.101 137.67 220.515 138.909C220.659 137.601 220.792 136.31 220.923 135.041L221.024 134.052C221.026 134.034 221.028 134.016 221.031 133.998C221.728 127.265 222.432 121.137 224.423 115.931Z" fill="white"/>
<path fill-rule="evenodd" clip-rule="evenodd" d="M221.395 156.746C223.097 155.828 225.148 155.345 226.338 153.821C227.742 152.021 227.459 149.379 228.638 147.425C230.123 144.966 233.364 144.341 235.695 142.662C237.977 141.017 237.666 140.005 238.888 137.471C240.729 133.655 246.016 130.095 249.713 133.225C253.464 136.404 251.049 140.122 249.003 142.822C247.544 144.744 247.768 145.205 247.377 147.585C246.905 150.46 247.885 153.851 245.947 156.027C244.748 157.373 242.756 157.778 241.535 159.103C240.15 160.604 240.1 162.849 239.604 164.83C238.937 167.498 237.767 169.634 235.909 171.356C231.015 171.023 225.337 170.714 218.992 170.434C218.434 169.674 217.983 168.837 217.669 167.945C216.277 164.004 217.572 158.808 221.395 156.746Z" fill="#BAD9F2"/>
<path fill-rule="evenodd" clip-rule="evenodd" d="M246.255 135.909C246.396 135.762 246.631 135.758 246.78 135.9C246.927 136.042 246.93 136.277 246.789 136.425C246.076 137.164 245.399 137.968 244.746 138.826C244.882 138.779 245.02 138.736 245.16 138.697C245.783 138.522 246.447 138.419 247.154 138.391C247.359 138.383 247.531 138.544 247.539 138.748C247.547 138.952 247.388 139.125 247.183 139.133C246.532 139.159 245.925 139.251 245.359 139.411C244.824 139.562 244.324 139.773 243.861 140.044C242.538 141.944 241.299 144.064 240.037 146.318C240.694 145.871 241.351 145.499 242.007 145.202C243.148 144.685 244.293 144.393 245.439 144.327C245.643 144.315 245.819 144.471 245.831 144.676C245.842 144.879 245.686 145.054 245.482 145.067C244.433 145.127 243.376 145.399 242.313 145.879C241.259 146.355 240.202 147.039 239.142 147.927L238.804 148.54C238.059 149.886 237.295 151.268 236.491 152.669C236.484 152.682 236.476 152.696 236.469 152.709C235.628 154.172 234.743 155.656 233.791 157.141C235.014 156.316 236.236 155.647 237.459 155.133C239.251 154.38 241.043 153.96 242.835 153.877C243.039 153.868 243.214 154.027 243.223 154.231C243.232 154.436 243.074 154.61 242.87 154.619C241.164 154.698 239.458 155.098 237.747 155.816C236.04 156.534 234.33 157.568 232.616 158.921C231.294 160.862 229.84 162.796 228.199 164.678L228.193 164.684L228.192 164.685C227.389 165.608 226.539 166.519 225.639 167.413C227.049 166.965 228.473 166.665 229.909 166.512C231.909 166.3 233.93 166.373 235.969 166.734C236.171 166.768 236.306 166.961 236.271 167.163C236.235 167.366 236.043 167.501 235.84 167.464C233.865 167.116 231.913 167.044 229.986 167.25C228.081 167.452 226.193 167.925 224.325 168.67C223.623 169.317 222.893 169.953 222.131 170.578L221.012 170.526C223.522 168.542 225.693 166.419 227.609 164.223C228.445 162.613 228.957 160.862 229.141 158.976C229.329 157.062 229.182 155.003 228.701 152.798C228.658 152.598 228.785 152.4 228.985 152.356C229.185 152.313 229.383 152.439 229.425 152.64C229.922 154.918 230.074 157.055 229.878 159.046C229.768 160.179 229.547 161.262 229.213 162.299C231.811 159.034 233.918 155.659 235.802 152.383C236.022 150.749 236.102 149.321 236.038 148.098C235.975 146.881 235.772 145.877 235.426 145.087C235.344 144.899 235.43 144.68 235.617 144.598C235.804 144.517 236.023 144.603 236.105 144.789C236.486 145.666 236.711 146.757 236.78 148.062C236.821 148.873 236.804 149.772 236.725 150.758C237.213 149.889 237.687 149.029 238.155 148.183L238.519 147.526C238.525 147.513 238.532 147.501 238.539 147.49C241.02 143.005 243.325 138.946 246.255 135.909Z" fill="white"/>
<path fill-rule="evenodd" clip-rule="evenodd" d="M21.6561 104.227L196.18 105.151C198.194 105.161 192.47 111.721 192.393 119.848C192.316 127.975 193.886 134.574 195.9 134.585L26.6298 133.689L21.3766 133.661C19.363 133.65 17.7926 127.051 17.8699 118.924C17.9476 110.797 19.643 104.217 21.6561 104.227Z" fill="#7396E4"/>
<path fill-rule="evenodd" clip-rule="evenodd" d="M21.6568 104.227L26.1708 104.25L196.181 105.151C195.229 105.145 194.348 106.612 193.676 109.019L26.1336 108.132L24.0876 108.121L19.1523 108.095C19.8258 105.689 20.7058 104.222 21.6568 104.227Z" fill="#0085F9"/>
<path fill-rule="evenodd" clip-rule="evenodd" d="M199.687 119.888C199.763 111.759 198.194 105.162 196.18 105.151C194.166 105.14 192.471 111.721 192.393 119.849C192.317 127.976 193.886 134.574 195.901 134.585C197.914 134.595 199.609 128.015 199.687 119.888Z" fill="#DEEDF9"/>
<path fill-rule="evenodd" clip-rule="evenodd" d="M206.641 130.577L235.67 119.392L206.855 107.899L178.041 96.4072C177.736 115.498 180.313 124.043 177.609 141.76L206.641 130.577Z" fill="#0085F9"/>
<path fill-rule="evenodd" clip-rule="evenodd" d="M206.641 130.577L229.942 121.599L205.553 111.872L177.998 100.883L177.912 109.936L177.739 128.232L177.609 141.76L206.641 130.577Z" fill="#7396E4"/>
<path fill-rule="evenodd" clip-rule="evenodd" d="M71.6761 120.967C71.6976 116.548 73.4231 71.0039 83.4589 71.0229C88.0404 70.6755 97.5476 71.0499 102.659 71.059L102.536 95.5991L102.413 95.5023L98.5549 104.827L101.931 112.865L97.912 120.582L101.127 126.691L97.5904 132.64L102.302 142.287L102.158 171.003L83.1757 170.967C72.7546 170.947 71.6528 125.531 71.6761 120.967Z" fill="#0085F9"/>
<path fill-rule="evenodd" clip-rule="evenodd" d="M116.083 124.33C115.519 150.403 109.747 171.017 102.807 171.003C95.5774 170.988 89.82 148.6 89.9474 120.998C90.0743 93.3967 96.0371 71.0327 103.267 71.0474C107.901 71.0577 111.93 80.2591 114.192 94.1351L109.651 101.257L102.412 95.5022L98.5531 104.827L101.929 112.865L97.9102 120.582L101.125 126.691L97.5886 132.639L104.341 146.466L113.343 140.035L109.651 131.639L116.083 124.33Z" fill="#87B7E2"/>
<path fill-rule="evenodd" clip-rule="evenodd" d="M113.822 126.9C113.659 131.148 113.333 135.198 112.868 138.953L109.651 131.639L113.822 126.9ZM112.663 140.522L104.341 146.466L97.5885 132.64L101.125 126.692L97.9101 120.583L101.929 112.865L98.553 104.827L102.411 95.5028L109.651 101.258L112.086 97.4377C110.139 86.4124 106.838 79.1848 103.063 79.1773C96.95 79.1645 91.9069 98.0762 91.7986 121.418C91.6919 144.76 96.5609 163.692 102.674 163.705C106.991 163.714 110.774 154.284 112.663 140.522Z" fill="white"/>
<path fill-rule="evenodd" clip-rule="evenodd" d="M111.836 129.158C111.701 131.301 111.515 133.37 111.281 135.343L109.653 131.64L111.836 129.158ZM110.195 142.286L104.342 146.467L97.5903 132.64L101.127 126.692L97.9119 120.583L101.931 112.866L98.5548 104.827L102.413 95.503L109.653 101.258L110.26 100.306C108.64 92.2405 106.089 87.0559 103.198 87.0503C98.1995 87.04 94.0774 102.5 93.9897 121.581C93.9017 140.662 97.8815 156.14 102.88 156.151C105.847 156.156 108.505 150.708 110.195 142.286Z" fill="#0085F9"/>
<path fill-rule="evenodd" clip-rule="evenodd" d="M109.992 131.251C109.96 131.565 109.926 131.877 109.89 132.185L109.651 131.64L109.992 131.251ZM107.116 144.484C105.996 147.194 104.673 148.765 103.26 148.762C99.3308 148.754 96.202 136.586 96.2706 121.586C96.3393 106.586 99.5803 94.4308 103.509 94.4399C105.082 94.4431 106.527 96.396 107.689 99.6988L102.411 95.5032L98.5527 104.828L101.928 112.866L97.9098 120.583L101.125 126.692L97.5882 132.64L104.34 146.467L107.116 144.484Z" fill="white"/>
<path fill-rule="evenodd" clip-rule="evenodd" d="M102.17 142.015C101.262 141.174 100.444 139.466 99.783 137.13L102.17 142.015ZM98.5894 130.96C98.2328 128.138 98.0397 124.955 98.0556 121.588C98.0564 121.347 98.0587 121.106 98.0624 120.867L101.128 126.691L98.5894 130.96ZM98.0722 120.274C98.1769 115.272 98.7364 110.743 99.5923 107.295L101.931 112.865L98.0722 120.274Z" fill="#0B70B8"/>
<path fill-rule="evenodd" clip-rule="evenodd" d="M100.35 127.996C100.21 126.947 100.104 125.817 100.039 124.627L101.126 126.692L100.35 127.996ZM100.303 115.989C100.527 114.16 100.851 112.542 101.249 111.245L101.93 112.866L100.303 115.989Z" fill="white"/>
<path d="M129.528 122.488H105.48V134.035H129.528V122.488Z" fill="#95C2E8"/>
<path fill-rule="evenodd" clip-rule="evenodd" d="M146.832 115.768C147.141 118.288 149.432 120.079 151.951 119.769C154.468 119.46 156.261 117.169 155.951 114.651C155.642 112.132 153.351 110.341 150.833 110.65C148.313 110.959 146.523 113.25 146.832 115.768Z" fill="#4B5DA8"/>
<path fill-rule="evenodd" clip-rule="evenodd" d="M122.272 157.709C122.272 157.709 122.847 159.819 123.099 160.689C123.351 161.561 124.106 161.777 123.551 162.064C122.995 162.352 121.21 163.895 120.899 164.805C120.586 165.714 118.941 171.67 117.551 171.626C116.162 171.581 116.018 168.696 116.286 164.679C116.555 160.664 115.536 160.442 116.535 157.861C116.846 157.058 122.272 157.709 122.272 157.709Z" fill="#09378C"/>
<path fill-rule="evenodd" clip-rule="evenodd" d="M123.882 158.222L122.277 158.518L123.294 162.48L124.851 162.22L123.882 158.222Z" fill="#EDA583"/>
<path fill-rule="evenodd" clip-rule="evenodd" d="M192.707 167.421C192.707 167.421 194.218 165.888 194.833 165.246C195.448 164.603 195.259 163.856 195.775 164.184C196.292 164.514 198.48 165.268 199.405 165.084C200.33 164.901 206.191 163.361 206.836 164.561C207.482 165.762 205.108 167.305 201.569 169.056C198.034 170.805 198.348 171.778 195.669 172.204C194.835 172.335 192.707 167.421 192.707 167.421Z" fill="#09378C"/>
<path fill-rule="evenodd" clip-rule="evenodd" d="M191.824 166.451L192.88 167.611L195.598 164.774L194.595 163.635L191.824 166.451Z" fill="#EDA583"/>
<path fill-rule="evenodd" clip-rule="evenodd" d="M161.454 136.259C161.012 136.905 160.313 138.111 159.544 139.49C159.229 140.056 158.902 140.65 158.577 141.246C157.006 144.136 155.471 147.088 155.471 147.088C155.47 147.089 148.531 158.583 145.545 159.719C139.665 161.955 123.075 163.16 123.075 163.16L121.664 156.933C121.664 156.933 130.993 155.945 134.856 154.683C139.337 153.22 142.336 153.373 143.742 149.718C144.679 147.284 146.694 138.907 146.714 138.831C147.405 134.632 148.529 129.201 149.913 127.566C151.073 126.192 161.454 136.259 161.454 136.259Z" fill="#3E62AC"/>
<path fill-rule="evenodd" clip-rule="evenodd" d="M181.231 143.938C180.477 142.004 176.014 137.552 172.99 134.987C168.208 130.871 164.88 127.511 164.88 127.511C164.88 127.511 148.583 132.897 149.288 134.46C150.624 137.425 159.308 139.186 161.016 140.015L164.507 141.434C164.507 141.434 167.987 142.892 170.614 144.282C174.133 146.143 173.918 147.586 176.632 150.956C179.063 153.974 192.342 168.579 192.342 168.579L196.728 164.26C196.728 164.26 182.402 146.942 181.231 143.938Z" fill="#3E62AC"/>
<path fill-rule="evenodd" clip-rule="evenodd" d="M182.274 107.753C182.274 107.753 180.942 108.3 180.168 108.452C179.394 108.601 180.463 105.892 180.463 105.892L182.274 107.753Z" fill="#F4AE7C"/>
<path fill-rule="evenodd" clip-rule="evenodd" d="M180.051 105.327C180.051 105.327 180.494 103.184 180.571 102.859C180.65 102.535 181.336 101.902 182.189 101.245C183.04 100.588 184.485 100.083 184.661 100.141C184.836 100.202 185.041 100.181 185.323 100.564C185.605 100.948 185.634 101.427 185.634 101.427C185.634 101.427 186.202 101.737 186.192 102.329C186.192 102.329 186.715 102.646 186.593 103.317C186.593 103.317 187.094 103.64 186.965 104.12C186.965 104.12 186.277 104.754 186.09 105.062C185.903 105.371 183.912 106.807 182.274 107.754C182.274 107.754 180.894 107.912 180.051 105.327Z" fill="#F4AE7C"/>
<path fill-rule="evenodd" clip-rule="evenodd" d="M184.43 100.306C184.43 100.306 182.312 102.025 182.545 102.399C182.781 102.775 183.094 102.77 183.094 102.77L182.543 103.873C182.543 103.873 182.591 104.808 183.596 104.483C183.596 104.483 183.55 105.363 184.484 104.933C184.484 104.933 184.711 105.527 185.178 105.404C185.646 105.281 186.963 104.12 186.963 104.12C186.963 104.12 187.194 103.731 186.654 103.3C186.654 103.3 186.79 102.662 186.235 102.311C186.235 102.311 186.287 101.785 185.682 101.411C185.682 101.411 185.639 100.241 184.66 100.142C184.66 100.142 184.518 100.233 184.43 100.306Z" fill="#F4AE7C"/>
<path fill-rule="evenodd" clip-rule="evenodd" d="M180.631 102.798C180.631 102.798 182.462 102.412 183.555 102.641C183.802 102.692 184.033 102.788 184.077 103.036C184.123 103.285 183.819 103.667 183.034 103.875C182.25 104.083 181.331 104.71 181.331 104.71C181.331 104.71 180.463 104.687 180.631 102.798Z" fill="#F4AE7C"/>
<path fill-rule="evenodd" clip-rule="evenodd" d="M157.118 102.516C157.118 102.516 163.034 108.296 167.067 110.746C168.332 111.515 179.569 104.844 180.052 105.156C180.533 105.469 181.452 109.024 181.452 109.024C181.452 109.024 167.484 117.533 166.605 117.226C165.725 116.921 153.614 108.082 152.799 106.66C151.984 105.24 151.747 103.399 153.137 102.332C155.089 100.834 157.118 102.516 157.118 102.516Z" fill="#498AC9"/>
<path fill-rule="evenodd" clip-rule="evenodd" d="M159.617 98.3856C159.617 98.3856 161.946 103.245 162.3 106.135C162.653 109.024 161.379 116.872 161.522 118.493C161.664 120.115 164.88 127.512 164.88 127.512L148.034 134.101C148.034 134.101 147.037 129.577 146.464 124.068C145.889 118.562 146.949 113.86 146.969 110.669C147.04 99.7804 155.543 96.3428 155.543 96.3428L159.617 98.3856Z" fill="#BAD9F2"/>
<path fill-rule="evenodd" clip-rule="evenodd" d="M165.455 84.9973C165.455 84.9973 167.21 87.4927 166.546 87.9932C165.998 88.4057 167.588 90.8713 167.805 91.2794C168.024 91.6863 166.825 92.1435 166.596 92.4506C166.367 92.7563 165.991 96.2348 164.987 96.4573C163.981 96.6811 159.211 95.6301 157.81 94.4812C156.409 93.3322 154.691 87.5943 155.231 85.0243C155.77 82.4544 162.364 80.6388 165.455 84.9973Z" fill="#F4AE7C"/>
<path fill-rule="evenodd" clip-rule="evenodd" d="M161.846 96.0935C161.846 96.0935 161.757 96.379 161.625 96.822C161.57 97.0072 161.508 97.2222 161.442 97.4515C161.391 97.6291 161.339 97.8148 161.285 98.0079C160.953 99.2198 160.597 100.687 160.603 101.394C160.612 102.715 156.148 96.3037 156.148 96.3037C156.148 96.3037 157.403 92.2264 158.066 87.4989C158.726 82.7726 161.846 96.0935 161.846 96.0935Z" fill="#F4AE7C"/>
<path fill-rule="evenodd" clip-rule="evenodd" d="M165.812 85.5422C165.812 85.5422 167.751 81.7197 164.831 79.8994C162.32 83.253 151.25 83.0337 156.087 83.3878C155.55 83.5972 152.401 84.1973 154.673 89.5203C156.67 94.1993 156.788 93.9554 156.788 93.9554C156.788 93.9554 157.504 91.4093 158.033 90.9223C158.855 90.1611 160.849 90.0847 160.849 90.0847C160.849 90.0847 159.612 87.6979 161.04 87.1698C162.468 86.6426 164.26 85.1666 165.812 85.5422Z" fill="#09378C"/>
<path fill-rule="evenodd" clip-rule="evenodd" d="M159.113 88.8396C158.944 88.5128 158.349 87.0883 157.189 88.1035C156.027 89.1184 158.407 91.6514 158.632 91.6605C158.857 91.6705 160.547 91.5928 159.113 88.8396Z" fill="#F4AE7C"/>
<path fill-rule="evenodd" clip-rule="evenodd" d="M156.337 95.6553C156.337 95.6553 159.094 99.455 160.959 100.532L160.799 103.2L155.543 96.3422L156.337 95.6553Z" fill="#498AC9"/>
<path fill-rule="evenodd" clip-rule="evenodd" d="M164.881 127.511L164.216 125.951L147.68 132.329L148.064 134.246L164.881 127.511Z" fill="#F09171"/>
<path fill-rule="evenodd" clip-rule="evenodd" d="M161.388 108.361C161.152 109.364 160.939 110.376 160.749 111.389V111.39C160.331 113.62 160.017 115.862 159.784 118.037C159.702 118.813 159.631 119.581 159.567 120.338C159.197 124.772 159.638 127.731 160.184 129.595C160.747 131.521 158.227 133.25 158.227 133.25C158.227 133.25 147.737 136.644 145.954 135.67C145.954 135.67 145.208 125.478 146.31 115.45C146.395 114.675 146.491 113.9 146.599 113.134L146.6 113.132C147.071 104.351 150.256 97.541 155.545 96.3438C155.663 96.4546 162.63 103.094 161.388 108.361Z" fill="#5D9CD4"/>
<path fill-rule="evenodd" clip-rule="evenodd" d="M146.232 116.167C146.232 116.167 146.196 126.423 142.254 135.383C141.72 136.596 150.499 135.279 150.499 135.279L146.232 116.167Z" fill="#5D9CD4"/>
<path fill-rule="evenodd" clip-rule="evenodd" d="M161.846 96.0934C161.846 96.0934 161.757 96.379 161.624 96.822C161.569 97.0072 161.508 97.2222 161.442 97.4515C158.781 95.9245 158.045 94.6781 158.023 94.6396C159.264 95.33 161.846 96.0934 161.846 96.0934Z" fill="#ED7D5B"/>
<path fill-rule="evenodd" clip-rule="evenodd" d="M160.951 100.689C160.951 100.689 161.729 102.404 161.683 103.082C161.666 103.337 160.809 103.05 160.809 103.05L160.951 100.689Z" fill="#498AC9"/>
<path fill-rule="evenodd" clip-rule="evenodd" d="M159.544 139.489C159.23 140.056 158.902 140.649 158.578 141.245L151.934 136.731C151.984 136.755 152.812 137.159 153.89 137.616C155.002 138.089 159.544 139.489 159.544 139.489Z" fill="#3156A4"/>
<path fill-rule="evenodd" clip-rule="evenodd" d="M155.603 102.798C155.603 102.798 147.041 110.761 144.093 114.994C143.166 116.321 137.958 129.165 137.585 129.669C137.211 130.174 132.41 129.125 132.41 129.125C132.41 129.125 138.515 113.085 138.908 112.147C139.301 111.208 151.592 98.1136 153.198 97.3196C154.803 96.5272 155.238 96.9433 156.307 98.5329C157.809 100.765 155.603 102.798 155.603 102.798Z" fill="#498AC9"/>
<path fill-rule="evenodd" clip-rule="evenodd" d="M161.558 102.978C161.558 102.978 161.373 109.427 155.968 110.506C151.127 111.471 144.327 114.765 142.25 116.92L139.699 119.738L139.993 116.369C139.993 116.369 141.428 110.914 155.832 109.866C155.832 109.866 160.321 110.166 160.849 102.365C160.849 102.365 161.615 102.656 161.558 102.978Z" fill="#498AC9"/>
<path fill-rule="evenodd" clip-rule="evenodd" d="M130.637 144.064L134.171 145.128C134.366 145.185 134.505 145.39 134.463 145.59L133.792 148.829C133.751 149.028 133.566 149.158 133.373 149.107L129.648 148.134C129.452 148.082 129.302 147.87 129.354 147.672L130.217 144.343C130.269 144.145 130.442 144.006 130.637 144.064Z" fill="white"/>
<path fill-rule="evenodd" clip-rule="evenodd" d="M130.837 135.046C130.837 135.046 130.715 134.482 130.782 134.21C130.782 134.21 130.942 133.722 131.034 133.369C131.063 133.256 131.086 133.158 131.093 133.093C131.128 132.822 131.121 132.214 131.385 131.583C131.584 131.113 132.283 129.798 132.621 129.169C133.29 129.309 135.402 129.734 136.653 129.797C136.784 130.674 137.231 133.752 137.078 134.278C137.06 134.338 137.042 134.396 137.018 134.45C136.817 134.957 136.453 135.248 136.318 135.503C136.266 135.595 135.703 136.484 135.39 136.525C134.957 136.58 134.635 136.443 134.439 136.214C134.439 136.214 133.586 136.286 133.112 135.958C133.112 135.958 132.327 136.049 131.852 135.473C131.852 135.473 131.046 135.477 130.837 135.046Z" fill="#F4AE7C"/>
<path fill-rule="evenodd" clip-rule="evenodd" d="M162.89 84.8187C164.666 83.3303 164.968 82.1092 163.799 81.157C160.145 80.8897 157.031 81.625 154.457 83.3592C156.265 82.9773 159.076 83.4639 162.89 84.8187Z" fill="#09378C"/>
<path fill-rule="evenodd" clip-rule="evenodd" d="M164.765 84.9241C165.498 84.8499 165.845 85.0526 165.802 85.5301C165.05 86.4229 164.191 86.9694 163.223 87.1705C163.712 86.8431 164.226 86.0944 164.765 84.9241Z" fill="#09378C"/>
<path fill-rule="evenodd" clip-rule="evenodd" d="M164.394 84.3079C165.127 84.2338 165.473 84.436 165.431 84.9151C164.678 85.8066 163.82 86.3527 162.852 86.5541C163.341 86.2269 163.855 85.4782 164.394 84.3079Z" fill="#09378C"/>
<path fill-rule="evenodd" clip-rule="evenodd" d="M154.688 88.7084C155.516 87.8402 156.157 87.7244 156.61 88.3609C156.626 90.2574 156.143 91.8415 155.161 93.1153C155.418 92.1932 155.261 90.7239 154.688 88.7084Z" fill="#09378C"/>
<path fill-rule="evenodd" clip-rule="evenodd" d="M166.925 87.6943C166.718 88.0294 166.608 87.7807 165.645 87.4211C164.993 87.1783 164.628 87.4639 164.039 87.5234C165.295 86.5295 166.769 87.4659 166.925 87.6943Z" fill="#0053A1"/>
<path fill-rule="evenodd" clip-rule="evenodd" d="M163.296 94.0068C163.15 93.2636 164.107 93.1086 166.163 93.5388C164.823 93.6896 163.867 93.8458 163.296 94.0068Z" fill="white"/>
<path fill-rule="evenodd" clip-rule="evenodd" d="M166.162 88.5631C165.895 88.4227 165.548 88.5913 165.385 88.9423C165.221 89.2929 165.304 89.6907 165.571 89.8326C165.837 89.9742 166.185 89.8045 166.347 89.4534C166.51 89.1041 166.427 88.7048 166.162 88.5631Z" fill="#BAD9F2"/>
<path fill-rule="evenodd" clip-rule="evenodd" d="M165.571 89.8321C165.304 89.6913 165.221 89.2924 165.384 88.9418C165.547 88.5909 165.896 88.4211 166.162 88.5626C166.274 88.6213 166.353 88.7256 166.396 88.8529L166.361 88.8279C166.276 88.7819 166.162 88.837 166.109 88.9504C166.057 89.0639 166.084 89.1931 166.17 89.2395C166.257 89.2855 166.369 89.2304 166.422 89.117L166.432 89.092C166.431 89.2102 166.404 89.3351 166.349 89.4529C166.185 89.804 165.837 89.9738 165.571 89.8321Z" fill="#0053A1"/>
<path fill-rule="evenodd" clip-rule="evenodd" d="M130.351 120.719L116.086 129.949L127.164 129.846L130.351 120.719Z" fill="white"/>
<path fill-rule="evenodd" clip-rule="evenodd" d="M119.754 103.693L115.305 111.957L126.111 112.593L119.754 103.693Z" fill="#0B70B8"/>
<path fill-rule="evenodd" clip-rule="evenodd" d="M120.945 125.044L105.734 135.194L122.718 144.484L120.945 125.044Z" fill="#0B70B8"/>
<path fill-rule="evenodd" clip-rule="evenodd" d="M129.747 139.96L125.297 148.224L136.103 148.859L129.747 139.96Z" fill="#87B7E2"/>
<path fill-rule="evenodd" clip-rule="evenodd" d="M114.098 117.438L110.926 126.27L103.23 118.658L114.098 117.438Z" fill="white"/>
<path fill-rule="evenodd" clip-rule="evenodd" d="M121.07 72.1357L122.763 93.4844L141.961 81.424L121.07 72.1357Z" fill="#0B70B8"/>
<path fill-rule="evenodd" clip-rule="evenodd" d="M128.195 84.8154L124.348 89.1582L133.342 93.512L128.195 84.8154Z" fill="#87B7E2"/>
<path fill-rule="evenodd" clip-rule="evenodd" d="M132.345 20.374C127.413 18.0682 126.977 11.4228 132.17 9.19049C132.807 8.91718 133.758 8.49212 134.468 8.40566C134.827 8.36086 137.181 8.61818 137.156 9.06677C137.243 7.5423 138.578 6.24379 140.13 5.47042C144.03 3.52785 149.6 4.54953 152.203 7.68503C154.805 10.8194 154.052 15.605 150.574 18.056C151.958 17.5309 153.73 17.8782 154.701 18.8642C155.672 19.8501 155.758 21.3881 154.901 22.4471C156.73 21.5523 159.344 22.1008 160.467 23.6162C163.241 23.109 166.19 23.3159 168.828 24.204C169.416 24.4019 170.013 24.6481 170.393 25.0776C170.772 25.5071 170.858 26.1658 170.429 26.5605C170.153 26.8135 169.735 26.9091 169.337 26.9754C167.815 27.2328 166.251 27.2395 164.7 27.2462C157.445 27.2755 150.191 27.3046 142.936 27.3339C142.207 27.3374 141.449 27.3351 140.783 27.0809C140.118 26.8271 139.567 26.2445 139.668 25.6317C138.608 26.3424 137.357 26.8932 136.012 27.0169C134.667 27.1407 133.223 26.7921 132.31 25.9465C128.082 26.9167 123.617 27.1415 119.283 26.6021C118.569 26.5133 117.837 26.3962 117.235 26.06C116.632 25.724 116.188 25.1149 116.32 24.5156C116.454 23.9128 117.132 23.4825 117.839 23.3508C118.546 23.2203 119.281 23.3306 119.99 23.452C119.711 22.2828 120.546 21.0732 121.724 20.42C122.903 19.7668 124.356 19.578 125.764 19.5407C127.993 19.4824 130.234 19.7656 132.345 20.374Z" fill="white"/>
<path fill-rule="evenodd" clip-rule="evenodd" d="M117.839 23.3507C117.132 23.4824 116.454 23.9128 116.32 24.5155C116.188 25.1148 116.632 25.724 117.235 26.0599C117.837 26.3963 118.569 26.5132 119.283 26.602C123.617 27.1414 128.082 26.9165 132.31 25.9465C133.223 26.792 134.667 27.1406 136.012 27.0169C137.357 26.8932 138.608 26.3422 139.668 25.6316C139.567 26.2443 140.118 26.8269 140.783 27.0808C141.449 27.335 142.207 27.3374 142.936 27.3338C150.191 27.3045 157.445 27.2755 164.7 27.2462C166.251 27.2394 167.815 27.2327 169.337 26.9753C169.735 26.9091 170.153 26.8135 170.429 26.5605C170.858 26.1659 170.771 25.5071 170.393 25.0776C170.251 24.9189 170.081 24.7852 169.892 24.6695C167.686 25.2136 165.252 25.0169 162.959 24.6706C162.175 24.5512 161.338 24.393 160.801 23.8949C160.707 23.8085 160.631 23.7073 160.571 23.5983C160.536 23.605 160.502 23.6094 160.467 23.6161C159.344 22.1008 156.73 21.5523 154.901 22.447C155.758 21.3881 155.672 19.8501 154.701 18.8642C153.73 17.8782 151.958 17.5309 150.574 18.0559C153.174 16.2244 154.25 13.089 153.542 10.3124C153.208 12.2236 152.422 14.0872 151.021 15.6006C149.366 17.3904 146.779 18.6314 144.096 18.5682C143.736 16.2299 141.947 14.0827 139.468 13.0104C140.811 13.8793 140.846 15.7715 139.696 16.8212C138.546 17.8714 136.536 18.0535 135.014 17.4284C133.493 16.8034 132.459 15.4982 132.06 14.1066C131.468 12.0368 132.303 10.2965 133.579 8.62598C133.077 8.79449 132.563 9.02183 132.17 9.19034C126.977 11.4228 127.413 18.0681 132.345 20.3739C131.817 20.2207 131.279 20.0895 130.736 19.978C128.951 20.377 126.969 20.6277 125.204 21.0338C123.337 21.4641 121.461 22.4401 120.896 24.0071C120.61 23.8072 120.307 23.6203 119.99 23.4518C119.281 23.3306 118.546 23.2203 117.839 23.3507Z" fill="#F6F9FC"/>
<path fill-rule="evenodd" clip-rule="evenodd" d="M132.345 20.3748C127.413 18.0691 126.977 11.4237 132.169 9.19131C132.563 9.0228 133.076 8.79547 133.579 8.62695C130.982 9.69617 129.636 12.2356 129.59 14.6818C129.567 15.9489 129.826 17.2933 130.802 18.2535C131.684 19.1181 133.049 19.5508 134.393 19.6194C135.739 19.6892 137.078 19.4294 138.368 19.0979C136.843 20.3161 134.181 21.2326 132.345 20.3748Z" fill="#EBF4F8"/>
<path fill-rule="evenodd" clip-rule="evenodd" d="M154.902 22.4464C155.758 21.3875 155.673 19.8495 154.702 18.8636C153.73 17.8776 151.958 17.5303 150.575 18.0553C151.597 17.8955 152.57 18.7105 152.775 19.5731C152.978 20.4353 152.557 21.3277 151.944 22.0371C151.689 22.3338 151.392 22.6137 151.015 22.7926C150.444 23.0647 149.754 23.0782 149.099 23.0512C147.599 22.9894 145.901 22.634 145.211 21.5041C145.08 22.3754 145.784 23.2209 146.692 23.6449C147.599 24.0709 148.67 24.1554 149.708 24.172C150.687 24.1891 151.681 24.153 152.617 23.9111C153.555 23.6684 154.349 23.1309 154.902 22.4464Z" fill="#EBF4F8"/>
<path fill-rule="evenodd" clip-rule="evenodd" d="M170.393 25.0778C170.772 25.5073 170.858 26.166 170.429 26.5607C170.153 26.8137 169.735 26.9093 169.337 26.9756C167.815 27.233 166.251 27.2397 164.7 27.2464C157.445 27.2757 150.191 27.3048 142.936 27.3341C142.207 27.3376 141.449 27.3352 140.783 27.081C140.118 26.8272 139.567 26.2447 139.668 25.6319C140.818 26.3168 142.191 26.4516 143.596 26.4952C145.296 26.5484 147.018 26.5472 148.673 26.2108C150.328 25.8749 151.928 25.1734 152.977 24.0391C153.107 24.9798 152.554 25.9658 151.611 26.4741C156.52 25.9625 161.491 26.4424 166.437 26.3627C167.877 26.339 169.86 26.212 170.393 25.0778Z" fill="#EBF4F8"/>
<path fill-rule="evenodd" clip-rule="evenodd" d="M139.668 25.6316C138.608 26.3423 137.357 26.8931 136.012 27.0168C134.667 27.1405 133.223 26.792 132.31 25.9464C128.082 26.9165 123.617 27.1414 119.283 26.602C118.569 26.5132 117.837 26.3961 117.235 26.0599C116.632 25.7239 116.188 25.1147 116.32 24.5155C116.898 25.4618 118.416 25.6652 119.67 25.7553C121.115 25.86 122.579 25.77 123.992 25.4924C123.33 25.3754 122.715 25.0787 122.26 24.656C126.125 25.4575 130.296 25.1628 133.951 23.8318C133.796 24.4323 134.241 25.0641 134.874 25.3631C135.507 25.6633 136.279 25.68 136.991 25.5641C139.349 25.1798 141.235 23.2845 141.282 21.252C141.66 22.7367 141.074 24.6884 139.668 25.6316Z" fill="#EBF4F8"/>
<path fill-rule="evenodd" clip-rule="evenodd" d="M183.232 56.6777C185.086 52.7451 190.686 51.1805 194.31 53.5827C196.403 50.843 200.078 49.4074 203.474 50.0022C206.87 50.5967 209.836 53.1948 210.874 56.4822C212.707 56.1776 214.799 57.0712 215.471 58.8035C216.142 60.5362 214.844 62.8464 212.987 62.8293C212.376 62.8237 211.759 62.5957 211.17 62.7528C210.697 62.8788 210.325 63.233 209.953 63.5511C205.297 67.5409 197.356 66.7572 193.567 61.9346C190.89 64.2686 186.448 64.2099 183.835 61.8053C184.186 62.1277 180.18 62.9621 179.725 62.8912C178.261 62.662 176.425 61.7783 176.18 60.1492C175.668 56.7396 180.856 55.0521 183.232 56.6777Z" fill="white"/>
<path fill-rule="evenodd" clip-rule="evenodd" d="M176.18 60.1498C176.425 61.7789 178.261 62.6626 179.725 62.8918C180.18 62.9628 184.186 62.1283 183.835 61.8059C186.449 64.2105 190.89 64.2691 193.567 61.9352C197.356 66.7578 205.297 67.5415 209.953 63.5517C210.325 63.2336 210.697 62.8795 211.17 62.7534C211.759 62.5963 212.376 62.8243 212.987 62.8299C214.844 62.847 216.142 60.5368 215.471 58.8041C214.799 57.0718 212.707 56.1783 210.874 56.4828C210.549 55.4541 210.036 54.4927 209.379 53.6385C209.553 55.579 208.936 57.5945 207.65 59.0639C206.966 59.8452 206.104 60.4794 205.129 60.8347C203.722 61.3483 202.173 61.2618 200.687 61.0798C199.69 60.9572 198.677 60.7863 197.788 60.3163C196.902 59.8452 196.147 59.0222 195.997 58.0296C195.869 57.1852 196.184 56.3353 196.592 55.5869C197.217 54.44 198.077 53.4215 199.104 52.6133C196.366 53.0753 193.947 55.0932 193 57.7036C192.867 58.0712 192.751 58.4671 192.465 58.7356C192.23 58.9572 191.911 59.0616 191.599 59.1497C190.072 59.5824 188.475 59.7687 186.889 59.7037C185.556 59.6474 184.07 59.3115 183.359 58.1816C182.887 58.8685 182.202 59.4654 181.378 59.5923C180.555 59.7183 179.612 59.2338 179.437 58.4187C179.299 57.7766 179.656 57.108 180.165 56.6931C180.348 56.5436 181.008 56.3108 181.381 56.0737C178.878 55.8646 175.779 57.4776 176.18 60.1498Z" fill="#F6F9FC"/>
<path fill-rule="evenodd" clip-rule="evenodd" d="M193.565 61.9348C197.353 66.7574 205.295 67.5411 209.951 63.5513C210.323 63.2332 210.695 62.8791 211.168 62.753C211.757 62.5959 212.374 62.8239 212.984 62.8295C214.842 62.8466 216.14 60.5364 215.469 58.8037C215.182 60.0022 214.1 61.0366 212.969 61.5224C211.836 62.0067 210.476 61.9233 209.412 61.3043C209.034 62.5555 207.964 63.5109 206.76 64.0201C205.556 64.5294 204.225 64.6452 202.917 64.6634C202.012 64.6756 201.099 64.6428 200.216 64.4461C198.697 64.1114 197.327 63.3118 196.011 62.4833C194.938 61.8079 193.79 60.9722 193.557 59.727C193.519 60.3821 193.604 61.2792 193.565 61.9348Z" fill="#EBF4F8"/>
<path fill-rule="evenodd" clip-rule="evenodd" d="M193.567 61.9354C190.89 64.2694 186.448 64.2107 183.835 61.8061C184.186 62.1286 180.18 62.963 179.725 62.892C178.261 62.6628 176.425 61.7792 176.18 60.15C175.779 57.4778 178.878 55.8648 181.381 56.0738C180.146 56.3807 178.879 56.852 178.227 57.9445C177.575 59.0371 177.702 60.6457 178.747 61.373C179.433 61.8509 180.34 61.868 181.167 61.7443C182.165 61.5936 183.229 61.1878 183.691 60.2919C184.882 61.5678 186.619 62.2321 188.355 62.4122C190.091 62.5906 191.856 62.2773 193.567 61.9354Z" fill="#EBF4F8"/>
<path fill-rule="evenodd" clip-rule="evenodd" d="M100.924 44.5309C102.197 41.8329 106.038 40.7589 108.525 42.4072C109.96 40.5274 112.481 39.5426 114.811 39.9506C117.141 40.3576 119.177 42.1407 119.888 44.396C121.145 44.1866 122.581 44.8006 123.042 45.9887C123.501 47.177 122.611 48.7609 121.336 48.7499C120.918 48.7467 120.494 48.5905 120.091 48.6983C119.766 48.7848 119.511 49.0275 119.256 49.2456C116.061 51.9821 110.614 51.4447 108.015 48.1359C106.178 49.7369 103.132 49.6965 101.338 48.0471C101.58 48.2688 98.8307 48.8422 98.5182 48.7927C97.5144 48.6353 96.2553 48.0292 96.0867 46.9117C95.7357 44.5725 99.2951 43.4156 100.924 44.5309Z" fill="white"/>
<path fill-rule="evenodd" clip-rule="evenodd" d="M96.0868 46.9113C96.2553 48.029 97.5145 48.6349 98.5183 48.7923C98.8308 48.842 101.58 48.2685 101.338 48.0467C103.132 49.6962 106.179 49.7366 108.016 48.1355C110.614 51.4444 116.062 51.9817 119.257 49.2452C119.512 49.0271 119.766 48.7844 120.091 48.6979C120.494 48.5901 120.918 48.7463 121.336 48.7495C122.611 48.7606 123.501 47.1766 123.042 45.9884C122.581 44.8002 121.145 44.1863 119.888 44.3957C119.666 43.6894 119.313 43.0294 118.862 42.444C118.982 43.7761 118.559 45.1575 117.676 46.166C117.207 46.7022 116.616 47.1373 115.947 47.3812C114.981 47.7333 113.919 47.6735 112.899 47.5489C112.215 47.4644 111.52 47.3475 110.91 47.0251C110.302 46.7022 109.785 46.1379 109.682 45.4566C109.594 44.8779 109.81 44.2941 110.09 43.7805C110.519 42.9936 111.109 42.2953 111.813 41.7412C109.936 42.058 108.275 43.4422 107.626 45.2329C107.534 45.4859 107.455 45.7567 107.259 45.9412C107.098 46.0931 106.879 46.1638 106.665 46.2244C105.618 46.5215 104.521 46.6496 103.433 46.6048C102.519 46.5664 101.5 46.3359 101.012 45.5614C100.688 46.0325 100.219 46.4418 99.6536 46.5282C99.0881 46.6147 98.4417 46.2832 98.3215 45.7231C98.2259 45.2825 98.471 44.8241 98.8208 44.5393C98.9464 44.4369 99.3994 44.2776 99.6548 44.1145C97.9381 43.9717 95.8111 45.0779 96.0868 46.9113Z" fill="#F6F9FC"/>
<path fill-rule="evenodd" clip-rule="evenodd" d="M108.013 48.1354C110.611 51.4443 116.059 51.9816 119.254 49.2451C119.509 49.027 119.763 48.7843 120.088 48.6978C120.492 48.59 120.915 48.7462 121.334 48.7494C122.608 48.7605 123.499 47.1765 123.039 45.9883C122.842 46.8101 122.1 47.5195 121.323 47.8522C120.547 48.1849 119.614 48.1279 118.884 47.7039C118.624 48.5618 117.89 49.2169 117.064 49.5667C116.239 49.9153 115.325 49.995 114.429 50.0073C113.807 50.0153 113.181 49.9926 112.575 49.859C111.533 49.6285 110.593 49.0797 109.69 48.5122C108.954 48.049 108.167 47.4755 108.007 46.6213C107.98 47.071 108.039 47.6862 108.013 48.1354Z" fill="#EBF4F8"/>
<path fill-rule="evenodd" clip-rule="evenodd" d="M108.016 48.1359C106.179 49.7369 103.132 49.6965 101.338 48.0471C101.58 48.2688 98.8308 48.8422 98.5183 48.7927C97.5145 48.6353 96.2554 48.0292 96.0868 46.9117C95.8111 45.0782 97.9381 43.9721 99.6549 44.1149C98.8082 44.3251 97.9393 44.6487 97.4919 45.3974C97.0445 46.1473 97.1322 47.2515 97.8484 47.7504C98.3191 48.0788 98.941 48.0899 99.5085 48.0046C100.192 47.9023 100.923 47.6235 101.24 47.0083C102.056 47.8841 103.249 48.3393 104.439 48.463C105.63 48.5857 106.841 48.3712 108.016 48.1359Z" fill="#EBF4F8"/>
<path fill-rule="evenodd" clip-rule="evenodd" d="M148.034 50.5722C145.971 50.8221 144.136 52.4129 143.594 54.4193C141.792 53.3572 139.303 53.6348 137.778 55.0681C136.777 56.0092 136.25 57.7079 137.158 58.7386C135.968 59.6087 135.746 61.5302 136.703 62.6498C137.66 63.7706 139.592 63.8491 140.637 62.8105C141.597 64.4687 143.411 65.6021 145.323 65.737C146.426 65.8155 147.72 65.5446 148.713 65.0623C149.003 64.9208 150.818 63.5549 150.363 63.0869C151.326 64.0764 152.557 64.8566 153.924 65.0512C155.291 65.2468 156.791 64.7792 157.631 63.6842C158.472 62.5892 158.474 60.8612 157.479 59.9035C158.519 59.4605 159.239 58.3532 159.219 57.2233C159.201 56.1271 158.339 54.8334 157.313 54.3936C156.832 54.1877 154.014 54.3115 154.123 55.2415C153.973 53.9486 153.31 52.7962 152.359 51.9542C151.21 50.9387 149.639 50.3767 148.034 50.5722Z" fill="white"/>
<path fill-rule="evenodd" clip-rule="evenodd" d="M154.125 55.2413C153.974 53.9484 153.312 52.7959 152.361 51.954C151.212 50.9386 149.64 50.3767 148.035 50.5722C149.13 50.9894 150.017 51.8528 150.795 52.7285C151.614 53.6494 152.377 54.6409 152.871 55.7696C153.365 56.8995 153.575 58.1845 153.268 59.3782C153.844 58.1753 154.279 56.5667 154.125 55.2413Z" fill="#F6F9FC"/>
<path fill-rule="evenodd" clip-rule="evenodd" d="M137.158 58.7379C135.968 59.608 135.746 61.5295 136.703 62.6491C137.66 63.7699 139.592 63.8485 140.637 62.8098C141.597 64.468 143.411 65.6014 145.323 65.7363C146.426 65.8148 147.72 65.544 148.713 65.0617C149.003 64.9201 150.818 63.5543 150.363 63.0863C151.326 64.0758 152.557 64.8559 153.924 65.0506C155.291 65.2462 156.791 64.7786 157.631 63.6836C158.472 62.5886 158.474 60.8606 157.479 59.9028C158.519 59.4598 159.239 58.3526 159.219 57.2215C159.201 56.1265 158.339 54.8328 157.313 54.393C157.284 54.3808 157.245 54.3696 157.2 54.3593C157.575 54.8876 157.742 55.559 157.551 56.1726C157.278 57.0487 156.166 57.613 155.36 57.172C156.108 59.2284 154.761 61.7835 152.642 62.3277C153.147 60.9055 152.742 59.2046 151.649 58.1639C151.172 60.0806 149.478 61.6329 147.528 61.9434C145.578 62.2536 143.485 61.3013 142.439 59.6274C141.293 59.8522 139.962 60.0311 139.087 59.259C138.318 58.5796 138.222 57.3902 138.499 56.4035C138.817 55.2779 139.493 54.4888 140.348 53.8423C139.395 53.993 138.483 54.4055 137.779 55.0678C136.777 56.0086 136.25 57.7072 137.158 58.7379Z" fill="#F6F9FC"/>
<path fill-rule="evenodd" clip-rule="evenodd" d="M153.926 65.0513C155.293 65.2468 156.792 64.7792 157.632 63.6842C158.473 62.5892 158.475 60.8613 157.48 59.9035C158.52 59.4605 159.24 58.3532 159.221 57.2222C159.056 58.4611 157.906 59.33 156.656 59.3435C157.203 60.3969 157.248 61.6989 156.776 62.7879C156.303 63.8785 155.069 64.7296 153.926 65.0513Z" fill="#EBF4F8"/>
<path fill-rule="evenodd" clip-rule="evenodd" d="M150.363 63.0861C150.818 63.5541 149.003 64.92 148.713 65.0615C147.72 65.5438 146.426 65.8147 145.323 65.7362C143.411 65.6014 141.597 64.4679 140.637 62.8097C139.592 63.8483 137.66 63.7698 136.703 62.649C135.746 61.5294 135.968 59.6079 137.158 58.7378C136.871 59.3089 136.835 59.9914 136.864 60.6287C136.894 61.2673 137.16 61.9093 137.657 62.3107C138.192 62.7434 138.945 62.8524 139.611 62.6816C140.277 62.5094 140.856 62.0811 141.299 61.5564C141.558 62.7838 142.493 63.8022 143.618 64.3599C144.743 64.9152 146.038 65.0512 147.29 64.9616C147.902 64.9164 148.521 64.8175 149.078 64.5566C149.633 64.2961 150.139 63.6584 150.363 63.0861Z" fill="#EBF4F8"/>
<path fill-rule="evenodd" clip-rule="evenodd" d="M88.3605 50.2687C87.3384 48.1014 84.2525 47.2387 82.2549 48.5634C81.9535 48.1676 81.5926 47.8226 81.1888 47.5322C77.9368 49.8626 74.7283 51.846 71.5781 53.5986C71.7007 53.6379 71.83 53.6592 71.9636 53.6581C72.2999 53.6549 72.6406 53.5299 72.9654 53.6164C73.2263 53.6862 73.431 53.8805 73.6352 54.0563C76.2019 56.2538 80.5772 55.8223 82.6649 53.1647C84.1399 54.4508 86.5872 54.4191 88.0277 53.0937C87.8341 53.2714 90.0408 53.731 90.2926 53.6918C91.0989 53.5661 92.1106 53.0791 92.2455 52.1807C92.5278 50.3025 89.6688 49.3725 88.3605 50.2687Z" fill="white"/>
<path fill-rule="evenodd" clip-rule="evenodd" d="M92.2455 52.1815C92.1106 53.0797 91.0989 53.5667 90.2926 53.6925C90.0408 53.7318 87.8341 53.2721 88.0277 53.0944C86.5872 54.4199 84.1399 54.4515 82.6649 53.1654C80.5772 55.823 76.202 56.2544 73.6352 54.057C73.431 53.8813 73.2263 53.6869 72.9654 53.6171C72.6406 53.5306 72.2999 53.6555 71.9636 53.6588C71.83 53.6599 71.7007 53.6386 71.5781 53.5993C72.6977 52.9774 73.8232 52.3278 74.9564 51.6421C75.324 52.0454 75.7805 52.3726 76.2933 52.5594C77.0686 52.8426 77.9221 52.7953 78.7415 52.6941C79.2916 52.6267 79.8488 52.5336 80.339 52.2738C80.8272 52.014 81.2429 51.5611 81.3262 51.0134C81.396 50.5494 81.2227 50.0803 80.9982 49.6678C80.736 49.1867 80.3989 48.7461 80.0032 48.3669C80.0864 48.3086 80.1693 48.2491 80.2527 48.1904C81.4892 48.6112 82.5303 49.6027 82.9764 50.8337C83.0509 51.0371 83.1148 51.2541 83.2723 51.4024C83.4016 51.5249 83.578 51.5825 83.749 51.6304C84.591 51.8687 85.4714 51.9723 86.3448 51.9354C87.08 51.9048 87.8986 51.7204 88.2897 51.0978C88.5506 51.4753 88.927 51.8049 89.3812 51.8747C89.8356 51.9441 90.3548 51.678 90.4515 51.2283C90.5281 50.8741 90.3302 50.5053 90.0502 50.2773C89.949 50.1953 89.5851 50.0667 89.3804 49.9355C90.7595 49.8209 92.4672 50.71 92.2455 52.1815Z" fill="#F6F9FC"/>
<path fill-rule="evenodd" clip-rule="evenodd" d="M82.6649 53.1656C80.5772 55.8232 76.202 56.2546 73.6352 54.0572C73.431 53.8815 73.2263 53.6871 72.9654 53.6173C72.6406 53.5308 72.2999 53.6557 71.9636 53.659C71.83 53.6601 71.7007 53.6388 71.5781 53.5995C71.8815 53.431 72.1865 53.2588 72.4899 53.0855C72.9821 53.1609 73.5016 53.07 73.9323 52.8182C74.1413 53.5082 74.7303 54.0345 75.3938 54.3145C76.0568 54.5953 76.791 54.6596 77.5104 54.6699C78.0097 54.6766 78.5122 54.6584 79 54.5505C79.8364 54.3649 80.5919 53.9242 81.3174 53.4678C81.9087 53.0958 82.5405 52.6361 82.6685 51.9492C82.6898 52.3102 82.6434 52.8046 82.6649 53.1656Z" fill="#EBF4F8"/>
<path fill-rule="evenodd" clip-rule="evenodd" d="M82.6641 53.1655C84.139 54.4517 86.5864 54.4199 88.0268 53.0945C87.8333 53.2723 90.04 53.7318 90.2918 53.6926C91.0981 53.5669 92.1098 53.0799 92.2447 52.1816C92.4663 50.7102 90.7586 49.821 89.3792 49.9357C90.0594 50.1055 90.7575 50.3652 91.1171 50.9665C91.4756 51.5693 91.4058 52.4549 90.8304 52.8562C90.4528 53.1195 89.9523 53.1294 89.4971 53.0609C88.9474 52.9776 88.3604 52.754 88.1066 52.2606C87.4498 52.9634 86.492 53.3298 85.5355 53.4285C84.58 53.5276 83.6063 53.3543 82.6641 53.1655Z" fill="#EBF4F8"/>
<path fill-rule="evenodd" clip-rule="evenodd" d="M191.302 34.5222C190.029 31.8229 186.188 30.7506 183.703 32.3977C182.266 30.519 179.747 29.5343 177.416 29.9424C175.087 30.3493 173.051 32.1324 172.339 34.3874C171.082 34.1784 169.646 34.792 169.186 35.9793C168.725 37.1687 169.616 38.7527 170.89 38.7412C171.308 38.7381 171.732 38.5818 172.137 38.6897C172.461 38.7761 172.716 39.0181 172.971 39.237C176.166 41.9735 181.614 41.4361 184.212 38.1276C186.049 39.7283 189.095 39.6878 190.888 38.0388C190.648 38.2602 193.395 38.8324 193.708 38.7841C194.712 38.6266 195.972 38.0206 196.141 36.9034C196.491 34.5638 192.932 33.4058 191.302 34.5222Z" fill="white"/>
<path fill-rule="evenodd" clip-rule="evenodd" d="M196.141 36.9033C195.972 38.0205 194.712 38.6265 193.708 38.784C193.395 38.8324 190.648 38.2601 190.888 38.0387C189.095 39.6878 186.049 39.7282 184.212 38.1275C181.614 41.436 176.166 41.9733 172.971 39.2369C172.716 39.0179 172.461 38.776 172.137 38.6895C171.732 38.5817 171.308 38.738 170.89 38.7411C169.616 38.7526 168.725 37.1686 169.186 35.9792C169.646 34.7918 171.082 34.1783 172.339 34.3873C172.562 33.6814 172.915 33.0214 173.365 32.4357C173.245 33.7678 173.669 35.1496 174.55 36.1577C175.019 36.6943 175.612 37.1294 176.281 37.3733C177.245 37.725 178.308 37.6656 179.328 37.5406C180.012 37.4561 180.707 37.3396 181.316 37.0168C181.925 36.6943 182.442 36.13 182.546 35.4487C182.632 34.8696 182.418 34.2862 182.136 33.7722C181.708 32.9854 181.118 32.2874 180.413 31.7329C182.292 32.0502 183.952 33.4339 184.601 35.225C184.692 35.4776 184.773 35.7488 184.967 35.932C185.129 36.0848 185.348 36.1558 185.562 36.2164C186.61 36.5131 187.705 36.6412 188.794 36.5964C189.708 36.5584 190.728 36.3275 191.214 35.5522C191.539 36.0241 192.008 36.4334 192.574 36.5198C193.139 36.6063 193.786 36.2748 193.906 35.7151C194.001 35.2741 193.755 34.8157 193.406 34.5313C193.281 34.4289 192.828 34.2692 192.572 34.1061C194.289 33.9634 196.415 35.0695 196.141 36.9033Z" fill="#F6F9FC"/>
<path fill-rule="evenodd" clip-rule="evenodd" d="M184.212 38.1264C181.614 41.4348 176.166 41.9721 172.971 39.2357C172.716 39.0168 172.461 38.7748 172.137 38.6884C171.732 38.5805 171.308 38.7368 170.89 38.7399C169.616 38.7514 168.725 37.1674 169.186 35.978C169.382 36.801 170.124 37.51 170.901 37.8428C171.678 38.1755 172.61 38.1184 173.341 37.6933C173.6 38.5523 174.335 39.2078 175.16 39.5572C175.986 39.9058 176.9 39.9855 177.796 39.9979C178.417 40.0058 179.042 39.9836 179.65 39.8495C180.691 39.6192 181.632 39.0706 182.534 38.5027C183.27 38.0395 184.058 37.4664 184.217 36.6117C184.243 37.0615 184.186 37.6766 184.212 38.1264Z" fill="#EBF4F8"/>
<path fill-rule="evenodd" clip-rule="evenodd" d="M184.211 38.127C186.048 39.7276 189.095 39.6872 190.888 38.0382C190.647 38.2595 193.395 38.8317 193.707 38.7834C194.711 38.626 195.971 38.02 196.14 36.9028C196.414 35.0689 194.288 33.9629 192.571 34.1056C193.418 34.3158 194.287 34.6398 194.735 35.3881C195.182 36.1381 195.094 37.2422 194.378 37.7412C193.907 38.0696 193.285 38.0806 192.718 37.9953C192.033 37.893 191.304 37.6142 190.987 36.9995C190.171 37.8752 188.978 38.3304 187.787 38.4541C186.595 38.5768 185.385 38.3618 184.211 38.127Z" fill="#EBF4F8"/>
</svg>
