<svg width="266" height="180" viewBox="0 0 266 180" fill="none" xmlns="http://www.w3.org/2000/svg">
<path fill-rule="evenodd" clip-rule="evenodd" d="M239.568 20.5494C237.072 20.5494 235.049 18.5271 235.049 16.0323C235.049 13.5374 237.072 11.5151 239.568 11.5151C242.062 11.5151 244.084 13.5374 244.084 16.0323C244.084 18.5271 242.062 20.5494 239.568 20.5494ZM47.7532 128.857H23.6176C10.6279 128.857 0 139.485 0 152.475C0 165.465 10.6279 176.092 23.6176 176.092H227.701C248.735 176.092 265.943 158.883 265.943 137.848C265.943 116.815 248.735 99.605 227.701 99.605C218.808 99.605 211.53 92.3275 211.53 83.4342C211.53 74.5403 218.808 67.264 227.701 67.264H247.162C256.408 67.264 263.974 59.6988 263.974 50.4518C263.974 41.2055 256.408 33.6402 247.162 33.6402H222.552C218.953 33.6402 216.007 30.6946 216.007 27.0943C216.007 23.4951 218.953 20.5496 222.552 20.5496H226.89C229.375 20.5496 231.408 18.5171 231.408 16.0324C231.408 13.5482 229.374 11.5153 226.89 11.5153H210.632C210.632 11.5153 204.419 11.5153 198.425 11.5153C192.43 11.5153 191.762 18.5977 176.619 18.5977C153.21 18.5977 164.913 18.5977 141.505 18.5977C138.262 18.5977 135.61 21.2502 135.61 24.4916C135.61 27.7334 138.262 30.386 141.505 30.386H147.165C151.862 30.386 155.706 34.2297 155.706 38.9264V38.9274C155.706 43.6235 151.862 47.4672 147.165 47.4672H130.128C107.124 47.4672 103.875 53.4791 99.8457 65.4366C95.8167 77.393 74.892 78.3574 74.892 78.3574H46.2803C39.2016 78.3574 33.4097 84.1488 33.4097 91.2275C33.4097 98.3064 39.2016 104.098 46.2803 104.098H47.7532C54.5618 104.098 60.1326 109.669 60.1326 116.478C60.1325 123.287 54.5618 128.857 47.7532 128.857Z" fill="#C4E3FB"/>
<path fill-rule="evenodd" clip-rule="evenodd" d="M131.599 180C200.15 180 256.061 177.895 256.061 175.313C256.061 172.73 200.15 170.624 131.599 170.624C63.0474 170.624 7.13672 172.73 7.13672 175.313C7.13672 177.895 63.0472 180 131.599 180Z" fill="#C4D2EC"/>
<path fill-rule="evenodd" clip-rule="evenodd" d="M105.74 56.2049C105.086 56.7741 104.093 56.7058 103.523 56.051C102.953 55.3964 103.022 54.4037 103.676 53.8339L108.158 49.9361C108.813 49.3663 109.806 49.4347 110.375 50.0894C110.945 50.7436 110.876 51.7369 110.222 52.3067L105.74 56.2049Z" fill="#F6EAE0"/>
<path fill-rule="evenodd" clip-rule="evenodd" d="M154.63 31.9571C153.772 32.0826 152.974 31.4882 152.848 30.6306C152.725 29.7725 153.318 28.9748 154.177 28.8492L160.832 27.8506C161.689 27.7257 162.487 28.3199 162.612 29.1775C162.738 30.0357 162.143 30.8336 161.286 30.9585L154.63 31.9571Z" fill="#F6EAE0"/>
<path fill-rule="evenodd" clip-rule="evenodd" d="M200.062 51.9029C199.445 51.2963 199.436 50.3031 200.044 49.6862C200.651 49.0694 201.643 49.0614 202.26 49.668L208.001 55.3259C208.617 55.9325 208.626 56.9252 208.019 57.5421C207.412 58.1594 206.419 58.1674 205.802 57.5602L200.062 51.9029Z" fill="#F6EAE0"/>
<path fill-rule="evenodd" clip-rule="evenodd" d="M212.936 101.946C213.193 101.119 214.073 100.657 214.901 100.915C215.729 101.171 216.19 102.052 215.933 102.88L214.263 108.184C214.007 109.012 213.126 109.474 212.298 109.217C211.471 108.96 211.009 108.079 211.267 107.252L212.936 101.946Z" fill="#F6EAE0"/>
<path d="M89.158 101.658C103.889 101.658 115.832 89.7156 115.832 74.9842C115.832 60.2527 103.889 48.3105 89.158 48.3105C74.4266 48.3105 62.4844 60.2527 62.4844 74.9842C62.4844 89.7156 74.4266 101.658 89.158 101.658Z" fill="#F6EAE0"/>
<path fill-rule="evenodd" clip-rule="evenodd" d="M89.1595 50.9106C102.455 50.9106 113.234 61.6886 113.234 74.9842C113.234 88.2794 102.455 99.0585 89.1595 99.0585C75.8638 99.0585 65.0859 88.2794 65.0859 74.9842C65.0859 61.6886 75.8639 50.9106 89.1595 50.9106Z" fill="white"/>
<path fill-rule="evenodd" clip-rule="evenodd" d="M71.6343 113.873H221.169C222.045 113.873 222.761 114.59 222.761 115.465V115.791C222.761 116.666 222.043 117.383 221.169 117.383H71.6343C70.759 117.383 70.043 116.666 70.043 115.791V115.465C70.0429 114.59 70.759 113.873 71.6343 113.873Z" fill="#DEB28F"/>
<path d="M214.168 117.382H212.066V173.762H214.168V117.382Z" fill="#C4997A"/>
<path d="M212.065 117.382H165.57V170.625H212.065V117.382Z" fill="#E5BB9A"/>
<path fill-rule="evenodd" clip-rule="evenodd" d="M165.57 130.074H212.065V131.071H165.57V130.074ZM165.57 156.688H212.065V157.683H165.57V156.688Z" fill="#C4997A"/>
<path d="M166.62 117.382H164.52V173.762H166.62V117.382Z" fill="#C4997A"/>
<path fill-rule="evenodd" clip-rule="evenodd" d="M150.425 76.064L112.957 82.5328L114.178 106.936L151.153 107.218L150.425 76.064Z" fill="#96ACD9"/>
<path fill-rule="evenodd" clip-rule="evenodd" d="M149.073 77.8232L114.523 83.4559L115.407 105.848L149.827 105.795L149.073 77.8232Z" fill="#EBF1F9"/>
<path fill-rule="evenodd" clip-rule="evenodd" d="M151.135 107.218C151.141 107.218 151.148 107.218 151.154 107.218L150.426 76.064L151.583 76.7165L151.831 106.968L151.154 107.218H151.135Z" fill="#6086C4"/>
<path fill-rule="evenodd" clip-rule="evenodd" d="M134.052 111.992L129.148 111.913L131.331 107.534L131.31 107.066L136.039 107.103L136.072 107.6L134.052 111.992Z" fill="#5A88F0"/>
<path fill-rule="evenodd" clip-rule="evenodd" d="M129.151 111.913L134.054 111.992L134.144 113.182L129.218 113.054L129.145 111.926L129.151 111.913Z" fill="#96ACD9"/>
<path fill-rule="evenodd" clip-rule="evenodd" d="M134.055 111.992L136.075 107.6L136.042 107.103L136.379 107.105L136.402 107.627L134.213 112.02L134.288 113.147L134.144 113.182L134.142 113.12L134.055 111.992Z" fill="#6086C4"/>
<path fill-rule="evenodd" clip-rule="evenodd" d="M136.874 113.039L134.217 112.098L134.211 112.02L134.736 110.967L136.757 110.836L141.352 112.404L136.874 113.039ZM122.097 112.755L121.668 112.002L129.422 111.366L129.149 111.913L129.143 111.926L129.155 112.116L122.105 112.769L122.097 112.755Z" fill="#ADC4E6"/>
<path fill-rule="evenodd" clip-rule="evenodd" d="M141.823 113.642L137.269 114.32L134.271 113.152L134.287 113.147L134.219 112.098L136.876 113.038L141.354 112.404L141.383 112.481L141.823 113.642Z" fill="#6086C4"/>
<path fill-rule="evenodd" clip-rule="evenodd" d="M129.21 112.95L120.984 113.739L122.097 112.754L122.105 112.769L129.155 112.116L129.21 112.95Z" fill="#6086C4"/>
<path fill-rule="evenodd" clip-rule="evenodd" d="M122.106 112.769L120.985 113.739L120.621 113.002L121.669 112.001L122.106 112.769Z" fill="#6086C4"/>
<path fill-rule="evenodd" clip-rule="evenodd" d="M119.27 106.355C119.193 106.36 119.135 106.43 119.141 106.508C119.147 106.586 119.215 106.645 119.292 106.639C119.37 106.632 119.427 106.564 119.421 106.486C119.415 106.407 119.348 106.349 119.27 106.355Z" fill="#E4E5E5"/>
<path fill-rule="evenodd" clip-rule="evenodd" d="M118.122 106.338C118.044 106.344 117.987 106.413 117.993 106.492C117.998 106.571 118.066 106.628 118.144 106.623C118.221 106.618 118.279 106.548 118.273 106.47C118.266 106.391 118.199 106.332 118.122 106.338Z" fill="#E4E5E5"/>
<path fill-rule="evenodd" clip-rule="evenodd" d="M116.973 106.322C116.896 106.327 116.838 106.396 116.844 106.474C116.85 106.553 116.918 106.612 116.995 106.607C117.073 106.6 117.13 106.532 117.124 106.453C117.119 106.374 117.051 106.316 116.973 106.322Z" fill="#E4E5E5"/>
<path fill-rule="evenodd" clip-rule="evenodd" d="M115.71 106.156C115.547 106.169 115.426 106.313 115.438 106.479C115.451 106.643 115.593 106.767 115.756 106.754C115.918 106.742 116.04 106.598 116.027 106.433C116.015 106.267 115.873 106.143 115.71 106.156Z" fill="#E4E5E5"/>
<path fill-rule="evenodd" clip-rule="evenodd" d="M149.113 79.3297L114.558 84.3376L114.523 83.4559L149.073 77.8232L149.113 79.3297Z" fill="#D6E4F4"/>
<path fill-rule="evenodd" clip-rule="evenodd" d="M147.963 78.4312C147.773 78.4461 147.631 78.6117 147.646 78.8018C147.661 78.992 147.826 79.1339 148.016 79.1195C148.206 79.1046 148.348 78.939 148.335 78.7489C148.32 78.5589 148.153 78.4168 147.963 78.4312Z" fill="white"/>
<path fill-rule="evenodd" clip-rule="evenodd" d="M146.616 78.6529C146.426 78.6678 146.283 78.8334 146.298 79.0234C146.313 79.2135 146.479 79.3556 146.669 79.3412C146.859 79.3263 147.001 79.1606 146.986 78.9706C146.971 78.7804 146.806 78.6384 146.616 78.6529Z" fill="white"/>
<path fill-rule="evenodd" clip-rule="evenodd" d="M145.271 78.8745C145.081 78.8895 144.94 79.055 144.954 79.2452C144.968 79.4353 145.135 79.5778 145.325 79.5629C145.515 79.5479 145.658 79.3824 145.643 79.1922C145.628 79.0022 145.461 78.8602 145.271 78.8745Z" fill="white"/>
<path fill-rule="evenodd" clip-rule="evenodd" d="M107.458 134.098C107.458 138.844 106.067 142.689 104.353 142.689C102.638 142.689 101.246 138.844 101.246 134.098C101.246 129.355 102.638 125.509 104.353 125.509C106.067 125.509 107.458 129.355 107.458 134.098Z" fill="#C4D1EB"/>
<path fill-rule="evenodd" clip-rule="evenodd" d="M85.6484 86.1029C85.871 85.3061 86.0752 84.4693 86.2369 83.9807C93.3386 83.5711 92.811 81.7736 92.6257 80.9609C91.5556 77.0712 90.9185 74.6196 92.0378 73.5825C92.5372 73.8766 93.5848 74.5484 93.863 76.2407C94.3287 76.0148 94.9247 75.7131 95.0437 75.2165C95.3476 73.7288 95.582 70.592 97.3277 70.4873C97.5418 71.8945 97.7094 73.3832 97.8322 74.9537C98.7449 75.831 98.5558 79.0085 97.6202 82.6547C98.0036 84.748 96.6922 85.8577 93.6873 85.9832L93.7386 86.6282C91.0515 86.0367 87.9441 85.8856 85.6484 86.1029Z" fill="#F9AF79"/>
<path fill-rule="evenodd" clip-rule="evenodd" d="M93.1957 79.9852C93.3816 80.798 94.4464 83.9742 86.2349 83.9806C85.812 84.0516 83.7699 82.221 82.2426 80.5614C78.5174 76.5146 79.3777 69.3189 84.2596 68.4047C84.0545 62.9908 92.7684 66.0838 96.3901 65.2817C100.193 68.1466 98.9197 70.4584 97.3257 70.4872C95.58 70.5918 95.3456 73.7287 95.0417 75.2164C94.9227 75.7131 94.3267 76.0147 93.861 76.2406C93.5828 74.5482 92.5345 73.8765 92.0358 73.5823C91.0357 74.5088 91.8954 75.7866 92.8529 78.8241C92.9667 79.1853 93.0825 79.5719 93.1957 79.9852Z" fill="#20386F"/>
<path fill-rule="evenodd" clip-rule="evenodd" d="M99.6947 90.4181C92.593 88.9875 86.7221 88.7163 82.0826 89.6027C78.6452 89.9194 76.7265 91.7522 76.3265 95.1003C73.9999 108.463 75.0327 122.275 79.9936 138.408C80.439 139.66 84.4462 140.626 90.4153 139.861C101.638 138.906 105.019 137.996 108.306 133.948C114.501 126.318 108.141 115.729 100.833 104.637C97.3556 101.641 94.0268 92.7346 99.6947 90.4181Z" fill="#407BFF"/>
<path fill-rule="evenodd" clip-rule="evenodd" d="M82.082 89.6018C86.1032 88.8756 91.032 89.0031 96.8681 89.9847C96.2012 88.8799 95.6159 87.8792 95.1123 86.9825C90.3522 85.5562 83.2788 85.7714 82.3971 87.1331C82.1931 88.2662 82.1157 89.0101 82.082 89.6018Z" fill="#466FB5"/>
<path fill-rule="evenodd" clip-rule="evenodd" d="M131.95 131.934C126.287 130.878 120.015 128.003 110.407 129.917C110.075 130.534 108.782 133.365 108.308 133.948C105.021 137.996 101.639 138.906 90.4167 139.86L90.271 139.88L90.1384 139.895L90.1251 139.897L89.9803 139.914L89.8634 139.927L89.8367 139.931L89.6936 139.946L89.5911 139.957L89.331 139.983L89.3208 139.984L89.2696 139.989L89.1296 140.001L89.0543 140.009L88.8529 140.026L88.791 140.031L88.7157 140.038L88.579 140.047L88.5305 140.05L88.4439 140.057L88.3094 140.066L88.2736 140.07L88.1754 140.075L88.0425 140.082L88.0195 140.084L87.9106 140.091L87.7792 140.097H87.7684L87.6494 140.104L87.5208 140.108H87.5197L87.3911 140.114L87.2768 140.118H87.2634L87.1375 140.121L87.036 140.124L87.0115 140.125L86.8865 140.127L86.7984 140.13H86.7626L86.6398 140.132H86.5639H86.5181H86.3969H86.3328H86.2767H86.1571L86.1053 140.131L86.0397 140.13L85.9226 140.127H85.8816L85.8063 140.125L85.6909 140.122L85.6615 140.121L85.5761 140.119L85.4629 140.114H85.4447L85.3503 140.11L85.2393 140.106L85.2312 140.105L85.1292 140.1L85.0218 140.093H85.0192L84.9114 140.087L84.8162 140.081L84.804 140.08L84.6977 140.073L84.6138 140.066L84.5919 140.065L84.4884 140.057L84.4622 140.054L84.3848 140.047L84.2828 140.037L84.2208 140.032L84.1813 140.028L84.0815 140.018L83.9826 140.007L83.8849 139.996L83.7898 139.984H83.7877L83.6916 139.972L83.6602 139.968L83.5106 139.948L83.5036 139.946L83.4807 139.943L83.4107 139.933L83.3194 139.919L83.3055 139.918L83.2292 139.905L83.14 139.89H83.1346L83.0519 139.875L82.9674 139.86H82.9643L82.8789 139.844C87.0975 147.599 98.545 149.485 122.887 144.346C124.86 151.614 126.205 150.79 131.526 170.036C133.975 172.014 141.604 171.717 140.159 167.52C137.628 158.898 138.816 150.937 136.947 141.853C136.143 137.94 135.197 132.592 131.95 131.934Z" fill="#223F81"/>
<path fill-rule="evenodd" clip-rule="evenodd" d="M104.256 146.779C103.87 154.54 105.881 157.575 106.052 170.313C107.89 171.359 110.723 172.083 113.384 168.666C113.685 158.426 115.138 151.314 115.498 145.758C112.245 146.193 107.009 146.666 104.256 146.779Z" fill="#20386F"/>
<path fill-rule="evenodd" clip-rule="evenodd" d="M117.331 107.252C108.478 96.397 102.509 91.1294 99.6986 90.418C92.8874 92.633 98.0331 103.86 101.509 106.857C104.725 110.582 108.724 112.87 114.854 115.873C117.743 117.05 124.93 115.734 136.417 114.213C137.191 112.453 136.969 111.107 135.752 110.175C125.556 108.864 119.507 107.545 117.331 107.252Z" fill="#466FB5"/>
<path fill-rule="evenodd" clip-rule="evenodd" d="M136.559 113.856C137.293 114.071 137.997 114.152 138.67 114.096C140.776 113.35 141.493 111.618 142.622 111.219C143.428 111.272 144.252 111.394 145.091 111.584C146.577 111.412 145.495 110.617 141.849 109.199C139.657 109.245 137.722 109.655 136.043 110.428C136.924 111.275 137.096 112.417 136.559 113.856Z" fill="#F9AF79"/>
<path fill-rule="evenodd" clip-rule="evenodd" d="M138.01 175.875C145.668 176.241 149.491 176.013 149.481 175.188C149.45 173.148 144.963 173.873 141.383 170.442C141.3 172.629 138.702 173.287 136.872 172.568C136.007 171.913 135.312 171.77 134.789 172.138C134.381 172.827 134.244 173.743 134.381 174.887C134.806 175.603 136.016 175.932 138.01 175.875ZM108.875 175.165C116.531 175.53 117.509 174.209 117.499 173.385C117.382 171.957 115.113 172.98 111.957 170.355C111.873 172.544 110.329 173.008 108.499 172.289C107.634 171.634 107.068 171.168 105.772 172.203C105.364 172.892 105.228 173.484 105.363 174.628C105.789 175.342 106.88 175.22 108.875 175.165Z" fill="#0E2952"/>
<path fill-rule="evenodd" clip-rule="evenodd" d="M135.012 171.183C135.054 171.456 135.084 171.723 135.101 171.985C135.579 171.841 136.169 172.036 136.872 172.568C138.536 173.221 140.832 172.739 141.3 171.002C140.849 170.593 140.473 170.041 140.174 169.344C139.54 170.82 137.199 171.362 135.012 171.183ZM106.627 170.596C106.595 170.98 106.533 171.369 106.441 171.766C107.295 171.353 107.799 171.759 108.499 172.289C110.172 172.947 111.607 172.615 111.905 170.88C111.773 170.675 111.666 170.466 111.582 170.25C110.27 171.369 108.172 171.252 106.627 170.596Z" fill="#F9AF79"/>
<path fill-rule="evenodd" clip-rule="evenodd" d="M87.3956 108.135L88.9112 120.978C89.2476 123.826 87.1927 126.155 84.3454 126.155H80.8017L82.4064 139.747C82.557 139.782 82.7146 139.814 82.878 139.845C83.0868 139.885 83.3052 139.92 83.5342 139.952L82.0401 127.291H84.6701C88.014 127.291 90.433 124.518 90.0422 121.207L88.5267 108.365C88.1437 105.123 85.1795 102.796 81.9071 102.796H75.3676C75.3543 102.959 75.3676 102.796 75.3555 102.959H81.6076C84.4554 102.959 87.0597 105.288 87.3956 108.135Z" fill="#466FB5"/>
<path fill-rule="evenodd" clip-rule="evenodd" d="M120.249 144.846C119.887 143.264 118.466 142.078 116.778 142.078H84.543C84.708 142.245 84.88 142.407 85.0589 142.564H116.453C117.872 142.564 119.047 143.652 119.188 145.035C119.54 144.974 119.893 144.911 120.249 144.846Z" fill="#20386F"/>
<path fill-rule="evenodd" clip-rule="evenodd" d="M75.9888 142.564H78.1869L76.25 126.155H72.7068C69.8595 126.155 67.2546 123.825 66.9187 120.978L65.4032 108.135C65.0669 105.288 67.1222 102.958 69.9695 102.958H81.6088C84.4566 102.958 87.0611 105.288 87.3968 108.135L88.9129 120.978C89.2488 123.825 87.194 126.155 84.3466 126.155H80.8029L82.7398 142.564H116.454C117.966 142.564 119.203 143.802 119.203 145.313V145.314C119.203 146.825 117.966 148.063 116.454 148.063H97.0048V155.848H98.1219V167.789L109.957 168.601C110.463 168.636 110.88 169.02 110.88 169.526V170.449H80.4661V169.375C80.4661 168.949 80.8149 168.631 81.2394 168.601L93.2247 167.789V155.848H94.3413V148.063H75.9891C74.4773 148.063 73.24 146.825 73.24 145.314V145.313C73.2398 143.802 74.4771 142.564 75.9888 142.564ZM110.751 175.672C111.843 175.672 112.727 174.788 112.727 173.696C112.727 172.605 111.843 171.721 110.751 171.721C109.66 171.721 108.775 172.605 108.775 173.696C108.775 174.788 109.66 175.672 110.751 175.672ZM90.3676 171.721C91.459 171.721 92.3439 172.605 92.3439 173.697C92.3439 174.788 91.4591 175.672 90.3676 175.672C89.276 175.672 88.3917 174.788 88.3917 173.697C88.3917 172.605 89.276 171.721 90.3676 171.721ZM101.537 171.721C102.628 171.721 103.513 172.605 103.513 173.697C103.513 174.788 102.628 175.672 101.537 175.672C100.446 175.672 99.5615 174.788 99.5615 173.697C99.5615 172.605 100.446 171.721 101.537 171.721ZM81.1538 171.721C82.2453 171.721 83.1296 172.605 83.1296 173.697C83.1296 174.788 82.2453 175.672 81.1538 175.672C80.0627 175.672 79.1778 174.788 79.1778 173.697C79.1778 172.605 80.0627 171.721 81.1538 171.721Z" fill="#C4997A"/>
<path fill-rule="evenodd" clip-rule="evenodd" d="M139.352 113.872C139.905 112.893 140.674 112.269 141.722 111.543C143.322 110.425 146.578 112.744 147.088 113.872H139.352Z" fill="#929497"/>
<path fill-rule="evenodd" clip-rule="evenodd" d="M184.562 143.558H193.074C193.319 143.558 193.518 143.759 193.518 144.003C193.518 144.248 193.319 144.448 193.074 144.448H184.562C184.318 144.448 184.117 144.248 184.117 144.003C184.117 143.759 184.318 143.558 184.562 143.558Z" fill="#A1775A"/>
<path fill-rule="evenodd" clip-rule="evenodd" d="M184.562 124.444H193.074C193.319 124.444 193.518 124.644 193.518 124.888V124.889C193.518 125.133 193.319 125.334 193.074 125.334H184.562C184.318 125.334 184.117 125.133 184.117 124.889V124.888C184.117 124.644 184.318 124.444 184.562 124.444Z" fill="#A1775A"/>
<path fill-rule="evenodd" clip-rule="evenodd" d="M184.562 163.265H193.074C193.319 163.265 193.518 163.465 193.518 163.709C193.518 163.955 193.319 164.154 193.074 164.154H184.562C184.318 164.154 184.117 163.955 184.117 163.709C184.117 163.465 184.318 163.265 184.562 163.265Z" fill="#A1775A"/>
<path fill-rule="evenodd" clip-rule="evenodd" d="M117.695 94.7122C117.691 94.1772 117.9 93.6815 118.239 93.3098C118.58 92.936 119.053 92.6851 119.576 92.651C120.099 92.6167 120.577 92.8122 120.921 93.1572C121.267 93.5043 121.481 94.0073 121.485 94.5724C121.487 94.8693 121.266 95.1149 120.991 95.1234C120.525 95.1385 120.059 95.1534 119.593 95.1672C119.128 95.1811 118.662 95.195 118.196 95.2079C117.921 95.2163 117.697 94.9932 117.695 94.7122ZM119.604 96.7576C120.594 96.7501 121.492 96.311 122.133 95.5932C122.78 94.867 123.172 93.8588 123.165 92.7653C123.158 91.6715 122.752 90.7147 122.096 90.0706C121.445 89.4335 120.543 89.1051 119.553 89.2183C118.562 89.3299 117.671 89.8442 117.024 90.5662C116.384 91.2806 115.985 92.2066 115.992 93.1966C115.999 94.1878 116.41 95.0699 117.061 95.7107C117.717 96.3569 118.614 96.766 119.604 96.7576ZM119.574 92.2848C119.009 92.3231 118.549 91.881 118.545 91.2977C118.541 90.7125 118.995 90.1936 119.559 90.1379C120.123 90.0802 120.584 90.5224 120.588 91.1226C120.592 91.725 120.138 92.244 119.574 92.2848Z" fill="white"/>
<path fill-rule="evenodd" clip-rule="evenodd" d="M126.187 101.027C126.183 100.491 126.393 99.9959 126.732 99.6253C127.072 99.2514 127.545 99.0004 128.068 98.9662C128.592 98.9322 129.07 99.1265 129.413 99.4726C129.759 99.8196 129.974 100.323 129.978 100.887C129.98 101.184 129.759 101.43 129.484 101.439C129.018 101.453 128.552 101.468 128.086 101.482C127.62 101.495 127.155 101.51 126.689 101.523C126.413 101.532 126.189 101.307 126.187 101.027ZM128.097 103.072C129.087 103.065 129.985 102.625 130.625 101.908C131.272 101.182 131.665 100.173 131.657 99.0796C131.65 97.986 131.244 97.0289 130.588 96.3861C129.938 95.7485 129.036 95.4206 128.046 95.5338C127.054 95.6449 126.163 96.1597 125.517 96.8816C124.877 97.5951 124.478 98.522 124.484 99.5122C124.492 100.502 124.903 101.384 125.554 102.025C126.209 102.672 127.107 103.08 128.097 103.072ZM128.066 98.5988C127.502 98.6373 127.042 98.1962 127.037 97.612C127.033 97.0267 127.488 96.5076 128.052 96.452C128.616 96.3943 129.077 96.8366 129.081 97.4368C129.085 98.0393 128.631 98.5593 128.066 98.5988Z" fill="white"/>
<path fill-rule="evenodd" clip-rule="evenodd" d="M141.624 87.8429C141.621 87.4669 141.768 87.1193 142.007 86.8587C142.245 86.5964 142.577 86.4197 142.945 86.3957C143.312 86.3722 143.646 86.5089 143.888 86.7513C144.13 86.9949 144.282 87.3478 144.284 87.744C144.286 87.9522 144.13 88.1253 143.938 88.1312C143.61 88.1419 143.285 88.1521 142.957 88.1617C142.63 88.1713 142.302 88.1814 141.975 88.19C141.783 88.1964 141.625 88.0394 141.624 87.8429ZM142.964 89.2777C143.659 89.2724 144.288 88.9648 144.739 88.4602C145.192 87.9518 145.467 87.2431 145.463 86.4757C145.459 85.7084 145.173 85.0365 144.712 84.5854C144.256 84.1379 143.623 83.9071 142.928 83.9867C142.234 84.0647 141.608 84.4263 141.153 84.9325C140.704 85.434 140.424 86.0838 140.43 86.779C140.435 87.4743 140.723 88.0932 141.18 88.5429C141.64 88.9969 142.27 89.2836 142.964 89.2777ZM142.943 86.1389C142.548 86.166 142.224 85.8558 142.221 85.4458C142.218 85.0356 142.537 84.6715 142.933 84.6319C143.329 84.5919 143.652 84.9017 143.654 85.323C143.658 85.7457 143.338 86.1105 142.943 86.1389Z" fill="white"/>
<path fill-rule="evenodd" clip-rule="evenodd" d="M138.569 99.6688C138.567 99.1327 138.776 98.6371 139.114 98.2654C139.455 97.8915 139.927 97.6406 140.45 97.6065C140.975 97.5722 141.452 97.7678 141.796 98.1126C142.142 98.4599 142.356 98.9628 142.36 99.5279C142.362 99.8247 142.141 100.07 141.867 100.079C141.401 100.094 140.934 100.109 140.469 100.122C140.002 100.137 139.536 100.151 139.071 100.163C138.796 100.172 138.572 99.9487 138.569 99.6688ZM140.479 101.713C141.469 101.706 142.368 101.267 143.007 100.549C143.655 99.8225 144.048 98.8144 144.04 97.7209C144.033 96.6273 143.627 95.6692 142.971 95.0261C142.32 94.3885 141.418 94.0607 140.428 94.174C139.437 94.2861 138.546 94.7998 137.899 95.5218C137.259 96.2365 136.86 97.1623 136.867 98.1522C136.875 99.1435 137.285 100.026 137.936 100.666C138.592 101.313 139.489 101.722 140.479 101.713ZM140.448 97.2402C139.884 97.2786 139.424 96.8365 139.42 96.2533C139.416 95.6679 139.869 95.149 140.434 95.0933C140.999 95.0356 141.46 95.4779 141.463 96.0781C141.467 96.6806 141.012 97.1996 140.448 97.2402Z" fill="white"/>
<path fill-rule="evenodd" clip-rule="evenodd" d="M131.159 89.4931C131.157 89.1171 131.304 88.7695 131.542 88.5088C131.78 88.2466 132.112 88.0704 132.479 88.0464C132.847 88.0224 133.182 88.1591 133.423 88.4015C133.667 88.6451 133.816 88.9986 133.819 89.3942C133.82 89.6026 133.665 89.7756 133.473 89.7815C133.146 89.7921 132.819 89.8023 132.492 89.8119C132.165 89.8215 131.838 89.8316 131.511 89.8402C131.318 89.8466 131.16 89.69 131.159 89.4931ZM132.499 90.9284C133.194 90.922 133.824 90.6145 134.273 90.1103C134.728 89.6019 135.004 88.8933 134.998 88.1259C134.993 87.3586 134.709 86.6868 134.248 86.2356C133.792 85.7881 133.158 85.5579 132.463 85.6369C131.768 85.7155 131.143 86.0765 130.689 86.5827C130.239 87.0842 129.96 87.7346 129.965 88.4293C129.97 89.1246 130.258 89.7435 130.715 90.1938C131.174 90.6464 131.804 90.9338 132.499 90.9284ZM132.478 87.7891C132.082 87.8163 131.759 87.506 131.756 87.096C131.753 86.6858 132.072 86.3217 132.468 86.2826C132.864 86.2421 133.187 86.5518 133.19 86.9736C133.193 87.396 132.873 87.7613 132.478 87.7891Z" fill="white"/>
<path fill-rule="evenodd" clip-rule="evenodd" d="M124.225 87.3709C124.223 87.1107 124.325 86.87 124.489 86.6895C124.655 86.5084 124.885 86.3861 125.139 86.3696C125.393 86.353 125.625 86.4475 125.791 86.6158C125.96 86.7839 126.064 87.028 126.065 87.3025C126.066 87.4462 125.959 87.5663 125.825 87.5706C125.6 87.5776 125.373 87.5845 125.147 87.5909C124.921 87.5978 124.694 87.6048 124.468 87.6112C124.335 87.6154 124.226 87.5065 124.225 87.3709ZM125.152 88.3637C125.633 88.3599 126.069 88.1468 126.38 87.7982C126.694 87.4457 126.884 86.9561 126.881 86.4253C126.878 85.8944 126.68 85.4293 126.362 85.1164C126.046 84.8077 125.608 84.6481 125.128 84.7031C124.646 84.757 124.214 85.0064 123.899 85.3573C123.589 85.7044 123.395 86.1541 123.398 86.6351C123.402 87.1157 123.601 87.5441 123.917 87.8553C124.236 88.1687 124.671 88.3674 125.152 88.3637ZM125.138 86.1914C124.863 86.2105 124.64 85.9959 124.638 85.7124C124.636 85.4283 124.856 85.1768 125.13 85.1495C125.405 85.1217 125.628 85.3358 125.63 85.6275C125.632 85.92 125.411 86.172 125.138 86.1914Z" fill="white"/>
<path fill-rule="evenodd" clip-rule="evenodd" d="M124.691 87.9306L121.913 90.7641L121.125 89.9876L123.903 87.1543L124.691 87.9306Z" fill="white"/>
<path fill-rule="evenodd" clip-rule="evenodd" d="M126.122 86.3921L130.588 87.4243L130.341 88.5031L125.875 87.4713L126.122 86.3921Z" fill="white"/>
<path fill-rule="evenodd" clip-rule="evenodd" d="M134.375 87.4983L140.375 86.5894L140.54 87.6862L134.54 88.5951L134.375 87.4983Z" fill="white"/>
<path d="M122.295 94.2684L121.602 95.1304L125.22 98.0428L125.914 97.1808L122.295 94.2684Z" fill="white"/>
<path d="M142.086 88.7802L140.629 94.3965L141.699 94.6741L143.156 89.0578L142.086 88.7802Z" fill="white"/>
<path fill-rule="evenodd" clip-rule="evenodd" d="M137.378 97.9932L130.722 99.1168L130.539 98.0254L137.195 96.9019L137.378 97.9932Z" fill="white"/>
<path fill-rule="evenodd" clip-rule="evenodd" d="M222.247 50.8623C236.806 50.8623 248.61 62.6655 248.61 77.2258C248.61 91.7861 236.806 103.589 222.247 103.589C207.686 103.589 195.883 91.7861 195.883 77.2258C195.883 62.6655 207.686 50.8623 222.247 50.8623Z" fill="#F6EAE0"/>
<path fill-rule="evenodd" clip-rule="evenodd" d="M222.247 53.4321C235.388 53.4321 246.041 64.085 246.041 77.2259C246.041 90.3668 235.388 101.019 222.247 101.019C209.105 101.019 198.453 90.3668 198.453 77.2259C198.453 64.085 209.105 53.4321 222.247 53.4321Z" fill="white"/>
<path fill-rule="evenodd" clip-rule="evenodd" d="M215.893 93.9584C215.146 94.4796 214.446 96.3274 213.863 99.4982C216.471 100.481 219.295 101.019 222.247 101.019C226.618 101.019 230.714 99.8388 234.235 97.7807C233.584 96.2568 232.829 94.9548 232.013 93.8271C225.425 94.8075 219.705 94.7413 215.893 93.9584Z" fill="#20386F"/>
<path fill-rule="evenodd" clip-rule="evenodd" d="M236.538 88.845C241.467 69.7393 236.099 62.7801 225.543 62.6958C224.846 64.5509 223.601 66.4477 221.806 68.3846C221.065 66.97 220.26 65.8923 219.391 65.1538C218.466 65.761 217.536 66.7147 216.605 68.0145C216.445 66.0354 216.631 64.3267 217.164 62.8896C213.366 63.1523 207.446 65.0326 199.403 68.5303C194.983 67.0752 189.437 65.4394 183.208 64.1179L183.187 64.1333L183.23 64.2476C182.739 64.7447 182.159 66.0055 181.982 67.0078C181.882 66.9816 181.818 66.9651 181.745 66.9474L181.641 67.2464C186.841 70.5279 191.9 72.4519 199.107 74.4192C203.682 74.3819 208.307 74.5613 212.965 72.9262C213.032 86.6661 213.999 92.38 215.893 93.9585C217.71 94.3313 219.96 94.5405 222.531 94.5523C222.699 94.8653 222.823 95.3738 222.947 95.865C224.156 95.489 225.488 94.8718 226.954 94.3953L227.357 94.2308C231.397 92.5928 234.189 90.9203 236.538 88.845Z" fill="#407BFF"/>
<path fill-rule="evenodd" clip-rule="evenodd" d="M232.859 91.5353C231.145 92.5691 229.182 93.4982 226.952 94.3953C228.563 94.2758 230.257 94.0899 232.01 93.8273C232.38 93.0422 232.657 92.3021 232.859 91.5353ZM216.661 68.8485C217.075 68.1516 217.545 67.4589 218.024 66.8188C217.928 66.7232 217.848 66.6325 217.787 66.5465C217.393 66.9721 217.001 67.4596 216.607 68.0092C216.618 68.2953 216.635 68.5756 216.661 68.8485ZM212.963 72.9263C212.944 72.1317 213.005 71.0119 213.147 69.5663C212.82 71.1352 212.156 72.4383 211.156 73.4742C211.758 73.3187 212.36 73.1376 212.963 72.9263ZM221.803 68.3844C221.465 67.7378 221.112 67.1611 220.747 66.6548C220.679 66.7125 220.523 66.884 220.301 67.0597C220.643 67.8948 221.016 68.8881 221.374 69.9375C223.158 67.6952 224.848 64.8425 225.54 62.6958C224.844 64.5508 223.599 66.4476 221.803 68.3844ZM222.531 94.5535C221.343 94.5482 220.224 94.5001 219.184 94.4147C219.547 94.0484 219.916 93.7364 220.295 93.4812L220.128 93.1854C222.638 91.1017 226.483 88.1213 230.618 85.2622C230.022 82.2932 230.117 78.6849 230.902 74.44C230.69 78.1712 231.277 82.5041 232.02 85.6067C229.642 87.1035 226.536 89.2268 221.228 92.9174C221.728 93.3402 222.161 93.8851 222.531 94.5535Z" fill="#223F81"/>
<path fill-rule="evenodd" clip-rule="evenodd" d="M221.074 87.3879C220.725 82.0083 220.301 75.4608 219.875 67.338C220.327 67.1084 220.645 66.7447 220.752 66.6544C220.318 66.0547 219.866 65.5544 219.393 65.1533C218.861 65.503 218.326 65.9671 217.791 66.5461C217.956 66.7762 218.244 67.0405 218.654 67.3428C218.258 72.3417 217.851 79.1529 217.434 87.7781C217.661 88.5786 218.352 89.3957 219.246 90.0151C219.827 89.5453 220.799 88.6791 221.074 87.3879Z" fill="#0E2952"/>
<path fill-rule="evenodd" clip-rule="evenodd" d="M221.803 68.384C223.598 66.4472 224.843 64.5503 225.54 62.6952C225.149 61.9557 224.531 61.2117 224.1 61.0029C222.012 63.1812 220.684 64.3992 219.411 65.1404C219.403 65.1441 219.396 65.1484 219.388 65.1533C219.373 65.095 219.356 65.0368 219.339 64.9781C219.003 63.8278 218.514 62.4944 218.303 61.1673C217.704 61.5929 217.489 62.2391 217.161 62.8885C216.628 64.326 216.442 66.0349 216.603 68.0138C216.997 67.4622 217.393 66.973 217.786 66.5459C218.321 65.967 218.856 65.5029 219.388 65.1531C219.861 65.5541 220.313 66.0546 220.746 66.6543C221.112 67.1606 221.464 67.7374 221.803 68.384Z" fill="white"/>
<path fill-rule="evenodd" clip-rule="evenodd" d="M228.65 74.3671C228.717 74.067 228.737 73.7231 228.708 73.336C226.938 73.4907 225.351 73.3728 223.954 72.9648C223.806 73.2473 223.739 73.5506 223.757 73.8763C224.832 74.2785 226.463 74.4424 228.65 74.3671Z" fill="#223F81"/>
<path fill-rule="evenodd" clip-rule="evenodd" d="M224.08 61.0161C223.756 60.6139 223.482 60.0773 223.26 59.4065C223.378 59.0493 223.499 58.5964 223.623 58.0501C225.908 56.4257 226.2 55.2541 224.499 54.5348C224.164 54.7325 223.755 55.3284 223.273 56.3216C222.87 56.3136 222.562 56.1144 222.346 55.7239C222.788 54.0557 223.07 52.7026 223.194 51.6644C222.014 49.9914 219.336 49.8072 215.81 50.3406C215.666 51.2864 215.552 52.2859 215.47 53.3412C214.857 53.9307 214.984 56.0662 215.613 58.5152C215.355 59.9212 216.236 60.6672 218.255 60.7522L218.283 61.1804C218.495 62.508 218.983 63.8413 219.319 64.9906L219.389 65.1535C220.664 64.4124 221.991 63.1943 224.08 61.0161Z" fill="#F9B08C"/>
<path fill-rule="evenodd" clip-rule="evenodd" d="M215.812 50.3407C219.339 49.8073 222.016 49.9915 223.196 51.6646C223.073 52.7027 222.791 54.0559 222.348 55.7241C222.564 56.1145 222.873 56.3136 223.276 56.3217C223.757 55.3284 224.166 54.7325 224.502 54.535C226.203 55.2542 225.91 56.4258 223.626 58.0502C223.502 58.5965 223.38 59.0494 223.263 59.4066C225.339 58.8939 227.043 56.9918 227.272 56.1792C229.602 51.3315 226.845 49.3647 225.376 48.6571C224.635 43.922 217.829 48.2672 214.324 46.0527C212.992 47.9788 214.741 50.3215 215.812 50.3407Z" fill="#20386F"/>
<path fill-rule="evenodd" clip-rule="evenodd" d="M220.922 60.4209C220.275 60.6003 218.999 60.775 218.254 60.752L218.282 61.1803C218.322 61.4376 218.375 61.695 218.433 61.9519C218.441 61.9497 218.448 61.946 218.456 61.9433C219.61 61.5403 220.433 61.0324 220.922 60.4209Z" fill="#ED7D57"/>
<path fill-rule="evenodd" clip-rule="evenodd" d="M218.026 66.8186C217.94 66.7336 217.862 66.6434 217.789 66.5463C218.567 65.7211 219.12 65.2732 219.449 65.2021C219.684 65.6262 219.981 66.2728 220.303 67.0594C220.525 66.8838 220.681 66.7123 220.749 66.6546C220.333 66.079 219.9 65.5947 219.449 65.2021C219.019 65.5508 218.545 66.0885 218.026 66.8186Z" fill="#0E2952"/>
<path fill-rule="evenodd" clip-rule="evenodd" d="M183.23 64.2472C182.766 63.0062 182.199 62.289 181.531 62.0967C180.027 61.427 178.695 60.6741 177.535 59.8384C177.068 60.4107 177.439 61.0047 178.65 61.6198C179.154 61.8996 179.522 62.1757 179.748 62.448C178.488 63.0419 177.876 63.7915 177.911 64.6972C178.091 65.3947 178.317 65.7957 178.591 65.8993C178.719 65.9484 179.006 66.0493 179.282 65.7413C179.966 67.1062 180.85 67.1606 181.549 66.9021C181.746 66.9448 181.81 66.962 181.983 67.0073C182.16 66.0052 182.739 64.7443 183.23 64.2472Z" fill="#FAB688"/>
<path fill-rule="evenodd" clip-rule="evenodd" d="M221.956 93.1992C220.818 93.6628 219.776 94.1925 218.826 94.7885C217.978 96.2164 217.753 97.3282 218.153 98.1218C218.834 98.8523 219.551 98.5308 220.12 98.3824C220.118 97.6337 220.334 97.0228 220.769 96.5518C221.438 96.7109 221.873 96.5433 222.076 96.0476C222.35 95.9675 222.598 95.8993 222.821 95.8394C223.046 94.8193 222.806 94.2309 222.443 93.7504C222.288 93.5603 222.12 93.3818 221.956 93.1992Z" fill="#FAB688"/>
<path fill-rule="evenodd" clip-rule="evenodd" d="M204.845 106.506C219.405 106.506 231.207 118.31 231.207 132.869C231.207 147.429 219.405 159.233 204.845 159.233C190.284 159.233 178.48 147.429 178.48 132.869C178.48 118.31 190.284 106.506 204.845 106.506Z" fill="#F6EAE0"/>
<path fill-rule="evenodd" clip-rule="evenodd" d="M204.845 109.076C217.985 109.076 228.638 119.728 228.638 132.869C228.638 146.01 217.985 156.664 204.845 156.664C191.704 156.664 181.051 146.01 181.051 132.869C181.051 119.728 191.704 109.076 204.845 109.076Z" fill="white"/>
<path fill-rule="evenodd" clip-rule="evenodd" d="M200.051 128.276C200.027 128.474 199.877 128.676 199.796 128.85C199.775 128.896 199.717 128.929 199.717 128.972C199.685 131.703 202.014 131.084 206.709 127.111C208.206 127.694 209.56 128.29 210.775 128.901C213.793 129.168 218.274 127.306 224.221 123.317C228.801 117.574 232.471 113.922 235.226 112.366C235.944 113.439 236.811 114.182 237.828 114.587C234.738 119.579 231.411 123.898 227.852 127.544C223.696 132.714 218.781 137.629 213.106 142.292C210.74 147.509 209.922 152.061 210.653 155.948C208.793 156.415 206.847 156.664 204.843 156.664C200.676 156.664 196.76 155.59 193.354 153.709C192.72 147.055 192.781 141.023 193.48 136.817C188.218 131.659 184.387 127.538 181.985 124.457C179.763 121.037 177.812 116.104 176.129 109.656C177.406 108.453 178.581 108.019 179.653 108.355C182.622 112.829 184.844 116.967 186.322 120.771C190.596 123.819 193.704 126.169 195.646 127.818C196.827 128.154 198.485 128.305 200.051 128.276Z" fill="#407BFF"/>
<path fill-rule="evenodd" clip-rule="evenodd" d="M227.82 127.583C223.672 132.737 218.766 137.64 213.105 142.291C210.739 147.508 209.921 152.06 210.651 155.948C210.187 156.064 209.715 156.168 209.239 156.257C208.347 151.85 209.228 146.798 211.885 141.101C215.695 138.68 221.012 134.175 227.82 127.583Z" fill="#223F81"/>
<path fill-rule="evenodd" clip-rule="evenodd" d="M235.164 105.103C236.262 108.684 236.347 111.196 235.416 112.639C236 113.436 236.676 114.027 237.442 114.414C238.08 113.709 238.746 113.013 239.607 112.775C242.746 110.796 243.405 109.902 244.46 107.448C244.696 105.954 243.72 104.563 241.534 103.273C239.401 106.812 237.938 108.222 237.142 107.502C236.79 105.502 236.13 104.702 235.164 105.103Z" fill="#FAB688"/>
<path fill-rule="evenodd" clip-rule="evenodd" d="M181.765 101.439C179.561 104.468 178.664 106.814 179.074 108.481C178.262 109.044 177.431 109.386 176.581 109.501C176.208 108.628 175.804 107.752 175.067 107.247C172.743 104.355 172.409 103.294 172.211 100.631C172.474 99.1426 173.848 98.1441 176.336 97.6367C177.202 101.676 178.126 103.484 179.113 103.063C180.097 101.286 180.981 100.745 181.765 101.439Z" fill="#FAB688"/>
<path fill-rule="evenodd" clip-rule="evenodd" d="M206.653 127.16C206.493 126.816 206.378 126.508 206.313 126.259C206.472 125.853 206.644 125.338 206.828 124.715C209.584 122.996 210.004 121.662 208.086 120.71C207.684 120.915 207.17 121.574 206.543 122.69C206.078 122.654 205.734 122.401 205.512 121.935C206.141 120.036 206.563 118.49 206.777 117.298C205.529 115.279 202.446 114.878 198.328 115.25C198.095 116.333 197.893 117.482 197.724 118.697C196.973 119.336 196.971 121.814 197.528 124.692C197.13 126.301 198.098 127.225 200.427 127.464C200.439 128.041 199.843 128.921 199.801 128.999C199.784 129.033 199.755 129.065 199.717 129.097C199.758 131.673 202.069 131.026 206.653 127.16Z" fill="#FAB688"/>
<path fill-rule="evenodd" clip-rule="evenodd" d="M198.328 115.249C202.446 114.878 205.529 115.279 206.777 117.298C206.563 118.49 206.141 120.036 205.512 121.935C205.734 122.401 206.078 122.654 206.543 122.69C207.17 121.575 207.685 120.915 208.086 120.71C210.004 121.661 209.585 122.996 206.828 124.715C206.644 125.338 206.472 125.853 206.312 126.258C208.751 125.812 210.856 123.729 211.177 122.807C214.211 117.36 211.16 114.893 209.511 113.972C208.983 108.441 200.807 112.991 196.906 110.183C195.229 112.319 197.09 115.151 198.328 115.249Z" fill="#20386F"/>
<path fill-rule="evenodd" clip-rule="evenodd" d="M203.821 126.898C202.86 127.329 201.73 127.517 200.43 127.465C200.44 127.97 199.985 128.707 199.844 128.934C201.525 128.982 202.85 128.303 203.821 126.898Z" fill="#ED7D57"/>
<path fill-rule="evenodd" clip-rule="evenodd" d="M129.227 7.62207C143.788 7.62207 155.59 19.4252 155.59 33.9854C155.59 48.5457 143.788 60.3489 129.227 60.3489C114.666 60.3489 102.863 48.5457 102.863 33.9854C102.863 19.4252 114.666 7.62207 129.227 7.62207Z" fill="#F6EAE0"/>
<path fill-rule="evenodd" clip-rule="evenodd" d="M129.227 10.1919C142.368 10.1919 153.021 20.8448 153.021 33.9856C153.021 47.1265 142.368 57.7789 129.227 57.7789C116.086 57.7789 105.434 47.1266 105.434 33.9856C105.434 20.8449 116.086 10.1919 129.227 10.1919Z" fill="white"/>
<path fill-rule="evenodd" clip-rule="evenodd" d="M116.209 23.2042C114.502 20.705 118.192 20.0642 118.156 17.33C118.132 15.4449 119.311 13.4809 118.957 11.6012C118.234 7.75475 119.735 6.58789 119.744 6.29534C119.834 3.3808 121.578 3.30596 123.313 2.32344C126.393 0.579352 129.071 2.71274 129.944 2.76997C134.396 3.06102 131.932 4.97427 133.924 6.69912C135.565 8.11856 134.789 9.19609 134.62 10.05C134.545 10.4345 134.187 12.0178 135.323 12.8189C136.989 13.9926 135.282 17.1277 136.265 17.4257C140.048 18.5723 138.525 19.0432 138.422 21.6866C138.39 22.5324 137.574 23.1743 137.042 23.7948C130.529 21.7549 126.047 29.8611 116.209 23.2042Z" fill="#20386F"/>
<path fill-rule="evenodd" clip-rule="evenodd" d="M122 19.6954C122.192 19.2469 122.707 18.9676 122.88 18.8271C124.766 19.8471 126.765 20.4761 128.86 20.4922C128.785 21.6911 128.608 22.9503 128.369 24.2965C124.904 21.6018 122.781 20.0683 122 19.6954Z" fill="white"/>
<path fill-rule="evenodd" clip-rule="evenodd" d="M130.352 19.5421C130.862 20.6182 131.208 21.6232 131.388 22.5588C130.839 21.5697 130.223 20.9647 128.863 20.4916C129.297 20.0344 129.262 19.4406 129.437 18.9639C129.928 19.2644 130.232 19.4578 130.352 19.5421Z" fill="white"/>
<path fill-rule="evenodd" clip-rule="evenodd" d="M131.834 19.5518C137.069 32.8561 132.656 31.8233 121.318 19.8396C120.654 19.9982 120.045 20.1925 119.493 20.4243C120.966 21.785 121.516 24.0609 121.144 27.2521C120.922 29.723 120.677 32.125 120.41 34.4574C121.055 35.9142 121.385 37.404 121.442 39.0114C121.491 40.4153 121.331 41.909 120.99 43.5472C120.455 46.1164 119.474 49.0427 118.156 52.542C126.094 55.2457 132.888 55.2762 138.54 52.6339C135.262 45.4285 135.698 43.1948 136.071 38.3737C136.441 30.5489 141.209 33.0075 133.282 19.8479C132.739 19.6789 132.265 19.5929 131.834 19.5518Z" fill="#466FB5"/>
<path fill-rule="evenodd" clip-rule="evenodd" d="M128.861 20.4919C128.786 21.6908 128.609 22.95 128.369 24.2962C124.905 21.6015 122.782 20.0679 122.001 19.6951C121.766 19.7395 121.538 19.7881 121.316 19.8398C132.654 31.8236 137.067 32.8562 131.832 19.552C131.287 19.5003 130.811 19.5222 130.35 19.5424C130.86 20.6184 131.206 21.6234 131.386 22.559C130.837 21.57 130.221 20.965 128.861 20.4919Z" fill="#407BFF"/>
<path fill-rule="evenodd" clip-rule="evenodd" d="M125.896 39.1353C123.741 39.1418 121.73 39.06 119.863 38.8923C120.349 35.1997 120.776 31.3196 121.143 27.2526C121.515 24.0614 120.964 21.7854 119.492 20.4248C117.531 21.2477 116.284 22.5379 115.752 24.2964C114.593 28.0349 114.736 41.9598 115.995 43.2189C117.586 43.9148 120.948 43.7727 126.081 42.7912C125.725 41.7455 125.664 40.5269 125.896 39.1353Z" fill="#407BFF"/>
<path fill-rule="evenodd" clip-rule="evenodd" d="M127.196 39.6553C126.904 39.6884 126.443 39.7178 125.812 39.7435C125.712 40.6625 125.751 41.4998 125.927 42.2564C126.477 42.155 127.174 42.0087 128.019 41.8191C129.521 42.2042 131.329 42.1839 133.443 41.7577C134.912 41.1933 135.36 40.1567 134.784 38.6498C132.485 38.9184 131.108 38.8318 130.655 38.3913C131.458 37.9818 131.743 37.5092 131.508 36.9736C129.248 37.8018 127.81 38.6962 127.196 39.6553Z" fill="#FAB688"/>
<path fill-rule="evenodd" clip-rule="evenodd" d="M134.997 35.4969L151.085 33.0586L147.611 40.0061L131.492 42.5357L131.749 42.0193C132.289 41.9637 132.855 41.8768 133.443 41.7577C134.913 41.1932 135.36 40.1567 134.784 38.6498C134.263 38.7106 133.789 38.7534 133.363 38.7774L134.997 35.4969Z" fill="#D0D2D3"/>
<path fill-rule="evenodd" clip-rule="evenodd" d="M134.783 37.3139L134.076 38.7236C134.301 38.7033 134.539 38.6788 134.786 38.6495C135.286 39.9578 135.015 40.9115 133.973 41.5095L147.2 39.4414L148.551 36.7388C146.7 37.3795 144.817 37.7854 142.903 37.9557C142.512 38.4086 141.904 38.7407 141.408 38.7407C140.949 38.7407 140.722 38.4529 140.799 38.0481C138.828 38.0477 136.821 37.8031 134.783 37.3139Z" fill="#A6A8AB"/>
<path fill-rule="evenodd" clip-rule="evenodd" d="M129.707 42.0735L131.491 42.5354L131.748 42.019C131.024 42.0937 130.345 42.112 129.707 42.0735Z" fill="#A6A8AB"/>
<path fill-rule="evenodd" clip-rule="evenodd" d="M131.493 42.5355L129.709 42.0736C129.108 42.0389 128.546 41.9534 128.02 41.8189C127.454 41.9466 126.953 42.0543 126.52 42.1414L130.974 43.6014L135.37 42.8538L147.642 40.7679L147.612 40.0059L135.829 41.8547L131.493 42.5355Z" fill="#A6A8AB"/>
<path fill-rule="evenodd" clip-rule="evenodd" d="M138.919 34.9021C138.296 34.3147 137.767 33.628 137.335 32.8403C137.082 33.549 136.774 34.3014 136.523 35.2652L138.919 34.9021Z" fill="#407BFF"/>
<path fill-rule="evenodd" clip-rule="evenodd" d="M133.281 19.8481C135.142 22.9368 136.304 25.1648 136.986 26.8682C137.659 21.5859 136.695 20.3971 133.281 19.8481Z" fill="#407BFF"/>
<path fill-rule="evenodd" clip-rule="evenodd" d="M119.409 52.9502C119.096 53.5964 118.82 54.3696 118.582 55.2695C121.785 56.8747 125.4 57.7788 129.227 57.7788C132.419 57.7788 135.464 57.1503 138.245 56.0097C138.036 54.9016 137.812 53.9168 137.57 53.056C132.423 55.1401 126.369 55.1049 119.409 52.9502Z" fill="#20386F"/>
<path fill-rule="evenodd" clip-rule="evenodd" d="M122.883 18.8269C124.77 19.8468 126.768 20.4758 128.864 20.4919C129.246 20.0898 129.265 19.5815 129.383 19.1398C129.39 19.1157 129.397 19.0907 129.404 19.0672C129.084 18.6293 128.866 18.2992 129.061 17.5347C129.064 17.524 129.067 17.5122 129.07 17.5005C131.339 16.738 132.749 12.9213 131.827 10.677C131.873 9.92617 131.945 9.14756 132.043 8.34127C128.682 9.31742 126.569 9.26296 124.107 7.53174C123.675 8.65202 123.461 9.29077 123.718 10.473C123.774 10.882 123.983 11.7541 123.436 11.8352C123.183 10.4153 122.667 9.63025 121.708 9.96984C120.855 11.3369 121.364 13.0581 123.415 13.4142C124.018 14.6579 124.278 15.5091 124.194 15.9668C124.259 16.742 123.58 17.7865 123.069 18.5503C123.003 18.6469 122.941 18.7404 122.883 18.8269Z" fill="#FAB688"/>
<path fill-rule="evenodd" clip-rule="evenodd" d="M129.081 17.4547C127.707 17.6095 127.083 17.6004 125.812 17.0942C126.557 17.8979 127.717 18.3775 129.05 18.4549C128.978 18.1195 128.991 17.7953 129.081 17.4547Z" fill="#ED7D57"/>
<path fill-rule="evenodd" clip-rule="evenodd" d="M142.433 36.9604C142.819 36.9604 142.951 37.2734 142.728 37.6584C142.506 38.0445 142.013 38.3575 141.626 38.3575C141.24 38.3575 141.108 38.0445 141.331 37.6584C141.553 37.2734 142.047 36.9604 142.433 36.9604Z" fill="#A6A8AB"/>
<path fill-rule="evenodd" clip-rule="evenodd" d="M186.137 4.625C200.696 4.625 212.5 16.4276 212.5 30.9885C212.5 45.5482 200.696 57.3518 186.137 57.3518C171.576 57.3518 159.773 45.5482 159.773 30.9885C159.773 16.4276 171.576 4.625 186.137 4.625Z" fill="#F6EAE0"/>
<path fill-rule="evenodd" clip-rule="evenodd" d="M186.138 7.19434C199.278 7.19434 209.931 17.8473 209.931 30.9881C209.931 44.1289 199.278 54.7814 186.138 54.7814C172.996 54.7814 162.344 44.1289 162.344 30.9881C162.344 17.8473 172.996 7.19434 186.138 7.19434Z" fill="white"/>
<path fill-rule="evenodd" clip-rule="evenodd" d="M189.603 18.5827C189.135 18.186 188.847 16.8359 188.812 15.6436C188.87 15.1997 188.91 14.646 188.933 13.9812C191.237 11.5776 191.317 10.147 189.172 9.68673C188.825 9.9911 188.48 10.7782 188.139 12.0428C187.669 12.1234 187.265 11.96 186.925 11.5525C187.07 9.50783 187.099 7.86779 187.012 6.63003C185.264 4.94144 182.101 5.32066 178.105 6.72828C178.148 7.86258 178.238 9.05446 178.377 10.303C177.794 11.1269 178.416 13.5882 179.695 16.3057C179.707 18.0022 180.9 18.6768 183.274 18.3258L183.087 18.9234C182.345 19.027 181.593 19.1488 180.829 19.2876C176.89 27.2694 184.445 30.5103 191.68 18.9747C191.107 18.8758 190.415 18.7455 189.603 18.5827Z" fill="#FAB688"/>
<path fill-rule="evenodd" clip-rule="evenodd" d="M177.617 8.57854C181.194 8.39327 183.814 5.42949 187.063 8.16618C187.15 9.40348 187.071 9.50764 186.926 11.5523C187.265 11.9598 187.669 12.1231 188.14 12.0426C188.482 10.778 188.826 9.99091 189.173 9.68653C191.318 10.1474 191.238 11.5774 188.934 13.981C188.91 14.6448 188.871 15.1996 188.813 15.6434C188.846 16.8359 189.136 18.1847 189.604 18.5825C190.416 18.7454 191.108 18.8752 191.679 18.9745C192.656 19.1908 193.584 19.4459 194.449 19.7392C196.573 20.4601 198.315 21.4133 199.44 22.5988C200.577 26.1222 201.478 30.3676 202.143 35.3349C203.011 34.867 203.828 34.1932 204.656 33.0734C208.054 28.475 201.976 31.8339 202.666 24.5528C203.164 19.288 196.41 21.071 196.019 14.5764C195.38 3.97634 190.995 2.79987 188.887 2.63708C186.358 0.300238 179.629 -1.41338 176.696 1.65445C174.094 4.37746 174.86 8.44657 177.617 8.57854ZM195.037 31.8986C195.181 34.0032 195.404 35.9235 195.707 37.658C195.558 37.7279 195.405 37.8027 195.25 37.8801C194.413 38.3019 193.503 38.3206 192.602 38.0989C193.098 35.7217 193.909 33.655 195.037 31.8986ZM178.212 11.9294C178.379 13.0834 178.914 14.647 179.696 16.3057C179.707 18.0021 180.9 18.6767 183.275 18.3257L183.088 18.9234C182.345 19.027 181.594 19.1487 180.83 19.2875C178.983 19.6144 177.962 20.2231 177.647 20.6482C177.008 20.9943 176.463 21.3264 175.996 21.648C176.138 20.7615 176.539 19.905 177.041 19.0799C178.226 17.1275 175.069 18.4941 176.455 15.4497C177.25 13.7055 177.692 13.0091 178.212 11.9294Z" fill="#20386F"/>
<path fill-rule="evenodd" clip-rule="evenodd" d="M177.09 43.612C175.43 46.4449 174.198 48.8677 173.344 51.0651C177.033 53.4165 181.414 54.7803 186.113 54.7803C190.462 54.7803 194.537 53.6128 198.045 51.5752C196.913 48.8779 194.907 46.1902 192.023 43.5132C183.009 47.4984 178.03 47.5315 177.09 43.612Z" fill="#20386F"/>
<path fill-rule="evenodd" clip-rule="evenodd" d="M197.885 51.6671C196.768 48.9096 194.738 46.162 191.791 43.4253C191.207 43.6837 190.64 43.9251 190.09 44.1505C192.794 46.7735 194.46 49.7709 195.017 53.0566C196.008 52.6567 196.966 52.1916 197.885 51.6671Z" fill="#071023"/>
<path fill-rule="evenodd" clip-rule="evenodd" d="M206.796 39.4778C205.142 41.2923 203.873 42.6801 202.989 43.642C202.348 34.9639 201.166 27.9491 199.44 22.5983C198.315 21.4132 196.573 20.46 194.449 19.7393C192.178 20.2375 192.099 34.5798 195.037 31.898C195.658 40.9831 197.764 46.6212 201.353 48.8154C203.451 49.1999 205.575 48.0699 207.725 45.4277L206.115 44.4399L206.796 39.4778Z" fill="#466FB5"/>
<path fill-rule="evenodd" clip-rule="evenodd" d="M177.195 39.1833C176.235 32.1471 170.306 28.7045 177.56 20.7952C177.577 20.7494 177.605 20.7002 177.644 20.6484C174.57 22.3119 173.673 23.6415 173.244 25.1169C171.511 31.0797 170.862 38.0223 170.3 45.6816C168.081 47.722 165.871 50.1662 163.32 54.4606L167.202 55.7898L167.836 56.3077C170.338 54.0318 172.635 51.8819 174.672 48.0124C175.845 45.4077 176.661 42.4727 177.195 39.1833Z" fill="#466FB5"/>
<path fill-rule="evenodd" clip-rule="evenodd" d="M176.072 35.0679C175.766 43.0657 174.041 49.1594 170.898 53.3485C172.237 51.9057 173.499 50.2455 174.675 48.0121C175.848 45.4073 176.664 42.4723 177.198 39.1829C176.992 37.6727 176.557 36.3276 176.072 35.0679Z" fill="#223F81"/>
<path fill-rule="evenodd" clip-rule="evenodd" d="M180.831 19.2876C176.893 27.2704 184.448 30.5103 191.682 18.9746C192.657 19.1909 193.586 19.4461 194.451 19.7393C193.767 19.8893 193.283 21.2916 193.019 23.1057C192.408 27.1161 192.223 30.4403 192.466 33.0799C191.084 36.0473 190.293 39.7373 190.091 44.1504C190.136 44.1925 190.181 44.2358 190.224 44.2785C182.344 47.4847 177.967 47.262 177.091 43.6121C177.386 41.9704 177.382 40.5127 177.2 39.183C176.994 37.6728 176.559 36.3276 176.074 35.0679C174.301 30.4621 171.869 27.0054 177.565 20.7948C177.582 20.7489 177.61 20.6998 177.649 20.648C177.964 20.2231 178.985 19.6144 180.831 19.2876Z" fill="#407BFF"/>
<path fill-rule="evenodd" clip-rule="evenodd" d="M190.09 44.1506C190.292 39.7375 191.083 36.0475 192.465 33.0801C192.222 30.4406 192.406 27.1163 193.018 23.106C192.405 27.3251 192.983 33.7738 195.038 31.8983C193.911 33.6553 193.099 35.7218 192.602 38.0992C192.256 39.7536 192.064 41.558 192.023 43.5135C191.404 43.7869 190.803 44.0422 190.222 44.2788C190.18 44.236 190.135 44.1928 190.09 44.1506Z" fill="#223F81"/>
<path fill-rule="evenodd" clip-rule="evenodd" d="M183.597 20.7132C185.162 21.0235 187.761 20.0025 189.601 18.5825C190.414 18.7454 191.106 18.8752 191.678 18.9745C184.444 30.5102 176.889 27.2703 180.827 19.2874C181.591 19.1486 182.343 19.0269 183.085 18.9233C183.21 19.7297 183.329 20.356 183.597 20.7132Z" fill="#407BFF"/>
<path fill-rule="evenodd" clip-rule="evenodd" d="M206.798 39.478C204.881 42.8086 204.369 45.5833 205.261 47.8031C207.059 46.7523 208.664 45.3035 210.073 43.4575C207.732 42.3809 206.64 41.0543 206.798 39.478Z" fill="#223F81"/>
<path fill-rule="evenodd" clip-rule="evenodd" d="M163.32 54.4606C166.919 52.536 169.059 52.5574 169.744 54.5262C168.978 55.0527 167.99 56.0957 166.869 57.9876C165.884 57.4975 164.616 56.5545 163.32 54.4606Z" fill="#223F81"/>
<path fill-rule="evenodd" clip-rule="evenodd" d="M163.323 54.4604C164.392 56.189 165.442 57.1332 166.331 57.6858C164.951 58.9669 163.516 60.3873 162.032 62.2302C162.957 64.0923 162.371 64.6343 161.422 65.0839C161.01 65.2884 158.928 65.6869 158.101 64.9349C157.18 64.442 158.035 61.2498 159.816 61.1424C161.066 58.4964 162.226 56.3075 163.323 54.4604Z" fill="#FAB688"/>
<path fill-rule="evenodd" clip-rule="evenodd" d="M209.375 43.1102C207.515 42.0998 206.655 40.8888 206.796 39.4779C208.254 37.8791 210.012 35.9476 212.07 33.6844C213.292 32.5881 214.59 32.0728 215.965 32.1407C215.827 32.5242 215.504 32.8701 214.997 33.1777C216.68 33.4121 217.801 33.0469 218.362 32.083C219.066 31.6371 220.271 34.5228 219.078 35.8418C217.625 37.4481 215.892 37.4534 213.062 35.8856C211.824 38.7752 210.596 41.1835 209.375 43.1102Z" fill="#FAB688"/>
<path fill-rule="evenodd" clip-rule="evenodd" d="M183.273 18.3258C184.486 18.0802 185.464 17.652 186.209 17.041C185.218 18.108 184.176 18.736 183.086 18.9234L183.273 18.3258Z" fill="#ED7D57"/>
</svg>
