<svg width="235" height="180" viewBox="0 0 235 180" fill="none" xmlns="http://www.w3.org/2000/svg">
<g opacity="0.2">
<path d="M52.4589 45.0765C49.5155 43.6923 44.6477 45.9429 43.0956 49.2362C40.1328 55.523 49.7154 64.6279 53.2002 63.6507C57.0944 62.5586 57.8631 47.6178 52.4589 45.0765Z" stroke="#0F31AC" stroke-width="1.06446" stroke-miterlimit="10" stroke-linecap="round" stroke-dasharray="2.66 2.66 2.66 2.66 2.66 2.66"/>
<path d="M37.7361 59.3163C36.6857 58.7086 25.5584 52.2719 19.2612 57.3661C14.8397 60.9429 14.7974 68.5884 18.1201 72.8855C24.701 81.396 45.1079 77.5805 47.2252 71.4907C48.6511 67.3898 41.9567 61.7577 37.7361 59.3163Z" stroke="#0F31AC" stroke-width="1.06446" stroke-miterlimit="10" stroke-linecap="round" stroke-dasharray="2.66 2.66 2.66 2.66 2.66 2.66"/>
<path d="M52.0539 164.406C79.1386 157.683 109.914 150.839 157.702 152.005C184.428 152.657 190.484 144.363 210.739 134.051C228.793 124.861 237.66 106.585 232.214 96.2271C226.716 85.7703 209.97 89.9335 196.256 74.3678C190.01 67.2785 191.109 62.3096 187.503 54.448C176.084 29.5551 133.286 10.0983 112.181 20.3954C84.2992 33.9986 108.136 92.7766 76.9687 108.833C57.2544 118.99 42.3535 99.4918 22.8877 114.376C13.2426 121.751 1.44627 132.097 0.533971 143.33C0.533971 143.33 -0.743382 170.793 52.0539 164.406Z" stroke="#0F31AC" stroke-width="1.06446" stroke-miterlimit="10" stroke-linecap="round" stroke-dasharray="2.66 2.66 2.66 2.66 2.66 2.66"/>
<path d="M201.692 133.819C201.692 133.819 196.786 140.324 191.879 149.249C187.455 157.297 184.091 168.142 183.348 177.196C181.264 177.098 178.975 177.005 176.501 176.917C161.846 176.397 140.69 176.072 117.166 176.072C90.4227 176.072 66.74 176.493 52.1914 177.141C51.6906 177.164 51.2004 177.186 50.7214 177.209C32.558 154.696 -4.01747 115.474 29.6419 99.3393C29.6419 99.3393 32.1077 98.5883 35.8046 96.9751C47.5052 91.8684 71.5492 78.1267 68.8748 52.2172C68.8748 52.2172 67.9636 47.3824 67.9636 40.655C67.9636 24.9243 72.9437 -1.15071 106.191 0.0393581C126.325 0.761063 144.867 11.0065 156.078 27.4056C167.074 43.4902 184.655 63.2801 198.973 51.9819C202.278 49.3729 206.649 48.4064 210.729 49.5533C221.035 52.4481 232.743 67.4342 201.692 133.819Z" fill="#559BD0"/>
</g>
<path opacity="0.15" d="M228.429 178.072C228.429 179.137 178.616 180 117.168 180C82.4965 180 51.5295 179.725 31.1242 179.294C26.4242 179.195 22.2852 179.088 18.7903 178.973C16.4883 178.898 14.4657 178.82 12.7463 178.739C8.32242 178.531 5.90625 178.307 5.90625 178.072C5.90625 177.773 9.82783 177.491 16.8272 177.238C19.6936 177.135 23.0758 177.037 26.9164 176.945C47.1246 176.46 80.0203 176.145 117.168 176.145C149.843 176.145 179.23 176.388 199.585 176.777C217.508 177.119 228.429 177.574 228.429 178.072Z" fill="#040C2B"/>
<path d="M102.71 151.241H79.3782C77.8831 149.316 76.5348 147.277 75.3425 145.135C72.5847 140.182 70.7327 134.809 69.839 129.166C68.8179 122.719 69.0913 116.261 70.6506 109.97C72.1564 103.898 74.7916 98.2436 78.4825 93.1634C82.1734 88.0827 86.7372 83.8293 92.0467 80.5212C96.7486 77.5918 101.858 75.518 107.269 74.3403L96.4302 86.7405L109.716 89.3631C102.09 91.2187 95.4358 95.6695 90.7703 102.091C85.56 109.263 83.4544 118.034 84.8411 126.79C86.5483 137.569 93.4202 146.539 102.71 151.241Z" fill="#3B6AD3"/>
<path d="M172.083 173.74V169.975H133.516C134.84 169.539 136.148 169.048 137.441 168.501C143.505 165.937 148.948 162.267 153.62 157.596C154.528 156.688 155.398 155.751 156.229 154.786H172.083V151.02L191.757 162.38L172.083 173.74Z" fill="#3B6AD3"/>
<path d="M165.996 122.322C165.973 123.938 165.868 125.57 165.684 127.172C165.501 128.755 165.238 130.345 164.899 131.9C164.564 133.438 164.149 134.977 163.665 136.475C163.185 137.958 162.626 139.437 162.003 140.868C161.385 142.289 160.69 143.697 159.936 145.053C159.187 146.402 158.364 147.731 157.488 149.003C156.615 150.272 155.67 151.514 154.679 152.694C154.082 153.406 153.46 154.106 152.818 154.786C152.796 154.81 152.773 154.835 152.749 154.86C152.691 154.921 152.633 154.983 152.575 155.043C152.329 155.3 152.08 155.554 151.828 155.806C150.927 156.707 149.994 157.57 149.033 158.393C148.959 158.456 148.885 158.519 148.811 158.582C148.752 158.632 148.692 158.682 148.633 158.732C148.581 158.775 148.53 158.818 148.478 158.86C148.416 158.912 148.354 158.964 148.291 159.015C148.139 159.14 147.986 159.264 147.832 159.387C147.759 159.446 147.686 159.504 147.612 159.562C147.46 159.683 147.307 159.803 147.153 159.922C146.998 160.041 146.843 160.158 146.688 160.276C145.909 160.862 145.112 161.425 144.305 161.96C143.979 162.175 143.65 162.387 143.319 162.596C143.236 162.647 143.153 162.7 143.069 162.751C142.902 162.854 142.735 162.957 142.567 163.058C142.333 163.199 142.098 163.337 141.862 163.474C141.717 163.559 141.572 163.642 141.426 163.724C141.36 163.762 141.293 163.799 141.227 163.836C141.165 163.871 141.102 163.906 141.039 163.94C140.971 163.978 140.904 164.015 140.836 164.052C140.778 164.084 140.72 164.116 140.662 164.147C140.577 164.193 140.491 164.239 140.406 164.285C140.235 164.376 140.063 164.467 139.891 164.556C139.804 164.601 139.718 164.645 139.632 164.689C139.113 164.954 138.588 165.21 138.059 165.457C137.97 165.498 137.882 165.539 137.793 165.58C137.35 165.783 136.904 165.98 136.454 166.17C136.361 166.21 136.267 166.249 136.174 166.288C136.08 166.327 135.986 166.365 135.893 166.403C135.736 166.467 135.579 166.531 135.421 166.592C129.756 168.838 123.774 169.975 117.621 169.975H34.918V154.786H120.525L120.514 154.66C121.645 154.561 122.78 154.404 123.888 154.192C124.977 153.985 126.067 153.719 127.126 153.405C128.17 153.094 129.211 152.727 130.218 152.314C131.214 151.906 132.202 151.444 133.153 150.939C134.096 150.439 135.027 149.886 135.919 149.296C136.805 148.709 137.673 148.072 138.5 147.401C139.323 146.734 140.124 146.018 140.88 145.274C141.635 144.531 142.363 143.743 143.044 142.931C143.726 142.119 144.375 141.266 144.975 140.393C145.577 139.519 146.143 138.606 146.657 137.68C147.174 136.749 147.651 135.783 148.075 134.808C148.502 133.828 148.884 132.816 149.213 131.8C149.545 130.775 149.829 129.723 150.058 128.67C150.289 127.607 150.47 126.519 150.594 125.436C150.721 124.338 150.793 123.219 150.808 122.111C150.823 120.983 150.781 119.838 150.683 118.706C150.583 117.575 150.426 116.44 150.215 115.332C150.007 114.243 149.742 113.153 149.427 112.094C149.116 111.049 148.75 110.009 148.337 109.002C147.929 108.006 147.466 107.018 146.962 106.067C146.462 105.123 145.909 104.193 145.318 103.301C144.732 102.415 144.094 101.547 143.424 100.72C142.756 99.8968 142.04 99.0958 141.296 98.3394C140.554 97.5845 139.765 96.8565 138.954 96.1755C138.142 95.4941 137.288 94.8445 136.416 94.2445C135.542 93.6431 134.629 93.077 133.702 92.5626C132.772 92.0457 131.805 91.5688 130.831 91.145C129.851 90.7182 128.838 90.3355 127.822 90.0069C126.798 89.6752 125.745 89.3912 124.693 89.1618C123.68 88.9416 122.644 88.7674 121.612 88.6439L122.049 91.1648L102.145 83.8554L118.426 70.2705L118.941 73.2359C120.361 73.2739 121.789 73.3746 123.195 73.5361C124.777 73.7184 126.367 73.9822 127.923 74.3209C129.461 74.6556 131 75.0707 132.498 75.5552C133.981 76.0352 135.459 76.5942 136.891 77.2174C138.311 77.8351 139.719 78.5302 141.075 79.2836C142.425 80.0329 143.754 80.8566 145.026 81.732C146.295 82.6048 147.537 83.5496 148.717 84.5404C149.897 85.5307 151.043 86.5894 152.124 87.6876C153.207 88.7883 154.249 89.9542 155.221 91.1526C156.198 92.3576 157.127 93.6234 157.982 94.9149C158.844 96.2166 159.652 97.575 160.382 98.9531C161.119 100.343 161.795 101.787 162.392 103.244C162.995 104.717 163.532 106.237 163.986 107.764C164.445 109.309 164.832 110.898 165.135 112.486C165.442 114.095 165.67 115.742 165.813 117.383C165.957 119.022 166.018 120.684 165.996 122.322Z" fill="#407BFF"/>
<path d="M141.863 163.474C142.099 163.337 142.335 163.198 142.569 163.058C142.335 163.199 142.1 163.338 141.863 163.474Z" fill="#829CF8"/>
<path d="M143.32 162.595C143.652 162.387 143.981 162.175 144.307 161.959C143.98 162.176 143.651 162.388 143.32 162.595Z" fill="#829CF8"/>
<path d="M144.305 161.959C145.112 161.425 145.909 160.861 146.688 160.275C145.91 160.862 145.116 161.424 144.305 161.959Z" fill="#829CF8"/>
<path d="M146.688 160.276C146.843 160.158 146.998 160.04 147.152 159.921C146.998 160.041 146.843 160.159 146.688 160.276Z" fill="#829CF8"/>
<path d="M147.152 159.921C147.306 159.802 147.46 159.682 147.612 159.562C147.46 159.683 147.306 159.803 147.152 159.921Z" fill="#829CF8"/>
<path d="M152.82 154.786C152.797 154.81 152.773 154.835 152.75 154.859C152.773 154.835 152.797 154.81 152.819 154.786H152.82Z" fill="#829CF8"/>
<path d="M179.807 95.4272C179.121 97.0372 178.241 98.546 177.184 99.9226L178.331 101.384L167.085 102.985L171.319 92.4452L172.248 93.6294C172.458 93.2477 172.649 92.8543 172.82 92.4513C174.19 89.2348 174.226 85.6776 172.92 82.4347C171.615 79.1919 169.125 76.6514 165.909 75.2813C162.692 73.9113 159.135 73.8758 155.892 75.181C153.195 76.2665 150.983 78.1727 149.527 80.6338C147.525 79.0699 145.415 77.6598 143.207 76.4093C144.102 74.9633 145.17 73.6373 146.404 72.4465C148.328 70.5889 150.566 69.1384 153.057 68.1359C155.53 67.1401 158.131 66.6353 160.786 66.6353C160.804 66.6353 160.822 66.6353 160.84 66.6358C163.611 66.6429 166.318 67.2008 168.885 68.2944C171.452 69.388 173.73 70.953 175.655 72.9462C177.513 74.8701 178.963 77.1085 179.966 79.5984C180.968 82.0889 181.473 84.7075 181.466 87.3822C181.459 90.1532 180.901 92.8604 179.807 95.4272Z" fill="#3B6AD3"/>
<path d="M168.183 82.2853C167.863 81.5373 167.405 80.8656 166.822 80.2889C166.238 79.7123 165.559 79.2594 164.802 78.943C164.019 78.6153 163.187 78.4492 162.329 78.4492C161.472 78.4492 160.64 78.6154 159.856 78.943C159.1 79.2594 158.421 79.7123 157.837 80.2889C157.254 80.8656 156.796 81.5373 156.476 82.2853C156.145 83.06 155.977 83.8827 155.977 84.7305C155.977 85.5782 156.145 86.4009 156.476 87.1756C156.796 87.9236 157.254 88.5953 157.837 89.172C158.421 89.7487 159.1 90.2015 159.856 90.5179C160.64 90.8455 161.472 91.0117 162.329 91.0117C163.187 91.0117 164.019 90.8455 164.802 90.5179C165.559 90.2015 166.238 89.7486 166.822 89.172C167.405 88.5953 167.863 87.9236 168.183 87.1756C168.514 86.4009 168.682 85.5782 168.682 84.7305C168.682 83.8827 168.514 83.06 168.183 82.2853ZM162.329 90.5005C159.106 90.5005 156.494 87.9171 156.494 84.7304C156.494 81.5437 159.106 78.9603 162.329 78.9603C165.552 78.9603 168.165 81.5437 168.165 84.7304C168.165 87.9171 165.552 90.5005 162.329 90.5005Z" fill="#407BFF"/>
<path d="M162.703 78.4458H161.953V79.187H162.703V78.4458Z" fill="#407BFF"/>
<path d="M162.703 90.0498H161.953V90.791H162.703V90.0498Z" fill="#407BFF"/>
<path d="M168.529 85.1441L168.531 84.4028L167.782 84.401L167.78 85.1423L168.529 85.1441Z" fill="#407BFF"/>
<path d="M156.779 85.0904L156.781 84.3491L156.032 84.3473L156.03 85.0886L156.779 85.0904Z" fill="#407BFF"/>
<path d="M161.17 84.2081C161.226 84.0931 161.319 84.0226 161.378 84.0505L166.055 86.2901L166.431 86.7551L165.851 86.7064L161.174 84.4669C161.115 84.4389 161.114 84.323 161.17 84.2081Z" fill="#407BFF"/>
<path d="M162.336 85.7577C162.205 85.7586 162.1 85.7291 162.099 85.6918L162.078 82.7069L162.326 82.1904L162.55 82.7036L162.571 85.6885C162.571 85.7258 162.466 85.7567 162.336 85.7577Z" fill="#407BFF"/>
<path d="M162.326 85.4042C162.672 85.4042 162.953 85.1267 162.953 84.7844C162.953 84.4421 162.672 84.1646 162.326 84.1646C161.98 84.1646 161.699 84.4421 161.699 84.7844C161.699 85.1267 161.98 85.4042 162.326 85.4042Z" fill="#407BFF"/>
<path d="M137.405 128.947L137.237 131.791L137.233 131.848L137.25 131.852L138.755 132.303C138.488 133.155 138.081 133.953 137.559 134.672C137.549 134.686 137.54 134.699 137.53 134.711L136.95 134.464L135.995 134.056L134.034 136.332L134.736 137.193C133.916 137.664 133.012 138.021 132.05 138.241L131.732 136.901L128.57 136.837L128.097 138.352C127.036 138.173 126.038 137.831 125.135 137.354L126.049 136.015L123.887 133.892L122.132 134.807L122.117 134.815C122.075 134.76 122.034 134.704 121.993 134.648C121.309 133.703 120.823 132.627 120.59 131.472L122.137 131.178L122.303 128.277L120.703 127.84C120.982 126.8 121.466 125.837 122.114 124.987L123.757 125.842L125.964 123.765L125.083 122.481C126.212 121.879 127.491 121.489 128.852 121.369L129.207 123.094L132.366 123.24L132.859 121.812C133.144 121.71 134.872 122.656 135.711 123.292L134.698 124.58L136.821 126.819L138.18 126.171C138.593 126.949 138.881 127.792 139.021 128.678L137.405 128.947ZM129.897 124.471C128.719 124.447 127.586 124.738 126.613 125.303C126.28 125.496 125.965 125.722 125.674 125.979C124.532 126.984 123.886 128.337 123.853 129.79C123.821 131.244 124.407 132.622 125.502 133.672C126.598 134.723 128.073 135.319 129.655 135.351C131.237 135.383 132.737 134.847 133.878 133.842C135.02 132.838 135.666 131.484 135.698 130.031C135.731 128.578 135.145 127.199 134.049 126.149C133.938 126.042 133.822 125.94 133.703 125.842C132.652 124.984 131.318 124.5 129.897 124.471Z" fill="#CDD7FB"/>
<path d="M134.622 110.297L134.433 113.634L134.429 113.701L134.447 113.706L136.092 114.232C135.799 115.233 135.352 116.169 134.78 117.014C134.769 117.03 134.759 117.045 134.749 117.06L134.115 116.77L133.071 116.293L130.922 118.967L131.688 119.975C130.792 120.53 129.803 120.95 128.75 121.209L128.405 119.638L124.947 119.568L124.428 121.346C123.267 121.139 122.176 120.738 121.19 120.18L122.192 118.608L119.831 116.12L117.911 117.197L117.894 117.206C117.848 117.142 117.803 117.076 117.759 117.011C117.013 115.903 116.484 114.641 116.23 113.287L117.922 112.939L118.109 109.535L116.361 109.025C116.667 107.805 117.199 106.674 117.908 105.676L119.704 106.676L122.121 104.236L121.16 102.731C122.396 102.023 123.794 101.564 125.283 101.42L125.668 103.444L129.122 103.609L129.663 101.933C129.975 101.814 131.863 102.92 132.78 103.665L131.67 105.178L133.987 107.801L135.474 107.039C135.924 107.951 136.238 108.94 136.389 109.979L134.622 110.297ZM126.42 105.058C125.132 105.032 123.893 105.375 122.828 106.039C122.463 106.267 122.118 106.532 121.799 106.834C120.549 108.015 119.84 109.604 119.802 111.309C119.764 113.014 120.402 114.63 121.598 115.86C122.795 117.091 124.406 117.788 126.136 117.823C127.866 117.858 129.507 117.227 130.757 116.046C132.007 114.866 132.716 113.277 132.754 111.572C132.792 109.867 132.154 108.25 130.957 107.02C130.836 106.895 130.709 106.775 130.579 106.661C129.431 105.655 127.973 105.09 126.42 105.058Z" fill="#CDD7FB"/>
<path d="M117.769 122.441L117.509 127.036L117.503 127.128L117.528 127.135L119.791 127.859C119.387 129.237 118.773 130.527 117.986 131.69C117.972 131.712 117.957 131.733 117.943 131.753L117.072 131.355L115.637 130.698L112.682 134.379L113.735 135.768C112.502 136.531 111.142 137.11 109.695 137.468L109.22 135.304L104.466 135.208L103.751 137.656C102.156 137.37 100.656 136.819 99.3002 136.051L100.678 133.886L97.4318 130.46L94.791 131.943L94.7679 131.956C94.705 131.867 94.643 131.777 94.5823 131.686C93.5559 130.161 92.8285 128.424 92.4805 126.559L94.8068 126.08L95.0639 121.393L92.6603 120.69C93.0815 119.01 93.8119 117.453 94.7878 116.078L97.2566 117.456L100.581 114.095L99.2589 112.023C100.958 111.048 102.881 110.415 104.928 110.217L105.457 113.004L110.207 113.232L110.951 110.924C111.38 110.759 113.976 112.283 115.236 113.308L113.71 115.392L116.896 119.004L118.941 117.954C119.56 119.21 119.991 120.572 120.199 122.003L117.769 122.441ZM106.491 115.227C104.72 115.191 103.017 115.663 101.552 116.578C101.051 116.892 100.577 117.257 100.138 117.673C98.4188 119.299 97.4437 121.487 97.3915 123.835C97.3393 126.182 98.2162 128.408 99.8611 130.102C101.506 131.796 103.722 132.756 106.1 132.804C108.479 132.853 110.735 131.984 112.454 130.358C114.173 128.732 115.148 126.544 115.2 124.196C115.252 121.849 114.375 119.623 112.73 117.928C112.563 117.756 112.389 117.59 112.21 117.434C110.632 116.049 108.627 115.27 106.491 115.227Z" fill="#CDD7FB"/>
<path d="M70.8101 161.803C70.8101 161.803 72.3234 167.766 74.2907 169.964L76.611 172.63L73.4079 173.042L69.6373 169.318C69.6373 169.318 70.3687 168.329 69.1328 165.114L70.8101 161.803Z" fill="#DE995F"/>
<path d="M75.5653 173.797C73.5972 174.128 72.9918 173.413 72.9918 173.413L71.508 172.255L70.2438 171.27L70.3691 173.165H69.8144L69.6384 171.049C69.3274 170.389 69.2795 169.877 69.347 169.491C69.4737 168.781 69.9045 168.492 69.9045 168.492C70.2325 170.168 73.4212 172.039 73.4212 172.039C75.3879 172.616 75.6145 171.485 75.6145 171.485L77.8346 172.533C78.5413 173.77 75.5653 173.797 75.5653 173.797Z" fill="#040C2B"/>
<path opacity="0.15" d="M71.508 172.255L70.2438 171.27L70.3691 173.165H69.8144L69.6384 171.049C69.3274 170.389 69.2795 169.877 69.347 169.491L69.6934 170.264C69.6934 170.264 71.6221 171.092 71.508 172.255Z" fill="black"/>
<path d="M72.4671 160.385L71.7535 161.006C71.7333 161.024 71.7147 161.043 71.698 161.064C71.6278 161.152 71.5897 161.266 71.5949 161.384C71.6147 161.891 71.5572 162.307 71.4906 162.608C71.4152 162.946 71.3283 163.136 71.3283 163.136C71.2978 163.193 71.2677 163.249 71.2375 163.304C70.4078 164.819 69.6958 165.469 69.3527 165.718C69.2127 165.821 69.1342 165.856 69.1342 165.856L68.0895 164.098L66.0496 160.666L65.505 159.75L65.1496 159.152L64.8716 158.684C64.7201 158.55 64.5706 158.421 64.423 158.298C63.8872 157.849 63.3811 157.467 62.9079 157.144C62.7774 157.055 62.6493 156.97 62.5239 156.889C62.326 156.761 62.1344 156.644 61.95 156.537C61.2285 156.117 60.6106 155.844 60.114 155.665C59.2176 155.343 58.7175 155.332 58.7175 155.332C58.0087 155.446 57.3475 155.532 56.7316 155.597C55.5937 155.714 54.6104 155.754 53.7691 155.744C52.5717 155.731 51.6623 155.618 51.0014 155.487C49.8508 155.258 48.9203 154.328 48.6205 153.096C48.2357 151.514 48.4784 149.765 48.6982 148.726C48.7636 148.418 48.8267 148.172 48.8708 148.011C48.908 147.877 48.9314 147.803 48.9314 147.803L51.6051 148.215L53.6945 148.451L53.7028 148.452L54.4072 148.531L55.8977 148.7L56.2162 148.736L61.3836 149.32L68.3773 150.111L70.4779 154.283L71.0447 155.409L71.0677 155.454L71.262 155.84L71.3314 155.978C71.3314 155.978 71.3314 155.978 71.3314 155.978L72.7561 158.807C73.0244 159.34 72.9026 160.005 72.4671 160.385Z" fill="#040C2B"/>
<path d="M69.9907 171.187H67.6955L65.0977 166.873L65.7534 165.032L65.3522 161.131L65.1486 159.152L65.0977 158.657L69.1332 156.733L68.8795 158.449L68.1496 163.383C68.1196 163.623 68.0994 163.861 68.0885 164.099C67.9169 167.834 69.9907 171.187 69.9907 171.187Z" fill="#DE995F"/>
<path d="M65.7817 165.471C65.7817 165.471 64.0414 165.828 64.3692 168.082L64.6215 168.494L64.6719 170.142H65.1007L65.3025 168.961C65.3025 168.961 65.8825 169.208 67.0428 170.72C67.0428 170.72 67.5472 172.863 71.2043 172.506C71.2043 172.506 72.0194 171.649 69.5563 170.374C69.5563 170.374 68.6065 170.939 67.5472 170.06C67.5472 170.06 65.3529 167.065 65.7817 165.471Z" fill="#040C2B"/>
<path opacity="0.15" d="M71.0436 155.408L71.037 156.142C71.037 156.142 70.098 157.421 68.879 158.449C67.9973 159.192 66.97 160.02 66.0484 160.666C65.8075 160.835 65.5738 160.992 65.3518 161.131L65.1483 159.152L64.8703 158.684C64.7188 158.55 64.5692 158.421 64.4219 158.298L70.4769 154.283L71.0436 155.408Z" fill="black"/>
<path opacity="0.15" d="M62.9049 157.144C62.5684 156.914 62.2486 156.713 61.9472 156.537C60.868 154.164 60.5558 150.606 60.5558 150.606L53.6914 148.451L61.3805 149.321L62.0186 150.111L62.9049 157.144Z" fill="black"/>
<path opacity="0.15" d="M55.4721 149.01C55.4721 149.01 52.7136 149.369 51.6291 151.128C51.6291 151.128 50.368 152.062 49.0312 152.337L51.3012 150.881C51.3012 150.881 52.8584 148.705 55.4721 149.01Z" fill="black"/>
<path opacity="0.15" d="M60.8109 153.244C60.8026 153.25 60.6618 153.362 60.3976 153.546C59.7892 153.97 58.5283 154.782 56.732 155.597C55.5941 155.715 54.6108 155.754 53.7695 155.745C53.7695 155.745 56.8327 155.073 59.9685 153.646C60.2493 153.518 60.5309 153.384 60.8109 153.244Z" fill="black"/>
<path d="M71.3287 155.772C69.4623 157.75 64.3171 160.388 64.3171 160.388C61.2148 155.991 61.3157 150.139 61.3157 150.139L52.3242 148.146L55.0356 146.621C55.0356 146.621 56.395 146.79 58.1908 146.913C60.6878 147.085 64.0278 147.169 65.7295 146.594C65.7755 146.578 65.8208 146.564 65.8657 146.551C66.6542 146.324 67.2577 146.499 67.718 146.869C68.8946 147.814 69.1344 150.029 69.1344 150.029C69.7397 152.639 71.3287 155.772 71.3287 155.772Z" fill="#040C2B"/>
<path d="M71.3398 164.383L71.3933 164.222C71.3668 164.318 71.3452 164.371 71.3398 164.383Z" fill="#758CFA"/>
<path opacity="0.15" d="M71.5967 161.385C71.6168 161.891 71.5593 162.308 71.4925 162.608C71.4214 161.831 71.1936 160.795 70.6367 159.495L71.7001 161.065C71.6299 161.152 71.5919 161.267 71.5967 161.385Z" fill="black"/>
<path opacity="0.15" d="M67.7164 146.869C66.5642 147.434 64.4413 148.358 62.9157 148.339L55.8203 148.76L58.1891 146.913C60.6861 147.085 64.0261 147.169 65.7278 146.594C65.7738 146.578 65.8191 146.564 65.864 146.551C66.6525 146.324 67.256 146.499 67.7164 146.869Z" fill="black"/>
<path d="M61.843 146.621L67.2657 146.072L63.0789 147.501L56.7734 148.462L61.843 146.621Z" fill="black"/>
<path d="M66.7888 141.208L71.7323 139.972L67.6842 146.663L63.2578 147.171L66.7888 141.208Z" fill="#0F31AC"/>
<path d="M56.7734 148.462L63.2554 147.803L67.2657 146.072L63.2554 147.171L56.7734 148.462Z" fill="#0F31AC"/>
<path d="M64.0765 145.563C64.0765 145.563 64.0445 146.017 63.649 146.188C63.5479 146.231 63.4233 146.256 63.2694 146.25L62.311 145.838L59.6627 146.141L57.7143 143.684L57.418 143.31L59.2087 143.063L59.3278 143.226L60.3278 144.599L60.4698 144.794C60.4698 144.794 61.1004 145.261 61.6804 144.712C61.6804 144.712 61.9688 144.263 62.4038 144.259C62.5582 144.258 62.7312 144.313 62.9163 144.464C62.9163 144.464 63.8747 145.014 64.0765 145.563Z" fill="#DE995F"/>
<path opacity="0.15" d="M63.6495 146.187C63.5484 146.231 63.4238 146.256 63.2699 146.25L62.3115 145.838L59.6632 146.14L57.7148 143.684L58.9161 143.481L59.3282 143.226L60.3283 144.599L60.4703 144.794C60.4703 144.794 61.1008 145.261 61.6809 144.712C61.6809 144.712 61.9692 144.263 62.4043 144.259C62.8369 144.648 63.4808 145.348 63.6495 146.187Z" fill="black"/>
<path d="M56.5208 134.476L54.957 135.987L51.9191 132.576L50.8711 131.399L53.1915 126.095L54.9822 125.463L55.843 130.506L56.5208 134.476Z" fill="#D18B4F"/>
<path opacity="0.15" d="M55.843 130.506L54.8435 131C54.8435 131 53.5824 130.286 52.3213 132.209C52.226 132.355 52.0895 132.476 51.9191 132.576L50.8711 131.399L53.1915 126.095L54.9823 125.463L55.843 130.506Z" fill="black"/>
<path d="M59.4185 143.352C59.4185 143.352 58.4386 143.654 58.136 143.516C58.0321 143.469 57.8835 142.483 57.7334 141.209C57.4461 138.769 57.1523 135.273 57.1523 135.273L57.682 134.861C57.682 134.861 57.8808 135.9 58.1085 137.233C58.3607 138.709 58.6485 140.546 58.7413 141.73C58.7413 141.73 59.2886 142.803 59.4185 143.352Z" fill="white"/>
<path d="M58.4006 147.514C58.3995 147.514 58.3578 147.518 57.1845 147.85C57.0846 147.878 56.9819 147.907 56.8764 147.936C56.8498 147.943 56.8228 147.951 56.7959 147.958C56.0827 148.153 55.2617 148.357 54.4058 148.531C54.3455 148.544 54.2852 148.556 54.2249 148.568C54.192 148.574 54.1595 148.581 54.1266 148.587C52.2497 148.951 50.2463 149.152 48.8692 148.778C48.8105 148.762 48.753 148.745 48.6967 148.727C48.6031 148.696 48.5126 148.663 48.4258 148.627L48.4365 148.333L48.4801 147.145L48.5595 144.984L48.5603 144.966L48.6356 142.91V142.909L48.9839 133.421L49.0311 132.14C49.0311 132.14 49.039 132.116 49.0561 132.075V132.075C49.1818 131.767 49.7935 130.484 51.2106 130.625C51.2237 130.626 51.2371 130.628 51.2506 130.629C51.2506 130.629 51.5787 130.876 52.0634 131.385C52.2078 131.537 52.366 131.711 52.5338 131.911C53.1168 132.602 53.8121 133.579 54.4284 134.861C54.4284 134.861 55.2606 135.63 55.4625 134.366V131.508H57.5559C57.5559 131.508 57.7467 132.123 57.8886 134.411C57.9251 134.996 57.958 135.692 57.9838 136.515C57.9993 137.012 58.0124 137.557 58.0219 138.151C58.037 139.128 58.0426 140.243 58.035 141.51L58.1385 143.211L58.1576 143.525L58.1627 143.608L58.2051 144.304L58.3127 146.066L58.3646 146.925L58.4006 147.514Z" fill="white"/>
<path opacity="0.15" d="M59.4194 143.352C59.4194 143.352 58.4396 143.654 58.1369 143.517C58.033 143.469 57.8844 142.483 57.7344 141.209L58.1094 137.233C58.3617 138.709 58.6494 140.546 58.7423 141.731C58.7423 141.731 59.2895 142.804 59.4194 143.352Z" fill="black"/>
<path opacity="0.15" d="M57.1845 147.85C57.0845 147.878 56.9818 147.907 56.8763 147.936C56.8498 147.943 56.8228 147.951 56.7958 147.958C56.0827 148.153 55.2616 148.357 54.4057 148.532C54.3454 148.544 54.2851 148.556 54.2249 148.568C54.1919 148.574 54.1594 148.581 54.1265 148.587C52.2496 148.952 50.2463 149.152 48.8692 148.778C48.8105 148.762 48.7529 148.745 48.6966 148.727C48.6879 148.724 48.6795 148.721 48.6709 148.718C48.5864 148.691 48.5047 148.66 48.4258 148.628L48.4365 148.333L48.4734 147.33L48.4801 147.145L48.5595 144.984L48.5603 144.966L48.6356 142.91V142.909L48.9839 133.421L51.1118 132.947C51.1122 132.947 51.1122 132.947 51.1122 132.947H51.1126C51.1431 132.966 52.3529 133.743 51.7801 138.68L51.1245 143.819C51.1245 143.819 51.1998 144.341 52.2592 145.083L52.9982 145.498L55.0159 146.632L57.0696 147.785L57.1845 147.85Z" fill="black"/>
<path d="M50.6875 147.709L57.7073 147.995C57.7073 147.995 59.2788 147.861 59.6028 146.994C59.6028 146.994 60.4444 146.212 61.5223 146.994C61.5223 146.994 63.3065 147.006 62.9029 145.879C62.9029 145.879 61.2887 143.681 59.4224 145.275L58.0352 146.264L51.3514 145.247L50.6875 147.709Z" fill="#DE995F"/>
<path d="M52.2611 145.083L52.1373 145.367L51.1088 147.726L51.0755 147.803L50.6892 147.709L49.0329 147.308C48.9777 147.296 48.9238 147.282 48.8711 147.269C48.7326 147.232 48.6029 147.191 48.4819 147.145C47.4591 146.762 47.0414 146.081 46.8879 145.46C46.7816 145.031 46.8019 144.629 46.836 144.374C46.8594 144.2 46.8891 144.094 46.8891 144.094L47.3778 140.095L48.0743 134.394C48.5157 131.989 49.0329 132.14 49.0329 132.14C50.0923 131.7 50.7301 132.218 51.1136 132.947C51.114 132.947 51.114 132.947 51.114 132.947H51.1144C51.2152 133.139 51.298 133.345 51.3667 133.552C51.6292 134.346 51.6832 135.204 51.5432 136.034L50.2668 143.589L50.2034 143.964C50.2034 143.964 50.2034 143.964 50.2034 143.964L50.1677 144.176L52.2611 145.083Z" fill="white"/>
<path d="M59.6756 128.183C59.6756 128.183 59.3767 128.977 59.0359 129.777C58.9338 130.017 58.9015 130.285 58.9427 130.545C59.0773 131.394 59.2312 133.435 57.8493 134.441C57.6082 134.616 57.3199 134.76 56.9769 134.861C56.9769 134.861 55.509 135.266 54.7276 133.125C54.5316 132.588 54.3788 131.89 54.3034 130.986C54.3032 130.985 54.3031 130.983 54.303 130.982C54.2904 130.825 54.3325 130.669 54.4188 130.542L54.6156 130.254L56.3236 127.215L58.6667 123.045C58.6667 123.045 59.4756 123.558 59.8082 124.933C59.9977 125.716 60.0325 126.778 59.6756 128.183Z" fill="#040C2B"/>
<path d="M56.1976 130.904C56.1976 130.904 54.6843 131.81 53.5241 127.826H51.582L52.9188 123.759L57.4334 123.045C57.4334 123.045 60.9392 127.964 56.1976 130.904Z" fill="#DE995F"/>
<path d="M57.1538 121.286C57.1538 121.286 53.3851 119.381 51.3248 124.481C51.2732 124.609 51.2126 124.732 51.1425 124.848L50.1346 126.522C49.8582 126.981 49.692 127.508 49.6513 128.056L49.6058 128.667C49.5781 129.039 49.3982 129.378 49.1159 129.59L47.6199 130.712L48.7045 130.272C48.7045 130.272 47.973 132.47 46.8633 133.157C46.8633 133.157 49.0566 131.703 50.7313 131.773C50.8702 131.779 51.0091 131.764 51.1451 131.732C51.8785 131.562 53.8014 130.877 53.1435 128.458C53.1435 128.458 53.2696 127.524 54.1776 126.81C54.1776 126.81 57.6049 125.968 58.5774 127.804C58.5774 127.804 60.8361 122.688 57.1538 121.286Z" fill="#040C2B"/>
<path opacity="0.15" d="M50.2753 143.562C50.2753 143.562 49.9007 144.602 48.4883 144.986C48.4883 144.986 50.1959 144.994 50.2753 143.562Z" fill="black"/>
<path opacity="0.67" d="M121.106 175.835L122.008 176.224L121.745 177.634L120.203 177.099L121.106 175.835Z" fill="#050505"/>
<path d="M108.527 172.713C108.527 172.713 106.12 172.397 105.594 173.83C105.594 173.83 105.556 177.402 107.06 177.645C107.06 177.645 108.339 177.791 109.167 177.159L113.98 176.552L117.252 176.309L108.527 172.713Z" fill="#040C2B"/>
<path d="M122.988 174.426C122.988 174.426 124.251 176.675 123.504 177.569C123.388 177.707 123.55 177.875 123.793 177.875L128.874 177.864C128.874 177.864 131.77 178.448 132.334 175.993C132.334 175.993 132.672 173.393 128.987 172.956C125.301 172.518 128.949 172.81 128.949 172.81C128.949 172.81 124.662 173.15 122.988 174.426Z" fill="#040C2B"/>
<path d="M125 174.535L124.986 174.679L124.699 177.646L119.34 177.123L121.104 174.568L121.126 174.535C125 174.632 125 174.535 125 174.535Z" fill="#DE995F"/>
<path opacity="0.38" d="M124.998 174.535L124.984 174.679L122.158 174.766L121.102 174.568L121.124 174.535C124.998 174.632 124.998 174.535 124.998 174.535Z" fill="#050505"/>
<path d="M133.22 169.415L126.979 170.757L118.791 172.518L112.287 170.842L102.018 168.196C101.548 164.293 108.938 166.54 108.938 166.54L113.749 167.138H113.75L116.572 167.488L122.966 168.46L124.997 167.57L127.403 166.516C133.891 165.896 133.22 169.415 133.22 169.415Z" fill="#081956"/>
<path opacity="0.3" d="M126.981 170.758L118.793 172.519L112.289 170.843L110.52 169.676L113.751 167.138H113.752L116.574 167.489L122.968 168.461L124.998 167.571L126.981 170.758Z" fill="black"/>
<path d="M109.656 173.855L118.494 171.304C118.494 171.304 124.812 168.704 125.903 168.849C125.903 168.849 133.725 164.403 133.199 169.846C133.199 169.846 134.101 174.122 120.149 174.778L109.656 173.855Z" fill="#081956"/>
<path opacity="0.13" d="M115.727 172.093L116.704 171.777C117.444 172.323 118.835 172.778 119.751 173.235C120.787 173.753 122.045 174.232 123.248 174.547C122.458 174.653 121.669 174.758 120.879 174.863L115.727 172.093Z" fill="black"/>
<path d="M122.571 174.62C122.571 174.62 119.995 176.892 121.725 177.646C121.725 177.646 111.727 176.403 103.73 171.458C103.124 171.084 102.694 170.605 102.492 170.079C101.76 168.173 100.748 163.835 108.638 167.537C108.638 167.537 114.766 169.842 116.786 171.825C117.173 172.205 117.632 172.551 118.164 172.848C119.429 173.553 121.572 174.654 122.571 174.62Z" fill="#081956"/>
<path d="M116.462 149.4L121.125 149.41L122.63 152.544C122.63 152.544 119.696 157.453 115.484 153.079C115.672 152.374 116.294 151.341 116.481 150.637C116.782 149.908 116.744 149.956 116.462 149.4Z" fill="#CC8B5B"/>
<path d="M122.125 151.463C121.128 152.135 120.308 152.558 119.632 152.798C119.216 152.945 118.855 153.022 118.542 153.045C117.867 153.095 117.412 152.892 117.105 152.584C116.573 152.345 115.965 152.006 115.269 151.543C113.37 152.122 109.519 153.418 109.852 154.306L110.233 157.682L110.264 157.958L110.895 163.543L111.477 163.537C111.468 163.579 111.463 163.601 111.463 163.601L118.542 163.676L127.521 163.771L128.564 154.528C129.005 153.352 122.125 151.463 122.125 151.463Z" fill="white"/>
<path d="M119.603 152.804V163.45L111.407 163.537C111.546 162.935 112.607 158.286 112.22 158.036L110.194 157.958L110.163 157.683L109.782 154.307C109.448 153.419 113.3 152.123 115.199 151.543C115.812 151.356 116.221 151.244 116.221 151.244C116.962 151.745 117.606 152.106 118.166 152.358C118.706 152.599 119.167 152.739 119.562 152.798C119.575 152.8 119.589 152.802 119.603 152.804Z" fill="white"/>
<path d="M112.656 164.389L112.327 167.451L108.62 166.206C107.779 165.924 107.204 165.391 107.1 164.783C107.008 164.241 107.066 163.471 107.504 162.396L108.331 158.338C108.331 158.338 107.936 155.532 109.854 153.952C109.854 153.952 110.55 158.605 111.791 159.383L112.054 163.271L112.656 164.389Z" fill="white"/>
<path opacity="0.13" d="M112.338 164.279C112.338 164.279 110.962 163.307 109.311 163.21C109.311 163.21 109.678 162.991 110.687 163.21C110.687 163.21 109.77 162.7 108.715 162.894C108.715 162.894 110.916 162.141 112.338 164.279Z" fill="black"/>
<path opacity="0.13" d="M111.809 159.371C111.809 159.371 109.29 157.281 109.365 156.212C109.365 156.212 110.042 157.16 110.23 157.33C110.23 157.33 109.29 156.042 109.666 155.532C109.666 155.532 110.191 157.149 110.586 157.179L111.809 159.371Z" fill="black"/>
<path opacity="0.13" d="M111.827 159.359C111.827 159.359 109.947 155.276 110.323 155.058C110.323 155.058 110.398 155.86 111.827 159.359Z" fill="black"/>
<path d="M125.301 164.232L125.63 167.295L129.337 166.049C130.178 165.767 130.753 165.234 130.857 164.626C130.949 164.085 130.891 163.314 130.453 162.239L129.626 158.181C129.626 158.181 130.021 155.375 128.103 153.795C128.103 153.795 127.407 158.449 126.166 159.226L125.903 163.114L125.301 164.232Z" fill="white"/>
<path opacity="0.13" d="M116.441 150.564C116.441 150.564 118.673 154.13 121.6 150.403L120.691 148.936L116.987 149.402L116.441 150.564Z" fill="black"/>
<path d="M115.484 144.356C115.484 144.356 119.772 141.756 121.502 144.04C121.502 144.04 125.074 148.049 119.508 151.646C119.508 151.646 115.898 153.419 115.484 144.356Z" fill="#DE995F"/>
<path d="M115.948 148.145L115.215 146.08C114.959 145.605 115.182 144.001 115.215 143.498C115.319 141.924 118.255 140.681 120.785 141.318C120.785 141.318 123.203 141.777 122.854 146.47L121.989 148.559C121.989 148.559 122.102 144.793 120.785 144.599C120.785 144.599 117.777 145.328 115.821 145.279C115.821 145.279 115.765 147.867 115.948 148.145Z" fill="black"/>
<path d="M116.988 147.709C117.549 147.709 118.003 147.415 118.003 147.053C118.003 146.69 117.549 146.396 116.988 146.396C116.427 146.396 115.973 146.69 115.973 147.053C115.973 147.415 116.427 147.709 116.988 147.709Z" stroke="black" stroke-width="0.0747465" stroke-miterlimit="10"/>
<path d="M120.074 147.611C120.635 147.611 121.089 147.318 121.089 146.955C121.089 146.593 120.635 146.299 120.074 146.299C119.513 146.299 119.059 146.593 119.059 146.955C119.059 147.318 119.513 147.611 120.074 147.611Z" stroke="black" stroke-width="0.0747465" stroke-miterlimit="10"/>
<path d="M117.992 146.956C117.992 146.956 118.455 147.296 119.056 146.956" stroke="black" stroke-width="0.0747465" stroke-miterlimit="10"/>
<path d="M115.973 147.053L115.465 146.676" stroke="black" stroke-width="0.0747465" stroke-miterlimit="10"/>
<path d="M121.09 146.956L122.368 146.786" stroke="black" stroke-width="0.0747465" stroke-miterlimit="10"/>
<path opacity="0.13" d="M125.621 164.123C125.621 164.123 126.749 163.151 128.103 163.054C128.103 163.054 127.802 162.835 126.975 163.054C126.975 163.054 127.727 162.544 128.592 162.738C128.592 162.738 126.787 161.985 125.621 164.123Z" fill="black"/>
<path d="M110.293 161.122L126.163 160.903V168.706L110.631 168.898L110.293 161.122Z" fill="#0F31AC"/>
<path d="M118.247 166.456C119.244 166.456 120.052 165.934 120.052 165.289C120.052 164.645 119.244 164.123 118.247 164.123C117.25 164.123 116.441 164.645 116.441 165.289C116.441 165.934 117.25 166.456 118.247 166.456Z" fill="#0F31AC"/>
<path opacity="0.13" d="M110.991 168.497C110.991 168.497 108.472 166.757 103.883 166.237C103.883 166.237 106.177 166.067 111.216 167.987L110.991 168.497Z" fill="black"/>
<path opacity="0.13" d="M126.185 168.716C126.185 168.716 130.738 166.136 132.551 167.517C132.551 167.517 131.601 165.994 125.621 168.57L126.185 168.716Z" fill="black"/>
<path opacity="0.13" d="M126.145 159.214C126.145 159.214 128.664 157.125 128.589 156.055C128.589 156.055 127.912 157.003 127.724 157.173C127.724 157.173 128.664 155.885 128.288 155.375C128.288 155.375 127.763 156.993 127.368 157.022L126.145 159.214Z" fill="black"/>
<path opacity="0.13" d="M126.129 159.202C126.129 159.202 128.009 155.12 127.633 154.901C127.633 154.901 127.558 155.703 126.129 159.202Z" fill="black"/>
<path d="M27.0865 176.272C23.3761 176.272 19.8877 174.827 17.264 172.203C14.6402 169.579 13.1953 166.091 13.1953 162.38C13.1953 158.67 14.6403 155.182 17.264 152.558C19.8876 149.934 23.376 148.489 27.0865 148.489C30.797 148.489 34.2854 149.934 36.9091 152.558C39.5328 155.182 40.9778 158.67 40.9778 162.38C40.9778 166.091 39.5328 169.579 36.9091 172.203C34.2854 174.827 30.797 176.272 27.0865 176.272Z" fill="#0F31AC"/>
<path d="M27.0895 175.739C34.4674 175.739 40.4485 169.758 40.4485 162.38C40.4485 155.002 34.4674 149.021 27.0895 149.021C19.7115 149.021 13.7305 155.002 13.7305 162.38C13.7305 169.758 19.7115 175.739 27.0895 175.739Z" fill="#407BFF"/>
<g opacity="0.5">
<path d="M31.9741 162.489C31.9287 162.572 31.9595 162.677 32.0428 162.722L32.7352 163.099C32.8186 163.145 32.923 163.114 32.9684 163.031C33.0138 162.947 32.983 162.843 32.8996 162.797L32.2072 162.42C32.1239 162.375 32.0195 162.406 31.9741 162.489Z" fill="#57AEFA"/>
<path d="M32.5877 160.622C32.5743 160.716 32.6396 160.803 32.7336 160.817L33.5142 160.928C33.6082 160.941 33.6952 160.876 33.7085 160.782C33.7219 160.688 33.6566 160.601 33.5626 160.587L32.782 160.476C32.688 160.463 32.6011 160.528 32.5877 160.622Z" fill="#57AEFA"/>
<path d="M32.5157 158.657C32.5361 158.75 32.6277 158.808 32.7204 158.788L33.4906 158.619C33.5833 158.599 33.6419 158.507 33.6216 158.414C33.6013 158.322 33.5096 158.263 33.4169 158.283L32.6468 158.452C32.5541 158.473 32.4954 158.564 32.5157 158.657Z" fill="#57AEFA"/>
<path d="M31.7619 156.841C31.8133 156.921 31.9197 156.944 31.9995 156.892L32.6618 156.465C32.7415 156.413 32.7644 156.307 32.713 156.227C32.6615 156.147 32.5551 156.124 32.4754 156.176L31.813 156.604C31.7333 156.655 31.7104 156.761 31.7619 156.841Z" fill="#57AEFA"/>
<path d="M30.4169 155.405C30.493 155.462 30.6006 155.446 30.6573 155.37L31.1282 154.738C31.1849 154.662 31.1692 154.554 31.0931 154.497C31.017 154.441 30.9093 154.456 30.8526 154.533L30.3817 155.165C30.325 155.241 30.3408 155.349 30.4169 155.405Z" fill="#57AEFA"/>
<path d="M28.6552 154.53C28.7463 154.556 28.8417 154.504 28.8682 154.413L29.0881 153.655C29.1145 153.564 29.0622 153.469 28.971 153.442C28.8799 153.416 28.7845 153.468 28.758 153.56L28.5381 154.317C28.5116 154.408 28.564 154.503 28.6552 154.53Z" fill="#57AEFA"/>
<path d="M26.7005 154.325C26.7952 154.318 26.8662 154.236 26.8591 154.141L26.8003 153.355C26.7932 153.26 26.7108 153.189 26.6161 153.196C26.5214 153.203 26.4504 153.286 26.4575 153.38L26.5163 154.167C26.5235 154.261 26.6059 154.332 26.7005 154.325Z" fill="#57AEFA"/>
<path d="M24.7966 154.818C24.8828 154.779 24.9205 154.677 24.8807 154.59L24.5506 153.874C24.5108 153.788 24.4088 153.75 24.3226 153.79C24.2364 153.83 24.1987 153.932 24.2385 154.018L24.5686 154.734C24.6084 154.82 24.7105 154.858 24.7966 154.818Z" fill="#57AEFA"/>
<path d="M23.1856 155.946C23.2525 155.879 23.252 155.77 23.1847 155.703L22.6249 155.148C22.5575 155.081 22.4487 155.082 22.3819 155.149C22.315 155.216 22.3155 155.325 22.3828 155.392L22.9426 155.947C23.01 156.014 23.1188 156.014 23.1856 155.946Z" fill="#57AEFA"/>
<path d="M22.0705 157.566C22.1096 157.48 22.0711 157.378 21.9846 157.339L21.266 157.015C21.1795 156.976 21.0778 157.014 21.0387 157.101C20.9996 157.187 21.0381 157.289 21.1246 157.328L21.8432 157.652C21.9297 157.691 22.0315 157.653 22.0705 157.566Z" fill="#57AEFA"/>
<path d="M21.5948 159.474C21.6012 159.379 21.5295 159.298 21.4349 159.291L20.6482 159.239C20.5535 159.232 20.4716 159.304 20.4652 159.399C20.4589 159.493 20.5305 159.575 20.6252 159.582L21.4119 159.634C21.5067 159.641 21.5885 159.569 21.5948 159.474Z" fill="#57AEFA"/>
<path d="M21.8146 161.428C21.7874 161.337 21.6916 161.286 21.6007 161.313L20.8453 161.539C20.7544 161.566 20.7027 161.662 20.7299 161.753C20.7571 161.844 20.8529 161.895 20.9438 161.868L21.6992 161.642C21.7902 161.615 21.8418 161.519 21.8146 161.428Z" fill="#57AEFA"/>
<path d="M22.7031 163.182C22.6458 163.107 22.5381 163.092 22.4624 163.149L21.8338 163.625C21.7581 163.682 21.7432 163.79 21.8005 163.866C21.8578 163.941 21.9656 163.956 22.0412 163.899L22.6698 163.423C22.7455 163.366 22.7604 163.258 22.7031 163.182Z" fill="#57AEFA"/>
</g>
<path d="M29.6791 166.576V169.991C29.6791 170.097 29.6687 170.201 29.6486 170.301C29.5045 171.021 28.8684 171.564 28.1056 171.564H26.0696C25.6585 171.564 25.2841 171.407 25.0038 171.148C24.7641 170.927 24.5931 170.633 24.5266 170.301C24.5066 170.201 24.4961 170.097 24.4961 169.991V166.576H29.6791Z" fill="#0F31AC"/>
<path d="M29.6791 167.029H24.4961V167.424H29.6791V167.029Z" fill="white"/>
<path d="M29.6791 167.988H24.4961V168.383H29.6791V167.988Z" fill="white"/>
<path d="M29.6791 168.947H24.4961V169.342H29.6791V168.947Z" fill="white"/>
<path d="M29.6792 169.906V169.991C29.6792 170.097 29.6687 170.201 29.6486 170.301H24.5267C24.5066 170.201 24.4961 170.097 24.4961 169.991V169.906H29.6792Z" fill="white"/>
<path opacity="0.1" d="M29.6792 166.576V169.991C29.6792 170.097 29.6687 170.201 29.6486 170.301C29.5046 171.021 28.8685 171.564 28.1056 171.564H26.0696C25.6585 171.564 25.2842 171.407 25.0039 171.148C25.7383 171.359 26.4453 171.305 27.0031 171.181C27.9368 170.972 28.6404 170.207 28.7704 169.26C28.8951 168.351 28.8199 167.289 28.7381 166.576H29.6792Z" fill="black"/>
<path d="M32.1329 160.053C32.1329 161.69 31.0745 164.64 29.6699 166.576H24.4945V166.576C23.0364 164.77 22.0391 161.91 22.0391 160.053C22.0391 157.363 24.2986 155.183 27.086 155.183C29.8733 155.183 32.1329 157.363 32.1329 160.053Z" fill="#57AEFA"/>
<path d="M22.8319 160.155C22.814 160.015 22.8071 159.872 22.8089 159.73C22.8105 159.587 22.8216 159.444 22.8407 159.301C22.8427 159.283 22.8459 159.266 22.8486 159.248L22.8571 159.195C22.863 159.159 22.87 159.124 22.8764 159.088C22.8831 159.053 22.8914 159.018 22.899 158.982C22.9071 158.947 22.9162 158.912 22.9248 158.877C22.9608 158.737 23.0057 158.599 23.0583 158.464C23.1633 158.193 23.3002 157.934 23.4638 157.693C23.6274 157.451 23.8178 157.228 24.0295 157.027C24.4528 156.625 24.9626 156.315 25.5104 156.126C25.6472 156.079 25.7864 156.039 25.9271 156.007L25.9798 155.995L26.0328 155.984L26.0858 155.974C26.1034 155.97 26.1213 155.968 26.139 155.965L26.1922 155.956C26.2099 155.953 26.2278 155.95 26.2456 155.948L26.2989 155.94C26.3166 155.938 26.3345 155.936 26.3524 155.934C26.3881 155.93 26.4237 155.926 26.4594 155.923C26.4951 155.92 26.5307 155.917 26.5665 155.915C26.6023 155.914 26.6379 155.911 26.6737 155.91C26.6915 155.91 26.7093 155.909 26.7272 155.909L26.754 155.909L26.7807 155.909C26.9234 155.909 27.0656 155.916 27.2063 155.934C27.0656 155.952 26.9266 155.973 26.789 155.999C26.7203 156.012 26.6519 156.025 26.5841 156.041C26.5501 156.048 26.5163 156.057 26.4826 156.065C26.4488 156.072 26.4153 156.082 26.3818 156.09C26.3651 156.095 26.3482 156.099 26.3316 156.104L26.2817 156.118C26.2651 156.122 26.2484 156.127 26.2319 156.132L26.1824 156.147L26.1329 156.162L26.0837 156.178L26.0347 156.194L25.986 156.212C25.8563 156.258 25.7287 156.308 25.6038 156.364C25.3539 156.475 25.1144 156.606 24.8882 156.756C24.662 156.907 24.4491 157.076 24.2525 157.262C24.0559 157.448 23.8757 157.652 23.7146 157.87C23.5535 158.088 23.4116 158.321 23.2912 158.566C23.231 158.688 23.1765 158.814 23.1268 158.942C23.1149 158.974 23.1025 159.006 23.0909 159.038L23.0572 159.136C23.0467 159.169 23.0355 159.201 23.0254 159.234L22.9959 159.334C22.9576 159.466 22.9255 159.602 22.8983 159.739C22.8712 159.876 22.85 160.015 22.8319 160.155Z" fill="white"/>
<path d="M207.247 176.271C203.536 176.271 200.048 174.826 197.424 172.203C194.8 169.579 193.355 166.09 193.355 162.38C193.355 158.669 194.8 155.181 197.424 152.557C200.048 149.934 203.536 148.489 207.247 148.489C210.957 148.489 214.446 149.934 217.069 152.557C219.693 155.181 221.138 158.669 221.138 162.38C221.138 166.09 219.693 169.579 217.069 172.203C214.446 174.826 210.957 176.271 207.247 176.271Z" fill="#0F31AC"/>
<path d="M207.25 175.739C214.628 175.739 220.609 169.758 220.609 162.38C220.609 155.002 214.628 149.021 207.25 149.021C199.872 149.021 193.891 155.002 193.891 162.38C193.891 169.758 199.872 175.739 207.25 175.739Z" fill="#829CF8"/>
<path d="M216.441 158.15L215.266 162.708L206.027 163.612L199.305 164.269L197.977 158.15L206.027 157.802L206.197 157.795L216.441 158.15Z" fill="#829CF8"/>
<path d="M216.441 158.15L215.267 162.708L206.027 163.612V157.802L206.197 157.795L216.441 158.15Z" fill="#8EA7EF"/>
<path d="M205.79 158.145H197.977V166.965H205.79V158.145Z" fill="#206BAD"/>
<path d="M205.79 166.965H216.434V158.145H205.79V166.965Z" fill="#498AC9"/>
<path d="M203.614 160.63H195.801L197.974 158.145H205.787L203.614 160.63Z" fill="#498AC9"/>
<path d="M208.047 160.601H218.691L216.433 158.145H205.789L208.047 160.601Z" fill="#206BAD"/>
<path d="M213.133 166.692H214.036V165.789H213.133V166.692ZM214.016 166.672H213.153V165.81H214.016V166.672Z" fill="#6275BA"/>
<path d="M213.586 166.286C213.657 166.286 213.715 166.228 213.715 166.157V165.949H213.457V166.157C213.457 166.228 213.515 166.286 213.586 166.286Z" fill="#6275BA"/>
<path d="M213.565 166.532H213.602V166.157H213.565V166.532Z" fill="#6275BA"/>
<path d="M213.457 166.532H213.715C213.715 166.506 213.694 166.486 213.668 166.486H213.503C213.478 166.486 213.457 166.506 213.457 166.532Z" fill="#6275BA"/>
<path d="M213.615 165.949H213.625L213.648 166.032L213.625 166.015L213.648 166.086L213.613 166.001L213.634 166.013L213.615 165.949Z" fill="white"/>
<path d="M214.199 166.692H215.103V165.789H214.199V166.692ZM215.082 166.672H214.22V165.81H215.082V166.672Z" fill="#6275BA"/>
<path d="M214.676 166.126L214.779 165.947L214.883 166.126H214.805V166.432H214.754V166.126H214.676Z" fill="#6275BA"/>
<path d="M214.418 166.126L214.522 165.947L214.625 166.126H214.547V166.432H214.496V166.126H214.418Z" fill="#6275BA"/>
<path d="M214.422 166.535H214.887V166.477H214.422V166.535Z" fill="#6275BA"/>
<path d="M215.258 166.692H216.161V165.789H215.258V166.692ZM216.141 166.672H215.278V165.81H216.141V166.672Z" fill="#6275BA"/>
<path d="M215.726 166.163V166.464C215.726 166.486 215.745 166.505 215.768 166.505C215.787 166.505 215.803 166.492 215.808 166.475C215.81 166.468 215.816 166.464 215.823 166.464C215.833 166.464 215.841 166.473 215.838 166.483C215.829 166.513 215.801 166.535 215.768 166.535C215.729 166.535 215.697 166.505 215.695 166.466L215.695 166.163H215.726V166.163Z" fill="#6275BA"/>
<path d="M215.801 166.174L215.801 166.174V166.174H215.801Z" fill="#6275BA" stroke="black" stroke-width="0.0710475" stroke-miterlimit="10"/>
<path d="M215.711 166.174V166.174V166.174Z" fill="#6275BA" stroke="black" stroke-width="0.0710475" stroke-miterlimit="10"/>
<path d="M215.621 166.174V166.174V166.174Z" fill="#6275BA" stroke="black" stroke-width="0.0710475" stroke-miterlimit="10"/>
<path d="M215.699 165.99H215.718V165.956C215.718 165.951 215.714 165.947 215.709 165.947C215.703 165.947 215.699 165.951 215.699 165.956V165.99Z" fill="#6275BA"/>
<path d="M215.443 166.236C215.443 166.236 215.443 166.236 215.443 166.236C215.443 166.212 215.463 166.192 215.488 166.192C215.512 166.192 215.532 166.212 215.532 166.236C215.532 166.212 215.552 166.192 215.577 166.192C215.602 166.192 215.622 166.212 215.622 166.236C215.622 166.212 215.642 166.192 215.667 166.192C215.691 166.192 215.711 166.212 215.711 166.236C215.711 166.212 215.731 166.192 215.756 166.192C215.781 166.192 215.801 166.212 215.801 166.236C215.801 166.212 215.821 166.192 215.846 166.192C215.87 166.192 215.891 166.212 215.891 166.236C215.891 166.212 215.911 166.192 215.935 166.192C215.96 166.192 215.98 166.212 215.98 166.236C215.98 166.236 215.98 166.236 215.98 166.236H215.981C215.981 166.09 215.861 165.971 215.711 165.971C215.562 165.971 215.441 166.09 215.441 166.236H215.443Z" fill="#6275BA"/>
<path d="M156.72 31.4749L146.089 31.6913C144.909 31.7154 143.932 30.7777 143.908 29.5971L143.719 20.32C143.695 19.1393 144.633 18.1627 145.813 18.1387L156.444 17.9223C157.624 17.8983 158.601 18.8359 158.625 20.0166L158.814 29.2937C158.838 30.4743 157.9 31.4509 156.72 31.4749Z" fill="#DEE4FC"/>
<path d="M150.727 25.0943L154.537 21.2842C155.022 21.782 155.405 22.3582 155.676 22.998C155.957 23.6634 156.104 24.3682 156.113 25.0943H150.727Z" fill="#829CF8"/>
<path d="M150.625 20.3154C151.254 20.3244 151.864 20.4523 152.441 20.6961C152.997 20.9314 153.499 21.2645 153.933 21.6866L150.625 24.9943V20.3154Z" fill="#407BFF"/>
<path d="M150.555 29.2985C149.45 29.2985 148.411 28.8682 147.63 28.0869C146.848 27.3056 146.418 26.2669 146.418 25.1619C146.418 24.0569 146.848 23.0182 147.63 22.2369C148.394 21.4724 149.405 21.0439 150.483 21.0259V25.2365H154.69C154.672 26.3142 154.243 27.3244 153.478 28.0881C152.697 28.8686 151.659 29.2985 150.555 29.2985Z" fill="white"/>
<path d="M190.751 62.1882H180.119C178.938 62.1882 177.98 61.2309 177.98 60.05V50.771C177.98 49.5901 178.938 48.6328 180.119 48.6328H190.751C191.932 48.6328 192.889 49.5901 192.889 50.771V60.05C192.889 61.2309 191.932 62.1882 190.751 62.1882Z" fill="#DEE4FC"/>
<path d="M188.843 60.9434H182.025C181.817 60.9434 181.648 60.7747 181.648 60.5667V51.154C181.648 50.9459 181.817 50.7773 182.025 50.7773H188.843C189.051 50.7773 189.22 50.946 189.22 51.154V60.5667C189.22 60.7748 189.051 60.9434 188.843 60.9434Z" fill="#829CF8"/>
<path d="M188.868 51.1636H182V60.5571H188.868V51.1636Z" fill="white"/>
<path d="M186.744 51.3551L186.479 50.8546L186.357 50.6226L186.355 50.6195H185.98V50.3798C185.98 50.1023 185.735 49.8774 185.434 49.8774C185.132 49.8774 184.887 50.1024 184.887 50.3798V50.6195H184.512L184.511 50.6226L184.388 50.8546L184.123 51.3551C184.072 51.4522 184.138 51.5717 184.244 51.5717H186.623C186.729 51.5717 186.795 51.4522 186.744 51.3551ZM185.434 50.1139C185.57 50.1139 185.68 50.2153 185.68 50.3404C185.68 50.4655 185.57 50.567 185.434 50.567C185.298 50.567 185.187 50.4655 185.187 50.3404C185.187 50.2153 185.298 50.1139 185.434 50.1139Z" fill="#829CF8"/>
<path opacity="0.15" d="M186.482 50.8546H184.391L184.513 50.6226H186.36L186.482 50.8546Z" fill="black"/>
<path d="M183.63 54.8623H182.789V54.0225H183.63V54.8623ZM182.949 54.7027H183.47V54.1821H182.949V54.7027Z" fill="#E3E9F7"/>
<path d="M183.63 56.0908H182.789V55.251H183.63V56.0908ZM182.949 55.9312H183.47V55.4106H182.949V55.9312Z" fill="#E3E9F7"/>
<path d="M183.63 57.3198H182.789V56.48H183.63V57.3198ZM182.949 57.1602H183.47V56.6396H182.949V57.1602Z" fill="#E3E9F7"/>
<path d="M183.63 58.5484H182.789V57.7085H183.63V58.5484ZM182.949 58.3887H183.47V57.8682H182.949V58.3887Z" fill="#E3E9F7"/>
<path d="M183.63 59.77H182.789V58.9302H183.63V59.77ZM182.949 59.6104H183.47V59.0898H182.949V59.6104Z" fill="#E3E9F7"/>
<path d="M182.977 54.4361C183.016 54.4503 183.051 54.4689 183.084 54.4895C183.117 54.5101 183.148 54.5328 183.177 54.557L183.093 54.5565C183.139 54.4992 183.191 54.4474 183.249 54.4011C183.278 54.3781 183.308 54.3567 183.341 54.3372C183.373 54.318 183.408 54.3002 183.446 54.2871C183.433 54.3259 183.415 54.3601 183.396 54.3928C183.377 54.4252 183.355 54.4556 183.332 54.4846C183.286 54.5421 183.234 54.5942 183.177 54.6407L183.125 54.6825L183.092 54.6401C183.069 54.6101 183.047 54.5787 183.027 54.5452C183.007 54.5115 182.99 54.476 182.977 54.4361Z" fill="#F6471E"/>
<path d="M187.432 54.356H184.043V54.5297H187.432V54.356Z" fill="#407BFF"/>
<path d="M187.432 55.5845H184.043V55.7582H187.432V55.5845Z" fill="#407BFF"/>
<path d="M187.432 56.813H184.043V56.9868H187.432V56.813Z" fill="#407BFF"/>
<path d="M187.432 58.0415H184.043V58.2153H187.432V58.0415Z" fill="#407BFF"/>
<path d="M187.432 59.2632H184.043V59.437H187.432V59.2632Z" fill="#407BFF"/>
<path d="M188.086 52.2515H182.785V52.7728H188.086V52.2515Z" fill="#829CF8"/>
<path d="M52.8407 96.7259L42.2104 96.9423C41.0298 96.9663 40.0532 96.0287 40.0292 94.8481L39.8403 85.5709C39.8162 84.3903 40.7539 83.4137 41.9345 83.3897L52.5648 83.1733C53.7454 83.1492 54.722 84.0869 54.746 85.2675L54.9349 94.5446C54.959 95.7252 54.0213 96.7018 52.8407 96.7259Z" fill="#DEE4FC"/>
<path d="M45.2738 90.5557H42.3242V93.7932H45.2738V90.5557Z" fill="white"/>
<path d="M48.848 88.7612H45.8984V93.7931H48.848V88.7612Z" fill="white"/>
<path d="M52.4418 86.3218H49.4922V93.7929H52.4418V86.3218Z" fill="white"/>
<path d="M224.013 95.3884H213.38C212.199 95.3884 211.242 94.4311 211.242 93.2502V83.9712C211.242 82.7903 212.199 81.833 213.38 81.833H224.013C225.194 81.833 226.151 82.7903 226.151 83.9712V93.2502C226.151 94.4311 225.194 95.3884 224.013 95.3884Z" fill="#DEE4FC"/>
<path d="M216.477 92.4769L213.761 89.6903C213.29 89.2069 213.3 88.433 213.783 87.9618C214.267 87.4906 215.041 87.5006 215.512 87.984L217.107 89.6212L221.886 84.8424C222.364 84.365 223.138 84.365 223.615 84.8424C224.092 85.3198 224.092 86.0937 223.615 86.571L217.701 92.4848C217.362 92.8236 216.812 92.8201 216.477 92.4769Z" fill="white"/>
<path d="M23.1222 130.473H12.4897C11.3088 130.473 10.3516 129.516 10.3516 128.335V119.056C10.3516 117.875 11.3089 116.918 12.4897 116.918H23.1222C24.3031 116.918 25.2604 117.875 25.2604 119.056V128.335C25.2604 129.516 24.303 130.473 23.1222 130.473Z" fill="#DEE4FC"/>
<path d="M17.6816 127.975C20.045 127.975 21.9608 126.059 21.9608 123.696C21.9608 121.332 20.045 119.417 17.6816 119.417C15.3182 119.417 13.4023 121.332 13.4023 123.696C13.4023 126.059 15.3182 127.975 17.6816 127.975Z" fill="#407BFF"/>
<path d="M17.6861 127.417C16.6922 127.417 15.7577 127.03 15.0548 126.327C14.3519 125.624 13.9648 124.689 13.9648 123.695C13.9648 122.701 14.3519 121.767 15.0548 121.064C15.7577 120.361 16.6922 119.974 17.6861 119.974C18.6801 119.974 19.6146 120.361 20.3175 121.064C21.0204 121.767 21.4075 122.701 21.4075 123.695C21.4075 124.689 21.0204 125.624 20.3175 126.327C19.6147 127.03 18.6801 127.417 17.6861 127.417Z" fill="white"/>
<path d="M17.683 126.859C16.838 126.859 16.0436 126.53 15.4461 125.932C14.8486 125.335 14.5195 124.541 14.5195 123.696C14.5195 122.851 14.8486 122.056 15.4461 121.459C16.0436 120.861 16.838 120.532 17.683 120.532C18.5279 120.532 19.3223 120.861 19.9198 121.459C20.5173 122.056 20.8463 122.851 20.8463 123.696C20.8463 124.541 20.5173 125.335 19.9198 125.932C19.3223 126.53 18.5279 126.859 17.683 126.859Z" fill="#407BFF"/>
<path d="M17.6836 126.301C16.9876 126.301 16.3333 126.03 15.8412 125.538C15.3491 125.046 15.0781 124.391 15.0781 123.695C15.0781 122.999 15.3491 122.345 15.8412 121.853C16.3333 121.361 16.9876 121.09 17.6836 121.09C18.3795 121.09 19.0338 121.361 19.5259 121.853C20.018 122.345 20.289 122.999 20.289 123.695C20.289 124.391 20.018 125.045 19.5259 125.538C19.0338 126.03 18.3795 126.301 17.6836 126.301Z" fill="white"/>
<path d="M17.6843 125.743C17.1373 125.743 16.6232 125.53 16.2364 125.143C15.8497 124.757 15.6367 124.242 15.6367 123.695C15.6367 123.149 15.8497 122.634 16.2364 122.248C16.6232 121.861 17.1373 121.648 17.6843 121.648C18.2312 121.648 18.7454 121.861 19.1321 122.248C19.5188 122.634 19.7318 123.149 19.7318 123.695C19.7318 124.242 19.5188 124.757 19.1321 125.143C18.7454 125.53 18.2312 125.743 17.6843 125.743Z" fill="#407BFF"/>
<path d="M17.685 125.185C17.2871 125.185 16.913 125.03 16.6316 124.749C16.3503 124.468 16.1953 124.094 16.1953 123.696C16.1953 123.298 16.3502 122.924 16.6316 122.642C16.913 122.361 17.2871 122.206 17.685 122.206C18.0829 122.206 18.457 122.361 18.7383 122.642C19.0196 122.924 19.1746 123.298 19.1746 123.696C19.1746 124.094 19.0197 124.468 18.7383 124.749C18.457 125.03 18.0829 125.185 17.685 125.185Z" fill="white"/>
<path d="M17.6817 124.627C17.4329 124.627 17.1989 124.53 17.0229 124.354C16.8469 124.178 16.75 123.944 16.75 123.695C16.75 123.447 16.8469 123.213 17.0229 123.037C17.1989 122.861 17.4329 122.764 17.6817 122.764C17.9306 122.764 18.1646 122.861 18.3405 123.037C18.5165 123.212 18.6134 123.446 18.6134 123.695C18.6134 123.944 18.5165 124.178 18.3405 124.354C18.1646 124.53 17.9306 124.627 17.6817 124.627Z" fill="#407BFF"/>
<path d="M17.6824 124.069C17.5811 124.069 17.4897 124.032 17.4181 123.96C17.3464 123.888 17.3086 123.797 17.3086 123.696C17.3086 123.594 17.3464 123.503 17.4181 123.431C17.4897 123.36 17.5811 123.322 17.6824 123.322C17.7837 123.322 17.8751 123.36 17.9467 123.431C18.0184 123.503 18.0562 123.594 18.0562 123.696C18.0562 123.797 18.0184 123.888 17.9467 123.96C17.8751 124.032 17.7837 124.069 17.6824 124.069Z" fill="white"/>
<path d="M17.8398 123.574L21.6277 121.076" stroke="#1B1464" stroke-width="0.0621007" stroke-miterlimit="10"/>
<path d="M17.8617 123.56C17.8802 123.47 17.8353 123.346 17.7885 123.27C17.78 123.419 17.7408 123.569 17.6562 123.695C17.8038 123.665 17.957 123.696 18.0992 123.741C18.0403 123.666 17.9572 123.582 17.8617 123.56Z" fill="#1B1464"/>
<path d="M21.8799 121.177L21.8658 121.173L21.6172 121.123L22.0669 120.826L22.3322 120.878L21.8799 121.177Z" fill="#1B1464"/>
<path d="M22.088 120.516L22.0279 120.775L21.5781 121.071C21.6077 120.989 21.6267 120.902 21.637 120.813L22.088 120.516Z" fill="#1B1464"/>
</svg>
