<svg width="235" height="180" viewBox="0 0 235 180" fill="none" xmlns="http://www.w3.org/2000/svg">
<g opacity="0.2">
<path d="M52.4589 45.0765C49.5155 43.6923 44.6477 45.9429 43.0956 49.2362C40.1328 55.523 49.7154 64.6279 53.2002 63.6507C57.0944 62.5586 57.8631 47.6178 52.4589 45.0765Z" stroke="#0F31AC" stroke-width="1.06446" stroke-miterlimit="10" stroke-linecap="round" stroke-dasharray="2.66 2.66 2.66 2.66 2.66 2.66"/>
<path d="M37.7361 59.3163C36.6857 58.7086 25.5584 52.2719 19.2612 57.3661C14.8397 60.9429 14.7974 68.5884 18.1201 72.8855C24.701 81.396 45.1079 77.5805 47.2252 71.4907C48.6511 67.3898 41.9567 61.7577 37.7361 59.3163Z" stroke="#0F31AC" stroke-width="1.06446" stroke-miterlimit="10" stroke-linecap="round" stroke-dasharray="2.66 2.66 2.66 2.66 2.66 2.66"/>
<path d="M52.0539 164.406C79.1386 157.683 109.914 150.839 157.702 152.005C184.428 152.657 190.484 144.363 210.739 134.051C228.793 124.861 237.66 106.585 232.214 96.2271C226.716 85.7703 209.97 89.9335 196.256 74.3678C190.01 67.2785 191.109 62.3096 187.503 54.448C176.084 29.5551 133.286 10.0983 112.181 20.3954C84.2992 33.9986 108.136 92.7766 76.9687 108.833C57.2544 118.99 42.3535 99.4918 22.8877 114.376C13.2426 121.751 1.44627 132.097 0.533971 143.33C0.533971 143.33 -0.743382 170.793 52.0539 164.406Z" stroke="#0F31AC" stroke-width="1.06446" stroke-miterlimit="10" stroke-linecap="round" stroke-dasharray="2.66 2.66 2.66 2.66 2.66 2.66"/>
<path d="M201.692 133.819C201.692 133.819 196.786 140.324 191.879 149.249C187.455 157.297 184.091 168.142 183.348 177.196C181.264 177.098 178.975 177.005 176.501 176.917C161.846 176.397 140.69 176.072 117.166 176.072C90.4227 176.072 66.74 176.493 52.1914 177.141C51.6906 177.164 51.2004 177.186 50.7214 177.209C32.558 154.696 -4.01747 115.474 29.6419 99.3393C29.6419 99.3393 32.1077 98.5883 35.8046 96.9751C47.5052 91.8684 71.5492 78.1267 68.8748 52.2172C68.8748 52.2172 67.9636 47.3824 67.9636 40.655C67.9636 24.9243 72.9437 -1.15071 106.191 0.0393581C126.325 0.761063 144.867 11.0065 156.078 27.4056C167.074 43.4902 184.655 63.2801 198.973 51.9819C202.278 49.3729 206.649 48.4064 210.729 49.5533C221.035 52.4481 232.743 67.4342 201.692 133.819Z" fill="#3492D4"/>
</g>
<path opacity="0.15" d="M228.429 178.072C228.429 179.137 178.616 180 117.168 180C82.4965 180 51.5295 179.725 31.1242 179.294C26.4242 179.195 22.2852 179.088 18.7903 178.973C16.4883 178.898 14.4657 178.82 12.7463 178.739C8.32242 178.531 5.90625 178.307 5.90625 178.072C5.90625 177.773 9.82783 177.491 16.8272 177.238C19.6936 177.135 23.0758 177.037 26.9164 176.945C47.1246 176.46 80.0203 176.145 117.168 176.145C149.843 176.145 179.23 176.388 199.585 176.777C217.508 177.119 228.429 177.574 228.429 178.072Z" fill="#040C2B"/>
<path d="M132.002 39.9102H93.2852V64.3985H132.002V39.9102Z" fill="#E3E9F7"/>
<path d="M129.884 42.1021H95.3984V62.2059H129.884V42.1021Z" fill="#F4F6FC"/>
<path d="M131.999 35.502H93.2969V39.9195H131.999V35.502Z" fill="#407BFF"/>
<path d="M95.5363 38.2115C95.9468 38.2115 96.2796 37.895 96.2796 37.5047C96.2796 37.1143 95.9468 36.7979 95.5363 36.7979C95.1258 36.7979 94.793 37.1143 94.793 37.5047C94.793 37.895 95.1258 38.2115 95.5363 38.2115Z" fill="#E3E9F7"/>
<path d="M97.7082 38.2115C98.1187 38.2115 98.4515 37.895 98.4515 37.5047C98.4515 37.1143 98.1187 36.7979 97.7082 36.7979C97.2976 36.7979 96.9648 37.1143 96.9648 37.5047C96.9648 37.895 97.2976 38.2115 97.7082 38.2115Z" fill="#E3E9F7"/>
<path d="M99.8761 38.2115C100.287 38.2115 100.619 37.895 100.619 37.5047C100.619 37.1143 100.287 36.7979 99.8761 36.7979C99.4656 36.7979 99.1328 37.1143 99.1328 37.5047C99.1328 37.895 99.4656 38.2115 99.8761 38.2115Z" fill="#E3E9F7"/>
<path d="M122.846 46.25H119.684V59.4757H122.846V46.25Z" fill="#ACBCF8"/>
<path d="M118.537 48.894H115.375V59.4756H118.537V48.894Z" fill="#ACBCF8"/>
<path d="M114.232 51.5107H111.07V59.4754H114.232V51.5107Z" fill="#ACBCF8"/>
<path d="M109.924 54.2095H106.762V59.4755H109.924V54.2095Z" fill="#ACBCF8"/>
<path d="M105.619 56.772H102.457V59.4757H105.619V56.772Z" fill="#ACBCF8"/>
<path d="M101.031 44.8325V59.4705H124.256" stroke="#040C2B" stroke-width="0.0272609" stroke-miterlimit="10"/>
<path d="M102.449 53.5283C102.449 53.5283 109.797 53.1335 116.294 46.4854" stroke="#040C2B" stroke-width="0.136294" stroke-miterlimit="10"/>
<path d="M116.641 47.0941L116.96 45.7729L115.656 46.1572L116.641 47.0941Z" fill="#040C2B"/>
<path d="M205.783 97.4775H167.066V121.966H205.783V97.4775Z" fill="#E3E9F7"/>
<path d="M203.669 99.6699H169.184V119.774H203.669V99.6699Z" fill="#F4F6FC"/>
<path d="M205.784 93.0693H167.082V97.4869H205.784V93.0693Z" fill="#407BFF"/>
<path d="M169.325 95.7788C169.736 95.7788 170.069 95.4624 170.069 95.072C170.069 94.6817 169.736 94.3652 169.325 94.3652C168.915 94.3652 168.582 94.6817 168.582 95.072C168.582 95.4624 168.915 95.7788 169.325 95.7788Z" fill="#E3E9F7"/>
<path d="M171.489 95.7788C171.9 95.7788 172.233 95.4624 172.233 95.072C172.233 94.6817 171.9 94.3652 171.489 94.3652C171.079 94.3652 170.746 94.6817 170.746 95.072C170.746 95.4624 171.079 95.7788 171.489 95.7788Z" fill="#E3E9F7"/>
<path d="M173.657 95.7788C174.068 95.7788 174.401 95.4624 174.401 95.072C174.401 94.6817 174.068 94.3652 173.657 94.3652C173.247 94.3652 172.914 94.6817 172.914 95.072C172.914 95.4624 173.247 95.7788 173.657 95.7788Z" fill="#E3E9F7"/>
<path d="M185.465 110.234L192.254 103.445C193.119 104.332 193.801 105.359 194.283 106.499C194.785 107.684 195.047 108.94 195.062 110.234H185.465Z" fill="#407BFF"/>
<path d="M185.285 101.718C186.406 101.734 187.494 101.962 188.521 102.396C189.512 102.815 190.406 103.409 191.179 104.161L185.285 110.055L185.285 101.718Z" fill="#ACBCF8"/>
<path d="M185.16 117.725C183.191 117.725 181.34 116.958 179.948 115.566C178.556 114.174 177.789 112.323 177.789 110.354C177.789 108.385 178.556 106.534 179.948 105.142C181.31 103.78 183.112 103.017 185.033 102.984V110.487H192.529C192.496 112.407 191.732 114.207 190.37 115.568C188.978 116.959 187.128 117.725 185.16 117.725Z" fill="#407BFF"/>
<path d="M177.783 61.6914H139.066V86.1797H177.783V61.6914Z" fill="#E3E9F7"/>
<path d="M175.665 63.8833H141.18V83.9872H175.665V63.8833Z" fill="#F4F6FC"/>
<path d="M177.784 57.2832H139.082V61.7007H177.784V57.2832Z" fill="#407BFF"/>
<path d="M141.321 59.9927C141.732 59.9927 142.065 59.6763 142.065 59.2859C142.065 58.8955 141.732 58.5791 141.321 58.5791C140.911 58.5791 140.578 58.8955 140.578 59.2859C140.578 59.6763 140.911 59.9927 141.321 59.9927Z" fill="#E3E9F7"/>
<path d="M143.489 59.9927C143.9 59.9927 144.233 59.6763 144.233 59.2859C144.233 58.8955 143.9 58.5791 143.489 58.5791C143.079 58.5791 142.746 58.8955 142.746 59.2859C142.746 59.6763 143.079 59.9927 143.489 59.9927Z" fill="#E3E9F7"/>
<path d="M145.657 59.9927C146.068 59.9927 146.401 59.6763 146.401 59.2859C146.401 58.8955 146.068 58.5791 145.657 58.5791C145.247 58.5791 144.914 58.8955 144.914 59.2859C144.914 59.6763 145.247 59.9927 145.657 59.9927Z" fill="#E3E9F7"/>
<path d="M165.966 73.9353C165.966 78.1005 162.59 81.477 158.425 81.477C156.72 81.477 155.147 80.9114 153.884 79.9572C152.061 78.5807 150.883 76.3956 150.883 73.9353C150.883 72.7651 151.15 71.6572 151.625 70.6689C151.626 70.6676 151.627 70.6663 151.627 70.665C151.646 70.626 151.665 70.5872 151.685 70.5486C151.689 70.5405 151.693 70.5324 151.697 70.5243C151.713 70.4921 151.73 70.4601 151.747 70.4282C151.752 70.418 151.757 70.4078 151.763 70.3977C151.779 70.3667 151.796 70.3358 151.813 70.3051C151.818 70.2956 151.823 70.286 151.829 70.2766C151.851 70.2371 151.873 70.1978 151.895 70.1588C151.918 70.1185 151.942 70.0786 151.966 70.0389C151.99 69.9992 152.015 69.9597 152.039 69.9203C152.076 69.8615 152.114 69.8031 152.153 69.7454C152.165 69.7267 152.178 69.7081 152.191 69.6893C152.192 69.6873 152.194 69.6852 152.195 69.6834C152.207 69.6658 152.219 69.6481 152.231 69.6307C152.245 69.6117 152.258 69.5928 152.271 69.5739C152.285 69.555 152.298 69.5362 152.312 69.5175C152.325 69.4988 152.339 69.48 152.353 69.4614C152.394 69.4054 152.436 69.3503 152.479 69.2958C152.491 69.2796 152.504 69.2635 152.516 69.2475C152.52 69.2427 152.524 69.2381 152.528 69.2334C152.54 69.2184 152.552 69.2034 152.564 69.1885C152.565 69.187 152.566 69.1857 152.567 69.1846C152.595 69.1496 152.624 69.1149 152.653 69.0804C152.663 69.0683 152.674 69.0563 152.684 69.0444C152.696 69.0294 152.709 69.0145 152.722 68.9998C152.739 68.9805 152.756 68.9613 152.772 68.9421C152.809 68.9011 152.845 68.8607 152.882 68.8206C152.895 68.8062 152.909 68.7919 152.922 68.7776C152.973 68.7238 153.024 68.6707 153.076 68.6186C153.087 68.6079 153.097 68.5971 153.108 68.5865C153.118 68.5763 153.128 68.5663 153.138 68.5563C153.149 68.5461 153.159 68.5361 153.169 68.526C153.187 68.509 153.205 68.4921 153.222 68.4752C154.575 67.1854 156.407 66.3936 158.425 66.3936C160.997 66.3936 163.269 67.6819 164.63 69.6485C164.807 69.9032 164.968 70.1693 165.112 70.4455C165.145 70.5097 165.178 70.5744 165.21 70.6397C165.22 70.6615 165.231 70.6833 165.241 70.7053C165.252 70.7271 165.262 70.7491 165.272 70.7709C165.313 70.8589 165.352 70.9477 165.389 71.0375C165.427 71.1273 165.463 71.2181 165.496 71.3095C165.539 71.4238 165.579 71.5396 165.616 71.6565C165.623 71.6798 165.63 71.7032 165.637 71.7268C165.674 71.844 165.707 71.9628 165.737 72.0824C165.755 72.1542 165.772 72.2265 165.788 72.2993C165.798 72.3446 165.808 72.3903 165.817 72.4359C165.818 72.442 165.819 72.4482 165.821 72.4543C165.916 72.9332 165.966 73.4284 165.966 73.9353Z" fill="#ACBCF8"/>
<path d="M163.529 68.5231C163.481 68.4846 163.425 68.4899 163.375 68.53C163.358 68.544 163.34 68.5583 163.323 68.5721C163.312 68.5805 163.299 68.5903 163.286 68.5843C163.228 68.5576 163.16 68.5641 163.104 68.537C162.997 68.4855 162.881 68.4683 162.768 68.4409C162.714 68.4278 162.661 68.4094 162.609 68.3875C162.554 68.3644 162.503 68.3289 162.441 68.3215C162.354 68.3112 162.267 68.3014 162.202 68.3049C162.13 68.305 162.08 68.3048 162.031 68.3052C162.01 68.3054 161.987 68.3019 161.972 68.317C161.922 68.3707 161.853 68.3607 161.79 68.3727C161.773 68.3761 161.754 68.3723 161.738 68.3847C161.648 68.4569 161.552 68.5237 161.477 68.6146C161.469 68.625 161.458 68.6336 161.448 68.6423C161.391 68.6905 161.335 68.7385 161.292 68.8003C161.275 68.8245 161.253 68.8441 161.229 68.861C161.179 68.8956 161.129 68.9297 161.07 68.9488C161.02 68.9651 160.986 69.0089 160.937 69.027C160.827 69.0676 160.831 69.0643 160.838 69.1984C160.84 69.2292 160.854 69.2593 160.862 69.2897C160.867 69.3091 160.874 69.3284 160.877 69.3482C160.888 69.4054 160.925 69.4398 160.981 69.4434C161.027 69.4464 161.07 69.4356 161.108 69.4068C161.124 69.3944 161.139 69.3807 161.155 69.3688C161.177 69.3526 161.197 69.351 161.222 69.3696C161.283 69.4147 161.322 69.4785 161.368 69.5358C161.388 69.5613 161.38 69.5863 161.352 69.6041C161.333 69.616 161.314 69.6279 161.296 69.6418C161.282 69.6528 161.282 69.6693 161.287 69.6853C161.292 69.7029 161.306 69.7134 161.322 69.7101C161.383 69.698 161.449 69.6988 161.503 69.6627C161.53 69.6446 161.556 69.6291 161.59 69.6307C161.624 69.6324 161.638 69.6112 161.646 69.5834C161.659 69.5402 161.673 69.4973 161.673 69.4517C161.673 69.4186 161.683 69.3956 161.718 69.3858C161.733 69.3817 161.747 69.3731 161.759 69.364C161.829 69.3145 161.832 69.266 161.771 69.2087C161.763 69.2009 161.755 69.1938 161.746 69.1865C161.678 69.1291 161.685 69.0507 161.764 69.0084C161.783 68.9977 161.803 68.987 161.823 68.9759C161.878 68.9445 161.928 68.9091 161.954 68.8457C161.97 68.8066 162.004 68.7821 162.049 68.7798C162.078 68.7783 162.107 68.781 162.137 68.7819C162.148 68.7822 162.16 68.7852 162.166 68.7961C162.174 68.8129 162.159 68.8201 162.149 68.8283C162.105 68.8658 162.066 68.909 162.012 68.9364C161.96 68.9629 161.922 69.0023 161.932 69.0709C161.947 69.1683 161.983 69.2472 162.087 69.275C162.092 69.2761 162.096 69.2771 162.1 69.2789C162.141 69.2966 162.164 69.3303 162.16 69.3674C162.156 69.4165 162.137 69.445 162.088 69.4514C162.023 69.4597 161.994 69.4964 161.983 69.5557C161.98 69.5711 161.977 69.5865 161.974 69.6019C161.954 69.6895 161.903 69.7349 161.825 69.7259C161.802 69.7233 161.78 69.7301 161.758 69.7318C161.68 69.738 161.612 69.7764 161.538 69.7965C161.518 69.8019 161.501 69.8108 161.485 69.7887C161.442 69.7299 161.389 69.7304 161.33 69.764C161.309 69.7763 161.287 69.7818 161.26 69.7683C161.201 69.7385 161.185 69.7144 161.205 69.6507C161.219 69.6078 161.218 69.5664 161.213 69.5242C161.21 69.5002 161.197 69.4822 161.168 69.4838C161.125 69.4862 161.07 69.535 161.055 69.5778C161.036 69.6298 161.035 69.6825 161.041 69.7358C161.045 69.7726 161.032 69.796 160.998 69.8103C160.965 69.8242 160.934 69.8426 160.9 69.8546C160.847 69.8735 160.801 69.905 160.772 69.9501C160.732 70.011 160.671 70.0377 160.614 70.0726C160.587 70.0897 160.561 70.1031 160.549 70.1357C160.53 70.1875 160.472 70.1848 160.435 70.2126C160.415 70.2281 160.393 70.2129 160.371 70.2059C160.34 70.1958 160.304 70.1914 160.286 70.224C160.259 70.2743 160.216 70.2822 160.166 70.2818C160.135 70.2816 160.104 70.2855 160.073 70.2964C160.06 70.3012 160.048 70.3073 160.047 70.3234C160.046 70.3476 160.085 70.3994 160.111 70.401C160.202 70.4064 160.247 70.4719 160.294 70.5357C160.323 70.5759 160.332 70.6211 160.312 70.67C160.303 70.6927 160.299 70.7171 160.295 70.7419C160.287 70.8012 160.275 70.8097 160.217 70.809C160.201 70.8088 160.185 70.8093 160.17 70.8068C160.05 70.788 159.929 70.7909 159.808 70.7815C159.795 70.7804 159.781 70.7812 159.77 70.7896C159.725 70.8213 159.661 70.838 159.689 70.9187C159.7 70.9488 159.673 70.985 159.683 71.0184C159.695 71.0582 159.684 71.0933 159.672 71.1301C159.661 71.1628 159.641 71.1902 159.627 71.2208C159.62 71.2368 159.605 71.2568 159.619 71.2709C159.657 71.3077 159.649 71.3534 159.65 71.3976C159.651 71.4321 159.668 71.4462 159.701 71.4463C159.712 71.4463 159.724 71.4478 159.735 71.4461C159.792 71.4367 159.839 71.4534 159.883 71.4918C159.918 71.5218 159.966 71.537 160.009 71.5169C160.044 71.5004 160.078 71.4939 160.113 71.4983C160.206 71.5098 160.266 71.4496 160.323 71.3961C160.351 71.3703 160.363 71.3234 160.39 71.2907C160.396 71.2841 160.395 71.2671 160.391 71.2585C160.374 71.2281 160.391 71.2073 160.407 71.1855C160.425 71.1622 160.444 71.1395 160.459 71.1146C160.476 71.0858 160.497 71.0692 160.532 71.064C160.581 71.0568 160.614 71.0185 160.649 70.9874C160.674 70.9655 160.664 70.9326 160.666 70.9039C160.669 70.8515 160.704 70.8205 160.761 70.8247C160.794 70.8272 160.827 70.8387 160.86 70.8452C160.882 70.8494 160.906 70.8645 160.925 70.8517C160.97 70.8216 161.02 70.8034 161.065 70.7749C161.119 70.7396 161.126 70.7359 161.174 70.7759C161.191 70.7906 161.205 70.8082 161.214 70.8292C161.231 70.8678 161.258 70.8965 161.289 70.9239C161.354 70.9828 161.424 71.0347 161.506 71.069C161.566 71.0941 161.606 71.1441 161.647 71.1914C161.683 71.2338 161.655 71.2935 161.601 71.3096C161.545 71.3259 161.489 71.3212 161.433 71.3209C161.415 71.3208 161.395 71.324 161.389 71.3438C161.382 71.365 161.398 71.3769 161.414 71.3861C161.463 71.4142 161.515 71.4345 161.564 71.4638C161.595 71.4826 161.624 71.4658 161.624 71.4282C161.624 71.3834 161.644 71.3629 161.683 71.3515C161.731 71.3375 161.74 71.2928 161.76 71.2555C161.774 71.227 161.766 71.2059 161.753 71.18C161.738 71.1514 161.755 71.1334 161.788 71.1347C161.81 71.1357 161.823 71.1531 161.841 71.1608C161.865 71.1709 161.88 71.16 161.881 71.134C161.882 71.1048 161.863 71.0883 161.843 71.0743C161.795 71.0409 161.744 71.0109 161.697 70.9772C161.675 70.9615 161.654 70.9495 161.627 70.9415C161.58 70.9277 161.532 70.9033 161.512 70.8554C161.497 70.8181 161.474 70.7903 161.443 70.7668C161.433 70.7588 161.423 70.7483 161.416 70.737C161.4 70.7109 161.404 70.6662 161.423 70.649C161.446 70.6294 161.474 70.6201 161.497 70.6397C161.54 70.6755 161.592 70.6995 161.622 70.751C161.643 70.787 161.68 70.8089 161.72 70.818C161.748 70.8245 161.77 70.8371 161.788 70.8576C161.802 70.873 161.818 70.8848 161.836 70.8942C161.912 70.9338 161.944 70.9989 161.945 71.0817C161.946 71.1018 161.941 71.1234 161.956 71.1403C162.007 71.2004 162.029 71.2804 162.088 71.3344C162.108 71.3522 162.119 71.3774 162.119 71.4006C162.119 71.4677 162.166 71.4808 162.215 71.4922C162.255 71.5015 162.267 71.4944 162.281 71.4561C162.312 71.3723 162.345 71.2886 162.302 71.1986C162.3 71.1946 162.3 71.1898 162.3 71.1853C162.295 71.1456 162.334 71.0833 162.365 71.079C162.424 71.0709 162.483 71.1127 162.487 71.1667C162.49 71.1936 162.491 71.2208 162.489 71.2477C162.487 71.3043 162.505 71.3556 162.535 71.4005C162.561 71.4392 162.595 71.4728 162.65 71.4707C162.694 71.469 162.734 71.488 162.772 71.5059C162.804 71.5211 162.831 71.5273 162.858 71.5018C162.877 71.4838 162.897 71.4856 162.92 71.4922C162.953 71.5015 162.985 71.5101 163.015 71.5256C163.059 71.5479 163.105 71.55 163.149 71.5197C163.163 71.5096 163.18 71.5011 163.197 71.4972C163.243 71.4867 163.293 71.5129 163.297 71.5548C163.302 71.6059 163.312 71.6604 163.293 71.7088C163.274 71.755 163.259 71.8008 163.249 71.8493C163.24 71.8886 163.231 71.9289 163.213 71.9647C163.191 72.0106 163.19 72.054 163.203 72.1017C163.219 72.1604 163.248 72.2138 163.271 72.2696C163.309 72.3644 163.36 72.4506 163.423 72.5306C163.451 72.5662 163.474 72.6045 163.489 72.6477C163.497 72.6726 163.511 72.6914 163.532 72.7058C163.574 72.7347 163.6 72.7771 163.624 72.8204C163.649 72.8648 163.653 72.9146 163.664 72.9627C163.677 73.0271 163.702 73.0819 163.764 73.114C163.782 73.1229 163.798 73.1379 163.809 73.154C163.87 73.2401 163.925 73.332 163.959 73.4292C163.996 73.5357 164.053 73.6321 164.092 73.7373C164.105 73.7752 164.137 73.8035 164.176 73.8212C164.211 73.8376 164.235 73.8131 164.262 73.7973C164.267 73.794 164.274 73.7936 164.281 73.7912C164.402 73.7457 164.525 73.7028 164.638 73.6376C164.66 73.625 164.685 73.6227 164.709 73.6172C164.759 73.606 164.803 73.5849 164.828 73.5366C164.843 73.5076 164.868 73.4856 164.895 73.4719C164.97 73.4335 165.046 73.3984 165.117 73.3497C165.197 73.2943 165.281 73.2471 165.302 73.1407C165.306 73.1187 165.32 73.1002 165.332 73.0812C165.366 73.0306 165.399 72.98 165.416 72.9203C165.422 72.8973 165.427 72.877 165.41 72.8568C165.385 72.8254 165.36 72.7929 165.334 72.7619C165.315 72.7389 165.291 72.7202 165.259 72.7252C165.219 72.7312 165.196 72.7103 165.177 72.6794C165.167 72.6642 165.155 72.6508 165.145 72.6359C165.089 72.5529 165.029 72.549 164.97 72.6267C164.952 72.6511 164.931 72.6718 164.902 72.6791C164.849 72.6923 164.795 72.6881 164.741 72.6815C164.722 72.6792 164.708 72.6671 164.714 72.6438C164.741 72.5351 164.68 72.4758 164.594 72.4304C164.505 72.3835 164.442 72.313 164.408 72.2189C164.388 72.1645 164.433 72.116 164.49 72.1238C164.57 72.1348 164.6 72.1945 164.623 72.2592C164.634 72.2895 164.64 72.3255 164.67 72.3382C164.75 72.3726 164.813 72.4369 164.901 72.4596C164.947 72.4714 164.986 72.4817 165.03 72.4629C165.046 72.4558 165.063 72.451 165.079 72.4422C165.113 72.4238 165.124 72.4284 165.143 72.4632C165.148 72.4731 165.152 72.4837 165.155 72.4944C165.168 72.5356 165.194 72.5569 165.237 72.5638C165.295 72.5731 165.351 72.5882 165.409 72.5986C165.529 72.6204 165.649 72.6313 165.77 72.6036C165.795 72.5978 165.821 72.5943 165.847 72.5922C165.564 71.0203 164.795 69.6179 163.7 68.5461C163.691 68.5482 163.682 68.5503 163.673 68.5524C163.619 68.5655 163.574 68.5591 163.529 68.5231Z" fill="#407BFF"/>
<path d="M164.703 73.8805C164.648 73.9141 164.586 73.9113 164.528 73.9263C164.433 73.951 164.342 73.99 164.244 74.0063C164.171 74.0183 164.09 73.9744 164.088 73.9054C164.086 73.8496 164.058 73.8139 164.024 73.7772C163.991 73.7406 163.955 73.706 163.926 73.6661C163.903 73.6338 163.879 73.6116 163.84 73.5985C163.759 73.5719 163.711 73.5159 163.706 73.4249C163.703 73.3706 163.68 73.3206 163.642 73.2793C163.578 73.2101 163.535 73.134 163.527 73.0356C163.521 72.9699 163.496 72.9038 163.45 72.8516C163.395 72.791 163.349 72.7259 163.322 72.648C163.312 72.6182 163.294 72.5909 163.284 72.5618C163.256 72.482 163.184 72.4221 163.194 72.3226C163.2 72.266 163.166 72.206 163.155 72.1465C163.138 72.0553 163.069 72.0123 162.999 71.9726C162.942 71.9403 162.885 71.9585 162.835 71.9959C162.802 72.0205 162.772 72.0246 162.735 72.0051C162.71 71.9914 162.68 71.9877 162.651 71.9811C162.564 71.9611 162.475 71.9506 162.392 71.911C162.354 71.893 162.314 71.8854 162.279 71.8568C162.244 71.8283 162.195 71.8261 162.149 71.8361C162.132 71.8399 162.116 71.8481 162.097 71.8491C162.053 71.8517 162.034 71.8878 162.009 71.9162C161.987 71.9408 162 71.9654 162.008 71.9919C162.022 72.0342 162.001 72.0613 161.956 72.0647C161.929 72.0668 161.908 72.0554 161.889 72.0388C161.846 72.002 161.797 71.9827 161.741 71.9817C161.698 71.9809 161.666 71.9646 161.654 71.921C161.638 71.8609 161.59 71.8435 161.537 71.8358C161.513 71.8323 161.487 71.8323 161.463 71.8353C161.403 71.8428 161.352 71.8175 161.304 71.7883C161.253 71.7571 161.241 71.7057 161.27 71.6516C161.281 71.6313 161.288 71.6106 161.286 71.5872C161.284 71.5513 161.283 71.5159 161.29 71.4797C161.297 71.4425 161.274 71.4093 161.239 71.4039C161.204 71.3984 161.165 71.392 161.133 71.4085C161.104 71.4229 161.077 71.4199 161.048 71.4206C160.984 71.4222 160.917 71.403 160.858 71.445C160.843 71.4551 160.828 71.4509 160.813 71.4438C160.774 71.4254 160.735 71.431 160.694 71.4384C160.619 71.4518 160.546 71.4757 160.468 71.4711C160.429 71.4688 160.394 71.4897 160.368 71.5205C160.356 71.5347 160.344 71.5442 160.326 71.5516C160.246 71.585 160.161 71.5944 160.077 71.6039C160.035 71.6086 159.995 71.6087 159.956 71.5767C159.925 71.5503 159.882 71.5671 159.859 71.6032C159.845 71.6261 159.827 71.6478 159.818 71.6726C159.803 71.7168 159.771 71.7394 159.732 71.7613C159.638 71.8142 159.566 71.8906 159.537 71.9965C159.519 72.0616 159.49 72.119 159.449 72.1693C159.402 72.2254 159.362 72.2902 159.283 72.3102C159.257 72.3169 159.239 72.3362 159.227 72.3639C159.213 72.3963 159.197 72.4384 159.169 72.4525C159.113 72.4814 159.097 72.5277 159.083 72.5808C159.079 72.598 159.071 72.6146 159.062 72.6301C159.019 72.7059 158.966 72.7745 158.928 72.8545C158.889 72.9368 158.873 73.0104 158.907 73.0976C158.941 73.1844 158.97 73.275 158.936 73.3707C158.931 73.3853 158.93 73.4015 158.928 73.417C158.923 73.4516 158.907 73.4794 158.881 73.504C158.842 73.5413 158.824 73.5877 158.824 73.6431C158.825 73.7469 158.868 73.834 158.924 73.9171C158.941 73.9427 158.972 73.9495 158.994 73.9688C159.033 74.0033 159.057 74.0504 159.096 74.085C159.121 74.1082 159.141 74.1347 159.151 74.1682C159.188 74.2969 159.267 74.3953 159.38 74.4647C159.445 74.5051 159.506 74.5497 159.564 74.5998C159.622 74.6508 159.684 74.6654 159.755 74.6248C159.773 74.6149 159.792 74.6087 159.812 74.6028C159.884 74.5806 159.954 74.5594 160.034 74.5847C160.084 74.6003 160.139 74.6224 160.198 74.5962C160.27 74.5644 160.344 74.5373 160.414 74.504C160.485 74.4705 160.554 74.4582 160.628 74.4583C160.716 74.4583 160.767 74.4948 160.795 74.577C160.822 74.6546 160.842 74.6661 160.925 74.6527C160.987 74.6429 161.045 74.6478 161.101 74.6792C161.171 74.7188 161.183 74.7441 161.169 74.8265C161.162 74.8688 161.138 74.9075 161.14 74.9509C161.144 75.0086 161.132 75.0626 161.11 75.1153C161.101 75.1361 161.093 75.1579 161.104 75.1804C161.12 75.2148 161.129 75.2522 161.154 75.2827C161.202 75.3397 161.245 75.4 161.293 75.4566C161.333 75.5041 161.363 75.5541 161.37 75.6175C161.375 75.6575 161.392 75.6948 161.414 75.7295C161.439 75.7681 161.454 75.8106 161.451 75.8572C161.447 75.938 161.467 76.0128 161.499 76.0862C161.536 76.1727 161.53 76.2528 161.458 76.321C161.427 76.3498 161.411 76.385 161.405 76.4273C161.394 76.4937 161.369 76.5569 161.352 76.6218C161.336 76.6839 161.336 76.7504 161.332 76.8151C161.331 76.8376 161.343 76.8586 161.357 76.8771C161.387 76.9196 161.405 76.9679 161.426 77.0154C161.454 77.0791 161.473 77.1482 161.523 77.1998C161.567 77.2459 161.577 77.3003 161.573 77.3611C161.569 77.4037 161.564 77.4475 161.578 77.4885C161.593 77.5319 161.598 77.5759 161.6 77.6211C161.604 77.6922 161.617 77.7687 161.666 77.8155C161.753 77.8972 161.796 77.9943 161.817 78.1058C161.818 78.108 161.819 78.1102 161.82 78.1121C161.842 78.1529 161.849 78.1967 161.844 78.2582C161.828 78.3043 161.867 78.3559 161.876 78.413C161.877 78.4211 161.882 78.4323 161.889 78.4355C161.934 78.4581 161.977 78.4927 162.032 78.4842C162.118 78.471 162.207 78.4734 162.289 78.4391C162.3 78.4349 162.312 78.4333 162.323 78.4336C162.409 78.4366 162.49 78.4132 162.572 78.3866C162.655 78.3597 162.719 78.3139 162.773 78.2487C162.794 78.2246 162.813 78.1991 162.838 78.18C162.88 78.1472 162.908 78.1051 162.932 78.0585C162.955 78.0118 162.984 77.9669 163.024 77.935C163.071 77.8975 163.095 77.8493 163.113 77.7957C163.121 77.7722 163.131 77.7489 163.134 77.7246C163.146 77.6361 163.196 77.5787 163.273 77.5394C163.303 77.5241 163.331 77.501 163.343 77.4685C163.375 77.3791 163.399 77.2882 163.363 77.193C163.357 77.1763 163.353 77.1586 163.35 77.1409C163.335 77.0603 163.36 76.9935 163.427 76.9461C163.455 76.9258 163.477 76.901 163.497 76.8741C163.518 76.8458 163.542 76.8262 163.575 76.8128C163.653 76.7806 163.722 76.7343 163.776 76.6685C163.828 76.6058 163.858 76.5374 163.848 76.4521C163.84 76.3901 163.842 76.3276 163.853 76.2643C163.866 76.194 163.867 76.1226 163.819 76.058C163.787 76.0154 163.761 75.9634 163.763 75.9087C163.767 75.8177 163.754 75.7298 163.734 75.6419C163.726 75.6062 163.73 75.5694 163.753 75.5391C163.768 75.5189 163.778 75.4963 163.787 75.4736C163.824 75.3864 163.862 75.3003 163.941 75.241C163.955 75.2306 163.965 75.2144 163.976 75.2C164.017 75.144 164.056 75.0853 164.1 75.032C164.141 74.984 164.179 74.9304 164.237 74.9029C164.374 74.8374 164.461 74.7229 164.529 74.5955C164.605 74.4529 164.667 74.303 164.735 74.1559C164.741 74.142 164.741 74.1251 164.746 74.1103C164.766 74.0487 164.741 73.985 164.756 73.9228C164.762 73.8984 164.724 73.8673 164.703 73.8805Z" fill="#407BFF"/>
<path d="M151.144 72.534C151.14 72.5694 151.154 72.5942 151.183 72.6138C151.239 72.6516 151.276 72.705 151.305 72.764C151.323 72.8003 151.341 72.8361 151.364 72.8698C151.397 72.9177 151.398 72.9703 151.374 73.0234C151.338 73.1048 151.368 73.1838 151.448 73.2235C151.456 73.2274 151.467 73.2301 151.471 73.2367C151.507 73.2913 151.56 73.3173 151.62 73.3341C151.63 73.337 151.64 73.3458 151.647 73.3541C151.677 73.3892 151.717 73.4106 151.759 73.4279C151.844 73.4631 151.93 73.4973 152.016 73.5306C152.055 73.5456 152.095 73.5471 152.135 73.5339C152.156 73.5269 152.179 73.523 152.2 73.5151C152.23 73.5034 152.258 73.511 152.283 73.5282C152.303 73.5422 152.323 73.5563 152.338 73.5774C152.439 73.724 152.592 73.7756 152.757 73.8041C152.798 73.8112 152.83 73.8335 152.849 73.8662C152.873 73.9059 152.898 73.9463 152.904 73.995C152.914 74.0662 152.946 74.1195 153.02 74.146C153.061 74.1607 153.1 74.1859 153.12 74.2312C153.136 74.2676 153.168 74.2847 153.206 74.2883C153.251 74.2925 153.288 74.3058 153.317 74.3429C153.336 74.368 153.366 74.3617 153.392 74.3551C153.416 74.349 153.42 74.3274 153.418 74.3061C153.417 74.2873 153.421 74.2711 153.432 74.2554C153.446 74.2357 153.45 74.2112 153.436 74.1921C153.421 74.1715 153.393 74.1763 153.373 74.1821C153.317 74.1983 153.272 74.1793 153.231 74.1432C153.217 74.1313 153.204 74.1188 153.19 74.1078C153.132 74.0628 153.119 73.9984 153.141 73.9376C153.172 73.8548 153.164 73.7632 153.209 73.6842C153.223 73.6592 153.214 73.6267 153.212 73.5975C153.212 73.5828 153.202 73.5741 153.191 73.5652C153.124 73.5113 153.048 73.4917 152.964 73.5063C152.932 73.5117 152.901 73.5074 152.87 73.507C152.844 73.5066 152.829 73.4933 152.821 73.469C152.805 73.4209 152.811 73.3751 152.84 73.3348C152.871 73.2902 152.893 73.2417 152.913 73.1913C152.937 73.1323 152.928 73.0631 152.979 73.0113C153.001 72.9886 152.978 72.9578 152.942 72.9505C152.852 72.9322 152.769 72.9562 152.686 72.9873C152.661 72.9969 152.647 73.0148 152.644 73.0428C152.639 73.0904 152.621 73.1341 152.601 73.1771C152.577 73.2308 152.55 73.2489 152.49 73.2433C152.443 73.2389 152.397 73.2389 152.349 73.2467C152.265 73.2608 152.181 73.2019 152.14 73.1247C152.092 73.0366 152.099 72.9429 152.092 72.8501C152.091 72.837 152.096 72.8235 152.097 72.8101C152.105 72.7281 152.137 72.6537 152.171 72.5803C152.189 72.543 152.202 72.506 152.199 72.4639C152.197 72.4185 152.213 72.3783 152.251 72.3521C152.295 72.3217 152.335 72.2857 152.386 72.2647C152.433 72.2452 152.481 72.2246 152.524 72.1949C152.563 72.1683 152.604 72.1662 152.652 72.1828C152.73 72.2099 152.815 72.2094 152.896 72.2213C152.918 72.2244 152.927 72.2102 152.938 72.1946C152.958 72.167 152.98 72.1411 153.016 72.1331C153.057 72.1237 153.099 72.1127 153.141 72.1056C153.181 72.0989 153.219 72.1055 153.24 72.1451C153.256 72.1772 153.278 72.1829 153.311 72.1783C153.388 72.1678 153.43 72.2105 153.419 72.2878C153.416 72.3172 153.417 72.3456 153.423 72.3747C153.439 72.4456 153.463 72.5123 153.505 72.5729C153.535 72.6165 153.555 72.6229 153.594 72.5869C153.635 72.5487 153.657 72.5015 153.66 72.4439C153.664 72.3723 153.643 72.3058 153.627 72.2383C153.594 72.1036 153.633 71.9923 153.742 71.9107C153.831 71.8436 153.924 71.7813 154.026 71.732C154.083 71.7042 154.139 71.6813 154.176 71.619C154.198 71.5805 154.227 71.5445 154.237 71.5014C154.252 71.4355 154.286 71.381 154.328 71.3312C154.379 71.2714 154.432 71.2132 154.485 71.1552C154.544 71.0908 154.609 71.0463 154.695 71.0357C154.737 71.0307 154.772 71.011 154.81 70.9959C154.836 70.9855 154.85 70.9669 154.847 70.9384C154.842 70.8999 154.863 70.8757 154.889 70.8515C154.928 70.815 154.982 70.8044 155.021 70.7763C155.075 70.7375 155.127 70.7483 155.181 70.7461C155.209 70.7449 155.229 70.7575 155.242 70.7887C155.257 70.829 155.288 70.8335 155.321 70.8055C155.342 70.7882 155.36 70.7676 155.379 70.7486C155.394 70.7344 155.409 70.7174 155.43 70.7195C155.497 70.7261 155.556 70.6851 155.622 70.6876C155.637 70.6881 155.653 70.6825 155.668 70.6776C155.703 70.666 155.711 70.63 155.685 70.6035C155.674 70.5918 155.659 70.5864 155.643 70.5842C155.619 70.5809 155.594 70.5758 155.57 70.5709C155.5 70.5568 155.472 70.5123 155.489 70.4436C155.496 70.4126 155.51 70.3829 155.535 70.3624C155.572 70.3314 155.585 70.2935 155.574 70.2486C155.566 70.218 155.583 70.207 155.605 70.1979C155.656 70.1766 155.711 70.1726 155.764 70.1807C155.83 70.1907 155.893 70.1927 155.957 70.1716C155.992 70.1602 156.017 70.1939 156.001 70.2285C155.989 70.2552 155.971 70.2784 155.948 70.2976C155.919 70.3222 155.907 70.3556 155.895 70.3898C155.885 70.417 155.888 70.4318 155.92 70.4374C155.962 70.4449 156.004 70.4526 156.047 70.4423C156.092 70.4316 156.138 70.4308 156.177 70.4579C156.216 70.4845 156.261 70.4892 156.305 70.4986C156.367 70.5122 156.411 70.4563 156.388 70.3957C156.374 70.3583 156.37 70.3223 156.389 70.285C156.417 70.2282 156.416 70.227 156.358 70.2044C156.31 70.1853 156.301 70.1626 156.303 70.1121C156.307 70.0435 156.345 69.985 156.354 69.9175C156.359 69.8769 156.357 69.8473 156.323 69.8235C156.308 69.8132 156.293 69.8023 156.295 69.7808C156.298 69.7425 156.271 69.7289 156.242 69.7216C156.166 69.7026 156.146 69.6466 156.144 69.579C156.142 69.5385 156.144 69.4979 156.143 69.4574C156.141 69.388 156.121 69.3247 156.076 69.2706C156.042 69.2294 156.03 69.227 155.988 69.2596C155.934 69.3008 155.878 69.3383 155.82 69.373C155.782 69.3962 155.739 69.3931 155.708 69.366C155.679 69.3413 155.676 69.3154 155.696 69.2679C155.7 69.2576 155.706 69.2479 155.711 69.2376C155.729 69.1963 155.727 69.1783 155.69 69.1586C155.657 69.1408 155.635 69.1148 155.61 69.089C155.585 69.0638 155.56 69.0345 155.522 69.0297C155.451 69.0206 155.379 69.014 155.307 69.0135C155.281 69.0134 155.257 69.0212 155.239 69.038C155.193 69.0808 155.176 69.1421 155.143 69.1933C155.152 69.2733 155.106 69.3132 155.038 69.3371C155.032 69.3393 155.025 69.3412 155.019 69.3445C154.984 69.3647 154.981 69.3817 155.005 69.4143C155.045 69.4678 155.045 69.4831 155.01 69.5398C154.986 69.5789 154.953 69.6071 154.914 69.6321C154.854 69.6704 154.785 69.6828 154.722 69.7146C154.693 69.7294 154.672 69.7454 154.674 69.7796C154.678 69.8351 154.639 69.8807 154.64 69.9364C154.64 69.9577 154.618 69.9745 154.597 69.9856C154.579 69.9952 154.561 70.0041 154.543 70.0129C154.498 70.0349 154.472 70.0273 154.452 69.9813C154.437 69.9453 154.433 69.9082 154.457 69.872C154.485 69.8288 154.5 69.7779 154.535 69.7385C154.552 69.7201 154.544 69.7038 154.523 69.6967C154.487 69.6843 154.45 69.6762 154.411 69.6763C154.329 69.6764 154.259 69.6358 154.206 69.5854C154.155 69.5376 154.102 69.508 154.039 69.4923C154.001 69.483 153.987 69.4631 153.98 69.4288C153.976 69.4025 153.977 69.374 153.96 69.3511C153.934 69.3162 153.951 69.2882 153.973 69.2606C154.001 69.2271 154.039 69.206 154.073 69.1799C154.165 69.1089 154.265 69.0539 154.382 69.0393C154.441 69.032 154.487 68.9998 154.528 68.9616C154.557 68.9356 154.588 68.9236 154.625 68.9209C154.686 68.9163 154.742 68.93 154.787 68.9717C154.81 68.9926 154.831 68.9907 154.855 68.9783C154.889 68.9606 154.923 68.9433 154.957 68.9256C154.98 68.9132 155.002 68.9117 155.026 68.9278C155.047 68.9417 155.07 68.9517 155.096 68.9505C155.115 68.9496 155.131 68.9426 155.139 68.9243C155.147 68.9072 155.139 68.8927 155.126 68.8827C155.101 68.864 155.09 68.8379 155.083 68.8091C155.068 68.7555 155.077 68.7371 155.133 68.7337C155.171 68.7315 155.202 68.7172 155.231 68.6955C155.281 68.6588 155.341 68.6336 155.369 68.5714C155.375 68.5561 155.393 68.5457 155.406 68.5329C155.423 68.5154 155.441 68.4984 155.452 68.4754C155.473 68.4339 155.509 68.4189 155.553 68.4258C155.587 68.4311 155.62 68.4298 155.654 68.4292C155.702 68.4283 155.749 68.4412 155.778 68.4824C155.797 68.5092 155.818 68.5278 155.847 68.5427C155.891 68.5649 155.893 68.5933 155.857 68.6274C155.829 68.6533 155.797 68.6756 155.763 68.6924C155.743 68.7021 155.719 68.7109 155.712 68.7348C155.701 68.7766 155.668 68.781 155.634 68.7853C155.595 68.7902 155.558 68.7816 155.521 68.77C155.462 68.7516 155.4 68.7837 155.381 68.8404C155.372 68.8645 155.378 68.8802 155.406 68.8828C155.48 68.8895 155.553 68.907 155.628 68.8893C155.657 68.8824 155.676 68.8936 155.691 68.915C155.703 68.9315 155.714 68.9498 155.719 68.9688C155.731 69.0132 155.762 69.0349 155.802 69.0497C155.846 69.0662 155.89 69.0826 155.934 69.0998C155.975 69.1157 156.009 69.1136 156.047 69.0847C156.088 69.0535 156.126 69.0188 156.17 68.9913C156.228 68.9555 156.238 68.8997 156.207 68.8388C156.197 68.8188 156.186 68.7989 156.177 68.7783C156.17 68.7634 156.167 68.7465 156.184 68.7362C156.199 68.7268 156.214 68.7335 156.227 68.7435C156.254 68.7624 156.267 68.7925 156.289 68.8145C156.326 68.8497 156.357 68.8521 156.397 68.8212C156.427 68.7978 156.457 68.7739 156.486 68.7497C156.528 68.7154 156.533 68.6958 156.515 68.6441C156.504 68.6156 156.489 68.5927 156.461 68.5783C156.396 68.5459 156.352 68.4989 156.361 68.4195C156.366 68.3817 156.347 68.3554 156.319 68.3326C156.275 68.2953 156.223 68.2748 156.167 68.2642C156.104 68.2522 156.06 68.216 156.04 68.1568C156.026 68.1189 156.002 68.1042 155.967 68.0958C155.876 68.0738 155.782 68.0747 155.692 68.0855C155.629 68.093 155.567 68.0972 155.504 68.0978C155.461 68.0979 155.418 68.0948 155.376 68.0988C155.334 68.1029 155.289 68.1039 155.253 68.1309C155.21 68.1632 155.167 68.1958 155.125 68.2306C155.073 68.2751 155.068 68.2952 155.091 68.3602C155.097 68.3752 155.106 68.3891 155.097 68.4049C155.08 68.4366 155.054 68.4574 155.018 68.4601C154.984 68.4627 154.949 68.4629 154.929 68.4269C154.907 68.3874 154.891 68.3461 154.886 68.3003C154.88 68.2593 154.85 68.2332 154.819 68.2417C154.765 68.2567 154.709 68.27 154.663 68.3034C154.613 68.34 154.561 68.376 154.586 68.4566C154.6 68.5025 154.585 68.5106 154.544 68.5359C154.512 68.5557 154.483 68.5457 154.453 68.5392C154.404 68.5284 154.352 68.5223 154.307 68.5399C154.272 68.5537 154.239 68.558 154.203 68.5584C154.163 68.5588 154.123 68.5602 154.082 68.5669C154.026 68.5764 153.971 68.5724 153.927 68.5247C153.898 68.4935 153.853 68.485 153.814 68.4927C153.743 68.5065 153.672 68.5127 153.602 68.532C153.494 68.5622 153.385 68.5782 153.288 68.4974C153.268 68.4807 153.244 68.4761 153.22 68.4758C152.151 69.4951 151.381 70.8254 151.055 72.3214C151.093 72.3761 151.102 72.4467 151.141 72.5015C151.147 72.509 151.145 72.5232 151.144 72.534Z" fill="#407BFF"/>
<path d="M151.084 72.7854C151.095 72.7553 151.087 72.7282 151.067 72.7036C151.042 72.6721 151.028 72.6364 151.014 72.5974C151.01 72.5856 151.008 72.5736 151.005 72.5615C150.993 72.6241 150.983 72.687 150.973 72.75C150.988 72.7663 151.002 72.783 151.016 72.7999C151.039 72.8271 151.072 72.8191 151.084 72.7854Z" fill="#407BFF"/>
<path d="M157.203 75.5485C157.139 75.5406 157.09 75.5082 157.049 75.4599C157.033 75.4411 157.016 75.4229 156.996 75.408C156.941 75.3652 156.884 75.323 156.806 75.3412C156.705 75.3585 156.619 75.3084 156.54 75.2623C156.408 75.1856 156.265 75.1382 156.128 75.0776C156.066 75.0502 156.034 75.0135 156.018 74.9542C156.012 74.9327 156.013 74.9088 155.997 74.891C155.958 74.8474 155.942 74.7947 155.931 74.7384C155.923 74.6996 155.914 74.6555 155.877 74.6327C155.84 74.6096 155.811 74.579 155.783 74.5468C155.773 74.5349 155.761 74.5235 155.745 74.5197C155.671 74.5024 155.602 74.4687 155.522 74.476C155.416 74.4857 155.342 74.4297 155.291 74.343C155.261 74.2925 155.227 74.2515 155.169 74.2342C155.13 74.2227 155.112 74.1916 155.1 74.1563C155.092 74.1308 155.11 74.1088 155.115 74.085C155.12 74.0589 155.131 74.0292 155.097 74.0144C155.067 74.0007 155.034 73.9843 155 73.9949C154.96 74.0072 154.92 74.0064 154.88 74.0065C154.85 74.0065 154.823 74.0106 154.798 74.0312C154.76 74.0634 154.713 74.0655 154.672 74.0406C154.638 74.0195 154.601 74.013 154.564 74.009C154.522 74.0047 154.485 73.9891 154.453 73.9639C154.406 73.928 154.351 73.9073 154.3 73.8811C154.262 73.8616 154.213 73.8614 154.169 73.8549C154.152 73.8523 154.135 73.8549 154.12 73.8707C154.076 73.9193 154.019 73.9375 153.955 73.9517C153.881 73.9682 153.813 74.0008 153.792 74.0905C153.778 74.1538 153.694 74.1971 153.627 74.1837C153.603 74.1787 153.578 74.1791 153.553 74.1811C153.542 74.1821 153.53 74.1865 153.529 74.1996C153.527 74.227 153.511 74.2592 153.547 74.277C153.562 74.2842 153.566 74.2954 153.566 74.3094C153.565 74.3362 153.578 74.3579 153.592 74.3779C153.635 74.4439 153.642 74.5167 153.634 74.5919C153.627 74.6562 153.621 74.7205 153.583 74.7782C153.561 74.8115 153.529 74.8306 153.503 74.8587C153.472 74.8922 153.457 74.9385 153.421 74.9647C153.353 75.0137 153.331 75.0876 153.315 75.1612C153.304 75.2082 153.299 75.2628 153.326 75.3068C153.365 75.3724 153.353 75.4259 153.303 75.4773C153.284 75.4976 153.271 75.522 153.274 75.5502C153.281 75.6325 153.297 75.7103 153.373 75.7618C153.438 75.806 153.468 75.8738 153.488 75.9466C153.499 75.9864 153.515 76.0225 153.544 76.0522C153.602 76.1102 153.644 76.1812 153.68 76.2527C153.711 76.3141 153.747 76.3732 153.773 76.4381C153.803 76.5123 153.87 76.5652 153.927 76.6229C153.931 76.6273 153.939 76.6279 153.945 76.6304C153.993 76.6503 154.042 76.6687 154.088 76.6906C154.177 76.7322 154.249 76.7964 154.315 76.8677C154.331 76.8843 154.335 76.9069 154.342 76.9287C154.376 77.0356 154.371 77.147 154.377 77.2561C154.385 77.4131 154.389 77.5703 154.406 77.7267C154.409 77.7533 154.41 77.7816 154.404 77.8074C154.388 77.8769 154.395 77.945 154.402 78.0149C154.41 78.0987 154.446 78.1747 154.459 78.2568C154.474 78.3423 154.48 78.4248 154.461 78.5107C154.446 78.5781 154.444 78.6483 154.436 78.7174C154.435 78.733 154.435 78.7493 154.442 78.7638C154.488 78.8485 154.503 78.9414 154.52 79.0346C154.532 79.0999 154.553 79.1627 154.599 79.2167C154.677 79.3062 154.709 79.4162 154.719 79.5329C154.723 79.5668 154.732 79.5991 154.751 79.6279C154.772 79.6604 154.782 79.6964 154.788 79.7351C154.798 79.804 154.809 79.8727 154.854 79.9303C154.862 79.9407 154.865 79.9549 154.872 79.9663C154.926 80.056 154.961 80.1581 155.039 80.2328C155.09 80.2821 155.143 80.3247 155.224 80.2941C155.283 80.2716 155.367 80.3176 155.383 80.3814C155.394 80.424 155.418 80.4339 155.455 80.4376C155.484 80.4406 155.513 80.4368 155.541 80.4486C155.593 80.4702 155.647 80.4674 155.701 80.4675C155.728 80.4675 155.753 80.4637 155.757 80.4328C155.762 80.4033 155.738 80.3895 155.717 80.3768C155.709 80.3725 155.699 80.3719 155.69 80.372C155.655 80.372 155.623 80.3599 155.594 80.3436C155.534 80.3098 155.467 80.2793 155.439 80.21C155.424 80.1707 155.4 80.1424 155.369 80.1146C155.288 80.0421 155.302 80.0161 155.334 79.9521C155.338 79.9442 155.344 79.9351 155.343 79.9272C155.337 79.8771 155.371 79.8501 155.401 79.819C155.455 79.7623 155.443 79.7038 155.372 79.6688C155.309 79.6383 155.287 79.5641 155.324 79.5064C155.347 79.4694 155.366 79.4321 155.35 79.3863C155.342 79.3617 155.355 79.3411 155.37 79.3249C155.397 79.2954 155.411 79.2613 155.417 79.2224C155.422 79.1839 155.438 79.1496 155.461 79.1179C155.483 79.0867 155.5 79.0529 155.506 79.0138C155.513 78.9644 155.546 78.9351 155.59 78.9162C155.606 78.9091 155.624 78.9056 155.641 78.8994C155.72 78.8702 155.789 78.8321 155.793 78.7338C155.793 78.7251 155.798 78.7165 155.801 78.7081C155.827 78.6363 155.852 78.5653 155.919 78.5173C155.954 78.4926 155.984 78.4599 156.002 78.4209C156.03 78.3641 156.054 78.306 156.078 78.2477C156.1 78.1939 156.113 78.1348 156.165 78.0995C156.218 78.0633 156.205 77.9906 156.249 77.9495C156.259 77.9403 156.268 77.93 156.278 77.9215C156.302 77.9014 156.313 77.8752 156.314 77.8445C156.314 77.8086 156.314 77.7734 156.304 77.7376C156.262 77.5967 156.286 77.5392 156.413 77.4626C156.434 77.4497 156.457 77.4407 156.48 77.4333C156.502 77.4267 156.524 77.4206 156.542 77.4072C156.591 77.3722 156.644 77.3557 156.706 77.3532C156.758 77.3509 156.821 77.3522 156.843 77.2823C156.845 77.2752 156.856 77.2698 156.864 77.2654C156.891 77.2499 156.899 77.2257 156.897 77.1967C156.893 77.1586 156.907 77.1277 156.928 77.0965C156.955 77.0576 156.98 77.0155 156.977 76.966C156.974 76.9176 156.976 76.8723 157.008 76.8319C157.019 76.817 157.016 76.7973 157.016 76.7794C157.017 76.7569 157.014 76.733 157.02 76.7122C157.035 76.6646 157.028 76.6216 157.015 76.5741C156.993 76.4972 156.989 76.4162 157.044 76.349C157.12 76.2572 157.163 76.1429 157.25 76.0591C157.254 76.0545 157.259 76.0491 157.262 76.0433C157.335 75.9198 157.363 75.7906 157.316 75.6497C157.297 75.5923 157.264 75.5561 157.203 75.5485Z" fill="#407BFF"/>
<path d="M159.102 68.4327C159.205 68.4115 159.24 68.3559 159.215 68.2519C159.2 68.1887 159.213 68.169 159.272 68.1466C159.379 68.1066 159.465 68.0432 159.505 67.9308C159.511 67.914 159.513 67.8957 159.527 67.8826C159.558 67.8544 159.567 67.818 159.564 67.7781C159.561 67.7455 159.572 67.7164 159.602 67.7053C159.675 67.6774 159.741 67.6314 159.82 67.6175C159.881 67.6067 159.944 67.5994 160.001 67.5682C160.013 67.5614 160.025 67.5545 160.022 67.5379C160.019 67.5246 160.007 67.5215 159.997 67.5184C159.955 67.5059 159.912 67.5079 159.869 67.5103C159.788 67.515 159.705 67.5115 159.629 67.4872C159.543 67.4598 159.455 67.442 159.367 67.426C159.223 67.3998 159.077 67.3946 158.931 67.4223C158.874 67.433 158.818 67.4414 158.758 67.4353C158.676 67.4271 158.592 67.4266 158.509 67.44C158.367 67.4629 158.225 67.4847 158.081 67.4865C158.043 67.487 158.005 67.5028 157.967 67.4955C157.822 67.468 157.682 67.5294 157.538 67.5195C157.53 67.519 157.521 67.5224 157.512 67.5258C157.466 67.545 157.418 67.5562 157.369 67.5613C157.286 67.5701 157.21 67.6106 157.126 67.6142C157.105 67.6151 157.077 67.618 157.068 67.6423C157.056 67.673 157.028 67.6771 157.003 67.6856C156.93 67.7107 156.853 67.7077 156.777 67.7168C156.733 67.7222 156.689 67.7308 156.645 67.7411C156.615 67.7481 156.606 67.766 156.605 67.7942C156.605 67.8414 156.645 67.8971 156.696 67.9172C156.741 67.935 156.789 67.9409 156.835 67.9312C156.933 67.9106 157.027 67.9288 157.122 67.9455C157.2 67.959 157.249 68.0161 157.254 68.094C157.256 68.1333 157.25 68.1705 157.229 68.2042C157.206 68.2432 157.207 68.2824 157.23 68.3192C157.251 68.3535 157.265 68.3917 157.291 68.4234C157.327 68.4658 157.316 68.4888 157.26 68.4987C157.14 68.5198 157.077 68.5925 157.078 68.7141C157.07 68.7648 157.097 68.8162 157.091 68.8709C157.086 68.9278 157.097 68.9829 157.121 69.0348C157.136 69.0674 157.154 69.0985 157.17 69.1302C157.194 69.176 157.202 69.1807 157.256 69.1684C157.305 69.1573 157.344 69.1713 157.377 69.2072C157.455 69.2911 157.499 69.2613 157.546 69.2108C157.591 69.1637 157.644 69.1235 157.671 69.0619C157.678 69.0462 157.691 69.0303 157.706 69.0212C157.755 68.9904 157.789 68.9478 157.816 68.8972C157.854 68.8285 157.908 68.7872 157.993 68.7829C158.041 68.7805 158.091 68.7737 158.139 68.7649C158.244 68.7457 158.341 68.7059 158.426 68.6378C158.459 68.611 158.494 68.5819 158.539 68.581C158.623 68.5792 158.702 68.5522 158.785 68.5415C158.845 68.5337 158.902 68.5131 158.957 68.4871C159.004 68.4653 159.051 68.4432 159.102 68.4327Z" fill="#407BFF"/>
<path d="M164.656 76.4114C164.648 76.3641 164.628 76.3213 164.607 76.279C164.592 76.2477 164.57 76.2456 164.551 76.2733C164.518 76.3216 164.484 76.3697 164.459 76.4224C164.411 76.5283 164.344 76.6087 164.223 76.6312C164.193 76.6366 164.157 76.6422 164.143 76.6747C164.12 76.7252 164.082 76.7724 164.091 76.8322C164.096 76.8657 164.093 76.9007 164.103 76.9323C164.127 77.0157 164.091 77.0839 164.048 77.146C164.016 77.1916 163.998 77.2355 164.006 77.2836C164.003 77.3513 164.018 77.4105 164.032 77.4692C164.049 77.5395 164.131 77.6024 164.191 77.5905C164.232 77.5822 164.271 77.5648 164.311 77.5492C164.323 77.5445 164.335 77.5338 164.34 77.5227C164.361 77.4777 164.388 77.4357 164.4 77.3874C164.427 77.2803 164.471 77.1792 164.509 77.0759C164.541 76.9897 164.584 76.9066 164.596 76.8148C164.603 76.762 164.62 76.7147 164.647 76.6712C164.682 76.6163 164.69 76.5595 164.672 76.4973C164.664 76.4694 164.661 76.4401 164.656 76.4114Z" fill="#407BFF"/>
<path d="M160.077 69.6868C160.106 69.7174 160.14 69.737 160.176 69.7558C160.208 69.7722 160.228 69.8025 160.227 69.8371C160.225 69.8726 160.191 69.87 160.165 69.8747C160.133 69.8804 160.112 69.898 160.109 69.9322C160.107 69.9477 160.102 69.9628 160.1 69.9782C160.094 70.03 160.073 70.0776 160.06 70.1273C160.047 70.1732 160.073 70.1957 160.119 70.1823C160.126 70.1804 160.132 70.178 160.138 70.1742C160.206 70.1257 160.285 70.1253 160.363 70.1215C160.408 70.1193 160.446 70.1037 160.486 70.0871C160.5 70.081 160.515 70.0711 160.515 70.0532C160.516 70.0273 160.534 70.0143 160.55 69.9982C160.595 69.951 160.592 69.9189 160.531 69.8999C160.49 69.8871 160.472 69.8624 160.465 69.8262C160.458 69.7912 160.445 69.7629 160.413 69.7436C160.404 69.738 160.396 69.7286 160.392 69.719C160.359 69.651 160.318 69.5879 160.325 69.5045C160.33 69.4323 160.266 69.377 160.182 69.3764C160.138 69.3664 160.1 69.3883 160.068 69.4347C160.039 69.4761 160.016 69.5105 160.026 69.5678C160.034 69.6146 160.046 69.6523 160.077 69.6868Z" fill="#407BFF"/>
<path d="M159.49 68.6876C159.456 68.6918 159.423 68.691 159.39 68.6966C159.304 68.7109 159.217 68.731 159.131 68.699C159.064 68.6737 159.014 68.7008 158.966 68.7425C158.944 68.7616 158.943 68.7801 158.966 68.7976C158.994 68.8189 159.01 68.8464 159.021 68.8794C159.033 68.9127 159.055 68.9349 159.095 68.9385C159.152 68.9436 159.211 68.9429 159.266 68.9667C159.27 68.9684 159.275 68.9675 159.284 68.968C159.29 68.9659 159.302 68.9645 159.312 68.9591C159.392 68.9128 159.481 68.8906 159.569 68.8652C159.597 68.8572 159.616 68.8396 159.633 68.8189C159.65 68.7992 159.652 68.7786 159.633 68.7586C159.594 68.7173 159.554 68.6795 159.49 68.6876Z" fill="#407BFF"/>
<path d="M153.586 72.9547C153.622 72.993 153.666 73.019 153.711 73.0451C153.73 73.0563 153.738 73.0714 153.743 73.0928C153.754 73.1397 153.765 73.1497 153.806 73.137C153.848 73.1242 153.88 73.1339 153.914 73.1551C153.948 73.1761 153.983 73.1704 154.016 73.1496C154.054 73.1251 154.055 73.1033 154.019 73.0787C153.996 73.0638 153.971 73.0538 153.948 73.0388C153.903 73.0087 153.846 72.997 153.81 72.9568C153.748 72.8888 153.669 72.8551 153.586 72.8246C153.535 72.806 153.487 72.7819 153.426 72.7884C153.381 72.7797 153.338 72.8048 153.292 72.8125C153.247 72.8201 153.213 72.8451 153.183 72.8747C153.166 72.8907 153.138 72.9111 153.152 72.9368C153.169 72.9678 153.196 72.9393 153.218 72.936C153.26 72.9296 153.295 72.8971 153.339 72.899C153.416 72.9023 153.489 72.9255 153.563 72.9405C153.571 72.9422 153.58 72.9483 153.586 72.9547Z" fill="#407BFF"/>
<path d="M160.035 69.7031C159.993 69.6735 159.892 69.6799 159.852 69.7123C159.825 69.7344 159.802 69.7625 159.763 69.7693C159.717 69.7775 159.711 69.7843 159.718 69.8333C159.724 69.8742 159.717 69.9099 159.693 69.9412C159.672 69.9678 159.678 69.9898 159.694 70.0147C159.71 70.0385 159.727 70.0583 159.758 70.054C159.78 70.0546 159.799 70.0463 159.816 70.0346C159.855 70.0066 159.898 69.9883 159.947 69.9858C159.967 69.9847 159.98 69.9742 159.987 69.956C159.998 69.9313 160.013 69.9076 160.012 69.8797C160.011 69.8508 160.02 69.8311 160.044 69.8113C160.083 69.7799 160.076 69.7316 160.035 69.7031Z" fill="#407BFF"/>
<path d="M154.103 73.2351C154.074 73.2384 154.045 73.2433 154.017 73.2491C154.003 73.2518 153.991 73.2603 153.992 73.2765C153.993 73.2893 154.003 73.2974 154.014 73.2987C154.101 73.3096 154.186 73.3441 154.273 73.327C154.336 73.3146 154.4 73.3035 154.463 73.2909C154.483 73.2868 154.504 73.2831 154.508 73.2587C154.513 73.2319 154.493 73.2202 154.474 73.2065C154.423 73.1695 154.356 73.1681 154.306 73.1279C154.296 73.12 154.275 73.1248 154.26 73.1251C154.24 73.1254 154.219 73.1271 154.212 73.1276C154.19 73.1262 154.181 73.1237 154.173 73.1253C154.147 73.1301 154.116 73.1035 154.098 73.1322C154.08 73.1599 154.115 73.1734 154.125 73.1941C154.137 73.2183 154.131 73.2319 154.103 73.2351Z" fill="#407BFF"/>
<path opacity="0.1" d="M165.965 73.9358C165.965 78.1009 162.589 81.4775 158.424 81.4775C156.719 81.4775 155.146 80.9118 153.883 79.9577C154.22 79.966 154.547 79.9625 154.864 79.9478C155.026 79.9406 155.185 79.9302 155.342 79.917C158.137 79.6836 160.096 78.5645 161.469 77.1203C162.525 76.0107 163.235 74.7092 163.712 73.4706C163.751 73.3716 163.787 73.2728 163.822 73.1749C164.331 71.7585 164.542 70.453 164.629 69.6495V69.6489C164.806 69.9037 164.967 70.1697 165.111 70.4459C165.145 70.5101 165.177 70.5749 165.209 70.6402C165.219 70.6619 165.23 70.6838 165.24 70.7057C165.251 70.7276 165.261 70.7495 165.271 70.7714C165.312 70.8593 165.351 70.9482 165.388 71.038C165.426 71.1278 165.462 71.2185 165.495 71.31C165.538 71.4242 165.578 71.5401 165.615 71.6569C165.622 71.6803 165.629 71.7037 165.637 71.7272C165.673 71.8445 165.706 71.9632 165.736 72.0829C165.754 72.1547 165.771 72.227 165.787 72.2998C165.797 72.3451 165.807 72.3907 165.816 72.4364C165.817 72.4425 165.818 72.4486 165.82 72.4547C165.915 72.9336 165.965 73.4289 165.965 73.9358Z" fill="black"/>
<path d="M158.797 68.7812C158.783 68.7714 158.75 68.7735 158.736 68.7842C158.727 68.7915 158.72 68.8007 158.707 68.803C158.692 68.8057 158.69 68.8079 158.692 68.8241C158.694 68.8375 158.692 68.8493 158.684 68.8597C158.677 68.8685 158.679 68.8757 158.685 68.8839C158.69 68.8917 158.695 68.8983 158.705 68.8968C158.713 68.897 158.719 68.8943 158.725 68.8904C158.738 68.8812 158.752 68.8752 158.768 68.8744C158.774 68.874 158.778 68.8705 158.781 68.8646C158.785 68.8564 158.79 68.8486 158.789 68.8394C158.789 68.8299 158.792 68.8234 158.8 68.8169C158.812 68.8065 158.81 68.7905 158.797 68.7812Z" fill="#407BFF"/>
<path d="M89.7833 64.5186H51.0664V89.0069H89.7833V64.5186Z" fill="#E3E9F7"/>
<path d="M87.665 66.7109H53.1797V86.8148H87.665V66.7109Z" fill="#F4F6FC"/>
<path d="M89.7801 60.1108H51.0781V64.5284H89.7801V60.1108Z" fill="#407BFF"/>
<path d="M53.3176 62.8203C53.7281 62.8203 54.061 62.5039 54.061 62.1135C54.061 61.7232 53.7281 61.4067 53.3176 61.4067C52.907 61.4067 52.5742 61.7232 52.5742 62.1135C52.5742 62.5039 52.907 62.8203 53.3176 62.8203Z" fill="#E3E9F7"/>
<path d="M55.4894 62.8203C55.8999 62.8203 56.2327 62.5039 56.2327 62.1135C56.2327 61.7232 55.8999 61.4067 55.4894 61.4067C55.0789 61.4067 54.7461 61.7232 54.7461 62.1135C54.7461 62.5039 55.0789 62.8203 55.4894 62.8203Z" fill="#E3E9F7"/>
<path d="M57.6574 62.8203C58.0679 62.8203 58.4007 62.5039 58.4007 62.1135C58.4007 61.7232 58.0679 61.4067 57.6574 61.4067C57.2469 61.4067 56.9141 61.7232 56.9141 62.1135C56.9141 62.5039 57.2469 62.8203 57.6574 62.8203Z" fill="#E3E9F7"/>
<path d="M70.1894 84.8426C74.6519 84.8426 78.2694 81.2251 78.2694 76.7626C78.2694 72.3002 74.6519 68.6826 70.1894 68.6826C65.7269 68.6826 62.1094 72.3002 62.1094 76.7626C62.1094 81.2251 65.7269 84.8426 70.1894 84.8426Z" fill="#ACBCF8"/>
<path d="M70.1906 83.7895C68.3138 83.7895 66.5493 83.0585 65.2221 81.7314C63.895 80.4043 63.1641 78.6398 63.1641 76.7629C63.1641 74.886 63.895 73.1215 65.2221 71.7944C66.5493 70.4672 68.3138 69.7363 70.1906 69.7363C72.0675 69.7363 73.832 70.4672 75.1592 71.7944C76.4863 73.1215 77.2172 74.886 77.2172 76.7629C77.2172 78.6398 76.4863 80.4043 75.1592 81.7314C73.832 83.0585 72.0675 83.7895 70.1906 83.7895Z" fill="white"/>
<path d="M70.1919 82.7357C68.5964 82.7357 67.0964 82.1144 65.9682 80.9862C64.8401 79.8581 64.2188 78.3581 64.2188 76.7626C64.2188 75.1671 64.8401 73.6672 65.9682 72.539C67.0964 71.4108 68.5964 70.7896 70.1919 70.7896C71.7873 70.7896 73.2873 71.4109 74.4155 72.539C75.5437 73.6672 76.165 75.1672 76.165 76.7627C76.165 78.3581 75.5437 79.8581 74.4155 80.9863C73.2873 82.1145 71.7873 82.7357 70.1919 82.7357Z" fill="#ACBCF8"/>
<path d="M70.1931 81.6825C68.879 81.6825 67.6436 81.1708 66.7143 80.2416C65.7851 79.3124 65.2734 78.077 65.2734 76.7629C65.2734 75.4488 65.7852 74.2134 66.7143 73.2842C67.6436 72.355 68.879 71.8433 70.1931 71.8433C71.5071 71.8433 72.7426 72.355 73.6718 73.2842C74.601 74.2134 75.1127 75.4488 75.1127 76.7629C75.1127 78.077 74.6009 79.3124 73.6718 80.2416C72.7426 81.1708 71.5071 81.6825 70.1931 81.6825Z" fill="white"/>
<path d="M70.1943 80.6289C69.1616 80.6289 68.1907 80.2267 67.4605 79.4965C66.7303 78.7663 66.3281 77.7954 66.3281 76.7627C66.3281 75.73 66.7303 74.7591 67.4605 74.0289C68.1907 73.2986 69.1616 72.8965 70.1943 72.8965C71.227 72.8965 72.1979 73.2986 72.9281 74.0289C73.6583 74.7591 74.0605 75.73 74.0605 76.7627C74.0605 77.7954 73.6583 78.7662 72.9281 79.4965C72.1979 80.2267 71.227 80.6289 70.1943 80.6289Z" fill="#ACBCF8"/>
<path d="M70.1916 79.5757C69.4403 79.5757 68.734 79.2831 68.2027 78.7518C67.6715 78.2205 67.3789 77.5142 67.3789 76.7629C67.3789 76.0116 67.6715 75.3053 68.2027 74.774C68.734 74.2428 69.4403 73.9502 70.1916 73.9502C70.9429 73.9502 71.6493 74.2428 72.1805 74.774C72.7118 75.3053 73.0044 76.0116 73.0044 76.7629C73.0044 77.5142 72.7118 78.2206 72.1805 78.7518C71.6493 79.283 70.9429 79.5757 70.1916 79.5757Z" fill="white"/>
<path d="M70.1929 78.5219C69.723 78.5219 69.2812 78.339 68.9489 78.0067C68.6166 77.6744 68.4336 77.2326 68.4336 76.7627C68.4336 76.2927 68.6166 75.8509 68.9489 75.5186C69.2811 75.1864 69.7229 75.0034 70.1928 75.0034C70.6627 75.0034 71.1045 75.1864 71.4368 75.5187C71.7691 75.851 71.9521 76.2928 71.9521 76.7627C71.9521 77.2326 71.7691 77.6744 71.4368 78.0067C71.1046 78.339 70.6628 78.5219 70.1929 78.5219Z" fill="#ACBCF8"/>
<path d="M70.1902 77.4688C69.9989 77.4688 69.8263 77.3973 69.6911 77.262C69.5558 77.1268 69.4844 76.9542 69.4844 76.763C69.4844 76.5717 69.5559 76.3991 69.6911 76.2638C69.8263 76.1286 69.9989 76.0571 70.1902 76.0571C70.3814 76.0571 70.554 76.1286 70.6892 76.2638C70.8245 76.3991 70.896 76.5717 70.896 76.7629C70.896 76.9542 70.8245 77.1268 70.6892 77.262C70.5539 77.3973 70.3814 77.4688 70.1902 77.4688Z" fill="white"/>
<path d="M70.6602 76.4192L77.0992 72.1738" stroke="#040C2B" stroke-width="0.175189" stroke-miterlimit="10"/>
<path d="M70.7203 76.3805C70.7723 76.1269 70.6459 75.7766 70.5137 75.563C70.4897 75.9827 70.3793 76.4077 70.1406 76.7626C70.557 76.6773 70.989 76.766 71.3902 76.8925C71.2242 76.6799 70.9897 76.4435 70.7203 76.3805Z" fill="#040C2B"/>
<path d="M77.8035 72.4567L77.7637 72.4455L77.0625 72.3047L78.3311 71.4683L79.0794 71.6155L77.8035 72.4567Z" fill="#040C2B"/>
<path d="M78.403 70.5918L78.2335 71.3224L76.9648 72.1589C77.0483 71.9262 77.1018 71.6811 77.1308 71.4306L78.403 70.5918Z" fill="#040C2B"/>
<path d="M139.351 109.28C137.63 105.211 135.168 101.558 132.032 98.4224C128.896 95.2867 125.243 92.8242 121.174 91.1031C116.959 89.3201 112.484 88.416 107.875 88.416C103.265 88.416 98.7905 89.3201 94.5749 91.1031C90.506 92.8241 86.8529 95.2867 83.7173 98.4224C80.5816 101.558 78.1191 105.211 76.3981 109.28C74.615 113.496 73.7109 117.97 73.7109 122.58C73.7109 127.189 74.615 131.664 76.3981 135.88C78.119 139.948 80.5816 143.602 83.7173 146.737C86.853 149.873 90.506 152.335 94.5749 154.056C98.7905 155.839 103.265 156.744 107.875 156.744C112.484 156.744 116.959 155.839 121.174 154.056C125.243 152.335 128.896 149.873 132.032 146.737C135.168 143.602 137.63 139.948 139.351 135.88C141.134 131.664 142.038 127.189 142.038 122.58C142.038 117.97 141.134 113.496 139.351 109.28ZM107.875 151.002C92.1776 151.002 79.4527 138.277 79.4527 122.58C79.4527 106.883 92.1776 94.1578 107.875 94.1578C123.572 94.1578 136.297 106.883 136.297 122.58C136.297 138.277 123.572 151.002 107.875 151.002Z" fill="#407BFF"/>
<path d="M84.1562 112.56C84.655 110.973 85.3817 109.454 86.2694 108.033C87.1593 106.613 88.2164 105.294 89.4036 104.106C90.5903 102.918 91.9098 101.861 93.3298 100.971C94.7502 100.083 96.2701 99.3567 97.8575 98.8589C96.3958 99.6504 94.99 100.506 93.6664 101.47C92.3417 102.432 91.0987 103.494 89.9447 104.647C88.7909 105.801 87.7281 107.044 86.7667 108.369C85.8022 109.692 84.9468 111.098 84.1562 112.56Z" fill="#ACBCF8"/>
<path d="M161.503 175.897L131.634 150.212C128.784 147.763 128.461 143.467 130.911 140.617C133.361 137.768 137.657 137.445 140.506 139.895L170.375 165.579C173.224 168.029 173.548 172.325 171.098 175.174C168.648 178.023 164.352 178.347 161.503 175.897Z" fill="#407BFF"/>
<path d="M131.946 135.379H108.332V131.478C108.332 126.044 112.736 121.64 118.169 121.64H122.109C127.542 121.64 131.946 126.045 131.946 131.478L131.946 135.379Z" fill="#4471D5" stroke="white" stroke-width="0.798347" stroke-miterlimit="10"/>
<path d="M126.23 121.065C129.597 117.699 129.597 112.24 126.23 108.873C122.863 105.506 117.404 105.506 114.038 108.873C110.671 112.24 110.671 117.699 114.038 121.065C117.404 124.432 122.863 124.432 126.23 121.065Z" fill="#4471D5" stroke="white" stroke-width="0.798347" stroke-miterlimit="10"/>
<path d="M108.329 135.379H84.7148V131.478C84.7148 126.044 89.1192 121.64 94.5522 121.64H98.4918C103.925 121.64 108.329 126.045 108.329 131.478L108.329 135.379Z" fill="#4471D5" stroke="white" stroke-width="0.798347" stroke-miterlimit="10"/>
<path d="M102.617 121.065C105.984 117.699 105.984 112.24 102.617 108.873C99.2499 105.506 93.7911 105.506 90.4243 108.873C87.0575 112.24 87.0575 117.699 90.4243 121.065C93.7912 124.432 99.2499 124.432 102.617 121.065Z" fill="#4471D5" stroke="white" stroke-width="0.798347" stroke-miterlimit="10"/>
<path d="M120.134 141.551H96.5195V137.65C96.5195 132.217 100.924 127.812 106.357 127.812H110.296C115.73 127.812 120.134 132.217 120.134 137.65L120.134 141.551Z" fill="#4471D5" stroke="white" stroke-width="0.798347" stroke-miterlimit="10"/>
<path d="M114.425 127.238C117.792 123.871 117.792 118.412 114.425 115.045C111.058 111.679 105.6 111.679 102.233 115.045C98.8661 118.412 98.8661 123.871 102.233 127.238C105.6 130.605 111.058 130.605 114.425 127.238Z" fill="#4471D5" stroke="white" stroke-width="0.798347" stroke-miterlimit="10"/>
<path d="M160.591 154.05L159.389 155.461C159.389 155.461 157.148 155.822 155.687 156.663C155.687 157.001 156.047 157.238 156.392 157.126L157.733 156.693L155.557 159.277C155.557 159.277 154.907 161.98 157.863 160.718C157.863 160.718 160.656 158.976 160.851 156.753L162.54 154.74L161.37 153.509L160.591 154.05Z" fill="#DE995F"/>
<path d="M169.882 137.227L169.573 140.158L168.778 147.711L162.899 156.963L161.302 155.597L161.3 155.596L160.129 154.594L163.359 149.313C163.644 148.846 163.961 148.396 164.324 147.978C165.609 146.499 166.019 142.887 166.151 140.667C166.215 139.575 166.212 138.819 166.212 138.819L169.882 137.227Z" fill="white"/>
<path d="M166.634 133.832L166.277 138.428C166.277 138.428 165.463 138.24 164.523 138.087C163.475 137.915 162.27 137.786 161.859 138.008L163.729 132.967L164.165 131.79C164.165 131.79 164.847 133.742 166.634 133.832Z" fill="#CC8B5B"/>
<path opacity="0.15" d="M164.523 138.087C163.475 137.915 162.27 137.786 161.859 138.008L163.729 132.967L163.922 133.006L164.523 138.087Z" fill="black"/>
<path d="M156.889 131.79C156.889 131.79 154.518 136.596 161.988 138.909C161.988 138.909 164.736 139.859 163.671 133.121C163.671 133.121 161.891 126.833 156.889 131.79Z" fill="#DE995F"/>
<path d="M157.57 132.781C157.57 132.781 157.635 134.073 156.693 135.635C156.693 135.635 153.77 135.875 156.336 130.498C156.336 130.498 158.252 125.962 163.351 129.657C163.351 129.657 164.544 132.851 165.003 133.086L163.595 133.322C163.595 133.322 161.208 130.708 160.915 133.322C160.915 133.322 161.11 134.343 161.695 134.854L161.468 135.274L160.233 134.433C160.233 134.433 158.577 132.571 157.57 132.781Z" fill="black"/>
<path d="M172.71 172.644C172.71 172.644 173.814 173.365 173.749 174.927V176.79L171.961 176.894C171.54 176.919 171.183 176.609 171.183 176.219C171.183 176.219 169.722 177.27 167.935 177.661C167.935 177.661 165.541 178.12 164.102 177.092C163.881 176.934 163.823 176.646 163.977 176.43C164.201 176.113 164.817 175.721 166.433 175.521C166.581 175.503 166.722 175.454 166.847 175.379C167.269 175.126 168.283 174.442 169.51 173.08L172.71 172.644Z" fill="#040C2B"/>
<path d="M188.507 169.655C188.507 169.655 190.228 170.526 190.797 171.443L189.941 173.377C189.771 173.762 189.286 173.935 188.88 173.756C188.88 173.756 188.91 175.958 187.461 177.435C187.354 177.545 187.207 177.616 187.048 177.637C186.375 177.727 184.413 177.912 182.774 177.301C182.774 177.301 181.443 176.429 184.138 175.829C184.138 175.829 186.022 175.708 185.86 173.906L185.73 171.833L187.354 169.881L188.507 169.655Z" fill="#040C2B"/>
<path d="M179.494 149.123C179.494 149.123 179.392 149.563 179.105 150.271C178.974 150.594 178.804 150.974 178.588 151.393C177.888 152.747 176.701 154.515 174.754 156.145C173.572 157.135 172.11 158.075 170.308 158.84C169.988 158.975 169.816 159.302 169.896 159.619C170.203 160.826 170.925 163.928 171.403 168.095C171.427 168.305 171.476 168.512 171.549 168.713L173.112 173.024L172.657 173.049L168.028 173.305L165.268 160.298C165.268 160.298 164.131 156.843 167.606 154.08C167.606 154.08 171.799 150.716 173.715 149.496C173.871 149.396 174.012 149.311 174.135 149.243L176.929 149.18L179.494 149.123Z" fill="#081956"/>
<path opacity="0.15" d="M169.897 159.619C170.204 160.826 170.926 163.927 171.404 168.094C171.428 168.305 171.478 168.512 171.55 168.712L173.113 173.024L172.658 173.049L171.18 168.589L169.881 161.199C169.004 158.675 170.173 158.465 170.173 158.465C171.277 158.225 174.428 155.912 174.428 155.912L176.194 151.537L178.589 151.392C177.464 153.569 175.079 156.815 170.309 158.839C169.989 158.975 169.817 159.301 169.897 159.619Z" fill="black"/>
<path d="M161.502 175.897L128.154 147.221C127.226 146.423 127.121 145.024 127.919 144.096L133.901 137.139C134.699 136.211 136.098 136.106 137.026 136.904L170.374 165.579C173.223 168.029 173.547 172.325 171.097 175.174C168.647 178.023 164.351 178.347 161.502 175.897Z" fill="#407BFF"/>
<path d="M188.933 169.848C188.933 169.848 188.864 170.013 188.739 170.281C188.294 171.236 187.138 173.507 185.867 174.288L174.82 169.941C174.82 169.941 170.241 167.928 172.579 163.122L174.758 156.145L176.522 150.495L176.933 149.18L177.289 148.042L181.901 145.218C181.901 145.218 182.815 146.077 183.522 147.484C183.524 147.489 183.527 147.495 183.53 147.501C184.32 149.082 184.844 151.35 183.525 153.869L176.834 164.864L188.933 169.848Z" fill="#081956"/>
<path opacity="0.15" d="M183.518 147.484C181.929 149.071 180.429 149.896 179.105 150.271C178.138 150.545 177.264 150.579 176.519 150.495C174.851 150.307 173.826 149.529 173.826 149.529L173.715 149.496C173.871 149.396 174.012 149.311 174.135 149.243L176.93 149.18L177.285 148.042L181.897 145.218C181.897 145.218 182.812 146.077 183.518 147.484Z" fill="black"/>
<path opacity="0.15" d="M169.574 140.159L168.778 147.711L162.899 156.963L161.302 155.598L161.301 155.596L165.3 148.72L166.293 146.494L166.151 140.667C166.378 140.634 166.604 140.6 166.831 140.566C167.745 140.43 168.659 140.295 169.574 140.159Z" fill="black"/>
<path d="M161.324 156.528L159.522 158.345C159.522 158.345 157.703 157.714 155.332 158.616C155.332 158.957 155.644 159.228 156.013 159.206L157.833 159.096L154.91 161.95C154.91 161.95 154.715 164.864 157.281 163.602C157.281 163.602 160.009 162.04 161.081 160.448L163.273 158.42L161.324 156.528Z" fill="#DE995F"/>
<path d="M183.403 147.258C183.403 147.258 178.917 151.683 173.685 149.517L169.331 145.218C169.331 145.218 167.27 142.741 166.151 140.667H166.151C165.796 140.01 165.52 138.748 165.449 138.263L165.78 137.227L166.407 133.863C166.407 133.863 171.599 133.456 174.808 136.685C175.478 137.359 176.21 137.976 176.983 138.548C178.925 139.982 182.339 143.019 183.403 147.258Z" fill="white"/>
<path opacity="0.15" d="M167.411 142.676C167.411 142.676 166.035 139.465 167.497 137.242L168.945 142.676H167.411Z" fill="black"/>
<path opacity="0.15" d="M170.627 146.497L172.287 141.163C172.287 141.163 172.303 133.307 167.496 137.543C167.639 138.05 167.782 138.557 167.925 139.064C168.47 140.995 169.014 142.926 169.559 144.857C169.559 145.408 169.559 145.959 169.559 146.51L170.082 145.959L170.627 146.497Z" fill="black"/>
<path d="M163.191 153.269L160.527 157.294L162.541 159.126C162.541 159.126 167.186 154.53 168.29 152.397L171.928 141.673C171.928 141.673 172.74 136.927 169.557 136.416C169.557 136.416 166.146 136.266 167.283 141.132L167.445 143.145L165.627 148.522L163.191 153.269Z" fill="white"/>
<path opacity="0.15" d="M169.554 159.126C169.554 159.126 167.507 158.586 166.793 156.963C166.793 156.963 167.475 159.186 169.554 159.126Z" fill="black"/>
<path opacity="0.15" d="M169.557 159.924C169.557 159.924 167.528 160.253 166.781 159.922C166.781 159.922 168.273 160.616 169.557 159.924Z" fill="black"/>
<path opacity="0.15" d="M176.849 164.879C176.849 164.879 175.55 164.788 173.828 165.9C173.828 165.9 175.225 164.638 176.849 164.879Z" fill="black"/>
<path opacity="0.15" d="M176.849 164.849C176.849 164.849 174.64 165.87 174.446 166.591C174.446 166.591 174.121 165.75 176.849 164.849Z" fill="black"/>
<path opacity="0.15" d="M188.931 169.848C188.931 169.848 188.862 170.013 188.738 170.281L176.477 164.849L182.305 155.086C185.164 150.73 183.225 147.771 183.225 147.771L183.528 147.5C184.318 149.082 184.842 151.35 183.523 153.869L176.833 164.864L188.931 169.848Z" fill="black"/>
<path d="M70.7814 134.991H60.0547L67.1981 121.392H77.9248L70.7814 134.991Z" fill="#E3E9F7"/>
<path d="M71.8438 126.731C71.8599 126.483 71.8136 126.261 71.7059 126.07C71.5983 125.879 71.4349 125.729 71.22 125.624C70.9988 125.516 70.7331 125.461 70.4301 125.46H70.4268L70.1406 126.005H70.1439C71.0622 126.008 71.4472 126.693 71.0047 127.539H71.598C71.7445 127.259 71.8274 126.987 71.8438 126.731Z" fill="#F6471E"/>
<path d="M70.3458 128.893C70.2858 128.935 70.2246 128.975 70.1622 129.013C69.854 129.204 69.533 129.354 69.2078 129.459C68.871 129.568 68.5453 129.623 68.2395 129.623C67.9339 129.623 67.6662 129.568 67.4433 129.459C67.2286 129.354 67.0651 129.204 66.9576 129.013C66.8498 128.822 66.8035 128.6 66.8195 128.352C66.8362 128.095 66.9194 127.822 67.0669 127.541C67.2144 127.261 67.4176 126.988 67.6709 126.731C67.8788 126.52 68.1128 126.327 68.3681 126.157C68.4126 126.127 68.4578 126.098 68.5038 126.07C68.8121 125.879 69.133 125.729 69.458 125.624C69.7951 125.515 70.1207 125.46 70.4263 125.46H70.4294L70.1432 126.005H70.1401C69.6457 126.005 69.0979 126.202 68.627 126.515C68.2181 126.787 67.8673 127.147 67.6601 127.542C67.2144 128.39 67.6018 129.078 68.5257 129.078C69.0353 129.078 69.6015 128.869 70.0819 128.539L70.3448 128.892L70.3458 128.893Z" fill="#ACBCF8"/>
<path d="M71.6006 127.539L71.5993 127.541C71.4518 127.822 71.2485 128.095 70.9951 128.352C70.8004 128.549 70.5826 128.731 70.346 128.893L70.345 128.892L70.082 128.538C70.0838 128.537 70.0855 128.536 70.0871 128.535C70.127 128.507 70.1663 128.479 70.2048 128.45C70.5421 128.195 70.8274 127.881 71.006 127.541L71.0074 127.539H71.6006Z" fill="#407BFF"/>
<path d="M73.955 124.527H72.8319C72.8011 124.527 72.7882 124.504 72.803 124.475L72.8248 124.434C72.8396 124.406 72.8766 124.383 72.9074 124.383H74.0306C74.0613 124.383 74.0743 124.406 74.0594 124.434L74.0376 124.475C74.0228 124.504 73.9858 124.527 73.955 124.527Z" fill="#ACBCF8"/>
<path d="M74.4451 124.874H72.6473C72.6174 124.874 72.6048 124.851 72.6193 124.824L72.6404 124.784C72.6548 124.756 72.6908 124.734 72.7207 124.734H74.5185C74.5484 124.734 74.561 124.756 74.5465 124.784L74.5254 124.824C74.5109 124.851 74.475 124.874 74.4451 124.874Z" fill="#ACBCF8"/>
<path d="M67.8978 125.339H66.7746C66.7438 125.339 66.7068 125.362 66.692 125.39L66.6702 125.431C66.6554 125.46 66.6683 125.483 66.6991 125.483H67.8222C67.853 125.483 67.89 125.46 67.9048 125.431L67.9266 125.39C67.9415 125.362 67.9285 125.339 67.8978 125.339Z" fill="#ACBCF8"/>
<path d="M68.7529 124.992H66.9551C66.9252 124.992 66.8893 125.014 66.8748 125.042L66.8536 125.082C66.8392 125.11 66.8518 125.132 66.8817 125.132H68.6795C68.7094 125.132 68.7453 125.11 68.7598 125.082L68.7809 125.042C68.7953 125.014 68.7828 124.992 68.7529 124.992Z" fill="#ACBCF8"/>
<path d="M70.7787 130.01H70.1325C70.0967 130.01 70.0537 130.036 70.0364 130.069L70.0111 130.118C69.9938 130.15 70.0088 130.177 70.0446 130.177H70.6907C70.7266 130.177 70.7696 130.15 70.7869 130.118L70.8122 130.069C70.8295 130.036 70.8145 130.01 70.7787 130.01Z" fill="#ACBCF8"/>
<path d="M71.9172 129.691H70.2833C70.2545 129.691 70.2198 129.713 70.2059 129.739L70.1855 129.778C70.1715 129.805 70.1837 129.826 70.2125 129.826H71.8464C71.8752 129.826 71.9099 129.805 71.9238 129.778L71.9442 129.739C71.9581 129.713 71.946 129.691 71.9172 129.691Z" fill="#ACBCF8"/>
<path d="M64.8791 130.481H64.075C64.0434 130.481 64.0302 130.457 64.0454 130.429L64.0677 130.386C64.0829 130.357 64.1209 130.333 64.1525 130.333H64.9566C64.9881 130.333 65.0014 130.357 64.9861 130.386L64.9638 130.429C64.9486 130.457 64.9106 130.481 64.8791 130.481Z" fill="#ACBCF8"/>
<path d="M65.8679 130.819H63.8922C63.8633 130.819 63.8512 130.797 63.8651 130.771L63.8855 130.732C63.8995 130.706 63.9341 130.684 63.963 130.684H65.9387C65.9675 130.684 65.9796 130.706 65.9657 130.732L65.9453 130.771C65.9314 130.797 65.8967 130.819 65.8679 130.819Z" fill="#ACBCF8"/>
<path d="M71.3516 126.321H72.8725L73.4267 125.266" stroke="#F6471E" stroke-width="0.0121349" stroke-miterlimit="10"/>
<path d="M70.8398 128.223H71.6327L71.1252 129.189" stroke="#407BFF" stroke-width="0.0121349" stroke-miterlimit="10"/>
<path d="M69.4196 125.786L70.1534 124.389H67.8397L67.6602 124.731" stroke="#0F31AC" stroke-width="0.0121349" stroke-miterlimit="10"/>
<path d="M64.7734 129.917L65.4136 128.699H67.0315" stroke="#ACBCF8" stroke-width="0.0121349" stroke-miterlimit="10"/>
<path d="M58.3822 119.909L57.7731 122.84L55.9866 122.88L52.6722 122.955L51.3398 121.394C51.5435 121.173 51.692 120.732 51.8004 120.179C51.8963 119.688 51.9607 119.11 52.0029 118.52C52.1271 116.789 52.0631 114.96 52.0631 114.96L56.7072 116.445C56.8596 118.653 58.3822 119.909 58.3822 119.909Z" fill="#C9885B"/>
<path d="M51.6847 111.686C51.6847 111.686 49.7068 117.657 54.2662 119.106C54.4626 119.169 54.674 119.166 54.8693 119.1C55.7091 118.818 57.8526 117.662 57.6993 113.247C57.6993 113.247 55.7578 106.395 51.6847 111.686Z" fill="#DB965F"/>
<path d="M55.6962 152.509L55.6791 152.907L55.5013 157.063C55.4446 158.396 55.1324 159.704 54.5824 160.919L52.4841 165.551C50.934 169.065 50.607 171.58 50.6321 173.145C50.6363 173.41 50.5716 173.657 50.4559 173.871C50.1521 174.432 49.4977 174.765 48.8201 174.603C48.1467 174.442 47.6914 173.841 47.6914 173.175C47.6914 173.072 47.7024 172.968 47.7249 172.863L48.2053 170.638C48.3598 169.923 48.4375 169.193 48.4413 168.461C48.4683 163.413 49.4402 161.315 49.9727 160.542C50.3218 160.036 50.554 159.465 50.8365 158.919C51.3607 157.905 51.3816 157.034 51.3458 156.599C51.3325 156.433 51.2902 156.271 51.2221 156.119L50.3359 154.143C49.9997 153.394 50.3423 152.514 51.0968 152.19L53.6469 151.095C54.6421 150.668 55.7423 151.427 55.6962 152.509Z" fill="#DB965F"/>
<path opacity="0.15" d="M55.6755 152.908L55.4978 157.063C55.441 158.396 55.1289 159.705 54.5788 160.919L52.4805 165.552C50.9305 169.066 50.6035 171.58 50.6286 173.145C50.6328 173.411 50.5681 173.658 50.4523 173.872C49.128 170.292 53.7748 160.413 53.7748 160.413C54.6503 158.89 53.7748 153.523 53.7748 153.523L55.6755 152.908Z" fill="black"/>
<path d="M60.5554 151.809L58.8043 160.26L56.7868 174.383L54.6078 175.646L54.1602 175.905C54.1602 175.905 54.7491 169.361 54.2888 166.133C54.1758 165.338 54.1476 164.533 54.2268 163.734C54.2915 163.081 54.4129 162.328 54.6391 161.638C54.8907 160.87 55.019 160.066 54.9984 159.258L54.8702 154.263L54.8074 151.809H60.5554Z" fill="#DB965F"/>
<path d="M54.3114 173.197C54.3114 173.197 53.4868 175.441 53.8576 176.894C53.9201 177.139 54.1361 177.314 54.3885 177.326C55.1831 177.364 57.0212 177.477 57.8696 177.725C57.8696 177.725 60.3241 177.904 61.4108 177.491C61.6674 177.393 61.8256 177.132 61.791 176.86C61.7365 176.432 61.5187 175.765 60.7206 175.441L56.9381 173.217C56.9381 173.217 54.6245 174.702 54.3114 173.197Z" fill="#040C2B"/>
<path d="M47.8891 171.943C47.8891 171.943 46.7814 174.062 46.9611 175.551C46.9914 175.802 47.1831 176.003 47.4318 176.047C48.2148 176.188 50.0229 176.538 50.8322 176.893C50.8322 176.893 53.2429 177.388 54.374 177.119C54.641 177.055 54.8316 176.817 54.8324 176.542C54.8337 176.111 54.7039 175.422 53.9546 174.997L50.4913 172.302C50.4913 172.302 48.0052 173.476 47.8891 171.943Z" fill="#040C2B"/>
<path d="M60.9225 120.752L60.9119 121.041L60.7204 126.341L60.6732 127.65L60.4924 132.645L49.6505 133.743L49.2124 133.787L49.1834 133.79L49.2101 133.038L49.2851 130.91C49.3235 130.552 49.3498 130.199 49.3662 129.852C49.4438 128.184 49.2809 126.66 49.0247 125.362C48.6825 123.629 48.1735 122.296 47.8477 121.555C47.891 121.521 47.9147 121.508 47.9147 121.508L48.577 121.28L49.0917 121.104L51.7975 120.175C51.7986 120.176 51.8002 120.177 51.8013 120.179C53.399 121.615 54.7359 121.915 55.7782 121.738C57.4672 121.45 58.3831 119.909 58.3831 119.909L60.0055 120.45L60.4768 120.607L60.5529 120.632C60.6081 120.647 60.6622 120.663 60.7155 120.68C60.7863 120.702 60.8555 120.726 60.9225 120.752Z" fill="#D0D6F8"/>
<path d="M52.4457 127.903L52.065 128.017L51.7224 127.066C50.0475 122.193 48.5781 121.281 48.5781 121.281L49.0928 121.104C51.4453 123.697 52.2173 127.066 52.2173 127.066L52.4457 127.903Z" fill="#262C84"/>
<path d="M60.4791 120.607V127.065H60.2507L60.0078 120.45L60.4791 120.607Z" fill="#262C84"/>
<path d="M47.0027 124.934L46.5078 134.146L49.0583 134.717L49.1725 128.627L47.0027 124.934Z" fill="#DB965F"/>
<path d="M60.6463 135.849C59.6588 136.623 57.0583 136.532 57.0583 136.532L48.3516 137.649C47.7936 137.72 47.2742 137.522 46.9086 137.166C46.5493 136.817 46.3382 136.315 46.3855 135.764L46.4474 135.037L46.4785 134.673L46.5282 134.091L46.7881 134.113L47.642 134.183L49.5164 134.338L53.8402 134.695C54.661 134.665 55.5594 134.409 56.1314 134.215C56.4414 134.11 56.7386 133.968 57.011 133.787C57.5645 133.418 58.2356 133.128 58.7681 132.93C59.301 132.732 59.6952 132.626 59.6952 132.626C59.7895 132.894 59.6645 133.189 59.4064 133.307L58.334 133.798L59.47 133.709C59.8547 133.679 60.2423 133.757 60.578 133.947C61.8347 134.657 60.6463 135.849 60.6463 135.849Z" fill="#DB965F"/>
<path d="M62.1903 142.334C62.1899 142.332 62.1899 142.329 62.1899 142.326C62.1899 142.216 62.1884 142.104 62.1857 141.989C62.1823 141.841 62.1766 141.69 62.1689 141.536C62.0057 138.224 60.9352 133.638 60.8614 133.325C60.8587 133.314 60.8576 133.302 60.8579 133.291C60.9223 129.091 60.877 127.007 60.8617 126.479C60.8606 126.441 60.8446 126.407 60.8191 126.382C60.7936 126.357 60.759 126.341 60.7205 126.341L60.6547 126.34L60.467 126.338L60.2603 126.335C60.2409 126.335 60.2215 126.339 60.2032 126.347L49.3857 126.699L49.2167 130.198C49.1737 130.313 49.1512 130.392 49.1421 130.428C49.1386 130.441 49.1371 130.456 49.1379 130.47C49.1497 130.716 49.1596 130.961 49.1683 131.203C49.1915 131.832 49.2049 132.446 49.2102 133.039C49.2125 133.292 49.2132 133.542 49.2125 133.788C49.2106 135.006 49.1767 136.129 49.1283 137.12C49.0544 138.628 48.9472 139.831 48.8657 140.605C48.7846 141.377 48.7343 142.152 48.7157 142.928C48.7123 143.074 48.7088 143.218 48.7058 143.361C48.6708 144.933 48.6578 146.297 48.6605 147.478C48.6723 152.839 49.0084 154.45 49.1062 154.807C49.1207 154.859 49.163 154.899 49.2162 154.909C53.4481 155.73 60.714 154.711 61.6977 154.567C61.7631 154.557 61.8134 154.504 61.8191 154.438C62.48 146.981 62.1998 142.484 62.1903 142.334Z" fill="#081956"/>
<path d="M74.0246 129.437C73.6517 129.34 73.2569 129.363 72.8926 129.49L71.8169 129.866L72.7286 129.118C72.9481 128.938 72.9936 128.62 72.8343 128.386C72.8343 128.386 72.4802 128.589 72.0154 128.916C71.551 129.243 70.976 129.695 70.5347 130.192C70.3176 130.437 70.0664 130.65 69.7934 130.831C69.2897 131.164 68.4864 131.641 67.7003 131.879L63.4284 132.636L63.2148 132.659L63.2014 131.564L63.1293 125.503L61.5957 125.821L61.4051 127.295L60.6437 132.046L60.6196 132.35L60.6094 132.96L60.6386 133.879C60.6441 134.052 60.6617 134.224 60.6915 134.394L60.7647 134.814C60.8594 135.358 61.1915 135.79 61.6281 136.036C62.0724 136.287 62.6251 136.346 63.1464 136.135L71.2806 132.835C71.2806 132.835 73.1324 132.952 73.7087 132.243C73.7087 132.243 75.4208 129.803 74.0246 129.437Z" fill="#DB965F"/>
<path d="M65.2349 131.367L63.2357 131.922L61.4046 132.429L60.8714 132.577L60.705 132.624L60.4922 132.645L60.6784 127.498L60.9224 120.752C62.983 121.535 63.2555 123.716 63.2555 123.716L65.2349 131.367Z" fill="white"/>
<path d="M49.2833 130.911L49.1816 133.791L49.0549 133.804L43.5352 131.938L45.8572 125.543C46.6996 122.627 47.5973 121.752 47.8459 121.556C48.4664 122.968 49.7512 126.523 49.2833 130.911Z" fill="white"/>
<path d="M64.3969 129.007C63.4746 128.993 62.3775 128.531 61.3535 127.947C59.5456 126.916 57.9636 125.505 57.9636 125.505C57.1657 124.644 56.6921 123.736 56.4257 122.87C55.7127 120.554 56.479 118.538 56.479 118.538C56.6332 118.136 56.7645 117.776 56.8783 117.446V117.446C56.9 117.384 56.9209 117.323 56.9411 117.264C56.9411 117.263 56.9411 117.263 56.9415 117.263C57.2255 116.423 57.3971 115.778 57.557 115.101C57.6248 114.816 57.5277 114.517 57.305 114.326L56.4028 113.552C56.2011 113.471 55.9357 112.814 55.7302 112.214C55.5478 111.68 55.4131 111.192 55.4131 111.192C55.4508 111.557 55.4637 111.926 55.4637 112.257C55.4641 112.926 55.4131 113.438 55.4131 113.438L54.0807 113.476C54.2178 113.229 54.2414 112.848 54.2151 112.462C54.1691 111.778 53.9665 111.077 53.9665 111.077C53.8889 111.72 53.7933 112.196 53.6947 112.548C53.4073 113.573 53.091 113.552 53.091 113.552C53.2387 113.223 53.3388 112.9 53.4047 112.595C53.6445 111.487 53.4336 110.621 53.4336 110.621L52.5733 112.732L52.1774 113.704C51.2638 115.151 51.7587 116.597 51.7587 116.597C51.8664 116.908 51.9528 117.199 52.0213 117.47C52.0324 117.513 52.0427 117.556 52.053 117.597C52.053 117.598 52.053 117.598 52.053 117.598C52.1557 118.032 52.2121 118.414 52.236 118.747C52.3319 120.08 51.911 120.632 51.911 120.632C51.7891 120.813 51.6521 120.985 51.5036 121.148L51.5033 121.149C50.027 122.771 47.4191 123.525 47.4191 123.525C47.8759 122.916 47.8378 120.746 47.8378 120.746C47.0384 124.515 45.8203 124.249 45.8203 124.249C46.5501 124.03 46.6574 122.772 46.9433 121.565C47.1359 120.752 47.791 119.497 48.0701 118.709C48.3541 117.908 48.6769 116.921 48.9544 116.05C49.3323 114.865 49.627 113.894 49.627 113.894C49.6799 113.647 49.7355 113.412 49.7934 113.188C51.0743 108.249 53.5479 108.946 53.5479 108.946C55.9697 108.183 57.4445 109.761 58.3379 111.786C59.4948 114.408 59.6767 117.777 59.6767 117.777C59.7365 118.731 60.2728 119.892 60.7723 120.784C61.2953 121.718 61.6638 122.731 61.8423 123.787C61.8834 124.03 61.9291 124.262 61.9782 124.482C62.5911 125.21 63.3212 125.904 63.9889 126.089C64.0224 126.098 64.0559 126.106 64.089 126.113C64.0574 126.108 64.0236 126.102 63.9878 126.094C63.558 126.005 62.8504 125.727 62.0753 124.889C62.6402 127.093 63.5215 128.017 63.5215 128.017C63.2931 128.208 61.6753 126.856 61.6753 126.856C61.8146 127.228 62.7982 127.947 63.5432 128.452C64.0185 128.773 64.3969 129.007 64.3969 129.007Z" fill="black"/>
<path d="M64.3789 126.135C64.4035 126.134 64.4164 126.133 64.4164 126.133C64.404 126.134 64.3915 126.134 64.3789 126.135Z" fill="black"/>
<path d="M64.3795 126.135C64.329 126.137 64.2289 126.135 64.0898 126.113C64.1882 126.133 64.2849 126.141 64.3795 126.135Z" fill="black"/>
<path d="M49.3807 124.953C49.3807 124.953 47.287 128.341 47.858 130.473C47.858 130.473 46.7922 127.846 49.3807 124.953Z" fill="black"/>
<path d="M58.8948 124.573L58.4 117.226L57.7148 112.353L55.4565 109.896L51.3576 110.488L49.1878 118.52C49.1878 118.52 45.3811 123.316 47.8555 129.026C47.8555 129.026 48.3721 130.277 49.6506 131.317C50.7984 129.953 51.2543 126.638 51.2543 126.638C51.1892 130.297 49.6548 131.314 49.6506 131.317C49.7031 131.36 49.7537 131.402 49.8029 131.446C53.6913 134.845 59.7227 133.789 62.1415 129.225C62.1762 129.159 62.2106 129.093 62.2448 129.026L58.8948 124.573Z" fill="black"/>
<path d="M78.7403 108.735H70.4375V91.4907" stroke="#407BFF" stroke-width="0.159669" stroke-miterlimit="10"/>
<path d="M112.645 91.4904V66.6885" stroke="#407BFF" stroke-width="0.159669" stroke-miterlimit="10"/>
<path d="M137.871 107.518H163.897" stroke="#407BFF" stroke-width="0.159669" stroke-miterlimit="10"/>
<path d="M126.484 97.5045H158.418V88.9888" stroke="#407BFF" stroke-width="0.159669" stroke-miterlimit="10"/>
<path d="M70.4241 93.1939C71.0855 93.1939 71.6216 92.6577 71.6216 91.9963C71.6216 91.335 71.0855 90.7988 70.4241 90.7988C69.7627 90.7988 69.2266 91.335 69.2266 91.9963C69.2266 92.6577 69.7627 93.1939 70.4241 93.1939Z" fill="#407BFF"/>
<path d="M112.643 68.6045C113.304 68.6045 113.84 68.0684 113.84 67.407C113.84 66.7456 113.304 66.2095 112.643 66.2095C111.981 66.2095 111.445 66.7456 111.445 67.407C111.445 68.0684 111.981 68.6045 112.643 68.6045Z" fill="#407BFF"/>
<path d="M158.424 90.3731C159.085 90.3731 159.622 89.8369 159.622 89.1755C159.622 88.5142 159.085 87.978 158.424 87.978C157.763 87.978 157.227 88.5142 157.227 89.1755C157.227 89.8369 157.763 90.3731 158.424 90.3731Z" fill="#407BFF"/>
<path d="M164.084 108.715C164.746 108.715 165.282 108.179 165.282 107.518C165.282 106.856 164.746 106.32 164.084 106.32C163.423 106.32 162.887 106.856 162.887 107.518C162.887 108.179 163.423 108.715 164.084 108.715Z" fill="#407BFF"/>
</svg>
