<svg width="174" height="134" viewBox="0 0 174 134" fill="none" xmlns="http://www.w3.org/2000/svg">
<g opacity="0.2">
<path d="M39.3679 33.2501C37.1976 32.2295 33.6084 33.8889 32.464 36.3172C30.2794 40.9526 37.345 47.6659 39.9144 46.9454C42.7857 46.1402 43.3526 35.1239 39.3679 33.2501Z" stroke="#0F31AC" stroke-width="0.78486" stroke-miterlimit="10" stroke-linecap="round" stroke-dasharray="1.96 1.96 1.96 1.96 1.96 1.96"/>
<path d="M28.513 43.7498C27.7385 43.3018 19.534 38.5558 14.8909 42.3119C11.6308 44.9492 11.5996 50.5865 14.0495 53.7548C18.9018 60.0299 33.9484 57.2166 35.5096 52.7264C36.561 49.7027 31.625 45.55 28.513 43.7498Z" stroke="#0F31AC" stroke-width="0.78486" stroke-miterlimit="10" stroke-linecap="round" stroke-dasharray="1.96 1.96 1.96 1.96 1.96 1.96"/>
<path d="M39.0712 121.235C59.0416 116.279 81.7331 111.232 116.969 112.092C136.674 112.573 141.14 106.457 156.075 98.8539C169.386 92.0775 175.924 78.6022 171.909 70.9651C167.855 63.2551 155.508 66.3246 145.395 54.8476C140.79 49.6205 141.601 45.9568 138.942 40.1602C130.522 21.8058 98.9659 7.45978 83.4048 15.0521C62.8466 25.0822 80.422 68.421 57.4417 80.2598C42.9057 87.749 31.9188 73.3723 17.5661 84.347C10.4545 89.7849 1.7567 97.4129 1.08404 105.695C1.08404 105.695 0.142207 125.945 39.0712 121.235Z" stroke="#0F31AC" stroke-width="0.78486" stroke-miterlimit="10" stroke-linecap="round" stroke-dasharray="1.96 1.96 1.96 1.96 1.96 1.96"/>
<path d="M149.405 98.6833C149.405 98.6833 145.788 103.48 142.17 110.06C138.908 115.995 136.427 123.991 135.879 130.667C134.343 130.594 132.656 130.526 130.831 130.461C120.026 130.078 104.427 129.837 87.082 129.837C67.3632 129.837 49.9012 130.148 39.1742 130.626C38.8049 130.643 38.4435 130.659 38.0903 130.676C24.6978 114.077 -2.27033 85.1574 22.5477 73.2605C22.5477 73.2605 24.3658 72.7068 27.0917 71.5173C35.7188 67.7519 53.4472 57.6198 51.4753 38.5159C51.4753 38.5159 50.8034 34.9511 50.8034 29.9908C50.8034 18.3921 54.4754 -0.833805 78.9897 0.0436684C93.835 0.575803 107.507 8.13008 115.773 20.2216C123.88 32.0812 136.844 46.673 147.401 38.3425C149.838 36.4188 153.06 35.7061 156.068 36.5518C163.667 38.6862 172.3 49.7359 149.405 98.6833Z" fill="#1D85EE"/>
</g>
<path opacity="0.15" d="M169.12 131.313C169.12 132.098 132.391 132.734 87.0834 132.734C61.5192 132.734 38.6863 132.532 23.6408 132.214C20.1754 132.141 17.1236 132.062 14.5467 131.977C12.8493 131.922 11.358 131.864 10.0902 131.804C6.82839 131.652 5.04688 131.486 5.04688 131.313C5.04688 131.093 7.93838 130.884 13.0992 130.698C15.2127 130.622 17.7065 130.549 20.5383 130.482C35.4384 130.124 59.6934 129.892 87.0834 129.892C111.176 129.892 132.843 130.071 147.852 130.358C161.067 130.61 169.12 130.946 169.12 131.313Z" fill="#040C2B"/>
<path d="M18.4687 95.9017L10.6307 96.0613C9.76019 96.079 9.04012 95.3877 9.02242 94.5172L8.88315 87.6769C8.86541 86.8064 9.55675 86.0863 10.4273 86.0686L18.2653 85.909C19.1358 85.8913 19.8559 86.5826 19.8736 87.4532L20.0128 94.2934C20.0306 95.164 19.3392 95.884 18.4687 95.9017Z" fill="#DEE4FC"/>
<path d="M17.8273 92.6081L17.7996 93.1196L17.799 93.1298L17.8016 93.1306L18.0362 93.2108C17.9941 93.3643 17.9302 93.5079 17.8484 93.6376C17.8469 93.64 17.8454 93.6423 17.8439 93.6446L17.7536 93.6003L17.6048 93.5274L17.2977 93.9377L17.4067 94.0922C17.2787 94.1773 17.1375 94.2419 16.9873 94.282L16.9384 94.0413L16.4452 94.0313L16.3708 94.304C16.2053 94.2724 16.0498 94.2113 15.9092 94.1261L16.0525 93.8848L15.7162 93.504L15.442 93.6695L15.4396 93.671C15.4331 93.6611 15.4267 93.6511 15.4204 93.641C15.3141 93.4713 15.239 93.2781 15.2031 93.0706L15.4445 93.0169L15.4719 92.4951L15.2227 92.4173C15.2666 92.2302 15.3426 92.0567 15.4441 91.9036L15.7 92.0565L16.0453 91.6819L15.9085 91.4515C16.085 91.3427 16.2845 91.2719 16.497 91.2495L16.5514 91.5596L17.0441 91.5842L17.1217 91.3272C17.1662 91.3088 17.4352 91.4779 17.5659 91.5919L17.4072 91.8241L17.7372 92.2256L17.9495 92.1084C18.0135 92.2481 18.058 92.3996 18.0794 92.5589L17.8273 92.6081ZM16.6585 91.8069C16.4748 91.8032 16.298 91.856 16.1459 91.9582C16.0938 91.9931 16.0446 92.0339 15.999 92.0802C15.8205 92.2615 15.719 92.5052 15.7132 92.7666C15.7074 93.0279 15.798 93.2755 15.9684 93.4638C16.1388 93.6522 16.3685 93.7586 16.6152 93.7636C16.862 93.7686 17.0962 93.6715 17.2748 93.4902C17.4534 93.3089 17.5548 93.0652 17.5606 92.8038C17.5665 92.5425 17.4758 92.2949 17.3054 92.1066C17.2881 92.0873 17.2701 92.069 17.2515 92.0516C17.088 91.8977 16.8801 91.8114 16.6585 91.8069Z" fill="white"/>
<path d="M17.4014 89.2567L17.3703 89.8568L17.3697 89.8688L17.3724 89.8698L17.6289 89.9635C17.5825 90.1436 17.5124 90.3122 17.4227 90.4645C17.4211 90.4673 17.4195 90.47 17.4178 90.4727L17.3191 90.421L17.1566 90.3357L16.8201 90.8175L16.939 90.9986C16.7989 91.0987 16.6444 91.1748 16.4801 91.222L16.427 90.9397L15.8877 90.9288L15.8058 91.2488C15.6249 91.2121 15.455 91.1406 15.3015 91.0408L15.4585 90.7575L15.0915 90.3113L14.7914 90.5059L14.7888 90.5076C14.7817 90.496 14.7747 90.4843 14.7678 90.4724C14.652 90.2736 14.5701 90.047 14.5312 89.8037L14.7953 89.7403L14.8262 89.1281L14.5538 89.0372C14.6022 88.8176 14.6856 88.614 14.7968 88.4341L15.0764 88.6132L15.4547 88.173L15.3055 87.903C15.4986 87.775 15.7169 87.6916 15.9493 87.665L16.0083 88.0288L16.547 88.0568L16.6323 87.7551C16.681 87.7335 16.9748 87.9315 17.1175 88.065L16.9436 88.3376L17.3037 88.8082L17.5361 88.6703C17.6058 88.8341 17.6542 89.0118 17.6774 89.1987L17.4014 89.2567ZM16.1247 88.3187C15.9239 88.3146 15.7304 88.3769 15.564 88.497C15.5069 88.538 15.4531 88.586 15.4031 88.6404C15.2075 88.8534 15.0962 89.1395 15.0894 89.4461C15.0826 89.7527 15.1813 90.043 15.3672 90.2637C15.5532 90.4844 15.8043 90.6089 16.074 90.6143C16.3438 90.6198 16.6001 90.5055 16.7957 90.2925C16.9913 90.0795 17.1027 89.7934 17.1094 89.4868C17.1162 89.1802 17.0175 88.8899 16.8316 88.6692C16.8126 88.6467 16.793 88.6252 16.7727 88.6048C16.5942 88.4244 16.3671 88.3235 16.1247 88.3187Z" fill="white"/>
<path d="M14.7669 91.45L14.724 92.2764L14.7231 92.2929L14.727 92.2942L15.0796 92.4232C15.0159 92.6713 14.9194 92.9034 14.7961 93.1131C14.7939 93.117 14.7916 93.1208 14.7894 93.1245L14.6537 93.0532L14.4302 92.9358L13.9674 93.5993L14.131 93.8486C13.9383 93.9864 13.7259 94.0912 13.4999 94.1563L13.427 93.7675L12.6854 93.7525L12.5728 94.1932C12.324 94.1426 12.0904 94.0442 11.8793 93.9068L12.0953 93.5167L11.5907 92.9023L11.178 93.1703L11.1744 93.1726C11.1646 93.1566 11.155 93.1405 11.1456 93.1242C10.9863 92.8504 10.8737 92.5384 10.8203 92.2033L11.1834 92.116L11.2259 91.2729L10.8513 91.1478C10.9179 90.8454 11.0326 90.565 11.1855 90.3173L11.5699 90.5638L12.0901 89.9578L11.8849 89.5859C12.1505 89.4097 12.4507 89.2949 12.7701 89.2583L12.8513 89.7592L13.592 89.7978L13.7093 89.3824C13.7763 89.3526 14.1804 89.6252 14.3765 89.809L14.1373 90.1845L14.6325 90.8324L14.952 90.6426C15.0479 90.8682 15.1144 91.1128 15.1462 91.3701L14.7669 91.45ZM13.0114 90.1583C12.7352 90.1527 12.4693 90.2385 12.2404 90.4038C12.162 90.4604 12.0879 90.5264 12.0192 90.6013C11.7503 90.8946 11.5971 91.2886 11.5877 91.7108C11.5784 92.133 11.7141 92.5328 11.9698 92.8367C12.2255 93.1405 12.5707 93.312 12.9416 93.3195C13.3126 93.327 13.665 93.1696 13.9339 92.8763C14.2028 92.583 14.356 92.189 14.3653 91.7669C14.3747 91.3447 14.239 90.9448 13.9833 90.641C13.9572 90.61 13.9302 90.5804 13.9024 90.5523C13.657 90.304 13.3446 90.165 13.0114 90.1583Z" fill="white"/>
<path d="M168.1 70.3478H160.26C159.389 70.3478 158.684 69.642 158.684 68.7713V61.9296C158.684 61.0588 159.389 60.353 160.26 60.353H168.1C168.97 60.353 169.676 61.0589 169.676 61.9296V68.7713C169.676 69.642 168.97 70.3478 168.1 70.3478Z" fill="#DEE4FC"/>
<path d="M163.515 64.1665C163.515 64.7852 163.395 65.2498 163.156 65.5605C162.916 65.8711 162.565 66.0264 162.103 66.0264C161.659 66.0264 161.316 65.8671 161.074 65.5483C160.832 65.2296 160.711 64.769 160.711 64.1665C160.711 62.9374 161.175 62.3228 162.103 62.3228C162.557 62.3228 162.906 62.4821 163.15 62.8009C163.393 63.1196 163.515 63.5748 163.515 64.1665ZM161.728 64.1746C161.728 64.5162 161.758 64.7711 161.818 64.9391C161.879 65.1072 161.976 65.1913 162.111 65.1913C162.369 65.1913 162.498 64.8524 162.498 64.1746C162.498 63.5022 162.369 63.1659 162.111 63.1659C161.976 63.1659 161.879 63.2486 161.818 63.4141C161.758 63.5795 161.728 63.8331 161.728 64.1746ZM166.291 62.4075L163.019 68.3059H162.05L165.322 62.4075H166.291ZM167.646 66.5227C167.646 67.1386 167.526 67.6019 167.287 67.9125C167.048 68.2232 166.697 68.3785 166.234 68.3785C165.79 68.3785 165.447 68.2191 165.205 67.9004C164.963 67.5817 164.842 67.1224 164.842 66.5226C164.842 65.2935 165.306 64.6789 166.234 64.6789C166.689 64.6789 167.038 64.8382 167.281 65.157C167.524 65.4757 167.646 65.931 167.646 66.5227ZM165.859 66.5307C165.859 66.8724 165.889 67.1272 165.95 67.2953C166.01 67.4634 166.108 67.5474 166.242 67.5474C166.5 67.5474 166.63 67.2085 166.63 66.5307C166.63 65.8584 166.5 65.5221 166.242 65.5221C166.108 65.5221 166.01 65.6048 165.95 65.7702C165.889 65.9357 165.859 66.1892 165.859 66.5307Z" fill="white"/>
<path d="M51.3888 59.9494H43.5492C42.6785 59.9494 41.9727 59.2435 41.9727 58.3728V51.5311C41.9727 50.6604 42.6785 49.9546 43.5492 49.9546H51.3888C52.2595 49.9546 52.9654 50.6605 52.9654 51.5311V58.3728C52.9654 59.2435 52.2595 59.9494 51.3888 59.9494Z" fill="#DEE4FC"/>
<path d="M49.6592 56.0868C49.6592 56.5486 49.4922 56.9197 49.1582 57.2C48.8242 57.4803 48.3566 57.648 47.7554 57.7031V58.5962H47.1585V57.7205C46.4499 57.7061 45.8282 57.5812 45.2939 57.3459V56.1957C45.5466 56.3206 45.8508 56.431 46.2066 56.5268C46.5624 56.6226 46.8797 56.6793 47.1585 56.6967V55.3462L46.8667 55.2329C46.2916 55.0064 45.8842 54.7603 45.6446 54.4945C45.405 54.2287 45.2852 53.8998 45.2852 53.5077C45.2852 53.0867 45.4499 52.7403 45.7796 52.4687C46.1093 52.1971 46.5689 52.0323 47.1585 51.9742V51.3076H47.7554V51.9568C48.4204 51.9859 49.0216 52.1195 49.559 52.3576L49.1495 53.3771C48.6964 53.1912 48.2317 53.0779 47.7554 53.0372V54.3225C48.3217 54.5403 48.7247 54.7291 48.9644 54.8888C49.204 55.0486 49.3797 55.2243 49.4915 55.416C49.6033 55.6076 49.6592 55.8313 49.6592 56.0868ZM46.5965 53.5077C46.5965 53.6355 46.6408 53.7408 46.7294 53.8236C46.8179 53.9063 46.961 53.9913 47.1585 54.0784V53.0546C46.7838 53.1098 46.5965 53.2609 46.5965 53.5077ZM48.3479 56.1522C48.3479 56.0302 48.2984 55.9271 48.1997 55.8428C48.101 55.7586 47.9529 55.6715 47.7553 55.5815V56.6662C48.1503 56.5995 48.3479 56.4281 48.3479 56.1522Z" fill="white"/>
<path d="M119.752 25.612H111.912C111.042 25.612 110.336 24.9061 110.336 24.0354V17.1937C110.336 16.323 111.042 15.6172 111.912 15.6172H119.752C120.623 15.6172 121.329 16.3231 121.329 17.1937V24.0354C121.329 24.9061 120.623 25.612 119.752 25.612Z" fill="#DEE4FC"/>
<path d="M111.774 22.7786L115.729 20.1138C115.604 19.7522 115.558 19.3531 115.614 18.9426C115.797 17.5961 116.992 16.6392 118.283 16.8054C119.574 16.9715 120.473 18.1977 120.29 19.5442C120.107 20.8907 118.912 21.8476 117.621 21.6814C117.077 21.6115 116.604 21.353 116.251 20.9772L112.323 23.6228C112.096 23.7845 111.789 23.7265 111.638 23.4934C111.486 23.2602 111.548 22.9403 111.774 22.7786ZM117.681 21.2381C118.736 21.3738 119.716 20.5894 119.865 19.4895C120.014 18.3895 119.278 17.3843 118.223 17.2486C117.168 17.1129 116.188 17.8973 116.039 18.9972C115.89 20.0972 116.627 21.1024 117.681 21.2381Z" fill="white"/>
<path d="M119.487 18.4478C119.546 18.5996 119.58 18.7605 119.6 18.9227C119.62 19.0851 119.621 19.2501 119.605 19.4138C119.59 19.5777 119.548 19.7391 119.489 19.8923L119.44 20.0053C119.421 20.0419 119.399 20.0769 119.379 20.1125L119.347 20.1651C119.335 20.1817 119.323 20.1979 119.31 20.214C119.285 20.2464 119.26 20.2782 119.234 20.3095C119.253 20.2733 119.272 20.2376 119.292 20.2024L119.321 20.1498L119.345 20.0944C119.361 20.0576 119.379 20.0219 119.393 19.9847L119.432 19.8716C119.446 19.8346 119.453 19.7951 119.464 19.757C119.474 19.7185 119.486 19.6806 119.491 19.6411L119.513 19.5241L119.527 19.4056C119.544 19.2475 119.546 19.0877 119.539 18.9278C119.531 18.7679 119.514 18.6078 119.487 18.4478Z" fill="white"/>
<path d="M143.989 128.654V130.156C143.989 130.299 143.873 130.415 143.73 130.415H132.306C132.163 130.415 132.047 130.299 132.047 130.156V128.654C132.047 128.511 132.163 128.395 132.306 128.395H143.73C143.873 128.395 143.989 128.511 143.989 128.654Z" fill="#FDC538"/>
<path d="M138.304 128.395H137.727V130.415H138.304V128.395Z" fill="#FEE29B"/>
<path d="M137.526 128.395H136.949V130.415H137.526V128.395Z" fill="#FEE29B"/>
<path d="M139.081 128.395H138.504V130.415H139.081V128.395Z" fill="#FEE29B"/>
<path d="M143.544 126.633V128.135C143.544 128.278 143.428 128.394 143.285 128.394H131.86C131.717 128.394 131.602 128.278 131.602 128.135V126.633C131.602 126.49 131.717 126.374 131.86 126.374H143.285C143.428 126.374 143.544 126.49 143.544 126.633Z" fill="#FDB606"/>
<path d="M135.374 126.374H134.797V128.394H135.374V126.374Z" fill="#FEE29B"/>
<path d="M134.597 126.374H134.02V128.394H134.597V126.374Z" fill="#FEE29B"/>
<path d="M136.151 126.374H135.574V128.394H136.151V126.374Z" fill="#FEE29B"/>
<path d="M144.478 124.613V126.116C144.478 126.259 144.362 126.374 144.219 126.374H132.794C132.651 126.374 132.535 126.259 132.535 126.116V124.613C132.535 124.47 132.651 124.354 132.794 124.354H144.219C144.362 124.354 144.478 124.47 144.478 124.613Z" fill="#FDC538"/>
<path d="M138.796 124.354H138.219V126.374H138.796V124.354Z" fill="#FEE29B"/>
<path d="M138.019 124.354H137.441V126.374H138.019V124.354Z" fill="#FEE29B"/>
<path d="M139.573 124.354H138.996V126.374H139.573V124.354Z" fill="#FEE29B"/>
<path d="M143.747 122.593V124.096C143.747 124.239 143.631 124.354 143.488 124.354H132.064C131.921 124.354 131.805 124.239 131.805 124.096V122.593C131.805 122.45 131.921 122.334 132.064 122.334H143.488C143.631 122.334 143.747 122.45 143.747 122.593Z" fill="#FDB606"/>
<path d="M135.577 122.334H135V124.354H135.577V122.334Z" fill="#FEE29B"/>
<path d="M134.8 122.334H134.223V124.354H134.8V122.334Z" fill="#FEE29B"/>
<path d="M136.354 122.334H135.777V124.354H136.354V122.334Z" fill="#FEE29B"/>
<path d="M144.255 120.574V122.077C144.255 122.22 144.139 122.335 143.996 122.335H132.571C132.428 122.335 132.312 122.22 132.312 122.077V120.574C132.312 120.431 132.428 120.315 132.571 120.315H143.996C144.139 120.315 144.255 120.431 144.255 120.574Z" fill="#FDC538"/>
<path d="M138.573 120.315H137.996V122.335H138.573V120.315Z" fill="#FEE29B"/>
<path d="M137.796 120.315H137.219V122.335H137.796V120.315Z" fill="#FEE29B"/>
<path d="M139.351 120.315H138.773V122.335H139.351V120.315Z" fill="#FEE29B"/>
<path d="M143.52 118.553V120.055C143.52 120.198 143.405 120.314 143.262 120.314H131.837C131.694 120.314 131.578 120.198 131.578 120.055V118.553C131.578 118.41 131.694 118.294 131.837 118.294H143.262C143.405 118.294 143.52 118.41 143.52 118.553Z" fill="#FDB606"/>
<path d="M135.354 118.293H134.777V120.313H135.354V118.293Z" fill="#FEE29B"/>
<path d="M134.577 118.293H134V120.313H134.577V118.293Z" fill="#FEE29B"/>
<path d="M136.132 118.293H135.555V120.313H136.132V118.293Z" fill="#FEE29B"/>
<path d="M134.053 130.694H113.858C113.153 130.694 112.582 130.123 112.582 129.418V103.701C112.582 102.996 113.153 102.425 113.858 102.425H134.053C134.758 102.425 135.329 102.996 135.329 103.701V129.418C135.329 130.123 134.758 130.694 134.053 130.694Z" fill="#0085F9"/>
<g opacity="0.2">
<path d="M118.055 116.498H114.739C114.631 116.498 114.543 116.41 114.543 116.302V113.645C114.543 113.537 114.631 113.449 114.739 113.449H118.055C118.163 113.449 118.251 113.537 118.251 113.645V116.302C118.251 116.41 118.163 116.498 118.055 116.498Z" fill="black"/>
<path d="M118.055 120.423H114.739C114.631 120.423 114.543 120.335 114.543 120.227V117.57C114.543 117.462 114.631 117.374 114.739 117.374H118.055C118.163 117.374 118.251 117.462 118.251 117.57V120.227C118.251 120.335 118.163 120.423 118.055 120.423Z" fill="black"/>
<path d="M118.055 124.349H114.739C114.631 124.349 114.543 124.261 114.543 124.152V121.496C114.543 121.387 114.631 121.299 114.739 121.299H118.055C118.163 121.299 118.251 121.387 118.251 121.496V124.152C118.251 124.261 118.163 124.349 118.055 124.349Z" fill="black"/>
<path d="M118.055 128.274H114.739C114.631 128.274 114.543 128.187 114.543 128.078V125.421C114.543 125.313 114.631 125.225 114.739 125.225H118.055C118.163 125.225 118.251 125.313 118.251 125.421V128.078C118.251 128.187 118.163 128.274 118.055 128.274Z" fill="black"/>
<path d="M123.117 116.498H119.802C119.693 116.498 119.605 116.41 119.605 116.302V113.645C119.605 113.537 119.693 113.449 119.802 113.449H123.117C123.226 113.449 123.313 113.537 123.313 113.645V116.302C123.313 116.41 123.226 116.498 123.117 116.498Z" fill="black"/>
<path d="M123.117 120.423H119.802C119.693 120.423 119.605 120.335 119.605 120.227V117.57C119.605 117.462 119.693 117.374 119.802 117.374H123.117C123.226 117.374 123.313 117.462 123.313 117.57V120.227C123.313 120.335 123.226 120.423 123.117 120.423Z" fill="black"/>
<path d="M123.117 124.349H119.802C119.693 124.349 119.605 124.261 119.605 124.152V121.496C119.605 121.387 119.693 121.299 119.802 121.299H123.117C123.226 121.299 123.313 121.387 123.313 121.496V124.152C123.313 124.261 123.226 124.349 123.117 124.349Z" fill="black"/>
<path d="M123.117 128.274H119.802C119.693 128.274 119.605 128.187 119.605 128.078V125.421C119.605 125.313 119.693 125.225 119.802 125.225H123.117C123.226 125.225 123.313 125.313 123.313 125.421V128.078C123.313 128.187 123.226 128.274 123.117 128.274Z" fill="black"/>
<path d="M128.18 116.498H124.864C124.756 116.498 124.668 116.41 124.668 116.302V113.645C124.668 113.537 124.756 113.449 124.864 113.449H128.18C128.288 113.449 128.376 113.537 128.376 113.645V116.302C128.376 116.41 128.288 116.498 128.18 116.498Z" fill="black"/>
<path d="M128.18 120.423H124.864C124.756 120.423 124.668 120.335 124.668 120.227V117.57C124.668 117.462 124.756 117.374 124.864 117.374H128.18C128.288 117.374 128.376 117.462 128.376 117.57V120.227C128.376 120.335 128.288 120.423 128.18 120.423Z" fill="black"/>
<path d="M128.18 124.349H124.864C124.756 124.349 124.668 124.261 124.668 124.152V121.496C124.668 121.387 124.756 121.299 124.864 121.299H128.18C128.288 121.299 128.376 121.387 128.376 121.496V124.152C128.376 124.261 128.288 124.349 128.18 124.349Z" fill="black"/>
<path d="M128.18 128.274H124.864C124.756 128.274 124.668 128.187 124.668 128.078V125.421C124.668 125.313 124.756 125.225 124.864 125.225H128.18C128.288 125.225 128.376 125.313 128.376 125.421V128.078C128.376 128.187 128.288 128.274 128.18 128.274Z" fill="black"/>
<path d="M133.242 116.498H129.927C129.818 116.498 129.73 116.41 129.73 116.302V113.645C129.73 113.537 129.818 113.449 129.927 113.449H133.242C133.351 113.449 133.438 113.537 133.438 113.645V116.302C133.438 116.41 133.351 116.498 133.242 116.498Z" fill="black"/>
<path d="M133.242 120.423H129.927C129.818 120.423 129.73 120.335 129.73 120.227V117.57C129.73 117.462 129.818 117.374 129.927 117.374H133.242C133.351 117.374 133.438 117.462 133.438 117.57V120.227C133.438 120.335 133.351 120.423 133.242 120.423Z" fill="black"/>
<path d="M133.242 124.349H129.927C129.818 124.349 129.73 124.261 129.73 124.152V121.496C129.73 121.387 129.818 121.299 129.927 121.299H133.242C133.351 121.299 133.438 121.387 133.438 121.496V124.152C133.438 124.261 133.351 124.349 133.242 124.349Z" fill="black"/>
<path d="M133.242 128.274H129.927C129.818 128.274 129.73 128.187 129.73 128.078V125.421C129.73 125.313 129.818 125.225 129.927 125.225H133.242C133.351 125.225 133.438 125.313 133.438 125.421V128.078C133.438 128.187 133.351 128.274 133.242 128.274Z" fill="black"/>
</g>
<path d="M117.984 116.373H114.669C114.561 116.373 114.473 116.285 114.473 116.176V113.519C114.473 113.411 114.561 113.323 114.669 113.323H117.984C118.093 113.323 118.181 113.411 118.181 113.519V116.176C118.181 116.285 118.093 116.373 117.984 116.373Z" fill="#E3E9F7"/>
<path d="M117.984 120.298H114.669C114.561 120.298 114.473 120.21 114.473 120.102V117.445C114.473 117.336 114.561 117.249 114.669 117.249H117.984C118.093 117.249 118.181 117.336 118.181 117.445V120.102C118.181 120.21 118.093 120.298 117.984 120.298Z" fill="#E3E9F7"/>
<path d="M117.984 124.223H114.669C114.561 124.223 114.473 124.135 114.473 124.027V121.37C114.473 121.262 114.561 121.174 114.669 121.174H117.984C118.093 121.174 118.181 121.262 118.181 121.37V124.027C118.181 124.135 118.093 124.223 117.984 124.223Z" fill="#E3E9F7"/>
<path d="M117.984 128.148H114.669C114.561 128.148 114.473 128.061 114.473 127.952V125.295C114.473 125.187 114.561 125.099 114.669 125.099H117.984C118.093 125.099 118.181 125.187 118.181 125.295V127.952C118.181 128.061 118.093 128.148 117.984 128.148Z" fill="#E3E9F7"/>
<path d="M123.047 116.373H119.731C119.623 116.373 119.535 116.285 119.535 116.176V113.519C119.535 113.411 119.623 113.323 119.731 113.323H123.047C123.155 113.323 123.243 113.411 123.243 113.519V116.176C123.243 116.285 123.155 116.373 123.047 116.373Z" fill="#E3E9F7"/>
<path d="M123.047 120.298H119.731C119.623 120.298 119.535 120.21 119.535 120.102V117.445C119.535 117.336 119.623 117.249 119.731 117.249H123.047C123.155 117.249 123.243 117.336 123.243 117.445V120.102C123.243 120.21 123.155 120.298 123.047 120.298Z" fill="#E3E9F7"/>
<path d="M123.047 124.223H119.731C119.623 124.223 119.535 124.135 119.535 124.027V121.37C119.535 121.262 119.623 121.174 119.731 121.174H123.047C123.155 121.174 123.243 121.262 123.243 121.37V124.027C123.243 124.135 123.155 124.223 123.047 124.223Z" fill="#E3E9F7"/>
<path d="M123.047 128.148H119.731C119.623 128.148 119.535 128.061 119.535 127.952V125.295C119.535 125.187 119.623 125.099 119.731 125.099H123.047C123.155 125.099 123.243 125.187 123.243 125.295V127.952C123.243 128.061 123.155 128.148 123.047 128.148Z" fill="#E3E9F7"/>
<path d="M128.109 116.373H124.794C124.686 116.373 124.598 116.285 124.598 116.176V113.519C124.598 113.411 124.686 113.323 124.794 113.323H128.109C128.218 113.323 128.306 113.411 128.306 113.519V116.176C128.306 116.285 128.218 116.373 128.109 116.373Z" fill="#E3E9F7"/>
<path d="M128.109 120.298H124.794C124.686 120.298 124.598 120.21 124.598 120.102V117.445C124.598 117.336 124.686 117.249 124.794 117.249H128.109C128.218 117.249 128.306 117.336 128.306 117.445V120.102C128.306 120.21 128.218 120.298 128.109 120.298Z" fill="#E3E9F7"/>
<path d="M128.109 124.223H124.794C124.686 124.223 124.598 124.135 124.598 124.027V121.37C124.598 121.262 124.686 121.174 124.794 121.174H128.109C128.218 121.174 128.306 121.262 128.306 121.37V124.027C128.306 124.135 128.218 124.223 128.109 124.223Z" fill="#E3E9F7"/>
<path d="M128.109 128.148H124.794C124.686 128.148 124.598 128.061 124.598 127.952V125.295C124.598 125.187 124.686 125.099 124.794 125.099H128.109C128.218 125.099 128.306 125.187 128.306 125.295V127.952C128.306 128.061 128.218 128.148 128.109 128.148Z" fill="#E3E9F7"/>
<path d="M133.172 116.373H129.856C129.748 116.373 129.66 116.285 129.66 116.176V113.519C129.66 113.411 129.748 113.323 129.856 113.323H133.172C133.28 113.323 133.368 113.411 133.368 113.519V116.176C133.368 116.285 133.28 116.373 133.172 116.373Z" fill="#E3E9F7"/>
<path d="M133.172 120.298H129.856C129.748 120.298 129.66 120.21 129.66 120.102V117.445C129.66 117.336 129.748 117.249 129.856 117.249H133.172C133.28 117.249 133.368 117.336 133.368 117.445V120.102C133.368 120.21 133.28 120.298 133.172 120.298Z" fill="#E3E9F7"/>
<path d="M133.172 124.223H129.856C129.748 124.223 129.66 124.135 129.66 124.027V121.37C129.66 121.262 129.748 121.174 129.856 121.174H133.172C133.28 121.174 133.368 121.262 133.368 121.37V124.027C133.368 124.135 133.28 124.223 133.172 124.223Z" fill="#E3E9F7"/>
<path d="M133.172 128.148H129.856C129.748 128.148 129.66 128.061 129.66 127.952V125.295C129.66 125.187 129.748 125.099 129.856 125.099H133.172C133.28 125.099 133.368 125.187 133.368 125.295V127.952C133.368 128.061 133.28 128.148 133.172 128.148Z" fill="#F6471E"/>
<path d="M133.368 104.845H114.473V110.689H133.368V104.845Z" fill="#F4F6FC"/>
<path opacity="0.15" d="M133.368 104.845V110.689H114.473V110.507H133.203V104.845H133.368Z" fill="black"/>
<path d="M130.93 126.508V126.209H132.104V126.508H130.93ZM130.93 127.037V126.738H132.104V127.037H130.93Z" fill="white"/>
<path d="M116.647 123.346H116.373V122.595L116.376 122.472L116.38 122.337C116.335 122.383 116.303 122.413 116.285 122.427L116.136 122.547L116.004 122.382L116.422 122.049H116.647L116.647 123.346Z" fill="#0085F9"/>
<path d="M115.867 118.869C115.867 118.613 115.921 118.421 116.03 118.296C116.139 118.171 116.301 118.108 116.518 118.108C116.592 118.108 116.65 118.112 116.692 118.121V118.34C116.639 118.329 116.587 118.323 116.535 118.323C116.441 118.323 116.365 118.337 116.305 118.365C116.246 118.394 116.201 118.436 116.172 118.491C116.142 118.547 116.125 118.626 116.119 118.728H116.131C116.189 118.628 116.283 118.577 116.412 118.577C116.528 118.577 116.619 118.614 116.685 118.687C116.75 118.759 116.783 118.86 116.783 118.988C116.783 119.127 116.744 119.236 116.666 119.317C116.588 119.398 116.48 119.438 116.341 119.438C116.245 119.438 116.162 119.416 116.09 119.372C116.019 119.327 115.964 119.263 115.925 119.177C115.887 119.092 115.867 118.989 115.867 118.869ZM116.336 119.219C116.394 119.219 116.439 119.199 116.471 119.16C116.502 119.121 116.518 119.065 116.518 118.992C116.518 118.929 116.503 118.879 116.474 118.842C116.444 118.806 116.4 118.788 116.341 118.788C116.286 118.788 116.238 118.806 116.199 118.842C116.159 118.878 116.14 118.92 116.14 118.968C116.14 119.038 116.158 119.098 116.195 119.146C116.232 119.195 116.279 119.219 116.336 119.219Z" fill="#0085F9"/>
<path d="M116.012 115.494L116.499 114.429H115.859V114.199H116.79V114.371L116.3 115.494H116.012Z" fill="#0085F9"/>
<path d="M121.39 114.181C121.514 114.181 121.614 114.209 121.69 114.265C121.766 114.322 121.804 114.398 121.804 114.494C121.804 114.56 121.786 114.619 121.749 114.671C121.713 114.723 121.653 114.769 121.572 114.81C121.669 114.862 121.738 114.916 121.781 114.973C121.823 115.029 121.844 115.091 121.844 115.159C121.844 115.265 121.802 115.351 121.719 115.416C121.636 115.48 121.526 115.513 121.39 115.513C121.248 115.513 121.136 115.483 121.055 115.422C120.974 115.362 120.934 115.276 120.934 115.166C120.934 115.092 120.953 115.026 120.993 114.969C121.032 114.911 121.095 114.861 121.182 114.817C121.108 114.77 121.055 114.72 121.022 114.667C120.99 114.614 120.974 114.555 120.974 114.492C120.974 114.399 121.012 114.324 121.089 114.267C121.166 114.209 121.266 114.181 121.39 114.181ZM121.187 115.15C121.187 115.201 121.205 115.24 121.241 115.269C121.276 115.297 121.325 115.311 121.386 115.311C121.454 115.311 121.505 115.297 121.539 115.267C121.573 115.238 121.59 115.199 121.59 115.152C121.59 115.112 121.573 115.075 121.539 115.04C121.506 115.006 121.452 114.969 121.376 114.93C121.25 114.988 121.187 115.061 121.187 115.15ZM121.388 114.381C121.341 114.381 121.304 114.393 121.275 114.417C121.246 114.441 121.232 114.473 121.232 114.513C121.232 114.549 121.243 114.581 121.266 114.609C121.289 114.637 121.33 114.666 121.39 114.695C121.448 114.668 121.488 114.64 121.511 114.612C121.534 114.584 121.546 114.551 121.546 114.513C121.546 114.473 121.531 114.44 121.502 114.417C121.472 114.393 121.434 114.381 121.388 114.381Z" fill="#0085F9"/>
<path d="M126.912 114.75C126.912 115.006 126.858 115.196 126.75 115.322C126.643 115.448 126.48 115.511 126.262 115.511C126.185 115.511 126.126 115.507 126.087 115.499V115.279C126.136 115.291 126.188 115.298 126.243 115.298C126.335 115.298 126.41 115.284 126.469 115.257C126.528 115.23 126.574 115.188 126.605 115.13C126.636 115.073 126.654 114.993 126.659 114.892H126.648C126.614 114.948 126.574 114.987 126.529 115.009C126.485 115.032 126.428 115.043 126.361 115.043C126.248 115.043 126.159 115.007 126.094 114.934C126.029 114.862 125.996 114.761 125.996 114.632C125.996 114.493 126.036 114.383 126.115 114.302C126.194 114.222 126.301 114.181 126.437 114.181C126.533 114.181 126.617 114.204 126.689 114.249C126.761 114.294 126.816 114.359 126.854 114.444C126.893 114.53 126.912 114.632 126.912 114.75ZM126.443 114.401C126.386 114.401 126.341 114.421 126.309 114.46C126.277 114.499 126.262 114.555 126.262 114.628C126.262 114.691 126.276 114.741 126.305 114.778C126.334 114.814 126.378 114.833 126.437 114.833C126.493 114.833 126.54 114.814 126.58 114.778C126.62 114.742 126.64 114.7 126.64 114.652C126.64 114.582 126.621 114.523 126.584 114.474C126.547 114.426 126.5 114.401 126.443 114.401Z" fill="#0085F9"/>
<path d="M116.782 126.625C116.782 126.851 116.745 127.019 116.671 127.128C116.596 127.237 116.482 127.291 116.328 127.291C116.178 127.291 116.065 127.235 115.989 127.123C115.913 127.01 115.875 126.844 115.875 126.625C115.875 126.396 115.912 126.227 115.986 126.118C116.06 126.01 116.174 125.956 116.328 125.956C116.477 125.956 116.59 126.012 116.667 126.126C116.744 126.24 116.782 126.406 116.782 126.625ZM116.147 126.625C116.147 126.784 116.161 126.898 116.189 126.967C116.216 127.036 116.263 127.07 116.328 127.07C116.392 127.07 116.438 127.035 116.466 126.966C116.494 126.896 116.509 126.782 116.509 126.625C116.509 126.466 116.494 126.351 116.466 126.282C116.437 126.212 116.391 126.178 116.328 126.178C116.263 126.178 116.217 126.212 116.189 126.282C116.161 126.351 116.147 126.466 116.147 126.625Z" fill="#0085F9"/>
<path d="M126.325 126.755H125.867V126.495H126.325V126.033H126.584V126.495H127.042V126.755H126.584V127.212H126.325V126.755Z" fill="#0085F9"/>
<path d="M131.518 118.985L131.144 119.359L130.933 119.148L131.306 118.774L130.93 118.397L131.141 118.186L131.518 118.563L131.891 118.189L132.103 118.4L131.729 118.774L132.101 119.146L131.889 119.357L131.518 118.985Z" fill="#0085F9"/>
<path d="M121.152 126.623C121.152 126.547 121.173 126.489 121.214 126.45C121.255 126.411 121.314 126.391 121.393 126.391C121.468 126.391 121.527 126.411 121.568 126.451C121.609 126.491 121.63 126.549 121.63 126.623C121.63 126.695 121.609 126.752 121.567 126.793C121.526 126.835 121.467 126.855 121.393 126.855C121.316 126.855 121.257 126.835 121.215 126.795C121.173 126.754 121.152 126.697 121.152 126.623Z" fill="#0085F9"/>
<path d="M130.93 114.994V114.7H132.102V114.994H130.93Z" fill="#0085F9"/>
<path d="M131.348 114.426C131.348 114.371 131.362 114.33 131.392 114.302C131.421 114.274 131.463 114.26 131.519 114.26C131.573 114.26 131.615 114.275 131.645 114.303C131.674 114.332 131.689 114.373 131.689 114.426C131.689 114.477 131.674 114.518 131.644 114.547C131.614 114.577 131.573 114.592 131.519 114.592C131.465 114.592 131.422 114.577 131.393 114.548C131.363 114.52 131.348 114.479 131.348 114.426Z" fill="#0085F9"/>
<path d="M131.348 115.267C131.348 115.213 131.362 115.171 131.392 115.144C131.421 115.116 131.463 115.102 131.519 115.102C131.573 115.102 131.615 115.116 131.645 115.144C131.674 115.173 131.689 115.214 131.689 115.267C131.689 115.319 131.674 115.359 131.644 115.389C131.614 115.418 131.573 115.433 131.519 115.433C131.465 115.433 131.422 115.419 131.393 115.39C131.363 115.361 131.348 115.32 131.348 115.267Z" fill="#0085F9"/>
<path d="M121.844 123.356H120.937V123.165L121.263 122.836C121.359 122.737 121.422 122.669 121.452 122.631C121.481 122.592 121.503 122.557 121.516 122.525C121.529 122.492 121.535 122.458 121.535 122.423C121.535 122.371 121.521 122.333 121.492 122.307C121.464 122.282 121.425 122.269 121.377 122.269C121.327 122.269 121.278 122.281 121.231 122.304C121.184 122.327 121.134 122.36 121.083 122.402L120.934 122.226C120.997 122.171 121.05 122.133 121.092 122.11C121.134 122.088 121.18 122.07 121.23 122.058C121.28 122.046 121.335 122.04 121.397 122.04C121.478 122.04 121.55 122.055 121.612 122.084C121.674 122.114 121.722 122.155 121.756 122.209C121.791 122.262 121.808 122.323 121.808 122.391C121.808 122.451 121.797 122.507 121.776 122.56C121.755 122.612 121.723 122.666 121.679 122.721C121.635 122.776 121.557 122.854 121.446 122.956L121.279 123.113V123.125H121.844L121.844 123.356Z" fill="#0085F9"/>
<path d="M126.864 122.34C126.864 122.421 126.839 122.49 126.79 122.546C126.741 122.603 126.672 122.642 126.583 122.664V122.669C126.688 122.682 126.767 122.714 126.821 122.764C126.875 122.815 126.902 122.883 126.902 122.969C126.902 123.094 126.857 123.191 126.766 123.26C126.676 123.33 126.546 123.365 126.378 123.365C126.238 123.365 126.113 123.341 126.004 123.295V123.061C126.054 123.087 126.11 123.107 126.17 123.123C126.23 123.139 126.29 123.147 126.349 123.147C126.44 123.147 126.506 123.132 126.55 123.101C126.593 123.07 126.614 123.021 126.614 122.953C126.614 122.892 126.59 122.849 126.54 122.823C126.49 122.798 126.411 122.785 126.302 122.785H126.204V122.575H126.304C126.404 122.575 126.478 122.562 126.524 122.535C126.571 122.509 126.594 122.464 126.594 122.4C126.594 122.302 126.533 122.253 126.409 122.253C126.367 122.253 126.324 122.26 126.279 122.274C126.235 122.288 126.186 122.313 126.133 122.348L126.006 122.159C126.124 122.073 126.265 122.031 126.429 122.031C126.563 122.031 126.669 122.058 126.747 122.112C126.825 122.167 126.864 122.243 126.864 122.34Z" fill="#0085F9"/>
<path d="M126.943 119.152H126.787V119.421H126.519V119.152H125.965V118.961L126.534 118.124H126.787V118.939H126.943V119.152ZM126.519 118.939V118.719C126.519 118.682 126.52 118.629 126.523 118.559C126.526 118.489 126.528 118.449 126.53 118.438H126.523C126.501 118.486 126.475 118.534 126.444 118.58L126.206 118.939H126.519Z" fill="#0085F9"/>
<path d="M121.413 118.583C121.539 118.583 121.638 118.618 121.713 118.689C121.787 118.759 121.824 118.855 121.824 118.978C121.824 119.123 121.779 119.234 121.69 119.312C121.601 119.391 121.473 119.43 121.307 119.43C121.162 119.43 121.046 119.406 120.957 119.359V119.122C121.004 119.147 121.058 119.168 121.12 119.183C121.182 119.199 121.241 119.207 121.297 119.207C121.464 119.207 121.548 119.138 121.548 119.001C121.548 118.87 121.461 118.805 121.288 118.805C121.257 118.805 121.222 118.808 121.184 118.814C121.146 118.82 121.116 118.827 121.092 118.834L120.983 118.775L121.032 118.114H121.735V118.347H121.272L121.248 118.601L121.279 118.595C121.315 118.587 121.36 118.583 121.413 118.583Z" fill="#0085F9"/>
<path d="M132.104 122.548H130.926V122.847H132.104V122.548Z" fill="#0085F9"/>
<path d="M123.406 107.465C123.57 107.465 123.699 107.505 123.793 107.587C123.888 107.668 123.935 107.78 123.935 107.921C123.935 108.083 123.883 108.209 123.781 108.301C123.678 108.393 123.536 108.439 123.355 108.439C123.18 108.439 123.046 108.411 122.953 108.354V108.184C123.003 108.216 123.065 108.241 123.139 108.259C123.213 108.277 123.286 108.286 123.358 108.286C123.483 108.286 123.58 108.257 123.649 108.198C123.719 108.139 123.753 108.053 123.753 107.942C123.753 107.724 123.62 107.615 123.353 107.615C123.286 107.615 123.195 107.625 123.082 107.646L122.99 107.587L123.049 106.857H123.825V107.021H123.201L123.161 107.489C123.243 107.473 123.324 107.465 123.406 107.465Z" fill="black"/>
<path d="M125.269 108.059H125.038V108.417H124.868V108.059H124.109V107.904L124.85 106.849H125.038V107.898H125.269V108.059ZM124.868 107.898V107.379C124.868 107.277 124.872 107.162 124.879 107.034H124.87C124.836 107.103 124.804 107.159 124.774 107.204L124.286 107.898L124.868 107.898Z" fill="black"/>
<path d="M126.387 107.224C126.387 107.324 126.359 107.405 126.303 107.469C126.248 107.532 126.168 107.574 126.066 107.596V107.604C126.191 107.62 126.284 107.66 126.344 107.724C126.405 107.788 126.435 107.872 126.435 107.976C126.435 108.124 126.384 108.239 126.28 108.319C126.177 108.399 126.031 108.439 125.841 108.439C125.758 108.439 125.683 108.432 125.614 108.42C125.545 108.408 125.479 108.386 125.414 108.354V108.186C125.482 108.219 125.554 108.245 125.63 108.262C125.707 108.28 125.779 108.288 125.847 108.288C126.117 108.288 126.252 108.183 126.252 107.971C126.252 107.782 126.103 107.688 125.806 107.688H125.652V107.535H125.808C125.929 107.535 126.026 107.508 126.097 107.454C126.168 107.401 126.204 107.326 126.204 107.231C126.204 107.155 126.177 107.095 126.125 107.052C126.073 107.008 126.002 106.986 125.912 106.986C125.844 106.986 125.78 106.996 125.719 107.014C125.659 107.033 125.59 107.067 125.512 107.117L125.423 106.997C125.487 106.947 125.56 106.907 125.644 106.878C125.728 106.849 125.816 106.835 125.908 106.835C126.06 106.835 126.177 106.87 126.261 106.939C126.345 107.008 126.387 107.104 126.387 107.224Z" fill="black"/>
<path d="M127.693 108.417H126.668V108.265L127.079 107.852C127.204 107.725 127.286 107.635 127.326 107.581C127.366 107.527 127.396 107.474 127.416 107.423C127.436 107.372 127.446 107.317 127.446 107.257C127.446 107.174 127.421 107.108 127.37 107.06C127.32 107.011 127.249 106.986 127.16 106.986C127.095 106.986 127.034 106.997 126.976 107.019C126.918 107.04 126.853 107.079 126.782 107.135L126.688 107.014C126.832 106.895 126.988 106.835 127.158 106.835C127.304 106.835 127.419 106.872 127.502 106.948C127.586 107.023 127.627 107.123 127.627 107.25C127.627 107.349 127.599 107.447 127.544 107.543C127.488 107.64 127.385 107.763 127.232 107.911L126.891 108.244V108.253H127.693V108.417H127.693Z" fill="black"/>
<path d="M128.574 108.417H128.401V107.306C128.401 107.213 128.404 107.126 128.41 107.043C128.395 107.058 128.378 107.074 128.36 107.09C128.341 107.106 128.256 107.176 128.106 107.298L128.012 107.176L128.425 106.857H128.574V108.417Z" fill="black"/>
<path d="M129.431 108.163L129.447 108.188C129.429 108.259 129.402 108.341 129.367 108.436C129.332 108.53 129.296 108.618 129.258 108.699H129.125C129.144 108.625 129.165 108.533 129.188 108.425C129.212 108.316 129.228 108.229 129.237 108.163L129.431 108.163Z" fill="black"/>
<path d="M130.729 108.417H129.703V108.265L130.114 107.852C130.239 107.725 130.322 107.635 130.361 107.581C130.401 107.527 130.431 107.474 130.451 107.423C130.471 107.372 130.481 107.317 130.481 107.257C130.481 107.174 130.456 107.108 130.405 107.06C130.355 107.011 130.285 106.986 130.195 106.986C130.13 106.986 130.069 106.997 130.011 107.019C129.953 107.04 129.888 107.079 129.817 107.135L129.723 107.014C129.867 106.895 130.024 106.835 130.193 106.835C130.339 106.835 130.454 106.872 130.538 106.948C130.621 107.023 130.662 107.123 130.662 107.25C130.662 107.349 130.635 107.447 130.579 107.543C130.524 107.64 130.42 107.763 130.268 107.911L129.926 108.244V108.253H130.729V108.417Z" fill="black"/>
<path d="M131.437 107.465C131.601 107.465 131.73 107.505 131.825 107.587C131.919 107.668 131.966 107.78 131.966 107.921C131.966 108.083 131.915 108.209 131.812 108.301C131.709 108.393 131.567 108.439 131.387 108.439C131.211 108.439 131.077 108.411 130.984 108.354V108.184C131.034 108.216 131.096 108.241 131.17 108.259C131.244 108.277 131.317 108.286 131.389 108.286C131.514 108.286 131.611 108.257 131.681 108.198C131.75 108.139 131.785 108.053 131.785 107.942C131.785 107.724 131.651 107.615 131.384 107.615C131.317 107.615 131.227 107.625 131.113 107.646L131.022 107.587L131.08 106.857H131.856V107.021H131.232L131.192 107.489C131.274 107.473 131.356 107.465 131.437 107.465Z" fill="black"/>
<path d="M111.885 129.54C113.859 127.566 113.859 124.366 111.885 122.393C109.912 120.419 106.712 120.419 104.738 122.393C102.764 124.366 102.764 127.566 104.738 129.54C106.712 131.514 109.912 131.514 111.885 129.54Z" fill="#FDC538"/>
<path d="M108.315 130.489C110.813 130.489 112.837 128.464 112.837 125.966C112.837 123.469 110.813 121.444 108.315 121.444C105.818 121.444 103.793 123.469 103.793 125.966C103.793 128.464 105.818 130.489 108.315 130.489Z" fill="#FDB606"/>
<path opacity="0.5" d="M104.336 126.337C104.248 125.78 104.296 125.196 104.473 124.651C104.56 124.378 104.682 124.116 104.827 123.868C104.974 123.621 105.15 123.391 105.347 123.182C105.546 122.974 105.765 122.786 106.003 122.624C106.241 122.464 106.494 122.325 106.76 122.22C107.291 122.006 107.868 121.91 108.431 121.948C107.868 121.984 107.319 122.117 106.815 122.347C106.564 122.464 106.322 122.6 106.099 122.762C105.874 122.921 105.664 123.102 105.476 123.303C105.427 123.352 105.383 123.405 105.337 123.456C105.292 123.508 105.249 123.563 105.206 123.616C105.165 123.671 105.123 123.726 105.084 123.783C105.046 123.84 105.007 123.897 104.97 123.955C104.822 124.188 104.702 124.438 104.603 124.696C104.408 125.214 104.322 125.774 104.336 126.337Z" fill="white"/>
<path d="M108.239 128.249V127.622C107.87 127.616 107.488 127.504 107.266 127.348L107.418 126.932C107.647 127.081 107.978 127.199 108.334 127.199C108.786 127.199 109.091 126.944 109.091 126.59C109.091 126.248 108.843 126.037 108.372 125.851C107.724 125.602 107.323 125.316 107.323 124.776C107.323 124.26 107.698 123.868 108.283 123.775V123.147H108.678V123.75C109.059 123.763 109.32 123.862 109.504 123.968L109.345 124.378C109.212 124.303 108.951 124.167 108.544 124.167C108.054 124.167 107.87 124.452 107.87 124.701C107.87 125.024 108.105 125.186 108.658 125.409C109.314 125.67 109.644 125.994 109.644 126.547C109.644 127.038 109.294 127.497 108.639 127.603V128.249H108.239Z" fill="white"/>
<path opacity="0.1" d="M117.815 129.541C119.789 127.567 119.789 124.367 117.815 122.393C115.841 120.419 112.641 120.419 110.668 122.393C108.694 124.367 108.694 127.567 110.668 129.541C112.641 131.514 115.841 131.514 117.815 129.541Z" fill="black"/>
<path d="M118.639 129.54C120.613 127.566 120.613 124.366 118.639 122.393C116.666 120.419 113.465 120.419 111.492 122.393C109.518 124.366 109.518 127.566 111.492 129.54C113.465 131.514 116.665 131.514 118.639 129.54Z" fill="#FDC538"/>
<path d="M118.261 129.164C120.027 127.398 120.027 124.535 118.261 122.769C116.495 121.003 113.632 121.003 111.866 122.769C110.1 124.535 110.1 127.398 111.866 129.164C113.632 130.93 116.495 130.93 118.261 129.164Z" fill="#FDB606"/>
<path opacity="0.5" d="M111.09 126.337C111.002 125.78 111.05 125.196 111.227 124.651C111.314 124.378 111.436 124.116 111.581 123.868C111.728 123.621 111.904 123.391 112.101 123.182C112.3 122.974 112.519 122.786 112.756 122.624C112.995 122.464 113.248 122.325 113.514 122.22C114.045 122.006 114.622 121.91 115.185 121.948C114.622 121.984 114.073 122.117 113.569 122.347C113.318 122.464 113.076 122.6 112.852 122.762C112.628 122.921 112.418 123.102 112.23 123.303C112.181 123.352 112.137 123.405 112.091 123.456C112.046 123.508 112.003 123.563 111.96 123.616C111.919 123.671 111.877 123.726 111.838 123.783C111.8 123.84 111.76 123.897 111.724 123.955C111.576 124.188 111.456 124.438 111.357 124.696C111.162 125.214 111.075 125.774 111.09 126.337Z" fill="white"/>
<path d="M114.993 128.249V127.622C114.624 127.616 114.242 127.504 114.02 127.348L114.172 126.932C114.401 127.081 114.732 127.199 115.088 127.199C115.54 127.199 115.845 126.944 115.845 126.59C115.845 126.248 115.597 126.037 115.126 125.851C114.477 125.602 114.077 125.316 114.077 124.776C114.077 124.26 114.452 123.868 115.037 123.775V123.147H115.431V123.75C115.813 123.763 116.074 123.862 116.258 123.968L116.099 124.378C115.966 124.303 115.705 124.167 115.298 124.167C114.808 124.167 114.624 124.452 114.624 124.701C114.624 125.024 114.859 125.186 115.412 125.409C116.067 125.67 116.398 125.994 116.398 126.547C116.398 127.038 116.048 127.497 115.393 127.603V128.249H114.993Z" fill="white"/>
<path d="M44.5448 131.02C45.0097 131.02 45.3866 130.529 45.3866 129.924C45.3866 129.318 45.0097 128.828 44.5448 128.828C44.08 128.828 43.7031 129.318 43.7031 129.924C43.7031 130.529 44.08 131.02 44.5448 131.02Z" fill="#0085F9"/>
<path d="M48.2558 131.02C48.7207 131.02 49.0975 130.529 49.0975 129.924C49.0975 129.318 48.7207 128.828 48.2558 128.828C47.7909 128.828 47.4141 129.318 47.4141 129.924C47.4141 130.529 47.7909 131.02 48.2558 131.02Z" fill="#0085F9"/>
<path d="M55.1659 131.02C55.6308 131.02 56.0077 130.529 56.0077 129.924C56.0077 129.318 55.6308 128.828 55.1659 128.828C54.7011 128.828 54.3242 129.318 54.3242 129.924C54.3242 130.529 54.7011 131.02 55.1659 131.02Z" fill="#0085F9"/>
<path d="M58.8769 131.02C59.3417 131.02 59.7186 130.529 59.7186 129.924C59.7186 129.318 59.3417 128.828 58.8769 128.828C58.412 128.828 58.0352 129.318 58.0352 129.924C58.0352 130.529 58.412 131.02 58.8769 131.02Z" fill="#0085F9"/>
<path d="M59.7159 129.686L59.7374 125.473L52.5719 122.388V121.178L50.6726 120.982V122.583L43.6797 125.317V129.925H44.284L44.2408 126.41L50.6726 125.473V126.605L52.3992 126.527V125.473L58.8741 126.332V129.925L59.7159 129.686Z" fill="#0085F9"/>
<path d="M51.3226 121.802L47.3945 125.668V129.924H48.2578V126.761L51.3226 125.473L55.1644 126.644V129.924H55.9846V125.863L51.7111 121.802H51.3226Z" fill="#0085F9"/>
<path d="M52.367 111.569H50.8359V122.585H52.367V111.569Z" fill="#0085F9"/>
<path d="M53.7186 109.701H49.4883V112.325H53.7186V109.701Z" fill="#0085F9"/>
<path d="M56.958 110.336H47.7098C46.7353 110.336 45.9453 109.546 45.9453 108.572V107.394H58.7225V108.572C58.7225 109.546 57.9325 110.336 56.958 110.336Z" fill="#0085F9"/>
<path d="M48.3867 95.8804V97.6302H54.8616C54.8616 97.6302 57.5379 96.9144 57.8401 106.618H59.0487C59.0487 106.618 59.5236 95.9202 54.7753 95.8804L48.3867 95.8804Z" fill="#6275BA"/>
<path d="M40.0547 77.3882H48.2131C48.2131 77.3882 49.0332 77.3086 48.99 79.1778L50.1987 97.9488C50.1987 97.9488 50.544 104.113 55.1196 104.352H59.9974C59.9974 104.352 62.2852 105.266 60.9039 107.374L60.3427 107.851L51.0189 108.249L42.2993 102.84L40.0547 77.3882Z" fill="#6275BA"/>
<path d="M41.7376 78.5416C41.7376 78.5416 40.529 75.9168 39.3203 78.5416L40.788 100.136C40.788 100.136 40.9261 106.647 46.0154 108.005L50.932 108.249C50.932 108.249 54.2126 106.698 50.932 104.352L47.2629 104.59C47.2629 104.59 42.8599 103.636 42.9894 98.3067L41.7376 78.5416Z" fill="#0085F9"/>
<path d="M59.3516 124.773L60.1707 126.085L61.7966 128.137L63.0353 128.756L64.3128 127.672C64.2087 127.631 64.0875 127.427 63.9582 127.122C63.7449 126.618 63.5107 125.837 63.2982 125.043C62.8236 123.271 62.7497 121.416 63.0833 119.612L65.4354 106.884L65.9755 104.578C66.2557 103.382 65.7606 102.138 64.7348 101.461L62.2224 100.497L59.3578 101.503L59.542 101.872L61.6804 106.148L59.8997 121.749C59.8749 122.993 59.6984 123.625 59.5753 123.918C59.5072 124.08 59.4553 124.138 59.4553 124.138L59.3516 124.773Z" fill="#DB965F"/>
<path d="M59.1602 126.018L59.1018 128.208L59.5121 128.346L59.5152 126.375C59.5152 126.375 60.0084 126.129 60.8 127.472C60.8 127.472 61.4542 129.115 62.4394 129.336C62.4394 129.336 62.9012 129.454 63.576 129.496C64.2457 129.537 65.1248 129.503 65.9707 129.205C65.9707 129.205 66.6826 129.042 65.5615 128.356C65.5615 128.356 64.2817 127.609 63.9577 127.122C63.9429 127.1 63.9302 127.078 63.9197 127.058C63.9267 127.091 64.1187 128.026 63.0437 128.078C63.0437 128.078 62.4738 128.29 61.3938 127.136C61.1344 126.86 60.8457 126.504 60.5286 126.048C60.5286 126.048 59.3591 124.788 59.5906 123.912C59.5906 123.912 59.5852 123.914 59.5748 123.918C59.4192 123.982 58.1863 124.552 59.1602 126.018Z" fill="#040C2B"/>
<path opacity="0.15" d="M59.1602 126.018L59.1018 128.208L59.5121 128.345L59.5152 126.375C59.5152 126.375 60.0084 126.129 60.8 127.471C60.8 127.471 61.4542 129.115 62.4394 129.336C62.4394 129.336 62.9012 129.454 63.576 129.496C62.8474 128.997 62.2544 128.462 62.2544 128.462C62.165 128.402 62.0802 128.327 61.9997 128.238C61.7597 127.974 61.5599 127.589 61.3938 127.136C60.9924 126.043 60.7869 124.551 60.6824 123.394C60.5878 122.347 60.6301 121.293 60.8029 120.256L62.4735 110.232C64.1381 102.645 62.4735 102.993 62.4735 102.993L59.5415 101.872L61.6799 106.148L59.8992 121.749C59.8744 122.993 59.6979 123.625 59.5748 123.918C59.4192 123.982 58.1863 124.552 59.1602 126.018Z" fill="black"/>
<path d="M56.8422 123.26C56.8034 125.195 56.3977 125.649 56.3977 125.649L56.2939 126.284L57.1131 127.595L58.739 129.647L59.9778 130.266L61.2553 129.182C60.8647 129.026 60.2288 126.593 59.8544 125.016C59.6512 124.161 59.6191 123.274 59.7607 122.407L62.3392 106.614C62.6792 105.302 62.3645 103.907 61.4942 102.868L60.481 101.659L55.3711 104.678L57.2616 105.873C58.1561 106.439 58.6225 107.487 58.4438 108.53L57.5379 113.817C57.4483 114.344 57.3861 114.875 57.3515 115.408L56.8422 123.26Z" fill="#DB965F"/>
<path d="M56.1015 127.528L56.0471 129.568C56.0447 129.657 56.1011 129.737 56.1859 129.766C56.3175 129.81 56.4537 129.712 56.454 129.573L56.4955 127.807C56.4955 127.807 56.9499 127.639 57.7415 128.982C57.7415 128.982 58.3957 130.625 59.3808 130.846C59.3808 130.846 61.214 131.314 62.9121 130.715C62.9121 130.715 63.6241 130.552 62.503 129.866C62.503 129.866 61.1048 129.05 60.861 128.567C60.861 128.567 61.0801 129.535 59.9851 129.588C59.9851 129.588 59.1086 129.915 57.4701 127.558C57.4701 127.558 56.3006 126.298 56.532 125.422C56.532 125.422 55.0639 125.966 56.1015 127.528Z" fill="#040C2B"/>
<path d="M46.1251 102.986C47.6101 104.963 55.0632 106.116 57.6375 106.46C57.7254 106.472 57.809 106.497 57.886 106.533L59.731 105.53L63.2115 103.636L65.8203 102.365C65.4661 101.751 64.9504 101.236 64.309 100.898L54.9525 96.1136L53.267 96.0548L52.1428 96.0161L47.6782 95.8608C47.5489 96.1783 47.4552 96.4953 47.3917 96.8081L45.1379 96.7299C43.8478 99.8989 46.1251 102.986 46.1251 102.986Z" fill="#040C2B"/>
<path d="M52.2617 84.5035C53.1118 85.8743 55.1356 87.5598 56.7461 88.7734C58.0015 89.7195 59.0052 90.3787 59.0052 90.3787L60.7654 87.3763L55.7283 81.237C55.4446 81.0412 55.1837 80.9037 54.9444 80.8162C52.4201 79.8922 52.2617 84.5035 52.2617 84.5035Z" fill="white"/>
<path opacity="0.1" d="M52.2617 84.5037C53.1118 85.8745 55.1356 87.56 56.7461 88.7736C56.5986 84.5877 55.9958 82.3854 55.3315 81.1412C52.8072 80.2172 52.2617 84.5037 52.2617 84.5037Z" fill="black"/>
<path d="M62.5862 89.6236L67.5687 86.4571C67.5687 86.4571 71.5844 85.9093 71.9763 83.3163C71.9763 83.3163 72.559 81.025 69.016 82.4066L68.4242 82.7512L68.831 82.1086C68.9981 81.8447 68.9218 81.4955 68.6599 81.3252C68.6599 81.3252 66.7877 82.9367 66.3926 84.3542C66.3926 84.3542 65.9346 85.1855 64.7451 85.6298L61.2734 87.4383L62.5862 89.6236Z" fill="#DB965F"/>
<path d="M58.427 88.808C58.427 88.808 58.2797 91.3953 61.1995 90.5919L63.3265 89.389L64.6796 88.6239C64.6796 88.6239 63.7307 86.8603 63.9899 85.8735C63.9899 85.8735 63.3531 86.1231 62.4704 86.5249C61.2488 87.0805 59.5563 87.9275 58.427 88.808Z" fill="white"/>
<path d="M48.2646 68.3853C48.2646 68.3853 51.8647 68.3465 52.2905 73.1468C52.2905 73.1468 52.3876 75.8314 52.759 76.7067C52.8729 76.9749 52.8934 77.2767 52.793 77.5502C52.7224 77.7428 52.5941 77.9233 52.3636 78.0023C52.1227 78.0848 51.9291 78.2727 51.8695 78.5203C51.7759 78.9097 51.8498 79.5121 52.6776 80.231C52.6776 80.231 53.8389 81.3536 52.9486 81.9343L43.2707 82.244L42.032 80.7729L41.6836 80.1923C41.6836 80.1923 42.8477 80.1735 43.489 79.7567C43.847 79.5241 43.9237 79.0289 43.6648 78.6895C43.367 78.2992 42.9342 77.5525 43.4256 76.9792C43.4256 76.9792 43.9288 76.0114 43.8127 74.5791C43.8127 74.5791 43.5418 68.6949 48.2646 68.3853Z" fill="#131A3F"/>
<path d="M45.3789 79.4761L46.6177 82.3794L51.6889 82.1859L50.7211 80.1342C50.7211 80.1342 50.3142 79.7614 49.9887 78.9202C49.8222 78.4901 49.6766 77.9377 49.6178 77.2502L46.3854 74.0952C46.3854 74.0952 46.4311 75.7331 46.1899 77.2529C46.0455 78.161 45.7989 79.027 45.3789 79.4761Z" fill="#C9885B"/>
<path opacity="0.15" d="M46.1914 77.2529C46.1944 77.2574 46.1974 77.2618 46.2004 77.2663C46.5889 77.8476 47.1254 78.3168 47.7568 78.6171C48.6293 79.032 49.3678 79.0893 49.9902 78.9202C49.8237 78.4901 49.6781 77.9377 49.6193 77.2502L46.3869 74.0952C46.3869 74.0952 46.4326 75.7331 46.1914 77.2529Z" fill="black"/>
<path d="M50.3946 69.8949C50.3946 69.8949 53.4141 75.9725 49.5043 78.3726C49.5043 78.3726 46.1364 78.8759 45.6719 73.7272C45.6719 73.7272 46.4461 67.4173 50.3946 69.8949Z" fill="#DB965F"/>
<path d="M50.7795 71.2884C50.7795 71.2884 49.6567 69.5192 47.9215 71.7541C47.7022 72.0366 47.5522 72.3664 47.4745 72.7155C47.1799 74.0403 46.1323 77.7599 43.6953 77.5209L46.1728 69.9335L48.5729 68.8496L50.7602 69.798L52.2893 76.0499L51.6699 77.7919C51.6698 77.792 51.3989 71.5981 50.7795 71.2884Z" fill="#131A3F"/>
<path d="M41.6445 80.8683L41.7545 81.2515L43.8275 88.4669L43.8897 88.6828C44.0365 89.2289 44.1562 89.775 44.2534 90.3114C44.2953 90.5424 44.3327 90.7714 44.3663 90.9981C44.4927 91.85 44.5647 92.6684 44.6021 93.4168C44.6571 94.5304 44.6347 95.4889 44.5982 96.1731C44.5671 96.762 45.0996 97.2448 45.7386 97.2045L55.1501 96.6069C55.7749 96.567 56.2291 96.0428 56.1319 95.4719C55.9058 94.1506 55.543 91.9561 55.4642 91.038C55.4642 91.038 55.5031 89.1463 55.7351 86.8272C55.7351 86.8272 56.4319 80.5829 54.4965 80.5474L51.7631 80.2926L51.6814 80.2848L51.642 80.2814L51.0512 80.2259L50.1652 79.2432L50.1219 79.1557C50.1214 79.1678 50.1204 79.18 50.1194 79.1921L50.1029 79.1741C50.1039 79.1776 50.1088 79.1965 50.1165 79.2286C50.0596 79.7805 49.6648 80.243 49.4352 80.4696C49.4216 80.4827 49.4085 80.4954 49.3964 80.507L49.3949 80.5085C49.3784 80.5236 49.3638 80.5377 49.3502 80.5498C49.3458 80.5537 49.3419 80.5571 49.338 80.561C49.3317 80.5663 49.3258 80.5717 49.3205 80.5761C49.3127 80.5834 49.3059 80.5892 49.2996 80.5945C49.2928 80.6004 49.2869 80.6053 49.2821 80.6091C49.2777 80.6126 49.2748 80.615 49.2729 80.6164C49.2714 80.6179 49.2704 80.6184 49.2704 80.6184C49.2656 80.6164 49.2602 80.6141 49.2549 80.6121C49.2209 80.599 49.1868 80.5848 49.1523 80.5703C49.109 80.5518 49.0652 80.5323 49.0215 80.5129C49.0117 80.5081 49.002 80.5037 48.9918 80.4993C48.9811 80.4944 48.9704 80.4901 48.9602 80.4847C48.9485 80.4794 48.9358 80.4735 48.9242 80.4677C48.9208 80.4662 48.9183 80.4652 48.915 80.4638C48.913 80.4628 48.9115 80.4618 48.9096 80.4609C48.9038 80.4585 48.8984 80.4556 48.8926 80.4526C47.3861 79.7324 45.7284 78.6641 45.7284 78.6641L44.7587 79.9829L44.7086 80.0407L44.7028 80.0476C44.0351 80.1575 43.4885 80.2776 43.0523 80.3909C42.071 80.646 41.6445 80.8683 41.6445 80.8683Z" fill="white"/>
<path opacity="0.1" d="M41.7539 81.2515L43.8269 88.4669L43.8892 88.6828C44.036 89.2289 44.1557 89.775 44.2529 90.3114C44.2738 90.4271 44.2937 90.5419 44.3122 90.6562C44.32 90.7038 44.3278 90.7515 44.3356 90.7992C44.3458 90.8658 44.356 90.9319 44.3657 90.998C44.3798 90.7768 44.3891 90.5473 44.393 90.3109C44.4528 87.0378 43.6037 82.4473 42.5149 81.3351C42.0865 81.4465 41.8663 81.3711 41.7539 81.2515Z" fill="black"/>
<path opacity="0.15" d="M41.7039 81.1835L41.6443 80.8677C41.6443 80.8677 41.6184 81.0376 41.7039 81.1835Z" fill="black"/>
<path opacity="0.15" d="M45.7422 80.601L45.7457 80.7307L47.9182 82.5927L48.8453 80.8484L48.8581 80.8243L48.9812 80.5932L49.0242 80.5123C49.0141 80.5077 49.0044 80.5034 48.9943 80.4988C48.9839 80.4942 48.973 80.4895 48.9626 80.4845C48.951 80.479 48.9386 80.4732 48.9266 80.4674C48.9235 80.4659 48.9208 80.4647 48.9177 80.4632C48.9158 80.4624 48.9142 80.4616 48.9123 80.4604L48.7892 80.654L47.802 82.2055L45.7422 80.601Z" fill="black"/>
<path opacity="0.15" d="M49.3398 80.5609L49.3979 80.6504L49.4521 80.7344L49.4808 80.7781L49.5485 80.8826L50.7822 82.7865L51.1674 81.149L51.1144 81.0321L50.7435 82.3219L49.5566 80.7232L49.4804 80.6206L49.3995 80.5122L49.3967 80.5083C49.3805 80.5234 49.3658 80.5373 49.3522 80.5497C49.348 80.5536 49.3437 80.557 49.3398 80.5609Z" fill="black"/>
<path d="M52.4453 92.232C52.4453 92.2308 52.4453 92.2297 52.4457 92.2285L52.4453 92.232Z" fill="#131A3F"/>
<path d="M52.4453 92.232C52.4453 92.2308 52.4453 92.2297 52.4457 92.2285" stroke="#131A3F" stroke-width="0.0355031" stroke-miterlimit="10"/>
<path d="M38.7691 90.0589L38.346 91.6339C37.998 92.9294 39.0193 94.186 40.3586 94.1102L41.7429 94.0318L41.8267 91.9632L42.6735 88.5251L43.3301 85.9798C44.0151 81.0236 42.1859 80.7789 42.1859 80.7789C41.1065 80.2667 40.4057 83.7151 40.4057 83.7151L38.7691 90.0589Z" fill="white"/>
<path d="M62.965 80.2408L62.9653 80.2388C62.9653 80.2388 62.9645 80.2385 62.965 80.2408Z" fill="#9AAAF7" stroke="#131A3F" stroke-width="0.0355031" stroke-miterlimit="10"/>
<path opacity="0.1" d="M44.3672 90.9977C44.4936 91.8496 44.6094 93.3625 44.6468 94.1109L48.557 93.0259L49.9721 92.8859C49.9555 92.846 49.9404 92.8023 49.9259 92.7556C49.923 92.7448 49.92 92.7342 49.9167 92.723L50.2313 93.235C50.4311 93.22 50.6145 93.1266 50.754 92.9827C51.5943 92.1171 53.4485 92.8951 53.4485 92.8951C55.6407 92.935 53.7758 90.4983 53.7758 90.4983C52.1093 89.0564 50.2838 90.5658 50.2838 90.5658C50.1466 90.6125 49.9803 90.6519 49.796 90.685C49.7999 90.6101 49.8023 90.5668 49.8023 90.5668L48.4602 90.4389L44.6244 90.3101L44.3944 90.3105C44.3905 90.5469 44.3813 90.7764 44.3672 90.9977Z" fill="black"/>
<path d="M50.7538 92.7963C50.6141 92.9402 50.4308 93.0339 50.2307 93.0487L47.8481 93.2246L47.4526 93.2536L47.1914 91.1405C47.1914 91.1405 47.4012 91.1556 47.7174 91.1672C48.4266 91.1931 49.6618 91.1262 50.2832 90.9144C50.2832 90.9144 52.1087 89.4052 53.7752 90.8468C53.7752 90.8468 55.7012 93.1924 53.5087 93.1523C53.5087 93.1523 51.5942 91.9307 50.7538 92.7963Z" fill="#DB965F"/>
<path d="M49.9713 93.2347C49.9547 93.1946 49.9395 93.1509 49.9252 93.1043C49.7461 92.5074 49.7773 91.4219 49.7945 91.0469C49.7986 90.9637 49.8016 90.9154 49.8016 90.9154L48.4592 90.7876L44.6234 90.6587L41.035 90.6666L40.707 94.1113L43.69 93.8551L48.5563 93.3746L49.9713 93.2347Z" fill="white"/>
<path d="M49.2812 80.7666L49.6769 85.4093L49.9107 84.4318L50.3752 84.6253L49.4516 80.7345L49.3974 80.6505L49.3393 80.561C49.3331 80.5665 49.3273 80.5715 49.3219 80.5761C49.3141 80.5831 49.3071 80.5889 49.3009 80.5943C49.294 80.6002 49.2882 80.6052 49.2835 80.6091L49.2812 80.7666Z" fill="#040C2B"/>
<path d="M47.8203 85.2836L48.4397 84.8965L48.9042 85.5546L49.2124 80.5938L49.0765 80.8489L47.8203 85.2836Z" fill="#040C2B"/>
<path d="M49.1956 81.5677C49.6553 81.5677 50.0279 81.273 50.0279 80.9096C50.0279 80.5461 49.6553 80.2515 49.1956 80.2515C48.7359 80.2515 48.3633 80.5461 48.3633 80.9096C48.3633 81.273 48.7359 81.5677 49.1956 81.5677Z" fill="#040C2B"/>
<path d="M40.0547 96.7557C40.0547 97.2389 40.4798 97.6307 41.0043 97.6307H46.5296C46.5296 97.6307 49.2059 96.9148 49.508 106.618H50.7167C50.7167 106.618 51.1915 95.9206 46.4433 95.8809H41.0043C40.4799 95.8808 40.0547 96.2726 40.0547 96.7557Z" fill="#0085F9"/>
<path opacity="0.1" d="M30.9297 130.056C30.9297 130.348 31.0459 130.61 31.2292 130.787L31.6596 129.102C31.2463 129.173 30.9297 129.573 30.9297 130.056Z" fill="black"/>
<path d="M34.1074 97.2493H89.0193C89.4259 97.2493 89.7555 96.6505 89.7555 95.912C89.7555 95.1734 89.4259 94.5747 89.0193 94.5747H34.1074C33.7008 94.5747 33.3711 95.1734 33.3711 95.912C33.3711 96.6505 33.7008 97.2493 34.1074 97.2493Z" fill="#407BFF"/>
<path d="M79.8913 131.007C80.2555 130.935 80.4878 130.612 80.413 130.282L72.7301 96.4224C72.6538 96.0859 72.2871 95.8709 71.9154 95.9447L70.8326 96.1596C70.461 96.2334 70.2281 96.5673 70.3151 96.9017L79.0808 130.547C79.1662 130.874 79.5272 131.079 79.8913 131.007Z" fill="#407BFF"/>
<path d="M40.8756 131.007C40.5114 130.935 40.279 130.612 40.3538 130.282L48.0367 96.4224C48.1131 96.0859 48.4798 95.8709 48.8515 95.9447L49.9342 96.1596C50.3059 96.2334 50.5388 96.5673 50.4517 96.9017L41.686 130.547C41.6007 130.874 41.2397 131.079 40.8756 131.007Z" fill="#407BFF"/>
<path d="M90.5398 131.007C90.9039 130.935 91.1363 130.612 91.0615 130.282L83.3785 96.4224C83.3022 96.0859 82.9355 95.8709 82.5639 95.9447L81.4811 96.1596C81.1094 96.2334 80.8765 96.5673 80.9636 96.9017L89.7292 130.547C89.8146 130.874 90.1756 131.079 90.5398 131.007Z" fill="#407BFF"/>
<path d="M30.2271 131.007C29.863 130.935 29.6306 130.612 29.7054 130.282L37.3883 96.4224C37.4647 96.0859 37.8313 95.8709 38.203 95.9447L39.2858 96.1596C39.6575 96.2334 39.8904 96.5673 39.8033 96.9017L31.0376 130.547C30.9523 130.874 30.5913 131.079 30.2271 131.007Z" fill="#407BFF"/>
<path d="M83.4841 94.5505H72.538C71.8008 94.5505 71.2031 94.213 71.2031 93.7967C71.2031 93.3804 71.8008 93.043 72.538 93.043H83.4841C84.2214 93.043 84.819 93.3804 84.819 93.7967C84.819 94.213 84.2214 94.5505 83.4841 94.5505Z" fill="#0B2581"/>
<path d="M71.7265 94.5505H64.0251C63.5064 94.5505 63.0859 94.213 63.0859 93.7967C63.0859 93.3804 63.5064 93.043 64.0251 93.043H71.7265C72.2452 93.043 72.6657 93.3804 72.6657 93.7967C72.6657 94.213 72.2452 94.5505 71.7265 94.5505Z" fill="#0F31AC"/>
<path d="M72.199 92.7599L76.8384 82.8216C76.9327 82.6198 77.1353 82.4907 77.3581 82.4907H88.9709C89.3925 82.4907 89.67 82.9303 89.4886 83.3109L84.822 93.578L72.7067 93.5759C72.2924 93.5673 72.0237 93.1355 72.199 92.7599Z" fill="#0F31AC"/>
<path d="M67.3409 91.6405H56.3086L61.981 79.1704H73.0134L67.3409 91.6405Z" fill="#407BFF"/>
<path d="M71.687 82.0894C71.687 82.0894 67.2169 83.4474 70.0144 85.7882C70.0144 85.7882 72.6519 82.9256 71.687 82.0894Z" fill="#DB965F"/>
<path d="M52.0307 93.1538H51.2266V93.6684H52.0307V93.1538Z" fill="#F6471E"/>
<path d="M53.058 93.1538H52.2539V93.6684H53.058V93.1538Z" fill="#F6471E"/>
<path d="M54.0892 93.1538H53.2852V93.6684H54.0892V93.1538Z" fill="#F6471E"/>
<path d="M55.1205 93.1538H54.3164V93.6684H55.1205V93.1538Z" fill="#F6471E"/>
<path d="M56.1478 93.1538H55.3438V93.6684H56.1478V93.1538Z" fill="#F6471E"/>
<path d="M57.4346 94.5693H50.9695C50.6498 94.5693 50.3906 94.3101 50.3906 93.9905C50.3906 93.6708 50.6498 93.4116 50.9695 93.4116H57.4346V94.5693Z" fill="#F6471E"/>
<path d="M57.4292 94.5672L55.8555 93.7145L58.1312 92.4747C58.2446 92.4129 58.3817 92.4127 58.4953 92.4743L59.2697 92.8939C59.5356 93.0379 59.5361 93.4193 59.2705 93.564L57.4292 94.5672Z" fill="#F6471E"/>
<path d="M100.133 29.0371H60.5977V54.9677H100.133V29.0371Z" fill="#E3E9F7"/>
<path d="M100.132 24.2349H60.6172V29.0479H100.132V24.2349Z" fill="#407BFF"/>
<path d="M63.0521 27.1877C63.4994 27.1877 63.862 26.8429 63.862 26.4176C63.862 25.9922 63.4994 25.6475 63.0521 25.6475C62.6048 25.6475 62.2422 25.9922 62.2422 26.4176C62.2422 26.8429 62.6048 27.1877 63.0521 27.1877Z" fill="#E3E9F7"/>
<path d="M65.4154 27.1877C65.8627 27.1877 66.2253 26.8429 66.2253 26.4176C66.2253 25.9922 65.8627 25.6475 65.4154 25.6475C64.9681 25.6475 64.6055 25.9922 64.6055 26.4176C64.6055 26.8429 64.9681 27.1877 65.4154 27.1877Z" fill="#E3E9F7"/>
<path d="M67.7747 27.1877C68.222 27.1877 68.5846 26.8429 68.5846 26.4176C68.5846 25.9922 68.222 25.6475 67.7747 25.6475C67.3274 25.6475 66.9648 25.9922 66.9648 26.4176C66.9648 26.8429 67.3274 27.1877 67.7747 27.1877Z" fill="#E3E9F7"/>
<path d="M96.4861 30.2363H64.2266V53.7701H96.4861V30.2363Z" fill="white"/>
<path d="M90.2728 31.4287H67.4739H64.2266V35.029H67.4739H90.2728H96.4969V31.4287H90.2728Z" fill="#F4F6FC"/>
<path d="M88.0977 33.8142V32.6445H88.3457V33.8142H88.0977Z" fill="#407BFF"/>
<path d="M89.6784 33.8142H89.3631L88.8543 32.9294H88.847C88.8572 33.0857 88.8622 33.1971 88.8622 33.2638V33.8142H88.6406V32.6445H88.9534L89.4615 33.5206H89.4671C89.4591 33.3686 89.4551 33.2612 89.4551 33.1982V32.6446H89.6783V33.8142H89.6784Z" fill="#407BFF"/>
<path d="M90.6387 32.6445H90.8891L90.4915 33.8142H90.221L89.8242 32.6445H90.0746L90.2947 33.3406C90.3069 33.3817 90.3196 33.4295 90.3327 33.4842C90.3457 33.5389 90.3538 33.5769 90.3571 33.5982C90.3629 33.5492 90.3829 33.4633 90.4171 33.3406L90.6387 32.6445Z" fill="#407BFF"/>
<path d="M92.0981 33.2277C92.0981 33.4213 92.0501 33.5701 91.9541 33.6741C91.858 33.7781 91.7205 33.8301 91.5412 33.8301C91.362 33.8301 91.2244 33.7781 91.1284 33.6741C91.0324 33.57 90.9844 33.4207 90.9844 33.226C90.9844 33.0314 91.0325 32.8827 91.1288 32.78C91.225 32.6773 91.3631 32.626 91.5428 32.626C91.7226 32.626 91.8601 32.6777 91.9553 32.7812C92.0505 32.8847 92.0981 33.0335 92.0981 33.2277ZM91.2444 33.2277C91.2444 33.3583 91.2692 33.4567 91.3188 33.5229C91.3684 33.589 91.4425 33.6221 91.5412 33.6221C91.7391 33.6221 91.8381 33.4906 91.8381 33.2277C91.8381 32.9642 91.7396 32.8324 91.5428 32.8324C91.4441 32.8324 91.3697 32.8656 91.3196 32.932C91.2695 32.9984 91.2444 33.097 91.2444 33.2277Z" fill="#407BFF"/>
<path d="M92.3398 33.8142V32.6445H92.5879V33.8142H92.3398Z" fill="#407BFF"/>
<path d="M93.3809 32.8338C93.2875 32.8338 93.2153 32.8689 93.1641 32.939C93.1129 33.0092 93.0873 33.1069 93.0873 33.2323C93.0873 33.4931 93.1851 33.6235 93.3809 33.6235C93.463 33.6235 93.5625 33.603 93.6793 33.5619V33.7699C93.5833 33.8099 93.4761 33.8299 93.3577 33.8299C93.1875 33.8299 93.0574 33.7783 92.9673 33.6751C92.8771 33.5719 92.832 33.4238 92.832 33.2307C92.832 33.1091 92.8542 33.0025 92.8984 32.9111C92.9427 32.8196 93.0063 32.7494 93.0893 32.7006C93.1722 32.6518 93.2694 32.6274 93.3809 32.6274C93.4945 32.6274 93.6086 32.6549 93.7233 32.7099L93.6433 32.9115C93.5995 32.8907 93.5556 32.8726 93.5113 32.8571C93.467 32.8416 93.4235 32.8338 93.3809 32.8338Z" fill="#407BFF"/>
<path d="M94.6034 33.8142H93.9297V32.6445H94.6034V32.8478H94.1777V33.1046H94.5738V33.3078H94.1777V33.6094H94.6034V33.8142Z" fill="#407BFF"/>
<path d="M66.7706 33.0547V32.828C66.7706 32.7609 66.7162 32.7065 66.6492 32.7065H66.4243C66.231 32.7065 66.0742 32.8633 66.0742 33.0566V33.2815C66.0742 33.3486 66.1286 33.403 66.1957 33.403H66.4224V33.6297C66.4224 33.6968 66.4768 33.7512 66.5439 33.7512H66.7688C66.9621 33.7512 67.1188 33.5945 67.1188 33.4011V33.1762C67.1188 33.1091 67.0644 33.0547 66.9974 33.0547H66.7706Z" fill="#407BFF"/>
<path d="M70.5775 32.8276H67.7305V33.2201H70.5775V32.8276Z" fill="#407BFF"/>
<path d="M72.0317 33.2368H67.7305V33.6292H72.0317V33.2368Z" fill="#407BFF"/>
<path d="M66.0742 36.5649H72.0345" stroke="#B4C4FB" stroke-width="0.313944" stroke-miterlimit="10"/>
<path d="M66.0742 37.0771H69.8838" stroke="#B4C4FB" stroke-width="0.313944" stroke-miterlimit="10"/>
<path d="M66.0742 37.5889H69.8838" stroke="#B4C4FB" stroke-width="0.313944" stroke-miterlimit="10"/>
<path d="M94.6014 36.5142H93.7031V36.6166H94.6014V36.5142Z" fill="#407BFF"/>
<path d="M93.3699 36.5142H92.5352V36.6166H93.3699V36.5142Z" fill="#407BFF"/>
<path d="M92.1804 36.5142H91.3398V36.6166H92.1804V36.5142Z" fill="#407BFF"/>
<path d="M93.6451 36.3076L93.4816 36.7463H93.3984L93.562 36.3076H93.6451Z" fill="#407BFF"/>
<path d="M92.4771 36.3076L92.3136 36.7463H92.2305L92.394 36.3076H92.4771Z" fill="#407BFF"/>
<path d="M66.0742 49.1724H72.0345" stroke="#407BFF" stroke-width="0.388243" stroke-miterlimit="10"/>
<path d="M66.0742 49.6846H71.1947" stroke="#407BFF" stroke-width="0.359854" stroke-miterlimit="10"/>
<path d="M66.0742 50.1968H70.355" stroke="#407BFF" stroke-width="0.329025" stroke-miterlimit="10"/>
<path d="M65.2104 52.582L94.6016 52.582V52.2133L65.2104 52.2133V52.582Z" fill="#BDC9F9"/>
<path d="M94.6021 38.5928H65.2109V39.8627H94.6021V38.5928Z" fill="#F4F6FC"/>
<path d="M94.6021 39.8628H65.2109V41.1327H94.6021V39.8628Z" fill="#E3E9F7"/>
<path d="M94.6021 42.4023H65.2109V43.6722H94.6021V42.4023Z" fill="#E3E9F7"/>
<path d="M94.6021 41.1328H65.2109V42.4027H94.6021V41.1328Z" fill="#F4F6FC"/>
<path d="M81.1406 40.4976H82.0821" stroke="#0085F9" stroke-width="0.323535" stroke-miterlimit="10"/>
<path d="M81.1406 41.7676H82.0821" stroke="#0085F9" stroke-width="0.323535" stroke-miterlimit="10"/>
<path d="M81.1406 43.0371H82.0821" stroke="#0085F9" stroke-width="0.323535" stroke-miterlimit="10"/>
<path d="M86.8633 40.4976H87.4593" stroke="#0085F9" stroke-width="0.323535" stroke-miterlimit="10"/>
<path d="M86.8633 41.7676H87.4593" stroke="#0085F9" stroke-width="0.323535" stroke-miterlimit="10"/>
<path d="M86.8633 43.0371H87.4593" stroke="#0085F9" stroke-width="0.323535" stroke-miterlimit="10"/>
<path d="M92.3203 40.5078H93.2618" stroke="#0085F9" stroke-width="0.323535" stroke-miterlimit="10"/>
<path d="M92.3203 41.7778H93.2618" stroke="#0085F9" stroke-width="0.323535" stroke-miterlimit="10"/>
<path d="M92.3203 43.0479H93.2618" stroke="#0085F9" stroke-width="0.323535" stroke-miterlimit="10"/>
<path d="M66.082 40.4976H72.9133" stroke="#0085F9" stroke-width="0.323535" stroke-miterlimit="10"/>
<path d="M66.082 41.7676H74.1087" stroke="#0085F9" stroke-width="0.323535" stroke-miterlimit="10"/>
<path d="M66.082 43.0371H75.2147" stroke="#0085F9" stroke-width="0.323535" stroke-miterlimit="10"/>
<path d="M94.602 45.9253H86.1523V47.1952H94.602V45.9253Z" fill="#BDC9F9"/>
<path d="M86.6328 44.4287H90.2172" stroke="#0085F9" stroke-width="0.323535" stroke-miterlimit="10"/>
<path d="M86.6328 45.166H89.1316" stroke="#0085F9" stroke-width="0.323535" stroke-miterlimit="10"/>
<path d="M92.332 44.4287H93.2537" stroke="#0085F9" stroke-width="0.323535" stroke-miterlimit="10"/>
<path d="M92.332 45.166H93.2537" stroke="#0085F9" stroke-width="0.323535" stroke-miterlimit="10"/>
<path d="M66.082 39.2275H75.2147" stroke="white" stroke-width="0.45295" stroke-miterlimit="10"/>
<path d="M86.4688 39.2275H87.8509" stroke="white" stroke-width="0.45295" stroke-miterlimit="10"/>
<path d="M92.1016 39.2275H93.4837" stroke="white" stroke-width="0.45295" stroke-miterlimit="10"/>
<path d="M80.9219 39.2275H82.3041" stroke="white" stroke-width="0.45295" stroke-miterlimit="10"/>
<path d="M92.332 46.5605H93.2537" stroke="white" stroke-width="0.45295" stroke-miterlimit="10"/>
<path d="M86.6328 46.5605H89.7461" stroke="white" stroke-width="0.45295" stroke-miterlimit="10"/>
<path d="M88.8162 49.3496C88.8162 49.3496 87.9581 49.3727 88.1989 50.0107C88.3157 50.3203 88.6867 50.4472 88.9745 50.2838C89.0906 50.2179 89.2277 50.1185 89.3876 49.9706C89.3876 49.9706 90.0459 48.6788 89.6361 49.039C89.6361 49.039 89.2678 49.321 89.3651 49.8976C89.4159 50.1987 89.7335 50.3762 90.0155 50.2589C90.2568 50.1586 90.4602 50.0156 90.2447 49.8588C90.2447 49.8588 89.6294 50.2259 90.1901 50.3762C90.2722 50.3983 90.3588 50.3978 90.4407 50.3751L90.6376 50.3204C90.7303 50.2947 90.828 50.2921 90.922 50.313L91.173 50.3688C91.2807 50.3927 91.393 50.3858 91.4969 50.3489L91.7584 50.2558C91.8493 50.2235 91.9467 50.2141 92.0421 50.2284L92.0805 50.2342C92.276 50.2635 92.4731 50.1925 92.6049 50.0451" stroke="#407BFF" stroke-width="0.117729" stroke-miterlimit="10"/>
<path opacity="0.1" d="M100.131 41.7769V54.968H73.7812V46.579H73.8005V41.7769H100.131Z" fill="black" stroke="#0F31AC" stroke-width="0.078486" stroke-miterlimit="10"/>
<path d="M127.17 47.1289H74.4492V73.0592H127.17V47.1289Z" fill="#E3E9F7"/>
<path d="M127.169 42.3262H74.4688V47.1392H127.169V42.3262Z" fill="#407BFF"/>
<path d="M76.9036 45.2765C77.3509 45.2765 77.7135 44.9318 77.7135 44.5064C77.7135 44.0811 77.3509 43.7363 76.9036 43.7363C76.4564 43.7363 76.0938 44.0811 76.0938 44.5064C76.0938 44.9318 76.4564 45.2765 76.9036 45.2765Z" fill="#E3E9F7"/>
<path d="M79.2669 45.2765C79.7142 45.2765 80.0768 44.9318 80.0768 44.5064C80.0768 44.0811 79.7142 43.7363 79.2669 43.7363C78.8196 43.7363 78.457 44.0811 78.457 44.5064C78.457 44.9318 78.8196 45.2765 79.2669 45.2765Z" fill="#E3E9F7"/>
<path d="M81.6302 45.2765C82.0775 45.2765 82.4401 44.9318 82.4401 44.5064C82.4401 44.0811 82.0775 43.7363 81.6302 43.7363C81.1829 43.7363 80.8203 44.0811 80.8203 44.5064C80.8203 44.9318 81.1829 45.2765 81.6302 45.2765Z" fill="#E3E9F7"/>
<path d="M84.3424 49.2822H76.1094V51.985H84.3424V49.2822Z" fill="#F4F6FC" stroke="#0F31AC" stroke-width="0.078486" stroke-miterlimit="10"/>
<path d="M92.5729 49.2822H84.3398V51.985H92.5729V49.2822Z" fill="#F4F6FC" stroke="#0F31AC" stroke-width="0.078486" stroke-miterlimit="10"/>
<path d="M100.807 49.2822H92.5742V51.985H100.807V49.2822Z" fill="#F4F6FC" stroke="#0F31AC" stroke-width="0.078486" stroke-miterlimit="10"/>
<path d="M109.042 49.2822H100.809V51.985H109.042V49.2822Z" fill="#F4F6FC" stroke="#0F31AC" stroke-width="0.078486" stroke-miterlimit="10"/>
<path d="M117.276 49.2822H109.043V51.985H117.276V49.2822Z" fill="#F4F6FC" stroke="#0F31AC" stroke-width="0.078486" stroke-miterlimit="10"/>
<path d="M125.506 49.2822H117.273V51.985H125.506V49.2822Z" fill="#F4F6FC" stroke="#0F31AC" stroke-width="0.078486" stroke-miterlimit="10"/>
<path d="M84.3424 51.9849H76.1094V54.6877H84.3424V51.9849Z" fill="#F4F6FC" stroke="#0F31AC" stroke-width="0.078486" stroke-miterlimit="10"/>
<path d="M92.5729 51.9849H84.3398V54.6877H92.5729V51.9849Z" fill="#CDD7FB" stroke="#0F31AC" stroke-width="0.078486" stroke-miterlimit="10"/>
<path d="M100.807 51.9849H92.5742V54.6877H100.807V51.9849Z" fill="white" stroke="#0F31AC" stroke-width="0.078486" stroke-miterlimit="10"/>
<path d="M109.042 51.9849H100.809V54.6877H109.042V51.9849Z" fill="white" stroke="#0F31AC" stroke-width="0.078486" stroke-miterlimit="10"/>
<path d="M117.276 51.9849H109.043V54.6877H117.276V51.9849Z" fill="white" stroke="#0F31AC" stroke-width="0.078486" stroke-miterlimit="10"/>
<path d="M125.506 51.9849H117.273V54.6877H125.506V51.9849Z" fill="white" stroke="#0F31AC" stroke-width="0.078486" stroke-miterlimit="10"/>
<path d="M84.3424 54.688H76.1094V57.3908H84.3424V54.688Z" fill="#F4F6FC" stroke="#0F31AC" stroke-width="0.078486" stroke-miterlimit="10"/>
<path d="M92.5729 54.688H84.3398V57.3908H92.5729V54.688Z" fill="white" stroke="#0F31AC" stroke-width="0.078486" stroke-miterlimit="10"/>
<path d="M100.807 54.688H92.5742V57.3908H100.807V54.688Z" fill="white" stroke="#0F31AC" stroke-width="0.078486" stroke-miterlimit="10"/>
<path d="M109.042 54.688H100.809V57.3908H109.042V54.688Z" fill="#CDD7FB" stroke="#0F31AC" stroke-width="0.078486" stroke-miterlimit="10"/>
<path d="M117.276 54.688H109.043V57.3908H117.276V54.688Z" fill="white" stroke="#0F31AC" stroke-width="0.078486" stroke-miterlimit="10"/>
<path d="M125.506 54.688H117.273V57.3908H125.506V54.688Z" fill="white" stroke="#0F31AC" stroke-width="0.078486" stroke-miterlimit="10"/>
<path d="M84.3424 57.3906H76.1094V60.0934H84.3424V57.3906Z" fill="#F4F6FC" stroke="#0F31AC" stroke-width="0.078486" stroke-miterlimit="10"/>
<path d="M92.5729 57.3906H84.3398V60.0934H92.5729V57.3906Z" fill="white" stroke="#0F31AC" stroke-width="0.078486" stroke-miterlimit="10"/>
<path d="M100.807 57.3906H92.5742V60.0934H100.807V57.3906Z" fill="white" stroke="#0F31AC" stroke-width="0.078486" stroke-miterlimit="10"/>
<path d="M109.042 57.3906H100.809V60.0934H109.042V57.3906Z" fill="white" stroke="#0F31AC" stroke-width="0.078486" stroke-miterlimit="10"/>
<path d="M117.276 57.3906H109.043V60.0934H117.276V57.3906Z" fill="white" stroke="#0F31AC" stroke-width="0.078486" stroke-miterlimit="10"/>
<path d="M125.506 57.3906H117.273V60.0934H125.506V57.3906Z" fill="white" stroke="#0F31AC" stroke-width="0.078486" stroke-miterlimit="10"/>
<path d="M84.3424 60.0938H76.1094V62.7966H84.3424V60.0938Z" fill="#F4F6FC" stroke="#0F31AC" stroke-width="0.078486" stroke-miterlimit="10"/>
<path d="M92.5729 60.0938H84.3398V62.7966H92.5729V60.0938Z" fill="white" stroke="#0F31AC" stroke-width="0.078486" stroke-miterlimit="10"/>
<path d="M100.807 60.0938H92.5742V62.7966H100.807V60.0938Z" fill="white" stroke="#0F31AC" stroke-width="0.078486" stroke-miterlimit="10"/>
<path d="M109.042 60.0938H100.809V62.7966H109.042V60.0938Z" fill="white" stroke="#0F31AC" stroke-width="0.078486" stroke-miterlimit="10"/>
<path d="M117.276 60.0938H109.043V62.7966H117.276V60.0938Z" fill="white" stroke="#0F31AC" stroke-width="0.078486" stroke-miterlimit="10"/>
<path d="M125.506 60.0938H117.273V62.7966H125.506V60.0938Z" fill="white" stroke="#0F31AC" stroke-width="0.078486" stroke-miterlimit="10"/>
<path d="M84.3424 62.7964H76.1094V65.4992H84.3424V62.7964Z" fill="#F4F6FC" stroke="#0F31AC" stroke-width="0.078486" stroke-miterlimit="10"/>
<path d="M92.5729 62.7964H84.3398V65.4992H92.5729V62.7964Z" fill="white" stroke="#0F31AC" stroke-width="0.078486" stroke-miterlimit="10"/>
<path d="M100.807 62.7964H92.5742V65.4992H100.807V62.7964Z" fill="white" stroke="#0F31AC" stroke-width="0.078486" stroke-miterlimit="10"/>
<path d="M109.042 62.7964H100.809V65.4992H109.042V62.7964Z" fill="white" stroke="#0F31AC" stroke-width="0.078486" stroke-miterlimit="10"/>
<path d="M117.276 62.7964H109.043V65.4992H117.276V62.7964Z" fill="white" stroke="#0F31AC" stroke-width="0.078486" stroke-miterlimit="10"/>
<path d="M125.506 62.7964H117.273V65.4992H125.506V62.7964Z" fill="white" stroke="#0F31AC" stroke-width="0.078486" stroke-miterlimit="10"/>
<path d="M84.3424 65.499H76.1094V68.2018H84.3424V65.499Z" fill="#F4F6FC" stroke="#0F31AC" stroke-width="0.078486" stroke-miterlimit="10"/>
<path d="M92.5729 65.499H84.3398V68.2018H92.5729V65.499Z" fill="white" stroke="#0F31AC" stroke-width="0.078486" stroke-miterlimit="10"/>
<path d="M100.807 65.499H92.5742V68.2018H100.807V65.499Z" fill="white" stroke="#0F31AC" stroke-width="0.078486" stroke-miterlimit="10"/>
<path d="M109.042 65.499H100.809V68.2018H109.042V65.499Z" fill="white" stroke="#0F31AC" stroke-width="0.078486" stroke-miterlimit="10"/>
<path d="M117.276 65.499H109.043V68.2018H117.276V65.499Z" fill="white" stroke="#0F31AC" stroke-width="0.078486" stroke-miterlimit="10"/>
<path d="M125.506 65.499H117.273V68.2018H125.506V65.499Z" fill="white" stroke="#0F31AC" stroke-width="0.078486" stroke-miterlimit="10"/>
<path d="M84.3424 68.2021H76.1094V70.905H84.3424V68.2021Z" fill="#F4F6FC" stroke="#0F31AC" stroke-width="0.078486" stroke-miterlimit="10"/>
<path d="M92.5729 68.2021H84.3398V70.905H92.5729V68.2021Z" fill="white" stroke="#0F31AC" stroke-width="0.078486" stroke-miterlimit="10"/>
<path d="M100.807 68.2021H92.5742V70.905H100.807V68.2021Z" fill="white" stroke="#0F31AC" stroke-width="0.078486" stroke-miterlimit="10"/>
<path d="M109.042 68.2021H100.809V70.905H109.042V68.2021Z" fill="white" stroke="#0F31AC" stroke-width="0.078486" stroke-miterlimit="10"/>
<path d="M117.276 68.2021H109.043V70.905H117.276V68.2021Z" fill="white" stroke="#0F31AC" stroke-width="0.078486" stroke-miterlimit="10"/>
<path d="M125.506 68.2021H117.273V70.905H125.506V68.2021Z" fill="#0085F9" stroke="#0F31AC" stroke-width="0.078486" stroke-miterlimit="10"/>
<path opacity="0.1" d="M127.19 60.7314V73.0467H93.9141V65.2148H93.9383V60.7314H127.19Z" fill="black" stroke="#0F31AC" stroke-width="0.078486" stroke-miterlimit="10"/>
<path d="M140.592 66.3574H94.543V92.2877H140.592V66.3574Z" fill="#E3E9F7"/>
<path d="M140.592 61.5547H94.5625V66.3678H140.592V61.5547Z" fill="#407BFF"/>
<path d="M96.9974 64.507C97.4447 64.507 97.8073 64.1622 97.8073 63.7369C97.8073 63.3116 97.4447 62.9668 96.9974 62.9668C96.5501 62.9668 96.1875 63.3116 96.1875 63.7369C96.1875 64.1622 96.5501 64.507 96.9974 64.507Z" fill="#E3E9F7"/>
<path d="M99.3607 64.507C99.808 64.507 100.171 64.1622 100.171 63.7369C100.171 63.3116 99.808 62.9668 99.3607 62.9668C98.9134 62.9668 98.5508 63.3116 98.5508 63.7369C98.5508 64.1622 98.9134 64.507 99.3607 64.507Z" fill="#E3E9F7"/>
<path d="M101.724 64.507C102.171 64.507 102.534 64.1622 102.534 63.7369C102.534 63.3116 102.171 62.9668 101.724 62.9668C101.277 62.9668 100.914 63.3116 100.914 63.7369C100.914 64.1622 101.277 64.507 101.724 64.507Z" fill="#E3E9F7"/>
<path d="M138.935 68.5112H96.1992V90.1341H138.935V68.5112Z" fill="#F9FBFD"/>
<path d="M106.515 71.7505H104.062V86.8942H106.515V71.7505Z" fill="#EEF2FA"/>
<path d="M109.801 71.7505H107.348V86.8942H109.801V71.7505Z" fill="#EEF2FA"/>
<path d="M113.086 71.7505H110.633V86.8942H113.086V71.7505Z" fill="#EEF2FA"/>
<path d="M116.371 71.7505H113.918V86.8942H116.371V71.7505Z" fill="#EEF2FA"/>
<path d="M119.656 71.7505H117.203V86.8942H119.656V71.7505Z" fill="#EEF2FA"/>
<path d="M122.937 71.7505H120.484V86.8942H122.937V71.7505Z" fill="#EEF2FA"/>
<path d="M126.222 71.7505H123.77V86.8942H126.222V71.7505Z" fill="#EEF2FA"/>
<path d="M129.508 71.7505H127.055V86.8942H129.508V71.7505Z" fill="#EEF2FA"/>
<path d="M132.797 71.7505H130.344V86.8942H132.797V71.7505Z" fill="#EEF2FA"/>
<path d="M106.515 77.688H104.062V86.8946H106.515V77.688Z" fill="#407BFF"/>
<path d="M109.801 79.5635H107.348V86.8946H109.801V79.5635Z" fill="#0085F9"/>
<path d="M113.086 83.3921H110.633V86.8946H113.086V83.3921Z" fill="#6286E8"/>
<path d="M116.371 81.5259H113.918V86.8945H116.371V81.5259Z" fill="#407BFF"/>
<path d="M119.656 83.3921H117.203V86.8946H119.656V83.3921Z" fill="#0085F9"/>
<path d="M122.937 75.585H120.484V86.8946H122.937V75.585Z" fill="#6286E8"/>
<path d="M126.222 73.2236H123.77V86.8944H126.222V73.2236Z" fill="#407BFF"/>
<path d="M129.508 80.1523H127.055V86.8944H129.508V80.1523Z" fill="#0085F9"/>
<path d="M132.797 77.688H130.344V86.8946H132.797V77.688Z" fill="#6286E8"/>
<path d="M101.185 86.6479H100.812V86.6043L100.954 86.5115C100.996 86.4836 101.024 86.4638 101.037 86.4521C101.051 86.4404 101.061 86.4294 101.067 86.4192C101.074 86.4089 101.077 86.3978 101.077 86.3861C101.077 86.3699 101.069 86.3572 101.054 86.3479C101.039 86.3386 101.019 86.3339 100.993 86.3339C100.971 86.3339 100.951 86.3364 100.931 86.3415C100.912 86.3465 100.889 86.3557 100.863 86.3689L100.816 86.3309C100.846 86.3141 100.876 86.3022 100.905 86.2952C100.933 86.2882 100.964 86.2847 100.997 86.2847C101.048 86.2847 101.089 86.2934 101.12 86.3107C101.15 86.3282 101.166 86.3515 101.166 86.3809C101.166 86.3971 101.161 86.4124 101.152 86.427C101.144 86.4415 101.13 86.4565 101.111 86.4719C101.093 86.4874 101.062 86.5082 101.02 86.5345L100.924 86.5948V86.5972H101.185V86.6479Z" fill="#0085F9"/>
<path d="M101.623 86.4689C101.623 86.5311 101.608 86.5773 101.577 86.6075C101.546 86.6378 101.5 86.6529 101.436 86.6529C101.375 86.6529 101.329 86.6373 101.297 86.6061C101.266 86.5749 101.25 86.5292 101.25 86.4689C101.25 86.4057 101.265 86.3591 101.296 86.3292C101.327 86.2992 101.373 86.2842 101.436 86.2842C101.498 86.2842 101.544 86.2999 101.576 86.3312C101.607 86.3626 101.623 86.4085 101.623 86.4689ZM101.339 86.4689C101.339 86.5177 101.347 86.5526 101.363 86.5735C101.378 86.5944 101.403 86.6048 101.436 86.6048C101.47 86.6048 101.495 86.5942 101.511 86.573C101.526 86.5517 101.534 86.517 101.534 86.4689C101.534 86.4209 101.526 86.3861 101.511 86.3646C101.495 86.3432 101.47 86.3324 101.436 86.3324C101.403 86.3324 101.378 86.3429 101.363 86.364C101.347 86.3851 101.339 86.4201 101.339 86.4689Z" fill="#0085F9"/>
<path d="M101.2 84.5266H101.126V84.6047H101.04V84.5266H100.789V84.4822L101.04 84.2456H101.126V84.4788H101.2V84.5266ZM101.04 84.4788V84.3889C101.04 84.3569 101.041 84.3307 101.044 84.3103H101.041C101.034 84.3211 101.023 84.3341 101.008 84.3495L100.871 84.4788H101.04Z" fill="#0085F9"/>
<path d="M101.623 84.4254C101.623 84.4876 101.608 84.5338 101.577 84.564C101.546 84.5943 101.5 84.6094 101.436 84.6094C101.375 84.6094 101.329 84.5938 101.297 84.5626C101.266 84.5314 101.25 84.4857 101.25 84.4254C101.25 84.3623 101.265 84.3157 101.296 84.2857C101.327 84.2557 101.373 84.2407 101.436 84.2407C101.498 84.2407 101.544 84.2564 101.576 84.2877C101.607 84.3191 101.623 84.365 101.623 84.4254ZM101.339 84.4254C101.339 84.4742 101.347 84.5091 101.363 84.53C101.378 84.5509 101.403 84.5613 101.436 84.5613C101.47 84.5613 101.495 84.5507 101.511 84.5295C101.526 84.5083 101.534 84.4736 101.534 84.4254C101.534 84.3774 101.526 84.3426 101.511 84.3212C101.495 84.2997 101.47 84.289 101.436 84.289C101.403 84.289 101.378 84.2995 101.363 84.3205C101.347 84.3416 101.339 84.3766 101.339 84.4254Z" fill="#0085F9"/>
<path d="M100.812 82.4099C100.812 82.2698 100.9 82.1997 101.075 82.1997C101.103 82.1997 101.126 82.2011 101.145 82.2039V82.2519C101.126 82.2482 101.104 82.2465 101.079 82.2465C101.02 82.2465 100.976 82.2568 100.946 82.2773C100.917 82.2979 100.901 82.3309 100.898 82.3763H100.903C100.914 82.3631 100.931 82.3528 100.952 82.3456C100.974 82.3383 100.999 82.3347 101.027 82.3347C101.077 82.3347 101.116 82.3446 101.144 82.3645C101.172 82.3845 101.186 82.4115 101.186 82.4456C101.186 82.4832 101.17 82.5128 101.137 82.5346C101.105 82.5564 101.061 82.5673 101.006 82.5673C100.966 82.5673 100.932 82.5612 100.903 82.5489C100.874 82.5365 100.852 82.5186 100.836 82.495C100.82 82.4714 100.812 82.443 100.812 82.4099ZM101.004 82.5198C101.034 82.5198 101.058 82.5135 101.074 82.5007C101.091 82.488 101.099 82.4698 101.099 82.4461C101.099 82.4255 101.091 82.4094 101.076 82.3976C101.06 82.3858 101.037 82.38 101.006 82.38C100.987 82.38 100.97 82.3827 100.954 82.388C100.938 82.3933 100.925 82.4005 100.916 82.4098C100.907 82.419 100.902 82.4284 100.902 82.4381C100.902 82.4611 100.912 82.4805 100.931 82.4962C100.95 82.512 100.974 82.5198 101.004 82.5198Z" fill="#0085F9"/>
<path d="M101.623 82.3834C101.623 82.4456 101.608 82.4918 101.577 82.5221C101.546 82.5523 101.5 82.5674 101.436 82.5674C101.375 82.5674 101.329 82.5518 101.297 82.5206C101.266 82.4894 101.25 82.4437 101.25 82.3834C101.25 82.3203 101.265 82.2737 101.296 82.2437C101.327 82.2137 101.373 82.1987 101.436 82.1987C101.498 82.1987 101.544 82.2144 101.576 82.2457C101.607 82.2771 101.623 82.323 101.623 82.3834ZM101.339 82.3834C101.339 82.4322 101.347 82.4671 101.363 82.488C101.378 82.5089 101.403 82.5194 101.436 82.5194C101.47 82.5194 101.495 82.5087 101.511 82.4875C101.526 82.4663 101.534 82.4316 101.534 82.3834C101.534 82.3354 101.526 82.3006 101.511 82.2791C101.495 82.2577 101.47 82.2469 101.436 82.2469C101.403 82.2469 101.378 82.2574 101.363 82.2785C101.347 82.2996 101.339 82.3346 101.339 82.3834Z" fill="#0085F9"/>
<path d="M100.999 80.1577C101.051 80.1577 101.092 80.1655 101.123 80.1811C101.153 80.1967 101.168 80.2176 101.168 80.2437C101.168 80.2804 101.134 80.3097 101.067 80.3314C101.11 80.3454 101.14 80.3602 101.158 80.3757C101.177 80.3912 101.186 80.4085 101.186 80.4276C101.186 80.4572 101.169 80.4808 101.136 80.4987C101.102 80.5165 101.057 80.5253 101 80.5253C100.941 80.5253 100.895 80.517 100.862 80.5003C100.829 80.4837 100.812 80.4601 100.812 80.4296C100.812 80.4096 100.821 80.3917 100.838 80.3758C100.855 80.3599 100.884 80.3457 100.923 80.3333C100.889 80.3202 100.865 80.3064 100.851 80.2919C100.837 80.2774 100.829 80.261 100.829 80.2429C100.829 80.2169 100.845 80.1963 100.876 80.1808C100.908 80.1655 100.949 80.1577 100.999 80.1577ZM100.897 80.4276C100.897 80.4446 100.906 80.4578 100.924 80.4672C100.943 80.4766 100.968 80.4813 100.999 80.4813C101.031 80.4813 101.056 80.4764 101.074 80.4667C101.092 80.457 101.101 80.4438 101.101 80.4272C101.101 80.4139 101.093 80.4019 101.076 80.3909C101.06 80.38 101.035 80.3698 101.001 80.3605L100.99 80.3573C100.957 80.3668 100.933 80.3772 100.919 80.3886C100.904 80.3999 100.897 80.4129 100.897 80.4276ZM100.998 80.2021C100.973 80.2021 100.953 80.2061 100.938 80.2142C100.922 80.2223 100.915 80.2333 100.915 80.2472C100.915 80.2557 100.917 80.2632 100.923 80.27C100.929 80.2767 100.937 80.2827 100.947 80.2882C100.958 80.2937 100.975 80.3003 101 80.3079C101.03 80.2993 101.052 80.2902 101.064 80.2806C101.076 80.2711 101.083 80.2599 101.083 80.2472C101.083 80.2333 101.075 80.2223 101.06 80.2142C101.044 80.2061 101.024 80.2021 100.998 80.2021Z" fill="#0085F9"/>
<path d="M101.623 80.3414C101.623 80.4036 101.608 80.4499 101.577 80.4801C101.546 80.5103 101.5 80.5254 101.436 80.5254C101.375 80.5254 101.329 80.5098 101.297 80.4786C101.266 80.4474 101.25 80.4017 101.25 80.3414C101.25 80.2783 101.265 80.2317 101.296 80.2017C101.327 80.1717 101.373 80.1567 101.436 80.1567C101.498 80.1567 101.544 80.1724 101.576 80.2038C101.607 80.2351 101.623 80.281 101.623 80.3414ZM101.339 80.3414C101.339 80.3903 101.347 80.4252 101.363 80.4461C101.378 80.4669 101.403 80.4774 101.436 80.4774C101.47 80.4774 101.495 80.4668 101.511 80.4456C101.526 80.4243 101.534 80.3896 101.534 80.3414C101.534 80.2935 101.526 80.2587 101.511 80.2372C101.495 80.2158 101.47 80.205 101.436 80.205C101.403 80.205 101.378 80.2155 101.363 80.2366C101.347 80.2577 101.339 80.2926 101.339 80.3414Z" fill="#0085F9"/>
<path d="M100.848 78.4797H100.76V78.2485C100.76 78.2209 100.761 78.199 100.763 78.1828C100.757 78.1868 100.75 78.1911 100.742 78.1958C100.734 78.2006 100.705 78.2156 100.658 78.2409L100.613 78.2044L100.775 78.1216H100.849L100.848 78.4797Z" fill="#0085F9"/>
<path d="M101.401 78.3009C101.401 78.3631 101.385 78.4093 101.354 78.4395C101.324 78.4698 101.277 78.4849 101.214 78.4849C101.153 78.4849 101.106 78.4693 101.075 78.4381C101.043 78.4069 101.027 78.3612 101.027 78.3009C101.027 78.2377 101.043 78.1912 101.073 78.1612C101.104 78.1312 101.151 78.1162 101.214 78.1162C101.275 78.1162 101.322 78.1319 101.353 78.1632C101.385 78.1946 101.401 78.2405 101.401 78.3009ZM101.117 78.3009C101.117 78.3497 101.124 78.3846 101.14 78.4055C101.155 78.4264 101.18 78.4368 101.214 78.4368C101.248 78.4368 101.272 78.4262 101.288 78.405C101.304 78.3838 101.311 78.3491 101.311 78.3009C101.311 78.2529 101.304 78.2182 101.288 78.1967C101.272 78.1752 101.247 78.1644 101.214 78.1644C101.18 78.1644 101.155 78.175 101.14 78.196C101.124 78.2171 101.117 78.2521 101.117 78.3009Z" fill="#0085F9"/>
<path d="M101.842 78.3009C101.842 78.3631 101.827 78.4093 101.796 78.4395C101.765 78.4698 101.718 78.4849 101.655 78.4849C101.594 78.4849 101.548 78.4693 101.516 78.4381C101.485 78.4069 101.469 78.3612 101.469 78.3009C101.469 78.2377 101.484 78.1912 101.515 78.1612C101.545 78.1312 101.592 78.1162 101.655 78.1162C101.717 78.1162 101.763 78.1319 101.795 78.1632C101.826 78.1946 101.842 78.2405 101.842 78.3009ZM101.558 78.3009C101.558 78.3497 101.566 78.3846 101.581 78.4055C101.597 78.4264 101.621 78.4368 101.655 78.4368C101.689 78.4368 101.714 78.4262 101.729 78.405C101.745 78.3838 101.753 78.3491 101.753 78.3009C101.753 78.2529 101.745 78.2182 101.729 78.1967C101.714 78.1752 101.689 78.1644 101.655 78.1644C101.621 78.1644 101.597 78.175 101.581 78.196C101.566 78.2171 101.558 78.2521 101.558 78.3009Z" fill="#0085F9"/>
<path d="M100.848 76.4382H100.76V76.207C100.76 76.1794 100.761 76.1575 100.763 76.1413C100.757 76.1453 100.75 76.1496 100.742 76.1543C100.734 76.1591 100.705 76.1741 100.658 76.1994L100.613 76.1629L100.775 76.0801H100.849L100.848 76.4382Z" fill="#0085F9"/>
<path d="M101.404 76.438H101.031V76.3944L101.173 76.3016C101.215 76.2736 101.242 76.2538 101.256 76.2422C101.27 76.2305 101.28 76.2195 101.286 76.2092C101.292 76.1989 101.295 76.1879 101.295 76.1761C101.295 76.16 101.288 76.1472 101.273 76.1379C101.258 76.1286 101.238 76.124 101.211 76.124C101.19 76.124 101.17 76.1265 101.15 76.1316C101.131 76.1366 101.108 76.1458 101.082 76.159L101.034 76.121C101.065 76.1042 101.095 76.0923 101.123 76.0853C101.152 76.0782 101.183 76.0747 101.215 76.0747C101.267 76.0747 101.307 76.0834 101.338 76.1008C101.369 76.1182 101.385 76.1416 101.385 76.171C101.385 76.1871 101.38 76.2025 101.371 76.217C101.362 76.2316 101.349 76.2465 101.33 76.2619C101.312 76.2774 101.281 76.2982 101.238 76.3245L101.143 76.3848V76.3872H101.404V76.438Z" fill="#0085F9"/>
<path d="M101.842 76.2589C101.842 76.3211 101.827 76.3673 101.796 76.3975C101.765 76.4277 101.718 76.4428 101.655 76.4428C101.594 76.4428 101.548 76.4272 101.516 76.396C101.485 76.3648 101.469 76.3191 101.469 76.2589C101.469 76.1957 101.484 76.1491 101.515 76.1192C101.545 76.0892 101.592 76.0742 101.655 76.0742C101.717 76.0742 101.763 76.0899 101.795 76.1212C101.826 76.1525 101.842 76.1984 101.842 76.2589ZM101.558 76.2589C101.558 76.3077 101.566 76.3426 101.581 76.3634C101.597 76.3844 101.621 76.3948 101.655 76.3948C101.689 76.3948 101.714 76.3842 101.729 76.3629C101.745 76.3417 101.753 76.307 101.753 76.2588C101.753 76.2108 101.745 76.1761 101.729 76.1546C101.714 76.1331 101.689 76.1224 101.655 76.1224C101.621 76.1224 101.597 76.1329 101.581 76.154C101.566 76.175 101.558 76.21 101.558 76.2589Z" fill="#0085F9"/>
<path d="M100.848 74.3957H100.76V74.1645C100.76 74.1369 100.761 74.115 100.763 74.0989C100.757 74.1028 100.75 74.1071 100.742 74.1118C100.734 74.1166 100.705 74.1316 100.658 74.1569L100.613 74.1204L100.775 74.0376H100.849L100.848 74.3957Z" fill="#0085F9"/>
<path d="M101.423 74.3176H101.349V74.3957H101.263V74.3176H101.012V74.2733L101.263 74.0366H101.349V74.2698H101.423V74.3176ZM101.263 74.2698V74.1799C101.263 74.1479 101.264 74.1217 101.266 74.1013H101.263C101.256 74.1121 101.245 74.1252 101.23 74.1405L101.094 74.2699L101.263 74.2698Z" fill="#0085F9"/>
<path d="M101.842 74.2169C101.842 74.2791 101.827 74.3253 101.796 74.3556C101.765 74.3858 101.718 74.4009 101.655 74.4009C101.594 74.4009 101.548 74.3853 101.516 74.3541C101.485 74.3229 101.469 74.2771 101.469 74.2169C101.469 74.1537 101.484 74.1071 101.515 74.0772C101.545 74.0472 101.592 74.0322 101.655 74.0322C101.717 74.0322 101.763 74.0479 101.795 74.0792C101.826 74.1106 101.842 74.1565 101.842 74.2169ZM101.558 74.2169C101.558 74.2657 101.566 74.3006 101.581 74.3215C101.597 74.3424 101.621 74.3529 101.655 74.3529C101.689 74.3529 101.714 74.3423 101.729 74.321C101.745 74.2998 101.753 74.2651 101.753 74.2169C101.753 74.1689 101.745 74.1342 101.729 74.1127C101.714 74.0912 101.689 74.0805 101.655 74.0805C101.621 74.0805 101.597 74.091 101.581 74.1121C101.566 74.1331 101.558 74.1681 101.558 74.2169Z" fill="#0085F9"/>
<path d="M100.848 72.3537H100.76V72.1225C100.76 72.0949 100.761 72.073 100.763 72.0569C100.757 72.0608 100.75 72.0651 100.742 72.0698C100.734 72.0746 100.705 72.0896 100.658 72.1149L100.613 72.0784L100.775 71.9956H100.849L100.848 72.3537Z" fill="#0085F9"/>
<path d="M101.031 72.2014C101.031 72.0613 101.119 71.9912 101.294 71.9912C101.321 71.9912 101.345 71.9926 101.364 71.9954V72.0434C101.345 72.0398 101.323 72.038 101.298 72.038C101.239 72.038 101.195 72.0483 101.165 72.0689C101.135 72.0894 101.119 72.1224 101.117 72.1678H101.121C101.133 72.1546 101.15 72.1444 101.171 72.1371C101.192 72.1299 101.217 72.1262 101.246 72.1262C101.296 72.1262 101.335 72.1362 101.363 72.1561C101.39 72.176 101.404 72.203 101.404 72.2372C101.404 72.2747 101.388 72.3044 101.356 72.3262C101.324 72.348 101.28 72.3589 101.224 72.3589C101.185 72.3589 101.151 72.3527 101.122 72.3404C101.093 72.3281 101.07 72.3101 101.055 72.2865C101.039 72.2629 101.031 72.2345 101.031 72.2014ZM101.223 72.3114C101.253 72.3114 101.277 72.305 101.293 72.2922C101.309 72.2795 101.318 72.2613 101.318 72.2376C101.318 72.2171 101.31 72.2009 101.295 72.1891C101.279 72.1773 101.256 72.1715 101.225 72.1715C101.206 72.1715 101.189 72.1742 101.173 72.1795C101.157 72.1848 101.144 72.1921 101.135 72.2013C101.125 72.2105 101.121 72.2199 101.121 72.2296C101.121 72.2526 101.13 72.272 101.149 72.2877C101.169 72.3035 101.193 72.3114 101.223 72.3114Z" fill="#0085F9"/>
<path d="M101.842 72.1749C101.842 72.2371 101.827 72.2833 101.796 72.3136C101.765 72.3438 101.718 72.3589 101.655 72.3589C101.594 72.3589 101.548 72.3433 101.516 72.3121C101.485 72.2809 101.469 72.2352 101.469 72.175C101.469 72.1118 101.484 72.0652 101.515 72.0352C101.545 72.0053 101.592 71.9902 101.655 71.9902C101.717 71.9902 101.763 72.0059 101.795 72.0372C101.826 72.0686 101.842 72.1145 101.842 72.1749ZM101.558 72.1749C101.558 72.2237 101.566 72.2586 101.581 72.2795C101.597 72.3004 101.621 72.3108 101.655 72.3108C101.689 72.3108 101.714 72.3002 101.729 72.279C101.745 72.2578 101.753 72.2231 101.753 72.1749C101.753 72.1269 101.745 72.0922 101.729 72.0707C101.714 72.0492 101.689 72.0385 101.655 72.0385C101.621 72.0385 101.597 72.049 101.581 72.0701C101.566 72.0911 101.558 72.1261 101.558 72.1749Z" fill="#0085F9"/>
<path d="M102.34 88.3477H134.517" stroke="#407BFF" stroke-width="0.078486" stroke-miterlimit="10"/>
<path d="M102.34 88.3478V70.2964" stroke="#407BFF" stroke-width="0.078486" stroke-miterlimit="10"/>
</svg>
