<svg width="173" height="144" viewBox="0 0 173 144" fill="none" xmlns="http://www.w3.org/2000/svg">
<path d="M121.643 4.11148C121.457 4.03309 121.263 3.95122 121.073 3.88014C116.467 2.05245 111.654 0.796819 106.722 0.28537C105.126 0.121275 103.517 0.0275555 101.9 0.0150132C96.8639 -0.00763271 91.7226 1.02432 87.0823 3.09485C84.3073 4.32749 81.7107 5.93987 79.4172 7.91599C72.3708 13.9778 72.221 22.2902 68.8499 30.4643C66.4512 36.2669 63.6393 41.9468 59.9522 47.0554C56.2651 52.1639 51.7143 56.6133 46.327 59.9165C40.1342 63.7092 33.5509 64.0496 27.1139 66.6747C25.0737 67.5067 22.7314 69.0567 20.4926 71.546C19.2314 72.7564 18.0876 74.1092 17.1236 75.5969C16.1494 77.0887 15.3523 78.7223 14.775 80.5166C12.0662 88.8848 13.7472 98.449 17.6535 106.321C21.8322 114.73 27.7187 121.871 34.74 127.521C39.2263 131.141 44.1676 134.14 49.4257 136.487C60.4086 141.378 72.7321 143.384 85.0138 141.993C120.439 137.981 156.12 111.503 162.584 75.1436C162.643 74.8046 162.698 74.4729 162.748 74.1308C162.791 73.9291 162.822 73.7141 162.851 73.5061C163.017 72.4268 163.148 71.3325 163.251 70.2434C163.515 67.3876 163.571 64.5209 163.391 61.6735C163.244 59.4312 162.955 57.2053 162.521 55.0027C162.012 52.4559 161.415 49.9568 160.712 47.5313C160.167 45.612 159.555 43.7317 158.866 41.8953C157.313 37.7096 155.391 33.7403 153.023 29.9888C151.885 28.1746 150.641 26.4093 149.277 24.7109C147.484 22.4438 145.488 20.2775 143.272 18.2125C138.995 14.2161 134.203 10.6199 129.04 7.70416C126.65 6.35307 124.176 5.14309 121.643 4.11148Z" fill="#CADFF4"/>
<path d="M61.602 83.4136H62.3525H93.4094H126.995C120.829 83.8801 126.66 98.0129 131.332 112.714C135.246 125.017 138.351 137.729 132.935 143.144H67.5492C79.4372 131.256 50.2826 84.2665 61.602 83.4136Z" fill="white"/>
<path d="M68.9531 98.9834H92.2132" stroke="#1D85EE" stroke-width="0.646313" stroke-miterlimit="10"/>
<path d="M69.8594 102.33H82.4937" stroke="#1D85EE" stroke-width="0.646313" stroke-miterlimit="10"/>
<path d="M119.635 100.907H106.582C105.912 100.907 105.222 100.364 105.04 99.6941C104.859 99.0241 105.254 98.481 105.924 98.481H118.977C119.647 98.481 120.337 99.0241 120.519 99.6941C120.701 100.364 120.305 100.907 119.635 100.907Z" fill="#1D85EE"/>
<path d="M71.9805 110.154H95.2409" stroke="#1D85EE" stroke-width="0.646313" stroke-miterlimit="10"/>
<path d="M72.8906 113.5H85.5246" stroke="#1D85EE" stroke-width="0.646313" stroke-miterlimit="10"/>
<path d="M122.662 112.078H109.61C108.94 112.078 108.249 111.534 108.067 110.864C107.886 110.195 108.282 109.651 108.952 109.651H122.004C122.674 109.651 123.365 110.195 123.546 110.864C123.728 111.534 123.332 112.078 122.662 112.078Z" fill="#1D85EE"/>
<path d="M126.83 132.083H113.777C113.108 132.083 112.417 131.54 112.235 130.87C112.054 130.2 112.45 129.657 113.12 129.657H126.172C126.842 129.657 127.533 130.2 127.714 130.87C127.896 131.54 127.5 132.083 126.83 132.083Z" fill="#1D85EE"/>
<path d="M76.0117 124.247H126.397" stroke="#1D85EE" stroke-width="0.646313" stroke-miterlimit="10"/>
<path d="M126.996 83.4136C120.83 83.8801 126.661 98.0128 131.333 112.714H150.276C137.776 112.568 137.863 82.6046 126.996 83.4136Z" fill="#2E2C3F"/>
<path d="M91.6096 12.3643C91.6096 12.3643 79.1533 11.7958 81.1357 29.631C82.2509 39.7185 90.2975 63.7709 93.4097 83.4139H126.996C137.863 82.6049 137.775 112.569 150.276 112.714C150.793 112.714 151.332 112.67 151.901 112.569C172.12 108.932 148.504 47.4665 146.522 29.6313C144.663 12.8674 155.552 12.3647 156.865 12.3647H91.6096V12.3643Z" fill="white"/>
<path d="M93.4102 83.4136H126.996" stroke="#2E2C3F" stroke-width="0.34798" stroke-miterlimit="10"/>
<path d="M141.351 12.3643H91.6096C91.6096 12.3643 79.1533 11.7958 81.1357 29.631" stroke="#2E2C3F" stroke-width="0.34798" stroke-miterlimit="10"/>
<path d="M94.3123 28.6399C94.3123 28.9423 94.2414 29.2186 94.0997 29.469C93.9627 29.7146 93.7525 29.913 93.4691 30.0642C93.1904 30.2106 92.8479 30.2838 92.4417 30.2838H91.7543V31.9702H90.3655V26.9748H92.4417C92.8432 26.9748 93.1833 27.0457 93.462 27.1874C93.7454 27.3291 93.958 27.5251 94.0997 27.7755C94.2414 28.0258 94.3123 28.314 94.3123 28.6399ZM92.307 29.1785C92.6991 29.1785 92.8951 28.9989 92.8951 28.6399C92.8951 28.2762 92.6991 28.0943 92.307 28.0943H91.7543V29.1785H92.307ZM94.6435 29.9791C94.6435 29.5682 94.7167 29.2092 94.8631 28.9021C95.0143 28.5951 95.2174 28.3589 95.4725 28.1935C95.7323 28.0282 96.0205 27.9455 96.337 27.9455C96.6109 27.9455 96.8471 27.9999 97.0455 28.1085C97.2439 28.2172 97.3974 28.3636 97.5061 28.5478V27.9951H98.8949V31.9702H97.5061V31.4175C97.3974 31.6018 97.2416 31.7482 97.0384 31.8568C96.84 31.9655 96.6062 32.0198 96.337 32.0198C96.0205 32.0198 95.7323 31.9371 95.4725 31.7718C95.2174 31.6065 95.0143 31.3703 94.8631 31.0632C94.7167 30.7515 94.6435 30.3901 94.6435 29.9791ZM97.5061 29.9791C97.5061 29.7241 97.4352 29.5233 97.2935 29.3769C97.1565 29.2304 96.9865 29.1572 96.7834 29.1572C96.5755 29.1572 96.4031 29.2304 96.2661 29.3769C96.1291 29.5186 96.0606 29.7193 96.0606 29.9791C96.0606 30.2342 96.1291 30.4373 96.2661 30.5885C96.4031 30.7349 96.5755 30.8082 96.7834 30.8082C96.9865 30.8082 97.1565 30.7349 97.2935 30.5885C97.4352 30.4421 97.5061 30.2389 97.5061 29.9791ZM103.966 27.9951L101.444 33.8621H99.9343L100.884 31.8002L99.254 27.9951H100.799L101.635 30.2484L102.443 27.9951H103.966ZM105.718 28.6966C105.874 28.4699 106.063 28.2904 106.285 28.1581C106.507 28.0258 106.746 27.9597 107.001 27.9597V29.4406H106.611C106.309 29.4406 106.084 29.4997 105.938 29.6178C105.791 29.7359 105.718 29.9413 105.718 30.2342V31.9702H104.329V27.9951H105.718V28.6966ZM109.348 32.0198C108.951 32.0198 108.594 31.9371 108.278 31.7718C107.966 31.6065 107.721 31.3703 107.541 31.0632C107.362 30.7562 107.272 30.3948 107.272 29.9791C107.272 29.5682 107.362 29.2092 107.541 28.9021C107.725 28.5951 107.973 28.3589 108.285 28.1935C108.602 28.0282 108.958 27.9455 109.355 27.9455C109.752 27.9455 110.106 28.0282 110.418 28.1935C110.734 28.3589 110.982 28.5951 111.162 28.9021C111.346 29.2092 111.438 29.5682 111.438 29.9791C111.438 30.3901 111.346 30.7515 111.162 31.0632C110.982 31.3703 110.734 31.6065 110.418 31.7718C110.101 31.9371 109.745 32.0198 109.348 32.0198ZM109.348 30.8152C109.542 30.8152 109.702 30.7444 109.83 30.6027C109.962 30.4562 110.028 30.2484 110.028 29.9791C110.028 29.7099 109.962 29.5044 109.83 29.3627C109.702 29.221 109.544 29.1501 109.355 29.1501C109.166 29.1501 109.008 29.221 108.88 29.3627C108.753 29.5044 108.689 29.7099 108.689 29.9791C108.689 30.2531 108.75 30.461 108.873 30.6027C108.996 30.7444 109.154 30.8152 109.348 30.8152ZM113.392 26.7268V31.9702H112.003V26.7268H113.392ZM115.572 26.7268V31.9702H114.183V26.7268H115.572Z" fill="#2E2C3F"/>
<path d="M133.615 33.2681C136.507 33.2681 138.851 30.9238 138.851 28.032C138.851 25.1402 136.507 22.7959 133.615 22.7959C130.723 22.7959 128.379 25.1402 128.379 28.032C128.379 30.9238 130.723 33.2681 133.615 33.2681Z" fill="#F5B55D"/>
<path d="M133.914 30.2785V30.9809H133.4V30.2848C132.785 30.2472 132.189 30.0465 131.863 29.7643L132.145 29.1309C132.453 29.3818 132.923 29.5636 133.4 29.6075V28.3529C132.704 28.1836 131.957 27.9579 131.957 27.0858C131.957 26.4462 132.421 25.8877 133.4 25.7936V25.085H133.914V25.7811C134.378 25.8061 134.849 25.9441 135.188 26.1636L134.931 26.797C134.598 26.6026 134.247 26.496 133.914 26.4583V27.7255C134.61 27.8948 135.37 28.1143 135.37 28.9863C135.37 29.626 134.899 30.1782 133.914 30.2785ZM133.4 27.5938V26.4772C132.955 26.5461 132.767 26.7719 132.767 27.0478C132.767 27.3492 133.036 27.4872 133.4 27.5938ZM134.567 29.0428C134.567 28.7355 134.291 28.5912 133.915 28.4846V29.595C134.372 29.5256 134.567 29.3124 134.567 29.0428Z" fill="white"/>
<path d="M91.8672 40.6606H115.127" stroke="#1D85EE" stroke-width="0.646313" stroke-miterlimit="10"/>
<path d="M92.7891 44.0068H105.423" stroke="#1D85EE" stroke-width="0.646313" stroke-miterlimit="10"/>
<path d="M142.556 42.5844H129.503C128.833 42.5844 128.14 42.0413 127.956 41.3713C127.771 40.7014 128.164 40.1582 128.835 40.1582H141.887C142.557 40.1582 143.25 40.7014 143.435 41.3713C143.619 42.0413 143.226 42.5844 142.556 42.5844Z" fill="#1D85EE"/>
<path d="M94.9453 52.3975H118.205" stroke="#1D85EE" stroke-width="0.646313" stroke-miterlimit="10"/>
<path d="M95.8672 55.7446H108.502" stroke="#1D85EE" stroke-width="0.646313" stroke-miterlimit="10"/>
<path d="M145.634 54.3217H132.581C131.911 54.3217 131.218 53.7786 131.034 53.1086C130.849 52.4387 131.243 51.8955 131.913 51.8955H144.965C145.635 51.8955 146.328 52.4387 146.513 53.1086C146.697 53.7786 146.304 54.3217 145.634 54.3217Z" fill="#1D85EE"/>
<path d="M98.1484 64.1348H121.409" stroke="#1D85EE" stroke-width="0.646313" stroke-miterlimit="10"/>
<path d="M99.0703 67.481H111.705" stroke="#1D85EE" stroke-width="0.646313" stroke-miterlimit="10"/>
<path d="M148.841 66.0591H135.788C135.118 66.0591 134.426 65.5159 134.241 64.8459C134.056 64.176 134.45 63.6328 135.12 63.6328H148.172C148.842 63.6328 149.535 64.176 149.72 64.8459C149.905 65.5159 149.511 66.0591 148.841 66.0591Z" fill="#1D85EE"/>
<path d="M101.855 75.8716H125.116" stroke="#1D85EE" stroke-width="0.646313" stroke-miterlimit="10"/>
<path d="M102.777 79.2178H115.412" stroke="#1D85EE" stroke-width="0.646313" stroke-miterlimit="10"/>
<path d="M152.544 77.7959H139.492C138.822 77.7959 138.129 77.2527 137.944 76.5827C137.759 75.9128 138.153 75.3696 138.823 75.3696H151.875C152.545 75.3696 153.238 75.9128 153.423 76.5827C153.608 77.2527 153.214 77.7959 152.544 77.7959Z" fill="#1D85EE"/>
<path d="M6.51953 88.7768V140.024C6.51953 141.651 7.82916 142.96 9.45026 142.96H46.7205C48.3416 142.96 49.6565 141.651 49.6565 140.024V88.7768C49.6565 87.1557 48.3416 85.8408 46.7205 85.8408H9.45026C7.82916 85.8408 6.51953 87.1557 6.51953 88.7768Z" fill="#2E2C3F"/>
<path d="M9.82422 88.7768V140.024C9.82422 141.651 11.1338 142.96 12.7549 142.96H50.0252C51.6463 142.96 52.9611 141.651 52.9611 140.024V88.7768C52.9611 87.1557 51.6463 85.8408 50.0252 85.8408H12.7549C11.1335 85.8408 9.82422 87.1557 9.82422 88.7768Z" fill="#1D85EE"/>
<path d="M9.82422 88.7768V106.931H52.9611V88.7768C52.9611 87.1557 51.6463 85.8408 50.0252 85.8408H12.7549C11.1335 85.8408 9.82422 87.1557 9.82422 88.7768Z" fill="#2E2C3F"/>
<path d="M12.7549 85.8408C11.1338 85.8408 9.82422 87.1557 9.82422 88.7768V106.931" stroke="white" stroke-width="0.167301" stroke-miterlimit="10"/>
<path d="M16.9392 102.701H45.8396C46.6646 102.701 47.3335 102.032 47.3335 101.207V93.5984C47.3335 92.7734 46.6646 92.1045 45.8396 92.1045H16.9392C16.1142 92.1045 15.4453 92.7734 15.4453 93.5984V101.207C15.4453 102.032 16.1142 102.701 16.9392 102.701Z" fill="#1D85EE"/>
<path d="M46.2759 101.207V93.5986C46.2759 93.3568 46.0797 93.1606 45.8379 93.1606H16.9376C16.6958 93.1606 16.5 93.3564 16.5 93.5982V101.207C16.5 101.448 16.6958 101.644 16.9372 101.644H45.8386C46.0801 101.644 46.2759 101.448 46.2759 101.207Z" fill="white"/>
<path d="M43.2312 117.292C45.499 117.292 47.3374 115.454 47.3374 113.186C47.3374 110.918 45.499 109.08 43.2312 109.08C40.9634 109.08 39.125 110.918 39.125 113.186C39.125 115.454 40.9634 117.292 43.2312 117.292Z" fill="white" stroke="#2E2C3F" stroke-width="0.366619" stroke-miterlimit="10"/>
<path d="M31.3914 117.292C33.6592 117.292 35.4976 115.454 35.4976 113.186C35.4976 110.918 33.6592 109.08 31.3914 109.08C29.1236 109.08 27.2852 110.918 27.2852 113.186C27.2852 115.454 29.1236 117.292 31.3914 117.292Z" fill="white" stroke="#2E2C3F" stroke-width="0.366619" stroke-miterlimit="10"/>
<path d="M19.5515 117.292C21.8193 117.292 23.6578 115.454 23.6578 113.186C23.6578 110.918 21.8193 109.08 19.5515 109.08C17.2837 109.08 15.4453 110.918 15.4453 113.186C15.4453 115.454 17.2837 117.292 19.5515 117.292Z" fill="white" stroke="#2E2C3F" stroke-width="0.366619" stroke-miterlimit="10"/>
<path d="M43.2273 127.989C45.4951 127.989 47.3335 126.15 47.3335 123.883C47.3335 121.615 45.4951 119.776 43.2273 119.776C40.9595 119.776 39.1211 121.615 39.1211 123.883C39.1211 126.15 40.9595 127.989 43.2273 127.989Z" fill="white" stroke="#2E2C3F" stroke-width="0.366619" stroke-miterlimit="10"/>
<path d="M31.3875 127.989C33.6553 127.989 35.4937 126.15 35.4937 123.883C35.4937 121.615 33.6553 119.776 31.3875 119.776C29.1197 119.776 27.2812 121.615 27.2812 123.883C27.2812 126.15 29.1197 127.989 31.3875 127.989Z" fill="white" stroke="#2E2C3F" stroke-width="0.366619" stroke-miterlimit="10"/>
<path d="M43.2273 138.079C45.4951 138.079 47.3335 136.241 47.3335 133.973C47.3335 131.705 45.4951 129.867 43.2273 129.867C40.9595 129.867 39.1211 131.705 39.1211 133.973C39.1211 136.241 40.9595 138.079 43.2273 138.079Z" fill="white" stroke="#2E2C3F" stroke-width="0.366619" stroke-miterlimit="10"/>
<path d="M31.3875 138.079C33.6553 138.079 35.4937 136.241 35.4937 133.973C35.4937 131.705 33.6553 129.867 31.3875 129.867C29.1197 129.867 27.2812 131.705 27.2812 133.973C27.2812 136.241 29.1197 138.079 31.3875 138.079Z" fill="white" stroke="#2E2C3F" stroke-width="0.366619" stroke-miterlimit="10"/>
<path d="M19.5515 119.776C21.8193 119.776 23.6578 121.615 23.6578 123.883C23.6578 123.917 23.6536 123.95 23.6525 123.984V133.872C23.6532 133.906 23.6578 133.939 23.6578 133.974C23.6578 136.241 21.8193 138.08 19.5515 138.08C17.2838 138.08 15.4453 136.241 15.4453 133.974V123.883C15.4453 121.615 17.2838 119.776 19.5515 119.776Z" fill="white" stroke="#2E2C3F" stroke-width="0.366619" stroke-miterlimit="10"/>
<path d="M21.4335 89.7914C21.893 89.7914 22.2655 89.4189 22.2655 88.9594C22.2655 88.4999 21.893 88.1274 21.4335 88.1274C20.9741 88.1274 20.6016 88.4999 20.6016 88.9594C20.6016 89.4189 20.9741 89.7914 21.4335 89.7914Z" fill="#F5B55D"/>
<path d="M16.2773 89.7914C16.7368 89.7914 17.1093 89.4189 17.1093 88.9594C17.1093 88.4999 16.7368 88.1274 16.2773 88.1274C15.8178 88.1274 15.4453 88.4999 15.4453 88.9594C15.4453 89.4189 15.8178 89.7914 16.2773 89.7914Z" fill="#F5B55D"/>
<path d="M36.2054 27.0976C36.2054 27.0976 32.1257 25.48 32.0038 33.9095C31.9233 39.4859 24.477 34.7299 26.0556 46.0306C26.9245 52.2516 36.5082 50.3437 36.5082 50.3437L41.8038 30.3286L36.2054 27.0976Z" fill="#2E2C3F"/>
<path d="M31.8789 45.866C31.8789 45.866 34.4093 42.5284 34.3327 36.5966C34.3121 35.0037 39.8509 39.7823 39.8509 39.7823L39.8011 49.3849L35.2706 51.2948L31.8789 45.866Z" fill="#FBAE94"/>
<path d="M34.3933 35.1337C34.3933 35.1337 33.8965 39.2089 35.4281 41.5146C36.9593 43.8206 38.7002 44.692 40.3959 43.7715C43.2294 42.2333 44.5693 38.5678 45.0885 36.7077C45.6076 34.8476 46.6117 28.2134 43.0454 27.0062C39.4792 25.799 36.5409 27.2588 35.3016 29.9558C34.0623 32.6527 34.3933 35.1337 34.3933 35.1337Z" fill="#FBAE94"/>
<path d="M35.4297 41.5146C36.7139 43.4483 38.1451 44.3733 39.5735 44.0785" stroke="#2E2C3F" stroke-width="0.183327" stroke-miterlimit="10"/>
<path d="M34.2589 34.0199C34.2589 34.0199 35.8218 34.1724 38.9842 33.9352C42.7253 33.6547 44.3565 31.172 44.3565 31.172C44.3565 31.172 45.5975 32.5458 45.3714 35.2675C45.3714 35.2675 48.6669 33.4412 46.1668 29.7088C46.1668 29.7088 45.7951 26.3673 42.602 25.5604C39.4075 24.7532 36.9945 26.0081 35.3797 28.0121C33.2377 30.6707 34.2589 34.0199 34.2589 34.0199Z" fill="#2E2C3F"/>
<path d="M40.6025 38.5928C40.6025 38.5928 41.1237 39.9247 40.6123 40.0254C40.1008 40.1257 39.8047 39.8906 39.8047 39.8906" stroke="#2E2C3F" stroke-width="0.183327" stroke-miterlimit="10"/>
<path d="M38.7969 40.9331C38.7969 40.9331 39.3947 42.1852 40.6134 41.3L38.7969 40.9331Z" fill="white"/>
<path d="M35.0745 34.1564C35.0745 34.1564 34.2411 32.7256 33.4136 33.5007C32.5862 34.2763 34.3773 37.4282 34.3773 37.4282" fill="#FBAE94"/>
<path d="M43.4548 37.649C43.55 37.3933 43.4887 37.1345 43.3179 37.0709C43.1471 37.0074 42.9315 37.1631 42.8364 37.4188C42.7412 37.6745 42.8025 37.9334 42.9733 37.9969C43.144 38.0605 43.3596 37.9047 43.4548 37.649Z" fill="#2E2C3F"/>
<path d="M38.74 36.3194C38.8351 36.0637 38.7738 35.8049 38.6031 35.7413C38.4323 35.6778 38.2167 35.8335 38.1215 36.0892C38.0264 36.345 38.0877 36.6038 38.2584 36.6673C38.4292 36.7309 38.6448 36.5751 38.74 36.3194Z" fill="#2E2C3F"/>
<path d="M42.7539 35.8979C42.7539 35.8979 43.7977 35.763 44.3917 36.4518L42.7539 35.8979Z" fill="#2E2C3F"/>
<path d="M37.8164 34.9772C37.8164 34.9772 38.8201 34.6609 39.526 35.234L37.8164 34.9772Z" fill="#2E2C3F"/>
<path d="M34.5567 34.4878C34.5567 34.4878 34.1473 33.8715 33.8926 34.0764C33.6379 34.2812 34.2584 35.7065 34.4177 36.0654" fill="#2E2C3F"/>
<path d="M36.2047 27.0962C36.2047 27.0962 33.8788 28.6762 33.8555 31.733" stroke="white" stroke-width="0.163573" stroke-miterlimit="10"/>
<path d="M44.2902 47.3442C44.2902 47.3442 46.5405 48.1438 46.0837 53.0155C45.627 57.8868 45.7433 66.2501 45.7433 66.2501L63.6061 68.4753L62.8696 70.9437C62.8696 70.9437 60.1033 71.0371 52.7057 71.845C47.864 72.3739 43.5571 71.73 41.3267 70.218C36.8358 67.1733 41.5169 51.0366 41.5169 51.0366L44.2902 47.3442Z" fill="#FBAE94"/>
<path d="M44.3325 47.2271C44.3325 47.2271 46.3138 48.2527 46.3138 51.2368C46.3138 54.2208 45.7699 65.5033 46.0731 65.6434C46.3762 65.7831 47.7283 66.0629 47.7283 66.0629C47.7283 66.0629 49.2201 66.3116 49.5933 66.6844C49.5933 66.6844 47.9924 69.7925 48.5753 72.1006C48.5753 72.1006 48.0624 72.4504 46.6869 71.9375C46.6869 71.9375 43.7496 71.9142 42.4675 71.5414C41.1854 71.1686 41.8379 66.8558 41.8379 66.8558C41.8379 66.8558 43.7963 52.3095 43.7729 52.3792C43.7496 52.4492 43.843 47.3905 43.843 47.3905L44.3325 47.2271Z" fill="#1D85EE"/>
<path d="M74.1641 122.538C74.1641 122.538 75.5956 124.828 76.2109 126.444L78.1166 125.915L76.4506 122.487L74.1641 122.538Z" fill="#2E2C3F"/>
<path d="M73.3676 117.748C73.3676 117.748 73.3188 121.997 74.2557 122.646C75.1925 123.295 76.0998 123.328 77.5324 124.076C78.965 124.823 80.198 125.185 81.3839 125.971C82.5699 126.757 83.7464 127.096 86.2597 126.238C88.7731 125.38 91.9421 123.9 90.2336 122.406C88.525 120.912 81.4428 120.936 81.4428 120.936L73.3676 117.748Z" fill="#2E2C3F"/>
<path d="M72.3984 114.831C72.3984 114.831 73.1844 116.233 73.32 117.467C73.4558 118.701 73.9143 121.073 74.9989 121.964C76.0835 122.855 78.9553 124.391 82.3191 125.731C83.9161 126.367 86.6392 125.656 88.6209 124.273C90.6026 122.89 90.5019 122.467 89.7431 122.09C88.9839 121.712 85.3226 120.941 83.0065 119.563C80.6903 118.183 78.3885 116.019 77.5182 114.638C76.3489 112.783 76.504 112.911 76.504 112.911L72.3984 114.831Z" fill="#FBAE94"/>
<path d="M87.9175 121.451C87.9175 121.451 85.5386 123.04 84.521 125.91L83.5183 126.178L81.7578 125.756C81.7578 125.756 82.5982 122.029 85.8895 120.827L87.9175 121.451Z" fill="#2E2C3F"/>
<path d="M68.168 135.951C68.168 135.951 68.8393 138.566 68.9365 140.293L70.9127 140.366L70.3625 136.594L68.168 135.951Z" fill="#2E2C3F"/>
<path d="M68.8575 131.144C68.8575 131.144 67.5245 135.179 68.221 136.081C68.9174 136.983 69.7717 137.289 70.911 138.436C72.0502 139.582 73.1156 140.3 74.0079 141.408C74.9001 142.517 75.9188 143.196 78.574 143.139C81.2291 143.082 84.6978 142.631 83.5216 140.69C82.3454 138.749 75.5882 136.628 75.5882 136.628L68.8575 131.144Z" fill="#2E2C3F"/>
<path d="M68.8191 128.071C68.8191 128.071 69.1438 129.644 68.8996 130.862C68.6553 132.079 68.3742 134.478 69.1382 135.656C69.9023 136.833 72.1745 139.167 74.9746 141.462C76.3041 142.552 79.1149 142.699 81.422 141.98C83.7291 141.262 83.7615 140.829 83.1522 140.239C82.5428 139.649 79.2867 137.807 77.4966 135.791C75.7066 133.775 74.168 131.016 73.7566 129.436C73.2037 127.314 73.3131 127.483 73.3131 127.483L68.8191 128.071Z" fill="#FBAE94"/>
<path d="M81.6004 139.078C81.6004 139.078 78.8522 139.872 77.013 142.299L75.9762 142.251L74.4258 141.316C74.4258 141.316 76.3552 138.018 79.8559 137.869L81.6004 139.078Z" fill="#2E2C3F"/>
<path d="M62.0267 98.0031C61.3268 97.4738 47.38 92.482 45.5398 91.8294C45.4631 91.8002 45.4102 91.7765 45.375 91.7646C45.422 91.7765 45.4631 91.7824 45.5102 91.7939C53.5536 93.7989 63.4259 95.904 63.4259 95.904L72.565 117.629C73.7235 120.963 62.7733 98.5619 62.0267 98.0031Z" fill="#2E2C3F"/>
<path d="M77.6738 131.188C77.6738 131.188 70.818 133.587 66.3672 132.441C66.3672 132.441 53.126 100.361 52.6675 99.3319C52.456 98.8556 49.1044 95.41 45.5414 91.8295C45.5354 91.8176 45.5236 91.8062 45.5121 91.7943C41.3432 87.602 36.9102 83.2335 36.9102 83.2335L42.1609 68.6753C42.1609 68.6753 55.0669 78.7827 59.5177 84.1449C62.3282 87.5316 68.6255 105.294 73.0352 118C74.1936 121.334 75.3576 124.38 76.1572 126.667L76.1631 126.673C76.275 127.002 76.3809 127.308 76.4805 127.602L76.5746 127.89C77.2682 129.959 77.6738 131.188 77.6738 131.188Z" fill="#2E2C3F"/>
<path d="M26.2372 71.0739C26.2372 71.0739 24.8482 83.2337 31.0897 86.9633C37.3313 90.6929 63.4301 95.9021 63.4301 95.9021L72.5735 117.867C72.5735 117.867 78.0538 116.801 79.5 112.843C79.5 112.843 74.0957 89.7034 71.4315 86.6588C68.7673 83.6141 44.5623 74.3279 44.5623 74.3279L42.1646 68.6762L33.5254 67.1729L26.2372 71.0739Z" fill="#2E2C3F"/>
<path d="M45.5117 91.7939C53.5552 93.799 63.4274 95.904 63.4274 95.904L72.5666 117.629" stroke="white" stroke-width="0.163573" stroke-miterlimit="10"/>
<path d="M51.6423 77.1343C47.5995 75.4934 44.5604 74.3273 44.5604 74.3273L42.8672 71.6108" stroke="white" stroke-width="0.163573" stroke-miterlimit="10"/>
<path d="M33.6196 41.1665C33.6196 41.1665 27.7763 42.2232 26.2158 46.9259C24.5017 52.0916 25.0034 72.1712 25.8026 74.9684C25.8026 74.9684 39.5459 75.3705 42.7581 69.4512C42.7581 69.4512 42.4202 65.7599 42.5811 64.737C43.0758 61.5973 44.6935 59.447 44.8457 56.973C44.998 54.499 43.8789 49.0922 44.3356 47.2272L39.8598 43.9868C39.8598 43.9868 40.0929 46.9942 38.6613 46.4308C36.6144 45.626 33.6196 41.1665 33.6196 41.1665Z" fill="#1D85EE"/>
<path d="M42.7595 69.4512C42.7595 69.4512 42.4216 65.7599 42.5825 64.737C43.0772 61.5973 44.6949 59.447 44.8471 56.973C44.9231 55.7404 44.6834 53.7796 44.4799 51.8916" stroke="#2E2C3F" stroke-width="0.183327" stroke-miterlimit="10"/>
<path d="M27.8151 43.5767C27.8151 43.5767 25.3794 45.0992 23.7047 54.5376C22.0299 63.9761 20.2033 68.7714 23.6287 70.4462C27.0538 72.1206 42.1252 66.1076 42.1252 66.1076L41.8207 62.8344L28.4241 63.2148C28.4241 63.2148 31.3165 52.5584 31.1642 48.7525C31.012 44.9466 27.8151 43.5767 27.8151 43.5767Z" fill="#FBAE94"/>
<path d="M62.7378 66.2887L50.5588 66.2124L41.6914 69.6758L60.1468 69.6379L62.7378 66.2887Z" fill="#2E2C3F"/>
<path d="M68.7417 55.9163C66.7893 58.7875 58.8594 70.3215 58.8594 70.3215L64.2397 68.2005L72.7183 55.5846C72.8535 55.384 72.7019 55.115 72.4601 55.1268L69.9301 55.2509C69.4507 55.2746 69.0117 55.5195 68.7417 55.9163Z" fill="#2E2C3F"/>
<path d="M41.6914 69.6757V70.3906H59.5409L60.1468 69.6377L41.6914 69.6757Z" fill="white"/>
<path d="M69.4246 55.8499C67.4722 58.7211 59.543 70.3903 59.543 70.3903L64.8609 68.1999L73.4009 55.5182C73.536 55.3176 73.3845 55.0486 73.1427 55.0604L70.6126 55.1845C70.1336 55.2082 69.6946 55.4527 69.4246 55.8499Z" fill="white"/>
<path d="M67.9642 61.6482C68.1717 61.2887 68.1863 60.9087 67.9969 60.7993C67.8074 60.6899 67.4856 60.8926 67.2781 61.252C67.0706 61.6115 67.0559 61.9915 67.2454 62.1009C67.4349 62.2103 67.7567 62.0076 67.9642 61.6482Z" fill="#2E2C3F"/>
<path d="M40.2969 63.0835C40.2969 63.0835 41.3741 62.4079 42.0316 61.3122C42.689 60.2165 43.1273 59.4863 44.2226 58.9386C45.3183 58.3909 46.2311 57.7516 47.3084 57.9341C48.3856 58.1167 49.536 58.7741 49.536 58.7741C49.536 58.7741 49.3901 59.4316 48.5316 59.1939C47.6735 58.9567 46.9248 58.9929 46.9248 58.9929L45.9935 59.6319C45.9935 59.6319 47.4178 59.9789 47.4544 60.2346C47.4544 60.2346 48.3491 60.4538 48.3491 60.9286C48.3491 60.9286 49.2803 61.6773 49.0065 62.371C48.7326 63.065 48.0386 63.7952 47.4728 63.3754C47.4728 63.3754 47.9658 62.5354 47.5822 62.4623C47.1986 62.3891 46.2674 63.1563 45.665 63.7221C45.0623 64.2882 43.9484 65.4568 43.0722 65.8403C42.1956 66.2239 40.461 66.589 40.461 66.589L40.2969 63.0835Z" fill="#FBAE94"/>
<path d="M45.9935 59.6324C45.9935 59.6324 44.7884 59.5958 44.4414 59.7784" stroke="#2E2C3F" stroke-width="0.183327" stroke-miterlimit="10"/>
<path d="M47.4559 60.2354L45.8125 60.4541" stroke="#2E2C3F" stroke-width="0.183327" stroke-miterlimit="10"/>
<path d="M48.3483 60.9292C48.3483 60.9292 46.8694 61.0752 46.3945 61.4041" stroke="#2E2C3F" stroke-width="0.183327" stroke-miterlimit="10"/>
<path d="M32.2515 63.1105C32.2515 63.1105 31.0081 62.7688 30.4799 63.0485H28.7083C28.7083 63.0485 30.3555 56.77 30.4489 56.0551C30.4496 56.0506 30.4461 56.0461 30.4461 56.0415C30.6701 54.9451 32.1644 47.3901 31.2568 45.3161C30.2778 43.0783 31.1948 41.9746 31.1948 41.9746C31.1948 41.9746 26.8277 42.9846 25.3825 46.4815C23.9373 49.9784 23.1914 55.5263 23.1914 55.5263C23.1914 55.5263 21.4041 63.1102 20.9066 65.4103C20.4095 67.7104 20.4405 71.8132 23.6729 71.6268C26.9053 71.4404 29.2678 70.6945 29.2678 70.6945C29.2678 70.6945 31.7543 70.6945 32.5626 69.6378C32.5626 69.6378 33.9301 63.9808 32.2515 63.1105Z" fill="#1D85EE"/>
<path d="M32.2502 63.1109C32.2502 63.1109 31.0068 62.7691 30.4786 63.0489H28.707C28.707 63.0489 31.652 51.7193 31.4423 48.751" stroke="#2E2C3F" stroke-width="0.183327" stroke-miterlimit="10"/>
<path d="M28.7101 63.0483C28.7101 63.0483 26.3633 62.7996 24.9648 63.4992" stroke="#2E2C3F" stroke-width="0.183327" stroke-miterlimit="10"/>
<path d="M30.4805 63.0483C30.4805 63.0483 30.9781 66.3898 29.7656 70.0264" stroke="#2E2C3F" stroke-width="0.183327" stroke-miterlimit="10"/>
<path d="M62.0743 70.1395C62.0743 70.1395 62.0562 71.278 62.5304 71.2289C63.0045 71.1798 63.44 70.7324 63.44 70.7324C63.44 70.7324 63.8459 71.2564 64.504 70.4116C64.504 70.4116 65.2228 70.4579 65.6781 69.3336C65.6781 69.3336 66.3014 68.9253 66.4262 68.4794C66.5509 68.0334 66.863 66.1385 66.709 65.9273C66.709 65.9273 66.6854 65.7873 66.538 65.8462C66.538 65.8462 66.5815 65.3271 66.2958 65.2741C66.0102 65.2215 65.8928 65.7789 65.8928 65.7789C65.8928 65.7789 65.6262 65.1549 65.3398 65.2612C65.0531 65.3671 64.626 67.4136 64.626 67.4136C64.626 67.4136 64.4859 66.0259 64.1236 66.6112C63.7609 67.1969 63.6174 68.1261 63.1063 68.9469C62.5952 69.7681 62.0743 70.1395 62.0743 70.1395Z" fill="#FBAE94"/>
<path d="M64.6247 67.4136C64.6247 67.4136 64.5233 68.0881 64.1759 68.8434C63.8289 69.5987 63.4648 70.4488 63.4648 70.4488" stroke="#2E2C3F" stroke-width="0.183327" stroke-miterlimit="10"/>
<path d="M65.8888 65.7788C65.8888 65.7788 65.717 67.3619 65.4519 68.1019C65.1868 68.8419 64.6328 70.0237 64.6328 70.0237" stroke="#2E2C3F" stroke-width="0.183327" stroke-miterlimit="10"/>
<path d="M65.6758 69.334C65.6758 69.334 66.1722 68.1313 66.2984 67.438" stroke="#2E2C3F" stroke-width="0.183327" stroke-miterlimit="10"/>
<path d="M147.655 104.95C146.614 104.95 145.77 106.188 145.77 107.714C145.77 109.241 146.614 110.479 147.655 110.479" stroke="#2E2C3F" stroke-width="0.483263" stroke-miterlimit="10"/>
<path d="M141.2 104.741C140.155 104.741 139.309 105.983 139.309 107.514C139.309 109.045 140.155 110.286 141.2 110.286" stroke="#2E2C3F" stroke-width="0.483263" stroke-miterlimit="10"/>
<path d="M134.804 104.7C133.752 104.7 132.898 105.95 132.898 107.493C132.898 109.036 133.751 110.287 134.804 110.287" stroke="#2E2C3F" stroke-width="0.483263" stroke-miterlimit="10"/>
<path d="M128.508 104.491C127.416 104.491 126.531 105.788 126.531 107.388C126.531 108.989 127.416 110.286 128.508 110.286" stroke="#2E2C3F" stroke-width="0.483263" stroke-miterlimit="10"/>
<path d="M122.057 104.574C120.981 104.574 120.109 105.853 120.109 107.43C120.109 109.007 120.981 110.286 122.057 110.286" stroke="#2E2C3F" stroke-width="0.483263" stroke-miterlimit="10"/>
<path d="M115.773 118.301C115.773 118.301 116.17 142.887 117.055 143.147C117.94 143.408 154.076 142.762 154.791 141.654C155.506 140.545 130.508 114.338 130.508 114.338L115.773 118.301Z" fill="#2E2C3F"/>
<path d="M116.887 106.829C116.887 106.829 117.352 111.687 118.012 117.93C118.951 126.92 120.285 138.788 121.165 143.205H154.795C155.393 142.905 152.97 124.357 152.57 118.744C152.559 118.616 152.552 118.488 152.544 118.374C152.537 118.257 152.53 118.143 152.522 118.026C152.21 113.014 151.591 107.646 151.591 107.646L116.887 106.829Z" fill="white"/>
<path d="M154.791 143.204C155.388 142.904 152.964 124.358 152.566 118.746" stroke="#2E2C3F" stroke-width="0.120824" stroke-miterlimit="10" stroke-linecap="round" stroke-linejoin="round"/>
<g opacity="0.4">
<path d="M146.194 125.059L149.116 125.066C149.422 125.067 149.643 124.811 149.608 124.494L149.282 121.504C149.247 121.186 148.97 120.924 148.662 120.919L145.729 120.867C145.413 120.861 145.187 121.118 145.222 121.441L145.56 124.475C145.596 124.797 145.88 125.058 146.194 125.059Z" fill="#1D85EE"/>
<path d="M139.037 125.041L142.112 125.048C142.435 125.049 142.666 124.786 142.629 124.461L142.284 121.395C142.247 121.068 141.955 120.799 141.631 120.794L138.544 120.739C138.213 120.733 137.974 120.997 138.012 121.328L138.369 124.441C138.408 124.772 138.707 125.04 139.037 125.041Z" fill="#1D85EE"/>
<path d="M131.498 125.022L134.738 125.03C135.078 125.03 135.321 124.761 135.282 124.427L134.916 121.28C134.877 120.945 134.569 120.669 134.228 120.663L130.975 120.605C130.626 120.599 130.374 120.87 130.414 121.21L130.793 124.407C130.834 124.745 131.149 125.021 131.498 125.022Z" fill="#1D85EE"/>
<path d="M123.546 125.002L126.965 125.011C127.323 125.012 127.58 124.735 127.539 124.392L127.15 121.159C127.109 120.815 126.784 120.531 126.424 120.525L122.991 120.464C122.622 120.457 122.356 120.735 122.399 121.085L122.802 124.37C122.845 124.718 123.178 125.001 123.546 125.002Z" fill="#1D85EE"/>
<path d="M147.069 132.944L149.971 132.868C150.275 132.86 150.494 132.599 150.46 132.284L150.136 129.318C150.101 129.002 149.826 128.749 149.52 128.752L146.608 128.785C146.295 128.788 146.07 129.05 146.105 129.371L146.44 132.381C146.475 132.7 146.757 132.952 147.069 132.944Z" fill="#1D85EE"/>
<path d="M139.963 133.13L143.016 133.05C143.336 133.042 143.566 132.773 143.529 132.451L143.186 129.409C143.15 129.085 142.86 128.826 142.539 128.829L139.474 128.863C139.145 128.866 138.908 129.136 138.945 129.465L139.3 132.553C139.338 132.88 139.635 133.139 139.963 133.13Z" fill="#1D85EE"/>
<path d="M132.481 133.327L135.697 133.242C136.034 133.234 136.276 132.958 136.237 132.627L135.874 129.505C135.836 129.173 135.531 128.907 135.192 128.911L131.963 128.946C131.616 128.95 131.366 129.227 131.407 129.564L131.782 132.734C131.822 133.071 132.135 133.336 132.481 133.327Z" fill="#1D85EE"/>
<path d="M124.587 133.532L127.98 133.444C128.336 133.434 128.59 133.151 128.55 132.812L128.164 129.606C128.123 129.265 127.801 128.992 127.444 128.996L124.037 129.033C123.671 129.037 123.408 129.322 123.45 129.668L123.849 132.925C123.892 133.27 124.223 133.542 124.587 133.532Z" fill="#1D85EE"/>
<path d="M147.933 140.767L150.814 140.609C151.117 140.592 151.334 140.326 151.3 140.014L150.978 137.071C150.944 136.757 150.671 136.513 150.367 136.525L147.476 136.64C147.165 136.652 146.941 136.92 146.976 137.238L147.308 140.225C147.344 140.541 147.624 140.784 147.933 140.767Z" fill="#1D85EE"/>
<path d="M140.881 141.154L143.911 140.988C144.23 140.97 144.457 140.697 144.421 140.377L144.081 137.359C144.045 137.038 143.758 136.788 143.438 136.801L140.396 136.922C140.069 136.935 139.834 137.209 139.871 137.535L140.223 140.598C140.261 140.923 140.555 141.172 140.881 141.154Z" fill="#1D85EE"/>
<path d="M133.453 141.562L136.645 141.386C136.98 141.368 137.22 141.087 137.182 140.759L136.822 137.663C136.783 137.334 136.48 137.077 136.144 137.09L132.94 137.217C132.595 137.231 132.347 137.514 132.387 137.848L132.76 140.992C132.799 141.326 133.11 141.58 133.453 141.562Z" fill="#1D85EE"/>
<path d="M125.621 141.991L128.988 141.807C129.341 141.787 129.594 141.499 129.553 141.161L129.171 137.983C129.13 137.644 128.811 137.382 128.456 137.396L125.076 137.53C124.712 137.544 124.451 137.835 124.493 138.178L124.889 141.407C124.931 141.75 125.259 142.011 125.621 141.991Z" fill="#1D85EE"/>
</g>
<path d="M115.555 107.34C115.555 107.34 115.627 112.692 115.7 118.681L118.008 117.932L123.432 118.063C123.432 118.063 149.014 118.111 152.52 118.026C152.207 113.016 151.589 107.648 151.589 107.648L116.882 106.83L115.555 107.34Z" fill="#1D85EE"/>
<path d="M115.555 107.34C115.555 107.34 115.627 112.692 115.7 118.68L118.008 117.931L116.882 106.829L115.555 107.34Z" fill="#2E2C3F"/>
<path d="M118.008 117.932L116.883 106.83" stroke="#2E2C3F" stroke-width="0.120824" stroke-miterlimit="10" stroke-linecap="round" stroke-linejoin="round"/>
<path d="M147.644 111.427C148.129 111.427 148.522 111.033 148.522 110.548C148.522 110.063 148.129 109.67 147.644 109.67C147.159 109.67 146.766 110.063 146.766 110.548C146.766 111.033 147.159 111.427 147.644 111.427Z" fill="#2E2C3F"/>
<path d="M141.249 111.312C141.734 111.312 142.128 110.919 142.128 110.433C142.128 109.948 141.734 109.555 141.249 109.555C140.764 109.555 140.371 109.948 140.371 110.433C140.371 110.919 140.764 111.312 141.249 111.312Z" fill="#2E2C3F"/>
<path d="M134.851 111.197C135.336 111.197 135.729 110.804 135.729 110.319C135.729 109.834 135.336 109.44 134.851 109.44C134.366 109.44 133.973 109.834 133.973 110.319C133.973 110.804 134.366 111.197 134.851 111.197Z" fill="#2E2C3F"/>
<path d="M128.453 111.082C128.938 111.082 129.331 110.689 129.331 110.204C129.331 109.718 128.938 109.325 128.453 109.325C127.967 109.325 127.574 109.718 127.574 110.204C127.574 110.689 127.967 111.082 128.453 111.082Z" fill="#2E2C3F"/>
<path d="M122.054 110.967C122.539 110.967 122.932 110.574 122.932 110.089C122.932 109.604 122.539 109.21 122.054 109.21C121.569 109.21 121.176 109.604 121.176 110.089C121.176 110.574 121.569 110.967 122.054 110.967Z" fill="#2E2C3F"/>
<path d="M147.652 110.479C148.694 110.479 149.538 109.241 149.538 107.715C149.538 106.188 148.694 104.95 147.652 104.95" stroke="#2E2C3F" stroke-width="0.483263" stroke-miterlimit="10"/>
<path d="M141.195 110.286C142.24 110.286 143.086 109.045 143.086 107.514C143.086 105.983 142.24 104.741 141.195 104.741" stroke="#2E2C3F" stroke-width="0.483263" stroke-miterlimit="10"/>
<path d="M134.801 110.286C135.853 110.286 136.706 109.035 136.706 107.493C136.706 105.95 135.853 104.699 134.801 104.699" stroke="#2E2C3F" stroke-width="0.483263" stroke-miterlimit="10"/>
<path d="M128.504 110.286C129.595 110.286 130.48 108.989 130.48 107.388C130.48 105.788 129.595 104.491 128.504 104.491" stroke="#2E2C3F" stroke-width="0.483263" stroke-miterlimit="10"/>
<path d="M122.059 110.286C123.134 110.286 124.006 109.008 124.006 107.431C124.006 105.853 123.134 104.575 122.059 104.575" stroke="#2E2C3F" stroke-width="0.483263" stroke-miterlimit="10"/>
<path d="M66.6587 28.501C62.995 28.501 60.0245 31.4711 60.0245 35.1352C60.0245 36.4967 60.436 37.7614 61.0046 38.7697L59.6758 41.6387L62.8727 40.5789C63.9468 41.3273 65.2502 41.7694 66.6587 41.7694C70.3225 41.7694 73.2929 38.7993 73.2929 35.1352C73.2929 31.4714 70.3228 28.501 66.6587 28.501Z" fill="#1D85EE"/>
<path d="M63.5625 35.0166L64.1861 37.244L70.4817 33.8882" stroke="white" stroke-width="1.22344" stroke-miterlimit="10" stroke-linecap="round" stroke-linejoin="round"/>
<path d="M87.1131 72.6795C91.5036 73.7372 96.0338 70.8755 97.1076 66.0265C98.2388 60.9172 95.0649 55.9344 90.1745 55.184C85.5031 54.4673 81.3276 57.9708 80.6914 62.762C80.0849 67.327 82.9027 71.665 87.1131 72.6795Z" fill="#1D85EE"/>
<path d="M84.0971 71.8435C86.5122 74.1022 89.9119 74.9464 93.0645 73.9963C94.6612 73.5152 96.1339 72.5898 97.3174 71.3049C99.1751 69.2887 100.175 66.5932 100.076 63.7266C99.9747 60.7962 98.742 58.1128 96.6196 56.2325C93.8143 53.7474 89.9537 53.1952 86.655 54.7097H86.6547L86.9616 55.6364L86.6543 54.7097C85.0967 55.4249 83.7463 56.5715 82.7397 58.0114C81.2528 60.1391 80.6124 62.7284 80.8922 65.3208C81.1667 67.8631 82.3001 70.1632 84.0971 71.8435ZM83.7595 58.9413C84.6643 57.6721 85.8332 56.7325 87.133 56.1513C89.8606 54.9326 93.1307 55.304 95.6009 57.5021C99.3249 60.8157 99.5416 66.6789 96.2461 70.3284C95.2075 71.4784 93.9512 72.2568 92.6241 72.6703C89.9969 73.4894 87.0606 72.8839 84.8873 70.8583C81.6789 67.868 81.1249 62.6371 83.7595 58.9413Z" fill="#2E2C3F"/>
<path d="M87.227 72.0367C91.2754 72.999 95.4301 70.3431 96.3996 65.8847C97.417 61.2071 94.5124 56.6504 90.0421 55.9477C85.7561 55.2739 81.9018 58.4725 81.3018 62.8822C80.728 67.0996 83.3319 71.1107 87.227 72.0367Z" fill="#1D85EE"/>
<path d="M85.2207 54.3653C83.6631 55.0806 82.3127 56.2271 81.3061 57.6671C79.8192 59.7947 79.1788 62.384 79.4586 64.9765C79.7328 67.5184 80.8661 69.8185 82.6632 71.4988C85.0783 73.7575 88.4779 74.6017 91.6306 73.6516C93.2273 73.1704 94.7 72.2451 95.8835 70.9602C97.7411 68.944 98.7407 66.2485 98.6417 63.3818C98.5407 60.4515 97.3081 57.7681 95.1856 55.8878C92.3803 53.4027 88.5197 52.8505 85.2211 54.3649L85.2207 54.3653ZM82.3259 58.5966C83.2307 57.3274 84.3996 56.3877 85.6994 55.8066C88.4271 54.5879 91.6971 54.9593 94.1673 57.1574C97.8913 60.471 98.108 66.3342 94.8125 69.9836C93.7739 71.1337 92.5176 71.912 91.1906 72.3256C88.5633 73.1447 85.627 72.5391 83.4537 70.5136C80.2453 67.5232 79.6913 62.2924 82.3259 58.5966Z" fill="white"/>
<path d="M86.4638 58.0928C86.5708 58.0471 86.6258 57.9147 86.5872 57.797L86.1454 56.4616C86.1064 56.3431 85.9876 56.2856 85.881 56.333C85.7744 56.38 85.7197 56.5142 85.7587 56.6319L86.2005 57.9632C86.2391 58.0806 86.3572 58.1384 86.4638 58.0928Z" fill="#2E2C3F"/>
<path d="M94.6883 62.1342L96.0213 61.6343C96.1401 61.5897 96.2059 61.4552 96.1683 61.3343C96.1307 61.213 96.0035 61.1514 95.8847 61.1963L94.5517 61.7008C94.4354 61.7451 94.3716 61.8774 94.4092 61.9969C94.4469 62.1164 94.5719 62.1781 94.6883 62.1342Z" fill="#2E2C3F"/>
<path d="M91.0205 71.8373C91.1274 71.8035 91.1846 71.6868 91.1484 71.5767L90.7341 70.3249C90.6975 70.2141 90.5808 70.1524 90.4739 70.1876C90.3672 70.2228 90.3105 70.3409 90.347 70.4514L90.7613 71.6993C90.7975 71.8091 90.9135 71.8711 91.0205 71.8373Z" fill="#2E2C3F"/>
<path d="M81.8377 66.9568L82.9422 66.5425C83.0404 66.5056 83.0899 66.3875 83.0522 66.2784C83.0146 66.1694 82.9042 66.1112 82.8059 66.1485L81.7015 66.5662C81.605 66.6028 81.5573 66.7199 81.5949 66.8272C81.6322 66.9352 81.7412 66.993 81.8377 66.9568Z" fill="#2E2C3F"/>
<path d="M88.569 64.395L88.5704 64.3943L92.5115 62.8826C92.64 62.8331 92.709 62.6847 92.6651 62.5505C92.6216 62.4174 92.4826 62.3495 92.3543 62.3979C92.3543 62.3979 92.3533 62.3983 92.3526 62.3986L88.4119 63.9257C88.2906 63.9727 88.2279 64.1155 88.2718 64.2448C88.3154 64.3734 88.4481 64.4402 88.569 64.395Z" fill="#2E2C3F"/>
<path d="M88.6013 64.4409C88.6243 64.4322 88.6456 64.4176 88.663 64.3967C88.7181 64.3312 88.7128 64.2305 88.6512 64.1716L84.9045 60.612C84.8439 60.5539 84.7512 60.5608 84.6993 60.6295C84.647 60.6967 84.6536 60.7981 84.7143 60.8559L88.4519 64.4096C88.494 64.45 88.5515 64.4597 88.6013 64.4409Z" fill="#2E2C3F"/>
<path d="M88.4005 64.77C88.6823 64.8268 88.9548 64.6292 89.0081 64.3279C89.0617 64.0258 88.8746 63.7349 88.5907 63.6791C88.3078 63.6237 88.0367 63.8237 87.9852 64.1247C87.9336 64.4254 88.1193 64.7135 88.4005 64.77Z" fill="#2E2C3F"/>
<path d="M0.0820312 143.29H172.082" stroke="#2E2C3F" stroke-width="0.366619" stroke-miterlimit="10"/>
</svg>
