<svg width="72" height="72" viewBox="0 0 72 72" fill="none" xmlns="http://www.w3.org/2000/svg">
<circle opacity="0.15" cx="36" cy="36" r="36" fill="#0085F9"/>
<circle cx="36" cy="36" r="26" fill="#002D62"/>
<path d="M48.6301 33.5394L44.8861 28.5122C44.7047 28.2648 44.4456 28.1085 44.1347 28.0694C43.8367 28.0173 43.5387 28.1085 43.2926 28.2908L41.2198 29.8537C40.9737 30.036 40.8182 30.2965 40.7793 30.6091C40.7793 30.6742 40.7793 30.7263 40.7793 30.7914L40.4166 31.0389C40.2352 31.1561 40.002 31.1951 39.7948 31.1561L36.1803 30.3226C35.6232 30.2314 35.0532 30.4137 34.6516 30.8044L33.9391 31.4947L31.8145 31.3384C31.6461 31.3384 31.4906 31.2603 31.3481 31.1561L31.1408 30.9868C31.3351 30.5179 31.2185 29.9579 30.804 29.6323L28.7312 28.0694C28.485 27.8871 28.1871 27.7959 27.8891 27.848C27.5912 27.8871 27.3191 28.0434 27.1377 28.2908L23.3937 33.318C23.018 33.8259 23.1217 34.5292 23.6269 34.9069L25.6997 36.4698C25.894 36.613 26.1272 36.6912 26.3734 36.6912C26.4252 36.6912 26.477 36.6912 26.5418 36.6912C26.8398 36.6521 27.1118 36.4958 27.2932 36.2484L27.4875 35.9879L28.0057 36.3656C28.1741 36.4958 28.2907 36.6782 28.3296 36.8996L28.4203 37.4205C28.485 37.7852 28.6535 38.1238 28.9126 38.3843C28.498 38.8792 28.511 39.6085 28.9644 40.0774C29.1198 40.2336 29.3012 40.3118 29.4826 40.3769C29.4826 40.416 29.4567 40.442 29.4567 40.4811C29.4567 40.8197 29.5862 41.1323 29.8194 41.3667C30.0656 41.6142 30.3765 41.7314 30.7003 41.7314C30.7003 41.7314 30.7133 41.7314 30.7263 41.7314C30.7781 41.9398 30.8688 42.1481 31.0242 42.3044C31.2574 42.5389 31.5683 42.6691 31.9052 42.6691C31.944 42.6691 31.9699 42.6561 32.0088 42.6561C32.0606 42.8514 32.1513 43.0338 32.3068 43.19C32.54 43.4245 32.8509 43.5547 33.1877 43.5547C33.4209 43.5547 33.6282 43.4766 33.8225 43.3463L34.1982 43.724C34.4832 44.0105 34.8589 44.1668 35.2605 44.1668C35.6621 44.1668 36.0378 44.0105 36.3228 43.724C36.5171 43.5287 36.6337 43.2682 36.6985 42.9947C36.8151 43.0207 36.9187 43.0598 37.0353 43.0598C37.424 43.0598 37.7997 42.9165 38.0976 42.617C38.279 42.4347 38.3827 42.2263 38.4474 42.0049C38.6158 42.057 38.7843 42.1091 38.9527 42.1091C39.3413 42.1091 39.717 41.9658 40.015 41.6663C40.1834 41.497 40.287 41.3016 40.3648 41.0802C40.5332 41.1453 40.7275 41.1844 40.9089 41.1844C41.3105 41.1844 41.6862 41.0411 41.9841 40.7546C42.2692 40.4681 42.4376 40.0774 42.4246 39.6736C42.4246 39.322 42.2821 38.9964 42.0619 38.7359L43.1501 37.9675C43.4092 37.7852 43.6294 37.5377 43.759 37.2512L43.9792 36.7954C44.044 36.6521 44.1476 36.5349 44.2772 36.4437L44.5622 36.2353L44.7306 36.4698C44.9508 36.7693 45.2877 36.9256 45.6375 36.9256C45.8706 36.9256 46.1168 36.8475 46.3111 36.7042L48.3839 35.1414C48.8892 34.7637 48.9798 34.0474 48.6041 33.5524L48.6301 33.5394ZM26.5029 35.6623C26.5029 35.6623 26.3345 35.7404 26.2827 35.7014L24.2099 34.1385C24.1322 34.0864 24.1192 33.9822 24.171 33.9041L27.915 28.8769C27.915 28.8769 27.9928 28.8118 28.0187 28.8118C28.0187 28.8118 28.0316 28.8118 28.0446 28.8118C28.0705 28.8118 28.1093 28.8118 28.1482 28.8509L30.221 30.4137C30.2987 30.4658 30.3117 30.57 30.2599 30.6481L26.5159 35.6753L26.5029 35.6623ZM30.6226 38.788L30.0267 39.3871C29.923 39.4913 29.7417 39.4913 29.638 39.3871C29.5344 39.2829 29.5344 39.1006 29.638 38.9964L30.234 38.3973C30.3376 38.2931 30.519 38.2931 30.6226 38.3973C30.6744 38.4494 30.7003 38.5145 30.7003 38.5927C30.7003 38.6708 30.6744 38.7359 30.6226 38.788ZM30.4283 40.4811C30.4283 40.403 30.4542 40.3378 30.506 40.2857L30.7133 40.0774L31.3092 39.4783L31.5165 39.2699C31.5165 39.2699 31.6331 39.1917 31.7108 39.1917C31.7886 39.1917 31.8533 39.2178 31.9052 39.2699C31.957 39.322 31.9829 39.3871 31.9829 39.4652C31.9829 39.5434 31.957 39.6085 31.9052 39.6606L31.7627 39.8039L31.0242 40.5462L30.8817 40.6895C30.7781 40.7937 30.5967 40.7937 30.4931 40.6895C30.4412 40.6374 30.4153 40.5723 30.4153 40.4941L30.4283 40.4811ZM31.7238 41.6142C31.672 41.5621 31.6461 41.497 31.6461 41.4188C31.6461 41.3407 31.672 41.2755 31.7238 41.2235L32.4622 40.4811C32.4622 40.4811 32.5918 40.403 32.6566 40.403C32.7213 40.403 32.7991 40.429 32.8509 40.4811C32.9027 40.5332 32.9286 40.5983 32.9286 40.6765C32.9286 40.7546 32.9027 40.8197 32.8509 40.8718L32.1124 41.6142C32.0088 41.7184 31.8274 41.7184 31.7238 41.6142ZM32.9934 42.4868C32.8897 42.3826 32.8897 42.2002 32.9934 42.096L33.3302 41.7574C33.3302 41.7574 33.4598 41.6793 33.5245 41.6793C33.5893 41.6793 33.667 41.7053 33.7189 41.7574C33.7707 41.8095 33.7966 41.8746 33.7966 41.9528C33.7966 42.0309 33.7707 42.096 33.7189 42.1481L33.382 42.4868C33.2784 42.591 33.097 42.591 32.9934 42.4868ZM41.2975 40.0513C41.0514 40.2727 40.8182 40.3378 40.5332 40.0513L40.015 39.5304C40.015 39.5304 40.015 39.5304 40.015 39.5173L38.9527 38.4494L37.9292 37.4205C37.7349 37.2252 37.4369 37.2252 37.2426 37.4205C37.1519 37.5117 37.1001 37.6419 37.1001 37.7722C37.1001 37.9024 37.139 38.0196 37.2426 38.1238L38.3049 39.1917L39.3284 40.2336C39.5227 40.442 39.5227 40.7676 39.3284 40.963C39.134 41.1583 38.7843 41.1583 38.577 40.963L38.0976 40.4811L36.5042 38.8792C36.3099 38.6838 36.0119 38.6838 35.8176 38.8792C35.7269 38.9703 35.6751 39.1006 35.6751 39.2308C35.6751 39.3611 35.7269 39.4783 35.8176 39.5825L36.6078 40.3639L37.424 41.1844C37.6313 41.3928 37.6313 41.7314 37.424 41.9398C37.2167 42.1481 36.8799 42.1481 36.6726 41.9398L36.3358 41.6011L35.0791 40.3378C34.8848 40.1425 34.5868 40.1425 34.3925 40.3378C34.1982 40.5332 34.1982 40.8327 34.3925 41.0281L35.6492 42.2914C35.7528 42.3956 35.8046 42.5258 35.8046 42.6691C35.8046 42.8124 35.7528 42.9426 35.6492 43.0468C35.4548 43.2421 35.105 43.2421 34.8978 43.0468L34.535 42.6821C34.6775 42.4737 34.7812 42.2393 34.7812 41.9788C34.7812 41.6402 34.6516 41.3276 34.4184 41.0932C34.263 40.9369 34.0816 40.8588 33.8873 40.7937C33.8873 40.7546 33.9132 40.7285 33.9132 40.6895C33.9132 40.3509 33.7836 40.0383 33.5504 39.8039C33.382 39.6346 33.1877 39.5564 32.9804 39.5043C32.9804 39.5043 32.9804 39.4913 32.9804 39.4783C32.9804 39.1397 32.8509 38.8271 32.6177 38.5927C32.3586 38.3322 31.9958 38.228 31.6331 38.254C31.5813 38.0587 31.4906 37.8633 31.3351 37.7201C30.8688 37.2512 30.0785 37.2512 29.5992 37.694C29.4955 37.5768 29.4178 37.4335 29.3919 37.2642L29.3012 36.7433C29.2235 36.2744 28.9773 35.8707 28.5887 35.5842L28.0705 35.2065L30.6097 31.7942L30.7651 31.9115C31.0501 32.1329 31.387 32.2631 31.7497 32.2891L33.0193 32.3803L32.7991 32.6017C32.5788 32.8101 32.3975 33.2008 32.3586 33.5134C32.242 34.6464 32.0218 35.506 31.8533 36.027C31.7627 36.3005 31.8274 36.6 32.0088 36.8214C32.2031 37.0558 32.4881 37.1731 32.7861 37.134C34.9496 36.8996 35.7398 35.4279 35.8953 34.5423L36.1674 34.2688L38.6936 36.6782L41.2975 39.2959C41.4012 39.3871 41.453 39.5173 41.453 39.6606C41.453 39.8039 41.4012 39.9471 41.3105 40.0383L41.2975 40.0513ZM43.7201 35.6363C43.461 35.8186 43.2537 36.066 43.1112 36.3526L42.891 36.8084C42.8262 36.9517 42.7226 37.0689 42.593 37.16L41.3882 38.0066L39.3672 35.9879L36.4912 33.2399C36.2969 33.0575 35.9989 33.0575 35.8176 33.2399L35.0921 33.9692C35.0144 34.0474 34.9625 34.1646 34.9496 34.2688C34.9496 34.3339 34.7812 35.8577 32.825 36.1442C32.9934 35.5711 33.2007 34.6985 33.3173 33.6045C33.3173 33.5134 33.4079 33.3441 33.4598 33.292L35.3382 31.4686C35.5196 31.2863 35.7787 31.2082 36.0119 31.2472L39.6004 32.0677C40.0668 32.185 40.5721 32.0808 40.9737 31.8203L41.1939 31.677L44.0051 35.4409L43.746 35.6232L43.7201 35.6363ZM47.8268 34.3469L45.7541 35.9098C45.6763 35.9618 45.5856 35.9488 45.5209 35.8837L41.7769 30.8565C41.7769 30.8565 41.738 30.7654 41.751 30.7393C41.751 30.7133 41.7639 30.6742 41.8157 30.6351L43.8885 29.0723C43.8885 29.0723 43.9533 29.0332 43.9792 29.0332C43.9792 29.0332 43.9922 29.0332 44.0051 29.0332C44.031 29.0332 44.0829 29.0462 44.1088 29.0983L47.8528 34.1255C47.9046 34.2036 47.8916 34.2948 47.8139 34.3599L47.8268 34.3469Z" fill="white"/>
</svg>
