<svg width="32" height="24" viewBox="0 0 32 24" fill="none" xmlns="http://www.w3.org/2000/svg">
<g clip-path="url(#clip0_2164_10302)">
<path d="M0 0H32V8H0V0Z" fill="#FF9933"/>
<path d="M0 8H32V16H0V8Z" fill="white"/>
<path d="M0 16H32V24H0V16Z" fill="#128807"/>
<path d="M16.0008 15.1998C17.7681 15.1998 19.2008 13.7671 19.2008 11.9998C19.2008 10.2325 17.7681 8.7998 16.0008 8.7998C14.2335 8.7998 12.8008 10.2325 12.8008 11.9998C12.8008 13.7671 14.2335 15.1998 16.0008 15.1998Z" fill="#000088"/>
<path d="M15.9992 14.7997C17.5456 14.7997 18.7992 13.5461 18.7992 11.9997C18.7992 10.4533 17.5456 9.19971 15.9992 9.19971C14.4528 9.19971 13.1992 10.4533 13.1992 11.9997C13.1992 13.5461 14.4528 14.7997 15.9992 14.7997Z" fill="white"/>
<path d="M15.9975 12.5599C16.3068 12.5599 16.5575 12.3092 16.5575 11.9999C16.5575 11.6907 16.3068 11.4399 15.9975 11.4399C15.6882 11.4399 15.4375 11.6907 15.4375 11.9999C15.4375 12.3092 15.6882 12.5599 15.9975 12.5599Z" fill="#000088"/>
<path d="M18.7546 12.5039C18.8313 12.514 18.9016 12.46 18.9117 12.3834C18.9218 12.3067 18.8678 12.2364 18.7911 12.2263C18.7145 12.2162 18.6442 12.2702 18.6341 12.3468C18.624 12.4235 18.6779 12.4938 18.7546 12.5039Z" fill="#000088"/>
<path d="M15.9983 14.7998L16.0943 13.1198L15.9983 12.3198L15.9023 13.1198L15.9983 14.7998Z" fill="#000088"/>
<path d="M18.5339 13.2004C18.6053 13.23 18.6872 13.1961 18.7168 13.1247C18.7464 13.0532 18.7125 12.9713 18.6411 12.9418C18.5696 12.9122 18.4877 12.9461 18.4581 13.0175C18.4286 13.089 18.4625 13.1709 18.5339 13.2004Z" fill="#000088"/>
<path d="M15.2751 14.704L15.8026 13.1061L15.9169 12.3085L15.6172 13.0564L15.2751 14.704Z" fill="#000088"/>
<path d="M18.1359 13.8157C18.1973 13.8627 18.2852 13.8512 18.3322 13.7898C18.3793 13.7285 18.3677 13.6406 18.3064 13.5935C18.245 13.5465 18.1572 13.558 18.1101 13.6194C18.063 13.6807 18.0746 13.7686 18.1359 13.8157Z" fill="#000088"/>
<path d="M14.601 14.4247L15.5241 13.0178L15.841 12.277L15.3578 12.9218L14.601 14.4247Z" fill="#000088"/>
<path d="M17.5936 14.3064C17.6406 14.3678 17.7285 14.3793 17.7899 14.3323C17.8512 14.2852 17.8628 14.1973 17.8157 14.136C17.7686 14.0746 17.6807 14.0631 17.6194 14.1101C17.5581 14.1572 17.5465 14.2451 17.5936 14.3064Z" fill="#000088"/>
<path d="M14.0213 13.9792L15.2771 12.8592L15.7749 12.2256L15.1413 12.7234L14.0213 13.9792Z" fill="#000088"/>
<path d="M16.9394 14.6403C16.969 14.7117 17.0509 14.7457 17.1223 14.7161C17.1938 14.6865 17.2277 14.6046 17.1981 14.5332C17.1685 14.4617 17.0866 14.4278 17.0152 14.4574C16.9438 14.487 16.9098 14.5689 16.9394 14.6403Z" fill="#000088"/>
<path d="M13.5721 13.3998L15.0751 12.6429L15.7199 12.1598L14.9791 12.4767L13.5721 13.3998Z" fill="#000088"/>
<path d="M16.2211 14.794C16.2312 14.8707 16.3016 14.9246 16.3782 14.9145C16.4549 14.9044 16.5088 14.8341 16.4987 14.7575C16.4887 14.6808 16.4183 14.6268 16.3417 14.6369C16.265 14.647 16.211 14.7173 16.2211 14.794Z" fill="#000088"/>
<path d="M13.2895 12.7243L14.9371 12.3823L15.685 12.0825L14.8874 12.1968L13.2895 12.7243Z" fill="#000088"/>
<path d="M15.4893 14.7575C15.4792 14.8342 15.5331 14.9045 15.6098 14.9146C15.6865 14.9247 15.7568 14.8707 15.7669 14.7941C15.777 14.7174 15.723 14.6471 15.6464 14.637C15.5697 14.6269 15.4994 14.6809 15.4893 14.7575Z" fill="#000088"/>
<path d="M13.1919 11.9998L14.8719 12.0958L15.6719 11.9998L14.8719 11.9038L13.1919 11.9998Z" fill="#000088"/>
<path d="M14.7932 14.5334C14.7636 14.6049 14.7975 14.6868 14.869 14.7163C14.9404 14.7459 15.0223 14.712 15.0519 14.6406C15.0815 14.5691 15.0476 14.4872 14.9761 14.4577C14.9047 14.4281 14.8228 14.462 14.7932 14.5334Z" fill="#000088"/>
<path d="M13.2906 11.2756L14.8885 11.8031L15.6861 11.9174L14.9382 11.6177L13.2906 11.2756Z" fill="#000088"/>
<path d="M14.1809 14.1364C14.1338 14.1978 14.1454 14.2856 14.2068 14.3327C14.2681 14.3798 14.356 14.3682 14.4031 14.3069C14.4501 14.2455 14.4386 14.1576 14.3772 14.1106C14.3159 14.0635 14.228 14.0751 14.1809 14.1364Z" fill="#000088"/>
<path d="M13.5699 10.6L14.9768 11.5231L15.7176 11.84L15.0728 11.3568L13.5699 10.6Z" fill="#000088"/>
<path d="M13.6911 13.5936C13.6298 13.6406 13.6182 13.7285 13.6653 13.7899C13.7124 13.8512 13.8002 13.8628 13.8616 13.8157C13.9229 13.7686 13.9345 13.6807 13.8874 13.6194C13.8404 13.5581 13.7525 13.5465 13.6911 13.5936Z" fill="#000088"/>
<path d="M14.0183 10.0203L15.1384 11.2761L15.772 11.7739L15.2742 11.1404L14.0183 10.0203Z" fill="#000088"/>
<path d="M13.3573 12.9424C13.2858 12.9719 13.2519 13.0538 13.2815 13.1253C13.3111 13.1967 13.393 13.2306 13.4644 13.201C13.5358 13.1714 13.5698 13.0896 13.5402 13.0181C13.5106 12.9467 13.4287 12.9128 13.3573 12.9424Z" fill="#000088"/>
<path d="M14.5987 9.57506L15.3556 11.078L15.8387 11.7228L15.5219 10.982L14.5987 9.57506Z" fill="#000088"/>
<path d="M13.2075 12.226C13.1308 12.2361 13.0768 12.3064 13.0869 12.3831C13.097 12.4598 13.1674 12.5137 13.244 12.5036C13.3207 12.4935 13.3746 12.4232 13.3645 12.3465C13.3544 12.2699 13.2841 12.2159 13.2075 12.226Z" fill="#000088"/>
<path d="M15.2771 9.29488L15.6192 10.9425L15.919 11.6904L15.8047 10.8928L15.2771 9.29488Z" fill="#000088"/>
<path d="M13.2415 11.4961C13.1648 11.486 13.0945 11.54 13.0844 11.6166C13.0743 11.6933 13.1283 11.7636 13.2049 11.7737C13.2816 11.7838 13.3519 11.7298 13.362 11.6532C13.3721 11.5765 13.3182 11.5062 13.2415 11.4961Z" fill="#000088"/>
<path d="M15.9977 9.20018L15.9017 10.8802L15.9977 11.6802L16.0938 10.8802L15.9977 9.20018Z" fill="#000088"/>
<path d="M13.4622 10.7996C13.3907 10.77 13.3089 10.8039 13.2793 10.8753C13.2497 10.9468 13.2836 11.0287 13.355 11.0582C13.4265 11.0878 13.5084 11.0539 13.538 10.9825C13.5675 10.911 13.5336 10.8291 13.4622 10.7996Z" fill="#000088"/>
<path d="M16.721 9.29597L16.1935 10.8939L16.0791 11.6915L16.3789 10.9436L16.721 9.29597Z" fill="#000088"/>
<path d="M13.8602 10.1843C13.7988 10.1373 13.7109 10.1488 13.6639 10.2102C13.6168 10.2715 13.6284 10.3594 13.6897 10.4065C13.7511 10.4535 13.8389 10.442 13.886 10.3806C13.9331 10.3193 13.9215 10.2314 13.8602 10.1843Z" fill="#000088"/>
<path d="M17.3951 9.57525L16.472 10.9822L16.1551 11.723L16.6383 11.0782L17.3951 9.57525Z" fill="#000088"/>
<path d="M14.4025 9.69357C14.3555 9.63223 14.2676 9.62066 14.2062 9.66773C14.1449 9.7148 14.1333 9.80269 14.1804 9.86403C14.2275 9.92537 14.3154 9.93694 14.3767 9.88987C14.438 9.8428 14.4496 9.75492 14.4025 9.69357Z" fill="#000088"/>
<path d="M17.9748 10.0208L16.719 11.1408L16.2212 11.7744L16.8547 11.2766L17.9748 10.0208Z" fill="#000088"/>
<path d="M15.0528 9.3597C15.0232 9.28826 14.9413 9.25434 14.8698 9.28393C14.7984 9.31352 14.7645 9.39541 14.7941 9.46685C14.8237 9.53828 14.9056 9.5722 14.977 9.54262C15.0484 9.51303 15.0824 9.43113 15.0528 9.3597Z" fill="#000088"/>
<path d="M18.4201 10.6002L16.9171 11.3571L16.2723 11.8402L17.0131 11.5233L18.4201 10.6002Z" fill="#000088"/>
<path d="M15.771 9.206C15.761 9.12934 15.6906 9.07538 15.614 9.08547C15.5373 9.09556 15.4834 9.16589 15.4934 9.24255C15.5035 9.3192 15.5739 9.37317 15.6505 9.36307C15.7272 9.35298 15.7811 9.28266 15.771 9.206Z" fill="#000088"/>
<path d="M18.7027 11.2757L17.0551 11.6177L16.3072 11.9175L17.1048 11.8032L18.7027 11.2757Z" fill="#000088"/>
<path d="M16.5029 9.24247C16.513 9.16581 16.459 9.09549 16.3824 9.0854C16.3057 9.0753 16.2354 9.12927 16.2253 9.20592C16.2152 9.28258 16.2692 9.35291 16.3458 9.363C16.4225 9.37309 16.4928 9.31913 16.5029 9.24247Z" fill="#000088"/>
<path d="M18.8003 12.0002L17.1203 11.9042L16.3203 12.0002L17.1203 12.0962L18.8003 12.0002Z" fill="#000088"/>
<path d="M17.199 9.46658C17.2286 9.39514 17.1946 9.31325 17.1232 9.28366C17.0518 9.25407 16.9699 9.28799 16.9403 9.35943C16.9107 9.43086 16.9446 9.51276 17.0161 9.54235C17.0875 9.57193 17.1694 9.53801 17.199 9.46658Z" fill="#000088"/>
<path d="M18.7016 12.7244L17.1037 12.1969L16.3061 12.0826L17.054 12.3823L18.7016 12.7244Z" fill="#000088"/>
<path d="M17.8152 9.86358C17.8622 9.80224 17.8507 9.71436 17.7893 9.66729C17.728 9.62022 17.6401 9.63179 17.593 9.69313C17.546 9.75447 17.5575 9.84236 17.6189 9.88943C17.6802 9.9365 17.7681 9.92492 17.8152 9.86358Z" fill="#000088"/>
<path d="M18.4262 13.4L17.0193 12.4769L16.2785 12.16L16.9233 12.6432L18.4262 13.4Z" fill="#000088"/>
<path d="M18.305 10.4064C18.3663 10.3594 18.3779 10.2715 18.3308 10.2101C18.2837 10.1488 18.1958 10.1372 18.1345 10.1843C18.0732 10.2314 18.0616 10.3193 18.1087 10.3806C18.1557 10.4419 18.2436 10.4535 18.305 10.4064Z" fill="#000088"/>
<path d="M17.9778 13.9797L16.8577 12.7239L16.2241 12.2261L16.7219 12.8596L17.9778 13.9797Z" fill="#000088"/>
<path d="M18.6388 11.0576C18.7103 11.0281 18.7442 10.9462 18.7146 10.8747C18.685 10.8033 18.6031 10.7694 18.5317 10.799C18.4603 10.8286 18.4263 10.9104 18.4559 10.9819C18.4855 11.0533 18.5674 11.0872 18.6388 11.0576Z" fill="#000088"/>
<path d="M17.3974 14.4249L16.6405 12.922L16.1574 12.2772L16.4742 13.018L17.3974 14.4249Z" fill="#000088"/>
<path d="M18.7886 11.774C18.8653 11.7639 18.9193 11.6936 18.9092 11.6169C18.8991 11.5402 18.8287 11.4863 18.7521 11.4964C18.6754 11.5065 18.6215 11.5768 18.6316 11.6535C18.6416 11.7301 18.712 11.7841 18.7886 11.774Z" fill="#000088"/>
<path d="M16.719 14.7051L16.3769 13.0575L16.0771 12.3096L16.1914 13.1072L16.719 14.7051Z" fill="#000088"/>
</g>
<defs>
<clipPath id="clip0_2164_10302">
<rect width="32" height="24" fill="white"/>
</clipPath>
</defs>
</svg>
