<svg width="36" height="24" viewBox="0 0 36 24" fill="none" xmlns="http://www.w3.org/2000/svg">
<g clip-path="url(#clip0_2164_10464)">
<path d="M36 0H0V24H36V0Z" fill="black"/>
<path d="M34.7992 1.2002H1.19922V2.8622H34.7992V1.2002Z" fill="#B22234"/>
<path d="M34.7992 2.86182H1.19922V4.52382H34.7992V2.86182Z" fill="white"/>
<path d="M34.7992 4.52393H1.19922V6.18593H34.7992V4.52393Z" fill="#B22234"/>
<path d="M34.7992 6.18604H1.19922V7.84803H34.7992V6.18604Z" fill="white"/>
<path d="M34.7992 7.84814H1.19922V9.51014H34.7992V7.84814Z" fill="#B22234"/>
<path d="M34.7992 9.50977H1.19922V11.1718H34.7992V9.50977Z" fill="white"/>
<path d="M34.7992 11.1719H1.19922V12.8339H34.7992V11.1719Z" fill="#B22234"/>
<path d="M34.7992 12.834H1.19922V14.496H34.7992V12.834Z" fill="white"/>
<path d="M34.7992 14.4961H1.19922V16.1581H34.7992V14.4961Z" fill="#B22234"/>
<path d="M34.7992 16.1582H1.19922V17.8202H34.7992V16.1582Z" fill="white"/>
<path d="M34.7992 17.8198H1.19922V19.4818H34.7992V17.8198Z" fill="#B22234"/>
<path d="M34.7992 19.4819H1.19922V21.1439H34.7992V19.4819Z" fill="white"/>
<path d="M17.9992 1.2002H1.19922V12.8342H17.9992V1.2002Z" fill="#3C3B6E"/>
<path d="M2.99839 2.98538L2.60839 3.26738L2.75599 2.80898L2.36719 2.51858H2.84839L2.99839 2.06738L3.14839 2.51858H3.62959L3.24079 2.80898L3.38839 3.26738L2.99839 2.98538Z" fill="white"/>
<path d="M5.63901 2.98538L5.24901 3.26738L5.39661 2.80898L5.00781 2.51858H5.48901L5.63901 2.06738L5.78901 2.51858H6.27021L5.88141 2.80898L6.02901 3.26738L5.63901 2.98538Z" fill="white"/>
<path d="M8.27964 2.98538L7.88964 3.26738L8.03724 2.80898L7.64844 2.51858H8.12964L8.27964 2.06738L8.42964 2.51858H8.91084L8.52204 2.80898L8.66964 3.26738L8.27964 2.98538Z" fill="white"/>
<path d="M10.9203 2.98538L10.5303 3.26738L10.6779 2.80898L10.2891 2.51858H10.7703L10.9203 2.06738L11.0703 2.51858H11.5515L11.1627 2.80898L11.3103 3.26738L10.9203 2.98538Z" fill="white"/>
<path d="M13.5609 2.98538L13.1709 3.26738L13.3185 2.80898L12.9297 2.51858H13.4109L13.5609 2.06738L13.7109 2.51858H14.1921L13.8033 2.80898L13.9509 3.26738L13.5609 2.98538Z" fill="white"/>
<path d="M16.2015 2.98538L15.8115 3.26738L15.9591 2.80898L15.5703 2.51858H16.0515L16.2015 2.06738L16.3515 2.51858H16.8327L16.4439 2.80898L16.5915 3.26738L16.2015 2.98538Z" fill="white"/>
<path d="M4.3187 4.43629L3.9287 4.71709L4.0763 4.25989L3.6875 3.96829H4.1687L4.3187 3.51709L4.4687 3.96829H4.9499L4.5611 4.25989L4.7087 4.71709L4.3187 4.43629Z" fill="white"/>
<path d="M6.95933 4.43629L6.56932 4.71709L6.71692 4.25989L6.32812 3.96829H6.80933L6.95933 3.51709L7.10932 3.96829H7.59053L7.20172 4.25989L7.34932 4.71709L6.95933 4.43629Z" fill="white"/>
<path d="M9.59995 4.43629L9.20995 4.71709L9.35755 4.25989L8.96875 3.96829H9.44995L9.59995 3.51709L9.74995 3.96829H10.2312L9.84235 4.25989L9.98995 4.71709L9.59995 4.43629Z" fill="white"/>
<path d="M12.2406 4.43629L11.8506 4.71709L11.9982 4.25989L11.6094 3.96829H12.0906L12.2406 3.51709L12.3906 3.96829H12.8718L12.483 4.25989L12.6306 4.71709L12.2406 4.43629Z" fill="white"/>
<path d="M14.8812 4.43629L14.4912 4.71709L14.6388 4.25989L14.25 3.96829H14.7312L14.8812 3.51709L15.0312 3.96829H15.5124L15.1236 4.25989L15.2712 4.71709L14.8812 4.43629Z" fill="white"/>
<path d="M2.99839 5.88577L2.60839 6.16777L2.75599 5.70937L2.36719 5.41777H2.84839L2.99839 4.96777L3.14839 5.41777H3.62959L3.24079 5.70937L3.38839 6.16777L2.99839 5.88577Z" fill="white"/>
<path d="M5.63901 5.88577L5.24901 6.16777L5.39661 5.70937L5.00781 5.41777H5.48901L5.63901 4.96777L5.78901 5.41777H6.27021L5.88141 5.70937L6.02901 6.16777L5.63901 5.88577Z" fill="white"/>
<path d="M8.27964 5.88577L7.88964 6.16777L8.03724 5.70937L7.64844 5.41777H8.12964L8.27964 4.96777L8.42964 5.41777H8.91084L8.52204 5.70937L8.66964 6.16777L8.27964 5.88577Z" fill="white"/>
<path d="M10.9203 5.88577L10.5303 6.16777L10.6779 5.70937L10.2891 5.41777H10.7703L10.9203 4.96777L11.0703 5.41777H11.5515L11.1627 5.70937L11.3103 6.16777L10.9203 5.88577Z" fill="white"/>
<path d="M13.557 5.88577L13.167 6.16777L13.3146 5.70937L12.9258 5.41777H13.407L13.557 4.96777L13.707 5.41777H14.1882L13.7994 5.70937L13.947 6.16777L13.557 5.88577Z" fill="white"/>
<path d="M16.1976 5.88577L15.8076 6.16777L15.9552 5.70937L15.5664 5.41777H16.0476L16.1976 4.96777L16.3476 5.41777H16.8288L16.44 5.70937L16.5876 6.16777L16.1976 5.88577Z" fill="white"/>
<path d="M4.3187 7.33548L3.9287 7.61748L4.0763 7.15908L3.6875 6.86868H4.1687L4.3187 6.41748L4.4687 6.86868H4.9499L4.5611 7.15908L4.7087 7.61748L4.3187 7.33548Z" fill="white"/>
<path d="M6.95933 7.33548L6.56932 7.61748L6.71692 7.15908L6.32812 6.86868H6.80933L6.95933 6.41748L7.10932 6.86868H7.59053L7.20172 7.15908L7.34932 7.61748L6.95933 7.33548Z" fill="white"/>
<path d="M9.59995 7.33548L9.20995 7.61748L9.35755 7.15908L8.96875 6.86868H9.44995L9.59995 6.41748L9.74995 6.86868H10.2312L9.84235 7.15908L9.98995 7.61748L9.59995 7.33548Z" fill="white"/>
<path d="M12.2406 7.33548L11.8506 7.61748L11.9982 7.15908L11.6094 6.86868H12.0906L12.2406 6.41748L12.3906 6.86868H12.8718L12.483 7.15908L12.6306 7.61748L12.2406 7.33548Z" fill="white"/>
<path d="M14.8773 7.33548L14.4873 7.61748L14.6349 7.15908L14.2461 6.86868H14.7273L14.8773 6.41748L15.0273 6.86868H15.5085L15.1197 7.15908L15.2673 7.61748L14.8773 7.33548Z" fill="white"/>
<path d="M2.99839 8.78639L2.60839 9.06719L2.75599 8.60999L2.36719 8.31839H2.84839L2.99839 7.86719L3.14839 8.31839H3.62959L3.24079 8.60999L3.38839 9.06719L2.99839 8.78639Z" fill="white"/>
<path d="M5.63901 8.78639L5.24901 9.06719L5.39661 8.60999L5.00781 8.31839H5.48901L5.63901 7.86719L5.78901 8.31839H6.27021L5.88141 8.60999L6.02901 9.06719L5.63901 8.78639Z" fill="white"/>
<path d="M8.27964 8.78639L7.88964 9.06719L8.03724 8.60999L7.64844 8.31839H8.12964L8.27964 7.86719L8.42964 8.31839H8.91084L8.52204 8.60999L8.66964 9.06719L8.27964 8.78639Z" fill="white"/>
<path d="M10.9203 8.78639L10.5303 9.06719L10.6779 8.60999L10.2891 8.31839H10.7703L10.9203 7.86719L11.0703 8.31839H11.5515L11.1627 8.60999L11.3103 9.06719L10.9203 8.78639Z" fill="white"/>
<path d="M13.557 8.78639L13.167 9.06719L13.3146 8.60999L12.9258 8.31839H13.407L13.557 7.86719L13.707 8.31839H14.1882L13.7994 8.60999L13.947 9.06719L13.557 8.78639Z" fill="white"/>
<path d="M16.1976 8.78639L15.8076 9.06719L15.9552 8.60999L15.5664 8.31839H16.0476L16.1976 7.86719L16.3476 8.31839H16.8288L16.44 8.60999L16.5876 9.06719L16.1976 8.78639Z" fill="white"/>
<path d="M2.99839 11.6856L2.60839 11.9676L2.75599 11.5092L2.36719 11.2188H2.84839L2.99839 10.7676L3.14839 11.2188H3.62959L3.24079 11.5092L3.38839 11.9676L2.99839 11.6856Z" fill="white"/>
<path d="M5.63901 11.6856L5.24901 11.9676L5.39661 11.5092L5.00781 11.2188H5.48901L5.63901 10.7676L5.78901 11.2188H6.27021L5.88141 11.5092L6.02901 11.9676L5.63901 11.6856Z" fill="white"/>
<path d="M8.27964 11.6856L7.88964 11.9676L8.03724 11.5092L7.64844 11.2188H8.12964L8.27964 10.7676L8.42964 11.2188H8.91084L8.52204 11.5092L8.66964 11.9676L8.27964 11.6856Z" fill="white"/>
<path d="M10.9203 11.6856L10.5303 11.9676L10.6779 11.5092L10.2891 11.2188H10.7703L10.9203 10.7676L11.0703 11.2188H11.5515L11.1627 11.5092L11.3103 11.9676L10.9203 11.6856Z" fill="white"/>
<path d="M13.557 11.6856L13.167 11.9676L13.3146 11.5092L12.9258 11.2188H13.407L13.557 10.7676L13.707 11.2188H14.1882L13.7994 11.5092L13.947 11.9676L13.557 11.6856Z" fill="white"/>
<path d="M16.1976 11.6856L15.8076 11.9676L15.9552 11.5092L15.5664 11.2188H16.0476L16.1976 10.7676L16.3476 11.2188H16.8288L16.44 11.5092L16.5876 11.9676L16.1976 11.6856Z" fill="white"/>
<path d="M4.3187 10.2359L3.9287 10.5179L4.0763 10.0595L3.6875 9.76787H4.1687L4.3187 9.31787L4.4687 9.76787H4.9499L4.5611 10.0595L4.7087 10.5179L4.3187 10.2359Z" fill="white"/>
<path d="M6.95933 10.2359L6.56932 10.5179L6.71692 10.0595L6.32812 9.76787H6.80933L6.95933 9.31787L7.10932 9.76787H7.59053L7.20172 10.0595L7.34932 10.5179L6.95933 10.2359Z" fill="white"/>
<path d="M9.59995 10.2359L9.20995 10.5179L9.35755 10.0595L8.96875 9.76787H9.44995L9.59995 9.31787L9.74995 9.76787H10.2312L9.84235 10.0595L9.98995 10.5179L9.59995 10.2359Z" fill="white"/>
<path d="M12.2406 10.2359L11.8506 10.5179L11.9982 10.0595L11.6094 9.76787H12.0906L12.2406 9.31787L12.3906 9.76787H12.8718L12.483 10.0595L12.6306 10.5179L12.2406 10.2359Z" fill="white"/>
<path d="M14.8773 10.2359L14.4873 10.5179L14.6349 10.0595L14.2461 9.76787H14.7273L14.8773 9.31787L15.0273 9.76787H15.5085L15.1197 10.0595L15.2673 10.5179L14.8773 10.2359Z" fill="white"/>
<path d="M34.7992 21.144H1.19922V22.8H34.7992V21.144Z" fill="#B22234"/>
</g>
<defs>
<clipPath id="clip0_2164_10464">
<rect width="36" height="24" fill="white"/>
</clipPath>
</defs>
</svg>
