<svg width="24" height="24" viewBox="0 0 24 24" fill="none" xmlns="http://www.w3.org/2000/svg">
<path d="M21.844 9.97159C21.7315 9.193 21.5535 8.42529 21.312 7.67659C21.2676 7.52406 21.2051 7.37735 21.126 7.23959C21.0601 7.12639 20.9724 7.02733 20.8681 6.94809C20.7638 6.86884 20.6449 6.81097 20.5181 6.7778C20.3914 6.74463 20.2594 6.73682 20.1296 6.7548C19.9999 6.77278 19.8749 6.81621 19.762 6.88259C19.5323 7.01745 19.3651 7.23762 19.2969 7.49515C19.2287 7.75268 19.2651 8.02672 19.398 8.25759C19.478 8.50359 19.544 8.75159 19.608 8.99959H18C17.7348 8.99959 17.4804 9.10495 17.2929 9.29249C17.1054 9.48002 17 9.73438 17 9.99959C17 10.2648 17.1054 10.5192 17.2929 10.7067C17.4804 10.8942 17.7348 10.9996 18 10.9996H19.955C19.9843 11.3329 19.9993 11.6663 20 11.9996C20 13.2476 19.798 14.5066 19.4 15.7376C19.13 16.5626 18.347 17.2086 17.357 17.4226C14.7026 18.002 11.9714 18.1449 9.271 17.8456C9.00752 17.8169 8.7434 17.8937 8.53635 18.0591C8.3293 18.2246 8.19615 18.4653 8.166 18.7286C8.106 19.2786 8.501 19.7716 9.05 19.8336C11.9658 20.1569 14.9148 20.0029 17.781 19.3776C19.461 19.0136 20.811 17.8576 21.301 16.3576C21.765 14.9226 22 13.4566 22 11.9996C22 11.3346 21.945 10.6686 21.849 10.0066L21.85 9.99959C21.85 9.98959 21.845 9.98159 21.844 9.97159ZM19.293 3.29259L17.926 4.65959C17.879 4.64859 17.826 4.63259 17.783 4.62259C13.9726 3.79683 10.0294 3.79683 6.219 4.62259C4.539 4.98459 3.19 6.14159 2.699 7.64259C2.234 9.07459 2 10.5396 2 11.9996C2 13.4596 2.235 14.9246 2.7 16.3626C2.969 17.1766 3.499 17.8666 4.184 18.4016L3.293 19.2926C3.19749 19.3848 3.12131 19.4952 3.0689 19.6172C3.01649 19.7392 2.9889 19.8704 2.98775 20.0032C2.9866 20.136 3.0119 20.2677 3.06218 20.3905C3.11246 20.5134 3.18671 20.6251 3.28061 20.719C3.3745 20.8129 3.48615 20.8871 3.60905 20.9374C3.73194 20.9877 3.86362 21.013 3.9964 21.0118C4.12918 21.0107 4.2604 20.9831 4.3824 20.9307C4.50441 20.8783 4.61475 20.8021 4.707 20.7066L6.507 18.9066L14.707 10.7066L18.907 6.50659L20.707 4.70659C20.8025 4.61435 20.8787 4.504 20.9311 4.382C20.9835 4.25999 21.0111 4.12877 21.0123 3.99599C21.0134 3.86321 20.9881 3.73154 20.9378 3.60864C20.8875 3.48574 20.8133 3.37409 20.7194 3.2802C20.6255 3.18631 20.5138 3.11205 20.391 3.06177C20.2681 3.01149 20.1364 2.98619 20.0036 2.98734C19.8708 2.9885 19.7396 3.01608 19.6176 3.06849C19.4956 3.1209 19.3852 3.19708 19.293 3.29259ZM8.46 14.1256C8.31907 14.0471 8.16125 14.0039 8 13.9996H7C6.73478 13.9996 6.48043 14.1049 6.29289 14.2925C6.10536 14.48 6 14.7344 6 14.9996C6 15.4296 6.274 15.7896 6.655 15.9296L5.598 16.9866C5.119 16.6796 4.768 16.2436 4.602 15.7416C4.20762 14.5332 4.00451 13.2707 4 11.9996C4.00133 11.6663 4.01633 11.3329 4.045 10.9996H11.585L8.46 14.1256ZM13.586 8.99959H4.392C4.456 8.75259 4.521 8.50659 4.6 8.26159C4.87 7.43659 5.653 6.79059 6.644 6.57559C9.79555 5.88989 13.0494 5.81554 16.229 6.35659L13.586 8.99959Z" fill="white"/>
</svg>
