<svg width="24" height="24" viewBox="0 0 24 24" fill="none" xmlns="http://www.w3.org/2000/svg">
<path d="M10.7458 14.6253C10.9362 14.8607 11.2223 14.9964 11.5231 14.9964C11.5441 14.9964 11.5651 14.9959 11.5856 14.9945C11.9094 14.974 12.2023 14.7987 12.3732 14.5233L14.8503 10.5262C15.1413 10.0565 14.9963 9.44027 14.527 9.14926C14.0563 8.85824 13.4411 9.00278 13.1501 9.4725L11.4147 12.2728L10.6271 11.2996C10.2785 10.87 9.64861 10.8026 9.22088 11.1512C8.79119 11.4984 8.72479 12.1283 9.07244 12.5575L10.7458 14.6253Z" fill="white"/>
<path d="M8.58584 21.1172C9.63906 21.7022 10.8197 21.9946 12.0004 21.9946C13.181 21.9946 14.3617 21.7022 15.4149 21.1172C18.3822 19.4688 20.4071 16.5117 20.8314 13.2075C21.1234 10.9385 21.0375 8.6499 20.5761 6.40527C20.2719 4.92627 19.1615 3.75097 17.6781 3.33838L13.6859 2.229C12.5839 1.92285 11.4179 1.92187 10.3148 2.229L6.32217 3.33838C4.83926 3.75098 3.72891 4.92676 3.42471 6.40674C2.96328 8.6499 2.87735 10.938 3.16934 13.2075C3.59365 16.5117 5.61855 19.4688 8.58584 21.1172ZM5.38369 6.80859C5.53603 6.06689 6.10098 5.47558 6.85781 5.26513L10.85 4.15575C11.2265 4.05127 11.6132 3.99902 12.0004 3.99902C12.3876 3.99902 12.7743 4.05127 13.1508 4.15576L17.1425 5.26514C17.8998 5.47559 18.4647 6.06739 18.6171 6.81006C19.0341 8.83594 19.1117 10.9024 18.848 12.9526C18.5038 15.6289 16.8573 18.0278 14.4433 19.3691C12.9364 20.2061 11.0643 20.2061 9.55752 19.3691C7.14346 18.0278 5.49697 15.6289 5.15273 12.9526C4.88906 10.9028 4.9667 8.83545 5.38369 6.80859Z" fill="white"/>
</svg>
