<svg width="24" height="24" viewBox="0 0 24 24" fill="none" xmlns="http://www.w3.org/2000/svg">
<path fill-rule="evenodd" clip-rule="evenodd" d="M15.75 4.5C15.75 3.903 15.513 3.33075 15.0907 2.90925C14.6693 2.487 14.097 2.25 13.5 2.25H4.5C3.903 2.25 3.33075 2.487 2.90925 2.90925C2.487 3.33075 2.25 3.903 2.25 4.5C2.25 7.89 2.25 16.11 2.25 19.5C2.25 20.097 2.487 20.6693 2.90925 21.0907C3.33075 21.513 3.903 21.75 4.5 21.75H13.5C14.097 21.75 14.6693 21.513 15.0907 21.0907C15.513 20.6693 15.75 20.097 15.75 19.5V4.5ZM14.25 9.75V19.5C14.25 19.6987 14.1713 19.89 14.0303 20.0303C13.89 20.1713 13.6987 20.25 13.5 20.25H4.5C4.30125 20.25 4.11 20.1713 3.96975 20.0303C3.82875 19.89 3.75 19.6987 3.75 19.5V9.75H14.25ZM14.25 8.25H3.75V4.5C3.75 4.30125 3.82875 4.11 3.96975 3.96975C4.11 3.82875 4.30125 3.75 4.5 3.75H13.5C13.6987 3.75 13.89 3.82875 14.0303 3.96975C14.1713 4.11 14.25 4.30125 14.25 4.5V8.25Z" fill="white"/>
<path fill-rule="evenodd" clip-rule="evenodd" d="M11.25 15V18C11.25 18.414 11.586 18.75 12 18.75C12.414 18.75 12.75 18.414 12.75 18V15C12.75 14.586 12.414 14.25 12 14.25C11.586 14.25 11.25 14.586 11.25 15ZM6 12.75H9C9.414 12.75 9.75 12.414 9.75 12C9.75 11.586 9.414 11.25 9 11.25H6C5.586 11.25 5.25 11.586 5.25 12C5.25 12.414 5.586 12.75 6 12.75ZM6 15.75H9C9.414 15.75 9.75 15.414 9.75 15C9.75 14.586 9.414 14.25 9 14.25H6C5.586 14.25 5.25 14.586 5.25 15C5.25 15.414 5.586 15.75 6 15.75ZM6 18.75H9C9.414 18.75 9.75 18.414 9.75 18C9.75 17.586 9.414 17.25 9 17.25H6C5.586 17.25 5.25 17.586 5.25 18C5.25 18.414 5.586 18.75 6 18.75Z" fill="white"/>
<path d="M12.0156 12.9893C12.5334 12.9893 12.9531 12.5695 12.9531 12.0518C12.9531 11.534 12.5334 11.1143 12.0156 11.1143C11.4979 11.1143 11.0781 11.534 11.0781 12.0518C11.0781 12.5695 11.4979 12.9893 12.0156 12.9893Z" fill="white"/>
<path fill-rule="evenodd" clip-rule="evenodd" d="M21.75 3C21.75 2.586 21.414 2.25 21 2.25H18C17.586 2.25 17.25 2.586 17.25 3V18.75C17.25 18.8978 17.2935 19.0425 17.376 19.1663L18.876 21.4163C19.0147 21.6248 19.2495 21.75 19.5 21.75C19.7505 21.75 19.9853 21.6248 20.124 21.4163L21.624 19.1663C21.7065 19.0425 21.75 18.8978 21.75 18.75V3ZM20.25 6.7695V18.5228L19.5 19.6478L18.75 18.5228V6.7695H20.25ZM20.25 5.2695H18.75V3.75H20.25V5.2695Z" fill="white"/>
</svg>
