<svg width="503" height="386" viewBox="0 0 503 386" fill="none" xmlns="http://www.w3.org/2000/svg">
<g opacity="0.2">
<path d="M112.442 96.6173C106.133 93.6505 95.6998 98.4743 92.3731 105.533C86.0226 119.008 106.562 138.524 114.031 136.429C122.378 134.089 124.026 102.064 112.442 96.6173Z" stroke="#0F31AC" stroke-width="2.28157" stroke-miterlimit="10" stroke-linecap="round" stroke-dasharray="5.7 5.7 5.7 5.7 5.7 5.7"/>
<path d="M80.8879 127.139C78.6364 125.836 54.7862 112.04 41.2888 122.959C31.8116 130.625 31.7209 147.013 38.8428 156.223C52.9484 174.465 96.6885 166.286 101.227 153.234C104.283 144.444 89.9343 132.372 80.8879 127.139Z" stroke="#0F31AC" stroke-width="2.28157" stroke-miterlimit="10" stroke-linecap="round" stroke-dasharray="5.7 5.7 5.7 5.7 5.7 5.7"/>
<path d="M111.574 352.389C169.628 337.979 235.591 323.31 338.02 325.808C395.305 327.206 408.286 309.429 451.7 287.326C490.397 267.627 509.402 228.455 497.73 206.254C485.946 183.841 450.052 192.764 420.656 159.401C407.269 144.206 409.625 133.555 401.896 116.705C377.421 63.3492 285.687 21.6455 240.451 43.7163C180.689 72.8736 231.78 198.858 164.977 233.274C122.721 255.044 90.7825 213.252 49.0594 245.155C28.3861 260.963 3.10188 283.137 1.14646 307.214C1.14646 307.214 -1.59142 366.078 111.574 352.389Z" stroke="#0F31AC" stroke-width="2.28157" stroke-miterlimit="10" stroke-linecap="round" stroke-dasharray="5.7 5.7 5.7 5.7 5.7 5.7"/>
<path d="M432.314 286.827C432.314 286.827 421.798 300.77 411.28 319.9C401.798 337.151 394.587 360.395 392.994 379.802C388.528 379.591 383.623 379.393 378.319 379.205C346.909 378.09 301.563 377.392 251.141 377.392C193.819 377.392 143.057 378.295 111.874 379.685C110.801 379.733 109.75 379.781 108.723 379.83C69.7918 331.576 -8.60407 247.508 63.5414 212.924C63.5414 212.924 68.8267 211.314 76.7506 207.857C101.83 196.911 153.366 167.457 147.633 111.922C147.633 111.922 145.68 101.559 145.68 87.1399C145.68 53.4229 156.354 -2.46643 227.617 0.0843602C270.772 1.63126 310.516 23.5914 334.544 58.7412C358.112 93.2169 395.797 135.635 426.487 111.418C433.571 105.826 442.938 103.754 451.683 106.213C473.773 112.417 498.868 144.538 432.314 286.827Z" fill="#ACBCF8"/>
</g>
<path opacity="0.15" d="M489.62 381.681C489.62 383.962 382.85 385.812 251.142 385.812C176.828 385.812 110.453 385.224 66.7163 384.3C56.6423 384.087 47.7708 383.857 40.2798 383.612C35.3456 383.451 31.0104 383.283 27.325 383.109C17.8429 382.665 12.6641 382.184 12.6641 381.681C12.6641 381.04 21.0696 380.434 36.0719 379.894C42.2159 379.671 49.4653 379.461 57.6972 379.265C101.011 378.225 171.52 377.549 251.142 377.549C321.179 377.549 384.165 378.072 427.795 378.905C466.211 379.639 489.62 380.613 489.62 381.681Z" fill="#040C2B"/>
<path d="M220.153 324.172H170.145C166.94 320.045 164.05 315.675 161.494 311.083C155.583 300.467 151.614 288.951 149.698 276.855C147.51 263.036 148.096 249.194 151.438 235.71C154.665 222.697 160.314 210.576 168.225 199.687C176.136 188.797 185.918 179.68 197.298 172.59C207.376 166.311 218.328 161.866 229.927 159.342L206.694 185.92L235.171 191.542C218.825 195.519 204.562 205.059 194.562 218.822C183.395 234.194 178.881 252.995 181.854 271.762C185.513 294.865 200.242 314.093 220.153 324.172Z" fill="#1A72BE"/>
<path d="M368.842 372.396V364.324H286.176C289.013 363.391 291.819 362.338 294.59 361.166C307.587 355.67 319.254 347.804 329.268 337.791C331.213 335.845 333.079 333.837 334.86 331.768H368.842V323.697L411.01 348.046L368.842 372.396Z" fill="#1A72BE"/>
<path d="M355.8 262.185C355.751 265.648 355.526 269.146 355.131 272.58C354.74 275.973 354.175 279.381 353.449 282.714C352.732 286.011 351.842 289.31 350.803 292.52C349.775 295.7 348.576 298.868 347.242 301.936C345.917 304.981 344.427 307.999 342.812 310.905C341.207 313.797 339.441 316.646 337.565 319.373C335.693 322.092 333.668 324.754 331.544 327.284C330.264 328.811 328.93 330.309 327.555 331.768C327.507 331.82 327.457 331.873 327.408 331.925C327.283 332.058 327.158 332.189 327.033 332.319C326.506 332.869 325.973 333.414 325.434 333.954C323.501 335.886 321.502 337.735 319.442 339.499C319.284 339.635 319.125 339.769 318.966 339.904C318.839 340.011 318.711 340.118 318.584 340.225C318.473 340.317 318.363 340.409 318.253 340.501C318.119 340.611 317.986 340.722 317.852 340.832C317.526 341.1 317.198 341.367 316.868 341.629C316.712 341.755 316.555 341.88 316.397 342.005C316.071 342.263 315.742 342.52 315.412 342.775C315.081 343.03 314.749 343.283 314.416 343.535C312.747 344.79 311.037 345.998 309.308 347.144C308.61 347.605 307.905 348.06 307.194 348.507C307.016 348.618 306.838 348.73 306.659 348.84C306.302 349.062 305.943 349.281 305.583 349.498C305.082 349.8 304.577 350.097 304.072 350.39C303.761 350.571 303.45 350.75 303.136 350.926C302.995 351.006 302.853 351.087 302.711 351.166C302.577 351.241 302.443 351.316 302.308 351.389C302.163 351.47 302.017 351.55 301.872 351.629C301.748 351.698 301.625 351.765 301.5 351.832C301.317 351.931 301.134 352.03 300.951 352.127C300.584 352.324 300.216 352.517 299.846 352.709C299.661 352.805 299.476 352.9 299.291 352.994C298.179 353.562 297.055 354.111 295.92 354.641C295.73 354.729 295.541 354.817 295.351 354.903C294.401 355.339 293.444 355.761 292.48 356.169C292.28 356.253 292.079 356.337 291.879 356.42C291.679 356.504 291.478 356.587 291.278 356.668C290.942 356.806 290.604 356.941 290.267 357.074C278.124 361.887 265.301 364.324 252.114 364.324H74.8477V331.768H258.337L258.313 331.497C260.739 331.285 263.172 330.948 265.546 330.495C267.881 330.05 270.216 329.482 272.486 328.807C274.725 328.14 276.955 327.355 279.113 326.47C281.249 325.596 283.366 324.604 285.405 323.523C287.427 322.451 289.422 321.266 291.333 320.001C293.232 318.743 295.093 317.376 296.865 315.94C298.63 314.508 300.346 312.974 301.968 311.379C303.586 309.788 305.146 308.098 306.606 306.359C308.066 304.618 309.459 302.788 310.745 300.918C312.035 299.044 313.247 297.088 314.35 295.102C315.457 293.107 316.48 291.037 317.388 288.948C318.303 286.847 319.123 284.676 319.828 282.499C320.538 280.303 321.147 278.047 321.639 275.791C322.135 273.512 322.521 271.18 322.788 268.859C323.059 266.506 323.213 264.108 323.246 261.732C323.28 259.314 323.189 256.86 322.978 254.434C322.765 252.009 322.428 249.576 321.975 247.201C321.53 244.867 320.962 242.532 320.286 240.262C319.62 238.023 318.835 235.793 317.95 233.634C317.075 231.499 316.084 229.382 315.003 227.342C313.931 225.321 312.746 223.326 311.48 221.415C310.222 219.516 308.856 217.655 307.419 215.883C305.988 214.118 304.454 212.401 302.858 210.78C301.268 209.162 299.578 207.602 297.838 206.142C296.098 204.681 294.268 203.289 292.398 202.003C290.525 200.714 288.567 199.501 286.582 198.398C284.587 197.29 282.516 196.268 280.429 195.36C278.327 194.445 276.156 193.624 273.979 192.92C271.783 192.209 269.526 191.601 267.271 191.109C265.1 190.637 262.88 190.264 260.668 189.999L261.605 195.402L218.943 179.735L253.839 150.617L254.942 156.973C257.987 157.055 261.048 157.271 264.061 157.617C267.452 158.007 270.86 158.573 274.194 159.299C277.491 160.016 280.79 160.906 284 161.944C287.18 162.973 290.348 164.171 293.416 165.507C296.461 166.831 299.479 168.321 302.385 169.936C305.277 171.542 308.126 173.307 310.853 175.184C313.573 177.055 316.235 179.08 318.764 181.203C321.295 183.326 323.751 185.595 326.066 187.949C328.388 190.308 330.622 192.807 332.704 195.376C334.799 197.959 336.79 200.672 338.624 203.44C340.471 206.23 342.202 209.142 343.767 212.096C345.347 215.075 346.797 218.17 348.076 221.293C349.369 224.449 350.518 227.708 351.491 230.98C352.477 234.293 353.306 237.698 353.955 241.102C354.612 244.55 355.102 248.082 355.409 251.598C355.717 255.112 355.848 258.674 355.8 262.185Z" fill="#407BFF"/>
<path d="M304.07 350.39C304.576 350.097 305.081 349.8 305.582 349.498C305.081 349.801 304.577 350.098 304.07 350.39Z" fill="#829CF8"/>
<path d="M307.191 348.507C307.902 348.06 308.608 347.605 309.305 347.144C308.606 347.609 307.901 348.063 307.191 348.507Z" fill="#829CF8"/>
<path d="M309.305 347.144C311.034 345.998 312.744 344.79 314.413 343.535C312.746 344.791 311.043 345.996 309.305 347.144Z" fill="#829CF8"/>
<path d="M314.414 343.535C314.747 343.283 315.079 343.03 315.41 342.775C315.079 343.031 314.748 343.285 314.414 343.535Z" fill="#829CF8"/>
<path d="M315.41 342.775C315.74 342.52 316.069 342.263 316.395 342.004C316.069 342.265 315.74 342.521 315.41 342.775Z" fill="#829CF8"/>
<path d="M327.556 331.768C327.506 331.821 327.456 331.873 327.406 331.925C327.456 331.873 327.506 331.82 327.554 331.768H327.556Z" fill="#829CF8"/>
<path d="M385.409 204.539C383.939 207.99 382.053 211.224 379.788 214.174L382.245 217.306L358.141 220.739L367.216 198.147L369.206 200.685C369.657 199.867 370.066 199.024 370.434 198.16C373.37 191.266 373.446 183.641 370.649 176.691C367.851 169.74 362.513 164.295 355.62 161.358C348.726 158.422 341.101 158.346 334.15 161.143C328.368 163.47 323.628 167.556 320.507 172.831C316.215 169.479 311.695 166.456 306.961 163.776C308.878 160.677 311.169 157.834 313.813 155.282C317.937 151.3 322.734 148.191 328.072 146.043C333.373 143.908 338.948 142.826 344.64 142.826C344.679 142.826 344.716 142.826 344.755 142.827C350.694 142.842 356.497 144.038 361.999 146.382C367.502 148.726 372.384 152.081 376.51 156.353C380.491 160.477 383.6 165.275 385.749 170.611C387.898 175.95 388.98 181.562 388.965 187.295C388.949 193.235 387.753 199.037 385.409 204.539Z" fill="#1A72BE"/>
<path d="M360.483 176.37C359.797 174.767 358.816 173.327 357.565 172.091C356.315 170.855 354.859 169.884 353.237 169.206C351.558 168.504 349.775 168.148 347.937 168.148C346.099 168.148 344.316 168.504 342.636 169.206C341.015 169.885 339.559 170.855 338.308 172.091C337.058 173.327 336.077 174.767 335.391 176.37C334.68 178.031 334.32 179.794 334.32 181.611C334.32 183.428 334.68 185.191 335.391 186.852C336.077 188.455 337.058 189.895 338.308 191.131C339.559 192.367 341.015 193.338 342.636 194.016C344.316 194.718 346.099 195.074 347.937 195.074C349.775 195.074 351.558 194.718 353.237 194.016C354.859 193.338 356.315 192.367 357.565 191.131C358.816 189.895 359.797 188.455 360.483 186.852C361.193 185.191 361.554 183.428 361.554 181.611C361.554 179.794 361.193 178.031 360.483 176.37ZM347.937 193.979C341.029 193.979 335.428 188.441 335.428 181.611C335.428 174.781 341.029 169.243 347.937 169.243C354.845 169.243 360.445 174.781 360.445 181.611C360.445 188.441 354.845 193.979 347.937 193.979Z" fill="#ACBCF8"/>
<path d="M348.74 168.141H347.133V169.73H348.74V168.141Z" fill="#ACBCF8"/>
<path d="M348.74 193.013H347.133V194.602H348.74V193.013Z" fill="#ACBCF8"/>
<path d="M361.227 182.497L361.23 180.909L359.624 180.905L359.62 182.494L361.227 182.497Z" fill="#ACBCF8"/>
<path d="M336.043 182.384L336.047 180.795L334.44 180.791L334.436 182.38L336.043 182.384Z" fill="#ACBCF8"/>
<path d="M345.459 180.492C345.58 180.245 345.779 180.094 345.904 180.154L355.93 184.955L356.736 185.951L355.493 185.847L345.467 181.047C345.342 180.987 345.339 180.738 345.459 180.492Z" fill="#ACBCF8"/>
<path d="M347.958 183.813C347.679 183.815 347.453 183.752 347.452 183.672L347.406 177.274L347.937 176.167L348.417 177.267L348.463 183.665C348.463 183.745 348.238 183.811 347.958 183.813Z" fill="#ACBCF8"/>
<path d="M347.933 183.055C348.676 183.055 349.277 182.46 349.277 181.727C349.277 180.993 348.676 180.398 347.933 180.398C347.191 180.398 346.59 180.993 346.59 181.727C346.59 182.46 347.191 183.055 347.933 183.055Z" fill="#ACBCF8"/>
<path d="M294.522 276.386L294.161 282.482L294.154 282.604L294.189 282.614L297.416 283.578C296.843 285.406 295.971 287.115 294.851 288.658C294.831 288.686 294.811 288.714 294.791 288.741L293.548 288.211L291.501 287.336L287.296 292.214L288.8 294.06C287.045 295.07 285.107 295.835 283.045 296.306L282.363 293.435L275.585 293.297L274.572 296.544C272.297 296.162 270.158 295.428 268.223 294.406L270.183 291.536L265.548 286.984L261.786 288.946L261.753 288.963C261.663 288.845 261.575 288.726 261.488 288.605C260.022 286.579 258.981 284.273 258.48 281.799L261.796 281.168L262.152 274.95L258.724 274.013C259.321 271.784 260.359 269.72 261.747 267.898L265.269 269.731L270 265.279L268.112 262.527C270.532 261.237 273.272 260.401 276.19 260.143L276.95 263.841L283.722 264.153L284.778 261.092C285.389 260.875 289.092 262.901 290.892 264.264L288.72 267.026L293.27 271.824L296.184 270.436C297.068 272.103 297.685 273.911 297.986 275.81L294.522 276.386ZM278.429 266.792C275.904 266.741 273.477 267.364 271.391 268.575C270.676 268.99 270.002 269.474 269.377 270.024C266.93 272.178 265.545 275.079 265.476 278.194C265.406 281.308 266.661 284.263 269.01 286.514C271.359 288.766 274.52 290.043 277.91 290.112C281.301 290.181 284.516 289.033 286.963 286.879C289.409 284.725 290.795 281.824 290.864 278.71C290.933 275.595 289.678 272.64 287.33 270.389C287.09 270.159 286.843 269.94 286.587 269.732C284.334 267.891 281.474 266.854 278.429 266.792Z" fill="#CDD7FB"/>
<path d="M288.549 236.411L288.144 243.563L288.135 243.706L288.174 243.718L291.701 244.844C291.071 246.99 290.114 248.996 288.887 250.808C288.865 250.841 288.843 250.874 288.821 250.906L287.463 250.285L285.226 249.263L280.62 254.993L282.261 257.155C280.339 258.343 278.219 259.243 275.963 259.8L275.223 256.433L267.812 256.282L266.699 260.093C264.211 259.648 261.873 258.79 259.76 257.595L261.907 254.224L256.847 248.892L252.731 251.2L252.695 251.22C252.597 251.081 252.5 250.941 252.406 250.8C250.806 248.426 249.671 245.722 249.129 242.82L252.755 242.074L253.156 234.778L249.409 233.685C250.065 231.069 251.204 228.645 252.725 226.506L256.574 228.65L261.755 223.419L259.695 220.194C262.343 218.677 265.34 217.691 268.532 217.383L269.357 221.721L276.761 222.076L277.921 218.484C278.59 218.227 282.635 220.598 284.601 222.195L282.221 225.439L287.188 231.061L290.376 229.427C291.34 231.382 292.012 233.502 292.337 235.73L288.549 236.411ZM270.969 225.181C268.208 225.125 265.552 225.86 263.27 227.285C262.488 227.772 261.749 228.341 261.065 228.988C258.386 231.519 256.866 234.925 256.784 238.579C256.703 242.233 258.07 245.698 260.634 248.335C263.199 250.972 266.653 252.466 270.36 252.542C274.068 252.617 277.585 251.264 280.264 248.734C282.943 246.203 284.463 242.797 284.545 239.143C284.626 235.488 283.259 232.024 280.695 229.387C280.433 229.118 280.163 228.86 279.884 228.616C277.424 226.46 274.299 225.249 270.969 225.181Z" fill="#CDD7FB"/>
<path d="M252.43 262.441L251.872 272.29L251.86 272.486L251.913 272.502L256.763 274.053C255.897 277.007 254.581 279.771 252.894 282.265C252.864 282.311 252.834 282.356 252.803 282.4L250.935 281.546L247.86 280.137L241.526 288.028L243.783 291.006C241.14 292.641 238.225 293.882 235.123 294.648L234.106 290.011L223.915 289.804L222.384 295.052C218.964 294.44 215.749 293.258 212.844 291.612L215.797 286.971L208.839 279.628L203.179 282.807L203.129 282.834C202.995 282.643 202.862 282.451 202.732 282.256C200.532 278.987 198.973 275.263 198.227 271.267L203.213 270.24L203.764 260.193L198.612 258.688C199.515 255.086 201.08 251.748 203.172 248.802L208.464 251.755L215.589 244.551L212.755 240.111C216.397 238.021 220.519 236.664 224.907 236.24L226.042 242.213L236.222 242.701L237.817 237.755C238.737 237.402 244.299 240.666 247.001 242.865L243.729 247.332L250.558 255.073L254.943 252.823C256.268 255.516 257.192 258.435 257.639 261.502L252.43 262.441ZM228.257 246.977C224.461 246.9 220.81 247.912 217.671 249.874C216.596 250.545 215.58 251.329 214.639 252.22C210.955 255.705 208.865 260.395 208.753 265.427C208.641 270.459 210.52 275.23 214.046 278.861C217.572 282.493 222.321 284.55 227.419 284.653C232.517 284.757 237.354 282.894 241.038 279.409C244.722 275.924 246.812 271.234 246.924 266.202C247.035 261.17 245.156 256.399 241.63 252.768C241.271 252.397 240.899 252.043 240.515 251.707C237.133 248.739 232.836 247.07 228.257 246.977Z" fill="#CDD7FB"/>
<path d="M151.779 346.809C151.779 346.809 155.022 359.59 159.239 364.301L164.212 370.014L157.347 370.898L149.265 362.917C149.265 362.917 150.833 360.797 148.184 353.906L151.779 346.809Z" fill="#0085F9"/>
<path d="M161.971 372.517C157.753 373.225 156.455 371.694 156.455 371.694L153.275 369.212L150.565 367.099L150.834 371.162H149.645L149.268 366.626C148.601 365.213 148.498 364.115 148.643 363.287C148.915 361.765 149.838 361.145 149.838 361.145C150.541 364.737 157.376 368.748 157.376 368.748C161.591 369.986 162.077 367.56 162.077 367.56L166.836 369.807C168.35 372.458 161.971 372.517 161.971 372.517Z" fill="#040C2B"/>
<path opacity="0.15" d="M153.275 369.212L150.565 367.099L150.834 371.162H149.645L149.268 366.627C148.601 365.213 148.498 364.115 148.643 363.287L149.386 364.943C149.386 364.943 153.52 366.72 153.275 369.212Z" fill="black"/>
<path d="M155.328 343.769L153.799 345.102C153.755 345.14 153.715 345.181 153.68 345.226C153.529 345.414 153.448 345.659 153.459 345.912C153.501 346.997 153.378 347.891 153.235 348.534C153.074 349.259 152.887 349.666 152.887 349.666C152.822 349.788 152.757 349.909 152.693 350.026C150.914 353.275 149.388 354.668 148.653 355.202C148.353 355.421 148.184 355.496 148.184 355.496L145.945 351.729L141.573 344.373L140.406 342.409L139.644 341.127L139.048 340.125C138.723 339.837 138.403 339.561 138.087 339.297C136.938 338.334 135.853 337.517 134.839 336.824C134.559 336.632 134.285 336.45 134.016 336.276C133.592 336.003 133.181 335.752 132.786 335.523C131.239 334.623 129.915 334.036 128.851 333.654C126.929 332.964 125.857 332.939 125.857 332.939C124.338 333.183 122.921 333.369 121.601 333.506C119.162 333.759 117.054 333.844 115.251 333.824C112.684 333.795 110.735 333.552 109.319 333.271C106.852 332.781 104.858 330.787 104.215 328.147C103.391 324.757 103.911 321.008 104.382 318.781C104.522 318.119 104.657 317.592 104.752 317.248C104.832 316.96 104.882 316.801 104.882 316.801L110.613 317.685L115.091 318.19L115.109 318.192L116.619 318.363L119.813 318.724L120.496 318.802L131.572 320.054L146.562 321.749L151.065 330.691L152.279 333.104L152.329 333.2L152.745 334.028L152.894 334.323C152.894 334.323 152.894 334.323 152.894 334.324L155.948 340.388C156.523 341.53 156.262 342.956 155.328 343.769Z" fill="#040C2B"/>
<path d="M150.023 366.922H145.103L139.535 357.675L140.941 353.729L140.081 345.368L139.644 341.126L139.535 340.065L148.185 335.942L147.641 339.62L146.077 350.195C146.012 350.709 145.969 351.22 145.946 351.729C145.578 359.736 150.023 366.922 150.023 366.922Z" fill="#0085F9"/>
<path d="M140.994 354.672C140.994 354.672 137.264 355.438 137.967 360.267L138.508 361.15L138.616 364.684H139.535L139.967 362.152C139.967 362.152 141.211 362.682 143.697 365.921C143.697 365.921 144.779 370.515 152.617 369.749C152.617 369.749 154.364 367.914 149.085 365.18C149.085 365.18 147.049 366.392 144.779 364.508C144.779 364.508 140.075 358.088 140.994 354.672Z" fill="#040C2B"/>
<path opacity="0.15" d="M152.283 333.103L152.269 334.677C152.269 334.677 150.256 337.417 147.643 339.62C145.753 341.214 143.552 342.989 141.576 344.373C141.06 344.736 140.559 345.071 140.083 345.369L139.647 341.127L139.051 340.124C138.726 339.837 138.406 339.561 138.09 339.297L151.068 330.69L152.283 333.103Z" fill="black"/>
<path opacity="0.15" d="M134.838 336.823C134.117 336.329 133.431 335.899 132.785 335.523C130.472 330.435 129.803 322.809 129.803 322.809L115.09 318.191L131.571 320.054L132.938 321.749L134.838 336.823Z" fill="black"/>
<path opacity="0.15" d="M118.903 319.387C118.903 319.387 112.99 320.158 110.666 323.928C110.666 323.928 107.963 325.93 105.098 326.519L109.963 323.398C109.963 323.398 113.301 318.734 118.903 319.387Z" fill="black"/>
<path opacity="0.15" d="M130.342 328.463C130.325 328.477 130.023 328.715 129.457 329.11C128.153 330.019 125.45 331.759 121.6 333.506C119.161 333.759 117.053 333.844 115.25 333.823C115.25 333.823 121.816 332.384 128.537 329.325C129.139 329.051 129.742 328.764 130.342 328.463Z" fill="black"/>
<path d="M152.887 333.881C148.886 338.122 137.858 343.776 137.858 343.776C131.208 334.353 131.425 321.808 131.425 321.808L112.152 317.538L117.964 314.269C117.964 314.269 120.878 314.63 124.727 314.894C130.079 315.262 137.238 315.443 140.885 314.21C140.984 314.176 141.081 314.146 141.177 314.119C142.867 313.631 144.161 314.007 145.147 314.8C147.669 316.826 148.183 321.572 148.183 321.572C149.481 327.167 152.887 333.881 152.887 333.881Z" fill="#040C2B"/>
<path d="M152.918 352.34L153.033 351.995C152.976 352.2 152.929 352.314 152.918 352.34Z" fill="#758CFA"/>
<path opacity="0.15" d="M153.46 345.912C153.503 346.997 153.38 347.891 153.237 348.534C153.084 346.869 152.596 344.649 151.402 341.862L153.682 345.226C153.531 345.414 153.45 345.659 153.46 345.912Z" fill="black"/>
<path opacity="0.15" d="M145.15 314.8C142.681 316.011 138.131 317.991 134.861 317.95L119.652 318.852L124.73 314.894C130.082 315.262 137.241 315.443 140.888 314.21C140.987 314.177 141.084 314.146 141.18 314.119C142.87 313.631 144.164 314.007 145.15 314.8Z" fill="black"/>
<path d="M132.561 314.269L144.184 313.091L135.21 316.153L121.695 318.215L132.561 314.269Z" fill="black"/>
<path d="M143.158 302.666L153.754 300.016L145.077 314.357L135.59 315.447L143.158 302.666Z" fill="#0F31AC"/>
<path d="M121.695 318.215L135.589 316.801L144.184 313.091L135.589 315.447L121.695 318.215Z" fill="#0F31AC"/>
<path d="M137.346 312.001C137.346 312.001 137.277 312.973 136.43 313.339C136.213 313.432 135.946 313.485 135.616 313.474L133.562 312.59L127.886 313.238L123.709 307.973L123.074 307.172L126.913 306.642L127.168 306.991L129.311 309.935L129.616 310.352C129.616 310.352 130.967 311.353 132.21 310.175C132.21 310.175 132.828 309.214 133.761 309.206C134.092 309.204 134.463 309.321 134.859 309.645C134.859 309.645 136.914 310.823 137.346 312.001Z" fill="#0085F9"/>
<path opacity="0.15" d="M136.431 313.339C136.215 313.432 135.948 313.485 135.618 313.473L133.563 312.59L127.887 313.238L123.711 307.973L126.286 307.537L127.169 306.991L129.313 309.934L129.617 310.352C129.617 310.352 130.968 311.353 132.212 310.175C132.212 310.175 132.83 309.213 133.762 309.206C134.689 310.04 136.07 311.54 136.431 313.339Z" fill="black"/>
<path d="M121.156 288.236L117.805 291.476L111.293 284.163L109.047 281.64L114.02 270.273L117.859 268.918L119.704 279.726L121.156 288.236Z" fill="#D18B4F"/>
<path opacity="0.15" d="M119.704 279.726L117.561 280.786C117.561 280.786 114.858 279.255 112.155 283.378C111.951 283.69 111.658 283.949 111.293 284.163L109.047 281.64L114.02 270.273L117.859 268.918L119.704 279.726Z" fill="black"/>
<path d="M127.365 307.261C127.365 307.261 125.265 307.908 124.616 307.614C124.393 307.512 124.075 305.399 123.753 302.667C123.138 297.439 122.508 289.944 122.508 289.944L123.643 289.061C123.643 289.061 124.069 291.289 124.557 294.145C125.098 297.31 125.715 301.247 125.914 303.785C125.914 303.785 127.087 306.085 127.365 307.261Z" fill="white"/>
<path d="M125.181 316.183C125.178 316.183 125.089 316.191 122.574 316.902C122.36 316.962 122.14 317.024 121.914 317.087C121.857 317.102 121.799 317.118 121.741 317.133C120.213 317.552 118.453 317.989 116.618 318.363C116.489 318.389 116.36 318.415 116.231 318.441C116.16 318.454 116.09 318.468 116.02 318.482C111.997 319.263 107.703 319.692 104.751 318.891C104.625 318.857 104.502 318.82 104.381 318.781C104.181 318.716 103.987 318.646 103.801 318.568L103.824 317.937L103.917 315.391L104.087 310.759L104.089 310.721L104.251 306.313V306.312L104.997 285.975L105.098 283.23C105.098 283.23 105.115 283.179 105.152 283.09V283.09C105.421 282.429 106.732 279.679 109.77 279.982C109.798 279.984 109.827 279.987 109.856 279.991C109.856 279.991 110.559 280.52 111.598 281.611C111.907 281.936 112.246 282.311 112.606 282.737C113.856 284.218 115.346 286.314 116.667 289.061C116.667 289.061 118.45 290.71 118.883 288.001V281.876H123.37C123.37 281.876 123.779 283.192 124.083 288.096C124.162 289.352 124.232 290.842 124.288 292.606C124.321 293.673 124.349 294.839 124.369 296.114C124.401 298.208 124.413 300.596 124.397 303.313L124.619 306.958L124.66 307.631L124.671 307.809L124.762 309.301L124.992 313.079L125.104 314.919L125.181 316.183Z" fill="white"/>
<path opacity="0.15" d="M127.362 307.261C127.362 307.261 125.262 307.908 124.613 307.613C124.39 307.512 124.072 305.399 123.75 302.666L124.554 294.145C125.095 297.309 125.711 301.246 125.91 303.785C125.91 303.785 127.083 306.085 127.362 307.261Z" fill="black"/>
<path opacity="0.15" d="M122.574 316.902C122.36 316.963 122.14 317.025 121.914 317.087C121.857 317.102 121.799 317.118 121.741 317.134C120.213 317.552 118.453 317.99 116.618 318.363C116.489 318.389 116.36 318.416 116.231 318.441C116.16 318.455 116.09 318.468 116.02 318.482C111.997 319.263 107.703 319.693 104.751 318.891C104.625 318.857 104.502 318.82 104.381 318.781C104.363 318.775 104.345 318.769 104.326 318.763C104.145 318.704 103.97 318.639 103.801 318.569L103.824 317.937L103.903 315.788L103.917 315.392L104.087 310.759L104.089 310.721L104.251 306.313V306.312L104.997 285.975L109.558 284.958C109.559 284.958 109.559 284.959 109.559 284.959H109.56C109.625 285 112.218 286.665 110.99 297.248L109.585 308.262C109.585 308.262 109.747 309.38 112.017 310.971L113.601 311.861L117.926 314.291L122.328 316.764L122.574 316.902Z" fill="black"/>
<path d="M108.648 316.601L123.695 317.214C123.695 317.214 127.063 316.925 127.758 315.067C127.758 315.067 129.561 313.391 131.872 315.067C131.872 315.067 135.696 315.093 134.831 312.679C134.831 312.679 131.371 307.967 127.371 311.383L124.397 313.503L110.071 311.324L108.648 316.601Z" fill="#0085F9"/>
<path d="M112.019 310.971L111.754 311.58L109.549 316.637L109.478 316.801L108.65 316.601L105.1 315.741C104.981 315.715 104.866 315.686 104.753 315.656C104.456 315.578 104.178 315.489 103.919 315.392C101.726 314.57 100.831 313.112 100.502 311.78C100.274 310.86 100.318 309.999 100.391 309.453C100.441 309.079 100.505 308.851 100.505 308.851L101.552 300.28L103.045 288.06C103.991 282.906 105.1 283.23 105.1 283.23C107.37 282.286 108.737 283.397 109.559 284.958C109.56 284.958 109.56 284.959 109.56 284.959H109.561C109.777 285.37 109.955 285.812 110.102 286.257C110.665 287.958 110.78 289.797 110.48 291.576L107.744 307.769L107.608 308.573C107.608 308.574 107.608 308.574 107.608 308.574L107.532 309.027L112.019 310.971Z" fill="white"/>
<path d="M127.911 274.749C127.911 274.749 127.27 276.451 126.54 278.164C126.321 278.679 126.252 279.253 126.34 279.812C126.629 281.631 126.958 286.006 123.996 288.161C123.48 288.537 122.862 288.845 122.127 289.061C122.127 289.061 118.98 289.93 117.305 285.341C116.885 284.19 116.558 282.695 116.396 280.757C116.396 280.753 116.396 280.75 116.395 280.747C116.368 280.411 116.459 280.076 116.644 279.805L117.065 279.188L120.726 272.674L125.749 263.735C125.749 263.735 127.482 264.835 128.195 267.782C128.601 269.46 128.676 271.736 127.911 274.749Z" fill="#040C2B"/>
<path d="M120.452 280.58C120.452 280.58 117.208 282.523 114.721 273.983H110.559L113.424 265.267L123.1 263.735C123.1 263.735 130.615 274.278 120.452 280.58Z" fill="#0085F9"/>
<path d="M122.506 259.966C122.506 259.966 114.428 255.882 110.012 266.813C109.902 267.087 109.771 267.35 109.621 267.6L107.461 271.188C106.869 272.172 106.512 273.302 106.425 274.476L106.327 275.786C106.268 276.583 105.883 277.31 105.278 277.763L102.071 280.168L104.396 279.226C104.396 279.226 102.828 283.937 100.449 285.41C100.449 285.41 105.15 282.292 108.74 282.444C109.038 282.456 109.335 282.423 109.627 282.356C111.199 281.99 115.32 280.523 113.91 275.338C113.91 275.338 114.181 273.336 116.127 271.805C116.127 271.805 123.473 270.002 125.557 273.936C125.557 273.936 130.399 262.97 122.506 259.966Z" fill="#040C2B"/>
<path opacity="0.15" d="M107.768 307.71C107.768 307.71 106.965 309.94 103.938 310.764C103.938 310.764 107.598 310.782 107.768 307.71Z" fill="black"/>
<path opacity="0.67" d="M259.583 376.886L261.518 377.719L260.953 380.74L257.648 379.594L259.583 376.886Z" fill="#050505"/>
<path d="M232.62 370.193C232.62 370.193 227.461 369.516 226.332 372.589C226.332 372.589 226.252 380.245 229.476 380.766C229.476 380.766 232.216 381.078 233.99 379.724L244.308 378.422L251.321 377.901L232.62 370.193Z" fill="#040C2B"/>
<path d="M263.613 373.865C263.613 373.865 266.321 378.685 264.718 380.602C264.47 380.898 264.816 381.258 265.338 381.257L276.229 381.235C276.229 381.235 282.435 382.485 283.645 377.224C283.645 377.224 284.37 371.651 276.47 370.714C268.571 369.776 276.39 370.401 276.39 370.401C276.39 370.401 267.2 371.131 263.613 373.865Z" fill="#040C2B"/>
<path d="M267.928 374.099L267.899 374.407L267.284 380.766L255.797 379.646L259.577 374.17L259.626 374.099C267.928 374.308 267.928 374.099 267.928 374.099Z" fill="#0085F9"/>
<path opacity="0.38" d="M267.929 374.099L267.899 374.407L261.843 374.594L259.578 374.17L259.626 374.099C267.929 374.308 267.929 374.099 267.929 374.099Z" fill="#050505"/>
<path d="M285.554 363.126L272.178 366.002L254.628 369.776L240.687 366.184L218.675 360.513C217.669 352.146 233.508 356.964 233.508 356.964L243.821 358.244H243.822L249.872 358.995L263.575 361.078L267.928 359.171L273.087 356.912C286.992 355.583 285.554 363.126 285.554 363.126Z" fill="#081956"/>
<path opacity="0.3" d="M272.178 366.002L254.628 369.776L240.688 366.184L236.895 363.682L243.821 358.244H243.823L249.872 358.995L263.576 361.078L267.929 359.171L272.178 366.002Z" fill="black"/>
<path d="M235.039 372.641L253.982 367.172C253.982 367.172 267.524 361.599 269.862 361.911C269.862 361.911 286.628 352.38 285.5 364.047C285.5 364.047 287.434 373.214 257.529 374.62L235.039 372.641Z" fill="#081956"/>
<path opacity="0.13" d="M248.059 368.865L250.154 368.188C251.74 369.358 254.721 370.331 256.684 371.313C258.904 372.423 261.601 373.448 264.18 374.125C262.487 374.351 260.795 374.576 259.102 374.802L248.059 368.865Z" fill="black"/>
<path d="M262.728 374.282C262.728 374.282 257.207 379.151 260.915 380.766C260.915 380.766 239.486 378.103 222.345 367.504C221.046 366.701 220.124 365.676 219.691 364.549C218.121 360.462 215.952 351.164 232.863 359.099C232.863 359.099 245.999 364.039 250.328 368.29C251.157 369.104 252.141 369.846 253.283 370.483C255.993 371.993 260.586 374.353 262.728 374.282Z" fill="#081956"/>
<path d="M249.631 320.225L259.626 320.245L262.851 326.964C262.851 326.964 256.563 337.485 247.535 328.11C247.937 326.599 249.27 324.385 249.671 322.875C250.316 321.313 250.235 321.417 249.631 320.225Z" fill="#CC8B5B"/>
<path d="M261.763 324.646C259.626 326.087 257.867 326.994 256.419 327.507C255.528 327.822 254.754 327.988 254.083 328.037C252.636 328.144 251.66 327.708 251.004 327.049C249.863 326.538 248.56 325.81 247.068 324.817C242.998 326.06 234.743 328.837 235.458 330.741L236.274 337.977L236.341 338.567L237.692 350.538L238.941 350.525C238.92 350.616 238.909 350.663 238.909 350.663L254.083 350.823L273.329 351.026L275.564 331.215C276.509 328.696 261.763 324.646 261.763 324.646Z" fill="white"/>
<path d="M256.355 327.519V350.339L238.789 350.525C239.087 349.235 241.36 339.27 240.531 338.735L236.189 338.567L236.122 337.977L235.305 330.74C234.59 328.837 242.846 326.06 246.915 324.817C248.229 324.416 249.106 324.176 249.106 324.176C250.696 325.25 252.076 326.024 253.276 326.563C254.432 327.081 255.421 327.379 256.267 327.507C256.295 327.51 256.326 327.515 256.355 327.519Z" fill="white"/>
<path d="M241.473 352.351L240.768 358.916L232.822 356.247C231.021 355.641 229.787 354.5 229.564 353.196C229.367 352.036 229.492 350.383 230.43 348.08L232.203 339.383C232.203 339.383 231.357 333.367 235.468 329.981C235.468 329.981 236.959 339.955 239.619 341.622L240.184 349.955L241.473 352.351Z" fill="white"/>
<path opacity="0.13" d="M240.789 352.117C240.789 352.117 237.84 350.033 234.301 349.825C234.301 349.825 235.088 349.356 237.25 349.825C237.25 349.825 235.284 348.731 233.023 349.148C233.023 349.148 237.742 347.533 240.789 352.117Z" fill="black"/>
<path opacity="0.13" d="M239.657 341.596C239.657 341.596 234.256 337.117 234.418 334.825C234.418 334.825 235.869 336.856 236.272 337.221C236.272 337.221 234.256 334.46 235.062 333.367C235.062 333.367 236.187 336.834 237.036 336.897L239.657 341.596Z" fill="black"/>
<path opacity="0.13" d="M239.698 341.57C239.698 341.57 235.668 332.82 236.474 332.351C236.474 332.351 236.635 334.07 239.698 341.57Z" fill="black"/>
<path d="M268.574 352.016L269.279 358.58L277.226 355.911C279.027 355.306 280.261 354.164 280.483 352.86C280.681 351.7 280.555 350.048 279.618 347.745L277.844 339.047C277.844 339.047 278.691 333.032 274.58 329.646C274.58 329.646 273.088 339.62 270.428 341.287L269.864 349.62L268.574 352.016Z" fill="white"/>
<path opacity="0.13" d="M249.59 322.719C249.59 322.719 254.374 330.362 260.647 322.374L258.699 319.229L250.759 320.228L249.59 322.719Z" fill="black"/>
<path d="M247.535 309.412C247.535 309.412 256.725 303.839 260.432 308.734C260.432 308.734 268.09 317.328 256.16 325.037C256.16 325.037 248.422 328.839 247.535 309.412Z" fill="#0085F9"/>
<path d="M248.53 317.534L246.96 313.108C246.41 312.09 246.889 308.65 246.96 307.573C247.182 304.2 253.475 301.536 258.899 302.901C258.899 302.901 264.081 303.884 263.332 313.943L261.478 318.422C261.478 318.422 261.72 310.349 258.899 309.932C258.899 309.932 252.45 311.495 248.259 311.391C248.259 311.391 248.138 316.938 248.53 317.534Z" fill="black"/>
<path d="M250.758 316.599C251.96 316.599 252.935 315.97 252.935 315.193C252.935 314.416 251.96 313.787 250.758 313.787C249.556 313.787 248.582 314.416 248.582 315.193C248.582 315.97 249.556 316.599 250.758 316.599Z" stroke="black" stroke-width="0.160212" stroke-miterlimit="10"/>
<path d="M257.368 316.391C258.57 316.391 259.544 315.761 259.544 314.984C259.544 314.208 258.57 313.578 257.368 313.578C256.166 313.578 255.191 314.208 255.191 314.984C255.191 315.761 256.166 316.391 257.368 316.391Z" stroke="black" stroke-width="0.160212" stroke-miterlimit="10"/>
<path d="M252.91 314.984C252.91 314.984 253.901 315.714 255.191 314.984" stroke="black" stroke-width="0.160212" stroke-miterlimit="10"/>
<path d="M248.58 315.193L247.492 314.386" stroke="black" stroke-width="0.160212" stroke-miterlimit="10"/>
<path d="M259.543 314.985L262.284 314.62" stroke="black" stroke-width="0.160212" stroke-miterlimit="10"/>
<path opacity="0.13" d="M269.258 351.781C269.258 351.781 271.676 349.698 274.578 349.49C274.578 349.49 273.933 349.021 272.16 349.49C272.16 349.49 273.772 348.396 275.626 348.812C275.626 348.812 271.757 347.198 269.258 351.781Z" fill="black"/>
<path d="M236.41 345.349L270.427 344.88V361.606L237.136 362.016L236.41 345.349Z" fill="#0F31AC"/>
<path d="M253.459 356.781C255.596 356.781 257.328 355.662 257.328 354.281C257.328 352.901 255.596 351.781 253.459 351.781C251.322 351.781 249.59 352.901 249.59 354.281C249.59 355.662 251.322 356.781 253.459 356.781Z" fill="#0F31AC"/>
<path opacity="0.13" d="M237.899 361.156C237.899 361.156 232.5 357.427 222.664 356.312C222.664 356.312 227.581 355.948 238.383 360.062L237.899 361.156Z" fill="black"/>
<path opacity="0.13" d="M270.467 361.625C270.467 361.625 280.225 356.096 284.112 359.056C284.112 359.056 282.075 355.792 269.258 361.312L270.467 361.625Z" fill="black"/>
<path opacity="0.13" d="M270.387 341.26C270.387 341.26 275.787 336.781 275.626 334.49C275.626 334.49 274.175 336.521 273.772 336.885C273.772 336.885 275.787 334.125 274.981 333.031C274.981 333.031 273.856 336.498 273.008 336.562L270.387 341.26Z" fill="black"/>
<path opacity="0.13" d="M270.348 341.234C270.348 341.234 274.378 332.484 273.572 332.016C273.572 332.016 273.411 333.734 270.348 341.234Z" fill="black"/>
<path d="M58.0635 377.82C50.1106 377.82 42.6335 374.723 37.0098 369.1C31.3861 363.476 28.2891 355.999 28.2891 348.046C28.2891 340.093 31.3862 332.616 37.0098 326.992C42.6334 321.368 50.1104 318.271 58.0635 318.271C66.0166 318.271 73.4937 321.368 79.1173 326.992C84.7409 332.616 87.838 340.093 87.838 348.046C87.838 355.999 84.7409 363.476 79.1173 369.1C73.4937 374.723 66.0165 377.82 58.0635 377.82Z" fill="#0F31AC"/>
<path d="M58.0634 376.679C73.8773 376.679 86.6971 363.86 86.6971 348.046C86.6971 332.232 73.8773 319.412 58.0634 319.412C42.2494 319.412 29.4297 332.232 29.4297 348.046C29.4297 363.86 42.2494 376.679 58.0634 376.679Z" fill="#407BFF"/>
<g opacity="0.5">
<path d="M68.5332 348.279C68.4359 348.458 68.5019 348.681 68.6805 348.779L70.1647 349.587C70.3433 349.684 70.567 349.618 70.6643 349.44C70.7616 349.261 70.6957 349.037 70.5171 348.94L69.0329 348.132C68.8542 348.035 68.6305 348.1 68.5332 348.279Z" fill="#CEDDFF"/>
<path d="M69.8592 344.278C69.8306 344.479 69.9705 344.666 70.172 344.694L71.8452 344.933C72.0465 344.961 72.233 344.821 72.2617 344.62C72.2903 344.418 72.1503 344.232 71.9489 344.203L70.2758 343.965C70.0743 343.937 69.8879 344.077 69.8592 344.278Z" fill="#CEDDFF"/>
<path d="M69.7 340.066C69.7436 340.264 69.9401 340.39 70.1388 340.346L71.7895 339.984C71.9882 339.941 72.1139 339.744 72.0704 339.545C72.0268 339.347 71.8303 339.221 71.6316 339.264L69.9809 339.627C69.7822 339.67 69.6565 339.867 69.7 340.066Z" fill="#CEDDFF"/>
<path d="M68.0824 336.174C68.1927 336.345 68.4207 336.394 68.5916 336.284L70.0113 335.367C70.1822 335.257 70.2313 335.029 70.1209 334.858C70.0106 334.687 69.7826 334.638 69.6117 334.748L68.192 335.665C68.0211 335.775 67.9721 336.003 68.0824 336.174Z" fill="#CEDDFF"/>
<path d="M65.203 333.096C65.3662 333.217 65.5969 333.184 65.7184 333.02L66.7278 331.665C66.8493 331.502 66.8155 331.271 66.6524 331.15C66.4893 331.028 66.2585 331.062 66.137 331.225L65.1276 332.58C65.0061 332.744 65.0399 332.974 65.203 333.096Z" fill="#CEDDFF"/>
<path d="M61.4259 331.219C61.6212 331.276 61.8256 331.163 61.8823 330.968L62.3537 329.345C62.4104 329.15 62.2981 328.945 62.1027 328.889C61.9074 328.832 61.703 328.944 61.6463 329.14L61.1749 330.763C61.1181 330.958 61.2305 331.162 61.4259 331.219Z" fill="#CEDDFF"/>
<path d="M57.2329 330.782C57.4357 330.767 57.5879 330.59 57.5727 330.387L57.4466 328.702C57.4315 328.499 57.2548 328.347 57.0518 328.362C56.849 328.377 56.6968 328.554 56.712 328.757L56.838 330.442C56.8533 330.645 57.03 330.797 57.2329 330.782Z" fill="#CEDDFF"/>
<path d="M53.1522 331.838C53.3369 331.753 53.4176 331.534 53.3324 331.349L52.6248 329.815C52.5396 329.63 52.3208 329.549 52.1361 329.635C51.9514 329.72 51.8706 329.939 51.9558 330.123L52.6634 331.658C52.7487 331.843 52.9675 331.923 53.1522 331.838Z" fill="#CEDDFF"/>
<path d="M49.7007 334.255C49.8439 334.111 49.843 333.878 49.6986 333.735L48.4988 332.544C48.3544 332.401 48.1212 332.402 47.978 332.546C47.8347 332.691 47.8356 332.924 47.98 333.067L49.1798 334.257C49.3242 334.401 49.5575 334.4 49.7007 334.255Z" fill="#CEDDFF"/>
<path d="M47.3108 337.728C47.3945 337.543 47.312 337.324 47.1267 337.241L45.5864 336.545C45.401 336.462 45.1829 336.544 45.0991 336.73C45.0154 336.915 45.0979 337.133 45.2833 337.217L46.8235 337.912C47.0089 337.996 47.2272 337.913 47.3108 337.728Z" fill="#CEDDFF"/>
<path d="M46.2853 341.817C46.2989 341.614 46.1453 341.439 45.9424 341.425L44.2562 341.312C44.0533 341.299 43.8777 341.452 43.8641 341.655C43.8505 341.858 44.0041 342.034 44.207 342.047L45.8932 342.16C46.0963 342.174 46.2717 342.02 46.2853 341.817Z" fill="#CEDDFF"/>
<path d="M46.7584 346.006C46.7001 345.811 46.4949 345.7 46.2999 345.759L44.6808 346.243C44.486 346.301 44.3752 346.507 44.4335 346.702C44.4918 346.896 44.697 347.007 44.892 346.949L46.5111 346.465C46.7061 346.406 46.8168 346.201 46.7584 346.006Z" fill="#CEDDFF"/>
<path d="M48.6656 349.766C48.5429 349.603 48.3119 349.572 48.1497 349.694L46.8023 350.714C46.6401 350.837 46.6081 351.068 46.731 351.23C46.8537 351.393 47.0849 351.425 47.247 351.302L48.5943 350.282C48.7565 350.159 48.7884 349.928 48.6656 349.766Z" fill="#CEDDFF"/>
</g>
<path d="M63.621 357.039V364.359C63.621 364.586 63.5987 364.808 63.5555 365.023C63.2468 366.568 61.8834 367.731 60.2484 367.731H55.8844C55.0032 367.731 54.2008 367.393 53.6 366.84C53.0861 366.366 52.7197 365.735 52.5772 365.023C52.5342 364.808 52.5117 364.586 52.5117 364.359V357.039H63.621Z" fill="#0F31AC"/>
<path d="M63.621 358.011H52.5117V358.858H63.621V358.011Z" fill="white"/>
<path d="M63.621 360.066H52.5117V360.913H63.621V360.066Z" fill="white"/>
<path d="M63.621 362.121H52.5117V362.968H63.621V362.121Z" fill="white"/>
<path d="M63.6211 364.176V364.359C63.6211 364.586 63.5987 364.808 63.5555 365.023H52.5773C52.5343 364.808 52.5117 364.586 52.5117 364.359V364.176H63.6211Z" fill="white"/>
<path opacity="0.1" d="M63.6187 357.039V364.359C63.6187 364.586 63.5962 364.808 63.5531 365.023C63.2444 366.568 61.881 367.731 60.2459 367.731H55.882C55.0007 367.731 54.1984 367.393 53.5977 366.84C55.1717 367.291 56.6871 367.175 57.8827 366.909C59.8841 366.462 61.3921 364.823 61.6708 362.792C61.938 360.843 61.7769 358.567 61.6016 357.039H63.6187Z" fill="black"/>
<path d="M68.8813 343.058C68.8813 346.568 66.6127 352.89 63.602 357.039H52.5091V357.04C49.3838 353.168 47.2461 347.038 47.2461 343.058C47.2461 337.293 52.0893 332.619 58.0637 332.619C64.0381 332.619 68.8813 337.293 68.8813 343.058Z" fill="#CEDDFF"/>
<path d="M48.9406 343.278C48.9021 342.976 48.8874 342.671 48.8912 342.365C48.8946 342.059 48.9185 341.752 48.9595 341.447C48.9636 341.408 48.9706 341.371 48.9764 341.332L48.9946 341.218C49.0072 341.142 49.0222 341.066 49.036 340.99C49.0503 340.914 49.0681 340.839 49.0844 340.763C49.1018 340.688 49.1213 340.613 49.1397 340.538C49.2168 340.238 49.3132 339.942 49.4258 339.652C49.6508 339.072 49.9444 338.516 50.295 337.999C50.6457 337.482 51.0537 337.002 51.5076 336.572C52.4148 335.71 53.5075 335.046 54.6816 334.641C54.975 334.54 55.2732 334.454 55.5748 334.386L55.6879 334.36L55.8014 334.337L55.9149 334.315C55.9528 334.308 55.991 334.301 56.029 334.295L56.143 334.276C56.181 334.27 56.2194 334.265 56.2575 334.259L56.3718 334.243C56.4098 334.237 56.4481 334.233 56.4864 334.229C56.563 334.221 56.6392 334.212 56.7158 334.206C56.7924 334.2 56.8686 334.192 56.9454 334.189C57.022 334.186 57.0983 334.18 57.175 334.179C57.2133 334.178 57.2514 334.177 57.2898 334.176L57.3471 334.175L57.4045 334.176C57.7103 334.175 58.0151 334.191 58.3167 334.23C58.0152 334.269 57.7171 334.313 57.4223 334.368C57.2751 334.397 57.1285 334.425 56.983 334.459C56.9101 334.475 56.8378 334.492 56.7655 334.51C56.693 334.526 56.6211 334.546 56.5494 334.565C56.5136 334.575 56.4775 334.583 56.4418 334.593L56.3348 334.623C56.2992 334.634 56.2635 334.643 56.228 334.654L56.1219 334.687L56.016 334.719L55.9106 334.753L55.8054 334.788L55.701 334.825C55.4231 334.923 55.1497 335.031 54.8818 335.15C54.3463 335.389 53.8328 335.67 53.348 335.992C52.8632 336.314 52.4069 336.677 51.9855 337.076C51.5641 337.475 51.1778 337.911 50.8325 338.379C50.4873 338.846 50.183 339.345 49.925 339.87C49.796 340.133 49.6791 340.402 49.5727 340.676C49.5471 340.745 49.5206 340.814 49.4958 340.883L49.4235 341.092C49.4009 341.162 49.3769 341.233 49.3554 341.303L49.2922 341.516C49.21 341.801 49.1413 342.091 49.083 342.385C49.0249 342.679 48.9794 342.976 48.9406 343.278Z" fill="white"/>
<path d="M444.22 377.82C436.267 377.82 428.79 374.723 423.166 369.1C417.542 363.476 414.445 355.999 414.445 348.046C414.445 340.093 417.542 332.616 423.166 326.992C428.79 321.368 436.267 318.271 444.22 318.271C452.173 318.271 459.65 321.368 465.274 326.992C470.897 332.616 473.994 340.093 473.994 348.046C473.994 355.999 470.897 363.476 465.274 369.1C459.65 374.723 452.173 377.82 444.22 377.82Z" fill="#0F31AC"/>
<path d="M444.22 376.679C460.034 376.679 472.853 363.86 472.853 348.046C472.853 332.232 460.034 319.412 444.22 319.412C428.406 319.412 415.586 332.232 415.586 348.046C415.586 363.86 428.406 376.679 444.22 376.679Z" fill="#829CF8"/>
<path d="M463.924 338.98L461.407 348.75L441.602 350.686L427.196 352.095L424.348 338.98L441.602 338.234L441.966 338.218L463.924 338.98Z" fill="#829CF8"/>
<path d="M463.927 338.98L461.41 348.75L441.605 350.686V338.234L441.97 338.218L463.927 338.98Z" fill="#8EA7EF"/>
<path d="M441.094 338.967H424.348V357.874H441.094V338.967Z" fill="#2259D5"/>
<path d="M441.096 357.874H463.91V338.967H441.096V357.874Z" fill="#407BFF"/>
<path d="M436.438 344.294H419.691L424.35 338.967H441.097L436.438 344.294Z" fill="#407BFF"/>
<path d="M445.938 344.233H468.752L463.912 338.967H441.098L445.938 344.233Z" fill="#2259D5"/>
<path d="M456.832 357.289H458.768V355.353H456.832V357.289ZM458.724 357.245H456.876V355.397H458.724V357.245Z" fill="#6275BA"/>
<path d="M457.799 356.418C457.952 356.418 458.076 356.294 458.076 356.142V355.697H457.523V356.142C457.523 356.294 457.647 356.418 457.799 356.418Z" fill="#6275BA"/>
<path d="M457.761 356.945H457.84V356.141H457.761V356.945Z" fill="#6275BA"/>
<path d="M457.523 356.944H458.076C458.076 356.89 458.031 356.846 457.977 356.846H457.622C457.568 356.846 457.523 356.89 457.523 356.944Z" fill="#6275BA"/>
<path d="M457.867 355.696H457.888L457.937 355.873L457.888 355.836L457.937 355.989L457.863 355.808L457.909 355.832L457.867 355.696Z" fill="white"/>
<path d="M459.121 357.289H461.057V355.353H459.121V357.289ZM461.013 357.245H459.165V355.397H461.013V357.245Z" fill="#6275BA"/>
<path d="M460.145 356.075L460.367 355.69L460.589 356.075H460.422V356.73H460.311V356.075H460.145Z" fill="#6275BA"/>
<path d="M459.59 356.075L459.812 355.69L460.034 356.075H459.867V356.73H459.757V356.075H459.59Z" fill="#6275BA"/>
<path d="M459.593 356.951H460.59V356.827H459.593V356.951Z" fill="#6275BA"/>
<path d="M461.391 357.289H463.327V355.353H461.391V357.289ZM463.283 357.245H461.435V355.397H463.283V357.245Z" fill="#6275BA"/>
<path d="M462.395 356.153V356.798C462.395 356.846 462.435 356.885 462.484 356.885C462.525 356.885 462.559 356.858 462.57 356.821C462.574 356.807 462.587 356.798 462.602 356.798C462.624 356.798 462.64 356.819 462.633 356.84C462.615 356.904 462.555 356.951 462.484 356.951C462.4 356.951 462.331 356.885 462.328 356.804L462.328 356.153H462.395V356.153Z" fill="#6275BA"/>
<path d="M462.551 356.178L462.551 356.177V356.178H462.551Z" fill="#6275BA" stroke="black" stroke-width="0.152283" stroke-miterlimit="10"/>
<path d="M462.359 356.178V356.177V356.178Z" fill="#6275BA" stroke="black" stroke-width="0.152283" stroke-miterlimit="10"/>
<path d="M462.168 356.178V356.177V356.178Z" fill="#6275BA" stroke="black" stroke-width="0.152283" stroke-miterlimit="10"/>
<path d="M462.34 355.784H462.38V355.711C462.38 355.699 462.371 355.69 462.36 355.69C462.349 355.69 462.34 355.699 462.34 355.711V355.784Z" fill="#6275BA"/>
<path d="M461.784 356.311C461.784 356.311 461.784 356.311 461.784 356.31C461.784 356.258 461.827 356.216 461.88 356.216C461.933 356.216 461.976 356.258 461.976 356.31C461.976 356.258 462.019 356.216 462.072 356.216C462.125 356.216 462.168 356.258 462.168 356.31C462.168 356.258 462.211 356.216 462.264 356.216C462.317 356.216 462.36 356.258 462.36 356.31C462.36 356.258 462.403 356.216 462.456 356.216C462.509 356.216 462.552 356.258 462.552 356.31C462.552 356.258 462.595 356.216 462.648 356.216C462.701 356.216 462.744 356.258 462.744 356.31C462.744 356.258 462.787 356.216 462.84 356.216C462.893 356.216 462.936 356.258 462.936 356.31C462.936 356.311 462.936 356.311 462.936 356.311H462.939C462.939 355.997 462.68 355.743 462.36 355.743C462.04 355.743 461.781 355.997 461.781 356.311H461.784Z" fill="#6275BA"/>
<path d="M335.917 67.4636L313.132 67.9275C310.601 67.979 308.508 65.9693 308.457 63.4387L308.052 43.5542C308 41.0236 310.01 38.9303 312.54 38.8789L335.325 38.415C337.856 38.3635 339.949 40.3732 340.001 42.9038L340.406 62.7883C340.457 65.3189 338.447 67.4122 335.917 67.4636Z" fill="#DEE4FC"/>
<path d="M323.07 53.7877L331.237 45.6211C332.277 46.6881 333.098 47.9232 333.678 49.2945C334.282 50.7206 334.596 52.2315 334.615 53.7877H323.07Z" fill="#829CF8"/>
<path d="M322.855 43.5439C324.204 43.5631 325.512 43.8374 326.748 44.36C327.94 44.8643 329.015 45.5782 329.945 46.4828L322.855 53.5726V43.5439Z" fill="#ACBCF8"/>
<path d="M322.702 62.7989C320.334 62.7989 318.108 61.8767 316.433 60.202C314.758 58.5274 313.836 56.3009 313.836 53.9325C313.836 51.5641 314.758 49.3377 316.433 47.663C318.071 46.0244 320.239 45.1061 322.55 45.0674V54.0925H331.567C331.527 56.4023 330.608 58.5675 328.969 60.2046C327.295 61.8775 325.069 62.7989 322.702 62.7989Z" fill="white"/>
<path d="M408.861 133.294H386.071C383.54 133.294 381.488 131.242 381.488 128.711V108.822C381.488 106.291 383.54 104.239 386.071 104.239H408.861C411.392 104.239 413.444 106.291 413.444 108.822V128.711C413.444 131.242 411.392 133.294 408.861 133.294Z" fill="#DEE4FC"/>
<path d="M404.773 130.626H390.159C389.713 130.626 389.352 130.264 389.352 129.818V109.643C389.352 109.197 389.713 108.836 390.159 108.836H404.773C405.219 108.836 405.58 109.197 405.58 109.643V129.818C405.58 130.264 405.219 130.626 404.773 130.626Z" fill="#829CF8"/>
<path d="M404.826 109.664H390.105V129.798H404.826V109.664Z" fill="white"/>
<path d="M400.277 110.075L399.71 109.002L399.446 108.504L399.443 108.498H398.639V107.984C398.639 107.389 398.115 106.907 397.468 106.907C396.821 106.907 396.297 107.389 396.297 107.984V108.498H395.493L395.489 108.504L395.226 109.002L394.659 110.075C394.549 110.283 394.692 110.539 394.918 110.539H400.018C400.244 110.539 400.387 110.283 400.277 110.075ZM397.468 107.414C397.76 107.414 397.996 107.631 397.996 107.899C397.996 108.168 397.76 108.385 397.468 108.385C397.176 108.385 396.94 108.168 396.94 107.899C396.94 107.631 397.176 107.414 397.468 107.414Z" fill="#829CF8"/>
<path opacity="0.15" d="M399.706 109.002H395.223L395.486 108.504H399.443L399.706 109.002Z" fill="black"/>
<path d="M393.599 117.593H391.797V115.792H393.599V117.593ZM392.139 117.25H393.257V116.135H392.139V117.25Z" fill="#E3E9F7"/>
<path d="M393.599 120.226H391.797V118.426H393.599V120.226ZM392.139 119.884H393.257V118.768H392.139V119.884Z" fill="#E3E9F7"/>
<path d="M393.599 122.859H391.797V121.059H393.599V122.859ZM392.139 122.517H393.257V121.401H392.139V122.517Z" fill="#E3E9F7"/>
<path d="M393.599 125.493H391.797V123.692H393.599V125.493ZM392.139 125.15H393.257V124.035H392.139V125.15Z" fill="#E3E9F7"/>
<path d="M393.599 128.112H391.797V126.312H393.599V128.112ZM392.139 127.769H393.257V126.654H392.139V127.769Z" fill="#E3E9F7"/>
<path d="M392.191 116.678C392.276 116.709 392.351 116.749 392.422 116.793C392.493 116.837 392.559 116.885 392.622 116.937L392.441 116.936C392.54 116.813 392.652 116.702 392.775 116.603C392.837 116.554 392.902 116.508 392.972 116.466C393.042 116.425 393.115 116.387 393.198 116.359C393.17 116.442 393.132 116.515 393.091 116.585C393.049 116.655 393.003 116.72 392.954 116.782C392.855 116.905 392.744 117.017 392.621 117.117L392.511 117.206L392.44 117.115C392.389 117.051 392.342 116.984 392.3 116.912C392.258 116.84 392.22 116.764 392.191 116.678Z" fill="#F6471E"/>
<path d="M401.749 116.506H394.484V116.879H401.749V116.506Z" fill="#ACBCF8"/>
<path d="M401.749 119.14H394.484V119.512H401.749V119.14Z" fill="#ACBCF8"/>
<path d="M401.749 121.773H394.484V122.145H401.749V121.773Z" fill="#ACBCF8"/>
<path d="M401.749 124.406H394.484V124.779H401.749V124.406Z" fill="#ACBCF8"/>
<path d="M401.749 127.025H394.484V127.398H401.749V127.025Z" fill="#ACBCF8"/>
<path d="M403.147 111.997H391.785V113.114H403.147V111.997Z" fill="#829CF8"/>
<path d="M113.257 207.322L90.4717 207.786C87.9411 207.837 85.8479 205.828 85.7965 203.297L85.3916 183.413C85.34 180.882 87.3498 178.789 89.8804 178.737L112.665 178.273C115.196 178.222 117.289 180.232 117.341 182.762L117.745 202.647C117.797 205.177 115.787 207.27 113.257 207.322Z" fill="#DEE4FC"/>
<path d="M97.0488 194.097H90.7266V201.036H97.0488V194.097Z" fill="white"/>
<path d="M104.705 190.251H98.3828V201.037H104.705V190.251Z" fill="white"/>
<path d="M112.412 185.023H106.09V201.037H112.412V185.023Z" fill="white"/>
<path d="M480.146 204.456H457.356C454.825 204.456 452.773 202.404 452.773 199.873V179.984C452.773 177.453 454.825 175.401 457.356 175.401H480.146C482.677 175.401 484.729 177.453 484.729 179.984V199.873C484.729 202.404 482.677 204.456 480.146 204.456Z" fill="#DEE4FC"/>
<path d="M464.003 198.215L458.181 192.242C457.171 191.206 457.193 189.547 458.229 188.538C459.265 187.528 460.924 187.549 461.934 188.585L465.354 192.094L475.597 181.851C476.62 180.828 478.279 180.828 479.302 181.851C480.325 182.875 480.325 184.533 479.302 185.556L466.626 198.232C465.9 198.958 464.72 198.951 464.003 198.215Z" fill="white"/>
<path d="M49.564 279.657H26.7744C24.2432 279.657 22.1914 277.605 22.1914 275.074V255.185C22.1914 252.654 24.2433 250.602 26.7744 250.602H49.564C52.0951 250.602 54.1469 252.654 54.1469 255.185V275.074C54.1469 277.605 52.095 279.657 49.564 279.657Z" fill="#DEE4FC"/>
<path d="M37.9065 274.301C42.9721 274.301 47.0786 270.195 47.0786 265.129C47.0786 260.064 42.9721 255.957 37.9065 255.957C32.8409 255.957 28.7344 260.064 28.7344 265.129C28.7344 270.195 32.8409 274.301 37.9065 274.301Z" fill="#ACBCF8"/>
<path d="M37.9059 273.105C35.7754 273.105 33.7724 272.276 32.2659 270.769C30.7594 269.263 29.9297 267.26 29.9297 265.129C29.9297 262.999 30.7594 260.996 32.2659 259.489C33.7724 257.983 35.7754 257.153 37.9059 257.153C40.0365 257.153 42.0395 257.983 43.546 259.489C45.0525 260.996 45.8822 262.999 45.8822 265.129C45.8822 267.26 45.0525 269.263 43.546 270.769C42.0396 272.276 40.0365 273.105 37.9059 273.105Z" fill="white"/>
<path d="M37.9055 271.91C36.0944 271.91 34.3916 271.205 33.111 269.924C31.8303 268.643 31.125 266.941 31.125 265.129C31.125 263.318 31.8302 261.616 33.111 260.335C34.3917 259.054 36.0944 258.349 37.9055 258.349C39.7166 258.349 41.4193 259.054 42.7 260.335C43.9806 261.616 44.6858 263.318 44.6858 265.129C44.6858 266.941 43.9806 268.643 42.7 269.924C41.4193 271.205 39.7166 271.91 37.9055 271.91Z" fill="#ACBCF8"/>
<path d="M37.9087 270.714C36.417 270.714 35.0146 270.133 33.9599 269.078C32.9051 268.024 32.3242 266.621 32.3242 265.13C32.3242 263.638 32.9051 262.235 33.9599 261.181C35.0146 260.126 36.417 259.545 37.9087 259.545C39.4004 259.545 40.8028 260.126 41.8575 261.181C42.9123 262.235 43.4932 263.638 43.4932 265.129C43.4932 266.621 42.9123 268.023 41.8575 269.078C40.8029 270.133 39.4004 270.714 37.9087 270.714Z" fill="white"/>
<path d="M37.9082 269.518C36.736 269.518 35.6339 269.062 34.805 268.233C33.9761 267.404 33.5195 266.302 33.5195 265.129C33.5195 263.957 33.9761 262.855 34.805 262.026C35.6339 261.197 36.736 260.741 37.9082 260.741C39.0805 260.741 40.1826 261.197 41.0115 262.026C41.8404 262.855 42.2969 263.957 42.2969 265.129C42.2969 266.302 41.8404 267.404 41.0115 268.233C40.1826 269.062 39.0805 269.518 37.9082 269.518Z" fill="#ACBCF8"/>
<path d="M37.9078 268.322C37.0549 268.322 36.2531 267.99 35.6501 267.387C35.047 266.784 34.7148 265.982 34.7148 265.129C34.7148 264.277 35.0469 263.475 35.6501 262.872C36.2531 262.269 37.0549 261.937 37.9078 261.937C38.7606 261.937 39.5625 262.269 40.1655 262.872C40.7685 263.475 41.1007 264.277 41.1007 265.129C41.1007 265.982 40.7686 266.784 40.1655 267.387C39.5625 267.99 38.7606 268.322 37.9078 268.322Z" fill="white"/>
<path d="M37.9072 267.126C37.3738 267.126 36.8723 266.919 36.4951 266.542C36.1179 266.164 35.9102 265.663 35.9102 265.129C35.9102 264.596 36.1179 264.094 36.4951 263.717C36.8723 263.34 37.3738 263.132 37.9072 263.132C38.4406 263.132 38.9421 263.34 39.3193 263.717C39.6965 264.094 39.9042 264.596 39.9042 265.129C39.9042 265.663 39.6964 266.164 39.3193 266.541C38.9421 266.919 38.4406 267.126 37.9072 267.126Z" fill="#ACBCF8"/>
<path d="M37.9066 265.93C37.6896 265.93 37.4937 265.849 37.3401 265.696C37.1866 265.542 37.1055 265.346 37.1055 265.129C37.1055 264.912 37.1866 264.716 37.3402 264.563C37.4937 264.409 37.6895 264.328 37.9068 264.328C38.1238 264.328 38.3197 264.409 38.4733 264.563C38.6268 264.716 38.7079 264.912 38.7079 265.129C38.7079 265.346 38.6268 265.542 38.4733 265.696C38.3197 265.849 38.1238 265.93 37.9066 265.93Z" fill="white"/>
<path d="M38.2422 264.868L46.3612 259.515" stroke="#1B1464" stroke-width="0.133107" stroke-miterlimit="10"/>
<path d="M38.288 264.839C38.3276 264.646 38.2315 264.38 38.131 264.218C38.1129 264.537 38.0289 264.86 37.8477 265.129C38.164 265.064 38.4922 265.132 38.797 265.228C38.6708 265.066 38.4927 264.887 38.288 264.839Z" fill="#1B1464"/>
<path d="M46.8951 259.73L46.8649 259.721L46.332 259.614L47.296 258.979L47.8646 259.091L46.8951 259.73Z" fill="#1B1464"/>
<path d="M47.3545 258.313L47.2257 258.869L46.2617 259.504C46.3251 259.327 46.3659 259.141 46.3879 258.951L47.3545 258.313Z" fill="#1B1464"/>
</svg>
