<svg width="600" height="366" viewBox="0 0 600 366" fill="none" xmlns="http://www.w3.org/2000/svg">
<path d="M525.64 351.22C542.196 352.15 554.53 335.359 562.818 319.805C581.073 285.544 594.946 244.793 584.528 206.877C575.997 175.831 552.412 151.604 544.138 120.477C541.14 109.2 540.253 97.3278 536.819 86.1973C530.071 64.3259 513.077 46.4907 492.683 39.8794C478.809 35.3814 464.041 35.8898 449.633 34.2947C394.842 28.2289 342.734 -8.46453 288.479 1.80142C277.801 3.82188 267.166 7.82033 258.917 15.4379C253.048 20.8578 248.643 27.8517 243.995 34.5196C237.335 44.0763 230.044 53.1179 222.198 61.5529C213.619 70.7763 204.277 79.3466 193.561 85.4044C173.793 96.5796 150.871 98.4774 129.004 103.203C107.137 107.928 84.1952 116.969 71.9234 137.137C67.7771 143.951 65.0955 151.683 62.8667 159.479C44.8571 222.473 57.1925 293.622 93.3782 346.652L525.64 351.22Z" fill="#DDE7FE"/>
<path d="M527.411 260.286C527.375 260.282 527.339 260.274 527.302 260.262C527.011 260.164 526.849 259.829 526.939 259.513C550.568 177.105 571.924 118.971 587.074 95.8195C587.411 95.3052 587.654 94.9341 587.747 94.7459C587.891 94.4545 588.226 94.3459 588.494 94.5012C588.763 94.6572 588.864 95.0199 588.72 95.3107C588.594 95.5648 588.361 95.9211 587.975 96.511C572.89 119.562 551.588 177.577 527.993 259.868C527.914 260.144 527.667 260.314 527.411 260.286Z" fill="#BDD1F9"/>
<path d="M597.534 91.6718C595.74 94.2691 586.784 98.9808 586.1 98.4264C585.416 97.8719 587.058 87.2336 588.851 84.6364C590.645 82.0391 594.042 81.5083 596.44 83.4512C598.837 85.3938 599.327 89.0743 597.534 91.6718Z" fill="#BDD1F9"/>
<path d="M580.256 99.4518C581.111 102.638 579.149 113.466 578.309 113.73C577.47 113.995 570.459 105.99 569.604 102.804C568.75 99.617 570.442 96.2832 573.383 95.3577C576.325 94.4321 579.402 96.2652 580.256 99.4518Z" fill="#BDD1F9"/>
<path d="M590.728 118.525C587.669 118.709 578.373 114.2 578.324 113.255C578.276 112.309 587.054 106.711 590.112 106.527C593.17 106.343 595.787 108.879 595.957 112.193C596.127 115.506 593.786 118.341 590.728 118.525Z" fill="#BDD1F9"/>
<path d="M553.603 153.963C555.561 159.113 554.096 177.567 552.739 178.172C551.382 178.778 538.345 166.794 536.387 161.644C534.43 156.494 536.696 150.599 541.45 148.478C546.204 146.357 551.646 148.813 553.603 153.963Z" fill="#BDD1F9"/>
<path d="M574.261 183.74C569.188 184.646 552.922 178.944 552.683 177.375C552.444 175.807 566.157 164.745 571.23 163.838C576.302 162.932 581.094 166.652 581.931 172.147C582.767 177.643 579.334 182.833 574.261 183.74Z" fill="#BDD1F9"/>
<path d="M540.061 174.495C543.679 180.072 546.518 202.528 545.048 203.647C543.579 204.765 525.038 194.264 521.42 188.688C517.803 183.111 519.043 175.413 524.19 171.494C529.338 167.575 536.444 168.919 540.061 174.495Z" fill="#BDD1F9"/>
<path d="M569.636 213.493C563.356 213.905 544.218 204.745 544.11 202.803C544.001 200.861 561.979 189.267 568.259 188.855C574.54 188.443 579.939 193.625 580.319 200.428C580.699 207.232 575.916 213.081 569.636 213.493Z" fill="#BDD1F9"/>
<path d="M531.561 201.36C535.179 206.937 538.018 229.393 536.548 230.512C535.079 231.63 516.538 221.13 512.92 215.553C509.302 209.977 510.543 202.279 515.69 198.359C520.838 194.44 527.944 195.784 531.561 201.36Z" fill="#BDD1F9"/>
<path d="M561.136 240.358C554.856 240.769 535.719 231.61 535.61 229.668C535.501 227.726 553.479 216.131 559.759 215.719C566.04 215.308 571.439 220.489 571.819 227.293C572.199 234.096 567.417 239.946 561.136 240.358Z" fill="#BDD1F9"/>
<path d="M513.142 235.042C518.447 238.706 528.967 258.298 528.002 259.938C527.037 261.579 506.201 259.52 500.896 255.857C495.59 252.194 494.03 244.564 497.412 238.816C500.793 233.069 507.836 231.379 513.142 235.042Z" fill="#BDD1F9"/>
<path d="M553.592 266.938C547.408 268.198 527.364 261.701 527.032 259.789C526.7 257.877 543.199 243.939 549.383 242.68C555.566 241.421 561.521 245.83 562.683 252.529C563.846 259.228 559.775 265.679 553.592 266.938Z" fill="#BDD1F9"/>
<path d="M572.032 116.425C572.9 119.663 570.907 130.664 570.054 130.933C569.201 131.201 562.078 123.069 561.21 119.831C560.341 116.593 562.06 113.206 565.049 112.266C568.037 111.325 571.164 113.188 572.032 116.425Z" fill="#BDD1F9"/>
<path d="M582.267 136.005C579.159 136.193 569.714 131.611 569.664 130.65C569.615 129.69 578.533 124.002 581.641 123.815C584.748 123.628 587.407 126.205 587.58 129.571C587.753 132.937 585.374 135.818 582.267 136.005Z" fill="#BDD1F9"/>
<path d="M562.678 132.171C564.255 136.646 562.617 152.474 561.438 152.962C560.259 153.45 549.298 142.834 547.72 138.359C546.143 133.885 548.213 128.872 552.343 127.163C556.474 125.454 561.101 127.696 562.678 132.171Z" fill="#BDD1F9"/>
<path d="M579.22 160.028C574.806 160.294 561.387 153.786 561.317 152.42C561.247 151.055 573.917 142.975 578.331 142.709C582.746 142.443 586.524 146.105 586.769 150.887C587.015 155.67 583.635 159.762 579.22 160.028Z" fill="#BDD1F9"/>
<path d="M55.0046 277.539C55.0192 277.532 55.0333 277.522 55.0467 277.511C55.1544 277.42 55.1736 277.252 55.09 277.136C33.2111 246.674 15.8146 225.986 6.10502 218.882C5.88939 218.724 5.73381 218.61 5.66733 218.547C5.56458 218.45 5.40842 218.461 5.31893 218.572C5.22905 218.683 5.23958 218.852 5.34213 218.95C5.43162 219.034 5.58135 219.144 5.82856 219.325C15.4963 226.398 32.8526 247.046 54.7003 277.464C54.7736 277.566 54.9017 277.595 55.0046 277.539Z" fill="#0B0755"/>
<path d="M1.11963 218.932C2.24828 219.713 6.68255 220.157 6.88823 219.808C7.09392 219.459 4.85905 215.286 3.7304 214.505C2.60194 213.724 1.10247 214.082 0.381688 215.304C-0.33929 216.527 -0.00882445 218.151 1.11963 218.932Z" fill="#0B0755"/>
<path d="M9.48804 219.238C9.5939 220.718 11.9902 224.916 12.3801 224.883C12.7701 224.85 14.5403 220.303 14.4345 218.823C14.3284 217.343 13.1352 216.237 11.7695 216.351C10.4034 216.466 9.38197 217.759 9.48804 219.238Z" fill="#0B0755"/>
<path d="M7.87761 229.01C9.18446 228.565 12.4201 225.09 12.3027 224.686C12.1853 224.282 7.69688 223.437 6.38984 223.882C5.0828 224.327 4.35636 225.836 4.76715 227.252C5.17794 228.668 6.57057 229.455 7.87761 229.01Z" fill="#0B0755"/>
<path d="M28.5714 237.506C28.501 239.996 31.7991 247.47 32.4551 247.492C33.1112 247.513 36.8248 240.272 36.8952 237.782C36.9656 235.291 35.1593 233.211 32.8606 233.135C30.562 233.059 28.6418 235.016 28.5714 237.506Z" fill="#0B0755"/>
<path d="M24.259 253.497C26.5143 253.01 32.4937 247.846 32.3656 247.148C32.2373 246.451 24.8879 244.162 22.6328 244.649C20.3774 245.135 18.9131 247.51 19.3623 249.953C19.8113 252.397 22.0036 253.983 24.259 253.497Z" fill="#0B0755"/>
<path d="M37.225 243.789C36.5219 246.741 38.6004 256.625 39.3781 256.843C40.1559 257.06 46.3895 249.499 47.0925 246.547C47.7957 243.595 46.1567 240.585 43.4316 239.823C40.707 239.061 37.928 240.837 37.225 243.789Z" fill="#0B0755"/>
<path d="M30.5225 265.161C33.2113 264.262 39.8896 257.16 39.6525 256.329C39.4154 255.497 30.2036 253.713 27.5148 254.613C24.8259 255.513 23.3196 258.604 24.1503 261.517C24.9809 264.429 27.8338 266.061 30.5225 265.161Z" fill="#0B0755"/>
<path d="M44.6937 253.583C43.9907 256.535 46.0692 266.42 46.8469 266.637C47.6248 266.855 53.8584 259.294 54.5614 256.341C55.2645 253.39 53.6254 250.379 50.9006 249.617C48.1756 248.856 45.3968 250.631 44.6937 253.583Z" fill="#0B0755"/>
<path d="M37.9834 274.956C40.6721 274.056 47.3504 266.954 47.1134 266.123C46.8763 265.292 37.6644 263.508 34.9757 264.408C32.2869 265.307 30.7806 268.398 31.6112 271.311C32.4417 274.224 35.2946 275.856 37.9834 274.956Z" fill="#0B0755"/>
<path d="M57.3018 264.537C55.6138 266.976 54.0603 276.974 54.7029 277.496C55.3455 278.018 63.7678 273.599 65.4558 271.16C67.1438 268.72 66.6868 265.26 64.4352 263.431C62.1835 261.603 58.9898 262.098 57.3018 264.537Z" fill="#0B0755"/>
<path d="M45.0072 284.795C47.7788 284.266 55.2241 278.125 55.0847 277.268C54.9455 276.41 46.0116 273.393 43.2402 273.922C40.4686 274.45 38.6174 277.313 39.1054 280.315C39.5934 283.318 42.2357 285.323 45.0072 284.795Z" fill="#0B0755"/>
<path d="M15.3983 224.939C15.5059 226.443 17.9406 230.708 18.3368 230.674C18.733 230.641 20.5317 226.021 20.4241 224.517C20.3165 223.014 19.1042 221.889 17.7164 222.006C16.3285 222.123 15.2907 223.436 15.3983 224.939Z" fill="#0B0755"/>
<path d="M13.9604 234.883C15.2883 234.43 18.5756 230.9 18.4565 230.49C18.3374 230.079 13.777 229.221 12.4489 229.673C11.121 230.125 10.3828 231.658 10.8003 233.097C11.2177 234.535 12.6325 235.335 13.9604 234.883Z" fill="#0B0755"/>
<path d="M21.6016 229.934C21.5922 232.076 24.5808 238.422 25.1453 238.425C25.7097 238.428 28.7535 232.112 28.763 229.97C28.7722 227.828 27.1768 226.083 25.1993 226.073C23.2215 226.063 21.6109 227.791 21.6016 229.934Z" fill="#0B0755"/>
<path d="M18.7334 244.418C20.6199 243.775 25.2903 238.76 25.1211 238.176C24.9518 237.593 18.4728 236.374 16.5861 237.016C14.6996 237.659 13.6509 239.837 14.2438 241.88C14.8367 243.924 16.8468 245.06 18.7334 244.418Z" fill="#0B0755"/>
<path d="M102.403 218.829C102.428 218.834 102.455 218.837 102.481 218.836C102.697 218.833 102.869 218.64 102.866 218.407C101.972 157.34 98.1583 113.25 92.1263 94.2576C91.9923 93.8358 91.8954 93.5313 91.867 93.3834C91.8227 93.1545 91.6149 93.0083 91.4045 93.0558C91.1932 93.1038 91.0579 93.3281 91.1021 93.5568C91.1407 93.7564 91.2337 94.049 91.3874 94.5328C97.3932 113.443 101.192 157.441 102.084 218.42C102.088 218.625 102.224 218.793 102.403 218.829Z" fill="#BDD1F9"/>
<path d="M85.7819 89.1823C86.5221 91.3332 91.738 96.4659 92.3048 96.2372C92.8715 96.0082 93.7124 88.4289 92.972 86.2781C92.2317 84.1271 90.0219 83.0335 88.0364 83.8356C86.0509 84.6374 85.0416 87.0313 85.7819 89.1823Z" fill="#BDD1F9"/>
<path d="M96.0897 98.1957C94.9234 100.175 94.2648 107.952 94.7864 108.313C95.3079 108.673 101.541 104.75 102.708 102.771C103.874 100.791 103.338 98.1619 101.51 96.8984C99.6829 95.6351 97.256 96.2158 96.0897 98.1957Z" fill="#BDD1F9"/>
<path d="M85.4657 108.889C87.5089 109.675 94.6516 108.619 94.8585 107.987C95.0653 107.355 90.1335 101.659 88.0903 100.874C86.0473 100.089 83.8034 101.247 83.0785 103.46C82.3537 105.674 83.4225 108.104 85.4657 108.889Z" fill="#BDD1F9"/>
<path d="M104.166 140.968C101.889 144.043 99.4913 156.892 100.302 157.596C101.112 158.3 112.169 152.975 114.446 149.9C116.722 146.825 116.267 142.333 113.428 139.866C110.59 137.4 106.443 137.893 104.166 140.968Z" fill="#BDD1F9"/>
<path d="M84.657 156.733C87.9353 158.443 100.031 158.081 100.482 157.067C100.932 156.054 93.6536 145.582 90.3751 143.871C87.0968 142.16 83.1589 143.653 81.5801 147.204C80.0009 150.756 81.3785 155.022 84.657 156.733Z" fill="#BDD1F9"/>
<path d="M109.584 157.835C106.101 160.841 100.044 175.48 100.836 176.556C101.628 177.633 116.152 174.503 119.634 171.497C123.116 168.49 123.69 162.994 120.914 159.222C118.139 155.449 113.066 154.828 109.584 157.835Z" fill="#BDD1F9"/>
<path d="M82.3284 177.938C86.5178 179.573 101.199 177.482 101.63 176.186C102.061 174.891 91.9837 163.137 87.7941 161.502C83.6047 159.867 78.9848 162.221 77.4756 166.759C75.9662 171.298 78.139 176.302 82.3284 177.938Z" fill="#BDD1F9"/>
<path d="M110.416 177.914C106.933 180.92 100.876 195.559 101.668 196.636C102.46 197.712 116.984 194.582 120.466 191.576C123.948 188.569 124.521 183.074 121.746 179.301C118.971 175.528 113.898 174.907 110.416 177.914Z" fill="#BDD1F9"/>
<path d="M83.1643 198.017C87.3537 199.652 102.035 197.561 102.466 196.266C102.897 194.97 92.8193 183.216 88.6299 181.581C84.4405 179.946 79.8209 182.3 78.3114 186.839C76.8022 191.377 78.9749 196.382 83.1643 198.017Z" fill="#BDD1F9"/>
<path d="M116.734 204.764C112.457 206.107 101.709 217.142 102.063 218.465C102.417 219.787 116.946 222.886 121.223 221.543C125.5 220.2 127.962 215.355 126.723 210.722C125.483 206.088 121.011 203.421 116.734 204.764Z" fill="#BDD1F9"/>
<path d="M83.3972 217.696C87.3651 219.886 102.172 219.8 102.749 218.573C103.326 217.345 94.6844 204.319 90.7165 202.129C86.7486 199.94 81.8936 201.65 79.8722 205.948C77.8512 210.247 79.4292 215.506 83.3972 217.696Z" fill="#BDD1F9"/>
<path d="M98.551 111.497C97.366 113.509 96.6969 121.41 97.2268 121.777C97.7567 122.143 104.09 118.157 105.275 116.145C106.46 114.134 105.915 111.463 104.059 110.179C102.202 108.896 99.7358 109.486 98.551 111.497Z" fill="#BDD1F9"/>
<path d="M87.9997 122.586C90.0756 123.384 97.3328 122.311 97.543 121.669C97.7531 121.027 92.7424 115.24 90.6664 114.442C88.5906 113.645 86.3107 114.821 85.5743 117.07C84.8379 119.319 85.9239 121.789 87.9997 122.586Z" fill="#BDD1F9"/>
<path d="M102.007 124.21C100.113 126.908 98.3151 138.012 99.0259 138.597C99.737 139.183 109.133 134.339 111.027 131.64C112.921 128.942 112.437 125.091 109.946 123.039C107.456 120.987 103.901 121.511 102.007 124.21Z" fill="#BDD1F9"/>
<path d="M85.6523 139.559C88.6015 140.692 98.9118 139.168 99.2103 138.256C99.509 137.345 92.3898 129.123 89.4406 127.989C86.4914 126.856 83.2527 128.527 82.2065 131.722C81.1603 134.917 82.703 138.426 85.6523 139.559Z" fill="#BDD1F9"/>
<path d="M498.385 332.778C498.385 332.778 460.647 262.991 580.964 213.405C580.964 213.405 578.628 357.019 498.385 332.778Z" fill="#7C9AF2"/>
<path d="M581.116 213.179L495.101 323.221C489.572 302.568 487.502 251.76 581.116 213.179Z" fill="#91B5F8"/>
<path d="M498.736 318.809C498.687 318.809 498.637 318.791 498.596 318.753C498.505 318.67 498.494 318.521 498.571 318.422L580.953 213.027C581.032 212.928 581.169 212.916 581.259 212.999C581.351 213.083 581.362 213.231 581.285 213.33L498.902 318.726C498.859 318.781 498.798 318.809 498.736 318.809Z" fill="#060633"/>
<path d="M538.111 268.435C538.004 268.435 537.911 268.349 537.897 268.231C537.88 268.102 537.964 267.984 538.082 267.967L573.181 262.871C573.299 262.855 573.409 262.944 573.425 263.073C573.441 263.202 573.357 263.32 573.239 263.337L538.14 268.433C538.13 268.434 538.121 268.435 538.111 268.435Z" fill="#060633"/>
<path d="M520.46 291.011C520.445 291.011 520.43 291.01 520.416 291.007C520.298 290.981 520.223 290.857 520.247 290.73L527.181 253.826C527.205 253.699 527.323 253.617 527.437 253.643C527.554 253.669 527.63 253.793 527.607 253.92L520.672 290.824C520.651 290.935 520.561 291.011 520.46 291.011Z" fill="#060633"/>
<path d="M515.91 333.302C515.91 333.302 507.308 275.814 600 276.387C600 276.387 563.981 372.171 515.91 333.302Z" fill="#91B5F8"/>
<path d="M600 276.386L515.91 333.302C515.91 333.302 556.437 377.954 600 276.386Z" fill="#7C9AF2"/>
<path d="M581.023 301.338C581.01 301.341 580.997 301.344 580.983 301.345L558.229 303.941C558.057 303.96 557.903 303.825 557.885 303.638C557.866 303.451 557.994 303.286 558.164 303.265L580.917 300.669C581.09 300.65 581.244 300.785 581.262 300.972C581.279 301.144 581.174 301.299 581.023 301.338Z" fill="#91B5F8"/>
<path d="M555.249 327.399C555.227 327.405 555.203 327.408 555.178 327.408L524.901 327.554C524.728 327.555 524.587 327.403 524.586 327.216C524.585 327.028 524.723 326.875 524.898 326.875L555.176 326.729C555.349 326.728 555.49 326.88 555.491 327.067C555.492 327.228 555.388 327.364 555.249 327.399Z" fill="#91B5F8"/>
<path d="M105.581 338.842C105.581 338.842 168.416 278.4 55.5992 179.914C55.5992 179.914 11.9067 334.494 105.581 338.842Z" fill="#6D8AD1"/>
<path d="M55.5117 179.614L112.172 329.853C124.733 309.837 143.29 256.242 55.5117 179.614Z" fill="#91B5F8"/>
<path d="M109.778 323.744C109.692 323.744 109.611 323.689 109.577 323.598L55.3091 179.703C55.2639 179.583 55.3171 179.446 55.4276 179.397C55.5393 179.348 55.6653 179.405 55.7105 179.525L109.978 323.42C110.024 323.54 109.97 323.678 109.86 323.727C109.833 323.739 109.805 323.744 109.778 323.744Z" fill="#060633"/>
<path d="M83.8372 254.968C83.8054 254.968 83.7736 254.961 83.7432 254.945L47.8181 236.243C47.7101 236.186 47.6649 236.046 47.7169 235.929C47.769 235.812 47.8982 235.763 48.0062 235.819L83.9313 254.522C84.0394 254.578 84.0848 254.718 84.0325 254.835C83.9953 254.919 83.9177 254.968 83.8372 254.968Z" fill="#060633"/>
<path d="M95.4635 285.792C95.4551 285.792 95.4471 285.791 95.4385 285.79C95.3196 285.775 95.234 285.659 95.2475 285.53L99.6956 243.418C99.7092 243.288 99.818 243.195 99.9358 243.211C100.055 243.225 100.141 243.342 100.127 243.471L95.6786 285.583C95.6661 285.703 95.5721 285.792 95.4635 285.792Z" fill="#060633"/>
<path d="M96.8189 337.767C96.8189 337.767 115.032 275.258 11.7148 259.561C11.7148 259.561 37.4451 372.584 96.8189 337.767Z" fill="#3B4ACC"/>
<path d="M11.7148 259.561L96.8189 337.767C96.8189 337.767 44.9789 380.354 11.7148 259.561Z" fill="#7C9AF2"/>
<path d="M29.1013 290.693C29.1155 290.699 29.1299 290.705 29.1448 290.709L54.0959 297.609C54.285 297.661 54.4772 297.538 54.5254 297.333C54.5738 297.128 54.4566 296.922 54.2708 296.868L29.3194 289.968C29.1301 289.915 28.9381 290.039 28.8899 290.243C28.8455 290.432 28.9393 290.624 29.1013 290.693Z" fill="#3B4ACC"/>
<path d="M53.8871 324.26C53.9115 324.27 53.9374 324.278 53.9649 324.282L87.6629 329.78C87.8554 329.811 88.0355 329.668 88.0646 329.459C88.0934 329.251 87.9632 329.055 87.7676 329.024L54.0696 323.526C53.8772 323.494 53.6968 323.638 53.668 323.847C53.6432 324.026 53.7378 324.195 53.8871 324.26Z" fill="#3B4ACC"/>
<path d="M299.643 365.795C440.529 365.795 554.74 356.445 554.74 344.911C554.74 333.377 440.529 324.027 299.643 324.027C158.758 324.027 44.5469 333.377 44.5469 344.911C44.5469 356.445 158.758 365.795 299.643 365.795Z" fill="#BDD1F9"/>
<path d="M302.656 290.705C302.656 290.705 299.743 331.169 303.716 335.474C307.69 339.778 313.516 343.796 314.046 346.379C314.577 348.962 296.828 346.092 295.239 343.509C293.65 340.927 293.914 336.622 292.325 324.568C290.736 312.515 288.352 290.705 288.352 290.705H302.656Z" fill="#FB9391"/>
<path d="M314.045 346.379C313.684 344.622 310.87 342.199 307.857 339.475C307.193 345 297.178 339.335 293.738 337.21C294.084 340.346 294.409 342.163 295.237 343.509C296.827 346.092 314.575 348.962 314.045 346.379Z" fill="#0B0755"/>
<path d="M282.512 290.705C282.512 290.705 279.598 331.169 283.572 335.474C287.545 339.778 293.371 343.796 293.902 346.379C294.433 348.962 276.684 346.092 275.095 343.509C273.505 340.927 273.77 336.622 272.181 324.568C270.591 312.515 268.207 290.705 268.207 290.705H282.512Z" fill="#FB9391"/>
<path d="M293.9 346.379C293.539 344.622 290.725 342.199 287.713 339.475C287.048 345 277.034 339.335 273.594 337.21C273.94 340.346 274.264 342.163 275.093 343.509C276.683 346.092 294.431 348.962 293.9 346.379Z" fill="#0B0755"/>
<path d="M228.353 235.815H224.016V257.755H228.353V235.815Z" fill="#060633"/>
<path d="M259.906 271.35H210.772C208.665 271.35 206.957 269.5 206.957 267.217V257.091C206.957 254.808 208.665 252.958 210.772 252.958H259.906C262.013 252.958 263.721 254.808 263.721 257.091V267.217C263.722 269.5 262.013 271.35 259.906 271.35Z" fill="#6C73EB"/>
<path d="M241.202 239.864H207.209C204.425 239.864 202.168 237.419 202.168 234.403V197.577C202.168 194.561 204.425 192.116 207.209 192.116H241.202C243.986 192.116 246.243 194.561 246.243 197.577V234.403C246.243 237.419 243.986 239.864 241.202 239.864Z" fill="#6C73EB"/>
<path d="M238.674 271.35H234.336V337.753H238.674V271.35Z" fill="#060633"/>
<path d="M258.112 339.162H214.985C214.266 339.162 213.684 338.531 213.684 337.752C213.684 336.974 214.266 336.343 214.985 336.343H258.112C258.831 336.343 259.414 336.974 259.414 337.752C259.414 338.531 258.831 339.162 258.112 339.162Z" fill="#060633"/>
<path d="M251.629 342.088C251.629 340.192 253.048 338.654 254.799 338.654C256.55 338.654 257.969 340.192 257.969 342.088C257.969 343.985 256.55 345.523 254.799 345.523C253.048 345.523 251.629 343.985 251.629 342.088Z" fill="#060633"/>
<path d="M215.922 342.088C215.922 340.192 217.341 338.654 219.092 338.654C220.843 338.654 222.262 340.192 222.262 342.088C222.262 343.985 220.843 345.523 219.092 345.523C217.341 345.523 215.922 343.985 215.922 342.088Z" fill="#060633"/>
<path d="M233.332 342.088C233.332 340.192 234.751 338.654 236.502 338.654C238.253 338.654 239.672 340.192 239.672 342.088C239.672 343.985 238.253 345.523 236.502 345.523C234.751 345.523 233.332 343.985 233.332 342.088Z" fill="#060633"/>
<path d="M229.679 235.815C229.679 235.815 227.879 255.89 235.337 260.626C242.796 265.363 264.554 271.228 265.699 275.288C266.844 279.348 267.375 303.595 267.375 303.595C267.375 303.595 285.895 309.347 306.924 300.55C306.924 300.55 306.924 262.154 300.886 256.566C288.221 244.846 269.655 238.07 269.655 238.07L229.679 235.815Z" fill="#060633"/>
<path d="M301.207 200.859C301.207 200.859 301.267 195.172 301.71 193.122C302.153 191.073 301.177 188.731 302.296 188.593C303.415 188.455 304.072 192.442 304.072 192.442C304.072 192.442 306.626 189.173 307.27 188.039C307.914 186.905 309.542 185.195 310.344 185.641C311.147 186.087 307.701 191.299 307.701 191.299C307.701 191.299 311 187.219 311.822 187.459C312.643 187.7 309.15 193.559 309.15 193.559C309.15 193.559 312.472 189.021 313.02 188.911C313.567 188.802 313.718 189.556 312.902 191.472C312.086 193.388 310.796 195.117 310.796 195.117C310.796 195.117 313.351 192.118 313.773 191.874C314.196 191.63 314.942 191.628 313.456 194.328C311.97 197.027 307.878 202.295 304.847 204.029L301.207 200.859Z" fill="#FB9391"/>
<path d="M250.432 247.774C250.432 247.774 255.101 250.375 256.596 251.72C258.09 253.065 260.461 253.167 260.074 254.313C259.688 255.459 256.102 254.313 256.102 254.313C256.102 254.313 257.659 258.25 258.308 259.381C258.956 260.512 259.64 262.853 258.913 263.431C258.186 264.01 255.423 258.341 255.423 258.341C255.423 258.341 257.317 263.362 256.751 264.05C256.185 264.739 252.909 258.735 252.909 258.735C252.909 258.735 255.171 263.983 255.017 264.562C254.862 265.141 254.172 264.951 252.955 263.303C251.738 261.655 250.887 259.633 250.887 259.633C250.887 259.633 252.221 263.45 252.234 263.968C252.246 264.486 251.914 265.211 250.349 262.564C248.785 259.917 246.264 253.597 246.188 249.884L250.432 247.774Z" fill="#FB9391"/>
<path d="M248.192 167.019C248.192 167.019 230.81 172.433 226.185 178.523C221.561 184.613 215.939 215.129 217.501 223.216C219.062 231.304 244.984 254.311 244.984 254.311L253.417 246.785L249.981 239.864C249.981 239.864 264.451 243.462 273.613 239.864L273.196 220.991C273.196 220.991 277.152 229.499 285.897 229.499C294.642 229.499 306.926 204.029 306.926 204.029L300.472 198.597C300.472 198.597 291.807 207.728 285.989 209.437C284.745 209.802 283.463 209.025 283.13 207.677C281.51 201.1 276.048 180.069 271.322 175.139C265.701 169.275 248.192 167.019 248.192 167.019Z" fill="#4851EC"/>
<path d="M273.196 221.109C273.137 221.109 273.089 221.059 273.087 220.995L272.671 207.624C272.67 207.603 272.675 207.582 272.684 207.563C272.706 207.521 274.857 203.254 274.857 199.049C274.857 194.86 270.559 190.156 270.516 190.109C270.474 190.064 270.474 189.989 270.516 189.943C270.558 189.897 270.627 189.897 270.669 189.943C270.713 189.991 275.074 194.764 275.074 199.049C275.074 203.132 273.079 207.262 272.888 207.648L273.304 220.987C273.306 221.052 273.259 221.106 273.199 221.108C273.198 221.109 273.197 221.109 273.196 221.109Z" fill="#060633"/>
<path d="M249.981 239.982C249.947 239.982 249.914 239.964 249.893 239.932L237.278 220.519C236.707 219.641 236.441 218.566 236.528 217.496L238.474 193.738C238.479 193.673 238.527 193.626 238.592 193.632C238.651 193.637 238.695 193.694 238.69 193.759L236.744 217.516C236.661 218.532 236.913 219.551 237.455 220.384L250.07 239.797C250.104 239.85 250.092 239.923 250.043 239.961C250.025 239.975 250.003 239.982 249.981 239.982Z" fill="#060633"/>
<path d="M257.42 154.54C257.885 154.437 266.654 149.248 263.071 136.88C259.488 124.512 248.988 125.696 243.904 127.703C238.819 129.71 231.42 140.14 236.996 148.956C242.573 157.772 247.857 160.346 247.857 160.346L257.42 154.54Z" fill="#0B0755"/>
<path d="M262.613 146.689C262.613 146.689 263.531 145.082 264.31 145.697C266.296 147.265 264.26 149.504 262.98 150.014L262.613 146.689Z" fill="#EA6868"/>
<path d="M249.851 127.993C243.926 128.613 239.291 134.036 239.163 140.483C239.121 142.603 239.553 144.6 240.345 146.369C242.108 150.783 243.563 154.339 245.318 156.904C247.097 159.504 247.969 162.702 247.639 165.919L247.306 169.168C254.308 172.669 257.234 169.452 257.234 169.452L257 161.364C264.429 160.148 263.006 145.274 262.878 140.868L262.867 140.87C262.868 140.705 262.869 140.54 262.864 140.373C262.652 132.999 256.741 127.271 249.851 127.993Z" fill="#FB9391"/>
<path d="M249.379 141.084C247.975 142.733 246.764 144.561 245.557 146.385C244.28 148.314 242.959 150.362 242.73 152.723C240.762 151.205 239.463 148.885 238.357 146.558C237.845 145.479 237.356 144.365 237.163 143.17C236.889 141.477 237.226 139.746 237.561 138.066C237.993 135.898 238.465 133.639 239.769 131.929C240.633 130.797 241.805 129.988 243.016 129.329C245.843 127.79 249.049 126.965 252.195 127.333C255.341 127.7 258.407 129.328 260.355 132.028C262.864 135.506 263.267 140.192 263.573 144.594C263.111 142.778 261.951 141.283 260.822 139.851C260.088 138.919 259.334 137.97 258.358 137.351C256.694 136.297 256.245 136.554 253.322 134.549C252.654 137.292 251.136 139.021 249.379 141.084Z" fill="#0B0755"/>
<path d="M261.118 146.766C261.155 146.149 260.723 145.615 260.153 145.574C259.583 145.534 259.09 146.002 259.053 146.62C259.016 147.237 259.448 147.771 260.018 147.811C260.588 147.852 261.08 147.384 261.118 146.766Z" fill="#060633"/>
<path d="M250.93 148.393C250.968 147.776 250.536 147.242 249.966 147.202C249.395 147.161 248.903 147.629 248.866 148.247C248.828 148.865 249.26 149.398 249.83 149.439C250.401 149.479 250.893 149.011 250.93 148.393Z" fill="#060633"/>
<path d="M259.33 154.067C259.33 154.067 257.879 153.253 257.366 153.46C256.852 153.666 256.617 154.383 256.617 154.383C256.617 154.383 256.248 153.725 255.606 153.775C254.965 153.824 252.93 155.333 252.93 155.333C252.93 155.333 255.181 158.1 257.091 157.535C259.036 156.96 259.33 154.067 259.33 154.067Z" fill="#EA6868"/>
<path d="M247.787 147.331C247.664 147.335 247.54 147.282 247.452 147.174C247.294 146.982 247.311 146.687 247.488 146.516C247.541 146.465 248.824 145.266 250.749 145.292C250.987 145.295 251.177 145.506 251.175 145.763C251.172 146.021 250.957 146.231 250.74 146.224C249.136 146.204 248.07 147.203 248.06 147.213C247.981 147.289 247.884 147.327 247.787 147.331Z" fill="#0B0755"/>
<path d="M258.199 145.219C258.079 145.186 257.974 145.098 257.917 144.968C257.815 144.735 257.906 144.458 258.121 144.347C258.185 144.314 259.709 143.544 261.567 144.156C261.795 144.231 261.923 144.491 261.854 144.737C261.786 144.984 261.537 145.122 261.318 145.048C259.781 144.542 258.503 145.183 258.49 145.189C258.395 145.238 258.293 145.246 258.199 145.219Z" fill="#0B0755"/>
<path d="M255.706 152.503C256.922 152.261 257.3 151.252 257.321 150.677C257.325 150.577 257.293 150.479 257.232 150.403C256.093 148.991 256.145 146.865 256.146 146.844C256.153 146.627 255.996 146.446 255.797 146.438C255.6 146.43 255.43 146.599 255.422 146.816C255.419 146.912 255.359 149.14 256.58 150.781C256.517 151.092 256.243 151.794 255.08 151.771C254.876 151.769 254.715 151.94 254.711 152.156C254.707 152.373 254.867 152.552 255.066 152.556C255.302 152.561 255.515 152.542 255.706 152.503Z" fill="#EA6868"/>
<path d="M252.93 155.333C252.93 155.333 256.85 154.789 259.33 154.067C259.33 154.067 258.34 156.337 256.838 156.488C255.337 156.638 252.93 155.333 252.93 155.333Z" fill="white"/>
<path d="M249.845 152.23C249.178 152.23 248.524 152.025 247.949 151.626C247.153 151.076 246.602 150.222 246.4 149.223C245.98 147.161 247.188 145.113 249.091 144.658C250.995 144.205 252.885 145.512 253.305 147.575C253.508 148.574 253.34 149.599 252.831 150.461C252.323 151.323 251.535 151.919 250.613 152.139C250.358 152.2 250.1 152.23 249.845 152.23ZM249.853 144.803C249.617 144.803 249.378 144.83 249.138 144.888C247.351 145.314 246.217 147.236 246.611 149.172C246.802 150.11 247.318 150.911 248.065 151.428C248.812 151.945 249.699 152.116 250.566 151.91C251.432 151.703 252.171 151.144 252.649 150.334C253.126 149.525 253.284 148.563 253.093 147.625C252.752 145.949 251.376 144.803 249.853 144.803Z" fill="#060633"/>
<path d="M260.037 150.298C259.37 150.298 258.716 150.093 258.14 149.694C257.344 149.144 256.794 148.29 256.591 147.291C256.172 145.229 257.379 143.181 259.283 142.727C260.205 142.506 261.151 142.689 261.947 143.239C262.743 143.79 263.293 144.644 263.496 145.643C263.699 146.642 263.531 147.667 263.023 148.529C262.514 149.391 261.727 149.987 260.804 150.208C260.549 150.268 260.292 150.298 260.037 150.298ZM260.05 142.87C259.811 142.87 259.569 142.899 259.329 142.956C257.543 143.383 256.409 145.305 256.803 147.24C257.197 149.177 258.972 150.405 260.758 149.978C261.623 149.771 262.363 149.212 262.84 148.402C263.317 147.593 263.475 146.631 263.284 145.693C263.094 144.755 262.577 143.954 261.83 143.437C261.29 143.063 260.676 142.87 260.05 142.87Z" fill="#060633"/>
<path d="M242.171 149.404L242.148 149.17L246.414 148.689L246.437 148.923L242.171 149.404Z" fill="#060633"/>
<path d="M253.339 148.172L253.195 147.996C255.043 146.209 256.756 147.262 256.773 147.272L256.664 147.475C256.599 147.434 255.067 146.502 253.339 148.172Z" fill="#060633"/>
<path d="M244.06 149.844C243.856 149.435 243.513 149.13 243.111 148.97C242.282 148.64 240.828 148.298 239.867 149.407C238.457 151.033 241.506 155.113 244.34 152.938C244.34 152.938 245.141 152.014 244.06 149.844Z" fill="#FB9391"/>
<path d="M244.92 129.044C244.055 124.794 240.174 122.107 236.25 123.043C232.326 123.98 229.847 128.185 230.711 132.436C231.575 136.686 235.457 139.373 239.381 138.436C243.304 137.5 245.784 133.295 244.92 129.044Z" fill="#0B0755"/>
<path d="M360.142 143.171C360.236 146.718 364.174 149.675 363.094 153.026C362.855 153.77 362.379 154.411 362.187 155.171C361.764 156.842 362.916 158.637 364.414 159.247C365.911 159.857 367.608 159.515 369.084 158.847C370.56 158.18 371.902 157.204 373.358 156.486C376.623 154.877 380.295 154.633 383.815 153.883C387.386 153.122 390.935 151.814 394.565 152.088C398.752 152.405 402.526 154.78 406.446 156.404C410.441 158.058 414.702 158.956 418.979 159.043C421.211 159.088 423.521 158.893 425.5 157.775C429.45 155.545 430.978 149.988 429.391 145.609C428.486 143.112 426.691 141.066 424.542 139.768C422.625 138.609 420.178 138.22 418.731 136.277C416.705 133.558 417.947 129.494 417.148 126.108C416.475 123.26 414.261 120.92 411.816 119.786C409.532 118.727 406.692 118.58 404.977 116.402C403.112 114.034 403.732 110.759 403.397 107.917C402.917 103.853 400.426 100.257 397.217 98.0903C396.259 97.4434 395.22 96.8999 394.13 96.467C386.927 93.604 377.541 95.5782 375.013 104.501C374.239 107.235 374.295 110.292 372.915 112.73C371.416 115.379 368.397 116.946 367.565 119.92C366.519 123.656 369.476 127.67 368.5 131.429C367.863 133.886 365.746 135.474 363.871 137.02C361.996 138.564 360.076 140.62 360.142 143.171Z" fill="#060633"/>
<path d="M399.366 328.328C399.366 328.328 399.127 347.077 397.309 349.126C396.271 350.296 375.633 352.751 375.051 349.756C374.469 346.762 390.181 342.664 391.344 337.148C392.508 331.632 391.926 326.432 391.926 326.432L399.366 328.328Z" fill="#FB9391"/>
<path d="M343.505 323.497C343.505 323.497 339.352 333.393 338.522 335.192C337.692 336.992 336.861 343.289 335.2 343.514C333.539 343.739 315.685 345.763 315.27 342.614C314.854 339.466 331.048 334.293 332.086 331.818C333.124 329.345 337.069 318.999 337.069 318.999L343.505 323.497Z" fill="#FB9391"/>
<path d="M403.867 193.954C403.867 193.954 415.505 215.03 416.547 225.945C417.589 236.859 410.12 277.694 410.207 280.328C410.293 282.962 411.262 288.984 410.257 293.124C409.251 297.264 402.998 309.684 403.867 313.071C404.735 316.458 402.303 332.642 402.303 332.642H388.755C388.755 332.642 390.491 313.447 388.755 305.168C387.017 296.888 387.017 283.339 387.017 277.694C387.017 272.048 387.017 235.542 387.017 235.542C387.017 235.542 378.68 252.854 378.332 255.112C377.985 257.37 377.638 259.252 374.858 267.156C372.079 275.059 365.826 281.457 364.784 284.844C363.741 288.232 363.394 291.619 361.657 295.006C359.92 298.393 355.751 299.898 354.014 308.178C352.277 316.458 345.329 328.125 345.329 328.125L330.391 322.48C330.391 322.48 341.508 291.242 341.508 290.113C341.508 288.984 346.719 282.962 346.719 272.048C346.719 261.133 352.972 246.456 354.709 243.821C356.446 241.187 372.427 194.33 378.854 191.131C385.28 187.933 403.867 193.954 403.867 193.954Z" fill="#91B5F8"/>
<path d="M396.66 136.09C403.695 136.372 414.638 139.759 420.891 151.05C427.144 162.341 430.01 172.784 430.01 172.784L414.898 178.712L413.335 172.22C413.335 172.22 409.427 192.825 405.518 194.519C401.61 196.213 399.004 193.107 396.659 192.825C394.314 192.543 386.758 195.083 380.505 193.108C374.252 191.132 373.991 186.051 373.209 180.123C372.428 174.196 371.386 168.833 371.386 168.833L369.041 170.809L356.961 157.722C356.961 157.722 371.125 142.017 378.942 139.477C386.759 136.936 396.66 136.09 396.66 136.09Z" fill="white"/>
<path d="M426.956 173.983C426.956 173.983 427.983 191.508 426.956 199.976C425.93 208.444 417.592 226.697 417.592 226.697L412.555 221.052C412.555 221.052 420.918 195.781 416.65 178.026L426.956 173.983Z" fill="#FB9391"/>
<path d="M376.543 117.113C376.543 117.113 375.373 115.713 374.71 116.47C373.02 118.4 375.395 120.202 376.738 120.453L376.543 117.113Z" fill="#EA6868"/>
<path d="M385.97 96.2353C391.897 95.6844 397.358 100.107 398.56 106.419C398.955 108.494 398.863 110.541 398.381 112.435C397.385 117.119 396.548 120.9 395.251 123.765C393.936 126.669 393.613 129.983 394.474 133.08L395.344 136.208C389.046 141.021 385.547 137.82 385.547 137.82L384.512 130.436C377.008 130.697 375.924 115.798 375.314 111.442L375.326 111.443C375.297 111.28 375.268 111.118 375.245 110.953C374.223 103.663 379.077 96.8759 385.97 96.2353Z" fill="#FB9391"/>
<path d="M388.62 109.01C390.276 110.356 391.771 111.916 393.262 113.472C394.84 115.118 396.479 116.871 397.099 119.148C398.78 117.27 399.67 114.735 400.368 112.231C400.692 111.07 400.986 109.88 400.976 108.668C400.963 106.95 400.343 105.315 399.733 103.729C398.947 101.683 398.105 99.5546 396.538 98.1294C395.5 97.1855 394.213 96.6205 392.912 96.2099C389.877 95.2514 386.588 95.0687 383.558 96.046C380.527 97.0233 377.785 99.2237 376.321 102.26C374.435 106.17 374.821 110.854 375.255 115.241C375.407 113.366 376.298 111.668 377.168 110.039C377.734 108.98 378.316 107.899 379.172 107.1C380.632 105.738 381.117 105.903 383.654 103.36C384.769 105.924 386.549 107.326 388.62 109.01Z" fill="#060633"/>
<path d="M395.306 116.579C395.438 116.138 395.724 115.77 396.093 115.534C396.852 115.048 398.224 114.427 399.354 115.328C401.011 116.65 398.696 121.258 395.547 119.675C395.547 119.675 394.605 118.924 395.306 116.579Z" fill="#FB9391"/>
<path d="M378.5 116.914C378.361 116.314 378.696 115.705 379.25 115.553C379.804 115.402 380.366 115.765 380.506 116.365C380.645 116.965 380.31 117.574 379.756 117.725C379.203 117.877 378.64 117.514 378.5 116.914Z" fill="#060633"/>
<path d="M388.313 116.498C388.173 115.899 388.509 115.29 389.063 115.138C389.616 114.987 390.179 115.35 390.318 115.95C390.458 116.55 390.122 117.159 389.569 117.311C389.015 117.462 388.453 117.098 388.313 116.498Z" fill="#060633"/>
<path d="M381.852 124.554C381.852 124.554 382.663 123.768 383.203 123.871C383.742 123.974 384.092 124.632 384.092 124.632C384.092 124.632 384.345 123.912 384.984 123.836C385.624 123.759 387.464 124.105 387.464 124.105C387.464 124.105 386.067 127.227 384.11 126.91C382.153 126.592 381.888 124.651 381.888 124.651L381.852 124.554Z" fill="#EA6868"/>
<path d="M383.752 125.573C385.99 125.849 387.966 123.875 387.992 123.849C388.05 123.789 388.053 123.69 387.998 123.626C387.943 123.563 387.85 123.56 387.792 123.619C387.662 123.751 384.579 126.824 381.849 124.317C381.788 124.26 381.696 124.268 381.644 124.335C381.592 124.401 381.6 124.501 381.661 124.557C382.35 125.19 383.064 125.488 383.752 125.573Z" fill="#240D39"/>
<path d="M391.454 114.358C391.575 114.331 391.684 114.248 391.746 114.121C391.859 113.894 391.779 113.612 391.57 113.491C391.508 113.454 390.003 112.612 388.138 113.123C387.907 113.186 387.768 113.439 387.826 113.689C387.884 113.938 388.137 114.088 388.347 114.027C389.902 113.602 391.152 114.305 391.165 114.312C391.257 114.366 391.359 114.379 391.454 114.358Z" fill="#060633"/>
<path d="M380.786 114.153C380.9 114.103 380.993 114 381.034 113.863C381.107 113.618 380.982 113.356 380.756 113.277C380.688 113.254 379.085 112.709 377.319 113.582C377.102 113.689 377.007 113.965 377.105 114.199C377.203 114.434 377.467 114.535 377.674 114.43C379.135 113.708 380.479 114.16 380.493 114.164C380.593 114.199 380.696 114.192 380.786 114.153Z" fill="#060633"/>
<path d="M384.308 121.474C383.072 121.474 382.532 120.556 382.415 119.996C382.395 119.898 382.41 119.795 382.457 119.709C383.341 118.098 382.935 116.018 382.931 115.998C382.888 115.786 383.011 115.577 383.206 115.531C383.399 115.484 383.594 115.617 383.638 115.829C383.657 115.923 384.088 118.101 383.162 119.952C383.276 120.246 383.662 120.883 384.801 120.632C385.001 120.59 385.189 120.727 385.228 120.939C385.268 121.151 385.141 121.358 384.946 121.401C384.715 121.451 384.502 121.474 384.308 121.474Z" fill="#EA6868"/>
<path d="M371.387 168.93C371.341 168.93 371.301 168.892 371.297 168.842C370.822 163.231 374.828 155.316 374.869 155.237C374.893 155.189 374.948 155.172 374.992 155.198C375.036 155.224 375.051 155.284 375.027 155.332C374.987 155.41 371.007 163.274 371.477 168.823C371.482 168.878 371.445 168.925 371.395 168.93C371.392 168.93 371.39 168.93 371.387 168.93Z" fill="#272035"/>
<path d="M400.116 172.651C395.703 172.651 391.97 169.893 391.918 169.854C391.877 169.823 391.866 169.762 391.895 169.717C391.924 169.673 391.981 169.661 392.021 169.693C392.092 169.746 399.168 174.97 405.298 170.913C405.339 170.885 405.396 170.901 405.422 170.946C405.448 170.992 405.434 171.052 405.392 171.08C403.648 172.234 401.83 172.651 400.116 172.651Z" fill="#272035"/>
<path d="M398.747 341.908C388.187 347.738 384.664 345.76 383.497 343.9C379.172 346.206 374.749 348.142 375.063 349.757C375.644 352.751 396.283 350.296 397.321 349.126C397.986 348.377 398.439 345.391 398.747 341.908Z" fill="#474FEA"/>
<path d="M323.246 336.909C319.079 338.922 315.06 341.026 315.27 342.615C315.685 345.763 333.539 343.739 335.2 343.514C336.708 343.31 337.531 338.106 338.291 335.8C329.437 341.171 324.963 338.501 323.246 336.909Z" fill="#474FEA"/>
<path d="M413.878 219.953C413.878 219.953 409.148 223.374 407.693 225.021C406.237 226.668 403.698 227.092 404.244 228.275C404.79 229.457 408.518 227.746 408.518 227.746C408.518 227.746 407.289 232.19 406.72 233.493C406.15 234.797 405.68 237.407 406.528 237.933C407.376 238.459 409.706 231.99 409.706 231.99C409.706 231.99 408.238 237.645 408.925 238.311C409.612 238.977 412.456 232.079 412.456 232.079C412.456 232.079 410.618 238.028 410.849 238.631C411.081 239.234 411.802 238.936 412.925 237.001C414.048 235.066 414.734 232.776 414.734 232.776C414.734 232.776 413.731 237.062 413.777 237.621C413.822 238.181 414.262 238.916 415.645 235.859C417.029 232.802 419.024 225.665 418.685 221.659L413.878 219.953Z" fill="#FB9391"/>
<path d="M328.667 153.006C328.667 153.006 327.349 147.013 326.429 144.962C325.51 142.911 326.025 140.184 324.812 140.328C323.599 140.472 323.784 144.854 323.784 144.854C323.784 144.854 320.365 142.061 319.434 141.03C318.504 139.999 316.408 138.614 315.658 139.292C314.909 139.971 319.698 144.586 319.698 144.586C319.698 144.586 315.313 141.129 314.498 141.596C313.683 142.062 318.665 147.348 318.665 147.348C318.665 147.348 314.155 143.414 313.553 143.44C312.95 143.466 312.957 144.302 314.242 146.115C315.526 147.928 317.27 149.421 317.27 149.421C317.27 149.421 313.909 146.913 313.409 146.765C312.909 146.616 312.12 146.807 314.285 149.275C316.45 151.742 321.935 156.249 325.519 157.296L328.667 153.006Z" fill="#FB9391"/>
<path d="M366.586 168.146C366.586 168.146 355.159 182.976 345.843 181.352C336.527 179.728 323.871 155.186 323.871 155.186L328.376 152.207C328.376 152.207 342.411 168.84 347.314 167.777C352.217 166.715 359.142 160.082 359.142 160.082L366.586 168.146Z" fill="#FB9391"/>
<path d="M506.451 235.815H502.113V257.755H506.451V235.815Z" fill="#060633"/>
<path d="M470.561 271.35H519.695C521.802 271.35 523.51 269.5 523.51 267.217V257.091C523.51 254.808 521.802 252.958 519.695 252.958H470.561C468.454 252.958 466.746 254.808 466.746 257.091V267.217C466.746 269.5 468.454 271.35 470.561 271.35Z" fill="#6C73EB"/>
<path d="M489.264 239.864H523.256C526.041 239.864 528.297 237.419 528.297 234.403V197.577C528.297 194.561 526.041 192.116 523.256 192.116H489.264C486.48 192.116 484.223 194.561 484.223 197.577V234.403C484.223 237.419 486.48 239.864 489.264 239.864Z" fill="#6C73EB"/>
<path d="M496.134 271.35H491.797V337.753H496.134V271.35Z" fill="#060633"/>
<path d="M515.48 339.162H472.352C471.633 339.162 471.051 338.531 471.051 337.752C471.051 336.974 471.633 336.343 472.352 336.343H515.48C516.199 336.343 516.781 336.974 516.781 337.752C516.781 338.531 516.199 339.162 515.48 339.162Z" fill="#060633"/>
<path d="M478.84 342.088C478.84 340.192 477.421 338.654 475.67 338.654C473.919 338.654 472.5 340.192 472.5 342.088C472.5 343.985 473.919 345.523 475.67 345.523C477.421 345.523 478.84 343.985 478.84 342.088Z" fill="#060633"/>
<path d="M514.547 342.088C514.547 340.192 513.128 338.654 511.377 338.654C509.626 338.654 508.207 340.192 508.207 342.088C508.207 343.985 509.626 345.523 511.377 345.523C513.128 345.523 514.547 343.985 514.547 342.088Z" fill="#060633"/>
<path d="M497.133 342.088C497.133 340.192 495.714 338.654 493.963 338.654C492.212 338.654 490.793 340.192 490.793 342.088C490.793 343.985 492.212 345.523 493.963 345.523C495.714 345.523 497.133 343.985 497.133 342.088Z" fill="#060633"/>
<path d="M445.331 188.946C445.331 188.946 445.271 183.259 444.828 181.209C444.386 179.159 445.362 176.817 444.242 176.679C443.123 176.541 442.467 180.528 442.467 180.528C442.467 180.528 439.912 177.259 439.268 176.126C438.624 174.992 436.997 173.282 436.194 173.728C435.392 174.173 438.837 179.386 438.837 179.386C438.837 179.386 435.538 175.306 434.717 175.546C433.895 175.786 437.388 181.645 437.388 181.645C437.388 181.645 434.066 177.107 433.519 176.998C432.972 176.889 432.82 177.643 433.637 179.559C434.453 181.475 435.742 183.204 435.742 183.204C435.742 183.204 433.187 180.204 432.765 179.96C432.342 179.717 431.596 179.714 433.082 182.414C434.568 185.114 438.66 190.382 441.691 192.116L445.331 188.946Z" fill="#FB9391"/>
<path d="M448.612 326.057C448.612 326.057 447.785 337.98 447.701 338.148C447.617 338.315 448.488 339.777 448.488 339.777L451.891 340.438L454.996 338.891C454.996 338.891 456.682 327.26 457.007 325.546C457.332 323.833 448.612 326.057 448.612 326.057Z" fill="#FB9391"/>
<path d="M454.997 338.891C454.997 338.891 451.075 340.377 447.722 337.918C447.722 337.918 434.663 343.22 435.062 347.253C435.062 347.253 434.506 348.454 440.164 348.194C445.822 347.935 454.616 347.662 454.852 347.521C455.087 347.38 456.195 348.027 454.997 338.891Z" fill="#0B0755"/>
<path d="M475.738 325.123C475.738 325.123 475.893 336.81 475.809 336.977C475.725 337.144 476.597 338.607 476.597 338.607L479.999 339.268L483.105 337.721C483.105 337.721 482.831 326.856 483.156 325.143C483.481 323.429 475.738 325.123 475.738 325.123Z" fill="#FB9391"/>
<path d="M483.102 337.721C483.102 337.721 479.181 339.207 475.828 336.748C475.828 336.748 462.769 342.051 463.167 346.083C463.167 346.083 462.611 347.284 468.27 347.025C473.928 346.765 482.722 346.493 482.957 346.351C483.193 346.21 484.301 346.857 483.102 337.721Z" fill="#0B0755"/>
<path d="M488.165 139.441C488.165 139.441 487.337 137.777 486.525 138.341C484.455 139.779 486.212 142.063 487.462 142.656L488.165 139.441Z" fill="#EA6868"/>
<path d="M488.221 133.61L488.232 133.613C488.24 133.448 488.249 133.283 488.262 133.117C488.881 125.763 495.104 120.423 501.948 121.593C507.65 122.568 511.927 127.977 511.937 134.231C511.941 136.552 511.385 138.703 510.424 140.56C509.078 143.445 507.9 145.911 506.701 147.939C504.718 151.293 503.844 155.277 504.125 159.248L504.347 162.372C496.736 165.842 493.752 161.621 493.752 161.621L494.094 155.962C494.138 155.223 493.651 154.577 492.976 154.462C492.972 154.462 492.968 154.461 492.964 154.46C484.016 152.936 487.851 138.003 488.221 133.61Z" fill="#FB9391"/>
<path d="M499.829 141.528C499.884 140.87 500.421 140.385 501.028 140.445C501.636 140.505 502.083 141.087 502.028 141.745C501.972 142.403 501.435 142.887 500.828 142.827C500.221 142.767 499.773 142.186 499.829 141.528Z" fill="#060633"/>
<path d="M490.231 138.444C490.287 137.786 490.824 137.301 491.431 137.361C492.038 137.421 492.486 138.003 492.43 138.661C492.375 139.319 491.838 139.804 491.231 139.744C490.623 139.684 490.176 139.102 490.231 138.444Z" fill="#060633"/>
<path d="M503.924 140.058C504.036 140.069 504.154 140.049 504.263 139.992C504.584 139.823 504.72 139.404 504.564 139.056C504.096 138.005 502.532 136.306 499.958 137.395C499.626 137.536 499.461 137.943 499.591 138.304C499.722 138.664 500.097 138.841 500.43 138.701C502.543 137.805 503.365 139.589 503.399 139.665C503.501 139.895 503.705 140.037 503.924 140.058Z" fill="#060633"/>
<path d="M493.767 137.179C493.88 137.19 493.997 137.17 494.107 137.112C494.428 136.944 494.563 136.525 494.408 136.177C493.94 135.126 492.375 133.426 489.802 134.516C489.47 134.657 489.305 135.063 489.435 135.424C489.566 135.785 489.941 135.963 490.273 135.822C492.387 134.926 493.209 136.709 493.243 136.786C493.345 137.016 493.548 137.158 493.767 137.179Z" fill="#060633"/>
<path d="M512.872 136.435L508.939 144.776L506.83 144.099L506.48 132.803L512.872 136.435Z" fill="#060633"/>
<path d="M506.521 143.79C506.747 143.395 507.106 143.112 507.517 142.978C508.362 142.703 509.833 142.455 510.732 143.625C512.051 145.34 508.782 149.218 506.071 146.863C506.071 146.863 505.322 145.888 506.521 143.79Z" fill="#FB9391"/>
<path d="M493.815 145.284C494.824 145.948 495.815 145.424 495.826 145.418C495.921 145.366 495.959 145.242 495.911 145.139C495.864 145.037 495.749 144.995 495.654 145.046C495.608 145.071 494.505 145.64 493.544 144.503C493.387 144.318 493.31 144.173 493.314 144.071C493.321 143.928 493.493 143.76 493.731 143.528C494.281 142.993 495.2 142.098 495.647 139.916C495.67 139.803 495.605 139.692 495.501 139.667C495.398 139.643 495.295 139.713 495.272 139.825C494.852 141.878 494.023 142.685 493.475 143.219C493.178 143.507 492.944 143.735 492.93 144.051C492.92 144.277 493.022 144.503 493.26 144.785C493.442 144.999 493.629 145.162 493.815 145.284Z" fill="#EA6868"/>
<path d="M490.54 128.828C490.54 128.828 488.734 129.952 487.664 137.678C487.664 137.678 487.815 128.963 488.784 128.097C489.753 127.232 490.54 128.828 490.54 128.828Z" fill="#060633"/>
<path d="M524.672 229.938L485.952 217.781L471.765 229.534L472.548 243.927L472.495 243.921L456.617 258.038C452.969 261.281 450.677 265.976 450.255 271.067L445.293 330.932H458.878L473.401 271.35V330.932H485.57L494.475 276.303L514.643 261.549C521.246 256.718 525.117 248.572 524.911 239.944L524.672 229.938Z" fill="#2F3DBC"/>
<path d="M504.985 160.831H493.164L488.582 182.297V223.477C488.582 223.477 499.434 229.172 513.722 221.724L509.556 173.535L504.985 160.831Z" fill="white"/>
<path d="M504.984 160.831C504.984 160.831 522.82 169.008 526.325 174.265C529.562 179.12 529.107 174.503 538.431 201.754C539.65 205.319 539.114 209.241 537.134 212.236C536.323 213.462 535.169 214.374 533.864 214.901L524.679 218.613L525.651 243.92L507.858 245.819L504.984 160.831Z" fill="#4851EC"/>
<path d="M493.163 160.831C493.163 160.831 475.327 169.008 471.822 174.265C468.317 179.522 472.496 243.921 472.496 243.921L490.289 245.819L493.163 160.831Z" fill="#4851EC"/>
<path d="M501.152 163.24L499.074 167.073L503.404 221.286L496.724 232.968L491.766 220.994L496.57 166.745L495.053 162.911L499.13 161.269L501.152 163.24Z" fill="#6C73EB"/>
<path d="M504.985 160.831L504.099 158.725L498.541 160.831L493.942 158.541L493.164 160.831L494.143 164.773L498.339 161.821L502.433 165.047L504.985 160.831Z" fill="white"/>
<path d="M508.841 121.01C508.502 120.634 507.876 120.332 507.591 120.757C507.476 120.928 507.474 121.158 507.489 121.369C507.53 121.983 507.665 122.59 507.887 123.157C505.894 120.627 502.571 119.841 499.501 119.891C496.431 119.94 493.381 120.667 490.315 120.504C489.099 120.439 487.641 120.346 486.927 121.414C486.429 122.159 486.543 123.249 487.042 123.993C487.542 124.737 488.352 125.175 489.176 125.395C488.543 125.106 487.749 125.301 487.293 125.859C486.838 126.416 486.755 127.293 487.096 127.939C487.619 128.927 488.824 129.145 489.872 129.238C493.206 129.534 496.554 129.636 499.898 129.545C499.412 129.97 498.926 130.395 498.439 130.82C498.273 130.965 498.101 131.12 498.022 131.334C497.913 131.629 498.009 131.969 498.167 132.236C498.578 132.926 499.363 133.261 500.119 133.314C500.875 133.367 501.625 133.183 502.373 133.05C503.465 132.857 504.573 132.774 505.678 132.803C505.907 132.809 506.143 132.821 506.35 132.926C506.629 133.069 506.815 133.357 507.012 133.614C508.189 135.148 510.054 135.8 511.815 136.38C512.362 136.56 513.086 136.675 513.39 136.151C513.508 135.947 513.524 135.696 513.531 135.456C513.618 132.584 512.973 129.691 511.685 127.179C512.015 127.824 512.83 127.982 513.197 127.232C513.663 126.277 512.555 125.489 511.932 125.096C511.362 124.737 510.82 124.661 510.396 124.061C509.732 123.12 509.663 121.924 508.841 121.01Z" fill="#060633"/>
<path d="M496.785 148.411L490.539 146.775C490.539 146.775 490.897 150.525 493.167 150.525C495.437 150.525 496.785 148.411 496.785 148.411Z" fill="white"/>
<path d="M511.94 164.284L508.438 179.922L511.94 181.508L506.78 213.933L504.984 160.831L511.94 164.284Z" fill="#2F3DBC"/>
<path d="M476.188 170.269C476.188 170.269 470.281 173.786 467.783 181.568C465.285 189.35 461.774 201.493 457.072 203.325C453.324 204.785 446.702 187.382 446.702 187.382L437.957 190.68C437.957 190.68 443.433 226.198 460.443 223.015C471.256 220.991 474.81 195.271 474.81 195.271L476.188 170.269Z" fill="#4851EC"/>
<path d="M486.207 164.284L489.709 179.922L486.207 181.508L491.368 213.933L493.163 160.831L486.207 164.284Z" fill="#2F3DBC"/>
<path d="M507.971 212.634C507.971 212.634 502.945 210.682 500.984 210.414C499.024 210.145 497.309 208.308 496.791 209.415C496.273 210.522 499.549 212.612 499.549 212.612C499.549 212.612 495.768 214.093 494.542 214.356C493.316 214.62 491.236 215.695 491.344 216.682C491.452 217.669 497.258 215.956 497.258 215.956C497.258 215.956 492.5 217.918 492.421 218.852C492.341 219.785 498.734 218.252 498.734 218.252C498.734 218.252 493.564 220.077 493.274 220.603C492.984 221.129 493.594 221.552 495.569 221.388C497.544 221.223 499.522 220.504 499.522 220.504C499.522 220.504 495.978 222.081 495.614 222.43C495.25 222.78 494.984 223.55 497.886 222.972C500.787 222.393 506.872 220.032 509.471 217.516L507.971 212.634Z" fill="#FB9391"/>
<path d="M473.401 271.585C473.281 271.585 473.184 271.48 473.184 271.35C473.184 271.27 473.234 263.295 477.601 257.1C480.368 253.175 493.658 244.335 494.223 243.96C494.324 243.894 494.458 243.927 494.521 244.038C494.583 244.148 494.552 244.293 494.449 244.361C494.312 244.452 480.664 253.53 477.945 257.386C473.67 263.451 473.618 271.272 473.618 271.35C473.618 271.48 473.52 271.585 473.401 271.585Z" fill="#0B0755"/>
<path d="M510.568 221.779C510.521 221.779 510.478 221.746 510.464 221.696L507.575 211.545C507.56 211.493 507.581 211.436 507.625 211.409L523.374 201.579L518.984 190.221C518.96 190.161 518.987 190.092 519.042 190.067C519.097 190.042 519.161 190.07 519.184 190.13L523.611 201.583C523.632 201.638 523.612 201.701 523.565 201.731L507.808 211.566L510.643 221.525L524.657 218.498C524.719 218.483 524.773 218.527 524.784 218.59C524.796 218.654 524.758 218.716 524.699 218.729L510.589 221.776C510.582 221.778 510.574 221.779 510.568 221.779Z" fill="#17152B"/>
<path d="M477.412 230.627H159.234V238.071H477.412V230.627Z" fill="#060633"/>
<path d="M415.182 347.766C415.171 347.766 415.16 347.766 415.149 347.765C414.79 347.745 414.514 347.414 414.532 347.025L419.842 234.313C419.86 233.924 420.17 233.623 420.524 233.645C420.883 233.665 421.159 233.996 421.141 234.385L415.832 347.097C415.814 347.474 415.527 347.766 415.182 347.766Z" fill="#060633"/>
<path d="M466.201 347.766C465.857 347.766 465.57 347.474 465.552 347.097L460.243 234.385C460.225 233.996 460.501 233.665 460.86 233.645C461.221 233.623 461.524 233.924 461.543 234.313L466.852 347.025C466.87 347.414 466.594 347.745 466.235 347.765C466.224 347.766 466.212 347.766 466.201 347.766Z" fill="#060633"/>
<path d="M403.43 198.64L443.78 198.579L456.474 230.542L416.123 230.604L403.43 198.64Z" fill="#0B0755"/>
<path d="M448.552 230.553L475.566 230.512L475.564 228.577L448.549 228.618L448.552 230.553Z" fill="#0B0755"/>
<path d="M427.732 214.123C427.738 213.06 426.947 212.194 425.966 212.188C424.985 212.182 424.185 213.039 424.18 214.102C424.174 215.165 424.965 216.031 425.946 216.037C426.928 216.043 427.727 215.186 427.732 214.123Z" fill="white"/>
<path d="M136.902 348.531C136.817 348.531 136.73 348.52 136.644 348.497C136.062 348.343 135.705 347.707 135.848 347.076L142.206 318.926C142.349 318.296 142.936 317.91 143.518 318.064C144.1 318.218 144.456 318.854 144.313 319.484L137.955 347.635C137.834 348.171 137.39 348.531 136.902 348.531Z" fill="#0B0755"/>
<path d="M101.129 348.531C101.043 348.531 100.957 348.52 100.87 348.497C100.288 348.343 99.932 347.707 100.074 347.077L109.3 306.233C109.442 305.603 110.029 305.217 110.611 305.371C111.193 305.525 111.549 306.161 111.407 306.792L102.181 347.635C102.06 348.171 101.617 348.531 101.129 348.531Z" fill="#0B0755"/>
<path d="M115.412 201.767C178.959 201.767 166.748 272.566 186.773 271.35C206.799 270.134 216.09 321.271 143.262 321.271C70.4344 321.271 56.9249 201.767 115.412 201.767Z" fill="#6C73EB"/>
<path d="M202.401 325.418C202.401 325.418 202.246 337.105 202.33 337.272C202.413 337.439 201.542 338.902 201.542 338.902L198.139 339.562L195.034 338.015C195.034 338.015 195.308 327.151 194.983 325.437C194.658 323.724 202.401 325.418 202.401 325.418Z" fill="#FB9391"/>
<path d="M195.036 338.016C195.036 338.016 198.958 339.502 202.31 337.043C202.31 337.043 215.37 342.345 214.971 346.377C214.971 346.377 215.527 347.579 209.868 347.319C204.21 347.06 195.417 346.787 195.181 346.646C194.945 346.504 193.837 347.152 195.036 338.016Z" fill="#0B0755"/>
<path d="M169.451 325.418C169.451 325.418 169.296 337.105 169.38 337.272C169.464 337.439 168.593 338.902 168.593 338.902L165.19 339.562L162.085 338.015C162.085 338.015 162.358 327.151 162.033 325.437C161.708 323.724 169.451 325.418 169.451 325.418Z" fill="#FB9391"/>
<path d="M162.087 338.016C162.087 338.016 166.008 339.502 169.361 337.043C169.361 337.043 182.42 342.345 182.022 346.377C182.022 346.377 182.578 347.579 176.919 347.319C171.261 347.06 162.468 346.787 162.232 346.646C161.996 346.504 160.888 347.152 162.087 338.016Z" fill="#0B0755"/>
<path d="M139.238 186.874C139.238 186.874 140.377 185.396 141.081 186.137C142.877 188.028 140.695 189.921 139.337 190.238L139.238 186.874Z" fill="#EA6868"/>
<path d="M140.271 181.042L140.26 181.043C140.283 180.876 140.305 180.71 140.323 180.541C141.085 173.065 135.876 166.366 128.826 166.028C122.953 165.745 117.67 170.202 116.487 176.441C116.047 178.756 116.199 181.025 116.809 183.09C117.611 186.266 118.325 188.986 119.141 191.274C120.491 195.058 120.616 199.226 119.59 203.127L118.783 206.196C125.728 211.334 129.497 207.779 129.497 207.779L130.218 202.056C130.312 201.309 130.919 200.772 131.614 200.806C131.619 200.806 131.623 200.806 131.627 200.806C140.843 201.255 139.816 185.507 140.271 181.042Z" fill="#FB9391"/>
<path d="M127.203 186.389C127.272 185.72 126.826 185.118 126.209 185.044C125.592 184.97 125.036 185.453 124.968 186.122C124.9 186.79 125.345 187.392 125.962 187.466C126.579 187.54 127.135 187.058 127.203 186.389Z" fill="#050521"/>
<path d="M137.356 185.424C137.424 184.755 136.979 184.153 136.361 184.079C135.744 184.005 135.188 184.488 135.12 185.156C135.052 185.825 135.497 186.427 136.115 186.501C136.732 186.575 137.288 186.093 137.356 185.424Z" fill="#050521"/>
<path d="M123.395 184.021C123.28 184.007 123.167 183.961 123.068 183.88C122.779 183.641 122.723 183.193 122.943 182.879C123.608 181.934 125.487 180.582 127.851 182.236C128.157 182.45 128.245 182.892 128.047 183.223C127.85 183.555 127.441 183.649 127.136 183.435C125.195 182.076 124.04 183.675 123.992 183.744C123.846 183.951 123.617 184.048 123.395 184.021Z" fill="#050521"/>
<path d="M134.067 183.383C133.952 183.369 133.839 183.323 133.74 183.241C133.451 183.003 133.395 182.555 133.615 182.241C134.279 181.295 136.16 179.944 138.523 181.598C138.829 181.812 138.916 182.254 138.719 182.585C138.521 182.916 138.113 183.011 137.808 182.797C135.867 181.438 134.712 183.037 134.664 183.105C134.518 183.312 134.289 183.409 134.067 183.383Z" fill="#050521"/>
<path d="M115.145 178.435L117.505 187.625L119.736 187.413L122.204 176.218L115.145 178.435Z" fill="#0B0755"/>
<path d="M120.103 187.174C119.951 186.73 119.646 186.368 119.261 186.144C118.469 185.683 117.047 185.112 115.931 186.081C114.293 187.502 116.828 192.093 119.976 190.338C119.976 190.338 120.906 189.531 120.103 187.174Z" fill="#FB9391"/>
<path d="M132.501 191.462C131.37 191.903 130.479 191.161 130.469 191.152C130.384 191.08 130.37 190.948 130.436 190.855C130.503 190.764 130.626 190.747 130.71 190.819C130.752 190.854 131.746 191.665 132.919 190.742C133.11 190.592 133.214 190.464 133.229 190.362C133.249 190.218 133.109 190.012 132.914 189.728C132.467 189.073 131.717 187.978 131.68 185.701C131.678 185.583 131.765 185.487 131.872 185.485C131.98 185.483 132.069 185.576 132.071 185.693C132.106 187.835 132.782 188.822 133.228 189.476C133.47 189.829 133.661 190.108 133.616 190.426C133.583 190.654 133.439 190.857 133.148 191.085C132.927 191.259 132.71 191.381 132.501 191.462Z" fill="#EA6868"/>
<path d="M127.766 193.13C127.766 193.13 132.263 194.283 135.3 193.171C135.3 193.171 134.196 196.883 131.516 196.869C128.836 196.855 127.766 193.13 127.766 193.13Z" fill="white"/>
<path d="M138.855 175.759C138.855 175.759 140.447 177.279 140.066 185.225C140.066 185.225 141.55 176.494 140.745 175.417C139.94 174.34 138.855 175.759 138.855 175.759Z" fill="#0B0755"/>
<path d="M114.632 175.475C114.821 173.551 115.631 171.765 116.538 170.098C115.694 170.214 114.752 170.292 114.075 169.732C113.399 169.172 113.416 167.727 114.25 167.54C114.734 167.432 115.198 167.791 115.689 167.864C116.807 168.03 117.62 166.74 117.978 165.581C118.337 164.422 118.652 163.055 119.672 162.533C119.993 162.369 120.357 162.311 120.709 162.36C120.967 163.771 120.775 165.275 120.172 166.557C121.512 164.78 123.188 163.301 125.065 162.238C126.526 161.411 128.25 160.831 129.812 161.4C130.139 162.778 128.027 163.428 127.756 164.82C130.56 164.065 133.472 163.78 136.355 163.976C137.098 164.026 137.858 164.114 138.526 164.47C139.194 164.826 139.76 165.502 139.826 166.306C139.913 167.361 138.971 168.368 137.998 168.26C139.423 168.983 140.866 169.719 142.071 170.814C143.276 171.909 144.238 173.424 144.385 175.121C143.334 175.132 142.282 174.843 141.364 174.289C141.996 174.929 142.539 175.896 142.213 176.764C141.972 177.406 141.308 177.767 140.669 177.809C140.03 177.851 139.404 177.635 138.795 177.421C135.72 176.342 132.645 175.262 129.57 174.183C130.771 175.593 131.638 177.336 132.066 179.198C129.273 178.837 126.585 177.564 124.444 175.585C124.182 177.012 123.734 178.399 123.118 179.692C123.021 179.894 122.911 180.106 122.726 180.214C122.103 180.58 121.602 179.577 121.044 179.106C120.359 178.528 119.352 178.778 118.589 179.228C117.275 180.004 116.364 181.135 115.359 179.448C114.683 178.315 114.502 176.791 114.632 175.475Z" fill="#0B0755"/>
<path d="M188.681 267.341C188.681 267.341 201.316 268.449 205.369 285.888C207.724 296.022 206.799 329.019 206.799 329.019L190.416 331.803C190.416 331.803 191.886 294.927 179.198 283.564C179.198 283.564 181.767 291.053 172.47 333.668H160.311L156.258 290.021C156.258 290.021 127.65 291.054 119.068 283.306C110.486 275.558 109.625 266.285 109.625 266.285L150.06 259.627L188.681 267.341Z" fill="#4851EC"/>
<path d="M116.046 208.064C116.046 208.064 116.841 201.435 118.113 201.78C119.384 202.124 130.668 204.347 131.781 204.097C132.893 203.846 131.781 209.7 131.781 209.7C131.781 209.7 144.484 210.952 147.662 216.806C150.841 222.66 158.234 244.891 160.936 246.785C163.637 248.679 168.971 253.949 168.971 253.949L146.995 267.341L126.177 266.285C126.177 266.285 111.12 276.062 99.3584 268.449C87.5974 260.836 89.6635 220.891 100.789 213.832C111.914 206.773 116.046 208.064 116.046 208.064Z" fill="white"/>
<path d="M153.046 261.193C153.032 261.193 153.017 261.19 153.003 261.183C146.691 258.196 143.295 228.578 143.153 227.318C143.146 227.253 143.188 227.195 143.248 227.187C143.31 227.176 143.361 227.225 143.368 227.29C143.403 227.597 146.89 258.034 153.089 260.968C153.144 260.994 153.169 261.063 153.146 261.123C153.128 261.167 153.088 261.193 153.046 261.193Z" fill="#0B0755"/>
<path d="M126.18 266.402C126.138 266.402 126.098 266.376 126.08 266.332C126.057 266.272 126.082 266.203 126.136 266.177L130.755 263.991L130.108 255.253C128.954 255.008 115.859 252.239 109.64 251.452C109.586 251.445 109.545 251.396 109.544 251.337C109.534 250.669 109.316 234.959 110.268 232.638C110.292 232.578 110.356 232.552 110.411 232.578C110.466 232.605 110.49 232.674 110.466 232.733C109.573 234.912 109.742 249.839 109.759 251.231C116.284 252.068 130.09 255.01 130.23 255.039C130.278 255.049 130.313 255.093 130.317 255.145L130.977 264.055C130.981 264.105 130.955 264.153 130.913 264.172L126.223 266.393C126.209 266.399 126.194 266.402 126.18 266.402Z" fill="#0B0755"/>
<path d="M179.196 283.682C179.145 283.682 179.1 283.642 179.09 283.586C179.083 283.547 178.384 279.709 174.863 275.698C171.611 271.994 165.218 267.382 153.23 266.443C153.17 266.439 153.125 266.382 153.129 266.318C153.133 266.253 153.19 266.205 153.245 266.209C165.313 267.154 171.753 271.809 175.031 275.548C178.59 279.608 179.296 283.503 179.303 283.542C179.314 283.606 179.275 283.668 179.216 283.68C179.21 283.681 179.203 283.682 179.196 283.682Z" fill="#0B0755"/>
<path d="M134.522 256.375C134.522 256.375 134.838 256.385 135.367 256.403C137.976 256.491 145.781 256.782 146.687 257.128C147.777 257.544 144.497 264.92 144.497 264.92C144.497 264.92 135.117 265.477 132.099 263.296C129.081 261.116 134.522 256.375 134.522 256.375Z" fill="#4851EC"/>
<path d="M143.262 264.968C143.262 264.968 148.493 267.531 148.956 266.972C149.42 266.412 144.86 263.55 144.86 263.55L143.262 264.968Z" fill="#4851EC"/>
<path d="M144.688 263.15C144.688 263.15 152.433 266.602 153.019 265.443C153.605 264.284 145.034 261.288 145.034 261.288L144.688 263.15Z" fill="#4851EC"/>
<path d="M145.715 261.116C145.715 261.116 153.709 263.822 154.199 262.612C154.69 261.402 145.909 259.228 145.909 259.228L145.715 261.116Z" fill="#4851EC"/>
<path d="M146.125 258.935C146.125 258.935 153.593 261.576 154.059 260.364C154.526 259.151 146.32 257.047 146.32 257.047L146.125 258.935Z" fill="#4851EC"/>
<path d="M136.311 256.617L130.418 255.818L130.961 263.035L133.992 263.771L136.311 256.617Z" fill="#4851EC"/>
<path d="M203.041 234.287L159.915 234.222L146.348 268.384L189.474 268.449L203.041 234.287Z" fill="#91B5F8"/>
<path d="M154.818 266.328L125.945 266.284L125.943 268.352L154.815 268.396L154.818 266.328Z" fill="#91B5F8"/>
<path d="M177.063 250.834C177.057 249.699 177.902 248.773 178.951 248.767C179.999 248.761 180.854 249.676 180.86 250.812C180.865 251.948 180.02 252.874 178.971 252.88C177.923 252.886 177.068 251.97 177.063 250.834Z" fill="white"/>
<path d="M338.625 56.5006C338.625 39.4539 324.812 25.6345 307.772 25.6345C290.732 25.6345 276.918 39.4537 276.918 56.5006C276.918 64.7687 280.168 72.2773 285.459 77.818C290.253 82.8379 293.009 89.7141 293.009 96.9372C293.009 102.781 297.382 107.518 302.776 107.518H312.768C318.162 107.518 322.534 102.781 322.534 96.9372C322.534 89.7143 325.29 82.8381 330.084 77.818C335.375 72.2773 338.625 64.7687 338.625 56.5006Z" fill="#6C73EB"/>
<path d="M313.183 111.361C312.992 111.361 312.831 111.198 312.821 110.989C312.651 107.548 317.465 53.7919 317.67 51.5051C317.689 51.2888 317.865 51.1291 318.067 51.1515C318.266 51.1724 318.413 51.3648 318.393 51.5811C318.343 52.1404 313.379 107.565 313.547 110.946C313.557 111.164 313.404 111.349 313.203 111.36C313.197 111.361 313.19 111.361 313.183 111.361Z" fill="#060633"/>
<path d="M302.083 111.361C302.076 111.361 302.07 111.361 302.063 111.36C301.862 111.349 301.709 111.163 301.719 110.946C301.888 107.565 296.923 52.1405 296.873 51.581C296.853 51.3646 297 51.1724 297.199 51.1514C297.4 51.1295 297.577 51.2885 297.596 51.505C297.801 53.7918 302.616 107.549 302.445 110.989C302.435 111.198 302.274 111.361 302.083 111.361Z" fill="#060633"/>
<path d="M306.7 65.2841C305.761 65.2841 304.785 64.9217 303.978 64.2435C303.393 64.6971 302.69 64.98 301.932 64.905C300.902 64.8047 299.908 64.039 299.273 62.8573C298.727 61.8401 297.862 58.3739 297.629 57.1812C297.608 57.0749 297.671 56.9702 297.769 56.948C297.865 56.926 297.964 56.993 297.985 57.0999C298.226 58.3363 299.082 61.7191 299.587 62.6594C300.163 63.7311 301.051 64.4241 301.965 64.513C302.594 64.5746 303.188 64.3514 303.692 63.9824C303.69 63.9809 303.688 63.979 303.687 63.9775C302.358 62.6604 301.863 60.8127 301.682 59.4948C301.455 57.8397 301.648 56.4654 302.257 55.4099C302.539 54.9208 302.874 54.5869 303.252 54.4179C304.22 53.9853 305.344 54.7298 305.784 55.6989C306.219 56.6557 306.177 57.7489 306.096 58.7866C305.995 60.0765 305.832 61.5575 305.172 62.8104C304.95 63.2307 304.643 63.644 304.272 63.9917C305.388 64.8894 306.823 65.1477 307.965 64.6217C308.446 64.4004 308.879 64.043 309.239 63.5836C308.782 63.2844 308.409 62.8661 308.185 62.3578C307.928 61.775 307.865 61.1329 307.835 60.5261C307.745 58.7057 307.929 56.8918 308.379 55.1352C308.395 55.0716 308.44 55.0211 308.498 55.0006C309.068 54.8004 309.644 55.1713 309.94 55.6005C310.246 56.0457 310.363 56.594 310.456 57.117C310.677 58.3545 310.889 59.9728 310.562 61.5167C310.41 62.2384 310.143 62.8959 309.789 63.4516C310.41 63.7374 311.148 63.8008 311.833 63.5712C312.203 63.4478 312.555 63.2506 312.879 62.9918C312.63 62.5787 312.454 62.1394 312.34 61.7949C311.414 59.0185 311.494 55.8679 312.559 53.151C312.579 53.0999 312.618 53.0602 312.666 53.042C313.449 52.7468 314.266 53.2706 314.669 53.9414C315.084 54.6325 315.173 55.4729 315.224 56.2062C315.313 57.4862 315.349 59.1556 314.827 60.7154C314.511 61.6606 314.004 62.4695 313.38 63.0605C313.694 63.4833 314.111 63.8322 314.641 63.8804C315.081 63.918 315.471 63.738 315.723 63.5786C316.599 63.0235 317.117 61.8329 316.956 60.7475C316.94 60.6402 317.007 60.5392 317.106 60.5219C317.206 60.5044 317.298 60.5777 317.314 60.6848C317.502 61.9442 316.923 63.2738 315.907 63.9182C315.481 64.1881 315.034 64.3106 314.611 64.2724C313.959 64.2133 313.462 63.809 313.093 63.3101C312.736 63.5944 312.348 63.8109 311.94 63.9473C311.144 64.2128 310.284 64.1256 309.567 63.771C309.161 64.3092 308.664 64.7276 308.107 64.984C307.667 65.1861 307.189 65.2841 306.7 65.2841ZM303.855 54.6832C303.699 54.6832 303.542 54.7138 303.391 54.7816C303.084 54.9189 302.807 55.2002 302.565 55.6186C302.011 56.5784 301.83 57.8989 302.041 59.4369C302.214 60.6919 302.682 62.4479 303.932 63.6869C303.95 63.7053 303.968 63.723 303.987 63.7406C304.345 63.4145 304.644 63.0182 304.856 62.615C305.481 61.4316 305.637 60.0013 305.734 58.7532C305.81 57.7705 305.852 56.7387 305.459 55.8723C305.162 55.2201 304.507 54.6832 303.855 54.6832ZM308.701 55.3504C308.282 57.0316 308.113 58.7653 308.198 60.5052C308.226 61.0717 308.283 61.6673 308.513 62.1882C308.712 62.6408 309.049 63.0113 309.461 63.2734C309.804 62.7491 310.062 62.1216 310.208 61.4286C310.52 59.9567 310.314 58.3912 310.099 57.1917C310.014 56.7131 309.91 56.2145 309.649 55.8357C309.439 55.5312 309.053 55.2826 308.701 55.3504ZM312.861 53.3889C311.863 55.9961 311.797 59.0058 312.682 61.6614C312.77 61.9263 312.929 62.3407 313.167 62.7403C313.734 62.1951 314.195 61.451 314.486 60.5813C314.984 59.0922 314.949 57.4769 314.862 56.236C314.815 55.5512 314.733 54.7693 314.365 54.156C314.06 53.6486 313.442 53.2228 312.861 53.3889Z" fill="#060633"/>
<path d="M317.578 124.47H297.965C296.532 124.47 295.371 123.212 295.371 121.66V116.793H320.172V121.66C320.172 123.212 319.011 124.47 317.578 124.47Z" fill="#424BE1"/>
<path d="M309.295 120.507C301.991 120.507 295.489 118.252 295.079 118.106C293.838 117.667 293.162 116.223 293.567 114.879C293.972 113.536 295.305 112.803 296.545 113.241C296.763 113.317 310.243 117.95 318.671 113.385C319.838 112.753 321.257 113.265 321.84 114.529C322.423 115.793 321.95 117.33 320.783 117.962C317.253 119.874 313.161 120.507 309.295 120.507Z" fill="#060633"/>
<path d="M309.295 116.349C301.991 116.349 295.489 114.093 295.079 113.948C293.838 113.509 293.162 112.065 293.567 110.721C293.972 109.378 295.305 108.644 296.545 109.083C296.763 109.159 310.243 113.792 318.671 109.227C319.838 108.595 321.257 109.107 321.84 110.371C322.423 111.635 321.95 113.172 320.783 113.804C317.253 115.716 313.161 116.349 309.295 116.349Z" fill="#424BE1"/>
<path d="M309.295 112.191C301.991 112.191 295.489 109.935 295.079 109.79C293.838 109.351 293.162 107.907 293.567 106.563C293.972 105.219 295.305 104.486 296.545 104.925C296.763 105.001 310.243 109.634 318.671 105.069C319.838 104.437 321.257 104.949 321.84 106.213C322.423 107.477 321.95 109.014 320.783 109.646C317.253 111.558 313.161 112.191 309.295 112.191Z" fill="#060633"/>
<path d="M177.174 80.6704C188.709 78.6423 196.542 66.8677 194.67 54.3711C192.798 41.8745 181.929 33.3881 170.394 35.4162C158.859 37.4443 151.025 49.2189 152.898 61.7155C154.77 74.2121 165.638 82.6985 177.174 80.6704Z" fill="#DDE7FE"/>
<path d="M173.371 76.1133C182.667 76.1133 190.203 67.9494 190.203 57.8786C190.203 47.8078 182.667 39.6438 173.371 39.6438C164.075 39.6438 156.539 47.8078 156.539 57.8786C156.539 67.9494 164.075 76.1133 173.371 76.1133Z" fill="white"/>
<path d="M173.353 59.7377C174.394 59.7377 175.238 58.8237 175.238 57.6961C175.238 56.5686 174.394 55.6545 173.353 55.6545C172.312 55.6545 171.469 56.5686 171.469 57.6961C171.469 58.8237 172.312 59.7377 173.353 59.7377Z" fill="#DDE7FE"/>
<path d="M173.352 58.1015H172.975C172.769 58.1015 172.601 57.9203 172.601 57.6964C172.601 57.4723 172.769 57.2913 172.975 57.2913H172.979L172.996 44.71L172.529 45.444C172.411 45.6284 172.178 45.6732 172.009 45.5477C171.839 45.4205 171.796 45.1681 171.914 44.9842L173.065 43.1762C173.158 43.0294 173.327 42.9661 173.484 43.0195C173.641 43.0721 173.746 43.2292 173.746 43.4066L173.726 57.697C173.726 57.9203 173.558 58.1015 173.352 58.1015Z" fill="#DDE7FE"/>
<path d="M174.642 45.5025C174.534 45.5025 174.426 45.4514 174.352 45.3534L173.08 43.662C172.95 43.4884 172.974 43.233 173.134 43.0919C173.294 42.9511 173.53 42.9764 173.66 43.15L174.932 44.8414C175.063 45.015 175.039 45.2702 174.878 45.4115C174.809 45.4727 174.725 45.5025 174.642 45.5025Z" fill="#DDE7FE"/>
<path d="M166.575 59.414C166.477 59.414 166.379 59.3724 166.306 59.2902L165.195 58.0436C165.091 57.9264 165.061 57.7532 165.12 57.6037C165.178 57.4541 165.314 57.3572 165.464 57.3572H165.465L174.24 57.3789C174.446 57.3794 174.614 57.5606 174.614 57.784V58.1923C174.614 58.4164 174.446 58.5974 174.24 58.5974C174.033 58.5974 173.866 58.4162 173.866 58.1923V58.1883L166.347 58.1697L166.844 58.7275C166.987 58.8885 166.983 59.1449 166.835 59.3003C166.762 59.3762 166.668 59.414 166.575 59.414Z" fill="#DDE7FE"/>
<path d="M165.464 58.167C165.381 58.167 165.296 58.1368 165.227 58.0756C165.067 57.9341 165.044 57.6789 165.174 57.5055L166.212 56.1276C166.345 55.954 166.58 55.9295 166.739 56.0701C166.899 56.2119 166.922 56.467 166.792 56.6404L165.754 58.0184C165.679 58.1164 165.572 58.167 165.464 58.167Z" fill="#DDE7FE"/>
<path d="M492.585 106.786H475.802C475.396 106.786 475.066 106.429 475.066 105.989V87.8072C475.066 87.367 475.396 87.0103 475.802 87.0103H492.585C492.991 87.0103 493.32 87.3668 493.32 87.8072V105.989C493.32 106.429 492.991 106.786 492.585 106.786ZM476.537 105.192H491.849V88.6041H476.537V105.192Z" fill="#7C9AF2"/>
<path d="M484.19 102.53C484.186 102.53 484.181 102.53 484.176 102.53C483.914 102.524 483.674 102.368 483.547 102.12C483.524 102.075 481.239 97.6416 478.342 94.8673C478.038 94.5759 478.009 94.0721 478.278 93.7424C478.548 93.4127 479.013 93.3819 479.317 93.6731C481.491 95.7555 483.289 98.6127 484.197 100.19C489.723 90.4302 493.792 84.8396 493.834 84.7822C494.086 84.4375 494.549 84.3792 494.868 84.6525C495.186 84.9258 495.24 85.427 494.988 85.7717C494.944 85.8306 490.613 91.7826 484.82 102.146C484.686 102.385 484.447 102.53 484.19 102.53Z" fill="#7C9AF2"/>
<path d="M459.495 78.3134H442.712C442.306 78.3134 441.977 77.9567 441.977 77.5165V59.335C441.977 58.8948 442.306 58.5381 442.712 58.5381H459.495C459.901 58.5381 460.23 58.8948 460.23 59.335V77.5165C460.23 77.9567 459.901 78.3134 459.495 78.3134ZM443.448 76.7196H458.759V60.1319H443.448V76.7196Z" fill="#7C9AF2"/>
<path d="M451.101 74.058C451.096 74.058 451.091 74.058 451.087 74.058C450.824 74.0525 450.584 73.896 450.457 73.6476C450.435 73.6032 448.149 69.1697 445.252 66.3954C444.948 66.1039 444.919 65.6002 445.188 65.2705C445.458 64.9406 445.923 64.9099 446.227 65.2012C448.401 67.2838 450.199 70.1408 451.107 71.7177C456.633 61.9583 460.702 56.3675 460.745 56.3102C460.996 55.9655 461.459 55.9072 461.778 56.1806C462.096 56.4539 462.15 56.9551 461.898 57.3C461.854 57.3589 457.524 63.3109 451.73 73.6742C451.596 73.9129 451.357 74.058 451.101 74.058Z" fill="#7C9AF2"/>
<path d="M192.539 121.65H163.375V178.741H200.726V129.504L192.539 121.65Z" fill="white"/>
<path d="M203.034 129.757H192.541C192.421 129.757 192.324 129.652 192.324 129.522V121.65C192.324 121.52 192.421 121.416 192.541 121.416C192.661 121.416 192.758 121.521 192.758 121.65V129.287H203.034C203.154 129.287 203.251 129.392 203.251 129.522C203.25 129.652 203.153 129.757 203.034 129.757Z" fill="#DDE7FE"/>
<path d="M189.359 129.291H173.779C173.659 129.291 173.562 129.186 173.562 129.056C173.562 128.926 173.659 128.821 173.779 128.821H189.359C189.479 128.821 189.576 128.926 189.576 129.056C189.576 129.186 189.479 129.291 189.359 129.291Z" fill="#7C9AF2"/>
<path d="M197.787 136.658H166.314C166.195 136.658 166.098 136.553 166.098 136.423C166.098 136.293 166.195 136.188 166.314 136.188H197.787C197.907 136.188 198.004 136.293 198.004 136.423C198.004 136.553 197.907 136.658 197.787 136.658Z" fill="#7C9AF2"/>
<path d="M197.787 139.225H166.314C166.195 139.225 166.098 139.119 166.098 138.99C166.098 138.86 166.195 138.755 166.314 138.755H197.787C197.907 138.755 198.004 138.86 198.004 138.99C198.004 139.119 197.907 139.225 197.787 139.225Z" fill="#7C9AF2"/>
<path d="M197.787 142.89H166.314C166.195 142.89 166.098 142.785 166.098 142.655C166.098 142.525 166.195 142.42 166.314 142.42H197.787C197.907 142.42 198.004 142.525 198.004 142.655C198.004 142.785 197.907 142.89 197.787 142.89Z" fill="#7C9AF2"/>
<path d="M197.787 145.457H166.314C166.195 145.457 166.098 145.352 166.098 145.222C166.098 145.092 166.195 144.987 166.314 144.987H197.787C197.907 144.987 198.004 145.092 198.004 145.222C198.004 145.352 197.907 145.457 197.787 145.457Z" fill="#7C9AF2"/>
<path d="M197.787 148.024H166.314C166.195 148.024 166.098 147.919 166.098 147.789C166.098 147.659 166.195 147.554 166.314 147.554H197.787C197.907 147.554 198.004 147.659 198.004 147.789C198.004 147.919 197.907 148.024 197.787 148.024Z" fill="#7C9AF2"/>
<path d="M197.787 150.591H166.314C166.195 150.591 166.098 150.486 166.098 150.356C166.098 150.226 166.195 150.121 166.314 150.121H197.787C197.907 150.121 198.004 150.226 198.004 150.356C198.004 150.486 197.907 150.591 197.787 150.591Z" fill="#7C9AF2"/>
<path d="M197.787 160.328H166.314C166.195 160.328 166.098 160.222 166.098 160.093C166.098 159.963 166.195 159.858 166.314 159.858H197.787C197.907 159.858 198.004 159.963 198.004 160.093C198.004 160.222 197.907 160.328 197.787 160.328Z" fill="#7C9AF2"/>
<path d="M197.787 162.895H166.314C166.195 162.895 166.098 162.79 166.098 162.66C166.098 162.53 166.195 162.425 166.314 162.425H197.787C197.907 162.425 198.004 162.53 198.004 162.66C198.004 162.79 197.907 162.895 197.787 162.895Z" fill="#7C9AF2"/>
<path d="M197.787 165.462H166.314C166.195 165.462 166.098 165.357 166.098 165.227C166.098 165.097 166.195 164.992 166.314 164.992H197.787C197.907 164.992 198.004 165.097 198.004 165.227C198.004 165.357 197.907 165.462 197.787 165.462Z" fill="#7C9AF2"/>
<path d="M197.787 168.029H166.314C166.195 168.029 166.098 167.924 166.098 167.794C166.098 167.665 166.195 167.56 166.314 167.56H197.787C197.907 167.56 198.004 167.665 198.004 167.794C198.004 167.924 197.907 168.029 197.787 168.029Z" fill="#7C9AF2"/>
</svg>
