<svg width="11" height="8" viewBox="0 0 11 8" fill="none" xmlns="http://www.w3.org/2000/svg">
<path d="M10.8536 4.03519C11.0488 3.83993 11.0488 3.52335 10.8536 3.32809L7.67157 0.146106C7.47631 -0.0491557 7.15973 -0.0491558 6.96447 0.146106C6.7692 0.341369 6.7692 0.657951 6.96447 0.853213L9.79289 3.68164L6.96447 6.51007C6.7692 6.70533 6.7692 7.02191 6.96447 7.21717C7.15973 7.41244 7.47631 7.41244 7.67157 7.21717L10.8536 4.03519ZM0.500001 3.18164C0.223859 3.18164 9.77815e-07 3.4055 9.53674e-07 3.68164C9.29533e-07 3.95778 0.223859 4.18164 0.500001 4.18164L0.500001 3.68164L0.500001 3.18164ZM10.5 3.68164L10.5 3.18164L0.500001 3.18164L0.500001 3.68164L0.500001 4.18164L10.5 4.18164L10.5 3.68164Z" fill="#E0E0E0"/>
</svg>
