<svg width="24" height="25" viewBox="0 0 24 25" fill="none" xmlns="http://www.w3.org/2000/svg">
<path d="M19.5005 4.69531H16.5005V3.19531C16.5005 2.91919 16.2766 2.69531 16.0005 2.69531C15.7244 2.69531 15.5005 2.91919 15.5005 3.19531V4.69531H8.50049V3.19531C8.50049 2.91919 8.27661 2.69531 8.00049 2.69531C7.72436 2.69531 7.50049 2.91919 7.50049 3.19531V4.69531H4.5C3.11987 4.69678 2.00146 5.81519 2 7.19531V20.1953C2.00146 21.5754 3.11987 22.6938 4.5 22.6953H19.5005C20.8807 22.694 21.9992 21.5755 22.0005 20.1953V7.19531C21.9992 5.81512 20.8807 4.69659 19.5005 4.69531ZM21.0005 20.1953C20.9996 21.0234 20.3286 21.6944 19.5005 21.6953H4.5C3.67194 21.6944 3.00092 21.0234 3 20.1953V11.6953H21.0005V20.1953ZM21.0005 10.6953H3V7.19531C3.00092 6.36725 3.67194 5.69623 4.5 5.69531H7.50049V7.19531C7.50049 7.19507 7.50049 7.1955 7.50049 7.19531C7.50067 7.47125 7.72449 7.6955 8.00049 7.69531C8.00024 7.69531 8.00067 7.69531 8.00049 7.69531C8.27643 7.69513 8.50067 7.47131 8.50049 7.19531V5.69531H15.5005V7.19531C15.5005 7.19507 15.5005 7.1955 15.5005 7.19531C15.5007 7.47125 15.7245 7.6955 16.0005 7.69531C16.0002 7.69531 16.0007 7.69531 16.0005 7.69531C16.2764 7.69513 16.5007 7.47131 16.5005 7.19531V5.69531H19.5005C20.3286 5.69623 20.9996 6.36725 21.0005 7.19531V10.6953Z" fill="#696868"/>
</svg>
