<svg width="500" height="375" viewBox="0 0 500 375" fill="none" xmlns="http://www.w3.org/2000/svg">
<path d="M140.875 206.17C140.886 206.627 140.899 207.101 140.928 207.557C141.434 218.725 143.309 229.788 146.826 240.406C147.967 243.841 149.264 247.237 150.736 250.575C155.354 260.955 162.239 270.574 170.797 278.201C175.903 282.768 181.624 286.615 187.814 289.503C206.809 298.382 224.046 290.991 243.983 290.355C258.141 289.914 272.428 290.437 286.351 293.29C300.275 296.143 313.642 301.382 325.426 309.404C338.964 318.63 345.761 331.855 357.124 342.665C360.724 346.091 366.083 349.474 373.277 351.773C376.935 353.246 380.777 354.346 384.73 354.951C388.701 355.573 392.8 355.699 397.024 355.225C416.746 353.046 434.862 340.729 447.437 325.403C460.863 309.019 470.101 290.296 475.219 270.62C478.509 258.04 480.103 245.097 480.061 232.107C479.948 204.985 472.66 177.778 458.423 153.804C417.358 84.6505 329.846 35.7809 249.067 56.1629C248.316 56.3574 247.583 56.5518 246.832 56.764C246.378 56.8631 245.907 56.9977 245.452 57.1323C243.078 57.7894 240.706 58.5335 238.37 59.33C232.252 61.4332 226.303 63.9721 220.612 66.9793C216.137 69.3583 211.825 72.015 207.696 74.9474C202.93 78.3538 198.342 81.8957 194.004 85.5899C190.56 88.4887 187.259 91.4884 184.12 94.6078C176.949 101.678 170.564 109.307 165.04 117.655C162.363 121.677 159.883 125.87 157.655 130.249C154.652 136.037 152.044 142.149 149.85 148.621C145.591 161.12 142.632 174.308 141.417 187.628C140.848 193.795 140.652 200.005 140.875 206.17Z" fill="#E3F2FD"/>
<path d="M340.299 189.719C340.299 189.719 325.373 196.696 312.967 183.615C300.56 170.535 312.773 132.164 312.773 132.164L324.598 120.827C324.598 120.827 338.554 120.391 338.748 121.917C338.943 123.442 345.726 160.941 345.726 160.941L340.299 189.719Z" fill="#2E2C41"/>
<path d="M298.043 78.967C298.043 78.967 268.974 69.6743 260.452 104.122C254.61 127.732 274.264 142.211 271.679 159.943C269.095 177.675 261.201 169.157 254.817 183.833C248.511 198.331 271.178 219.106 274.538 218.234C277.898 217.362 291.26 204.181 298.756 198.076C306.251 191.972 310.645 164.647 310.645 164.647L303.15 98.6619L298.043 78.967Z" fill="#2E2C41"/>
<path d="M334.09 147.745C334.09 147.745 331.894 162.5 333.469 171.048C335.906 184.268 341.749 203.151 341.749 203.151L307.192 223.225C307.192 223.225 294.562 203.174 294.647 202.871C294.732 202.568 292.77 175.007 292.77 175.007L334.09 147.745Z" fill="#FDB096"/>
<path d="M276.406 88.3065C276.406 88.3065 259.806 104.151 264.089 133.593C268.372 163.034 284.745 185.758 298.171 183.899C311.598 182.042 330.169 160.34 335.21 146.215C340.252 132.089 342.046 105.317 328.772 89.3067C315.498 73.2967 291.229 78.2763 276.406 88.3065Z" fill="#FDB096"/>
<path d="M290.656 165.162C290.656 165.162 298.328 172.801 303.697 163.455L290.656 165.162Z" fill="white"/>
<path d="M279.532 130.936C279.532 130.936 272.627 126.063 268.859 134.043L279.532 130.936Z" fill="#2E2C41"/>
<path d="M278.865 145.863C280.292 145.709 281.28 144.022 281.072 142.095C280.863 140.167 279.538 138.73 278.111 138.884C276.684 139.038 275.696 140.726 275.904 142.653C276.113 144.58 277.438 146.018 278.865 145.863Z" fill="#2E2C41"/>
<path d="M304.752 142.83C306.179 142.676 307.167 140.989 306.958 139.061C306.75 137.134 305.425 135.696 303.998 135.851C302.571 136.005 301.583 137.692 301.791 139.619C301.999 141.547 303.325 142.984 304.752 142.83Z" fill="#2E2C41"/>
<path d="M290.947 147.592L290.762 154.573L293.56 154.563" stroke="#2E2C41" stroke-width="0.99433" stroke-miterlimit="10" stroke-linecap="round" stroke-linejoin="round"/>
<path d="M298.961 128.462C298.961 128.462 304.667 122.229 310.05 129.22L298.961 128.462Z" fill="#2E2C41"/>
<path d="M253.734 199.219C253.734 199.219 240.165 207.404 234.134 249.189C228.104 290.974 222.288 311.651 222.288 311.651L169.734 350.42L213.747 369.913C213.747 369.913 252.873 347.189 262.351 321.343C271.828 295.497 275.274 212.142 275.274 212.142L253.734 199.219Z" fill="#407BFF"/>
<path d="M269.313 355.59C271.221 342.108 271.824 325.311 266.652 311.978C256.307 285.264 257.713 275.999 261.153 251.87C264.618 227.767 253.746 199.22 253.746 199.22L292.286 184.13C292.286 184.13 292.387 206.978 310.916 204.392C329.445 201.805 336.124 174.337 336.124 174.337C336.124 174.337 374.664 174.237 389.754 181.769C389.754 181.769 387.494 229.373 388.348 265.98C388.951 291.716 393.395 333.218 395.98 355.589L269.313 355.59Z" fill="#407BFF"/>
<path d="M266.659 311.974C256.32 285.266 257.72 276.005 261.166 251.881C261.996 246.069 261.995 240 261.515 234.136" stroke="#2E2C41" stroke-width="0.99433" stroke-miterlimit="10" stroke-linecap="round" stroke-linejoin="round"/>
<path d="M347.001 198.636C360.882 172.711 355.983 179.141 363.332 178.121C374.954 176.506 370.829 166.231 356.901 146.582C348.686 134.992 346.348 116.705 346.184 103.407C345.877 78.6044 316.789 60.2321 298.039 78.9671C298.039 78.9671 288.928 80.6385 284.922 96.1905C284.922 96.1905 301.331 122.084 325.821 126.066C344.653 129.129 334.343 143.782 332.405 157.299C330.467 170.816 342.025 207.929 347.001 198.636Z" fill="#2E2C41"/>
<path d="M334.368 147.79C342.128 145.128 346.839 126.288 341.039 123.602C335.238 120.917 333.031 127.729 333.031 127.729L334.368 147.79Z" fill="#FDB096"/>
<path d="M335.062 138.082C335.062 138.082 334.851 128.277 337.607 127.627C339.721 127.129 340.64 130.734 340.64 130.734" stroke="#2E2C41" stroke-width="0.99433" stroke-miterlimit="10" stroke-linecap="round" stroke-linejoin="round"/>
<path d="M335.66 131.308C335.66 131.308 337.134 128.432 339.104 130.385" stroke="#2E2C41" stroke-width="0.99433" stroke-miterlimit="10" stroke-linecap="round" stroke-linejoin="round"/>
<path d="M284.925 96.1906C284.925 96.1906 264.295 110.136 264.941 137.896C264.941 137.896 257.662 116.541 265.024 101.132C275.25 79.7272 296.814 79.6206 296.814 79.6206C296.814 79.6206 291.887 80.3404 284.925 96.1906Z" fill="#2E2C41"/>
<path d="M319.768 357.794L320.477 359.795C321.143 361.674 320.412 363.763 318.722 364.819L270.581 374.251H263.103L258.582 369.577L312.08 359.01L319.768 357.794Z" fill="#2E2C41"/>
<path d="M265.882 368.46L319.768 357.795L234.961 354.866L265.882 368.46Z" fill="#2E2C41"/>
<path d="M265.367 367.738L319.769 357.794" stroke="white" stroke-width="0.627708" stroke-miterlimit="10"/>
<path d="M115.398 371.364H266.401L236.691 280.285C236.109 278.502 234.446 277.296 232.571 277.296H90.684C87.7385 277.296 85.6511 280.172 86.5644 282.973L115.398 371.364Z" fill="#2E2C41"/>
<path d="M115.397 371.364L263.101 374.252L233.537 283.625C232.868 281.573 230.954 280.185 228.796 280.185H88.2838C84.8934 280.185 82.491 283.495 83.5426 286.718L115.397 371.364Z" fill="#2E2C41"/>
<path d="M171.821 337.547C176.259 336.455 178.781 331.199 177.454 325.808C176.127 320.417 171.454 316.932 167.016 318.025C162.578 319.117 160.056 324.373 161.383 329.764C162.71 335.155 167.383 338.639 171.821 337.547Z" fill="#E7E7F7"/>
<path d="M263.102 374.251L233.539 283.624C232.869 281.572 230.956 280.184 228.797 280.184H88.2852" stroke="white" stroke-width="0.627708" stroke-miterlimit="10"/>
<path d="M262.096 350.556C262.615 344.572 270.184 335.684 270.184 335.684C270.184 335.684 262.245 337.17 261.181 340.4C260.119 343.639 262.096 350.556 262.096 350.556Z" fill="#FDB096"/>
<path d="M265.164 354.353C265.164 354.353 264.175 360.718 269.628 360.988C269.628 360.988 271.62 365.074 275.856 363.878C275.856 363.878 276.474 366.667 282.611 364.39C288.738 362.107 292.606 360.491 298.603 359.66C304.608 358.827 316.324 353.513 316.324 353.513L310.601 332.106C310.601 332.106 293.54 325.593 289.877 325.799C286.206 326.008 275.327 331.872 273.536 332.859C271.748 333.855 270.182 335.683 270.182 335.683C270.182 335.683 262.613 344.571 262.094 350.555C262.094 350.555 262.176 354.707 265.164 354.353Z" fill="#FDB096"/>
<path d="M316.326 353.513L332.568 346.775L327.812 332.184L319.921 327.752L311.599 328.724L306.518 328.832L301.223 330.562L311.166 345.694L316.326 353.513Z" fill="#FDB096"/>
<path d="M265.164 354.354C265.164 354.354 271.668 346.519 275.218 343.709C278.766 340.899 287.321 336.174 287.321 336.174" stroke="#2E2C41" stroke-width="0.99433" stroke-miterlimit="10" stroke-linecap="round" stroke-linejoin="round"/>
<path d="M269.633 360.989C269.633 360.989 276.442 354.291 279.983 351.932C283.524 349.574 290.654 345.999 290.654 345.999" stroke="#2E2C41" stroke-width="0.99433" stroke-miterlimit="10" stroke-linecap="round" stroke-linejoin="round"/>
<path d="M275.863 363.881C275.863 363.881 280.287 361.222 285.269 358.735C290.251 356.248 294.348 354.768 294.348 354.768" stroke="#2E2C41" stroke-width="0.99433" stroke-miterlimit="10" stroke-linecap="round" stroke-linejoin="round"/>
<path d="M389.749 181.774C389.749 181.774 412.558 190.82 413.85 235.189C415.143 279.559 420.312 330.389 400.496 341.159C380.68 351.929 309.995 356.364 309.995 356.364C309.995 356.364 320.502 329.314 304.133 329.529L371.549 303.898C371.549 303.898 372.945 248.841 371.656 231.529C369.395 201.158 383.288 182.42 389.749 181.774Z" fill="#407BFF"/>
<path d="M304.133 329.528L371.549 303.897C371.549 303.897 372.945 248.84 371.656 231.528" stroke="#2E2C41" stroke-width="0.99433" stroke-miterlimit="10" stroke-linecap="round" stroke-linejoin="round"/>
<path d="M371.551 303.896C371.551 303.896 386.843 301.958 393.305 307.773" stroke="#2E2C41" stroke-width="0.99433" stroke-miterlimit="10" stroke-linecap="round" stroke-linejoin="round"/>
<path d="M298.039 78.967C298.039 78.967 287.249 86.5238 284.922 96.1904" stroke="#2E2C41" stroke-width="0.99433" stroke-miterlimit="10" stroke-linecap="round" stroke-linejoin="round"/>
<path d="M2.45661 165.705H162.354C163.711 165.705 164.811 166.805 164.811 168.162V234.515C164.811 235.872 163.711 236.973 162.354 236.973H155.445V249.003L133.584 236.973H2.45661C1.10024 236.973 0 235.872 0 234.515V168.162C0 166.805 1.10024 165.705 2.45661 165.705Z" fill="#2E2C41"/>
<path d="M6.11677 159.805H166.014C167.371 159.805 168.471 160.905 168.471 162.263V228.616C168.471 229.973 167.371 231.073 166.014 231.073H159.105V243.104L137.244 231.073H6.11677C4.7604 231.073 3.66016 229.973 3.66016 228.616V162.263C3.65922 160.905 4.7604 159.805 6.11677 159.805Z" fill="white" stroke="#2E2C41" stroke-width="1.1538" stroke-miterlimit="10"/>
<path d="M238.459 96.1484H78.5621C77.2057 96.1484 76.1055 97.2487 76.1055 98.606V164.959C76.1055 166.316 77.2057 167.416 78.5621 167.416H85.4711V179.447L107.333 167.416H238.461C239.817 167.416 240.917 166.316 240.917 164.959V98.606C240.916 97.2487 239.816 96.1484 238.459 96.1484Z" fill="#2E2C41"/>
<path d="M242.343 90.4724H82.4449C81.0885 90.4724 79.9883 91.5727 79.9883 92.93V159.283C79.9883 160.64 81.0885 161.74 82.4449 161.74H89.3539V173.771L111.216 161.74H242.344C243.7 161.74 244.8 160.64 244.8 159.283V92.93C244.799 91.5727 243.699 90.4724 242.343 90.4724Z" fill="white" stroke="#2E2C41" stroke-width="1.1538" stroke-miterlimit="10"/>
<path d="M211.678 146.152C222.193 146.152 230.716 137.628 230.716 127.114C230.716 116.6 222.193 108.076 211.678 108.076C201.164 108.076 192.641 116.6 192.641 127.114C192.641 137.628 201.164 146.152 211.678 146.152Z" fill="#407BFF"/>
<path d="M211.679 126.451C214.151 126.451 216.155 124.447 216.155 121.975C216.155 119.504 214.151 117.5 211.679 117.5C209.207 117.5 207.203 119.504 207.203 121.975C207.203 124.447 209.207 126.451 211.679 126.451Z" fill="white"/>
<path d="M204.602 136.728H218.764V130.69C218.764 129.746 217.998 128.98 217.054 128.98H206.312C205.368 128.98 204.603 129.746 204.603 130.69V136.728H204.602Z" fill="white"/>
<path d="M171.334 113.597H94.0508" stroke="#407BFF" stroke-width="1.28626" stroke-miterlimit="10"/>
<path d="M171.334 127.114H94.0508" stroke="#407BFF" stroke-width="1.28626" stroke-miterlimit="10"/>
<path d="M141.227 140.631H94.793" stroke="#407BFF" stroke-width="1.28626" stroke-miterlimit="10"/>
<path d="M34.5339 217.075C45.0482 217.075 53.5717 208.551 53.5717 198.037C53.5717 187.523 45.0482 178.999 34.5339 178.999C24.0196 178.999 15.4961 187.523 15.4961 198.037C15.4961 208.551 24.0196 217.075 34.5339 217.075Z" fill="#407BFF"/>
<path d="M34.5304 197.374C37.0023 197.374 39.0062 195.37 39.0062 192.898C39.0062 190.426 37.0023 188.423 34.5304 188.423C32.0585 188.423 30.0547 190.426 30.0547 192.898C30.0547 195.37 32.0585 197.374 34.5304 197.374Z" fill="white"/>
<path d="M41.6151 207.65H27.4531V201.611C27.4531 200.667 28.2187 199.902 29.1628 199.902H39.9044C40.8486 199.902 41.6142 200.667 41.6142 201.611L41.6151 207.65Z" fill="white"/>
<path d="M74.8828 184.52H152.166" stroke="#407BFF" stroke-width="1.28626" stroke-miterlimit="10"/>
<path d="M74.8828 198.037H152.166" stroke="#407BFF" stroke-width="1.28626" stroke-miterlimit="10"/>
<path d="M74.8828 211.553H121.316" stroke="#407BFF" stroke-width="1.28626" stroke-miterlimit="10"/>
<path d="M469.665 315.607C486.419 315.607 500.001 302.025 500.001 285.27C500.001 268.516 486.419 254.934 469.665 254.934C452.91 254.934 439.328 268.516 439.328 285.27C439.328 302.025 452.91 315.607 469.665 315.607Z" fill="#407BFF"/>
<path d="M455.528 270.674C455.543 270.66 455.559 270.651 455.579 270.638C456.161 270.221 456.695 269.757 457.201 269.304L457.391 269.14C457.692 268.877 457.971 268.63 458.289 268.38C459.735 267.205 461.367 267.353 462.552 268.767L466.576 273.5C467.156 274.138 467.443 274.894 467.381 275.643C467.32 276.386 466.925 277.084 466.239 277.667L463.294 280.163C463.202 280.247 463.103 280.342 463.093 280.462C463.091 280.485 463.087 280.538 463.13 280.659C463.139 280.679 463.148 280.694 463.158 280.713C463.295 280.993 463.421 281.297 463.546 281.613C463.66 281.899 463.789 282.222 463.946 282.517C465.286 285.077 467.116 287.456 469.551 289.777C469.558 289.785 469.563 289.793 469.568 289.801C470.904 291.032 472.029 291.86 473.205 292.465L473.215 292.47C473.478 292.579 473.54 292.585 473.746 292.413C473.751 292.407 473.756 292.404 473.762 292.399C474.429 291.766 475.096 291.194 475.89 290.537C476.057 290.39 476.225 290.247 476.397 290.103L476.633 289.91C478.079 288.685 479.671 288.815 480.898 290.257L482.882 292.592C483.003 292.734 483.13 292.872 483.247 293.019C483.365 293.15 483.478 293.278 483.593 293.407C484.099 293.989 484.518 294.478 484.93 294.992L484.936 294.999C485.494 295.659 485.757 296.395 485.696 297.136C485.637 297.859 485.263 298.553 484.617 299.139C484.606 299.15 484.598 299.155 484.587 299.168L481.652 301.662C480.713 302.454 479.61 302.864 478.374 302.87C476.697 302.873 475.014 302.434 472.925 301.449C469.641 299.921 466.645 297.778 463.491 294.696C459.705 290.961 456.834 286.61 454.952 281.744C454.256 279.926 453.465 277.508 453.51 274.902C453.515 274.76 453.526 274.602 453.538 274.461C453.67 272.875 454.321 271.635 455.528 270.674Z" fill="white"/>
<path d="M462.762 212.12C479.517 212.12 493.099 198.538 493.099 181.784C493.099 165.029 479.517 151.447 462.762 151.447C446.008 151.447 432.426 165.029 432.426 181.784C432.426 198.538 446.008 212.12 462.762 212.12Z" fill="#407BFF"/>
<path d="M476.998 192.499H448.525C447.447 192.499 446.574 191.626 446.574 190.548V173.017C446.574 171.94 447.447 171.066 448.525 171.066H476.998C478.075 171.066 478.949 171.94 478.949 173.017V190.548C478.949 191.626 478.076 192.499 476.998 192.499Z" fill="white"/>
<path d="M476.68 172.72L462.764 182.846L448.848 172.72" stroke="#2E2C41" stroke-width="0.564143" stroke-miterlimit="10" stroke-linecap="round" stroke-linejoin="round"/>
<path d="M294.34 15.898C294.34 15.898 301.713 15.0885 300.248 3.78042C300.248 3.78042 305.101 2.76244 305.767 6.78669C306.431 10.8119 306.242 14.465 306.242 14.465L317.952 13.3246C320.438 13.0825 322.685 14.823 323.055 17.2927C323.988 23.5165 324.861 34.3479 320.026 36.0698C313.175 38.5095 307.287 38.2422 305.884 37.8337C304.481 37.4252 298.954 37.1232 296.388 37.3728L294.34 15.898Z" fill="#407BFF"/>
<path d="M295.791 38.0216L289.441 38.6405C288.833 38.6994 288.292 38.2544 288.233 37.6459L286.224 17.0273C286.165 16.4188 286.61 15.8775 287.219 15.8186L293.568 15.1998C294.176 15.1409 294.717 15.5859 294.776 16.1944L296.785 36.813C296.844 37.4215 296.399 37.9627 295.791 38.0216Z" fill="#1951CF"/>
<path d="M198.856 26.2987C202.57 28.2372 205.03 30.7579 206.237 33.8611C207.479 36.9824 207.176 40.3132 205.328 43.8535C203.625 47.1162 201.217 49.1057 198.105 49.8221C195.046 50.5219 191.755 49.9743 188.231 48.1792L185.932 51.9482L178.123 47.872L182.917 38.0523L186.041 39.6827C188.713 41.0777 190.916 41.8077 192.649 41.8729C194.416 41.9562 195.752 41.1301 196.658 39.3946C197.292 38.1798 197.461 37.0532 197.164 36.0148C196.866 34.9764 196.128 34.1493 194.948 33.5333C193.698 32.8811 192.536 32.7383 191.461 33.1049C190.405 33.4368 189.56 34.2101 188.926 35.4249L180.543 31.0499C181.579 28.8964 183.009 27.2138 184.834 26.0022C186.694 24.8087 188.814 24.2152 191.196 24.2216C193.63 24.2114 196.184 24.9038 198.856 26.2987ZM175.066 63.501C173.505 62.6858 172.456 61.5643 171.92 60.1365C171.438 58.6921 171.549 57.293 172.256 55.9394C172.981 54.551 174.073 53.6419 175.534 53.212C177.03 52.8002 178.559 53.0019 180.121 53.8172C181.648 54.6143 182.653 55.735 183.136 57.1794C183.653 58.6419 183.55 60.0674 182.825 61.4557C182.118 62.8094 181.017 63.6921 179.522 64.1039C178.079 64.4991 176.594 64.2981 175.066 63.501Z" fill="#E7E7F7"/>
<path d="M411.145 130.991C427.9 130.991 441.482 117.409 441.482 100.655C441.482 83.9005 427.9 70.3184 411.145 70.3184C394.391 70.3184 380.809 83.9005 380.809 100.655C380.809 117.409 394.391 130.991 411.145 130.991Z" fill="#407BFF"/>
<path d="M412.004 121.416C400.523 121.416 391.184 112.075 391.184 100.595C391.184 94.132 394.11 88.1437 399.211 84.1662L401.492 87.0912C397.298 90.3611 394.893 95.2827 394.893 100.595C394.893 110.031 402.568 117.707 412.004 117.707C421.44 117.707 429.117 110.031 429.117 100.595C429.117 91.1594 421.44 83.4829 412.004 83.4829V79.7737C423.485 79.7737 432.826 89.115 432.826 100.595C432.826 112.075 423.485 121.416 412.004 121.416Z" fill="white"/>
<path d="M406.172 81.5685L412.47 76.8796V86.2565L406.172 81.5685Z" fill="white"/>
<path d="M402.297 104.929C405.065 102.643 408.012 100.375 408.012 98.1787C408.012 97.2327 407.583 96.6251 406.653 96.6251C405.742 96.6251 405.208 97.3393 405.208 98.5723H402.262C402.351 95.4108 404.404 94.0544 406.779 94.0544C409.744 94.0544 411.064 95.7866 411.064 97.9824C411.064 100.839 408.512 103.125 406.44 104.715H411.262V107.197H402.298L402.297 104.929Z" fill="white"/>
<path d="M418.672 105.054H412.672V102.589L418.315 94.5181H421.725V102.411H423.188V105.055H421.725V107.376H418.671L418.672 105.054ZM418.886 102.41V97.8758L415.888 102.41H418.886Z" fill="white"/>
<path d="M337.8 148.974C343.686 148.31 347.703 141.076 346.772 132.814C345.841 124.553 340.314 118.394 334.428 119.058C328.541 119.721 324.524 126.956 325.455 135.217C326.387 143.478 331.913 149.637 337.8 148.974Z" fill="#5D56D5"/>
<path d="M339.753 145.456C344.358 144.937 347.5 139.277 346.772 132.814C346.043 126.352 341.72 121.534 337.115 122.053C332.51 122.572 329.368 128.232 330.096 134.694C330.825 141.156 335.148 145.975 339.753 145.456Z" fill="white"/>
<path d="M338.276 132.599C338.276 132.599 311.217 79.3336 287.57 77.9931C287.57 77.9931 296.346 73.6053 302.075 75.9207C307.805 78.2362 327.185 97.4544 342.054 128.332" fill="#E7E7F7"/>
<path d="M339.213 134.833C339.213 134.833 330.275 160.023 307.359 168.636" stroke="#2E2C41" stroke-width="1.25542" stroke-miterlimit="10"/>
<path d="M341.974 138.922C344.242 138.666 345.79 135.877 345.431 132.693C345.072 129.509 342.943 127.135 340.674 127.39C338.405 127.646 336.857 130.435 337.216 133.619C337.575 136.803 339.705 139.177 341.974 138.922Z" fill="#E7E7F7"/>
<path d="M305.494 173.576C308.514 172.681 310.466 170.281 309.854 168.215C309.241 166.15 306.297 165.201 303.277 166.096C300.257 166.991 298.305 169.391 298.917 171.457C299.529 173.523 302.474 174.471 305.494 173.576Z" fill="#5D56D5"/>
</svg>
