<svg width="27" height="27" viewBox="0 0 27 27" fill="none" xmlns="http://www.w3.org/2000/svg">
<g clip-path="url(#clip0_216_103)">
<path d="M13.3538 26.2614C20.6167 26.2614 26.5045 20.3826 26.5045 13.1307C26.5045 5.87881 20.6167 0 13.3538 0C6.0909 0 0.203125 5.87881 0.203125 13.1307C0.203125 20.3826 6.0909 26.2614 13.3538 26.2614Z" fill="white"/>
<mask id="mask0_216_103" style="mask-type:luminance" maskUnits="userSpaceOnUse" x="4" y="4" width="19" height="19">
<path d="M21.8773 11.5907H13.5567V15.0355H18.3461C17.8996 17.224 16.0326 18.4803 13.5567 18.4803C10.6343 18.4803 8.28017 16.1297 8.28017 13.2118C8.28017 10.2939 10.6343 7.94331 13.5567 7.94331C14.8149 7.94331 15.9514 8.38912 16.8443 9.1186L19.442 6.52488C17.8591 5.14696 15.8296 4.2959 13.5567 4.2959C8.60487 4.2959 4.6272 8.26753 4.6272 13.2118C4.6272 18.1561 8.60487 22.1277 13.5567 22.1277C18.0214 22.1277 22.0803 18.8856 22.0803 13.2118C22.0803 12.685 21.9991 12.1176 21.8773 11.5907Z" fill="white"/>
</mask>
<g mask="url(#mask0_216_103)">
<path d="M3.81519 18.4803V7.94336L10.7152 13.2118L3.81519 18.4803Z" fill="#FBBC05"/>
</g>
<mask id="mask1_216_103" style="mask-type:luminance" maskUnits="userSpaceOnUse" x="4" y="4" width="19" height="19">
<path d="M21.8773 11.5907H13.5567V15.0355H18.3461C17.8996 17.224 16.0326 18.4803 13.5567 18.4803C10.6343 18.4803 8.28017 16.1297 8.28017 13.2118C8.28017 10.2939 10.6343 7.94331 13.5567 7.94331C14.8149 7.94331 15.9514 8.38912 16.8443 9.1186L19.442 6.52488C17.8591 5.14696 15.8296 4.2959 13.5567 4.2959C8.60487 4.2959 4.6272 8.26753 4.6272 13.2118C4.6272 18.1561 8.60487 22.1277 13.5567 22.1277C18.0214 22.1277 22.0803 18.8856 22.0803 13.2118C22.0803 12.685 21.9991 12.1176 21.8773 11.5907Z" fill="white"/>
</mask>
<g mask="url(#mask1_216_103)">
<path d="M3.81519 7.94331L10.7152 13.2118L13.5564 10.7397L23.2977 9.15911V3.48535H3.81519V7.94331Z" fill="#EA4335"/>
</g>
<mask id="mask2_216_103" style="mask-type:luminance" maskUnits="userSpaceOnUse" x="4" y="4" width="19" height="19">
<path d="M21.8773 11.5907H13.5567V15.0355H18.3461C17.8996 17.224 16.0326 18.4803 13.5567 18.4803C10.6343 18.4803 8.28017 16.1297 8.28017 13.2118C8.28017 10.2939 10.6343 7.94331 13.5567 7.94331C14.8149 7.94331 15.9514 8.38912 16.8443 9.1186L19.442 6.52488C17.8591 5.14696 15.8296 4.2959 13.5567 4.2959C8.60487 4.2959 4.6272 8.26753 4.6272 13.2118C4.6272 18.1561 8.60487 22.1277 13.5567 22.1277C18.0214 22.1277 22.0803 18.8856 22.0803 13.2118C22.0803 12.685 21.9991 12.1176 21.8773 11.5907Z" fill="white"/>
</mask>
<g mask="url(#mask2_216_103)">
<path d="M3.81519 18.4803L15.9917 9.15911L19.1982 9.56438L23.2977 3.48535V22.9382H3.81519V18.4803Z" fill="#34A853"/>
</g>
<mask id="mask3_216_103" style="mask-type:luminance" maskUnits="userSpaceOnUse" x="4" y="4" width="19" height="19">
<path d="M21.8773 11.5907H13.5567V15.0355H18.3461C17.8996 17.224 16.0326 18.4803 13.5567 18.4803C10.6343 18.4803 8.28017 16.1297 8.28017 13.2118C8.28017 10.2939 10.6343 7.94331 13.5567 7.94331C14.8149 7.94331 15.9514 8.38912 16.8443 9.1186L19.442 6.52488C17.8591 5.14696 15.8296 4.2959 13.5567 4.2959C8.60487 4.2959 4.6272 8.26753 4.6272 13.2118C4.6272 18.1561 8.60487 22.1277 13.5567 22.1277C18.0214 22.1277 22.0803 18.8856 22.0803 13.2118C22.0803 12.685 21.9991 12.1176 21.8773 11.5907Z" fill="white"/>
</mask>
<g mask="url(#mask3_216_103)">
<path d="M23.298 22.9383L10.7156 13.2118L9.09204 11.996L23.298 7.94336V22.9383Z" fill="#4285F4"/>
</g>
</g>
<defs>
<clipPath id="clip0_216_103">
<rect width="26.6464" height="26.687" fill="white"/>
</clipPath>
</defs>
</svg>
