<svg width="651" height="364" viewBox="0 0 651 364" fill="none" xmlns="http://www.w3.org/2000/svg">
<path opacity="0.5" d="M34.4035 288.046C30.5065 274.279 -5.45793 139.007 85.7559 58.7753C133.712 16.5927 215.22 -8.96541 264.759 18.7C283.934 29.4085 295.459 46.4936 321.755 48.0886C348.603 49.7171 353.602 33.1651 386.766 24.9339C440.061 11.7063 490.684 38.8623 507.883 48.0886C519.151 54.1332 536.925 63.8477 554.192 81.93C619.78 150.612 601.105 259.295 596.049 287.65C590.2 320.454 580.414 346.093 573.487 361.901C405.597 361.847 237.707 361.794 69.8175 361.74C58.7338 346.05 43.7803 321.173 34.4035 288.046Z" fill="#3368AD"/>
<path d="M162.994 39.7386C164.073 38.6529 163.196 35.0329 163.196 35.0329L165.739 32.1464C165.739 32.1464 165.468 36.3113 167.966 35.0967L167.645 35.2337C169.122 34.8328 170.173 31.2595 170.173 31.2595L173.818 30.0308C173.818 30.0308 171.502 33.5027 174.272 33.6993L173.926 33.6576C175.405 34.049 178.102 31.4799 178.102 31.4799L181.873 32.2382C181.873 32.2382 178.131 34.0866 180.432 35.642L180.153 35.433C181.238 36.5118 184.858 35.6352 184.858 35.6352L187.745 38.1775C187.745 38.1775 183.58 37.9073 184.795 40.4045L184.658 40.0841C185.059 41.5612 188.632 42.6122 188.632 42.6122L189.861 46.2571C189.861 46.2571 186.389 43.9405 186.192 46.7106L186.234 46.3647C185.842 47.8444 188.411 50.5411 188.411 50.5411L187.653 54.3121C187.653 54.3121 185.805 50.57 184.249 52.8706L184.458 52.5917C183.38 53.6774 184.256 57.2973 184.256 57.2973L181.714 60.1839C181.714 60.1839 181.984 56.0189 179.487 57.2336L179.807 57.0966C178.33 57.4975 177.279 61.0708 177.279 61.0708L173.634 62.2995C173.634 62.2995 175.951 58.8276 173.181 58.631L173.527 58.6726C172.047 58.2812 169.35 60.8504 169.35 60.8504L165.579 60.092C165.579 60.092 169.321 58.2435 167.021 56.6883L167.3 56.8973C166.214 55.8186 162.594 56.6951 162.594 56.6951L159.707 54.1528C159.707 54.1528 163.872 54.423 162.658 51.9257L162.795 52.2462C162.394 50.7691 158.821 49.7181 158.821 49.7181L157.592 46.0732C157.592 46.0732 161.064 48.3898 161.26 45.6197L161.219 45.9656C161.61 44.4859 159.041 41.7892 159.041 41.7892L159.799 38.0182C159.799 38.0182 161.648 41.7603 163.203 39.4597L162.994 39.7386Z" fill="url(#paint0_linear_2048_39929)"/>
<path d="M182.181 54.5481C186.76 49.9695 186.76 42.5461 182.181 37.9675C177.603 33.3889 170.179 33.3889 165.601 37.9675C161.022 42.5461 161.022 49.9695 165.601 54.5481C170.179 59.1267 177.603 59.1267 182.181 54.5481Z" fill="#DEE4FC"/>
<path d="M173.892 49.5257C175.697 49.5257 177.16 48.0624 177.16 46.2572C177.16 44.4521 175.697 42.9888 173.892 42.9888C172.086 42.9888 170.623 44.4521 170.623 46.2572C170.623 48.0624 172.086 49.5257 173.892 49.5257Z" fill="white"/>
<path d="M305.791 28.2673V24.6206H303.077C302.857 23.6885 302.472 22.8196 301.954 22.0462L303.764 20.2362L301.186 17.6575L299.286 19.5571C298.661 19.1995 297.984 18.9248 297.268 18.7473V16.0977H293.621V18.7071C292.791 18.8936 292.009 19.2106 291.299 19.6357L289.321 17.6577L286.743 20.2363L288.68 22.1741C288.205 22.915 287.85 23.7398 287.642 24.6209H285.098V28.2676H287.642C287.834 29.0818 288.152 29.8481 288.575 30.5444L286.742 32.3764L289.321 34.955L291.129 33.1476C291.883 33.6256 292.723 33.9795 293.621 34.1812V36.7907H297.268V34.141C298.05 33.947 298.788 33.6367 299.46 33.229L301.186 34.955L303.764 32.3764L302.063 30.675C302.526 29.9442 302.873 29.133 303.077 28.2674L305.791 28.2673ZM295.36 31.0661C292.807 31.0661 290.738 28.9967 290.738 26.444C290.738 23.8914 292.807 21.8221 295.36 21.8221C297.912 21.8221 299.982 23.8914 299.982 26.444C299.982 28.9966 297.912 31.0661 295.36 31.0661Z" fill="#DEE4FC"/>
<path d="M281 110.874V100.124H273C272.351 97.3768 271.216 94.8153 269.691 92.5353L275.026 87.1998L267.425 79.5983L261.825 85.1979C259.984 84.1437 257.985 83.334 255.875 82.8107V75H245.125V82.6923C242.677 83.242 240.374 84.1765 238.281 85.4295L232.45 79.5987L224.849 87.2002L230.561 92.9126C229.16 95.0965 228.113 97.5281 227.5 100.125H220V110.875H227.5C228.067 113.276 229.004 115.534 230.249 117.587L224.849 122.987L232.45 130.589L237.778 125.261C240.002 126.67 242.479 127.713 245.125 128.308V136H255.875V128.189C258.182 127.617 260.355 126.703 262.336 125.501L267.425 130.589L275.026 122.987L270.01 117.972C271.375 115.818 272.397 113.426 273 110.875L281 110.874ZM250.25 119.125C242.726 119.125 236.626 113.025 236.626 105.5C236.626 97.9749 242.726 91.8748 250.25 91.8748C257.775 91.8748 263.875 97.9749 263.875 105.5C263.875 113.024 257.775 119.125 250.25 119.125Z" fill="#DEE4FC"/>
<path d="M347.769 178.093V174.446H345.055C344.835 173.514 344.45 172.645 343.933 171.871L345.743 170.061L343.164 167.483L341.265 169.382C340.64 169.025 339.962 168.75 339.246 168.572V165.923H335.599V168.532C334.769 168.719 333.988 169.036 333.277 169.461L331.299 167.483L328.721 170.062L330.659 171.999C330.184 172.74 329.828 173.565 329.62 174.446H327.076V178.093H329.62C329.812 178.907 330.13 179.673 330.553 180.37L328.721 182.202L331.299 184.78L333.107 182.973C333.861 183.451 334.702 183.805 335.599 184.006V186.616H339.246V183.966C340.029 183.772 340.766 183.462 341.438 183.054L343.164 184.78L345.743 182.201L344.041 180.5C344.504 179.769 344.851 178.958 345.055 178.093H347.769ZM337.338 180.891C334.785 180.891 332.716 178.822 332.716 176.269C332.716 173.717 334.785 171.647 337.338 171.647C339.89 171.647 341.96 173.717 341.96 176.269C341.96 178.822 339.89 180.891 337.338 180.891Z" fill="white"/>
<path d="M63.1495 197.937V193.547H59.882C59.6169 192.424 59.1532 191.378 58.5301 190.447L60.7095 188.267L57.6047 185.163L55.3176 187.45C54.5653 187.019 53.7492 186.688 52.8873 186.475V183.284H48.4965V186.426C47.4967 186.651 46.5558 187.033 45.7011 187.544L43.3195 185.163L40.2147 188.267L42.548 190.601C41.9757 191.493 41.548 192.486 41.2975 193.547H38.2344V197.937H41.2975C41.5292 198.918 41.912 199.84 42.4205 200.679L40.2147 202.885L43.3195 205.989L45.4957 203.813C46.4042 204.389 47.4161 204.815 48.4966 205.058V208.2H52.8874V205.009C53.8298 204.776 54.7175 204.402 55.5267 203.911L57.6049 205.989L60.7097 202.885L58.6611 200.836C59.2185 199.956 59.6359 198.98 59.8821 197.937H63.1495ZM50.5898 201.307C47.5164 201.307 45.0248 198.815 45.0248 195.742C45.0248 192.668 47.5164 190.177 50.5898 190.177C53.6633 190.177 56.1549 192.668 56.1549 195.742C56.1549 198.815 53.6633 201.307 50.5898 201.307Z" fill="#DEE4FC"/>
<path d="M457.766 44.9453V41.9066H455.505C455.322 41.13 455.001 40.4058 454.57 39.7614L456.078 38.2531L453.929 36.1044L452.346 37.6872C451.826 37.3892 451.261 37.1604 450.664 37.0123V34.8044H447.626V36.9788C446.934 37.1342 446.283 37.3984 445.691 37.7525L444.043 36.1043L441.894 38.253L443.509 39.8677C443.113 40.4851 442.817 41.1723 442.643 41.9065H440.523V44.9452H442.643C442.804 45.6238 443.069 46.2621 443.421 46.8424L441.894 48.3691L444.043 50.5178L445.549 49.0118C446.177 49.4101 446.878 49.705 447.625 49.873V52.0474H450.664V49.8395C451.316 49.6777 451.931 49.4193 452.491 49.0795L453.929 50.5178L456.078 48.3691L454.66 46.9514C455.046 46.3425 455.335 45.6665 455.505 44.9453H457.766ZM449.074 47.2774C446.947 47.2774 445.223 45.5531 445.223 43.4261C445.223 41.2991 446.947 39.5747 449.074 39.5747C451.201 39.5747 452.926 41.2991 452.926 43.4261C452.926 45.5531 451.201 47.2774 449.074 47.2774Z" fill="#F3C279"/>
<path d="M386.209 40.2157C375.382 40.2157 366.574 31.4077 366.574 20.581C366.574 9.75436 375.382 0.946289 386.209 0.946289C397.036 0.946289 405.844 9.75436 405.844 20.581C405.844 31.4077 397.036 40.2157 386.209 40.2157ZM386.209 3.08822C376.563 3.08822 368.716 10.9355 368.716 20.581C368.716 30.2266 376.563 38.0737 386.209 38.0737C395.854 38.0737 403.702 30.2264 403.702 20.581C403.702 10.9355 395.854 3.08822 386.209 3.08822Z" fill="white"/>
<path d="M299.761 331.756C293.987 331.756 289.289 327.059 289.289 321.284C289.289 315.51 293.987 310.812 299.761 310.812C305.535 310.812 310.233 315.51 310.233 321.284C310.233 327.059 305.535 331.756 299.761 331.756ZM299.761 312.954C295.168 312.954 291.431 316.691 291.431 321.284C291.431 325.878 295.168 329.614 299.761 329.614C304.354 329.614 308.091 325.878 308.091 321.284C308.091 316.691 304.354 312.954 299.761 312.954Z" fill="white"/>
<path d="M25.8922 301.044C11.6497 301.044 0.0625 289.456 0.0625 275.214C0.0625 260.971 11.6497 249.384 25.8922 249.384C40.1347 249.384 51.7218 260.971 51.7218 275.214C51.7218 289.456 40.1347 301.044 25.8922 301.044ZM25.8922 254.668C14.5629 254.668 5.34588 263.885 5.34588 275.214C5.34588 286.543 14.563 295.76 25.8922 295.76C37.2215 295.76 46.4385 286.543 46.4385 275.214C46.4386 263.885 37.2215 254.668 25.8922 254.668Z" fill="white"/>
<path d="M37.1064 318.716C37.1064 318.716 45.2503 326.772 42.9976 334.758C43.1575 334.358 28.8748 314.812 18.4883 316.394C18.9478 316.273 29.9022 311.545 37.1064 318.716Z" fill="#191C4A"/>
<path d="M10.4364 315.88C14.7554 312.49 20.3353 311.898 25.7439 312.852C32.9669 314.126 37.107 318.716 37.107 318.716C30.6223 317.829 24.1799 318.973 18.6576 320.731C17.2716 319.994 16.0626 319.157 16.0626 319.157L16.6043 321.426C8.64226 324.279 3.03114 328.12 2.79297 328.07C3.89196 322.375 7.14252 318.465 10.4364 315.88Z" fill="#FAAA33"/>
<path d="M43.1177 363.082C43.1056 363.082 43.0935 363.081 43.0813 363.079C42.9433 363.059 42.8476 362.931 42.8676 362.793C44.9125 348.633 43.7125 338.812 42.3458 333.067C40.8658 326.846 38.8775 323.933 38.8576 323.904C38.7782 323.79 38.8064 323.632 38.9208 323.553C39.0353 323.474 39.1925 323.502 39.272 323.616C39.3551 323.735 41.3237 326.612 42.8277 332.911C44.2106 338.704 45.4268 348.603 43.3673 362.866C43.3491 362.991 43.241 363.082 43.1177 363.082Z" fill="#10171B"/>
<path d="M2.79311 328.323C2.74507 328.323 2.69675 328.309 2.65373 328.281C2.5377 328.204 2.50608 328.047 2.58316 327.931C7.79068 320.091 15.0321 316.723 20.1901 315.278C25.776 313.713 30.1985 314.006 30.2425 314.009C30.3815 314.019 30.4861 314.14 30.4763 314.278C30.4664 314.417 30.3473 314.52 30.2067 314.512C30.1635 314.51 25.813 314.224 20.3082 315.769C15.2385 317.192 8.121 320.506 3.00373 328.21C2.95501 328.283 2.87481 328.323 2.79311 328.323Z" fill="#10171B"/>
<path d="M42.5906 278.902L38.0794 279.564L39.7934 277.049C35.453 274.972 28.6191 274.649 18.0332 277.675C18.7016 277.53 41.885 281.342 45.104 300.886C45.104 300.886 50.3359 285.856 42.5906 278.902Z" fill="#191C4A"/>
<path d="M50.2098 362.582C50.0723 362.582 49.9553 362.477 49.9435 362.337C49.1876 353.511 48.4317 344.684 47.6744 335.859C47.6741 335.856 47.674 335.854 47.6739 335.851C46.667 324.094 45.6603 312.336 44.6521 300.581L44.5383 299.245C44.5247 299.098 44.633 298.968 44.7802 298.954C44.9276 298.94 45.0578 299.049 45.0713 299.196L45.1855 300.535C46.1938 312.293 47.2008 324.052 48.2078 335.812C48.2079 335.814 48.2082 335.817 48.2083 335.819C48.9654 344.643 49.7212 353.467 50.4768 362.292C50.4895 362.439 50.3804 362.568 50.2331 362.581C50.2251 362.582 50.2174 362.582 50.2098 362.582Z" fill="#10171B"/>
<path d="M45.1034 300.886C45.1034 300.886 33.3569 279.057 10.8691 280.181C11.3443 280.076 39.1546 265.074 45.1034 300.886Z" fill="#FAAA33"/>
<path d="M59.1835 292.824L63.7183 293.298L61.9008 290.857C66.1508 288.601 72.9654 287.993 83.6683 290.574C82.9945 290.458 59.9902 295.233 57.5893 314.894C57.5893 314.894 51.7348 300.096 59.1835 292.824Z" fill="#191C4A"/>
<path d="M55.6566 362.821C55.6526 362.821 55.6486 362.821 55.6446 362.821C55.497 362.814 55.3824 362.689 55.3889 362.542L57.5526 313.206C57.559 313.058 57.6846 312.943 57.8317 312.95C57.9794 312.957 58.0939 313.082 58.0874 313.229L55.9238 362.565C55.9174 362.709 55.7989 362.821 55.6566 362.821Z" fill="#10171B"/>
<path d="M57.5898 314.894C57.5898 314.894 68.4155 292.594 90.9307 292.779C90.4515 292.694 62.0395 278.865 57.5898 314.894Z" fill="#FAAA33"/>
<path d="M33.7314 298.318L31.3058 299.815L31.2332 296.336C26.2286 292.682 21.7383 291.143 21.7383 291.143C23.0522 301.964 26.3989 309.304 30.1322 314.29C31.803 313.555 33.6432 312.789 33.6432 312.789L31.844 316.391C37.9467 323.274 44.4032 324.56 44.4642 324.866C45.7714 312.106 39.8543 303.597 33.7314 298.318Z" fill="#DEE4FC"/>
<path d="M44.4629 324.878C44.4648 324.874 44.4651 324.87 44.4641 324.865C44.4637 324.87 44.4633 324.874 44.4629 324.878Z" fill="#FDECFF"/>
<path d="M48.0705 336.558C47.9652 336.558 47.8689 336.488 47.8404 336.381C46.2536 330.426 44.1026 324.604 41.4472 319.077C36.5107 308.803 29.8235 299.461 21.5709 291.312C21.4772 291.22 21.4763 291.069 21.5687 290.975C21.6612 290.882 21.812 290.881 21.9057 290.973C30.1971 299.161 36.9163 308.547 41.8765 318.87C44.5449 324.424 46.7064 330.274 48.3007 336.258C48.3345 336.386 48.2589 336.516 48.1318 336.55C48.1115 336.556 48.0909 336.558 48.0705 336.558Z" fill="#10171B"/>
<path d="M59.8952 278.754C59.8952 278.754 60.9976 278.365 62.1506 277.979C62.313 274.188 61.7504 271.5 61.5769 271.567C46.8077 278.101 52.3578 297.177 52.3578 297.177C59.3076 292.566 61.5263 285.185 62.0462 279.528L59.8952 278.754Z" fill="url(#paint1_linear_2048_39929)"/>
<path d="M51.9479 362.582C51.8003 362.582 51.6805 362.462 51.6802 362.315L51.5703 303.827C51.6165 301.596 51.7918 299.351 52.0914 297.149C52.0917 297.146 52.0921 297.143 52.0925 297.14C52.7564 292.249 54.0375 287.456 55.9003 282.895C58.5347 276.454 61.3155 271.485 61.3433 271.436C61.4156 271.307 61.5789 271.261 61.7077 271.334C61.8366 271.406 61.8823 271.569 61.8099 271.698C61.7822 271.747 59.0171 276.689 56.3958 283.098C54.5512 287.615 53.2822 292.361 52.624 297.204C52.6237 297.207 52.6233 297.21 52.6229 297.213C52.3253 299.397 52.1512 301.624 52.1054 303.832L52.2155 362.314C52.2158 362.462 52.0962 362.582 51.9484 362.582C51.9481 362.582 51.9479 362.582 51.9479 362.582Z" fill="#10171B"/>
<path d="M73.8832 320.173L76.3594 321.346C77.1909 320.258 77.9147 319.168 78.5415 318.115L76.2135 316.238C76.2135 316.238 77.6317 316.544 79.2485 316.868C81.4251 312.837 82.1366 309.604 81.982 309.496C58.1956 312.958 59.7229 332.127 59.7229 332.127C66.3615 330.642 71.1818 327.206 74.6037 323.45L73.8832 320.173Z" fill="#DEE4FC"/>
<path d="M55.7113 350.248C55.6982 350.248 55.685 350.247 55.6716 350.245C55.5254 350.224 55.4246 350.087 55.4463 349.941L56.9072 340.13C57.8168 334.022 60.8349 328.369 65.4056 324.211L81.8025 309.297C81.9118 309.198 82.0812 309.206 82.1806 309.315C82.2801 309.425 82.2721 309.594 82.1627 309.693L65.7658 324.607C61.2861 328.682 58.328 334.223 57.4368 340.209L55.9759 350.02C55.9559 350.153 55.8418 350.248 55.7113 350.248Z" fill="#10171B"/>
<path d="M602.248 361.875C602.237 361.875 602.224 361.874 602.212 361.873C602.074 361.853 601.978 361.725 601.998 361.587C604.043 347.427 602.843 337.606 601.477 331.86C599.997 325.639 598.008 322.726 597.988 322.698C597.909 322.583 597.937 322.426 598.052 322.346C598.166 322.267 598.323 322.295 598.403 322.409C598.486 322.529 600.455 325.405 601.959 331.705C603.341 337.498 604.558 347.397 602.498 361.659C602.48 361.785 602.372 361.875 602.248 361.875Z" fill="#10171B"/>
<path d="M601.721 277.696L597.21 278.358L598.924 275.843C594.584 273.766 587.75 273.443 577.164 276.469C577.832 276.324 601.016 280.136 604.235 299.68C604.235 299.68 609.467 284.65 601.721 277.696Z" fill="#191C4A"/>
<path d="M609.341 361.376C609.203 361.376 609.086 361.271 609.074 361.131L608.899 359.085C608.202 350.94 607.504 342.796 606.805 334.652C606.805 334.65 606.805 334.647 606.805 334.644L606.784 334.4C605.784 322.724 604.784 311.048 603.783 299.374L603.669 298.039C603.656 297.892 603.764 297.762 603.911 297.748C604.058 297.734 604.189 297.843 604.202 297.99L604.316 299.329C605.318 311.003 606.317 322.678 607.317 334.354L607.339 334.605C607.339 334.608 607.339 334.611 607.339 334.613C608.038 342.754 608.735 350.897 609.432 359.039L609.608 361.085C609.62 361.232 609.511 361.362 609.364 361.375C609.356 361.375 609.348 361.376 609.341 361.376Z" fill="#10171B"/>
<path d="M604.234 299.68C604.234 299.68 592.488 277.851 570 278.975C570.475 278.87 598.285 263.868 604.234 299.68Z" fill="#FAAA33"/>
<path d="M618.314 291.618L622.849 292.091L621.032 289.65C625.282 287.394 632.096 286.786 642.799 289.368C642.125 289.251 619.121 294.027 616.72 313.688C616.72 313.688 610.866 298.889 618.314 291.618Z" fill="#191C4A"/>
<path d="M614.787 361.615C614.783 361.615 614.779 361.615 614.775 361.614C614.628 361.608 614.513 361.483 614.52 361.335L616.683 311.999C616.69 311.852 616.814 311.742 616.962 311.744C617.11 311.75 617.224 311.875 617.218 312.023L615.054 361.359C615.048 361.503 614.93 361.615 614.787 361.615Z" fill="#10171B"/>
<path d="M616.721 313.688C616.721 313.688 627.546 291.388 650.062 291.573C649.582 291.488 621.17 277.659 616.721 313.688Z" fill="#FAAA33"/>
<path d="M592.862 297.112L590.437 298.609L590.364 295.13C585.359 291.475 580.869 289.937 580.869 289.937C582.183 300.758 585.53 308.098 589.263 313.083C590.934 312.349 592.774 311.583 592.774 311.583L590.975 315.185C597.078 322.068 603.534 323.354 603.595 323.659C604.902 310.899 598.985 302.39 592.862 297.112Z" fill="#DEE4FC"/>
<path d="M603.596 323.672C603.598 323.668 603.598 323.664 603.597 323.659C603.596 323.664 603.596 323.668 603.596 323.672Z" fill="#FDECFF"/>
<path d="M607.201 335.352C607.096 335.352 606.999 335.282 606.971 335.175C605.384 329.219 603.233 323.397 600.578 317.871C595.641 307.596 588.954 298.255 580.702 290.106C580.608 290.013 580.607 289.863 580.7 289.769C580.792 289.676 580.943 289.674 581.036 289.767C589.328 297.954 596.047 307.34 601.007 317.664C603.675 323.218 605.837 329.068 607.431 335.052C607.465 335.18 607.39 335.31 607.263 335.344C607.242 335.35 607.222 335.352 607.201 335.352Z" fill="#10171B"/>
<path d="M619.026 277.547C619.026 277.547 620.129 277.158 621.281 276.772C621.444 272.981 620.881 270.293 620.708 270.361C605.939 276.894 611.489 295.971 611.489 295.971C618.438 291.36 620.657 283.978 621.177 278.321L619.026 277.547Z" fill="url(#paint2_linear_2048_39929)"/>
<path d="M611.079 361.376C610.931 361.376 610.811 361.256 610.811 361.109L610.701 302.621C610.747 300.39 610.923 298.145 611.222 295.943C611.223 295.94 611.223 295.937 611.223 295.934C611.887 291.043 613.169 286.25 615.031 281.689C617.666 275.248 620.446 270.279 620.474 270.23C620.547 270.101 620.71 270.055 620.839 270.127C620.967 270.2 621.013 270.363 620.941 270.492C620.913 270.541 618.148 275.483 615.527 281.892C613.682 286.408 612.413 291.154 611.755 295.998C611.755 296.001 611.754 296.004 611.754 296.007C611.456 298.191 611.282 300.418 611.236 302.626L611.346 361.108C611.347 361.255 611.227 361.376 611.079 361.376H611.079Z" fill="#10171B"/>
<path d="M633.014 318.966L635.49 320.139C636.322 319.051 637.046 317.962 637.672 316.908L635.344 315.031C635.344 315.031 636.763 315.338 638.379 315.661C640.556 311.631 641.267 308.397 641.113 308.289C617.326 311.751 618.854 330.92 618.854 330.92C625.492 329.435 630.313 326 633.735 322.243L633.014 318.966Z" fill="#DEE4FC"/>
<path d="M614.842 349.042C614.829 349.042 614.816 349.041 614.802 349.039C614.656 349.017 614.555 348.881 614.577 348.735L616.038 338.924C616.948 332.816 619.966 327.163 624.536 323.005L640.933 308.091C641.043 307.992 641.212 308 641.311 308.109C641.411 308.218 641.403 308.388 641.293 308.487L624.897 323.401C620.417 327.476 617.459 333.017 616.567 339.002L615.106 348.814C615.087 348.947 614.973 349.042 614.842 349.042Z" fill="#10171B"/>
<path d="M131.82 183.187L134.254 187.052L166.809 166.55L164.375 162.685L131.82 183.187Z" fill="#E88940"/>
<path d="M167.33 155.623L167.854 156.455C167.683 156.153 167.507 155.876 167.33 155.623Z" fill="#A5865D"/>
<path d="M166.875 155.021L167.33 155.623C167.178 155.405 167.025 155.205 166.875 155.021Z" fill="#A5865D"/>
<path d="M166.873 155.018C166.873 155.018 166.877 155.023 166.885 155.033L167.288 155.566L167.311 155.596C167.314 155.6 167.316 155.604 167.319 155.607C167.321 155.61 167.323 155.613 167.325 155.616L167.331 155.623L172.639 164.053C172.886 164.445 173.01 164.903 172.994 165.366C172.97 166.023 173.125 166.734 173.466 167.411C173.534 167.546 173.609 167.68 173.692 167.812C174.27 168.73 175.095 169.362 175.943 169.629C176.109 169.682 176.251 169.789 176.344 169.936L176.573 170.3C176.787 170.64 176.685 171.089 176.346 171.303L172.274 173.867C171.934 174.081 171.486 173.979 171.272 173.639L171.255 173.612C171.14 173.43 171.118 173.209 171.178 173.002C171.458 172.037 171.279 170.829 170.604 169.757C169.895 168.632 168.815 167.935 167.777 167.817C167.658 167.803 167.552 167.733 167.488 167.631L164.462 162.825C164.151 162.331 164.132 161.702 164.429 161.199C164.609 160.894 164.774 160.517 164.858 160.072C164.955 159.559 164.956 158.893 164.542 157.814C163.572 155.285 161.551 153.691 160.533 153.001C159.86 152.546 158.788 151.915 157.318 151.444C161.301 150.569 164.446 152.331 166.873 155.018Z" fill="#3B3B4F"/>
<path d="M174.682 171.666C174.611 171.666 174.541 171.631 174.499 171.567C174.432 171.466 174.461 171.33 174.562 171.264L175.643 170.554C175.744 170.488 175.88 170.516 175.946 170.617C176.013 170.719 175.984 170.855 175.883 170.921L174.802 171.63C174.765 171.655 174.724 171.666 174.682 171.666Z" fill="#10171B"/>
<path d="M171.78 165.674C171.707 165.674 171.636 165.639 171.595 165.573L168.853 161.267C168.788 161.164 168.818 161.029 168.92 160.964C169.022 160.899 169.157 160.929 169.222 161.031L171.964 165.338C172.029 165.44 171.999 165.575 171.897 165.64C171.861 165.663 171.82 165.674 171.78 165.674Z" fill="#10171B"/>
<path d="M165.116 154.63C165.062 154.63 165.008 154.61 164.965 154.57C164.357 153.995 163.677 153.499 162.944 153.095C162.233 152.703 161.474 152.399 160.689 152.191C160.572 152.16 160.502 152.04 160.533 151.923C160.564 151.806 160.683 151.736 160.8 151.767C161.621 151.984 162.413 152.301 163.156 152.711C163.921 153.133 164.631 153.651 165.266 154.252C165.354 154.335 165.358 154.473 165.275 154.561C165.232 154.607 165.174 154.63 165.116 154.63Z" fill="#10171B"/>
<path d="M152.367 127.653C153.487 141.797 154.607 155.941 155.726 170.086C151.565 170.93 147.403 171.775 143.241 172.619C141.454 159.317 139.667 146.014 137.881 132.712C142.71 131.025 147.539 129.339 152.367 127.653Z" fill="#AF7F5F"/>
<path d="M68.5729 330.95L63.0859 358.728L101.972 360.563C101.972 360.563 100.113 353.17 84.364 350.379C82.1258 349.983 80.6431 347.833 81.0593 345.598C82.1668 339.652 83.9526 329.489 83.9526 329.489L68.5729 330.95Z" fill="#AF7F5F"/>
<path d="M101.967 360.544C100.61 357.513 97.7298 353.021 84.3642 350.379C83.055 350.147 82.0052 349.315 81.4418 348.217C81.008 348.25 70.915 347.843 65.2495 347.774C64.0003 352.489 62.7512 357.204 61.502 361.919C75.0036 361.919 88.5053 361.919 102.007 361.919C101.994 361.46 101.98 361.002 101.967 360.544Z" fill="#191C4A"/>
<path d="M95.1218 144.313L62.0723 338.329C62.0723 338.329 71.6558 339.892 74.9285 340.304C84.3523 341.49 90.9217 340.483 90.9217 340.483L128.392 165.482L95.1218 144.313Z" fill="url(#paint3_linear_2048_39929)"/>
<path d="M138.844 330.902L139.46 359.962L178.347 361.798C178.347 361.798 176.403 354.07 159.659 351.433C157.898 351.156 156.567 349.693 156.446 347.914C156.046 341.989 155.008 329.677 155.008 329.677L138.844 330.902Z" fill="#AF7F5F"/>
<path d="M178.343 361.783C178.343 361.783 178.343 361.781 178.342 361.78C178.341 361.776 178.34 361.771 178.338 361.765C178.337 361.762 178.337 361.76 178.336 361.758C178.334 361.751 178.332 361.744 178.33 361.737C178.328 361.733 178.327 361.73 178.326 361.726C178.324 361.717 178.321 361.708 178.317 361.698C178.316 361.695 178.315 361.691 178.314 361.688C178.31 361.676 178.306 361.664 178.302 361.651C178.301 361.65 178.3 361.648 178.3 361.646C178.273 361.567 178.232 361.459 178.175 361.325C178.174 361.323 178.173 361.321 178.172 361.318C178.161 361.293 178.149 361.266 178.137 361.238C178.136 361.236 178.135 361.234 178.134 361.232C177.315 359.404 173.664 353.638 159.66 351.433C158.057 351.181 156.813 349.944 156.511 348.382C150.813 348.725 144.89 348.678 139.126 348.625C138.52 353.013 137.915 357.4 137.309 361.787C163.179 361.791 178.344 361.79 178.343 361.783Z" fill="#191C4A"/>
<path d="M110.697 151.142L132.882 342.642C132.882 342.642 140.398 343.293 146.099 342.71C150.792 342.23 163.476 340.698 163.476 340.698C156.617 279.116 149.758 217.534 142.899 155.952C132.165 154.349 121.431 152.745 110.697 151.142Z" fill="url(#paint4_linear_2048_39929)"/>
<path d="M143.118 179.712C141.699 179.651 140.597 178.45 140.659 177.031L140.912 171.155C140.974 169.735 142.174 168.634 143.594 168.695C145.014 168.757 146.115 169.957 146.054 171.377L145.8 177.253C145.739 178.672 144.538 179.774 143.118 179.712Z" fill="#AF7F5F"/>
<path d="M148.644 179.257C147.225 179.338 146.009 178.254 145.928 176.835L145.592 170.963C145.511 169.545 146.595 168.329 148.014 168.248C149.433 168.167 150.649 169.251 150.73 170.67L151.065 176.541C151.147 177.96 150.062 179.176 148.644 179.257Z" fill="#AF7F5F"/>
<path d="M152.983 178.348C151.653 178.424 150.514 177.407 150.438 176.078L150.123 170.574C150.047 169.245 151.063 168.105 152.393 168.029C153.723 167.953 154.862 168.969 154.938 170.299L155.253 175.802C155.329 177.132 154.313 178.272 152.983 178.348Z" fill="#AF7F5F"/>
<path d="M156.713 176.407C155.588 176.471 154.625 175.612 154.56 174.487L154.294 169.833C154.23 168.709 155.09 167.745 156.214 167.681C157.339 167.616 158.302 168.476 158.367 169.6L158.633 174.254C158.697 175.379 157.837 176.343 156.713 176.407Z" fill="#AF7F5F"/>
<path d="M155.253 176.022C155.143 176.022 155.049 175.94 155.035 175.829L154.22 168.988C154.206 168.868 154.292 168.758 154.412 168.744C154.532 168.73 154.641 168.816 154.656 168.936L155.47 175.777C155.485 175.897 155.399 176.006 155.279 176.021C155.27 176.022 155.261 176.022 155.253 176.022Z" fill="#10171B"/>
<path d="M150.957 177.659C150.844 177.659 150.748 177.571 150.739 177.456L150.135 169.417C150.126 169.296 150.217 169.191 150.337 169.182C150.458 169.173 150.563 169.264 150.572 169.384L151.176 177.423C151.185 177.544 151.095 177.649 150.974 177.658C150.969 177.659 150.963 177.659 150.957 177.659Z" fill="#10171B"/>
<path d="M145.965 177.917C145.847 177.917 145.75 177.823 145.746 177.704L145.502 170.005C145.498 169.884 145.593 169.783 145.714 169.779C145.836 169.775 145.936 169.87 145.94 169.991L146.184 177.691C146.188 177.812 146.093 177.913 145.972 177.917C145.97 177.916 145.967 177.917 145.965 177.917Z" fill="#10171B"/>
<path d="M143.254 179.944C142.383 179.944 141.532 179.588 141.002 178.947C140.675 178.551 140.469 178.05 140.406 177.497C140.392 177.376 140.478 177.268 140.599 177.254C140.719 177.242 140.828 177.327 140.841 177.447C140.895 177.915 141.067 178.338 141.34 178.668C141.979 179.441 143.181 179.722 144.199 179.335C145.25 178.935 145.67 177.959 145.773 177.669C145.814 177.555 145.939 177.496 146.053 177.536C146.167 177.577 146.227 177.703 146.186 177.816C146.067 178.151 145.582 179.277 144.355 179.744C144 179.879 143.625 179.944 143.254 179.944Z" fill="#10171B"/>
<path d="M148.24 179.6C147.538 179.6 146.823 179.371 146.33 178.824C145.893 178.339 145.761 177.761 145.727 177.361C145.717 177.24 145.807 177.134 145.927 177.124C146.047 177.114 146.154 177.203 146.164 177.324C146.192 177.657 146.3 178.136 146.656 178.531C147.322 179.27 148.502 179.299 149.322 178.945C150.209 178.563 150.6 177.76 150.728 177.432C150.771 177.319 150.898 177.263 151.011 177.307C151.124 177.351 151.18 177.478 151.136 177.591C150.989 177.97 150.535 178.899 149.496 179.348C149.122 179.509 148.684 179.6 148.24 179.6Z" fill="#10171B"/>
<path d="M152.75 178.593C152.476 178.593 152.183 178.545 151.887 178.422C151.529 178.273 151.217 178.038 150.958 177.721C150.881 177.628 150.895 177.49 150.989 177.413C151.082 177.336 151.22 177.35 151.297 177.444C151.51 177.704 151.765 177.897 152.055 178.018C153.076 178.442 154.057 177.757 154.098 177.727C154.952 177.119 155.039 176.136 155.048 175.945C155.051 175.862 155.101 175.789 155.177 175.755C155.253 175.721 155.341 175.733 155.405 175.785C155.6 175.944 155.816 176.064 156.047 176.14C156.355 176.242 157.133 176.427 157.711 175.951C158.247 175.509 158.252 174.8 158.248 174.662C158.244 174.541 158.339 174.44 158.46 174.436C158.579 174.433 158.682 174.527 158.686 174.648C158.691 174.822 158.684 175.717 157.99 176.289C157.244 176.904 156.287 176.681 155.909 176.556C155.745 176.502 155.588 176.43 155.438 176.342C155.347 176.805 155.089 177.56 154.353 178.084C154.315 178.111 153.625 178.593 152.75 178.593Z" fill="#10171B"/>
<path d="M141.933 89.9648C142.534 91.1081 143.388 92.7803 144.345 94.8304C149.926 106.783 151.586 115.702 151.925 117.61C153.311 125.409 153.956 129.379 151.563 132.809C149.068 136.386 144.775 137.488 142.516 137.876C137.946 128.67 133.376 119.465 128.807 110.259C133.182 103.494 137.557 96.7295 141.933 89.9648Z" fill="#DEE4FC"/>
<path d="M97.7067 110.059L93.6014 123.118L92.6406 126.173L91.1803 130.82C90.7773 130.851 90.3742 130.882 89.9711 130.914H89.9698C88.8149 131.003 87.66 131.094 86.5051 131.184C81.7172 131.558 76.9306 131.931 72.1441 132.305C72.1387 132.305 72.1346 132.306 72.1292 132.306C72.1264 132.279 72.1237 132.252 72.121 132.225C71.8523 129.601 71.6867 126.363 71.8767 122.668C71.8822 122.558 71.8889 122.448 71.8944 122.337C71.9609 121.186 72.0599 119.992 72.2024 118.759C72.2024 118.759 72.5214 116.002 73.0941 113.247C73.4917 111.329 74.591 107.793 76.4746 103.196C77.3459 101.069 78.3868 98.7148 79.6041 96.1892C79.9366 95.683 80.2895 95.1727 80.6627 94.6597C81.1282 94.0192 81.5977 93.4125 82.0673 92.8371C82.1664 92.7177 82.2641 92.5996 82.3604 92.4829C82.621 92.7815 82.8829 93.0814 83.1435 93.38C87.9979 98.9387 92.8523 104.5 97.7067 110.059Z" fill="#DEE4FC"/>
<path d="M120.296 67.777C126.655 61.4186 126.655 51.1097 120.296 44.7514C113.938 38.393 103.629 38.393 97.2706 44.7514C90.9123 51.1097 90.9123 61.4186 97.2706 67.777C103.629 74.1353 113.938 74.1353 120.296 67.777Z" fill="#191C4A"/>
<path d="M100.149 64.6172C100.149 64.6172 106.586 78.6001 101.4 82.1905C100.649 82.7269 98.1313 83.6329 95.965 84.3556C94.2535 84.9265 93.816 87.1591 95.2025 88.3133C98.5114 91.0676 105.027 94.5611 115.641 92.6427C115.841 92.8422 128.806 89.4511 128.407 82.8687C128.008 82.6692 122.523 82.9685 119.132 81.7716C118.135 81.1733 115.54 79.1146 115.939 68.3431C115.341 67.9442 103.573 64.6173 103.573 64.6173L100.149 64.6172Z" fill="#AF7F5F"/>
<path d="M115.9 70.1296C114.2 69.4986 111.293 68.4303 109.398 67.4907C107.684 68.2841 105.172 69.4893 105.172 69.4893C105.172 69.4893 109.562 75.804 116.304 76.1175C116.042 74.5807 115.883 72.624 115.9 70.1296Z" fill="#191C4A"/>
<path d="M111.351 44.7878C114.117 44.7878 117.074 46.1451 119.193 47.846C120.484 48.8821 121.537 50.1592 122.157 51.6962C122.986 53.7506 122.555 55.9916 123.283 58.0557C123.662 59.1314 124.374 60.0565 124.85 61.093C126.085 63.7817 125.554 67.1356 123.706 69.4462C118.656 75.7591 108.736 72.7228 103.572 68.2565C101.01 66.0402 99.0859 62.9783 99.0859 59.5036C99.0859 51.3762 104.577 44.7878 111.351 44.7878Z" fill="#AF7F5F"/>
<path d="M116.104 46.2336C116.311 48.0721 114.055 49.9917 112.326 50.8763C109.11 52.5211 106.962 50.9716 104.361 52.045C102.48 52.8213 100.319 54.987 99.1665 61.1353C97.943 58.4061 96.7195 55.6769 95.4961 52.9478L101.281 44.7696L107.664 42.1765C112.488 42.1966 115.871 44.1534 116.104 46.2336Z" fill="#191C4A"/>
<path d="M106.12 62.9077C106.12 62.9077 96.624 58.6518 96.6799 64.2032C96.806 65.9966 98.9878 71.6586 105.073 66.7717C104.987 66.6105 106.12 62.9077 106.12 62.9077Z" fill="#AF7F5F"/>
<path d="M102.277 66.3313C102.231 66.3313 102.185 66.317 102.146 66.2874L97.8904 63.0959C97.7936 63.0233 97.7739 62.886 97.8466 62.7891C97.9192 62.6923 98.0564 62.6726 98.1534 62.7452L102.409 65.9368C102.506 66.0094 102.525 66.1467 102.453 66.2436C102.409 66.301 102.344 66.3313 102.277 66.3313Z" fill="#10171B"/>
<path d="M99.3517 66.3316C99.317 66.3316 99.2816 66.3233 99.2488 66.3058C99.142 66.2489 99.1017 66.1161 99.1586 66.0093L99.9564 64.5133C100.013 64.4065 100.146 64.3661 100.253 64.4231C100.36 64.4799 100.4 64.6128 100.343 64.7196L99.5454 66.2155C99.5059 66.2895 99.43 66.3316 99.3517 66.3316Z" fill="#10171B"/>
<path opacity="0.46" d="M110.236 66.1777C111.947 66.1777 113.334 64.7908 113.334 63.0799C113.334 61.3691 111.947 59.9822 110.236 59.9822C108.526 59.9822 107.139 61.3691 107.139 63.0799C107.139 64.7908 108.526 66.1777 110.236 66.1777Z" fill="#AF7F5F"/>
<path d="M111.111 57.0276C111.517 57.3594 112.416 56.8437 113.44 56.5572C114.447 56.2162 115.48 56.1342 115.628 55.6312C115.803 55.1462 114.487 54.2019 112.865 54.6992C111.246 55.204 110.692 56.7264 111.111 57.0276Z" fill="#191C4A"/>
<path d="M119.701 54.8997C120.107 55.2315 121.006 54.7158 122.03 54.4293C123.036 54.0883 124.07 54.0063 124.218 53.5034C124.393 53.0183 123.077 52.0741 121.455 52.5712C119.836 53.0762 119.282 54.5986 119.701 54.8997Z" fill="#191C4A"/>
<path d="M114.396 58.9148C114.396 59.2591 114.676 59.5382 115.02 59.5382C115.364 59.5382 115.643 59.2591 115.643 58.9148C115.643 58.5705 115.364 58.2915 115.02 58.2915C114.676 58.2915 114.396 58.5705 114.396 58.9148Z" fill="#191C4A"/>
<path d="M121 57.6682C121 58.0125 121.279 58.2916 121.623 58.2916C121.967 58.2916 122.247 58.0125 122.247 57.6682C122.247 57.3239 121.968 57.0449 121.623 57.0449C121.279 57.0449 121 57.3241 121 57.6682Z" fill="#191C4A"/>
<path d="M120.69 63.2993C120.581 63.2993 120.486 63.2174 120.473 63.1059C120.459 62.9858 120.545 62.8768 120.665 62.8625C121.091 62.8121 121.472 62.5811 121.66 62.2597C121.859 61.9208 121.827 61.4691 121.586 61.2089C121.406 61.0151 121.13 60.9178 120.839 60.8148C120.483 60.6893 120.115 60.5595 119.865 60.2387C119.713 60.0436 119.637 59.8115 119.577 59.6249C119.224 58.5439 118.918 57.4337 118.668 56.3247C118.641 56.2066 118.715 56.0893 118.833 56.0626C118.951 56.0359 119.068 56.1098 119.095 56.2279C119.343 57.3238 119.645 58.4209 119.993 59.489C120.057 59.6847 120.114 59.8445 120.211 59.9692C120.382 60.1889 120.675 60.2922 120.984 60.4014C121.314 60.5176 121.654 60.6378 121.907 60.911C122.28 61.3137 122.335 61.974 122.038 62.4812C121.778 62.9251 121.284 63.2305 120.716 63.2978C120.708 63.2987 120.699 63.2993 120.69 63.2993Z" fill="#10171B"/>
<path d="M121.625 66.6451L114.396 65.3652C114.396 65.3652 115.02 69.0056 117.738 69.3048C118.908 69.4336 120.446 69.1052 121.625 66.6451Z" fill="#191C4A"/>
<path d="M119.394 69.0834C118.812 69.3304 118.241 69.3601 117.737 69.3047C116.443 69.1622 115.624 68.2618 115.121 67.3577C116.225 67.4189 118.312 67.7216 119.394 69.0834Z" fill="#FB6B4E"/>
<path d="M121.28 67.2893C121.28 67.2893 118.011 66.9859 115.576 66.3386C115.289 66.2623 115.018 66.1354 114.832 65.9046L114.396 65.3652L121.715 66.5746C121.603 66.808 121.398 67.0928 121.28 67.2893Z" fill="white"/>
<path d="M143.312 157.48C143.232 157.484 143.15 157.489 143.07 157.494C142.454 157.529 141.838 157.563 141.222 157.598C133.498 158.032 125.775 158.467 118.052 158.901C115.913 159.022 113.775 159.141 111.637 159.262C107.71 159.483 103.783 159.703 99.8555 159.924C99.6722 159.935 99.4877 159.944 99.3031 159.955C97.1697 160.075 95.035 160.196 92.9016 160.315C92.7985 159.93 92.6967 159.543 92.5935 159.153V159.152C92.3167 158.096 92.0412 157.029 91.7698 155.948C91.7698 155.946 91.7698 155.946 91.7698 155.946C91.535 155.018 91.3029 154.08 91.0736 153.133C90.7492 151.802 90.4303 150.451 90.1154 149.085C89.3717 145.849 88.6552 142.518 87.9753 139.09V139.088C87.4623 136.507 86.971 133.872 86.5042 131.183C86.1825 129.342 85.8731 127.476 85.5773 125.585C85.4212 124.594 85.2719 123.608 85.1281 122.628C83.6692 112.755 82.7382 103.438 82.1858 94.7894C82.1438 94.1353 82.103 93.4839 82.0664 92.8365C82.1655 92.7171 82.2632 92.5991 82.3595 92.4823C83.0625 91.6396 83.7628 90.8701 84.4468 90.1685C84.9693 89.7953 85.5162 89.4193 86.0889 89.0434C87.085 88.3879 88.1571 87.7352 89.3053 87.0973C89.4423 87.02 89.5821 86.944 89.7219 86.868C89.7409 86.8585 89.7585 86.8476 89.7775 86.8381C94.0253 84.5351 97.9813 83.1753 101.149 82.3461C101.149 82.3461 101.15 82.3461 101.15 82.3474C104.544 84.2637 109.112 84.1347 112.816 83.7887C115.584 83.5335 118.347 83.0545 121.014 82.2619H121.016C121.934 82.0977 122.859 82.0013 123.781 81.9688H123.796C126.664 81.8643 129.518 82.3623 132.152 83.3001C134.302 84.0669 136.305 85.1254 138.047 86.3916V86.393C138.049 86.393 138.05 86.3943 138.051 86.3943C139.041 86.9426 140.257 87.8017 141.319 89.133C141.546 89.4166 141.747 89.6989 141.926 89.9757C141.945 90.0056 141.964 90.0355 141.983 90.0653C141.612 92.6153 141.249 95.1789 140.889 97.7561C140.585 99.9478 140.287 102.131 139.995 104.306C140.213 106.367 140.422 108.447 140.622 110.543C140.622 110.544 140.622 110.544 140.622 110.546C140.71 111.472 140.797 112.402 140.882 113.333C140.893 113.454 140.904 113.575 140.915 113.695C141.439 119.485 141.883 125.33 142.244 131.186C142.382 133.409 142.508 135.633 142.621 137.856C142.957 144.429 143.189 150.992 143.312 157.48Z" fill="#DEE4FC"/>
<path d="M141.492 113.328C127.941 113.489 114.389 113.65 100.838 113.81C97.6085 136.199 94.891 158.636 92.6858 181.123C90.1687 206.792 88.3189 232.527 87.1367 258.328C94.8805 259.397 103.53 260.145 112.952 260.258C128.971 260.45 143.072 258.756 154.691 256.518C150.877 222.885 147.563 189.208 144.749 155.489C143.576 141.442 142.49 127.388 141.492 113.328Z" fill="#0085F9"/>
<path d="M109.696 113.835C106.757 113.854 103.817 113.872 100.879 113.891C100.868 113.864 100.856 113.838 100.845 113.811C96.9938 104.897 93.1451 95.9839 89.2949 87.0718C90.6287 86.2709 92.2027 85.4396 94.0131 84.6777C95.4523 84.072 96.8127 83.6062 98.0543 83.2451C99.1145 86.0858 100.18 88.9242 101.25 91.7606C104.031 99.1323 106.847 106.491 109.696 113.835Z" fill="#0085F9"/>
<path d="M82.9352 150.241C85.0892 153.251 90.118 153.739 101.45 152.564C107.706 151.915 116.42 150.704 126.956 148.245C126.644 144.719 126.333 141.192 126.021 137.666C115.791 138.318 107.647 138.281 101.973 138.115C94.429 137.895 87.914 137.49 84.0145 141.661C82.6085 143.165 82.0741 144.852 81.8432 146.044C81.7932 147.187 81.918 148.82 82.9352 150.241Z" fill="#AF7F5F"/>
<path d="M138.982 109.972C138.564 110.33 138.146 110.687 137.728 111.044C136.022 117.809 134.316 124.573 132.609 131.338L133.506 131.566L138.982 109.972Z" fill="white"/>
<path d="M132.943 130.158C132.898 130.158 132.855 130.137 132.829 130.098C132.788 130.035 132.805 129.951 132.868 129.909C133.057 129.784 133.247 129.659 133.436 129.533C133.63 129.405 133.823 129.277 134.017 129.149C134.079 129.108 134.163 129.125 134.205 129.188C134.246 129.251 134.229 129.335 134.166 129.376C133.973 129.504 133.779 129.631 133.586 129.759C133.397 129.885 133.207 130.011 133.017 130.136C132.994 130.151 132.968 130.158 132.943 130.158Z" fill="#10171B"/>
<path d="M133.855 126.538C133.811 126.538 133.767 126.517 133.741 126.477C133.7 126.415 133.717 126.331 133.78 126.289L134.935 125.525C134.998 125.484 135.082 125.501 135.123 125.564C135.165 125.626 135.148 125.71 135.085 125.752L133.93 126.516C133.906 126.531 133.88 126.538 133.855 126.538Z" fill="#10171B"/>
<path d="M134.769 122.917C134.725 122.917 134.681 122.896 134.655 122.856C134.614 122.794 134.631 122.709 134.694 122.668L135.855 121.9C135.917 121.858 136.001 121.875 136.043 121.938C136.084 122 136.067 122.085 136.004 122.126L134.843 122.894C134.82 122.91 134.794 122.917 134.769 122.917Z" fill="#10171B"/>
<path d="M135.683 119.295C135.639 119.295 135.595 119.274 135.569 119.234C135.528 119.172 135.545 119.087 135.608 119.046C135.998 118.79 136.386 118.533 136.775 118.274C136.837 118.233 136.922 118.25 136.963 118.312C137.005 118.375 136.988 118.459 136.925 118.5C136.536 118.759 136.147 119.016 135.757 119.273C135.734 119.288 135.708 119.295 135.683 119.295Z" fill="#10171B"/>
<path d="M136.595 115.676C136.551 115.676 136.508 115.654 136.481 115.615C136.44 115.552 136.457 115.468 136.52 115.427L137.694 114.651C137.756 114.609 137.841 114.627 137.882 114.689C137.923 114.751 137.906 114.836 137.844 114.877L136.67 115.653C136.647 115.668 136.621 115.676 136.595 115.676Z" fill="#10171B"/>
<path d="M137.509 112.054C137.465 112.054 137.422 112.033 137.396 111.994C137.354 111.931 137.371 111.847 137.434 111.805L138.613 111.025C138.676 110.984 138.76 111.001 138.801 111.063C138.843 111.126 138.826 111.21 138.763 111.252L137.584 112.032C137.56 112.047 137.534 112.054 137.509 112.054Z" fill="#10171B"/>
<path d="M135.514 131.826L130.837 130.64L125.885 150.167L130.562 151.354L135.514 131.826Z" fill="url(#paint5_linear_2048_39929)"/>
<path d="M134.873 135.806L134.847 135.352C134.779 134.155 133.753 133.239 132.556 133.307L126.629 133.644C125.431 133.712 124.516 134.738 124.584 135.935L124.609 136.389C124.677 137.586 125.703 138.501 126.901 138.433L132.828 138.097C134.025 138.029 134.941 137.003 134.873 135.806Z" fill="#AF7F5F"/>
<path d="M134.495 140.962L134.515 140.508C134.567 139.31 133.638 138.296 132.44 138.244L126.509 137.985C125.31 137.933 124.297 138.862 124.245 140.061L124.225 140.514C124.173 141.713 125.102 142.726 126.3 142.778L132.231 143.037C133.429 143.089 134.443 142.16 134.495 140.962Z" fill="#AF7F5F"/>
<path d="M133.706 144.923L133.717 144.662C133.768 143.494 132.862 142.505 131.694 142.454L126.299 142.219C125.131 142.168 124.142 143.074 124.092 144.243L124.08 144.503C124.029 145.672 124.935 146.66 126.104 146.711L131.498 146.946C132.667 146.997 133.655 146.091 133.706 144.923Z" fill="#AF7F5F"/>
<path d="M131.951 148.294C131.997 147.245 131.183 146.357 130.134 146.312L125.793 146.122C124.744 146.077 123.856 146.89 123.81 147.939C123.765 148.988 124.578 149.876 125.627 149.921L129.969 150.111C131.018 150.156 131.905 149.343 131.951 148.294Z" fill="#AF7F5F"/>
<path d="M132.416 138.443C132.415 138.443 132.414 138.443 132.413 138.443L125.832 138.32C125.727 138.317 125.643 138.23 125.645 138.124C125.646 138.02 125.732 137.937 125.836 137.937C125.837 137.937 125.838 137.937 125.84 137.937L132.42 138.06C132.526 138.062 132.61 138.15 132.608 138.255C132.606 138.36 132.521 138.443 132.416 138.443Z" fill="#10171B"/>
<path d="M132.663 143.156C132.658 143.156 132.654 143.155 132.649 143.155L125.325 142.645C125.219 142.638 125.14 142.546 125.147 142.441C125.154 142.335 125.246 142.256 125.351 142.263L132.676 142.773C132.781 142.78 132.861 142.872 132.853 142.977C132.846 143.078 132.762 143.156 132.663 143.156Z" fill="#10171B"/>
<path d="M131.59 147.288C131.582 147.288 131.574 147.288 131.565 147.287L124.957 146.457C124.852 146.444 124.777 146.348 124.791 146.243C124.804 146.138 124.9 146.064 125.004 146.077L131.613 146.907C131.718 146.92 131.792 147.016 131.779 147.121C131.767 147.217 131.685 147.288 131.59 147.288Z" fill="#10171B"/>
<path d="M96.9768 135.766C96.5235 140.118 90.7642 149.868 86.321 152.694C80.5917 150.893 77.6398 147.619 76.4803 146.143C73.4211 142.25 72.8023 138.1 72.1065 133.433C71.4153 128.798 71.5951 124.915 71.8652 122.335C73.8973 122.513 76.0451 122.639 78.2989 122.694C81.446 122.769 84.4027 122.695 87.1418 122.523C88.9173 123.702 91.7812 125.604 93.523 126.761C94.6751 129.763 95.826 132.764 96.9768 135.766Z" fill="#DEE4FC"/>
<path d="M109.041 112.341C108.952 112.341 108.869 112.287 108.836 112.2L98.5419 85.3391C98.4986 85.226 98.5551 85.0994 98.6681 85.056C98.7814 85.0129 98.9079 85.0691 98.9512 85.1822L109.245 112.043C109.288 112.156 109.232 112.283 109.119 112.326C109.093 112.336 109.067 112.341 109.041 112.341Z" fill="#10171B"/>
<path d="M99.5505 155.791C96.9736 155.439 94.3969 155.087 91.82 154.735C91.7094 157.419 91.5988 160.103 91.4883 162.787C93.3048 162.993 94.7243 163.209 95.6501 163.36C97.6319 163.684 99.3338 164.039 100.083 163.149C100.087 163.145 100.09 163.141 100.092 163.139C99.9112 160.69 99.7309 158.24 99.5505 155.791Z" fill="#0085F9"/>
<path d="M133.58 113.909H113.303C113.182 113.909 113.084 113.811 113.084 113.69C113.084 113.569 113.182 113.471 113.303 113.471H133.58C133.701 113.471 133.799 113.569 133.799 113.69C133.799 113.811 133.701 113.909 133.58 113.909Z" fill="#10171B"/>
<path d="M127.246 82.0242C129.153 85.8792 131.187 90.7978 132.735 96.681C134.426 103.109 135.051 108.847 135.228 113.409C136.206 113.554 137.282 113.67 138.445 113.73C139.555 113.788 140.591 113.788 141.541 113.75C141.388 109.187 140.891 103.855 139.729 97.9871C138.755 93.0715 137.498 88.7025 136.193 84.9394C134.946 84.3068 133.439 83.6504 131.689 83.0896C130.059 82.5673 128.555 82.2363 127.246 82.0242Z" fill="#0085F9"/>
<path d="M393.793 58.0791H349.461V86.9102H393.793V58.0791Z" fill="url(#paint6_linear_2048_39929)"/>
<path d="M324.31 211.765V251.573H177.401L176.736 250.927V211.765H324.31Z" fill="#DEE4FC"/>
<path d="M324.31 250.85L323.08 251.895L266.412 300.068H234.579L177.887 251.895L176.789 250.962L176.736 250.85H324.31Z" fill="#DEE4FC"/>
<path d="M266.406 282.214H233.594V347.355H266.406V282.214Z" fill="#DEE4FC"/>
<path d="M322.321 251.069H191.854C191.733 251.069 191.635 250.971 191.635 250.849C191.635 250.728 191.733 250.63 191.854 250.63H322.321C322.443 250.63 322.541 250.728 322.541 250.849C322.541 250.971 322.443 251.069 322.321 251.069Z" fill="#10171B"/>
<path d="M392.346 125.853H354.468C354.346 125.853 354.248 125.754 354.248 125.633C354.248 125.512 354.346 125.414 354.468 125.414H392.346C392.468 125.414 392.566 125.512 392.566 125.633C392.566 125.754 392.468 125.853 392.346 125.853Z" fill="#10171B"/>
<path d="M354.462 361.804H493.834V208.57L354.462 208.57V361.804Z" fill="#DEE4FC"/>
<path d="M370.297 190.477C371.466 189.084 372.635 187.691 373.804 186.298V121.45H370.402C370.367 144.459 370.332 167.468 370.297 190.477Z" fill="#DEE4FC"/>
<path d="M349.352 125.607H393.914V115.203H349.352V125.607Z" fill="url(#paint7_linear_2048_39929)"/>
<path d="M349.42 115.828H498.873V85.0764H349.42V115.828Z" fill="url(#paint8_linear_2048_39929)"/>
<path d="M432.338 154.636H498.874V114.312H432.338V154.636Z" fill="url(#paint9_linear_2048_39929)"/>
<path d="M426.793 187.778H504.922V147.453H426.793V187.778Z" fill="#DEE4FC"/>
<path d="M410.663 200.884H518.783V186.896H410.663V200.884Z" fill="#DEE4FC"/>
<path d="M482.209 94.2514L484.469 95.3594L496.222 71.3863L493.962 70.2783L482.209 94.2514Z" fill="#DEE4FC"/>
<path d="M449.287 98.7791L449.457 101.29L476.095 99.4828L475.924 96.9715L449.287 98.7791Z" fill="#DEE4FC"/>
<path d="M486.031 101.571L483.734 102.601L494.66 126.963L496.956 125.933L486.031 101.571Z" fill="#DEE4FC"/>
<path d="M498.418 71.9912C499.033 70.2078 498.086 68.2633 496.303 67.6481C494.519 67.0329 492.575 67.9799 491.96 69.7633C491.344 71.5467 492.291 73.4912 494.075 74.1064C495.858 74.7216 497.803 73.7746 498.418 71.9912Z" fill="#191C4A"/>
<path d="M451.494 103.285C453.279 102.674 454.231 100.732 453.621 98.9469C453.01 97.1618 451.068 96.2096 449.283 96.8201C447.498 97.4306 446.546 99.3726 447.156 101.158C447.767 102.943 449.709 103.895 451.494 103.285Z" fill="#191C4A"/>
<path d="M498.886 127.28C499.42 125.47 498.386 123.571 496.576 123.037C494.766 122.504 492.867 123.538 492.333 125.348C491.8 127.157 492.834 129.057 494.644 129.59C496.453 130.124 498.353 129.089 498.886 127.28Z" fill="#191C4A"/>
<path d="M482.654 104.567C486.038 104.031 488.346 100.853 487.809 97.4689C487.272 94.0854 484.094 91.7776 480.71 92.3144C477.327 92.8512 475.019 96.0293 475.556 99.4129C476.093 102.796 479.271 105.104 482.654 104.567Z" fill="#F3C279"/>
<path d="M357.486 132.678H386.848V125.621H357.486V132.678Z" fill="#DEE4FC"/>
<path d="M486.966 163.741C490.411 163.741 493.204 160.948 493.204 157.503C493.204 154.058 490.411 151.265 486.966 151.265C483.521 151.265 480.729 154.058 480.729 157.503C480.729 160.948 483.521 163.741 486.966 163.741Z" fill="white"/>
<path d="M486.966 184.155C490.411 184.155 493.204 181.362 493.204 177.917C493.204 174.472 490.411 171.679 486.966 171.679C483.521 171.679 480.729 174.472 480.729 177.917C480.729 181.362 483.521 184.155 486.966 184.155Z" fill="#F3C279"/>
<path d="M370.307 183.386C370.263 183.386 370.218 183.372 370.18 183.344C370.081 183.274 370.058 183.136 370.129 183.038L373.625 178.165C373.696 178.067 373.833 178.044 373.932 178.115C374.03 178.186 374.053 178.323 373.982 178.421L370.486 183.294C370.443 183.354 370.376 183.386 370.307 183.386Z" fill="#10171B"/>
<path d="M370.323 172.946C370.279 172.946 370.234 172.932 370.195 172.904C370.096 172.834 370.074 172.697 370.145 172.598C370.97 171.449 371.795 170.299 372.62 169.15L373.625 167.748C373.696 167.65 373.833 167.627 373.932 167.698C374.03 167.769 374.053 167.906 373.982 168.004L372.976 169.406C372.152 170.555 371.327 171.705 370.501 172.854C370.459 172.914 370.391 172.946 370.323 172.946Z" fill="#10171B"/>
<path d="M370.339 162.591C370.294 162.591 370.249 162.578 370.211 162.55C370.112 162.479 370.09 162.342 370.16 162.243C371.316 160.634 372.471 159.024 373.625 157.415C373.696 157.316 373.833 157.294 373.931 157.364C374.03 157.435 374.053 157.572 373.982 157.671C372.828 159.28 371.672 160.89 370.517 162.499C370.474 162.559 370.407 162.591 370.339 162.591Z" fill="#10171B"/>
<path d="M370.354 152.405C370.31 152.405 370.265 152.392 370.226 152.364C370.128 152.293 370.105 152.156 370.176 152.058L373.625 147.25C373.696 147.152 373.833 147.129 373.932 147.2C374.03 147.271 374.053 147.408 373.982 147.506L370.533 152.314C370.49 152.373 370.422 152.405 370.354 152.405Z" fill="#10171B"/>
<path d="M370.368 143.06C370.323 143.06 370.279 143.046 370.24 143.018C370.141 142.948 370.119 142.811 370.19 142.712L371.121 141.414C371.956 140.251 372.791 139.088 373.625 137.925C373.695 137.826 373.833 137.804 373.931 137.874C374.03 137.945 374.052 138.082 373.981 138.18C373.148 139.344 372.313 140.507 371.478 141.67L370.546 142.968C370.503 143.028 370.436 143.06 370.368 143.06Z" fill="#10171B"/>
<path d="M145.171 211.595L519.037 211.595V201.01L145.171 201.01V211.595Z" fill="#191C4A"/>
<path d="M347.027 201.135H399.197V191.306H347.027V201.135Z" fill="url(#paint10_linear_2048_39929)"/>
<path d="M494.333 343.013H132.986V361.831H494.333V343.013Z" fill="#191C4A"/>
<path d="M146.738 343.013L134.795 361.831H132.986V358.981L143.12 343.013H146.738Z" fill="#0085F9"/>
<path d="M154.338 361.831H150.719L162.661 343.013H166.28L154.338 361.831Z" fill="#0085F9"/>
<path d="M173.881 361.831H170.262L182.204 343.013H185.823L173.881 361.831Z" fill="#0085F9"/>
<path d="M193.424 361.831H189.805L201.747 343.013H205.366L193.424 361.831Z" fill="#0085F9"/>
<path d="M212.967 361.831H209.348L221.29 343.013H224.909L212.967 361.831Z" fill="#0085F9"/>
<path d="M232.508 361.831H228.889L240.831 343.013H244.45L232.508 361.831Z" fill="#0085F9"/>
<path d="M252.051 361.831H248.432L260.374 343.013H263.993L252.051 361.831Z" fill="#0085F9"/>
<path d="M271.594 361.831H267.975L279.917 343.013H283.536L271.594 361.831Z" fill="#0085F9"/>
<path d="M291.135 361.831H287.516L299.458 343.013H303.077L291.135 361.831Z" fill="#0085F9"/>
<path d="M310.677 361.831H307.059L319.001 343.013H322.62L310.677 361.831Z" fill="#0085F9"/>
<path d="M330.22 361.831H326.602L338.544 343.013H342.163L330.22 361.831Z" fill="#0085F9"/>
<path d="M349.763 361.831H346.145L358.087 343.013H361.706L349.763 361.831Z" fill="#0085F9"/>
<path d="M369.304 361.831H365.686L377.628 343.013H381.247L369.304 361.831Z" fill="#0085F9"/>
<path d="M388.847 361.831H385.229L397.171 343.013H400.79L388.847 361.831Z" fill="#0085F9"/>
<path d="M408.39 361.831H404.771L416.714 343.013H420.333L408.39 361.831Z" fill="#0085F9"/>
<path d="M427.933 361.831H424.314L436.257 343.013H439.876L427.933 361.831Z" fill="#0085F9"/>
<path d="M447.474 361.831H443.855L455.798 343.013H459.417L447.474 361.831Z" fill="#0085F9"/>
<path d="M467.017 361.831H463.398L475.341 343.013H478.96L467.017 361.831Z" fill="#0085F9"/>
<path d="M494.333 343.881V349.581L486.559 361.831H482.941L494.333 343.881Z" fill="#0085F9"/>
<path d="M494.702 147.747H427.188C427.067 147.747 426.969 147.649 426.969 147.528C426.969 147.406 427.067 147.308 427.188 147.308H494.702C494.823 147.308 494.921 147.406 494.921 147.528C494.921 147.649 494.823 147.747 494.702 147.747Z" fill="#10171B"/>
<path d="M393.003 85.8024H364.841C364.719 85.8024 364.621 85.7042 364.621 85.5829C364.621 85.4617 364.72 85.3633 364.841 85.3633H393.003C393.124 85.3633 393.222 85.4615 393.222 85.5829C393.222 85.7042 393.124 85.8024 393.003 85.8024Z" fill="#10171B"/>
<path d="M268.337 298.477C268.275 298.477 268.213 298.451 268.17 298.4C268.091 298.308 268.102 298.169 268.194 298.091L315.844 257.558C315.937 257.48 316.075 257.491 316.154 257.583C316.232 257.676 316.221 257.814 316.129 257.893L268.479 298.425C268.438 298.46 268.387 298.477 268.337 298.477Z" fill="#10171B"/>
<path d="M300.907 182.812H229.613V201.149H300.907V182.812Z" fill="#3B3B4F"/>
<path d="M293.191 186.404H237.213C237.115 186.404 237.035 186.324 237.035 186.226C237.035 186.127 237.115 186.048 237.213 186.048H293.191C293.29 186.048 293.369 186.127 293.369 186.226C293.369 186.324 293.29 186.404 293.191 186.404Z" fill="#10171B"/>
<path d="M533.117 129.841C533.137 129.61 533.157 129.381 533.177 129.151H533.175V129.152C533.155 129.382 533.136 129.611 533.117 129.841Z" fill="#EDC9C4"/>
<path d="M532.602 132.285C532.613 132.287 532.624 132.288 532.635 132.29C532.735 132.294 532.834 132.298 532.93 132.302C532.875 132.3 532.821 132.297 532.767 132.294C532.74 132.292 532.712 132.291 532.685 132.29C532.657 132.288 532.629 132.287 532.602 132.285Z" fill="#EDC9C4"/>
<path d="M532.541 129.613C532.561 129.604 532.581 129.595 532.599 129.585C532.608 129.58 532.615 129.576 532.623 129.572L532.622 129.571C532.595 129.585 532.568 129.599 532.541 129.613Z" fill="#EDC9C4"/>
<path d="M532.365 129.68C532.425 129.661 532.483 129.64 532.54 129.613C532.483 129.639 532.425 129.661 532.365 129.68Z" fill="#EDC9C4"/>
<path d="M531.385 129.695C531.39 129.697 531.396 129.698 531.402 129.7C531.407 129.7 531.412 129.701 531.416 129.702C531.422 129.704 531.426 129.705 531.431 129.705C531.454 129.709 531.477 129.712 531.498 129.717C531.471 129.712 531.443 129.707 531.415 129.701C531.405 129.7 531.395 129.698 531.385 129.695Z" fill="#EDC9C4"/>
<path d="M516.211 127.112C516.215 127.169 516.223 127.229 516.235 127.285C516.246 127.332 516.259 127.377 516.274 127.423C516.283 127.449 516.293 127.476 516.304 127.502C516.717 127.739 517.159 127.983 517.632 128.228C519.562 129.234 521.992 130.278 524.881 131.063C525.222 131.155 525.559 131.242 525.892 131.321C528.365 131.773 530.826 132.088 532.601 132.284C532.63 132.287 532.657 132.288 532.685 132.289C532.712 132.291 532.74 132.292 532.767 132.294C532.821 132.297 532.875 132.299 532.93 132.302C532.834 132.298 532.735 132.294 532.635 132.289C532.736 132.301 532.835 132.312 532.929 132.322C533.129 132.343 533.317 132.365 533.494 132.382C533.509 132.383 533.523 132.384 533.536 132.386C533.716 132.404 533.884 132.421 534.039 132.437C534.602 132.492 534.993 132.525 535.157 132.54C535.217 132.545 535.245 132.547 535.245 132.547L535.352 132.353L535.933 131.279L538.303 126.891L538.322 126.858L539.812 124.098L540.064 123.632L540.366 123.073L541.246 121.446L541.323 121.304L541.51 120.958L543.201 117.825L543.683 116.935V116.933L545.57 113.444L545.624 113.344L544.432 111.617L544.351 111.501L540.752 106.289L540.75 106.288L535.607 98.8397C535.607 98.8397 535.605 98.8397 535.607 98.8384L531.048 92.242V92.2406L531.034 92.2222C531.034 92.2222 530.946 92.337 530.781 92.5567C529.269 94.5698 521.331 105.422 517.825 116.311C517.517 117.267 517.244 118.221 517.011 119.171C516.341 121.914 516.015 124.607 516.211 127.112ZM530.859 92.6303C530.859 92.6274 530.859 92.6246 530.858 92.6217C530.859 92.6246 530.861 92.6274 530.861 92.6303C530.873 92.6883 530.891 92.7677 530.912 92.8656C530.889 92.7679 530.872 92.6885 530.859 92.6303ZM530.848 92.5779C530.848 92.575 530.847 92.5708 530.847 92.568C530.847 92.5708 530.848 92.575 530.849 92.5779C530.849 92.5821 530.851 92.5878 530.852 92.5935C530.851 92.5878 530.849 92.5836 530.848 92.5779ZM530.863 92.4701C530.844 92.4956 530.834 92.5097 530.834 92.5097C530.834 92.5097 530.834 92.5126 530.835 92.5196C530.837 92.5253 530.838 92.531 530.841 92.5395C530.841 92.5437 530.842 92.5494 530.844 92.5564C530.842 92.5507 530.841 92.545 530.839 92.5395C530.838 92.5309 530.836 92.5239 530.835 92.5196C530.834 92.5126 530.832 92.5097 530.832 92.5097C530.832 92.5097 530.842 92.4956 530.863 92.4701ZM531.097 93.7162C531.103 93.7432 531.109 93.7701 531.114 93.7985C531.097 93.7204 531.08 93.6454 531.066 93.573C531.076 93.6199 531.087 93.6667 531.097 93.7162ZM531.331 94.7923C531.299 94.6462 531.269 94.5059 531.241 94.3713C531.27 94.5059 531.3 94.6462 531.331 94.7923ZM533.118 129.841C533.136 129.612 533.156 129.382 533.176 129.152C533.173 129.155 533.17 129.158 533.163 129.162L533.176 129.151H533.177C533.157 129.38 533.137 129.61 533.118 129.841ZM532.799 129.453C532.799 129.453 532.799 129.451 532.8 129.45H532.802C532.8 129.45 532.8 129.451 532.799 129.453ZM532.794 129.456C532.796 129.456 532.797 129.454 532.797 129.454L532.794 129.457V129.456ZM532.633 129.585L532.64 129.579C532.643 129.578 532.645 129.576 532.648 129.573L532.637 129.583C532.634 129.584 532.633 129.586 532.633 129.586V129.585ZM531.384 129.695C531.394 129.698 531.404 129.699 531.413 129.701C531.442 129.707 531.47 129.712 531.497 129.717C531.741 129.756 531.969 129.759 532.178 129.724C532.241 129.712 532.304 129.698 532.363 129.68H532.365C532.424 129.661 532.482 129.638 532.539 129.613H532.54C532.567 129.599 532.594 129.585 532.621 129.57L532.623 129.572C532.614 129.576 532.607 129.58 532.599 129.585C532.292 129.769 531.887 129.799 531.43 129.705C531.425 129.705 531.421 129.704 531.415 129.702C531.411 129.701 531.406 129.699 531.401 129.699C531.395 129.698 531.389 129.697 531.384 129.695ZM529.036 128.431C529.056 128.448 529.077 128.465 529.097 128.48C529.131 128.509 529.165 128.537 529.199 128.564C529.145 128.523 529.09 128.479 529.036 128.431ZM528.9 128.314C528.907 128.321 528.914 128.327 528.923 128.334V128.336C528.916 128.329 528.907 128.321 528.9 128.314ZM527.492 126.778H527.494C527.501 126.789 527.509 126.8 527.519 126.813C527.594 126.914 527.672 127.013 527.752 127.114C528.003 127.424 528.263 127.71 528.531 127.974C528.163 127.621 527.815 127.231 527.519 126.813C527.509 126.802 527.501 126.789 527.492 126.778ZM526.399 124.857C526.435 124.943 526.472 125.03 526.51 125.118C526.47 125.03 526.432 124.943 526.399 124.857ZM526.182 122.16C526.238 122.044 526.306 121.939 526.388 121.847L526.375 121.833V121.831L526.538 121.702V121.704L526.377 121.833L526.389 121.847C526.307 121.939 526.239 122.044 526.182 122.16Z" fill="#DEE4FC"/>
<path d="M528.947 128.355C529.073 128.466 529.201 128.569 529.329 128.666C529.252 128.606 529.174 128.545 529.098 128.48C529.048 128.441 528.997 128.398 528.947 128.355Z" fill="#EDC9C4"/>
<path d="M528.9 128.314C528.907 128.322 528.916 128.329 528.923 128.336V128.334C528.915 128.327 528.907 128.322 528.9 128.314Z" fill="#EDC9C4"/>
<path d="M526.184 122.16C526.24 122.044 526.308 121.939 526.391 121.847L526.378 121.833H526.376L526.389 121.847C526.307 121.939 526.239 122.044 526.184 122.16Z" fill="#EDC9C4"/>
<path d="M526.055 122.54C526.084 122.404 526.127 122.277 526.182 122.162C526.126 122.278 526.084 122.404 526.055 122.54Z" fill="#EDC9C4"/>
<path d="M532.602 132.505C532.599 132.505 532.594 132.505 532.591 132.505C529.886 132.362 527.182 131.953 524.555 131.289C524.437 131.259 524.366 131.14 524.395 131.023C524.425 130.905 524.544 130.834 524.662 130.864C527.262 131.52 529.937 131.925 532.614 132.066C532.735 132.073 532.828 132.176 532.821 132.297C532.815 132.414 532.718 132.505 532.602 132.505Z" fill="#191C4A"/>
<path d="M498.875 132.212C504.672 130.635 510.467 129.057 516.264 127.479C516.278 127.487 516.291 127.494 516.305 127.502C518.4 128.706 521.284 130.085 524.882 131.063C525.224 131.155 525.56 131.241 525.893 131.321C528.446 131.936 530.743 132.195 532.637 132.289C532.737 132.3 532.836 132.312 532.93 132.322C533.13 132.343 533.319 132.364 533.496 132.381C534.351 132.47 534.945 132.52 535.159 132.54C535.218 132.544 535.246 132.547 535.246 132.547L535.353 132.353L535.934 131.278L538.304 126.891L538.323 126.858L539.813 124.098L540.065 123.631L540.367 123.073L541.247 121.445L541.511 120.958C541.738 121.63 541.951 122.306 542.15 122.986C542.153 122.987 542.155 122.99 542.153 122.993C542.771 125.144 543.317 127.474 543.299 129.689C542.02 139.561 533.897 140.024 525.755 141.026L503.601 143.195C502.297 143.321 500.59 143.488 498.875 143.657V132.212Z" fill="url(#paint11_linear_2048_39929)"/>
<path d="M533.117 129.841C533.137 129.61 533.157 129.38 533.177 129.15H533.175V129.152C533.155 129.381 533.136 129.611 533.117 129.841Z" fill="#DEE4FC"/>
<path d="M533.008 131.236C532.988 131.494 532.97 131.753 532.951 132.011C532.953 131.986 532.955 131.963 532.957 131.938C532.974 131.704 532.99 131.468 533.008 131.236Z" fill="#DEE4FC"/>
<path d="M532.799 129.452C532.8 129.451 532.8 129.449 532.802 129.449H532.8C532.799 129.451 532.799 129.452 532.799 129.452Z" fill="#DEE4FC"/>
<path d="M531.385 129.695C531.39 129.696 531.396 129.698 531.402 129.699C531.407 129.699 531.412 129.7 531.416 129.702C531.422 129.703 531.426 129.705 531.431 129.705C531.888 129.798 532.293 129.768 532.6 129.584C532.608 129.58 532.615 129.576 532.624 129.571L532.622 129.57C532.595 129.584 532.568 129.598 532.541 129.613H532.54C532.483 129.638 532.425 129.661 532.366 129.679H532.364C532.305 129.698 532.242 129.712 532.179 129.723C531.97 129.759 531.742 129.756 531.498 129.716C531.471 129.712 531.443 129.706 531.415 129.7C531.405 129.699 531.395 129.698 531.385 129.695Z" fill="#DEE4FC"/>
<path d="M528.947 128.355C529.073 128.466 529.201 128.569 529.329 128.665C529.252 128.606 529.174 128.545 529.098 128.48C529.048 128.44 528.997 128.397 528.947 128.355Z" fill="#DEE4FC"/>
<path d="M528.9 128.314C528.907 128.321 528.916 128.328 528.923 128.335V128.334C528.915 128.327 528.907 128.321 528.9 128.314Z" fill="#DEE4FC"/>
<path d="M528.875 128.293C528.798 128.226 528.722 128.154 528.646 128.084C528.649 128.086 528.652 128.089 528.654 128.091C528.728 128.161 528.802 128.228 528.875 128.293Z" fill="#DEE4FC"/>
<path d="M527.52 126.813C527.816 127.231 528.163 127.621 528.532 127.974C528.264 127.71 528.003 127.424 527.752 127.113C527.673 127.013 527.595 126.913 527.52 126.813Z" fill="#DEE4FC"/>
<path d="M526.184 122.16C526.24 122.043 526.308 121.939 526.391 121.846L526.378 121.832H526.376L526.389 121.846C526.307 121.939 526.239 122.044 526.184 122.16Z" fill="#DEE4FC"/>
<path d="M526.182 122.161C526.126 122.278 526.084 122.404 526.055 122.54C526.084 122.404 526.127 122.276 526.182 122.161Z" fill="#DEE4FC"/>
<path d="M516.305 127.501C516.356 127.633 516.428 127.761 516.519 127.886C516.619 128.022 516.74 128.154 516.883 128.281C516.944 128.309 517.006 128.341 517.07 128.369C518.865 129.217 521 130.069 523.457 130.765C523.465 130.766 523.471 130.769 523.481 130.771H523.482C523.861 130.881 524.238 130.979 524.609 131.074C525.035 131.16 525.464 131.243 525.892 131.321C525.559 131.241 525.223 131.155 524.882 131.063C521.283 130.084 518.4 128.707 516.305 127.501Z" fill="#DEE4FC"/>
<path d="M533.162 129.162C533.169 129.157 533.172 129.155 533.175 129.152C533.176 129.15 533.176 129.15 533.176 129.15H533.175L533.162 129.162Z" fill="url(#paint12_linear_2048_39929)"/>
<path d="M532.957 131.938C532.974 131.704 532.989 131.468 533.008 131.236C532.988 131.494 532.97 131.753 532.951 132.011C532.953 131.986 532.956 131.963 532.957 131.938Z" fill="url(#paint13_linear_2048_39929)"/>
<path d="M532.951 132.021V132.011C532.947 132.057 532.944 132.101 532.941 132.146C532.946 132.105 532.948 132.062 532.951 132.021Z" fill="url(#paint14_linear_2048_39929)"/>
<path d="M532.799 129.452C532.8 129.451 532.8 129.449 532.802 129.449H532.8C532.799 129.451 532.799 129.452 532.799 129.452Z" fill="url(#paint15_linear_2048_39929)"/>
<path d="M532.699 129.532C532.725 129.512 532.752 129.49 532.77 129.475L532.699 129.532Z" fill="url(#paint16_linear_2048_39929)"/>
<path d="M532.633 129.584V129.586C532.633 129.586 532.634 129.584 532.637 129.583C532.637 129.581 532.639 129.58 532.64 129.579L532.633 129.584Z" fill="url(#paint17_linear_2048_39929)"/>
<path d="M531.414 129.7L531.415 129.702C531.421 129.703 531.425 129.705 531.431 129.705C531.887 129.798 532.293 129.768 532.599 129.584C532.608 129.58 532.615 129.574 532.622 129.57C532.595 129.584 532.568 129.598 532.541 129.613H532.54C532.483 129.638 532.425 129.661 532.365 129.679H532.364C532.304 129.698 532.242 129.712 532.178 129.723C531.97 129.759 531.741 129.756 531.498 129.716C531.471 129.712 531.442 129.706 531.414 129.7Z" fill="url(#paint18_linear_2048_39929)"/>
<path d="M531.385 129.695C531.39 129.696 531.396 129.698 531.402 129.699C531.406 129.7 531.41 129.7 531.415 129.7C531.405 129.699 531.395 129.698 531.385 129.695Z" fill="url(#paint19_linear_2048_39929)"/>
<path d="M528.875 128.293C528.798 128.226 528.722 128.154 528.646 128.084C528.649 128.086 528.652 128.089 528.654 128.091C528.728 128.161 528.802 128.228 528.875 128.293Z" fill="url(#paint20_linear_2048_39929)"/>
<path d="M527.52 126.813C527.816 127.231 528.163 127.621 528.532 127.974C528.264 127.71 528.003 127.424 527.752 127.113C527.673 127.013 527.595 126.913 527.52 126.813Z" fill="url(#paint21_linear_2048_39929)"/>
<path d="M527.492 126.777C527.501 126.788 527.509 126.801 527.519 126.813C527.509 126.8 527.501 126.788 527.494 126.777H527.492Z" fill="url(#paint22_linear_2048_39929)"/>
<path d="M606.856 328.267L612.383 356.246C601.531 357.038 590.678 357.83 579.826 358.622C583.447 356.921 589.723 353.225 592.093 346.393C592.517 345.171 592.714 344.143 592.86 343.365C594.5 334.619 591.281 326.638 591.319 326.632C591.326 326.631 591.341 326.683 591.365 326.795L606.856 328.267Z" fill="url(#paint23_linear_2048_39929)"/>
<path d="M572.465 361.612C573.579 359.547 574.809 358.211 575.685 357.395C580.338 353.063 585.194 353.928 589.585 349.425C590.815 348.163 591.583 346.918 592.016 346.125C594.589 345.854 597.276 345.632 600.072 345.475C603.61 345.276 606.993 345.199 610.203 345.214C611.45 350.629 612.696 356.044 613.943 361.459C600.117 361.51 586.291 361.561 572.465 361.612Z" fill="#191C4A"/>
<path d="M580.112 142.661L613.402 338.087C613.402 338.087 603.748 339.662 600.452 340.077C590.959 341.272 584.342 340.257 584.342 340.257L546.6 163.983L580.112 142.661Z" fill="#191C4A"/>
<path d="M536.073 330.606L535.452 359.878L496.283 361.727C496.283 361.727 498.241 353.943 515.106 351.287C516.88 351.007 518.221 349.533 518.343 347.742C518.746 341.774 519.792 329.372 519.792 329.372L536.073 330.606Z" fill="url(#paint24_linear_2048_39929)"/>
<path d="M496.287 361.712C496.287 361.712 496.287 361.712 496.288 361.709C496.289 361.705 496.291 361.699 496.293 361.693C496.293 361.691 496.294 361.689 496.295 361.686C496.296 361.68 496.299 361.673 496.301 361.665C496.302 361.662 496.303 361.658 496.304 361.654C496.307 361.646 496.31 361.637 496.313 361.626C496.314 361.623 496.316 361.619 496.317 361.616C496.321 361.604 496.325 361.592 496.329 361.579C496.33 361.577 496.33 361.575 496.331 361.574C496.358 361.494 496.399 361.385 496.457 361.251C496.458 361.249 496.459 361.246 496.46 361.244C496.471 361.218 496.483 361.191 496.495 361.163C496.496 361.161 496.497 361.159 496.498 361.157C497.324 359.316 501 353.508 515.106 351.287C516.721 351.032 517.974 349.787 518.278 348.214C524.018 348.559 529.984 348.511 535.79 348.459C535.646 353.119 535.502 357.78 535.358 362.441C510.733 361.987 496.286 361.719 496.287 361.712Z" fill="#191C4A"/>
<path d="M564.424 149.539L542.079 342.432C542.079 342.432 534.508 343.088 528.766 342.5C524.038 342.017 511.262 340.473 511.262 340.473L530.514 163.748L564.424 149.539Z" fill="#191C4A"/>
<path d="M551.876 42.2487C548.995 42.2973 546.138 41.7349 543.258 41.6085C535.826 41.2824 529.214 47.8753 533.982 55.101C536.095 58.3032 539.926 60.093 543.748 60.4264C547.57 60.7599 551.397 59.7944 554.983 58.4312C560.819 56.2131 561.523 50.9369 561.545 45.2778C561.548 44.6331 561.804 43.4947 561.429 42.991C560.946 42.3441 559.172 42.1688 558.439 42.082C556.259 41.824 554.057 42.2118 551.876 42.2487Z" fill="#191C4A"/>
<path d="M553.395 73.1313C562.414 73.1313 569.725 65.82 569.725 56.801C569.725 47.782 562.414 40.4707 553.395 40.4707C544.376 40.4707 537.064 47.782 537.064 56.801C537.064 65.82 544.376 73.1313 553.395 73.1313Z" fill="#191C4A"/>
<path d="M564.175 62.1868C563.849 65.1982 563.47 72.794 568.278 79.3739C569.349 80.8392 570.514 82.0308 571.647 82.9963C567.034 86.5533 562.421 90.1102 557.808 93.6672C557.677 93.9181 544.252 94.5847 542.648 88.1679C542.97 87.8567 548.307 86.4886 551.19 84.3212C551.964 83.448 553.824 80.6962 550.194 70.5129C550.646 69.9508 560.899 63.2195 560.899 63.2195L564.175 62.1868Z" fill="url(#paint25_linear_2048_39929)"/>
<path d="M550.771 72.2101C552.208 71.0936 554.666 69.1953 556.195 67.7251C558.074 67.9671 560.84 68.3623 560.84 68.3623C560.84 68.3623 558.545 75.7266 552.191 78.0599C551.977 76.5108 551.54 74.591 550.771 72.2101Z" fill="#191C4A"/>
<path d="M547.481 46.5975C544.835 47.4314 542.416 49.6218 540.902 51.8878C539.979 53.2682 539.358 54.8072 539.228 56.4646C539.054 58.6799 540.142 60.6935 540.069 62.8875C540.03 64.0308 539.628 65.1304 539.486 66.2654C539.115 69.2098 540.635 72.2578 543.1 73.9106C549.834 78.4264 558.408 72.53 562 66.7005C563.782 63.8077 564.699 60.2985 563.651 56.9746C561.2 49.2006 553.96 44.5545 547.481 46.5975Z" fill="url(#paint26_linear_2048_39929)"/>
<path d="M557.015 64.778C557.582 63.1585 556.729 61.3857 555.11 60.8184C553.49 60.2511 551.718 61.1041 551.15 62.7236C550.583 64.3431 551.436 66.1159 553.055 66.6832C554.675 67.2505 556.448 66.3975 557.015 64.778Z" fill="#FB6B4E"/>
<path d="M551.4 58.2331C551.111 58.6729 550.096 58.4508 549.03 58.4855C547.964 58.4628 546.951 58.6961 546.658 58.2597C546.344 57.8487 547.318 56.5484 549.019 56.5349C550.721 56.5295 551.71 57.8186 551.4 58.2331Z" fill="#191C4A"/>
<path d="M542.544 58.788C542.256 59.2279 541.241 59.0057 540.175 59.0404C539.109 59.0178 538.096 59.2511 537.803 58.8146C537.488 58.4037 538.463 57.1033 540.164 57.0899C541.865 57.0844 542.855 58.3734 542.544 58.788Z" fill="#191C4A"/>
<path d="M548.829 61.0289C548.933 61.3582 548.75 61.7093 548.421 61.8131C548.092 61.917 547.74 61.7342 547.637 61.4049C547.533 61.0756 547.715 60.7245 548.045 60.6207C548.374 60.5168 548.725 60.6996 548.829 61.0289Z" fill="#191C4A"/>
<path d="M542.134 61.8282C542.238 62.1576 542.055 62.5086 541.725 62.6125C541.396 62.7163 541.045 62.5335 540.941 62.2042C540.837 61.8749 541.02 61.5238 541.349 61.42C541.679 61.3161 542.03 61.4989 542.134 61.8282Z" fill="#191C4A"/>
<path d="M543.738 67.1624C543.304 67.1624 542.894 67.0159 542.594 66.7453C542.157 66.35 542.011 65.7018 542.246 65.2042C542.406 64.8664 542.696 64.6488 542.976 64.4383C543.239 64.2403 543.487 64.0533 543.585 63.7914C543.64 63.6429 543.646 63.473 543.649 63.2663C543.659 62.1399 543.617 60.9993 543.524 59.876C543.514 59.7552 543.604 59.6491 543.725 59.6391C543.843 59.6301 543.952 59.7187 543.962 59.8396C544.056 60.9764 544.099 62.1306 544.088 63.2706C544.086 63.4675 544.083 63.7124 543.997 63.9448C543.854 64.3269 543.542 64.562 543.239 64.7892C542.991 64.9758 542.757 65.1521 542.643 65.3917C542.491 65.7134 542.597 66.1552 542.889 66.4196C543.166 66.6704 543.601 66.7765 544.023 66.6962C544.143 66.673 544.257 66.7518 544.28 66.871C544.303 66.9901 544.224 67.1049 544.105 67.1276C543.982 67.151 543.859 67.1624 543.738 67.1624Z" fill="#10171B"/>
<path d="M553.724 52.3507C548.835 55.3317 542.78 55.4201 537.055 55.4205C536.862 55.4205 536.654 55.4157 536.499 55.2998C536.323 55.167 536.269 54.928 536.242 54.7084C536.091 53.4694 536.417 52.2093 536.959 51.085C538.252 48.4026 540.749 46.4281 543.508 45.3075C546.267 44.187 549.284 43.85 552.262 43.8044C553.885 43.7796 559.462 43.848 559.925 46.101C560.138 47.1396 558.052 48.7651 557.396 49.4117C556.277 50.5137 555.068 51.5314 553.724 52.3507Z" fill="#191C4A"/>
<path d="M555.33 54.2302C557.63 56.1134 559.931 57.9966 562.231 59.8798C562.564 60.1519 563.023 60.436 563.388 60.2087C563.58 60.0888 563.671 59.8612 563.744 59.6468C565.186 55.3727 563.492 50.2427 559.789 47.6673C558.422 46.7168 556.715 46.0887 555.091 46.4582C550.404 47.5251 552.993 52.3173 555.33 54.2302Z" fill="#191C4A"/>
<path d="M557.947 62.3534C557.947 62.3534 565.748 55.4183 567.368 60.7455C567.788 62.499 567.409 68.5732 560.115 65.7335C560.148 65.5536 557.947 62.3534 557.947 62.3534Z" fill="url(#paint27_linear_2048_39929)"/>
<path d="M562.59 64.4795C562.546 64.4795 562.501 64.4662 562.463 64.4384C562.364 64.3677 562.342 64.2306 562.412 64.1321L565.52 59.7959C565.591 59.6971 565.728 59.6747 565.827 59.7452C565.925 59.8159 565.948 59.953 565.877 60.0515L562.769 64.3878C562.726 64.4478 562.659 64.4795 562.59 64.4795Z" fill="#10171B"/>
<path d="M565.389 63.5973C565.333 63.5973 565.278 63.5764 565.235 63.5346L564.021 62.3441C563.934 62.2593 563.933 62.1202 564.018 62.0336C564.103 61.9469 564.242 61.9458 564.328 62.0305L565.543 63.221C565.629 63.3058 565.631 63.4449 565.546 63.5315C565.503 63.5753 565.446 63.5973 565.389 63.5973Z" fill="#10171B"/>
<path d="M546.089 70.7171C545.65 70.7171 545.368 70.6703 545.359 70.6686C545.24 70.6475 545.16 70.5337 545.181 70.4146C545.202 70.2953 545.315 70.2153 545.435 70.2362C545.465 70.2413 548.374 70.7184 550.012 68.3804C550.081 68.2811 550.218 68.2572 550.317 68.3265C550.417 68.3961 550.441 68.5329 550.371 68.6323C549.1 70.4467 547.142 70.7171 546.089 70.7171Z" fill="#10171B"/>
<path d="M530.396 164.248C530.396 164.248 530.416 164.248 530.459 164.251C531.175 164.27 537.985 164.445 546.673 164.328H546.674C551.688 164.261 557.328 164.098 562.779 163.751C568.32 163.398 573.666 162.855 577.96 162.034C579.957 161.653 581.727 161.209 583.185 160.699C583.298 160.659 583.408 160.618 583.518 160.578C583.552 160.365 583.647 159.781 583.791 158.881C583.816 158.731 583.84 158.582 583.864 158.432C583.879 158.341 583.894 158.249 583.909 158.158C584.108 156.932 584.308 155.704 584.506 154.479C585.029 151.248 585.724 146.968 586.502 142.164C586.961 139.336 587.449 136.323 587.948 133.24C588.301 131.059 588.66 128.842 589.018 126.626C589.652 122.712 590.284 118.802 590.881 115.106C590.881 115.105 590.881 115.104 590.881 115.104C592.553 104.757 593.946 96.0927 594.311 93.7209C594.311 93.7195 594.311 93.7195 594.311 93.7195C593.922 93.0886 593.469 92.5302 592.953 92.0552C592.951 92.0552 592.951 92.0552 592.951 92.0538C592.257 91.5817 591.559 91.1337 590.864 90.7112C586.981 88.3437 583.138 86.7106 579.899 85.5496C577.954 84.8549 576.226 84.3275 574.839 83.9164C574.821 83.9107 574.801 83.905 574.782 83.8995C573.206 83.4317 572.073 83.1113 571.567 82.8533C571.563 82.8561 571.56 82.859 571.556 82.8618L571.554 82.8632C569.421 84.2029 566.756 84.7132 564.133 84.8607C562.693 84.9416 561.266 84.9117 559.947 84.8522C559.721 84.8408 559.493 84.8295 559.265 84.8153C559.201 84.8124 559.137 84.8096 559.073 84.8053C559.069 84.8025 559.065 84.8025 559.062 84.8025C558.288 84.7543 557.511 84.6877 556.737 84.6012C556.72 84.5999 556.703 84.5984 556.686 84.5955C556.669 84.5942 556.652 84.5927 556.636 84.5913C556.615 84.5885 556.592 84.5856 556.571 84.5828C555.176 84.4211 553.791 84.1957 552.426 83.8867C552.172 83.83 551.917 83.7719 551.662 83.7081C551.653 83.7068 551.645 83.7068 551.635 83.7039C551.595 83.7011 551.554 83.6954 551.514 83.6925C548.237 83.3353 545.302 83.7152 542.743 84.4836H542.742C542.681 84.502 542.62 84.5205 542.559 84.5403C542.497 84.5601 542.436 84.5799 542.373 84.5999C542.169 84.6652 541.958 84.7374 541.744 84.8125C541.623 84.855 541.504 84.8976 541.385 84.9416C541.297 84.9742 541.208 85.0067 541.119 85.0408C541.009 85.0833 540.899 85.1259 540.788 85.1712C540.669 85.218 540.55 85.2662 540.434 85.3172C540.252 85.3938 540.07 85.4732 539.884 85.5568C539.786 85.6008 539.688 85.6447 539.592 85.6914C539.562 85.7055 539.534 85.7183 539.504 85.7325C539.478 85.7438 539.454 85.7565 539.429 85.7679C539.324 85.8176 539.22 85.87 539.118 85.9197C539.074 85.941 539.03 85.9621 538.987 85.9848C538.906 86.0246 538.826 86.0657 538.747 86.1067C538.711 86.1251 538.676 86.1421 538.642 86.1606C538.621 86.1718 538.601 86.1819 538.581 86.1931C538.473 86.2499 538.368 86.3079 538.263 86.3632C538.254 86.3689 538.242 86.3744 538.232 86.3801C538.22 86.3872 538.205 86.3929 538.194 86.4014C538.186 86.4057 538.176 86.4114 538.167 86.4171C538.065 86.4738 537.964 86.5305 537.865 86.5871C537.813 86.6168 537.759 86.648 537.706 86.6779C537.643 86.7133 537.579 86.7502 537.518 86.7885C537.404 86.8565 537.292 86.9246 537.182 86.9926C537.145 87.0139 537.109 87.0366 537.074 87.0577C536.972 87.1215 536.873 87.184 536.776 87.2462V87.2476C533.636 89.255 531.67 91.4836 531.048 92.2406V92.2419C530.958 92.3497 530.897 92.4277 530.863 92.4702C530.844 92.4957 530.834 92.5098 530.834 92.5098C530.834 92.5098 530.834 92.5127 530.835 92.5197C530.837 92.5239 530.838 92.5311 530.839 92.5395H530.841C530.841 92.5437 530.842 92.5494 530.844 92.5565C530.845 92.5594 530.845 92.5636 530.846 92.5679C530.846 92.5707 530.848 92.575 530.848 92.5778H530.849C530.849 92.582 530.851 92.5877 530.852 92.5934C530.853 92.602 530.856 92.6119 530.858 92.6218C530.859 92.6246 530.859 92.6275 530.859 92.6303H530.86C530.873 92.6884 530.89 92.7678 530.911 92.8656C530.941 92.9989 530.978 93.1676 531.021 93.366C531.033 93.4199 531.045 93.4766 531.057 93.5347C531.06 93.5475 531.063 93.5602 531.066 93.573C531.076 93.6198 531.087 93.6665 531.097 93.7162C531.141 93.9146 531.188 94.1329 531.24 94.3711C531.27 94.5057 531.3 94.646 531.331 94.7921C532.184 98.7247 533.82 106.389 533.686 106.692C533.888 109.532 533.986 112.572 534.002 115.724C534.006 116.427 534.006 117.136 534.003 117.849C533.996 119.116 533.976 120.397 533.947 121.684C533.893 124.023 533.805 126.386 533.691 128.737C533.636 129.862 533.575 130.985 533.51 132.102C533.507 132.176 533.501 132.25 533.499 132.325C533.497 132.343 533.494 132.362 533.494 132.382C533.493 132.4 533.492 132.418 533.492 132.437C533.477 132.671 533.463 132.903 533.449 133.136C533.414 133.714 533.377 134.29 533.339 134.862C533.222 136.601 533.098 138.313 532.964 139.985C532.869 141.188 532.772 142.369 532.671 143.523C532.589 144.449 532.506 145.357 532.424 146.244C531.525 155.885 530.55 163.131 530.413 164.13C530.411 164.144 530.408 164.158 530.407 164.173C530.405 164.19 530.404 164.205 530.4 164.221C530.399 164.23 530.398 164.24 530.396 164.248Z" fill="#DEE4FC"/>
<path d="M563.985 85.0164C563.985 85.0164 563.984 85.0164 563.983 85.0164C556.198 84.8852 551.674 83.8644 551.63 83.8541C551.549 83.8355 551.499 83.7555 551.517 83.6752C551.536 83.5949 551.617 83.5448 551.696 83.5631C551.741 83.5733 556.238 84.5874 563.988 84.7179C564.071 84.7194 564.136 84.7872 564.135 84.8696C564.133 84.9513 564.067 85.0164 563.985 85.0164Z" fill="#191C4A"/>
<path d="M535.721 114.223C535.4 109.565 535.301 104.345 535.616 98.6653C535.843 94.5708 536.257 90.7533 536.776 87.2465C537.552 86.7464 538.462 86.2245 539.504 85.7324C540.676 85.179 541.774 84.7778 542.743 84.4835C542.369 86.5385 541.966 89.043 541.616 91.9099C541.17 95.573 540.99 98.3475 540.951 98.9906C540.699 103.127 540.683 107.311 540.901 111.46L567.848 112.658C568.918 108.804 569.959 104.847 570.962 100.787C572.391 95.0092 573.658 89.3745 574.783 83.8987C576.488 84.4494 578.193 85 579.899 85.5507C578.793 90.9022 577.55 96.4144 576.151 102.071C574.954 106.913 573.706 111.607 572.422 116.149L571.846 118.186L535.898 116.589L535.721 114.223Z" fill="#0085F9"/>
<path d="M514.963 261.901C525.516 264.412 538.168 266.642 552.554 267.645C566.565 268.622 579.097 268.217 589.69 267.255C587.679 250.538 585.749 233.81 583.9 217.072C581.815 198.191 579.833 179.298 577.955 160.393C579.9 159.888 581.847 159.385 583.793 158.88C584.03 157.414 584.269 155.945 584.507 154.48C582.161 154.598 579.816 154.717 577.47 154.835C573.397 141.843 571.919 126.376 573.249 113.177C560.675 112.447 548.101 111.719 535.527 110.99C534.326 117.891 533.451 124.961 532.952 132.021C532.787 142.859 532.129 154.478 530.407 164.173C527.611 181.906 521.539 216.926 514.963 261.901Z" fill="#0085F9"/>
<path d="M542.021 118.955C542.393 122.663 543.299 125.986 545.414 126.66C548.731 127.718 553.035 121.998 553.945 122.684C554.633 123.201 552.982 127.103 545.982 138.338C545.947 138.394 545.912 138.45 545.876 138.506C547.668 139.133 550.299 139.961 553.564 140.648C556.754 141.319 558.347 141.655 560.117 141.53C564.71 141.207 568.099 138.746 569.819 137.497C571.665 136.158 572.867 134.889 573.343 134.381C579.843 127.449 590.041 116.048 590.881 115.107C590.881 115.105 590.881 115.104 590.881 115.104C592.828 111.92 593.98 109.599 594.14 109.27C596.627 103.442 596.565 97.3785 594.311 93.721C594.311 93.7196 594.311 93.7196 594.311 93.7196C593.922 93.0887 593.468 92.5302 592.952 92.0553C592.951 92.0553 592.951 92.0553 592.951 92.0539C592.886 91.9958 592.821 91.9376 592.754 91.8809C592.205 91.4144 591.57 91.0232 590.864 90.7113C587.677 89.3022 583.061 89.5063 578.576 91.7306C576.245 92.8846 573.95 94.5844 571.907 96.8852C571.057 97.8421 570.25 98.9054 569.503 100.076C566.919 103.007 562.412 108.115 558.759 112.254C558.744 112.27 558.734 112.281 558.726 112.291C558.705 112.317 558.689 112.334 558.689 112.334C558.647 112.382 554.487 116.966 553.228 118.007C552.687 118.455 552.042 118.775 551.336 118.995C549.435 119.583 547.084 119.443 545.057 119.109C544.247 119.087 543.421 119.051 542.579 118.995C542.392 118.982 542.206 118.97 542.021 118.955Z" fill="#DEE4FC"/>
<path d="M488.669 130.767C489.291 131.883 490.732 132.621 491.343 132.236C491.887 131.89 491.347 130.922 491.801 129.555C492.242 128.224 493.416 127.151 494.492 126.742C496.37 126.033 497.743 127.103 500.733 128.298C503.541 129.419 505.55 128.303 508.246 128.488C508.696 128.517 510.429 128.792 512.281 129.098L537.602 135.584C538.919 134.189 540.967 131.659 542.295 127.95C543.376 124.931 543.576 122.261 543.564 120.495C537.747 119.516 531.338 118.729 524.409 118.308C519.942 118.036 515.685 117.942 511.668 117.98L511.634 118.009L507.352 117.65C507.352 117.65 501.513 114.142 494.968 115.316C493.259 115.624 495.595 122.749 495.613 122.718C494.877 122.863 490.042 123.887 488.703 127.466C488.499 128.011 487.947 129.481 488.669 130.767Z" fill="url(#paint28_linear_2048_39929)"/>
<path d="M495.125 121.263C495.144 119.682 494.793 117.991 494.036 116.576C493.387 117.031 492.984 117.306 492.992 117.284C488.04 118.733 485.943 123.914 486.097 123.656C485.057 125.727 485.312 126.84 485.573 127.365C485.707 127.633 485.937 127.843 486.211 127.964C487.918 128.718 489.102 126.718 489.305 126.203C491.77 121.116 493.936 120.914 495.125 121.263Z" fill="url(#paint29_linear_2048_39929)"/>
<path d="M496.048 119.784C496.645 118.568 496.55 117.832 496.353 117.384C495.946 116.46 494.703 115.859 494.884 115.425C494.907 115.37 494.946 115.334 494.968 115.316C493.084 115.655 491.738 116.276 490.85 116.785C488.694 118.024 486.707 120.07 486.7 120.063C486.7 120.062 486.711 120.053 486.709 120.055C485.222 121.834 485.215 122.976 485.349 123.547C485.417 123.838 485.593 124.095 485.832 124.275C487.32 125.399 488.933 123.721 489.249 123.266C492.816 118.875 494.971 119.173 496.048 119.784Z" fill="url(#paint30_linear_2048_39929)"/>
<path d="M495.626 123.402C495.656 122.378 495.522 121.302 495.209 120.294C495.012 119.66 494.322 119.408 493.7 119.644C493.697 119.645 493.695 119.645 493.696 119.644C489.039 120.918 486.991 125.731 487.139 125.492C486.132 127.413 486.352 128.459 486.588 128.954C486.708 129.207 486.92 129.407 487.174 129.525C488.759 130.259 489.901 128.407 490.099 127.928C492.49 123.208 494.52 123.055 495.626 123.402Z" fill="url(#paint31_linear_2048_39929)"/>
<path d="M488.706 129.377C488.682 129.377 488.657 129.373 488.633 129.365C488.519 129.325 488.459 129.199 488.499 129.085C488.853 128.079 489.571 126.606 490.987 125.296C492.479 123.914 494.099 123.308 495.195 123.042C495.312 123.014 495.432 123.086 495.46 123.204C495.489 123.322 495.417 123.441 495.299 123.469C494.253 123.722 492.708 124.3 491.285 125.618C489.936 126.867 489.251 128.272 488.913 129.231C488.881 129.321 488.796 129.377 488.706 129.377Z" fill="#10171B"/>
<path d="M487.207 125.823C487.181 125.823 487.154 125.818 487.125 125.809C487.05 125.786 486.965 125.715 486.954 125.586C486.944 125.465 487.033 125.359 487.154 125.348C487.157 125.348 487.161 125.348 487.164 125.348C487.249 125.255 487.395 125.074 487.536 124.896C488.636 123.523 491.211 120.308 494.668 120.215C494.796 120.213 494.891 120.307 494.894 120.428C494.897 120.55 494.801 120.651 494.68 120.654C491.426 120.741 488.941 123.845 487.879 125.171C487.485 125.662 487.357 125.823 487.207 125.823Z" fill="#10171B"/>
<path d="M487.665 122.291C487.626 122.291 487.586 122.28 487.551 122.259C487.447 122.195 487.414 122.061 487.477 121.957C487.579 121.79 490.02 117.855 494.42 116.949C494.539 116.925 494.655 117.001 494.679 117.12C494.704 117.239 494.627 117.355 494.509 117.379C490.3 118.246 487.876 122.146 487.852 122.186C487.811 122.253 487.739 122.291 487.665 122.291Z" fill="#10171B"/>
<path d="M531.721 134.133C535.343 135.695 540.166 137.371 545.984 138.338C547.396 138.573 548.867 138.766 550.394 138.905C554.613 139.29 558.408 139.188 561.629 138.883C561.635 136.091 561.306 126.856 554.573 121.158C553.69 120.41 552.624 119.661 551.337 118.995C551.324 118.988 551.31 118.981 551.297 118.974C549.364 119.11 547.277 119.169 545.058 119.108C544.249 119.087 543.422 119.05 542.58 118.995C542.393 118.982 542.207 118.969 542.023 118.955C540.924 118.873 539.864 118.765 538.842 118.638C538.446 118.431 538.036 118.554 537.916 118.798C537.808 119.013 537.95 119.273 537.97 119.307H537.971C538.195 124.448 536.492 129.911 531.721 134.133Z" fill="#DEE4FC"/>
<path d="M531.848 134.609C531.828 134.609 531.809 134.606 531.789 134.601C529.122 133.854 526.409 133.119 523.727 132.417C519.576 131.331 515.352 130.286 511.174 129.31C511.056 129.283 510.982 129.165 511.01 129.047C511.037 128.929 511.154 128.855 511.273 128.883C515.456 129.859 519.683 130.905 523.839 131.993C526.523 132.695 529.238 133.43 531.907 134.178C532.024 134.211 532.092 134.332 532.059 134.449C532.032 134.546 531.944 134.609 531.848 134.609Z" fill="#10171B"/>
<path d="M556.336 115.665C556.294 115.665 556.251 115.652 556.214 115.627C556.113 115.559 556.087 115.423 556.155 115.322C559.397 110.528 563.029 105.951 566.95 101.718C569.186 99.3031 571.558 96.9561 573.999 94.7422C574.089 94.6606 574.228 94.6677 574.309 94.7573C574.391 94.8471 574.384 94.9859 574.294 95.0674C571.862 97.2727 569.5 99.6107 567.272 102.016C563.367 106.233 559.749 110.793 556.519 115.568C556.476 115.631 556.407 115.665 556.336 115.665Z" fill="#10171B"/>
<path d="M573.768 134.147C573.706 134.147 573.643 134.12 573.6 134.068C573.522 133.975 573.534 133.837 573.627 133.759C576.648 131.227 579.509 128.451 582.131 125.506C584.749 122.567 587.173 119.41 589.337 116.123C589.403 116.021 589.539 115.993 589.641 116.06C589.742 116.127 589.77 116.263 589.704 116.364C587.528 119.669 585.091 122.843 582.459 125.798C579.823 128.758 576.946 131.55 573.909 134.096C573.868 134.13 573.818 134.147 573.768 134.147Z" fill="#10171B"/>
<path d="M534.474 118.248C534.461 118.248 534.448 118.247 534.435 118.245C534.316 118.224 534.236 118.11 534.257 117.99C534.75 115.213 535.109 112.38 535.326 109.569C535.614 105.82 535.657 102.014 535.451 98.2562C535.445 98.1352 535.538 98.0316 535.659 98.025C535.777 98.0187 535.883 98.1111 535.89 98.2322C536.096 102.009 536.054 105.835 535.763 109.602C535.546 112.428 535.185 115.276 534.69 118.067C534.671 118.173 534.578 118.248 534.474 118.248Z" fill="#10171B"/>
<path d="M540.626 111.507C540.51 111.507 540.413 111.416 540.407 111.299C540.191 107.413 540.219 103.475 540.491 99.5944C540.769 95.621 541.307 91.6262 542.091 87.7211C542.115 87.6022 542.231 87.5251 542.349 87.549C542.468 87.5729 542.545 87.6885 542.521 87.8074C541.741 91.6942 541.206 95.6703 540.929 99.6249C540.659 103.488 540.631 107.407 540.845 111.275C540.852 111.396 540.759 111.499 540.638 111.506C540.634 111.506 540.63 111.507 540.626 111.507Z" fill="#10171B"/>
<path d="M640.17 363.399H17.9529C17.3532 363.399 16.8672 362.913 16.8672 362.314C16.8672 361.714 17.3532 361.228 17.9529 361.228H640.17C640.77 361.228 641.256 361.714 641.256 362.314C641.256 362.913 640.77 363.399 640.17 363.399Z" fill="#10171B"/>
<defs>
<linearGradient id="paint0_linear_2048_39929" x1="157.592" y1="46.1652" x2="189.861" y2="46.1652" gradientUnits="userSpaceOnUse">
<stop offset="0.0095" stop-color="#4A62B5"/>
<stop offset="0.327" stop-color="#4B59AC"/>
<stop offset="0.8531" stop-color="#4C4092"/>
<stop offset="1" stop-color="#4D388A"/>
</linearGradient>
<linearGradient id="paint1_linear_2048_39929" x1="51.2321" y1="284.492" x2="62.346" y2="284.259" gradientUnits="userSpaceOnUse">
<stop offset="0.0095" stop-color="#FFC875"/>
<stop offset="0.1576" stop-color="#FFC56C"/>
<stop offset="0.3944" stop-color="#FFBB55"/>
<stop offset="0.6903" stop-color="#FFAC2F"/>
<stop offset="1" stop-color="#FF9900"/>
</linearGradient>
<linearGradient id="paint2_linear_2048_39929" x1="610.363" y1="283.285" x2="621.477" y2="283.053" gradientUnits="userSpaceOnUse">
<stop offset="0.0095" stop-color="#FFC875"/>
<stop offset="0.1576" stop-color="#FFC56C"/>
<stop offset="0.3944" stop-color="#FFBB55"/>
<stop offset="0.6903" stop-color="#FFAC2F"/>
<stop offset="1" stop-color="#FF9900"/>
</linearGradient>
<linearGradient id="paint3_linear_2048_39929" x1="101.289" y1="139.859" x2="89.7078" y2="354.103" gradientUnits="userSpaceOnUse">
<stop offset="0.0095" stop-color="#4A62B5"/>
<stop offset="0.327" stop-color="#4B59AC"/>
<stop offset="0.8531" stop-color="#4C4092"/>
<stop offset="1" stop-color="#4D388A"/>
</linearGradient>
<linearGradient id="paint4_linear_2048_39929" x1="142.699" y1="142.098" x2="131.118" y2="356.341" gradientUnits="userSpaceOnUse">
<stop offset="0.0095" stop-color="#4A62B5"/>
<stop offset="0.327" stop-color="#4B59AC"/>
<stop offset="0.8531" stop-color="#4C4092"/>
<stop offset="1" stop-color="#4D388A"/>
</linearGradient>
<linearGradient id="paint5_linear_2048_39929" x1="128.509" y1="152.125" x2="132.952" y2="129.554" gradientUnits="userSpaceOnUse">
<stop offset="0.0095" stop-color="#4A62B5"/>
<stop offset="0.327" stop-color="#4B59AC"/>
<stop offset="0.8531" stop-color="#4C4092"/>
<stop offset="1" stop-color="#4D388A"/>
</linearGradient>
<linearGradient id="paint6_linear_2048_39929" x1="371.484" y1="-14.0832" x2="371.846" y2="204.503" gradientUnits="userSpaceOnUse">
<stop offset="0.0095" stop-color="#4A62B5"/>
<stop offset="0.327" stop-color="#4B59AC"/>
<stop offset="0.8531" stop-color="#4C4092"/>
<stop offset="1" stop-color="#4D388A"/>
</linearGradient>
<linearGradient id="paint7_linear_2048_39929" x1="371.41" y1="-14.0825" x2="371.772" y2="204.504" gradientUnits="userSpaceOnUse">
<stop offset="0.0095" stop-color="#4A62B5"/>
<stop offset="0.327" stop-color="#4B59AC"/>
<stop offset="0.8531" stop-color="#4C4092"/>
<stop offset="1" stop-color="#4D388A"/>
</linearGradient>
<linearGradient id="paint8_linear_2048_39929" x1="423.957" y1="-14.17" x2="424.319" y2="204.417" gradientUnits="userSpaceOnUse">
<stop offset="0.0095" stop-color="#4A62B5"/>
<stop offset="0.327" stop-color="#4B59AC"/>
<stop offset="0.8531" stop-color="#4C4092"/>
<stop offset="1" stop-color="#4D388A"/>
</linearGradient>
<linearGradient id="paint9_linear_2048_39929" x1="465.359" y1="-14.2388" x2="465.722" y2="204.347" gradientUnits="userSpaceOnUse">
<stop offset="0.0095" stop-color="#4A62B5"/>
<stop offset="0.327" stop-color="#4B59AC"/>
<stop offset="0.8531" stop-color="#4C4092"/>
<stop offset="1" stop-color="#4D388A"/>
</linearGradient>
<linearGradient id="paint10_linear_2048_39929" x1="375.285" y1="160.877" x2="369.614" y2="253.12" gradientUnits="userSpaceOnUse">
<stop offset="0.0095" stop-color="#4A62B5"/>
<stop offset="0.327" stop-color="#4B59AC"/>
<stop offset="0.8531" stop-color="#4C4092"/>
<stop offset="1" stop-color="#4D388A"/>
</linearGradient>
<linearGradient id="paint11_linear_2048_39929" x1="543.299" y1="132.307" x2="498.875" y2="132.307" gradientUnits="userSpaceOnUse">
<stop offset="0.0095" stop-color="#FFAF96"/>
<stop offset="0.4831" stop-color="#FFA78C"/>
<stop offset="1" stop-color="#FFA387"/>
</linearGradient>
<linearGradient id="paint12_linear_2048_39929" x1="533.176" y1="129.156" x2="533.162" y2="129.156" gradientUnits="userSpaceOnUse">
<stop offset="0.0095" stop-color="#FFAF96"/>
<stop offset="0.4831" stop-color="#FFA78C"/>
<stop offset="1" stop-color="#FFA387"/>
</linearGradient>
<linearGradient id="paint13_linear_2048_39929" x1="533.008" y1="131.624" x2="532.951" y2="131.624" gradientUnits="userSpaceOnUse">
<stop offset="0.0095" stop-color="#FFAF96"/>
<stop offset="0.4831" stop-color="#FFA78C"/>
<stop offset="1" stop-color="#FFA387"/>
</linearGradient>
<linearGradient id="paint14_linear_2048_39929" x1="532.951" y1="132.079" x2="532.941" y2="132.079" gradientUnits="userSpaceOnUse">
<stop offset="0.0095" stop-color="#FFAF96"/>
<stop offset="0.4831" stop-color="#FFA78C"/>
<stop offset="1" stop-color="#FFA387"/>
</linearGradient>
<linearGradient id="paint15_linear_2048_39929" x1="532.802" y1="129.451" x2="532.799" y2="129.451" gradientUnits="userSpaceOnUse">
<stop offset="0.0095" stop-color="#FFAF96"/>
<stop offset="0.4831" stop-color="#FFA78C"/>
<stop offset="1" stop-color="#FFA387"/>
</linearGradient>
<linearGradient id="paint16_linear_2048_39929" x1="532.77" y1="129.503" x2="532.699" y2="129.503" gradientUnits="userSpaceOnUse">
<stop offset="0.0095" stop-color="#FFAF96"/>
<stop offset="0.4831" stop-color="#FFA78C"/>
<stop offset="1" stop-color="#FFA387"/>
</linearGradient>
<linearGradient id="paint17_linear_2048_39929" x1="532.64" y1="129.582" x2="532.633" y2="129.582" gradientUnits="userSpaceOnUse">
<stop offset="0.0095" stop-color="#FFAF96"/>
<stop offset="0.4831" stop-color="#FFA78C"/>
<stop offset="1" stop-color="#FFA387"/>
</linearGradient>
<linearGradient id="paint18_linear_2048_39929" x1="532.622" y1="129.663" x2="531.414" y2="129.663" gradientUnits="userSpaceOnUse">
<stop offset="0.0095" stop-color="#FFAF96"/>
<stop offset="0.4831" stop-color="#FFA78C"/>
<stop offset="1" stop-color="#FFA387"/>
</linearGradient>
<linearGradient id="paint19_linear_2048_39929" x1="531.415" y1="129.698" x2="531.385" y2="129.698" gradientUnits="userSpaceOnUse">
<stop offset="0.0095" stop-color="#FFAF96"/>
<stop offset="0.4831" stop-color="#FFA78C"/>
<stop offset="1" stop-color="#FFA387"/>
</linearGradient>
<linearGradient id="paint20_linear_2048_39929" x1="528.875" y1="128.188" x2="528.646" y2="128.188" gradientUnits="userSpaceOnUse">
<stop offset="0.0095" stop-color="#FFAF96"/>
<stop offset="0.4831" stop-color="#FFA78C"/>
<stop offset="1" stop-color="#FFA387"/>
</linearGradient>
<linearGradient id="paint21_linear_2048_39929" x1="528.532" y1="127.393" x2="527.52" y2="127.393" gradientUnits="userSpaceOnUse">
<stop offset="0.0095" stop-color="#FFAF96"/>
<stop offset="0.4831" stop-color="#FFA78C"/>
<stop offset="1" stop-color="#FFA387"/>
</linearGradient>
<linearGradient id="paint22_linear_2048_39929" x1="527.519" y1="126.795" x2="527.492" y2="126.795" gradientUnits="userSpaceOnUse">
<stop offset="0.0095" stop-color="#FFAF96"/>
<stop offset="0.4831" stop-color="#FFA78C"/>
<stop offset="1" stop-color="#FFA387"/>
</linearGradient>
<linearGradient id="paint23_linear_2048_39929" x1="579.826" y1="342.627" x2="612.383" y2="342.627" gradientUnits="userSpaceOnUse">
<stop offset="0.0095" stop-color="#FFAF96"/>
<stop offset="0.4831" stop-color="#FFA78C"/>
<stop offset="1" stop-color="#FFA387"/>
</linearGradient>
<linearGradient id="paint24_linear_2048_39929" x1="496.283" y1="345.549" x2="536.073" y2="345.549" gradientUnits="userSpaceOnUse">
<stop offset="0.0095" stop-color="#FFAF96"/>
<stop offset="0.4831" stop-color="#FFA78C"/>
<stop offset="1" stop-color="#FFA387"/>
</linearGradient>
<linearGradient id="paint25_linear_2048_39929" x1="541.317" y1="83.13" x2="569.701" y2="75.6317" gradientUnits="userSpaceOnUse">
<stop offset="0.0095" stop-color="#FFAF96"/>
<stop offset="0.4831" stop-color="#FFA78C"/>
<stop offset="1" stop-color="#FFA387"/>
</linearGradient>
<linearGradient id="paint26_linear_2048_39929" x1="538.28" y1="63.776" x2="563.686" y2="57.0644" gradientUnits="userSpaceOnUse">
<stop offset="0.0095" stop-color="#FFAF96"/>
<stop offset="0.4831" stop-color="#FFA78C"/>
<stop offset="1" stop-color="#FFA387"/>
</linearGradient>
<linearGradient id="paint27_linear_2048_39929" x1="558.42" y1="64.1435" x2="567.624" y2="61.7122" gradientUnits="userSpaceOnUse">
<stop offset="0.0095" stop-color="#FFAF96"/>
<stop offset="0.4831" stop-color="#FFA78C"/>
<stop offset="1" stop-color="#FFA387"/>
</linearGradient>
<linearGradient id="paint28_linear_2048_39929" x1="490.677" y1="119.599" x2="541.192" y2="132.602" gradientUnits="userSpaceOnUse">
<stop offset="0.0095" stop-color="#FFAF96"/>
<stop offset="0.4831" stop-color="#FFA78C"/>
<stop offset="1" stop-color="#FFA387"/>
</linearGradient>
<linearGradient id="paint29_linear_2048_39929" x1="495.366" y1="121.502" x2="484.795" y2="123.378" gradientUnits="userSpaceOnUse">
<stop offset="0.0095" stop-color="#FFAF96"/>
<stop offset="0.4831" stop-color="#FFA78C"/>
<stop offset="1" stop-color="#FFA387"/>
</linearGradient>
<linearGradient id="paint30_linear_2048_39929" x1="496.699" y1="118.977" x2="484.92" y2="121.067" gradientUnits="userSpaceOnUse">
<stop offset="0.0095" stop-color="#FFAF96"/>
<stop offset="0.4831" stop-color="#FFA78C"/>
<stop offset="1" stop-color="#FFA387"/>
</linearGradient>
<linearGradient id="paint31_linear_2048_39929" x1="495.911" y1="123.761" x2="485.925" y2="125.533" gradientUnits="userSpaceOnUse">
<stop offset="0.0095" stop-color="#FFAF96"/>
<stop offset="0.4831" stop-color="#FFA78C"/>
<stop offset="1" stop-color="#FFA387"/>
</linearGradient>
</defs>
</svg>
