<svg width="759" height="643" viewBox="0 0 759 643" fill="none" xmlns="http://www.w3.org/2000/svg">
<path d="M710.138 102.582L669.957 98.0676L710.138 93.553L714.41 51.0264L718.669 93.553L758.856 98.0676L718.669 102.582L714.41 145.107L710.138 102.582Z" fill="#2F8CFA" fill-opacity="0.3"/>
<path d="M672.604 40.0287L651 37.6013L672.604 35.174L674.898 12.3086L677.192 35.174L698.796 37.6013L677.192 40.0287L674.898 62.8907L672.604 40.0287Z" fill="#2F8CFA" fill-opacity="0.3"/>
<path d="M573.27 36.9853L551.735 34.5659L573.27 32.1463L575.56 9.35352L577.842 32.1463L599.381 34.5659L577.842 36.9853L575.56 59.7773L573.27 36.9853Z" fill="#13519A" fill-opacity="0.4"/>
<path d="M553.153 62.9039L541.574 61.6029L553.153 60.3019L554.383 48.0469L555.612 60.3019L567.191 61.6029L555.612 62.9039L554.383 75.1571L553.153 62.9039Z" fill="#13519A" fill-opacity="0.4"/>
<path d="M534.575 14.857L523 13.5553L534.575 12.2543L535.808 0L537.038 12.2543L548.613 13.5553L537.038 14.857L535.808 27.1102L534.575 14.857Z" fill="#13519A" fill-opacity="0.4"/>
<path d="M50.0217 604.219L28.5938 601.799L50.0217 599.38L52.2998 576.587L54.5711 599.38L76.0021 601.799L54.5711 604.219L52.2998 627.011L50.0217 604.219Z" fill="#13519A"/>
<path d="M30.0053 630.137L18.4844 628.836L30.0053 627.535L31.2289 615.28L32.4521 627.535L43.9734 628.836L32.4521 630.137L31.2289 642.39L30.0053 630.137Z" fill="#13519A"/>
<path d="M11.5175 582.089L0 580.788L11.5175 579.487L12.7445 567.232L13.9677 579.487L25.4855 580.788L13.9677 582.089L12.7445 594.343L11.5175 582.089Z" fill="#13519A"/>
</svg>
