<svg width="480" height="380" viewBox="0 0 480 380" fill="none" xmlns="http://www.w3.org/2000/svg">
<path opacity="0.4" d="M462.671 268.825C471.826 259.67 471.826 244.827 462.671 235.672C453.516 226.518 438.673 226.518 429.519 235.672C420.364 244.827 420.364 259.67 429.519 268.825C438.673 277.979 453.516 277.979 462.671 268.825Z" fill="#E5E5FF"/>
<path opacity="0.4" d="M85.6269 113.905C99.5932 99.9386 99.5932 77.2948 85.6269 63.3285C71.6606 49.3622 49.0167 49.3622 35.0504 63.3285C21.0841 77.2948 21.0841 99.9386 35.0504 113.905C49.0167 127.871 71.6606 127.871 85.6269 113.905Z" fill="#E5E5FF"/>
<path opacity="0.4" d="M184.041 54.2349C194.338 54.2349 202.684 45.8881 202.684 35.5917C202.684 25.2953 194.338 16.9485 184.041 16.9485C173.745 16.9485 165.398 25.2953 165.398 35.5917C165.398 45.8881 173.745 54.2349 184.041 54.2349Z" fill="#E5E5FF"/>
<path d="M157.351 44.8086C156.198 44.8086 155.033 44.7176 153.891 44.5383L154.001 43.8364C155.107 44.0101 156.235 44.0979 157.352 44.0979L157.482 44.0976L157.486 44.808L157.351 44.8086ZM161.078 44.4943L160.959 43.7938C162.101 43.6 163.239 43.311 164.343 42.9348L164.573 43.6071C163.432 43.9958 162.257 44.2942 161.078 44.4943ZM150.386 43.6955C149.245 43.3224 148.127 42.8544 147.06 42.3042L147.386 41.6728C148.418 42.2056 149.502 42.6589 150.606 43.02L150.386 43.6955ZM167.881 42.1772L167.548 41.5498C168.576 41.0042 169.566 40.3719 170.489 39.6709L170.919 40.2366C169.965 40.961 168.943 41.6137 167.881 42.1772ZM143.999 40.4012C143.034 39.6873 142.12 38.8905 141.283 38.0324L141.791 37.5362C142.601 38.3668 143.486 39.1386 144.422 39.8297L143.999 40.4012ZM173.604 37.8317L173.089 37.3424C173.888 36.501 174.625 35.5871 175.281 34.6261L175.868 35.0262C175.191 36.0191 174.429 36.9628 173.604 37.8317ZM138.982 35.2566C138.295 34.2757 137.682 33.2294 137.16 32.1467L137.8 31.8379C138.305 32.8864 138.899 33.8992 139.564 34.8491L138.982 35.2566ZM177.653 31.895L177.01 31.5935C177.503 30.5403 177.915 29.4404 178.234 28.3239L178.917 28.5188C178.588 29.6719 178.162 30.8078 177.653 31.895ZM135.856 28.7865C135.51 27.6339 135.257 26.4478 135.102 25.2608L135.807 25.1691C135.957 26.3182 136.202 27.4668 136.536 28.583L135.856 28.7865ZM179.626 24.9844L178.92 24.9011C179.019 24.0639 179.069 23.2129 179.069 22.3717C179.069 22.0529 179.062 21.7301 179.048 21.4121L179.757 21.3806C179.772 21.7088 179.779 22.0424 179.779 22.3717C179.779 23.241 179.728 24.1199 179.626 24.9844ZM135.637 21.6812L134.927 21.6582C134.966 20.4602 135.103 19.2547 135.334 18.0757L136.031 18.2127C135.807 19.3542 135.674 20.521 135.637 21.6812ZM178.61 17.9493C178.373 16.8169 178.041 15.6899 177.623 14.6001L178.286 14.3458C178.718 15.4708 179.061 16.6342 179.306 17.8035L178.61 17.9493ZM136.976 14.8519L136.31 14.6055C136.726 13.4802 137.236 12.3802 137.826 11.3356L138.445 11.6849C137.874 12.6968 137.379 13.7621 136.976 14.8519ZM177.558 14.4344C177.132 13.3489 176.617 12.2933 176.028 11.297L176.639 10.9355C177.248 11.9642 177.779 13.054 178.22 14.1747L177.558 14.4344ZM140.399 8.79292L139.845 8.34906C140.595 7.41103 141.426 6.52812 142.316 5.72507L142.792 6.25219C141.931 7.03024 141.126 7.88501 140.399 8.79292ZM174.014 8.44652C173.27 7.55623 172.447 6.71908 171.568 5.95865L172.032 5.4213C172.941 6.20673 173.791 7.07116 174.56 7.99101L174.014 8.44652ZM145.563 4.1309L145.178 3.53359C146.184 2.8857 147.253 2.31282 148.356 1.83145L148.64 2.48246C147.572 2.94878 146.537 3.50347 145.563 4.1309ZM168.752 3.89561C167.763 3.28636 166.717 2.75214 165.643 2.30799L165.915 1.65128C167.024 2.10993 168.104 2.66177 169.125 3.29063L168.752 3.89561ZM151.94 1.3424L151.763 0.654435C152.927 0.353504 154.122 0.145778 155.315 0.0369428L155.379 0.744225C154.225 0.849934 153.068 1.05113 151.94 1.3424ZM162.321 1.23555C161.189 0.968148 160.028 0.790828 158.87 0.708704L158.92 0C160.117 0.0849653 161.315 0.26797 162.485 0.544178L162.321 1.23555Z" fill="#407BFF"/>
<path d="M381.158 293.083L381.146 292.372C382.323 292.352 383.511 292.304 384.678 292.229L384.723 292.938C383.546 293.013 382.346 293.062 381.158 293.083ZM377.591 293.062C376.408 293.028 375.209 292.965 374.029 292.876L374.083 292.168C375.252 292.256 376.439 292.318 377.612 292.352L377.591 293.062ZM388.276 292.627L388.198 291.921C389.365 291.792 390.543 291.633 391.7 291.449L391.812 292.151C390.644 292.336 389.454 292.497 388.276 292.627ZM370.479 292.524C369.307 292.38 368.119 292.206 366.949 292.006L367.069 291.305C368.228 291.503 369.404 291.677 370.566 291.819L370.479 292.524ZM395.32 291.507L395.175 290.812C396.327 290.572 397.485 290.303 398.618 290.011L398.795 290.699C397.652 290.993 396.483 291.265 395.32 291.507ZM363.449 291.321C362.292 291.067 361.126 290.781 359.984 290.472L360.169 289.786C361.301 290.092 362.456 290.375 363.601 290.628L363.449 291.321ZM402.228 289.727L402.018 289.048C403.14 288.701 404.267 288.323 405.368 287.925L405.61 288.593C404.498 288.995 403.36 289.377 402.228 289.727ZM356.563 289.459C355.437 289.096 354.301 288.7 353.186 288.282L353.436 287.617C354.54 288.031 355.665 288.423 356.781 288.783L356.563 289.459ZM408.927 287.303L408.653 286.647C409.731 286.199 410.815 285.718 411.876 285.216L412.18 285.858C411.109 286.364 410.014 286.851 408.927 287.303ZM349.87 286.947C348.779 286.477 347.686 285.975 346.622 285.456L346.933 284.817C347.988 285.332 349.07 285.829 350.15 286.294L349.87 286.947ZM415.362 284.261L415.029 283.633C416.062 283.084 417.097 282.502 418.105 281.903L418.467 282.514C417.45 283.118 416.405 283.706 415.362 284.261ZM343.448 283.813C342.411 283.245 341.371 282.642 340.357 282.023L340.728 281.417C341.732 282.03 342.762 282.627 343.79 283.19L343.448 283.813ZM421.488 280.623L421.096 280.03C422.077 279.383 423.054 278.706 423.998 278.018L424.416 278.592C423.463 279.287 422.478 279.97 421.488 280.623ZM337.355 280.09C336.377 279.427 335.398 278.73 334.447 278.018L334.873 277.45C335.815 278.155 336.784 278.845 337.753 279.502L337.355 280.09ZM427.248 276.425L426.803 275.871C427.717 275.137 428.625 274.371 429.505 273.595L429.975 274.127C429.087 274.911 428.17 275.684 427.248 276.425ZM331.64 275.813C330.725 275.059 329.817 274.273 328.94 273.479L329.418 272.953C330.286 273.74 331.186 274.518 332.092 275.264L331.64 275.813ZM432.592 271.704L432.098 271.194C432.939 270.378 433.773 269.53 434.576 268.674L435.094 269.161C434.284 270.024 433.442 270.88 432.592 271.704ZM326.353 271.022C325.512 270.185 324.682 269.319 323.884 268.447L324.408 267.967C325.198 268.83 326.021 269.689 326.854 270.518L326.353 271.022ZM437.474 266.502L436.934 266.041C437.698 265.147 438.45 264.224 439.167 263.3L439.728 263.735C439.004 264.668 438.246 265.599 437.474 266.502ZM321.539 265.761C320.781 264.85 320.035 263.91 319.323 262.968L319.89 262.539C320.595 263.473 321.334 264.404 322.085 265.306L321.539 265.761ZM441.851 260.864L441.27 260.456C441.946 259.494 442.608 258.505 443.237 257.515L443.836 257.896C443.202 258.895 442.534 259.893 441.851 260.864ZM317.241 260.075C316.573 259.099 315.919 258.094 315.297 257.088L315.901 256.715C316.517 257.712 317.165 258.707 317.827 259.673L317.241 260.075ZM445.68 254.838L445.063 254.486C445.645 253.468 446.211 252.42 446.745 251.372L447.378 251.695C446.838 252.753 446.267 253.81 445.68 254.838ZM313.496 254.014C312.922 252.979 312.365 251.918 311.842 250.859L312.479 250.545C312.997 251.593 313.549 252.645 314.117 253.669L313.496 254.014ZM448.927 248.474L448.279 248.181C448.765 247.108 449.229 246.01 449.66 244.921L450.321 245.182C449.885 246.282 449.416 247.39 448.927 248.474ZM310.339 247.632C309.865 246.548 309.411 245.439 308.991 244.338L309.655 244.084C310.071 245.175 310.52 246.273 310.99 247.347L310.339 247.632ZM451.557 241.827L450.885 241.597C451.264 240.489 451.622 239.355 451.949 238.227L452.631 238.425C452.301 239.563 451.939 240.708 451.557 241.827ZM307.797 240.976C307.426 239.849 307.079 238.7 306.764 237.561L307.449 237.372C307.761 238.5 308.105 239.638 308.472 240.754L307.797 240.976ZM453.542 234.976L452.85 234.81C453.123 233.672 453.372 232.509 453.59 231.355L454.288 231.487C454.068 232.653 453.816 233.827 453.542 234.976ZM305.895 234.101C305.634 232.95 305.397 231.774 305.19 230.604L305.889 230.48C306.095 231.639 306.33 232.804 306.587 233.944L305.895 234.101ZM454.869 227.967L454.165 227.868C454.328 226.71 454.467 225.529 454.576 224.358L455.283 224.424C455.173 225.607 455.033 226.799 454.869 227.967ZM304.651 227.078C304.5 225.907 304.374 224.714 304.278 223.53L304.986 223.473C305.081 224.645 305.205 225.828 305.355 226.987L304.651 227.078ZM455.531 220.866L454.821 220.833C454.876 219.666 454.903 218.477 454.903 217.3H455.614C455.614 218.488 455.586 219.688 455.531 220.866ZM304.072 219.969C304.042 219.087 304.026 218.189 304.026 217.3C304.026 217 304.028 216.701 304.031 216.401L304.741 216.41C304.738 216.706 304.736 217.003 304.736 217.3C304.736 218.181 304.752 219.071 304.782 219.945L304.072 219.969ZM454.883 215.554C454.857 214.379 454.802 213.192 454.721 212.024L455.43 211.974C455.511 213.153 455.567 214.352 455.594 215.538L454.883 215.554ZM304.864 212.878L304.155 212.837C304.224 211.651 304.321 210.455 304.445 209.281L305.152 209.356C305.029 210.519 304.932 211.704 304.864 212.878ZM454.394 208.505C454.258 207.343 454.093 206.165 453.902 205.006L454.603 204.891C454.796 206.061 454.963 207.249 455.099 208.423L454.394 208.505ZM305.604 205.852L304.901 205.744C305.08 204.573 305.29 203.391 305.524 202.232L306.22 202.372C305.988 203.52 305.781 204.691 305.604 205.852ZM453.245 201.533C453.001 200.389 452.725 199.232 452.425 198.096L453.112 197.915C453.414 199.062 453.693 200.23 453.94 201.385L453.245 201.533ZM307.001 198.926L306.312 198.752C306.601 197.603 306.922 196.447 307.264 195.314L307.944 195.52C307.605 196.642 307.287 197.788 307.001 198.926ZM451.443 194.702C451.09 193.582 450.706 192.457 450.301 191.357L450.967 191.112C451.376 192.222 451.764 193.358 452.12 194.488L451.443 194.702ZM309.05 192.154L308.381 191.916C308.779 190.797 309.208 189.674 309.658 188.577L310.315 188.846C309.87 189.933 309.444 191.046 309.05 192.154ZM449.005 188.079C448.55 187.004 448.063 185.922 447.555 184.864L448.196 184.557C448.708 185.625 449.2 186.717 449.659 187.802L449.005 188.079ZM311.736 185.602L311.092 185.302C311.591 184.23 312.125 183.153 312.678 182.1L313.307 182.43C312.759 183.473 312.231 184.541 311.736 185.602ZM445.955 181.721C445.401 180.692 444.813 179.661 444.208 178.655L444.817 178.288C445.428 179.305 446.021 180.346 446.58 181.384L445.955 181.721ZM315.026 179.337L314.414 178.978C315.013 177.957 315.646 176.935 316.294 175.941L316.889 176.329C316.247 177.314 315.62 178.326 315.026 179.337ZM442.317 175.673C441.667 174.699 440.985 173.727 440.289 172.783L440.86 172.361C441.563 173.314 442.252 174.296 442.908 175.279L442.317 175.673ZM318.891 173.413L318.315 172.998C319.007 172.038 319.732 171.081 320.471 170.153L321.027 170.595C320.295 171.515 319.577 172.463 318.891 173.413ZM438.126 169.99C437.387 169.08 436.616 168.176 435.835 167.301L436.365 166.827C437.154 167.71 437.932 168.624 438.678 169.542L438.126 169.99ZM323.292 167.88L322.758 167.412C323.538 166.52 324.35 165.635 325.169 164.783L325.682 165.275C324.869 166.12 324.065 166.996 323.292 167.88ZM433.42 164.722C432.597 163.883 431.745 163.053 430.887 162.257L431.37 161.736C432.236 162.54 433.097 163.377 433.928 164.224L433.42 164.722ZM328.19 162.785L327.701 162.269C328.561 161.455 329.451 160.65 330.347 159.878L330.811 160.416C329.923 161.181 329.041 161.978 328.19 162.785ZM428.24 159.913C427.346 159.158 426.42 158.412 425.486 157.696L425.918 157.132C426.861 157.855 427.796 158.608 428.698 159.371L428.24 159.913ZM333.539 158.172L333.101 157.613C334.032 156.883 334.993 156.166 335.957 155.48L336.369 156.059C335.414 156.738 334.461 157.449 333.539 158.172ZM422.63 155.609C421.665 154.938 420.673 154.282 419.68 153.658L420.057 153.057C421.06 153.686 422.062 154.348 423.036 155.026L422.63 155.609ZM339.294 154.082L338.91 153.484C339.906 152.844 340.929 152.22 341.952 151.629L342.308 152.244C341.294 152.83 340.28 153.448 339.294 154.082ZM416.639 151.849C415.616 151.272 414.565 150.712 413.516 150.184L413.835 149.549C414.895 150.082 415.955 150.648 416.988 151.23L416.639 151.849ZM345.404 150.551L345.078 149.92C346.127 149.378 347.204 148.853 348.279 148.36L348.575 149.006C347.51 149.495 346.443 150.014 345.404 150.551ZM410.317 148.668C409.243 148.191 408.143 147.732 407.048 147.306L407.306 146.644C408.411 147.074 409.522 147.537 410.605 148.019L410.317 148.668ZM351.814 147.613L351.549 146.954C352.649 146.512 353.773 146.09 354.889 145.702L355.123 146.373C354.018 146.757 352.904 147.175 351.814 147.613ZM403.718 146.1C402.605 145.727 401.469 145.375 400.341 145.055L400.535 144.372C401.674 144.695 402.82 145.049 403.944 145.426L403.718 146.1ZM358.487 145.29L358.286 144.609C359.419 144.274 360.578 143.961 361.73 143.679L361.899 144.369C360.758 144.648 359.61 144.958 358.487 145.29ZM396.92 144.172C395.778 143.906 394.614 143.664 393.46 143.453L393.588 142.754C394.753 142.968 395.928 143.212 397.081 143.481L396.92 144.172ZM365.35 143.61L365.214 142.912C366.376 142.686 367.559 142.484 368.73 142.312L368.833 143.015C367.673 143.185 366.502 143.385 365.35 143.61ZM389.97 142.897C388.808 142.74 387.627 142.608 386.458 142.506L386.52 141.799C387.7 141.902 388.893 142.035 390.065 142.193L389.97 142.897ZM372.341 142.585L372.271 141.878C373.446 141.761 374.643 141.671 375.828 141.61L375.864 142.319C374.691 142.38 373.505 142.469 372.341 142.585ZM382.932 142.28C381.9 142.238 380.853 142.217 379.82 142.217C379.677 142.216 379.538 142.217 379.398 142.218L379.394 141.507C379.536 141.507 379.68 141.507 379.82 141.506C380.862 141.506 381.919 141.528 382.961 141.57L382.932 142.28Z" fill="#407BFF"/>
<path d="M72.3227 209.979C71.1307 209.972 69.9289 209.923 68.7511 209.832L68.8053 209.124C69.9664 209.213 71.1514 209.262 72.327 209.269L72.3227 209.979ZM75.897 209.874L75.8509 209.165C77.018 209.089 78.1978 208.97 79.3575 208.811L79.4538 209.515C78.2777 209.676 77.0811 209.797 75.897 209.874ZM65.1984 209.433C64.0214 209.257 62.8387 209.038 61.683 208.779L61.8382 208.086C62.9774 208.341 64.143 208.557 65.303 208.73L65.1984 209.433ZM82.9764 208.902L82.8294 208.207C83.9738 207.966 85.1244 207.679 86.2494 207.355L86.4457 208.038C85.3045 208.367 84.1372 208.657 82.9764 208.902ZM58.2239 207.874C57.0852 207.531 55.9449 207.143 54.8344 206.719L55.0875 206.055C56.1822 206.473 57.3063 206.856 58.4285 207.193L58.2239 207.874ZM89.8443 206.925L89.5991 206.258C90.6951 205.855 91.7912 205.406 92.8571 204.924L93.1497 205.572C92.0682 206.061 90.9563 206.516 89.8443 206.925ZM51.538 205.323C50.4622 204.821 49.39 204.273 48.3514 203.694L48.6975 203.073C49.7214 203.644 50.7779 204.185 51.8384 204.679L51.538 205.323ZM96.3497 203.984L96.0116 203.359C97.0385 202.803 98.0598 202.201 99.0467 201.571L99.4292 202.17C98.4278 202.809 97.3918 203.42 96.3497 203.984ZM45.2907 201.841C44.2981 201.19 43.3157 200.494 42.3712 199.773L42.8022 199.209C43.7337 199.92 44.7022 200.605 45.6806 201.247L45.2907 201.841ZM102.371 200.14L101.947 199.57C102.886 198.872 103.811 198.13 104.698 197.367L105.161 197.905C104.262 198.679 103.323 199.431 102.371 200.14ZM39.6071 197.504C38.7179 196.718 37.8447 195.891 37.0121 195.043L37.5188 194.545C38.3397 195.381 39.2004 196.197 40.0771 196.971L39.6071 197.504ZM107.786 195.477L107.285 194.973C108.115 194.148 108.926 193.282 109.696 192.4L110.231 192.867C109.451 193.761 108.628 194.64 107.786 195.477ZM34.599 192.404C33.8292 191.499 33.0827 190.556 32.3805 189.601L32.9531 189.18C33.6453 190.122 34.381 191.052 35.14 191.944L34.599 192.404ZM112.485 190.089L111.917 189.662C112.622 188.726 113.302 187.754 113.938 186.771L114.535 187.157C113.89 188.154 113.2 189.141 112.485 190.089ZM30.3683 186.647C29.7358 185.643 29.1316 184.604 28.5727 183.557L29.1993 183.223C29.75 184.254 30.3459 185.278 30.9693 186.268L30.3683 186.647ZM116.369 184.086L115.747 183.744C116.312 182.716 116.846 181.657 117.334 180.593L117.98 180.89C117.484 181.969 116.943 183.044 116.369 184.086ZM27.0038 180.348C26.5216 179.264 26.0729 178.149 25.6702 177.034L26.3386 176.793C26.7353 177.891 27.1774 178.99 27.6528 180.059L27.0038 180.348ZM119.356 177.585L118.691 177.336C119.101 176.239 119.477 175.115 119.807 173.993L120.489 174.193C120.154 175.332 119.773 176.472 119.356 177.585ZM24.5776 173.63C24.2559 172.487 23.972 171.317 23.7336 170.155L24.4295 170.012C24.6643 171.158 24.9442 172.31 25.2613 173.437L24.5776 173.63ZM121.374 170.729L120.679 170.578C120.928 169.435 121.138 168.268 121.304 167.109L122.007 167.21C121.838 168.386 121.625 169.57 121.374 170.729ZM23.1423 166.629C22.9883 165.453 22.8746 164.256 22.8047 163.07L23.514 163.028C23.583 164.198 23.695 165.378 23.8467 166.537L23.1423 166.629ZM122.386 163.655L121.677 163.605C121.76 162.44 121.802 161.255 121.802 160.082H122.512C122.512 161.271 122.47 162.473 122.386 163.655ZM23.4301 159.503L22.7197 159.495C22.7334 158.306 22.7899 157.105 22.8871 155.924L23.595 155.982C23.4992 157.147 23.4438 158.331 23.4301 159.503ZM121.746 157.716C121.69 156.544 121.592 155.363 121.454 154.204L122.159 154.12C122.299 155.295 122.399 156.494 122.455 157.683L121.746 157.716ZM24.0104 152.483L23.3082 152.374C23.4904 151.2 23.7174 150.018 23.9828 148.863L24.6751 149.022C24.4136 150.161 24.19 151.326 24.0104 152.483ZM120.912 150.721C120.69 149.573 120.424 148.417 120.121 147.287L120.807 147.103C121.115 148.25 121.385 149.422 121.609 150.587L120.912 150.721ZM25.5881 145.618L24.9089 145.409C25.2582 144.272 25.6534 143.134 26.0834 142.027L26.7455 142.284C26.3218 143.375 25.9322 144.497 25.5881 145.618ZM119.084 143.919C118.7 142.815 118.271 141.711 117.809 140.638L118.461 140.357C118.931 141.446 119.366 142.565 119.756 143.685L119.084 143.919ZM28.141 139.043L27.4991 138.738C28.0075 137.666 28.5619 136.597 29.147 135.562L29.7656 135.911C29.1887 136.932 28.642 137.985 28.141 139.043ZM116.3 137.456C115.761 136.417 115.178 135.386 114.566 134.389L115.172 134.018C115.792 135.028 116.384 136.075 116.93 137.128L116.3 137.456ZM31.6101 132.905L31.0182 132.512C31.6749 131.523 32.3762 130.545 33.1026 129.605L33.6649 130.039C32.9491 130.966 32.2574 131.93 31.6101 132.905ZM112.617 131.455C111.935 130.504 111.21 129.566 110.463 128.666L111.009 128.212C111.768 129.124 112.503 130.076 113.194 131.041L112.617 131.455ZM35.9186 127.327L35.3889 126.854C36.1798 125.969 37.0127 125.101 37.8646 124.273L38.3593 124.783C37.5196 125.598 36.6984 126.454 35.9186 127.327ZM108.115 126.036C107.304 125.191 106.453 124.365 105.585 123.581L106.062 123.054C106.942 123.85 107.806 124.688 108.627 125.545L108.115 126.036ZM40.9748 122.42L40.5176 121.876C41.4255 121.113 42.3729 120.372 43.3339 119.674L43.7514 120.249C42.804 120.937 41.8699 121.667 40.9748 122.42ZM102.887 121.311C101.964 120.59 101.004 119.893 100.033 119.239L100.429 118.65C101.414 119.313 102.388 120.019 103.324 120.751L102.887 121.311ZM46.6748 118.283L46.2997 117.68C47.3074 117.053 48.3503 116.455 49.4 115.902L49.731 116.531C48.6964 117.076 47.668 117.665 46.6748 118.283ZM97.0377 117.377C96.0212 116.795 94.971 116.242 93.9162 115.734L94.2242 115.094C95.2946 115.609 96.36 116.17 97.3909 116.761L97.0377 117.377ZM52.9037 115.003L52.6187 114.353C53.7048 113.877 54.8219 113.435 55.9398 113.039L56.177 113.709C55.0753 114.099 53.9739 114.534 52.9037 115.003ZM90.6835 114.32C89.5943 113.889 88.475 113.493 87.3565 113.142L87.569 112.464C88.7037 112.82 89.8392 113.222 90.9444 113.659L90.6835 114.32ZM59.5393 112.652L59.3509 111.967C60.4941 111.652 61.6648 111.375 62.8305 111.143L62.9689 111.84C61.8203 112.068 60.6663 112.342 59.5393 112.652ZM83.9579 112.209C82.8195 111.941 81.6561 111.71 80.5007 111.524L80.6135 110.822C81.7857 111.011 82.9658 111.245 84.1207 111.518L83.9579 112.209ZM66.4482 111.278L66.3598 110.573C67.5351 110.426 68.7334 110.319 69.9207 110.256L69.9585 110.965C68.788 111.028 67.607 111.133 66.4482 111.278ZM77.0035 111.088C75.8398 110.985 74.6557 110.923 73.4841 110.903L73.4963 110.192C74.685 110.213 75.8859 110.276 77.0663 110.381L77.0035 111.088Z" fill="#407BFF"/>
<path d="M272.414 40.4663C265.804 40.4663 260.426 35.0887 260.426 28.4788C260.426 21.8688 265.804 16.491 272.414 16.491C279.024 16.491 284.402 21.8685 284.402 28.4788C284.402 35.0887 279.024 40.4663 272.414 40.4663ZM272.414 17.0238C266.098 17.0238 260.959 22.1623 260.959 28.4788C260.959 34.7949 266.098 39.9334 272.414 39.9334C278.73 39.9334 283.869 34.7949 283.869 28.4788C283.869 22.1623 278.73 17.0238 272.414 17.0238Z" fill="#407BFF"/>
<path d="M397.137 83.4973V299.512C397.137 304.009 393.493 307.654 389.003 307.654H75.0857C70.5888 307.654 66.9443 304.009 66.9443 299.512V83.4973C66.9443 79.0004 70.5888 75.356 75.0857 75.356H389.003C393.493 75.356 397.137 79.0004 397.137 83.4973Z" fill="white"/>
<path d="M389.003 308.009H75.0859C70.4009 308.009 66.5894 304.197 66.5894 299.512V83.4973C66.5894 78.8122 70.4009 75.0007 75.0859 75.0007H389.003C393.684 75.0007 397.492 78.8122 397.492 83.4973V299.512C397.492 304.197 393.684 308.009 389.003 308.009ZM75.0859 75.7111C70.7927 75.7111 67.2998 79.2041 67.2998 83.4973V299.512C67.2998 303.806 70.7927 307.299 75.0859 307.299H389.003C393.292 307.299 396.782 303.806 396.782 299.512V83.4973C396.782 79.2041 393.292 75.7111 389.003 75.7111H75.0859Z" fill="#407BFF"/>
<path d="M397.137 83.4973V96.3131H66.9443V83.4973C66.9443 79.0004 70.5888 75.356 75.0857 75.356H389.003C393.493 75.356 397.137 79.0004 397.137 83.4973Z" fill="white"/>
<path d="M397.492 96.6683H66.5894V83.4973C66.5894 78.8122 70.4009 75.0007 75.0859 75.0007H389.003C393.684 75.0007 397.492 78.8122 397.492 83.4973V96.6683ZM67.2998 95.9579H396.782V83.4973C396.782 79.2041 393.292 75.7111 389.003 75.7111H75.0859C70.7927 75.7111 67.2998 79.2041 67.2998 83.4973V95.9579Z" fill="#407BFF"/>
<path d="M85.2775 89.6234C87.37 89.6234 89.0663 87.9271 89.0663 85.8347C89.0663 83.7422 87.37 82.0459 85.2775 82.0459C83.1851 82.0459 81.4888 83.7422 81.4888 85.8347C81.4888 87.9271 83.1851 89.6234 85.2775 89.6234Z" fill="#3335CF"/>
<path d="M99.7226 82.0459C97.6335 82.0459 95.9336 83.7455 95.9336 85.8347C95.9336 87.9238 97.6332 89.6237 99.7226 89.6237C101.812 89.6237 103.512 87.9241 103.512 85.8347C103.512 83.7455 101.812 82.0459 99.7226 82.0459Z" fill="#3335CF"/>
<path d="M114.168 89.6234C112.078 89.6234 110.379 87.9238 110.379 85.8347C110.379 83.7455 112.078 82.0459 114.168 82.0459C116.257 82.0459 117.956 83.7455 117.956 85.8347C117.957 87.9238 116.257 89.6234 114.168 89.6234ZM114.168 82.7563C112.47 82.7563 111.089 84.1373 111.089 85.8347C111.089 87.532 112.47 88.913 114.168 88.913C115.865 88.913 117.246 87.532 117.246 85.8347C117.246 84.1373 115.865 82.7563 114.168 82.7563Z" fill="#407BFF"/>
<path d="M207.394 90.0527H136.975C134.649 90.0527 132.757 88.1605 132.757 85.8346C132.757 83.5087 134.649 81.6165 136.975 81.6165H207.395C209.721 81.6165 211.613 83.5087 211.613 85.8346C211.613 88.1605 209.72 90.0527 207.394 90.0527ZM136.975 82.3269C135.041 82.3269 133.467 83.9006 133.467 85.8346C133.467 87.7686 135.041 89.3423 136.975 89.3423H207.395C209.329 89.3423 210.902 87.7686 210.902 85.8346C210.902 83.9006 209.329 82.3269 207.395 82.3269H136.975Z" fill="#407BFF"/>
<path d="M296.945 196.837C296.945 230.852 269.374 258.43 235.359 258.43C201.345 258.43 173.767 230.852 173.767 196.837C173.767 164.925 198.041 138.683 229.129 135.557L231.182 155.768C210.353 157.864 194.091 175.454 194.091 196.837C194.091 219.634 212.569 238.112 235.359 238.112C258.149 238.112 276.62 219.634 276.62 196.837C276.62 192.859 276.059 189.015 275.007 185.378L294.537 179.737C296.107 185.165 296.945 190.905 296.945 196.837Z" fill="#407BFF"/>
<path d="M235.358 246.565C262.822 246.565 285.087 224.301 285.087 196.836C285.087 169.372 262.822 147.107 235.358 147.107C207.893 147.107 185.629 169.372 185.629 196.836C185.629 224.301 207.893 246.565 235.358 246.565Z" fill="white"/>
<path opacity="0.5" d="M235.358 246.565C262.822 246.565 285.087 224.301 285.087 196.836C285.087 169.372 262.822 147.107 235.358 147.107C207.893 147.107 185.629 169.372 185.629 196.836C185.629 224.301 207.893 246.565 235.358 246.565Z" fill="#D1D1FF"/>
<path d="M235.358 232.069C254.811 232.069 270.581 216.295 270.581 196.836C270.581 177.378 254.811 161.604 235.358 161.604C215.905 161.604 200.135 177.378 200.135 196.836C200.135 216.295 215.905 232.069 235.358 232.069Z" fill="white"/>
<path d="M239.377 214.162V219.518H232.573V214.403C227.749 214.115 223.07 212.81 220.174 211.026L223.84 202.725C227.026 204.607 231.269 205.813 234.985 205.813C238.218 205.813 239.377 205.137 239.377 203.978C239.377 199.732 220.705 203.159 220.705 190.562C220.705 185.108 224.661 180.524 232.573 179.414V174.154H239.377V179.318C242.944 179.655 246.421 180.573 249.171 182.117L245.745 190.37C242.414 188.68 239.279 187.861 236.336 187.861C233.005 187.861 231.944 188.825 231.944 189.983C231.944 194.038 250.617 190.659 250.617 203.109C250.617 208.323 246.853 212.859 239.377 214.162Z" fill="#407BFF"/>
<path d="M454.606 33.2166H320.619V115.144H454.606V33.2166Z" fill="white"/>
<path d="M454.962 115.5H320.264V32.8613H454.962V115.5ZM320.974 114.789H454.251V33.5717H320.974V114.789Z" fill="#407BFF"/>
<path d="M345.199 89.0667H337.488V103.228H345.199V89.0667Z" fill="#D1D1FF"/>
<path d="M360.623 82.5959H352.911V103.229H360.623V82.5959Z" fill="#D1D1FF"/>
<path d="M376.047 87.8855H368.335V103.228H376.047V87.8855Z" fill="#D1D1FF"/>
<path d="M391.47 77.0898H383.758V103.229H391.47V77.0898Z" fill="#D1D1FF"/>
<path d="M406.893 70.1843H399.182V103.228H406.893V70.1843Z" fill="#D1D1FF"/>
<path d="M422.317 60.3218H414.605V103.229H422.317V60.3218Z" fill="#D1D1FF"/>
<path d="M437.741 45.1335H430.029V103.229H437.741V45.1335Z" fill="#D1D1FF"/>
<path d="M343.616 52.0271H337.488V58.9664H343.616V52.0271Z" fill="#D1D1FF"/>
<path d="M394.593 55.238H353.087V57.0166H394.593V55.238Z" fill="#D1D1FF"/>
<path d="M334.043 156.682L325.556 133.241C315.969 136.713 309.118 145.896 309.118 156.682C309.118 170.447 320.277 181.606 334.043 181.606C347.808 181.606 358.967 170.447 358.967 156.682C358.967 152.54 357.951 148.637 356.163 145.2L334.043 156.682Z" fill="#EBEBFF"/>
<path d="M359.479 136.32C355.325 128.335 346.982 122.877 337.358 122.877C334.378 122.877 331.521 123.402 328.872 124.362L337.358 147.802L359.479 136.32Z" fill="#407BFF"/>
<path d="M369.325 236.556H310.36V292.679H369.325V236.556Z" fill="#EBEBFF"/>
<path d="M352.629 251.475H319.595V253.845H352.629V251.475Z" fill="white"/>
<path d="M352.629 258.579H319.595V260.949H352.629V258.579Z" fill="white"/>
<path d="M144.247 129.284H92.9736V215.954H144.247V129.284Z" fill="#EBEBFF"/>
<path d="M134.415 141.834H100.789V172.619H134.415V141.834Z" fill="white"/>
<path d="M101.039 141.579L100.56 142.103L134.187 172.89L134.666 172.366L101.039 141.579Z" fill="#EBEBFF"/>
<path d="M134.162 141.578L100.54 172.365L101.019 172.889L134.642 142.102L134.162 141.578Z" fill="#EBEBFF"/>
<path d="M117.62 164.683H0.341797V241.956H117.62V164.683Z" fill="white"/>
<path d="M117.959 242.294H0.00244141V164.344H117.959V242.294ZM0.680746 241.616H117.281V165.022H0.680746V241.616Z" fill="#407BFF"/>
<path d="M12.6973 223.296L20.2751 209.087L35.9042 223.769L46.3234 193.458L65.7415 214.771L78.5289 209.561L101.736 179.25" fill="white"/>
<path d="M36.0622 224.404L20.3709 209.664L13.0116 223.463L12.3848 223.128L20.1808 208.511L35.7477 223.134L46.1834 192.776L65.8379 214.348L78.3062 209.268L101.455 179.034L102.019 179.466L78.7532 209.853L65.6467 215.193L65.4799 215.01L46.4655 194.14L36.0622 224.404Z" fill="#407BFF"/>
<path d="M20.3345 210.982C21.4135 210.982 22.2881 210.107 22.2881 209.028C22.2881 207.949 21.4135 207.074 20.3345 207.074C19.2555 207.074 18.3809 207.949 18.3809 209.028C18.3809 210.107 19.2555 210.982 20.3345 210.982Z" fill="#407BFF"/>
<path d="M35.7857 225.367C36.8646 225.367 37.7393 224.493 37.7393 223.414C37.7393 222.335 36.8646 221.46 35.7857 221.46C34.7067 221.46 33.832 222.335 33.832 223.414C33.832 224.493 34.7067 225.367 35.7857 225.367Z" fill="#407BFF"/>
<path d="M46.4414 195.53C47.5204 195.53 48.3951 194.655 48.3951 193.576C48.3951 192.497 47.5204 191.623 46.4414 191.623C45.3625 191.623 44.4878 192.497 44.4878 193.576C44.4878 194.655 45.3625 195.53 46.4414 195.53Z" fill="#407BFF"/>
<path d="M83.8436 177H34.1147V177.711H83.8436V177Z" fill="#407BFF"/>
<path d="M279.181 351.464C277.079 337.688 279.968 323.203 287.196 311.288C294.423 299.372 305.933 290.116 319.122 285.614C311.653 290.841 307.094 299.291 303.914 307.834C300.733 316.377 298.646 325.344 294.721 333.572C290.796 341.8 284.608 349.488 276.027 352.566L279.181 351.464Z" fill="#407BFF"/>
<path d="M277.117 351.579C276.819 335.656 273.727 319.79 268.023 304.922C265.998 299.642 263.569 294.372 259.62 290.325C255.672 286.277 249.929 283.61 244.361 284.599C251.295 289.789 254.886 298.325 256.909 306.746C258.931 315.167 259.71 323.905 262.558 332.083C265.406 340.262 270.853 348.146 279.006 351.069L277.117 351.579Z" fill="#407BFF"/>
<path d="M276.03 352.622C272.066 341.948 267.757 331.004 259.786 322.872C251.815 314.741 239.186 310.087 228.747 314.634C237.2 316.552 244.948 321.447 250.309 328.258C254.241 333.254 256.886 339.176 260.93 344.081C264.973 348.987 271.142 352.938 277.391 351.768L276.03 352.622Z" fill="#D1D1FF"/>
<path d="M274.764 351.893C273.14 340.178 271.515 328.274 273.226 316.571C274.938 304.869 280.471 293.184 290.386 286.736C284.898 292.118 283.066 300.27 283.063 307.956C283.061 315.642 284.617 323.258 284.749 330.944C284.88 338.629 283.354 346.793 278.155 352.455L274.764 351.893Z" fill="#D1D1FF"/>
<path d="M280.249 350.186C284.049 340.505 288.099 330.453 295.837 323.503C300.806 319.041 307.135 316.114 313.753 315.219C309.113 318.921 306.208 324.346 303.798 329.771C301.388 335.195 299.308 340.845 295.82 345.647C292.331 350.45 287.088 354.401 281.158 354.654L280.249 350.186Z" fill="#D1D1FF"/>
<path d="M299.544 379.644H256.867L250.287 346.814H306.124L299.544 379.644Z" fill="white"/>
<path d="M299.835 380H256.576L249.854 346.459H306.558L299.835 380ZM257.158 379.289H299.253L305.69 347.17H250.721L257.158 379.289Z" fill="#407BFF"/>
<path d="M375.947 359.903V379.645H350.345L362.066 370.082L362.683 358.052L375.947 359.903Z" fill="#D1D1FF"/>
<path d="M362.324 369.816L361.834 370.331L366.722 374.98L367.212 374.465L362.324 369.816Z" fill="#1B1B43"/>
<path d="M373.465 365.141H364.704V365.851H373.465V365.141Z" fill="#1B1B43"/>
<path d="M405.868 360.828L406.794 379.645H381.191L391.988 370.391V358.978L405.868 360.828Z" fill="#D1D1FF"/>
<path d="M392.219 370.087L391.749 370.62L395.724 374.131L396.194 373.599L392.219 370.087Z" fill="#1B1B43"/>
<path d="M403.542 365.496H394.898V366.207H403.542V365.496Z" fill="#1B1B43"/>
<path d="M378.526 246.427C378.967 285.764 382.227 324.475 388.461 362.525H410.035C405.547 333.426 403.518 298.089 406.028 251.238L390.448 238.479L378.526 246.427Z" fill="#407BFF"/>
<path d="M361.471 251.632L351.71 295.046C349.364 305.478 349.201 316.282 351.231 326.78L358.088 362.241H379.662L373.133 315.689L388.745 244.724L361.471 251.632Z" fill="#407BFF"/>
<path d="M379.98 293.234C379.925 292.339 378.697 272.373 378.569 269.843L372.932 267.793L373.174 267.125L379.269 269.341V269.59C379.271 270.027 380.199 285.218 380.689 293.189L379.98 293.234Z" fill="#BE443D"/>
<path d="M426.689 153.616L427.843 150.863C427.843 150.863 423.669 142.071 425.002 140.917C426.334 139.763 428.465 143.048 428.465 143.048C428.465 143.048 427.843 132.392 429.886 132.303C431.608 132.228 431.484 135.322 431.662 139.94C431.662 139.94 432.728 138.519 434.688 139.987C435.569 138.519 437.434 139.496 437.967 140.384C438.588 139.674 441.164 139.851 440.808 142.871C440.358 146.7 438.588 153.793 438.588 153.793L432.905 158.5L426.689 153.616Z" fill="#FFBC96"/>
<path d="M381.044 190.38L389.686 190.311C404.844 188.959 416.684 176.645 416.684 176.645L426.688 153.616L438.587 153.794L431.603 180.859C430.6 184.746 428.439 188.236 425.406 190.867L400.581 212.403L381.044 190.38Z" fill="#3335CF"/>
<path d="M357.356 209.977L361.471 251.632L406.027 251.238L404.487 201.036L381.044 190.38L364.823 197.247L357.356 209.977Z" fill="#3335CF"/>
<path d="M329.765 214.022C329.037 213.375 328.123 212.982 327.152 212.902C322.227 212.491 306.83 211.303 306.979 212.497C307.157 213.917 318.879 219.246 318.879 219.246C321.385 222.066 323.892 224.888 326.399 227.709L333.287 217.148L329.765 214.022Z" fill="#FFBC96"/>
<path d="M363.349 194.388C360.174 194.943 357.447 196.959 355.986 199.831L342.855 225.639L333.287 217.147L326.399 227.709C327.237 228.652 328.075 229.595 328.913 230.538C332.633 234.724 336.97 240.349 342.778 241.568C345.738 242.19 348.493 240.96 350.614 238.925C352.169 237.432 353.56 235.588 354.669 233.739L359.905 225.106L376.6 192.072L363.349 194.388Z" fill="#3335CF"/>
<path d="M357.697 209.962L356.99 210.031L359.483 235.664L360.19 235.595L357.697 209.962Z" fill="#D1D1FF"/>
<path d="M404.755 208.673L400.581 212.403L405.022 219.773L404.755 208.673Z" fill="#1B1B43"/>
<path d="M433.201 145.239C431.525 145.239 431.395 143.043 431.395 139.94H431.927C431.928 143.593 432.226 144.706 433.201 144.706C433.396 144.706 433.562 144.628 433.712 144.468C434.187 143.959 434.371 142.769 434.428 141.701C434.391 140.929 434.409 140.256 434.421 139.977L434.953 139.969C434.957 140.035 435.005 140.753 434.964 141.637C435.038 143.084 435.282 144.514 435.764 144.658C436.034 144.739 436.267 144.705 436.479 144.553C437.054 144.139 437.376 142.967 437.544 141.92C437.559 141.47 437.608 140.948 437.703 140.343L438.232 140.393C438.23 140.453 438.209 141.06 438.097 141.825C438.059 142.932 438.185 144.006 438.633 144.194C438.964 144.334 439.239 144.333 439.47 144.191C440.08 143.819 440.301 142.563 440.335 142.111L440.867 142.151C440.861 142.228 440.713 144.056 439.748 144.646C439.365 144.88 438.92 144.894 438.426 144.685C438.302 144.633 437.909 144.406 437.69 143.574C437.481 144.17 437.191 144.697 436.79 144.985C436.44 145.236 436.044 145.298 435.611 145.169C435.143 145.028 434.853 144.43 434.675 143.683C434.544 144.147 434.36 144.555 434.102 144.832C433.849 145.102 433.546 145.239 433.201 145.239Z" fill="#D28572"/>
<path d="M377.286 200.488C373.499 200.794 370.189 197.973 369.883 194.194L369.805 193.235L368.725 179.836L377.072 179.169L382.429 178.735L383.58 193.086C383.885 196.872 381.065 200.183 377.286 200.488Z" fill="#FFBC96"/>
<path d="M379.744 183.687C377.143 188.27 373.421 191.566 369.805 193.235L368.725 179.837L377.072 179.169L379.744 183.687Z" fill="#1B1B43"/>
<path d="M382.465 169.656L380.81 183.63C380.81 183.63 375.482 188.724 367.667 188.482C364.819 188.397 363.142 185.697 362.162 182.266C361.757 180.831 361.473 179.275 361.274 177.72C360.62 172.576 360.919 167.525 360.919 167.525L372.996 163.504L382.465 169.656Z" fill="#FFBC96"/>
<path d="M380.63 175.402C379.372 170.919 377.113 168.664 374.059 168.179C364.349 173.448 358.046 170.31 353.457 164.449C364.705 166.64 369.618 150.655 380.393 161.311C388.385 163.739 388.238 171.376 383.709 177.592L380.63 175.402Z" fill="#1B1B43"/>
<path d="M385.616 177.127C386.029 175.018 384.88 173.018 383.051 172.661C381.222 172.304 379.405 173.724 378.993 175.833C378.581 177.943 379.73 179.942 381.559 180.299C383.388 180.657 385.204 179.236 385.616 177.127Z" fill="#FFBC96"/>
<path d="M383.577 175.021C383.019 175.115 382.66 175.536 382.39 176.015C382.124 176.502 381.951 177.043 381.846 177.627L381.638 177.64C381.549 177.327 381.549 176.995 381.602 176.676C381.655 176.355 381.764 176.043 381.928 175.755C382.092 175.47 382.31 175.201 382.601 175.011C382.886 174.82 383.263 174.721 383.593 174.813L383.577 175.021Z" fill="#1B1B43"/>
<path d="M363.817 175.964C363.817 176.569 363.525 177.059 363.165 177.059C362.806 177.059 362.514 176.569 362.514 175.964C362.514 175.359 362.806 174.869 363.165 174.869C363.525 174.869 363.817 175.359 363.817 175.964Z" fill="#1B1B43"/>
<path d="M369.2 175.517C369.2 176.173 368.884 176.704 368.495 176.704C368.105 176.704 367.789 176.172 367.789 175.517C367.789 174.861 368.105 174.33 368.495 174.33C368.884 174.33 369.2 174.861 369.2 175.517Z" fill="#1B1B43"/>
<path d="M365.297 176.853C365.3 177.063 365.216 177.269 365.114 177.447C365.007 177.623 364.879 177.774 364.753 177.913C364.501 178.189 364.266 178.44 364.211 178.702C364.141 178.97 364.246 179.234 364.451 179.499C364.658 179.76 364.937 179.996 365.207 180.258L365.092 180.431C364.745 180.284 364.402 180.101 364.105 179.814C363.957 179.669 363.825 179.492 363.739 179.276C363.655 179.057 363.636 178.808 363.695 178.579C363.753 178.349 363.874 178.148 364.011 177.993C364.148 177.835 364.294 177.705 364.435 177.587C364.712 177.346 364.976 177.14 365.091 176.821L365.297 176.853Z" fill="#1B1B43"/>
<path d="M365.81 182.771C366.559 182.605 367.255 182.367 367.876 181.98C368.187 181.789 368.481 181.568 368.763 181.326C369.045 181.083 369.314 180.819 369.594 180.55L369.763 180.672C369.415 181.384 368.854 182.01 368.152 182.433C367.452 182.857 366.616 183.059 365.822 182.979L365.81 182.771Z" fill="#1B1B43"/>
<path d="M367.639 172.577C367.487 173.379 370.005 173.637 370.459 173.716C370.832 173.782 371.364 173.824 371.443 173.258C371.54 172.556 370.777 172.482 370.345 172.389C369.932 172.299 367.783 171.819 367.639 172.577Z" fill="#1B1B43"/>
<path d="M364.134 173.07C364.121 173.845 362.118 173.923 361.751 173.968C361.45 174.005 361.029 174.01 361.06 173.466C361.1 172.79 361.706 172.77 362.058 172.709C362.395 172.652 364.146 172.338 364.134 173.07Z" fill="#1B1B43"/>
<path opacity="0.2" d="M373.541 180.478C374.964 180.478 376.117 179.325 376.117 177.903C376.117 176.48 374.964 175.327 373.541 175.327C372.119 175.327 370.966 176.48 370.966 177.903C370.966 179.325 372.119 180.478 373.541 180.478Z" fill="#407BFF"/>
<path opacity="0.2" d="M363.199 180.213C363.199 181.059 362.794 181.805 362.162 182.266C361.757 180.831 361.473 179.276 361.274 177.72C362.382 178.011 363.199 179.02 363.199 180.213Z" fill="#407BFF"/>
<path d="M179.645 263.195H130.225V266.522H179.645V263.195Z" fill="#407BFF"/>
<path d="M179.642 263.197H137.905L153.712 224.657H195.449L179.642 263.197Z" fill="white"/>
<path d="M179.881 263.552H137.376L153.474 224.302H195.978L179.881 263.552ZM138.435 262.842H179.404L194.92 225.012H153.95L138.435 262.842Z" fill="#407BFF"/>
<path d="M176.04 259.958H143.239L155.662 229.67H188.462L176.04 259.958Z" fill="#EBEBFF"/>
<path d="M163.027 267.587H162.316V379.826H163.027V267.587Z" fill="#1B1B43"/>
<path d="M202.533 266.526H122.81V272.867H202.533V266.526Z" fill="#D1D1FF"/>
<path d="M58.4736 314.732H57.7632V379.825H58.4736V314.732Z" fill="#1B1B43"/>
<path d="M77.6152 317.752H38.6221C39.4498 313.793 42.9399 310.958 46.9842 310.958H69.2531C73.2973 310.958 76.7874 313.793 77.6152 317.752Z" fill="#D1D1FF"/>
<path d="M68.241 379.635H47.9971C47.9971 377.174 49.9925 375.179 52.4539 375.179H63.7844C66.2456 375.178 68.241 377.174 68.241 379.635Z" fill="#D1D1FF"/>
<path d="M88.2017 218.153C89.1991 219.586 90.6287 221.617 90.787 223.391C91.0166 225.97 86.8894 224.162 86.8408 224.385C86.8405 224.385 88.2017 218.153 88.2017 218.153Z" fill="#D28572"/>
<path d="M81.8991 221.188H68.8491V240.313H81.8991V221.188Z" fill="#FFBC96"/>
<path d="M81.8988 224.469V238.122C77.7867 235.539 74.2321 231.702 71.1597 227.274L81.8988 224.469Z" fill="#1B1B43"/>
<path d="M89.2338 219.314C88.8274 225.921 86.2855 233.394 79.3485 231.55C73.8996 230.102 67.9023 225.514 67.9023 218.895C67.9023 212.276 72.4834 206.91 78.1346 206.91C81.6664 206.91 86.1133 208.624 88.2062 211.935C89.4619 213.921 89.4111 216.433 89.2338 219.314Z" fill="#FFBC96"/>
<path d="M77.6845 217.398C79.5318 212.498 83.7608 212.016 83.7608 212.016C83.7608 212.016 93.552 221.701 92.9456 211.695C92.4636 203.743 84.692 204.494 84.692 204.494C80.8952 199.552 74.8062 201.486 72.5854 204.351C70.3647 207.217 71.1526 205.569 65.9232 207.432C60.6937 209.294 63.4876 217.246 62.5564 217.819C55.6077 217.819 56.8972 224.696 56.8972 224.696L73.347 230.061L77.3094 219.245L77.6845 217.398Z" fill="#1B1B43"/>
<path d="M79.3996 217.958C80.4166 219.72 80.1418 221.783 78.7852 222.566C77.4289 223.349 75.5048 222.556 74.4875 220.794C73.4705 219.032 73.7453 216.969 75.1019 216.186C76.4585 215.403 78.3826 216.196 79.3996 217.958Z" fill="#FFBC96"/>
<path d="M77.2989 220.081C77.0676 219.634 76.8732 219.2 76.5615 218.896C76.4089 218.743 76.2316 218.618 76.0301 218.509C75.8286 218.401 75.6044 218.31 75.3745 218.201L75.4098 218.016C75.6706 218.002 75.9352 218.032 76.1949 218.119C76.4541 218.205 76.7058 218.355 76.9036 218.56C77.1017 218.764 77.2452 219.01 77.3344 219.262C77.4256 219.515 77.4742 219.774 77.4816 220.035L77.2989 220.081Z" fill="#1B1B43"/>
<path d="M71.15 208.244C74.1999 208.1 76.5455 205.304 76.389 202C76.2326 198.696 73.6333 196.134 70.5834 196.279C67.5335 196.423 65.1879 199.219 65.3443 202.523C65.5008 205.827 68.1001 208.389 71.15 208.244Z" fill="#1B1B43"/>
<path opacity="0.2" d="M83.5597 225.545C84.9329 225.545 86.0461 224.432 86.0461 223.059C86.0461 221.685 84.9329 220.572 83.5597 220.572C82.1865 220.572 81.0732 221.685 81.0732 223.059C81.0732 224.432 82.1865 225.545 83.5597 225.545Z" fill="#407BFF"/>
<path d="M93.3278 287.351L51.5342 282.023L59.4127 240.485C59.9668 237.58 61.8991 235.114 64.5916 233.893C66.8365 232.87 69.4011 232.806 71.7028 233.708L85.9466 240.038C88.6888 241.252 90.5785 243.831 90.9195 246.808L91.7222 260.377L92.6387 275.757L93.3278 287.351Z" fill="#407BFF"/>
<path d="M131.571 257.514L142.634 254.262C143.431 254.028 144.287 254.156 144.979 254.616C148.007 256.626 156.067 262.313 154.032 264.639C153.016 265.8 143.767 263.079 143.767 263.079L130.374 266.816L131.571 257.514Z" fill="#FFBC96"/>
<path d="M92.6383 275.757C89.1573 271.324 87.09 265.47 86.4009 258.224L91.7219 260.377L92.6383 275.757Z" fill="#1B1B43"/>
<path d="M84.684 239.517L86.3492 240.234C89.7774 241.712 92.8498 243.907 95.3592 246.67L109.075 261.776L131.571 257.514L134.531 269.591L106.265 278.425C104.032 278.822 101.752 278.052 100.218 276.383L79.8296 254.199L84.684 239.517Z" fill="#407BFF"/>
<path d="M108.813 262.017C108.746 261.944 102.054 254.658 96.2588 248.16C90.5295 241.736 81.7946 238.613 81.707 238.582L81.9426 237.912C82.0318 237.943 90.935 241.123 96.7891 247.687C102.581 254.181 109.269 261.463 109.336 261.536L108.813 262.017Z" fill="#1B1B43"/>
<path d="M81.5021 256.542L80.9917 257.036L99.9596 276.615L100.47 276.12L81.5021 256.542Z" fill="#1B1B43"/>
<path d="M91.8104 350.178L82.7944 367.74L105.571 379.433L99.5102 365.573L104.455 354.589L91.8104 350.178Z" fill="#D1D1FF"/>
<path d="M99.418 365.228L92.9468 367.133L93.1474 367.814L99.6186 365.909L99.418 365.228Z" fill="#1B1B43"/>
<path d="M105.995 361.72L85.3618 354.022L99.4914 310.056C101.92 303.545 109.402 300.325 116.203 302.862C123.003 305.399 126.547 312.734 124.118 319.244L105.995 361.72Z" fill="#26289C"/>
<path d="M126.006 358.748L128.02 379.645H153.622L141.901 370.083L139.148 358.037L126.006 358.748Z" fill="#D1D1FF"/>
<path d="M141.728 369.753L135.66 373.099L136.003 373.721L142.071 370.375L141.728 369.753Z" fill="#1B1B43"/>
<path d="M144.477 361.234L122.099 364.786L106.775 319.725L103.983 311.505L65.9264 311.811C56.5134 312.024 49.0257 303.96 49.9492 294.583L51.5334 282.023L89.1853 286.761L113.929 289.482C124.23 291.258 127.391 297.496 129.537 305.509L144.477 361.234Z" fill="#3335CF"/>
<path d="M106.775 319.725L103.983 311.505L109.133 311.328C109.609 314.425 108.38 317.885 106.775 319.725Z" fill="#1B1B43"/>
<path d="M446.403 379.29H15.1826V380H446.403V379.29Z" fill="#1B1B43"/>
</svg>
