<svg width="700" height="550" viewBox="0 0 700 550" fill="none" xmlns="http://www.w3.org/2000/svg">
<path d="M629.861 438.344H583.49V438.619H629.861V438.344Z" fill="#2A76CC"/>
<path d="M463.709 441.329H451.539V441.604H463.709V441.329Z" fill="#2A76CC"/>
<path d="M582.09 428.129H555.221V428.404H582.09V428.129Z" fill="#2A76CC"/>
<path d="M133.914 429.977H73.4434V430.252H133.914V429.977Z" fill="#2A76CC"/>
<path d="M155.245 429.977H146.379V430.252H155.245V429.977Z" fill="#2A76CC"/>
<path d="M315.205 434.622H184.059V434.897H315.205V434.622Z" fill="#2A76CC"/>
<path d="M331.82 371.58H61.4814C57.0756 371.58 53.4902 368.763 53.4902 365.301V66.7258C53.4902 63.2641 57.0756 60.447 61.4814 60.447H331.82C336.224 60.447 339.81 63.2641 339.81 66.7258V365.301C339.81 368.763 336.224 371.58 331.82 371.58ZM61.4814 60.7231C57.2674 60.7231 53.8402 63.4159 53.8402 66.7269V365.302C53.8402 368.613 57.2674 371.306 61.4814 371.306H331.82C336.033 371.306 339.46 368.613 339.46 365.302V66.7258C339.46 63.4159 336.033 60.722 331.82 60.722L61.4814 60.7231Z" fill="#589FEF"/>
<path d="M634.636 371.58H364.298C359.893 371.58 356.309 368.763 356.309 365.301V66.7258C356.309 63.2641 359.894 60.447 364.298 60.447H634.636C639.043 60.447 642.627 63.2641 642.627 66.7258V365.301C642.628 368.763 639.043 371.58 634.636 371.58ZM364.298 60.7231C360.086 60.7231 356.659 63.4159 356.659 66.7269V365.302C356.659 368.613 360.086 371.306 364.298 371.306H634.636C638.85 371.306 642.277 368.613 642.277 365.302V66.7258C642.277 63.4159 638.85 60.722 634.636 60.722L364.298 60.7231Z" fill="#589FEF"/>
<path d="M700 420.638H0V420.913H700V420.638Z" fill="#2A76CC"/>
<path d="M583.496 105.38H414.369V420.785H583.496V105.38Z" fill="#F0F0F0"/>
<path d="M576.303 111.092H421.561V420.784H576.303V111.092Z" fill="#F5F5F5"/>
<path d="M495.304 151.946H433.27V265.364H495.304V151.946Z" fill="#FAFAFA"/>
<path d="M565.415 151.946H503.381V265.364H565.415V151.946Z" fill="#FAFAFA"/>
<path d="M565.418 299.666H433.27V413.084H565.418V299.666Z" fill="#EBEBEB"/>
<path d="M565.418 146.08H433.27V138.322C433.27 127.823 444.101 119.312 457.463 119.312H541.226C554.588 119.312 565.42 127.823 565.42 138.322V146.08H565.418Z" fill="#FAFAFA"/>
<path d="M444.552 270.471H433.27V293.571H444.552V270.471Z" fill="#E6E6E6"/>
<path d="M444.549 293.572H446.766V270.472H444.549V293.572Z" fill="#E0E0E0"/>
<path d="M440.827 279.546C440.827 281.611 438.696 283.284 436.07 283.284C433.442 283.284 431.312 281.611 431.312 279.546C431.312 277.481 433.442 275.808 436.07 275.808C438.696 275.808 440.827 277.483 440.827 279.546Z" fill="#E0E0E0"/>
<path d="M439.918 286.009H437.467V290.684H439.918V286.009Z" fill="#E0E0E0"/>
<path d="M431.869 284.771C435.541 284.771 438.519 282.432 438.519 279.546C438.519 276.66 435.541 274.321 431.869 274.321C428.196 274.321 425.219 276.66 425.219 279.546C425.219 282.432 428.196 284.771 431.869 284.771Z" fill="#EBEBEB"/>
<path d="M113.273 133.178L173.237 105.769H219.437L280.394 131.879V373.317H113.273V133.178Z" fill="#FAFAFA"/>
<path d="M282.111 373.317H113.271V133.178L114.992 131.88C137.288 115.043 166.662 105.769 197.691 105.769C197.69 105.769 197.693 105.769 197.691 105.769C228.722 105.769 258.093 115.042 280.391 131.88L282.111 133.179V373.317ZM124.471 364.517H270.911V136.954C250.932 122.505 225.024 114.569 197.691 114.569C170.359 114.569 144.452 122.505 124.471 136.954V364.517Z" fill="#F5F5F5"/>
<path d="M273.035 175.926V169.326H201.893V113.43H193.493V169.326H122.352V175.926H193.493V236.224H122.352V242.824H193.493V303.121H122.352V309.721H193.493V365.618H201.893V309.721H273.035V303.121H201.893V242.824H273.035V236.224H201.893V175.926H273.035Z" fill="#F0F0F0"/>
<path d="M287.714 377.717H107.674V131.382L109.313 130.093C158.047 91.8038 237.34 91.8038 286.073 130.093L287.712 131.382V377.717H287.714ZM118.874 368.917H276.514V135.052C232.576 101.875 162.811 101.874 118.874 135.052V368.917Z" fill="#EBEBEB"/>
<path d="M343.249 466.085C493.164 466.085 614.694 460.509 614.694 453.63C614.694 446.751 493.164 441.175 343.249 441.175C193.335 441.175 71.8047 446.751 71.8047 453.63C71.8047 460.509 193.335 466.085 343.249 466.085Z" fill="#1C6AC4"/>
<path d="M559.366 152.593L552.191 155.167C552.191 155.167 561.702 170.218 564.586 175.339C567.625 180.735 574.764 194.936 577.582 200.571C578.223 201.852 580.098 202.443 581.691 201.872L584.956 200.701C586.549 200.13 587.208 198.63 586.396 197.411C582.812 192.029 573.782 178.409 570.569 173.04C567.554 168.003 559.366 152.593 559.366 152.593Z" fill="#407BFF"/>
<path opacity="0.5" d="M559.366 152.593L552.191 155.167C552.191 155.167 561.702 170.218 564.586 175.339C567.625 180.735 574.764 194.936 577.582 200.571C578.223 201.852 580.098 202.443 581.691 201.872L584.956 200.701C586.549 200.13 587.208 198.63 586.396 197.411C582.812 192.029 573.782 178.409 570.569 173.04C567.554 168.003 559.366 152.593 559.366 152.593Z" fill="white"/>
<path d="M541.648 150.587C541.648 150.587 545.286 147.795 546.7 147.073C548.578 146.114 549.725 145.564 551.917 145.202C555.972 144.533 562.389 144.233 569.671 149.981L567.877 150.625C567.877 150.625 560.158 145.206 558.185 148.527C557.606 149.503 559.44 152.721 559.44 152.721L552.265 155.295C552.265 155.295 549.333 150.928 543.211 153.279L541.648 150.587Z" fill="#263238"/>
<path opacity="0.6" d="M541.648 150.587C541.648 150.587 545.286 147.795 546.7 147.073C548.578 146.114 549.725 145.564 551.917 145.202C555.972 144.533 562.389 144.233 569.671 149.981L567.877 150.625C567.877 150.625 560.158 145.206 558.185 148.527C557.606 149.503 559.44 152.721 559.44 152.721L552.265 155.295C552.265 155.295 549.333 150.928 543.211 153.279L541.648 150.587Z" fill="white"/>
<path d="M543.069 155.342L542.355 155.598C541.201 156.012 539.839 155.612 539.311 154.706L537.739 152.001C537.213 151.095 537.721 150.024 538.874 149.61L539.588 149.353C540.742 148.94 542.104 149.339 542.632 150.246L544.203 152.95C544.731 153.858 544.222 154.928 543.069 155.342Z" fill="#263238"/>
<path opacity="0.4" d="M543.069 155.342L542.355 155.598C541.201 156.012 539.839 155.612 539.311 154.706L537.739 152.001C537.213 151.095 537.721 150.024 538.874 149.61L539.588 149.353C540.742 148.94 542.104 149.339 542.632 150.246L544.203 152.95C544.731 153.858 544.222 154.928 543.069 155.342Z" fill="white"/>
<path d="M494.831 137.146C498.726 137.079 502.534 135.697 505.506 133.363C511.994 128.266 511.994 120.001 505.506 114.904C502.906 112.861 499.688 111.443 496.283 111.242C493.88 111.1 489.049 111.1 486.648 111.242C483.245 111.443 480.029 112.861 477.429 114.903L465.682 124.133L477.429 133.363C480.032 135.408 483.256 136.781 486.658 137.025C488.693 137.17 492.788 137.181 494.831 137.146Z" fill="#407BFF"/>
<path opacity="0.3" d="M494.831 137.146C498.726 137.079 502.534 135.697 505.506 133.363C511.994 128.266 511.994 120.001 505.506 114.904C502.906 112.861 499.688 111.443 496.283 111.242C493.88 111.1 489.049 111.1 486.648 111.242C483.245 111.443 480.029 112.861 477.429 114.903L465.682 124.133L477.429 133.363C480.032 135.408 483.256 136.781 486.658 137.025C488.693 137.17 492.788 137.181 494.831 137.146Z" fill="white"/>
<path d="M482.011 114.903C488.499 109.805 499.017 109.805 505.504 114.903C511.992 120 511.992 128.264 505.504 133.362C499.017 138.459 488.499 138.459 482.011 133.362L470.264 124.132L482.011 114.903Z" fill="#407BFF"/>
<path opacity="0.6" d="M482.011 114.903C488.499 109.805 499.017 109.805 505.504 114.903C511.992 120 511.992 128.264 505.504 133.362C499.017 138.459 488.499 138.459 482.011 133.362L470.264 124.132L482.011 114.903Z" fill="white"/>
<path d="M452.137 113.043L466.081 123.999H469.988L456.044 113.043H452.137Z" fill="#263238"/>
<path opacity="0.7" d="M452.137 113.043L466.081 123.999H469.988L456.044 113.043H452.137Z" fill="white"/>
<path d="M452.137 113.043L453.1 112.287C453.734 111.788 454.595 111.508 455.491 111.508H456.498C457.051 111.508 457.328 112.034 456.937 112.341L456.044 113.042L452.137 113.043Z" fill="#263238"/>
<path opacity="0.5" d="M452.137 113.043L453.1 112.287C453.734 111.788 454.595 111.508 455.491 111.508H456.498C457.051 111.508 457.328 112.034 456.937 112.341L456.044 113.042L452.137 113.043Z" fill="white"/>
<g opacity="0.7">
<path d="M501.192 128.336C503.777 125.521 503.467 121.573 500.242 119.04C497.017 116.506 491.993 116.262 488.41 118.293L501.192 128.336Z" fill="white"/>
<path d="M486.326 119.929C483.742 122.744 484.053 126.692 487.277 129.226C490.501 131.759 495.526 132.003 499.108 129.972L486.326 119.929Z" fill="white"/>
</g>
<path d="M331.187 367.04L333.271 368.825L335.544 367.188L337.626 368.975L339.9 367.338L341.983 369.123L344.255 367.486L346.338 369.273L348.61 367.636L350.694 369.421L352.966 367.785L355.049 369.571L357.321 367.934L359.404 369.719L361.678 368.084L363.76 369.869L366.033 368.232L368.117 370.019L370.389 368.382L372.472 370.167L374.744 368.53L376.827 370.317L379.1 368.68L381.183 370.465L383.455 368.828L385.538 370.615L387.812 368.978L389.894 370.764L392.167 369.128L394.25 370.913L396.523 369.276L398.606 371.063L400.878 369.426L402.961 371.211L405.233 369.574L406.344 370.526L409.718 368.189L402.529 358.986L401.54 350.581L327.578 362.303L329.167 368.494L331.187 367.04Z" fill="#263238"/>
<path opacity="0.7" d="M331.187 367.04L333.271 368.825L335.544 367.188L337.626 368.975L339.9 367.338L341.983 369.123L344.255 367.486L346.338 369.273L348.61 367.636L350.694 369.421L352.966 367.785L355.049 369.571L357.321 367.934L359.404 369.719L361.678 368.084L363.76 369.869L366.033 368.232L368.117 370.019L370.389 368.382L372.472 370.167L374.744 368.53L376.827 370.317L379.1 368.68L381.183 370.465L383.455 368.828L385.538 370.615L387.812 368.978L389.894 370.764L392.167 369.128L394.25 370.913L396.523 369.276L398.606 371.063L400.878 369.426L402.961 371.211L405.233 369.574L406.344 370.526L409.718 368.189L402.529 358.986L401.54 350.581L327.578 362.303L329.167 368.494L331.187 367.04Z" fill="white"/>
<path d="M425.262 365.497C421.559 362.433 416.713 354.156 416.879 349.932C416.885 349.797 416.931 349.633 417.007 349.451C417.532 348.188 416.172 346.941 414.515 347.204L403.123 349.009C400.853 349.368 399.196 350.908 399.122 352.727L398.825 360.002C398.787 360.918 399.161 361.817 399.879 362.54L407.522 370.233C408.685 371.404 410.589 371.958 412.443 371.664L425.937 369.526C427.827 369.227 428.323 367.299 426.744 366.429C426.114 366.084 425.577 365.756 425.262 365.497ZM412.129 367.75C409.077 365.953 406.432 359.816 405.716 356.873C405.476 355.886 405.165 353.621 406.003 352.862C406.589 352.331 408.616 352.112 410.085 352.022C410.834 351.975 411.421 352.524 411.215 353.092C411.002 353.679 410.826 354.339 410.963 354.662C411.283 355.419 413.668 356.015 414.025 356.761C414.324 357.386 413.236 358.813 413.609 359.414C413.991 360.032 416.144 360.251 416.606 360.835C417.124 361.489 416.342 363.212 416.739 363.917C416.983 364.348 417.936 365.037 418.703 365.545C419.234 365.896 419.213 366.539 418.66 366.869C417.764 367.403 416.531 368.078 415.863 368.193C414.94 368.351 412.885 368.195 412.129 367.75Z" fill="#407BFF"/>
<path opacity="0.3" d="M425.262 365.497C421.559 362.433 416.713 354.156 416.879 349.932C416.885 349.797 416.931 349.633 417.007 349.451C417.532 348.188 416.172 346.941 414.515 347.204L403.123 349.009C400.853 349.368 399.196 350.908 399.122 352.727L398.825 360.002C398.787 360.918 399.161 361.817 399.879 362.54L407.522 370.233C408.685 371.404 410.589 371.958 412.443 371.664L425.937 369.526C427.827 369.227 428.323 367.299 426.744 366.429C426.114 366.084 425.577 365.756 425.262 365.497ZM412.129 367.75C409.077 365.953 406.432 359.816 405.716 356.873C405.476 355.886 405.165 353.621 406.003 352.862C406.589 352.331 408.616 352.112 410.085 352.022C410.834 351.975 411.421 352.524 411.215 353.092C411.002 353.679 410.826 354.339 410.963 354.662C411.283 355.419 413.668 356.015 414.025 356.761C414.324 357.386 413.236 358.813 413.609 359.414C413.991 360.032 416.144 360.251 416.606 360.835C417.124 361.489 416.342 363.212 416.739 363.917C416.983 364.348 417.936 365.037 418.703 365.545C419.234 365.896 419.213 366.539 418.66 366.869C417.764 367.403 416.531 368.078 415.863 368.193C414.94 368.351 412.885 368.195 412.129 367.75Z" fill="white"/>
<path d="M476.556 143.179H128.299V329.295H476.556V143.179Z" fill="#263238"/>
<path opacity="0.5" d="M476.556 143.179H128.299V329.295H476.556V143.179Z" fill="white"/>
<path opacity="0.9" d="M468.848 149.235H136.008V323.238H468.848V149.235Z" fill="white"/>
<path d="M282.834 233.281H190.949V293.365H282.834V233.281Z" fill="#263238"/>
<path opacity="0.7" d="M282.834 233.281H190.949V293.365H282.834V233.281Z" fill="white"/>
<path d="M271.046 249.284H232.229V287.179H271.046V249.284Z" fill="#407BFF"/>
<path d="M226.319 249.284H201.604V280.816H226.319V249.284Z" fill="#407BFF"/>
<path opacity="0.7" d="M224.075 251.048H203.848V279.053H224.075V251.048Z" fill="white"/>
<path opacity="0.5" d="M207.006 279.053H215.437L224.075 253.681V251.048H216.54L207.006 279.053Z" fill="white"/>
<path opacity="0.7" d="M250.2 251.708H235.311V287.181H250.2V251.708Z" fill="white"/>
<path opacity="0.7" d="M267.961 251.708H253.072V287.181H267.961V251.708Z" fill="white"/>
<path d="M280.626 205.846H203.52V234.112H280.626V205.846Z" fill="#263238"/>
<path opacity="0.7" d="M280.626 205.846H203.52V234.112H280.626V205.846Z" fill="white"/>
<path d="M241.587 214.647H216.871V223.166H241.587V214.647Z" fill="#407BFF"/>
<path opacity="0.7" d="M239.344 216.41H219.117V221.402H239.344V216.41Z" fill="white"/>
<path d="M268.639 214.647H243.924V223.166H268.639V214.647Z" fill="#407BFF"/>
<path opacity="0.7" d="M266.395 216.41H246.168V221.402H266.395V216.41Z" fill="white"/>
<path opacity="0.5" d="M224.164 221.402H232.593L234.293 216.41H225.864L224.164 221.402Z" fill="white"/>
<path opacity="0.5" d="M251.215 221.402H259.644L261.344 216.41H252.914L251.215 221.402Z" fill="white"/>
<path d="M302.701 241.457H179.158L189.949 225.106H299.618L302.701 241.457Z" fill="#407BFF"/>
<path opacity="0.3" d="M302.701 241.457H179.158L189.949 225.106H299.618L302.701 241.457Z" fill="black"/>
<path d="M284.684 212.706H195.496L202.457 202.157H282.695L284.684 212.706Z" fill="#407BFF"/>
<path opacity="0.3" d="M284.684 212.706H195.496L202.457 202.157H282.695L284.684 212.706Z" fill="black"/>
<path d="M282.832 287.18H179.158V293.365H282.832V287.18Z" fill="#263238"/>
<path opacity="0.5" d="M282.832 287.18H179.158V293.365H282.832V287.18Z" fill="white"/>
<path d="M277.785 189.849V238.256H392.078V189.849L334.932 166.059L277.785 189.849Z" fill="#407BFF"/>
<path opacity="0.5" d="M277.785 189.849V238.256H392.078V189.849L334.932 166.059L277.785 189.849Z" fill="white"/>
<path d="M392.08 234.113H277.785V293.366H392.08V234.113Z" fill="#407BFF"/>
<path opacity="0.5" d="M392.08 234.113H277.785V293.366H392.08V234.113Z" fill="white"/>
<path d="M377.905 224.499H291.965V194.825L334.935 176.051L377.905 194.825V224.499Z" fill="#407BFF"/>
<path opacity="0.8" d="M377.905 224.499H291.965V194.825L334.935 176.051L377.905 194.825V224.499Z" fill="white"/>
<path d="M333.764 198.985H309.049V218.405H333.764V198.985Z" fill="#407BFF"/>
<path opacity="0.7" d="M331.522 200.749H311.295V216.642H331.522V200.749Z" fill="white"/>
<path d="M360.817 198.985H336.102V218.405H360.817V198.985Z" fill="#407BFF"/>
<path opacity="0.7" d="M358.571 200.749H338.344V216.642H358.571V200.749Z" fill="white"/>
<path d="M380.986 248.421H288.879V293.366H380.986V248.421Z" fill="#263238"/>
<path opacity="0.3" d="M380.986 248.421H288.879V293.366H380.986V248.421Z" fill="white"/>
<path opacity="0.5" d="M314.508 216.642H322.936L328.347 200.749H319.917L314.508 216.642Z" fill="white"/>
<path opacity="0.5" d="M341.559 216.642H349.987L355.398 200.749H346.968L341.559 216.642Z" fill="white"/>
<path d="M402.972 199.516L334.932 170.412L266.892 199.516L263.207 194.198L334.932 163.516L406.657 194.198L402.972 199.516Z" fill="#407BFF"/>
<path d="M396.705 241.457H273.16L276.243 229.95H393.62L396.705 241.457Z" fill="#407BFF"/>
<path d="M381.684 198.985L334.932 178.986L288.18 198.985L285.23 194.729L334.932 173.469L384.633 194.729L381.684 198.985Z" fill="#407BFF"/>
<path opacity="0.5" d="M306.852 250.844H291.963V293.366H306.852V250.844Z" fill="white"/>
<path opacity="0.5" d="M324.614 250.844H309.725V293.366H324.614V250.844Z" fill="white"/>
<path opacity="0.5" d="M342.377 250.844H327.488V293.366H342.377V250.844Z" fill="white"/>
<path opacity="0.5" d="M360.139 250.844H345.25V293.366H360.139V250.844Z" fill="white"/>
<path opacity="0.5" d="M377.901 250.844H363.012V293.366H377.901V250.844Z" fill="white"/>
<path d="M391.309 299.449H278.555V296.875H277.014V299.449H179.928V296.875H178.387V300.66H277.014V303.839H392.85V300.66V296.875H391.309V299.449ZM391.309 302.628H278.555V300.66H391.309V302.628Z" fill="#263238"/>
<path d="M410.655 229.346V162.911H341.557V164.122H409.114V229.346H396.703V230.557H409.114V292.762H403.572H396.703V293.973H403.572H410.655H414.509V229.346H410.655ZM412.968 292.761H410.655V230.556H412.968V292.761Z" fill="#263238"/>
<path d="M204.616 182.73H277.012V185.754H278.554V181.519H203.074V198.986H204.616V182.73Z" fill="#263238"/>
<path d="M188.675 224.5H184.436V202.764H199.08V201.552H182.895V225.711H188.675V224.5Z" fill="#263238"/>
<g opacity="0.2">
<path d="M391.309 299.449H278.555V296.875H277.014V299.449H179.928V296.875H178.387V300.66H277.014V303.839H392.85V300.66V296.875H391.309V299.449ZM391.309 302.628H278.555V300.66H391.309V302.628Z" fill="white"/>
<path d="M410.655 229.346V162.911H341.557V164.122H409.114V229.346H396.703V230.557H409.114V292.762H403.572H396.703V293.973H403.572H410.655H414.509V229.346H410.655ZM412.968 292.761H410.655V230.556H412.968V292.761Z" fill="white"/>
<path d="M204.616 182.73H277.012V185.754H278.554V181.519H203.074V198.986H204.616V182.73Z" fill="white"/>
<path d="M188.675 224.5H184.436V202.764H199.08V201.552H182.895V225.711H188.675V224.5Z" fill="white"/>
</g>
<path d="M411.882 307.372H410.34H391.309V315.003V316.214V323.845H410.34H411.882H439.208H440.75H469.618V316.214V315.003V307.372H411.882ZM392.85 308.583H410.34V315.003H392.85V308.583ZM410.34 322.633H392.85V316.214H410.34V322.633ZM439.208 322.633H411.882V316.214H439.208V322.633ZM468.076 322.633H440.75V316.214H468.076V322.633ZM440.75 315.003H439.208H411.882V308.583H468.076V315.003H440.75Z" fill="#263238"/>
<path opacity="0.2" d="M411.882 307.372H410.34H391.309V315.003V316.214V323.845H410.34H411.882H439.208H440.75H469.618V316.214V315.003V307.372H411.882ZM392.85 308.583H410.34V315.003H392.85V308.583ZM410.34 322.633H392.85V316.214H410.34V322.633ZM439.208 322.633H411.882V316.214H439.208V322.633ZM468.076 322.633H440.75V316.214H468.076V322.633ZM440.75 315.003H439.208H411.882V308.583H468.076V315.003H440.75Z" fill="white"/>
<path d="M199.21 399.042C199.21 399.042 206.693 385.574 199.478 385.269C192.261 384.963 199.21 399.042 199.21 399.042Z" fill="#407BFF"/>
<path d="M212.738 388.784C212.738 388.784 226.88 380.739 220.227 376.691C213.573 372.643 212.738 388.784 212.738 388.784Z" fill="#407BFF"/>
<path d="M249.66 392.106C249.66 392.106 267.258 397.162 266.109 390.792C264.958 384.42 249.66 392.106 249.66 392.106Z" fill="#407BFF"/>
<path d="M220.461 386.594C220.461 386.594 240.257 389.437 232.547 396.251C224.837 403.066 220.461 386.594 220.461 386.594Z" fill="#407BFF"/>
<path d="M191.794 410.988C191.794 410.988 191.462 396.406 185.25 399.471C179.039 402.535 191.794 410.988 191.794 410.988Z" fill="#407BFF"/>
<path d="M228.398 386.229C228.398 386.229 248.824 388.584 245.982 381.341C243.14 374.099 228.398 386.229 228.398 386.229Z" fill="#407BFF"/>
<path d="M243.098 389.393C243.098 389.393 254.591 399.854 245.91 401.273C237.228 402.692 243.098 389.393 243.098 389.393Z" fill="#407BFF"/>
<path d="M203.994 394.215C203.994 394.215 219.208 388.061 218.572 396.018C217.937 403.972 203.994 394.215 203.994 394.215Z" fill="#407BFF"/>
<g opacity="0.4">
<path d="M191.794 410.988C191.794 410.988 191.462 396.406 185.25 399.471C179.039 402.535 191.794 410.988 191.794 410.988Z" fill="white"/>
<path d="M228.398 386.229C228.398 386.229 248.824 388.584 245.982 381.341C243.14 374.099 228.398 386.229 228.398 386.229Z" fill="white"/>
<path d="M243.098 389.393C243.098 389.393 254.591 399.854 245.91 401.273C237.228 402.692 243.098 389.393 243.098 389.393Z" fill="white"/>
<path d="M203.994 394.215C203.994 394.215 219.208 388.061 218.572 396.018C217.937 403.972 203.994 394.215 203.994 394.215Z" fill="white"/>
</g>
<path d="M194.561 405.654C194.561 405.654 208.358 395.897 210.845 403.975C213.333 412.054 194.561 405.654 194.561 405.654Z" fill="#407BFF"/>
<path d="M187.763 418.458C189.873 410.069 194.625 401.392 201.629 394.841C215.738 381.643 235.776 384.093 252.837 392.507C254.189 393.173 252.604 394.684 251.262 394.021C242.214 389.56 231.32 385.78 220.417 387.589C212.562 388.892 206.263 393.041 201.616 398.028C196.037 404.013 192.056 411.473 190.222 418.763C189.912 419.993 187.453 419.695 187.763 418.458Z" fill="#407BFF"/>
<g opacity="0.3">
<path d="M187.763 418.458C189.873 410.069 194.625 401.392 201.629 394.841C215.738 381.643 235.776 384.093 252.837 392.507C254.189 393.173 252.604 394.684 251.262 394.021C242.214 389.56 231.32 385.78 220.417 387.589C212.562 388.892 206.263 393.041 201.616 398.028C196.037 404.013 192.056 411.473 190.222 418.763C189.912 419.993 187.453 419.695 187.763 418.458Z" fill="black"/>
</g>
<path d="M177.282 400.902C177.282 400.902 170.101 386.777 164.567 390.73C159.031 394.683 177.282 400.902 177.282 400.902Z" fill="#407BFF"/>
<path d="M177.509 385.613C177.509 385.613 180.253 371.578 171.619 372.484C162.987 373.39 177.509 385.613 177.509 385.613Z" fill="#407BFF"/>
<path d="M207.475 366.664C207.475 366.664 225.012 360.158 218.204 356.19C211.397 352.223 207.475 366.664 207.475 366.664Z" fill="#407BFF"/>
<path d="M181.07 379.553C181.07 379.553 198.132 370.166 198.912 379.583C199.692 389 181.07 379.553 181.07 379.553Z" fill="#407BFF"/>
<path d="M183.087 413.881C183.087 413.881 169.178 403.468 167.533 409.292C165.888 415.116 183.087 413.881 183.087 413.881Z" fill="#407BFF"/>
<path d="M186.501 374.694C186.501 374.694 203.564 364.587 194.709 360.964C185.853 357.34 186.501 374.694 186.501 374.694Z" fill="#407BFF"/>
<path d="M200.16 368.489C200.16 368.489 218.324 369.447 213.34 375.503C208.356 381.558 200.16 368.489 200.16 368.489Z" fill="#407BFF"/>
<path d="M176.24 394.623C176.24 394.623 181.538 381.345 188.532 387.498C195.527 393.652 176.24 394.623 176.24 394.623Z" fill="#407BFF"/>
<g opacity="0.4">
<path d="M183.087 413.881C183.087 413.881 169.178 403.468 167.533 409.292C165.888 415.116 183.087 413.881 183.087 413.881Z" fill="white"/>
<path d="M186.501 374.694C186.501 374.694 203.564 364.587 194.709 360.964C185.853 357.34 186.501 374.694 186.501 374.694Z" fill="white"/>
<path d="M200.16 368.489C200.16 368.489 218.324 369.447 213.34 375.503C208.356 381.558 200.16 368.489 200.16 368.489Z" fill="white"/>
<path d="M176.24 394.623C176.24 394.623 181.538 381.345 188.532 387.498C195.527 393.652 176.24 394.623 176.24 394.623Z" fill="white"/>
</g>
<path d="M180.098 408.401C180.098 408.401 180.988 393.321 190.368 397.758C199.751 402.193 180.098 408.401 180.098 408.401Z" fill="#407BFF"/>
<path d="M187.155 421.647C180.827 414.325 176.149 405.264 175.102 396.447C172.994 378.684 189.862 368.871 210.158 365.118C211.767 364.821 212.03 366.835 210.433 367.131C199.669 369.121 188.205 372.677 181.969 380.301C177.477 385.794 176.786 392.457 178.079 398.772C179.631 406.353 183.728 414.082 189.227 420.445C190.156 421.519 188.089 422.727 187.155 421.647Z" fill="#407BFF"/>
<g opacity="0.3">
<path d="M187.155 421.647C180.827 414.325 176.149 405.264 175.102 396.447C172.994 378.684 189.862 368.871 210.158 365.118C211.767 364.821 212.03 366.835 210.433 367.131C199.669 369.121 188.205 372.677 181.969 380.301C177.477 385.794 176.786 392.457 178.079 398.772C179.631 406.353 183.728 414.082 189.227 420.445C190.156 421.519 188.089 422.727 187.155 421.647Z" fill="black"/>
</g>
<path d="M167.824 403.702C167.824 403.702 163.733 391.399 169.954 391.9C176.175 392.402 167.824 403.702 167.824 403.702Z" fill="#407BFF"/>
<path d="M158.012 393.505C158.012 393.505 147.301 385.133 153.68 382.375C160.062 379.617 158.012 393.505 158.012 393.505Z" fill="#407BFF"/>
<path d="M125.883 392.441C125.883 392.441 109.973 394.903 112.048 389.579C114.121 384.255 125.883 392.441 125.883 392.441Z" fill="#407BFF"/>
<path d="M151.788 390.815C151.788 390.815 134.379 391.153 139.803 397.794C145.228 404.435 151.788 390.815 151.788 390.815Z" fill="#407BFF"/>
<path d="M172.115 414.697C172.115 414.697 174.896 402.267 179.681 405.543C184.467 408.821 172.115 414.697 172.115 414.697Z" fill="#407BFF"/>
<path d="M145.064 389.665C145.064 389.665 127.2 389.518 130.87 383.628C134.538 377.737 145.064 389.665 145.064 389.665Z" fill="#407BFF"/>
<path d="M131.957 390.815C131.957 390.815 120.341 398.543 127.52 400.674C134.698 402.804 131.957 390.815 131.957 390.815Z" fill="#407BFF"/>
<path d="M164.558 399.07C164.558 399.07 152.606 392.202 151.787 399.07C150.97 405.938 164.558 399.07 164.558 399.07Z" fill="#407BFF"/>
<g opacity="0.4">
<path d="M172.115 414.697C172.115 414.697 174.896 402.267 179.681 405.543C184.467 408.821 172.115 414.697 172.115 414.697Z" fill="white"/>
<path d="M145.064 389.665C145.064 389.665 127.2 389.518 130.87 383.628C134.538 377.737 145.064 389.665 145.064 389.665Z" fill="white"/>
<path d="M131.957 390.815C131.957 390.815 120.341 398.543 127.52 400.674C134.698 402.804 131.957 390.815 131.957 390.815Z" fill="white"/>
<path d="M164.558 399.07C164.558 399.07 152.606 392.202 151.787 399.07C150.97 405.938 164.558 399.07 164.558 399.07Z" fill="white"/>
</g>
<path d="M170.665 409.846C170.665 409.846 160.54 400.048 157.03 406.691C153.522 413.333 170.665 409.846 170.665 409.846Z" fill="#407BFF"/>
<path d="M174.283 421.51C173.915 414.117 171.339 406.196 166.474 399.855C156.673 387.082 139.124 387.058 123.098 392.448C121.828 392.875 122.923 394.333 124.184 393.909C132.684 391.051 142.643 388.972 151.654 391.67C158.146 393.614 162.82 397.828 165.939 402.581C169.683 408.287 171.81 415.085 172.13 421.51C172.185 422.596 174.338 422.601 174.283 421.51Z" fill="#407BFF"/>
<g opacity="0.3">
<path d="M174.283 421.51C173.915 414.117 171.339 406.196 166.474 399.855C156.673 387.082 139.124 387.058 123.098 392.448C121.828 392.875 122.923 394.333 124.184 393.909C132.684 391.051 142.643 388.972 151.654 391.67C158.146 393.614 162.82 397.828 165.939 402.581C169.683 408.287 171.81 415.085 172.13 421.51C172.185 422.596 174.338 422.601 174.283 421.51Z" fill="black"/>
</g>
<path d="M210.992 414.31L205.575 446.413C204.878 450.544 200.395 453.63 195.092 453.63H161.394C156.091 453.63 151.608 450.544 150.911 446.413L145.494 414.31H210.992Z" fill="#407BFF"/>
<path opacity="0.3" d="M210.992 414.31L205.575 446.413C204.878 450.544 200.395 453.63 195.092 453.63H161.394C156.091 453.63 151.608 450.544 150.911 446.413L145.494 414.31H210.992Z" fill="white"/>
<path d="M435.031 227.135L429.965 219.938L428.836 214.047C428.75 213.602 428.476 213.194 428.057 212.888L426.055 211.425C424.974 210.637 423.268 210.738 422.352 211.646L418.919 215.051C418.134 215.83 418.203 216.946 419.079 217.662L426.01 223.32L429.758 230.68L435.031 227.135Z" fill="#FFC3BD"/>
<path d="M477.624 227.118C477.506 226.503 476.614 226.191 475.96 226.54C471.588 228.881 458.085 235.776 450.711 235.776C441.83 235.776 433.098 222.776 433.098 222.776L426.252 226.071C426.252 226.071 436.556 247.116 450.713 247.116C464.87 247.116 479.69 237.956 479.69 237.956L477.624 227.118Z" fill="#407BFF"/>
<path opacity="0.5" d="M477.624 227.118C477.506 226.503 476.614 226.191 475.96 226.54C471.588 228.881 458.085 235.776 450.711 235.776C441.83 235.776 433.098 222.776 433.098 222.776L426.252 226.071C426.252 226.071 436.556 247.116 450.713 247.116C464.87 247.116 479.69 237.956 479.69 237.956L477.624 227.118Z" fill="white"/>
<path d="M425.107 225.8L433.087 221.765L435.029 223.783L426.251 228.035L425.107 225.8Z" fill="#407BFF"/>
<path opacity="0.1" d="M462.105 245.438C471.833 242.796 479.689 237.958 479.689 237.958L477.959 228.876H475.676L462.105 245.438Z" fill="black"/>
<path d="M464.516 426.154L465.417 445.892H474.563L476.753 426.863L464.516 426.154Z" fill="#FFC3BD"/>
<path d="M513.889 426.828L517.905 446.325L526.981 445.432L526.144 426.336L513.889 426.828Z" fill="#FFC3BD"/>
<path d="M470.314 281.109C470.314 281.109 458.204 330.503 464.388 437.39H476.6C476.6 437.39 484.77 385.961 483.954 365.732C483.934 365.23 483.908 364.747 483.877 364.286C483.586 360.029 484.034 355.76 485.409 351.636L485.49 351.393L499.537 309.249C499.537 309.249 523.742 303.378 513.389 281.11H470.314V281.109Z" fill="#407BFF"/>
<path opacity="0.1" d="M496.445 304.793L491.184 293.862C491.184 293.862 487.27 315.962 489.766 338.564L498.932 311.063L496.445 304.793Z" fill="black"/>
<path d="M463.078 434.746L463.276 439.508L477.166 440.034L478.321 435.092L463.078 434.746Z" fill="#263238"/>
<path d="M489.297 281.109C489.297 281.109 488.321 334.681 515.789 439.479L527.85 437.972C527.85 437.972 525.63 389.678 521.259 368.537C521.046 367.504 520.827 366.537 520.604 365.643C519.259 360.266 518.557 354.808 518.741 349.33C518.743 349.26 518.745 349.19 518.748 349.121C519.163 336.824 520.075 317.272 521.839 308.971C523.244 302.356 523.421 296.341 520.33 282.221L489.297 281.109Z" fill="#407BFF"/>
<path d="M513.984 436.275L515.272 440.931L529.057 439.478V434.454L513.984 436.275Z" fill="#263238"/>
<path d="M558.346 254.762L568.228 254L572.462 251.316L582.336 252.381V255.141L579.507 259.632L568.785 258.247L557.658 259.906L558.346 254.762Z" fill="#FFC3BD"/>
<path d="M494.655 190.973C494.655 190.973 483.795 190.112 487.84 199.994L496.169 192.488L494.655 190.973Z" fill="#263238"/>
<path opacity="0.3" d="M494.655 190.973C494.655 190.973 483.795 190.112 487.84 199.994L496.169 192.488L494.655 190.973Z" fill="white"/>
<path d="M506.504 209.98C505.518 214.368 504.608 221.965 507.48 225.92C508.17 226.869 507.931 228.066 506.904 228.803C503.354 231.603 498.611 233.272 493.588 233.488C487.148 233.763 486.634 231.052 487.846 228.915C488.171 228.341 488.786 227.899 489.54 227.695C495.588 226.066 495.91 221.866 494.66 218.223L506.504 209.98Z" fill="#FFC3BD"/>
<path opacity="0.2" d="M501.683 213.361L494.658 218.209C494.945 219.104 495.136 220.016 495.225 220.937C497.905 220.593 508.934 216.126 501.683 213.361Z" fill="black"/>
<path d="M510.267 203.475C508.44 210.048 507.787 213.963 502.846 216.841C495.423 221.182 485.601 216.848 484.906 209.999C484.278 203.787 487.386 194.113 496.171 192.487C502.434 191.301 508.736 194.328 510.245 199.25C510.672 200.638 510.679 202.086 510.267 203.475Z" fill="#FFC3BD"/>
<path d="M496.676 203.775C496.567 204.319 496.12 204.713 495.669 204.656C495.218 204.599 494.944 204.12 495.053 203.576C495.162 203.033 495.61 202.646 496.061 202.704C496.512 202.761 496.786 203.241 496.676 203.775Z" fill="#263238"/>
<path d="M488.912 202.827C488.803 203.363 488.355 203.758 487.904 203.701C487.453 203.643 487.18 203.164 487.29 202.629C487.399 202.093 487.845 201.691 488.296 201.748C488.748 201.805 489.021 202.284 488.912 202.827Z" fill="#263238"/>
<path d="M491.754 203.384C490.605 204.932 489.19 206.348 487.549 207.593C488.618 208.637 490.742 208.485 490.742 208.485L491.754 203.384Z" fill="#ED847E"/>
<path d="M499.85 201.572C499.92 201.58 499.99 201.576 500.057 201.562C500.249 201.473 500.322 201.283 500.224 201.125C499.622 200.207 498.498 199.571 497.199 199.415C496.973 199.399 496.773 199.53 496.754 199.709C496.734 199.886 496.901 200.043 497.127 200.058C498.154 200.19 499.037 200.702 499.503 201.432C499.58 201.521 499.712 201.574 499.85 201.572Z" fill="#263238"/>
<path d="M486.379 199.995C486.518 199.999 486.649 199.945 486.726 199.854C487.291 199.175 488.231 198.747 489.262 198.701C489.487 198.705 489.675 198.567 489.68 198.39C489.686 198.213 489.51 198.065 489.284 198.061C487.965 198.097 486.752 198.632 486.025 199.496C485.898 199.636 485.94 199.831 486.117 199.931C486.12 199.933 486.124 199.934 486.127 199.936C486.2 199.978 486.29 199.998 486.379 199.995Z" fill="#263238"/>
<path d="M489.51 210.661C489.51 210.661 491.72 210.352 497.831 210.483C497.023 211.773 495.607 212.804 492.472 212.72C489.336 212.638 489.51 210.661 489.51 210.661Z" fill="#263238"/>
<path d="M494 211.728C492.803 211.648 491.6 211.841 490.539 212.283C491.114 212.573 491.786 212.722 492.47 212.715C493.665 212.795 494.864 212.602 495.923 212.159C495.349 211.871 494.68 211.72 494 211.728Z" fill="#FF5652"/>
<path d="M489.795 210.629C489.906 210.971 490.26 211.231 490.701 211.297C492.515 211.336 494.331 211.265 496.133 211.086C496.705 211.074 497.234 210.847 497.558 210.476C494.969 210.388 492.375 210.439 489.795 210.629Z" fill="white"/>
<path d="M508.501 194.769C508.501 194.769 502.994 196.819 505.024 200.918C507.052 205.018 504.574 207.523 504.574 207.523L508.501 207.978C508.501 207.978 517.227 203.171 515.265 196.363L508.501 194.769Z" fill="#263238"/>
<path opacity="0.3" d="M508.501 194.769C508.501 194.769 502.994 196.819 505.024 200.918C507.052 205.018 504.574 207.523 504.574 207.523L508.501 207.978C508.501 207.978 517.227 203.171 515.265 196.363L508.501 194.769Z" fill="white"/>
<path d="M513.164 210.169C511.748 211.439 509.75 212.219 507.606 212.341C504.756 212.471 503.926 210.364 505.218 208.495C506.374 206.82 509.258 204.723 511.874 205.462C514.489 206.2 514.884 208.585 513.164 210.169Z" fill="#FFC3BD"/>
<path d="M514.735 197.514C517.657 196.372 520.146 190.553 508.675 188.431C494.455 185.801 489.65 180.345 489.65 180.345C489.65 180.345 489.046 185.508 493.231 187.481C493.231 187.481 487.537 184.976 485.412 189.075C485.412 189.075 488.936 188.24 493.231 192.871C498.914 198.998 509.743 199.467 514.735 197.514Z" fill="#263238"/>
<path d="M494.864 193.252C494.864 193.252 485.951 187.634 485.412 195.174C485.412 195.174 488.23 193.353 494.864 193.252Z" fill="#263238"/>
<path d="M521.77 228.268C522.377 227.783 523.416 227.949 523.71 228.589C525.489 232.466 533.154 246.744 538.726 249.928C545.542 253.821 564.432 253.496 564.432 253.496L564.834 259.773C564.834 259.773 542.379 264.122 531.516 257.918C520.655 251.713 512.664 235.54 512.664 235.54L521.77 228.268Z" fill="#407BFF"/>
<path opacity="0.5" d="M521.77 228.268C522.377 227.783 523.416 227.949 523.71 228.589C525.489 232.466 533.154 246.744 538.726 249.928C545.542 253.821 564.432 253.496 564.432 253.496L564.834 259.773C564.834 259.773 542.379 264.122 531.516 257.918C520.655 251.713 512.664 235.54 512.664 235.54L521.77 228.268Z" fill="white"/>
<path opacity="0.1" d="M515.292 238.362L515.244 240.137C518.205 245.017 523.499 252.589 529.971 256.938L522.206 231.535L515.292 238.362Z" fill="black"/>
<path d="M563.244 252.747L563.771 260.711L566.404 260.194L565.943 252.747H563.244Z" fill="#407BFF"/>
<path d="M519.944 226.613C516.052 226.148 510.218 225.532 503.697 225.105L497.947 227.362L495.318 224.7C490.029 224.541 484.635 224.574 479.693 224.964C477.014 225.177 474.858 226.752 474.381 228.833C472.379 237.551 466.216 263.853 468.897 286.373C468.897 286.373 483.197 288.802 489.381 285.563C489.381 285.563 507.851 290.498 521.763 286.246L524.648 231.188C524.812 228.936 522.779 226.952 519.944 226.613Z" fill="#407BFF"/>
<path opacity="0.5" d="M519.944 226.613C516.052 226.148 510.218 225.532 503.697 225.105L497.947 227.362L495.318 224.7C490.029 224.541 484.635 224.574 479.693 224.964C477.014 225.177 474.858 226.752 474.381 228.833C472.379 237.551 466.216 263.853 468.897 286.373C468.897 286.373 483.197 288.802 489.381 285.563C489.381 285.563 507.851 290.498 521.763 286.246L524.648 231.188C524.812 228.936 522.779 226.952 519.944 226.613Z" fill="white"/>
<path d="M495.866 223.554L498.323 226.349L506.415 222.945C507.464 222.504 508.759 222.661 509.587 223.332L512.681 225.831L504.69 232.907C504.293 233.259 503.559 233.051 503.546 232.581C503.497 230.559 502.772 227.136 498.322 227.862C498.322 227.862 494.064 225.817 491.558 230.137C491.289 230.601 490.4 230.48 490.323 229.973L489.506 224.606L492.047 223.079C493.262 222.353 495.001 222.569 495.866 223.554Z" fill="#407BFF"/>
<path d="M498.257 230.018C498.257 230.526 497.733 230.937 497.086 230.937C496.44 230.937 495.916 230.526 495.916 230.018C495.916 229.509 496.44 229.097 497.086 229.097C497.732 229.098 498.257 229.509 498.257 230.018Z" fill="#263238"/>
<path d="M494.35 244.622C494.35 245.13 493.825 245.541 493.178 245.541C492.531 245.541 492.008 245.13 492.008 244.622C492.008 244.113 492.533 243.701 493.178 243.701C493.825 243.701 494.35 244.113 494.35 244.622Z" fill="#263238"/>
<path d="M491.849 260.898C491.849 261.407 491.325 261.819 490.678 261.819C490.031 261.819 489.508 261.408 489.508 260.898C489.508 260.39 490.031 259.979 490.678 259.979C491.324 259.978 491.849 260.39 491.849 260.898Z" fill="#263238"/>
<path d="M490.679 277.051C490.679 277.559 490.154 277.97 489.508 277.97C488.861 277.97 488.338 277.558 488.338 277.051C488.338 276.543 488.863 276.13 489.508 276.13C490.154 276.131 490.679 276.543 490.679 277.051Z" fill="#263238"/>
<path d="M465.39 443.705L475.641 443.695C476.086 443.701 476.467 443.948 476.556 444.292L480.082 452.036C480.262 452.707 479.718 453.365 478.864 453.508C478.754 453.526 478.642 453.536 478.53 453.536C474.276 453.42 470.496 453.186 465.197 453.121C458.944 453.039 460.518 453.648 453.165 453.632C448.736 453.618 448.01 449.652 449.892 449.482C458.506 448.748 459.443 446.72 462.811 444.348C463.542 443.891 464.46 443.663 465.39 443.705Z" fill="#263238"/>
<path d="M517.48 443.705L527.732 443.695C528.177 443.701 528.558 443.948 528.648 444.292L532.171 452.036C532.352 452.707 531.807 453.365 530.953 453.508C530.844 453.526 530.732 453.536 530.62 453.536C526.366 453.42 522.586 453.186 517.287 453.121C511.034 453.039 512.608 453.648 505.255 453.632C500.826 453.618 500.1 449.652 501.982 449.482C510.596 448.748 511.533 446.72 514.901 444.348C515.632 443.891 516.549 443.663 517.48 443.705Z" fill="#263238"/>
<path d="M490.541 213.824C490.541 213.824 492.994 215.266 496.172 213.824C496.172 213.824 495.904 216.848 494.866 217.149C494.534 217.246 493.671 216.557 493.671 216.557C493.671 216.557 493.102 218.054 492.556 218.032C491.959 218.008 491.556 216.33 491.556 216.33C491.556 216.33 490.878 217.257 490.541 217.15C489.561 216.837 490.541 213.824 490.541 213.824Z" fill="#263238"/>
<path opacity="0.5" d="M490.541 213.824C490.541 213.824 492.994 215.266 496.172 213.824C496.172 213.824 495.904 216.848 494.866 217.149C494.534 217.246 493.671 216.557 493.671 216.557C493.671 216.557 493.102 218.054 492.556 218.032C491.959 218.008 491.556 216.33 491.556 216.33C491.556 216.33 490.878 217.257 490.541 217.15C489.561 216.837 490.541 213.824 490.541 213.824Z" fill="white"/>
<path d="M518.603 347.206L516.051 446.825H525.067C525.067 446.825 542.284 382.577 537.474 361.645L552.273 321.235L521.95 323.852L518.603 347.206Z" fill="#FFB573"/>
<path d="M553.718 348.985L568.047 447.113H576.867C576.867 447.113 582.743 381.805 574.7 361.495L575.355 320.845L548.967 323.853L553.718 348.985Z" fill="#FFB573"/>
<path d="M516.834 444.726L526.032 444.717C526.431 444.722 526.773 444.944 526.854 445.251L530.017 452.199C530.179 452.801 529.689 453.392 528.923 453.52C528.825 453.537 528.725 453.544 528.624 453.544C524.806 453.441 521.415 453.231 516.661 453.173C511.051 453.099 512.462 453.644 505.865 453.63C501.891 453.618 501.241 450.059 502.928 449.908C510.658 449.249 511.498 447.429 514.52 445.301C515.175 444.892 516 444.688 516.834 444.726Z" fill="#407BFF"/>
<path d="M568.387 444.726L577.585 444.717C577.984 444.722 578.325 444.944 578.407 445.251L581.569 452.199C581.732 452.801 581.242 453.392 580.476 453.52C580.378 453.537 580.277 453.544 580.176 453.544C576.358 453.441 572.968 453.231 568.213 453.173C562.603 453.099 564.015 453.644 557.418 453.63C553.443 453.618 552.794 450.059 554.482 449.908C562.21 449.249 563.051 447.429 566.073 445.301C566.728 444.892 567.551 444.688 568.387 444.726Z" fill="#407BFF"/>
<path d="M523.784 289.839C523.784 289.839 514.164 326.469 516.383 367.751C516.383 367.751 546.723 368.914 580.023 366.298C580.023 366.298 576.076 353.798 577.803 340.134C579.838 324.02 575.582 304.957 563.002 289.839H523.784Z" fill="#407BFF"/>
<path opacity="0.5" d="M523.784 289.839C523.784 289.839 514.164 326.469 516.383 367.751C516.383 367.751 546.723 368.914 580.023 366.298C580.023 366.298 576.076 353.798 577.803 340.134C579.838 324.02 575.582 304.957 563.002 289.839H523.784Z" fill="white"/>
<path d="M527.711 246.232C527.711 246.232 519.657 250.405 516.844 265.637C513.421 284.17 524.651 277.827 524.651 277.827L527.711 246.232Z" fill="#FFB573"/>
<path d="M563.183 213.24C567.396 215.262 568.312 219.901 568.606 222.679C568.9 225.457 565.366 222.703 568.173 227.426C570.98 232.15 572.811 236.426 563.424 235.791C554.037 235.156 546.802 236.236 540.806 237.893C534.81 239.55 530.457 237.416 533.747 231.472C537.037 225.528 532.414 221.756 530.051 219.878C527.688 217.999 525.41 211.126 532.697 209.001C539.984 206.877 533.054 204.342 541.954 203.509C550.855 202.675 568.586 205.391 563.183 213.24Z" fill="#263238"/>
<path d="M542.965 241.27L553.671 241.034C552.657 237.354 553.91 232.11 555.003 228.909L544.068 235.326C544.531 237.501 544.607 239.729 542.965 241.27Z" fill="#FFB573"/>
<path opacity="0.2" d="M552.332 231.699L544.012 235.351C544.208 236.138 544.316 236.937 544.334 237.739C546.67 237.593 551.657 237.184 552.332 231.699Z" fill="black"/>
<path d="M560.116 219.776C558.774 226.872 558.405 229.897 553.421 233.245C545.922 238.287 535.127 235.445 533.737 228.179C532.487 221.638 534.883 211.141 544.074 208.901C550.632 207.274 557.625 210.133 559.694 215.284C560.277 216.735 560.421 218.273 560.116 219.776Z" fill="#FFB573"/>
<path d="M561.645 225.562C560.997 226.852 559.722 227.887 558.102 228.438C555.947 229.155 554.572 227.7 554.921 225.979C555.233 224.436 556.731 222.195 559.017 222.206C560.681 222.254 561.981 223.352 561.92 224.66C561.904 224.971 561.812 225.278 561.645 225.562Z" fill="#FFB573"/>
<path d="M554.063 206.277C555.925 208.262 552.552 212.522 544.27 212.848C538.027 213.096 530.972 218.997 530.816 213.284C530.631 208.091 545.884 204.292 554.063 206.277Z" fill="#263238"/>
<path d="M549.77 208.216C545.832 211.166 549.344 215.639 551.705 217.58C554.067 219.523 557.528 221.235 555.496 224.586C553.464 227.937 552.972 236.715 560.633 234.527C568.295 232.339 566.506 222.056 563.559 217.488C560.611 212.919 554.459 204.709 549.77 208.216Z" fill="#263238"/>
<path d="M539.897 221.418C539.097 222.699 538.073 223.887 536.859 224.95C537.571 225.432 538.518 225.642 539.445 225.523L539.897 221.418Z" fill="#ED893E"/>
<path d="M549.829 218.185C549.892 218.178 549.951 218.159 550.002 218.13C550.162 218.036 550.193 217.858 550.072 217.732L550.068 217.728C549.262 216.85 547.961 216.335 546.582 216.351C546.386 216.367 546.241 216.501 546.25 216.656C546.266 216.81 546.434 216.926 546.63 216.918C547.768 216.92 548.835 217.353 549.5 218.079C549.578 218.157 549.703 218.198 549.829 218.185Z" fill="#263238"/>
<path d="M534.149 217.224C534.212 217.216 534.271 217.197 534.324 217.169C535.229 216.633 536.405 216.47 537.488 216.731C537.673 216.79 537.884 216.72 537.96 216.575L537.961 216.571C538.03 216.423 537.935 216.258 537.749 216.201C536.437 215.871 535.002 216.059 533.897 216.704C533.731 216.791 533.684 216.967 533.794 217.098C533.871 217.192 534.011 217.24 534.149 217.224Z" fill="#263238"/>
<path d="M545.222 220.812C545.16 221.39 544.717 221.832 544.227 221.802C543.737 221.772 543.406 221.276 543.476 220.691C543.546 220.105 543.982 219.671 544.46 219.701C544.942 219.732 545.282 220.227 545.222 220.812Z" fill="#263238"/>
<path d="M536.868 220.248C536.807 220.825 536.363 221.267 535.884 221.238C535.405 221.207 535.064 220.712 535.124 220.128C535.184 219.542 535.629 219.108 536.108 219.138C536.587 219.167 536.938 219.662 536.868 220.248Z" fill="#263238"/>
<path d="M536.312 219.183L534.582 218.664C534.582 218.664 535.379 219.811 536.312 219.183Z" fill="#263238"/>
<path d="M544.67 219.747L542.941 219.228C542.941 219.228 543.737 220.376 544.67 219.747Z" fill="#263238"/>
<path d="M522.516 291.583C522.516 291.583 521.773 283.642 522.065 272.832C522.11 271.161 521.088 269.343 521.088 265.49C521.088 261.736 522.524 257.415 522.705 255.781C523.462 248.894 524.948 247.811 527.711 246.231C536.713 241.087 563.971 241.13 566.931 246.231C571.464 254.042 562.476 273.558 565.436 291.583C565.436 291.583 543.977 295.653 522.516 291.583Z" fill="#263238"/>
<path opacity="0.5" d="M567.336 247.159H562.594C562.594 247.159 559.364 251.636 565.814 271.3C567.239 261.153 569.441 252.236 567.336 247.159Z" fill="black"/>
<path d="M542.653 238.447C545.258 238.652 550.426 238.877 554.853 237.975C555.667 237.809 556.443 238.358 556.331 239.015C556.079 240.488 556.103 242.561 558.098 242.907C558.098 242.907 548.411 248.026 537.207 243.35C537.207 243.35 541.775 242.713 541.354 239.545C541.271 238.927 541.868 238.386 542.653 238.447Z" fill="#263238"/>
<path d="M522.44 271.704C527.621 269.085 532.202 267.128 532.202 267.128L535.986 261.116C536.27 260.665 536.876 260.397 537.513 260.44L540.047 260.609C540.882 260.665 541.512 261.23 541.471 261.887L541.026 269.191C540.992 269.735 540.507 270.196 539.833 270.323L534.421 271.344C534.421 271.344 522.507 281.411 519.64 279.776C515.36 277.332 518.623 273.633 522.44 271.704Z" fill="#FFB573"/>
<path opacity="0.1" d="M544.873 323.852L543.297 367.937C546.85 367.885 550.652 367.801 554.637 367.673L544.873 323.852Z" fill="black"/>
<path d="M563.851 245.773C567.353 244.125 574.412 248.496 577.342 265.129C580.024 280.351 574.673 282.378 566.978 278.115C558.851 273.612 550.917 270.362 550.917 270.362L545.117 269.489L540.989 269.233C539.791 269.158 538.857 268.384 538.828 267.44L538.657 261.932C538.623 260.84 539.798 259.965 541.184 260.049L545.117 260.289L551.747 265.694L569.492 270.75C569.492 270.75 568.442 262.499 565.839 258.443C563.095 254.163 560.63 247.29 563.851 245.773Z" fill="#FFB573"/>
<path opacity="0.1" d="M540.047 260.608L538.044 260.475C537.519 260.885 537.188 261.451 537.208 262.084L537.412 268.664C537.437 269.46 538.014 270.136 538.844 270.508L539.834 270.321C540.508 270.193 540.993 269.732 541.027 269.189L541.472 261.885C541.511 261.228 540.881 260.663 540.047 260.608Z" fill="black"/>
<path d="M563.851 245.773C567.353 244.125 574.412 248.496 577.342 265.129C580.024 280.351 574.673 282.378 566.978 278.115C558.851 273.612 550.917 270.362 550.917 270.362L545.117 269.489L540.989 269.233C539.791 269.158 538.857 268.384 538.828 267.44L538.657 261.932C538.623 260.84 539.798 259.965 541.184 260.049L545.117 260.289L551.747 265.694L569.492 270.75C569.492 270.75 568.442 262.499 565.839 258.443C563.095 254.163 560.63 247.29 563.851 245.773Z" fill="#FFB573"/>
<path d="M550.042 211.206C550.042 211.206 544.448 216.75 539.997 215.321C535.547 213.893 542.458 215.155 550.042 211.206Z" fill="#263238"/>
<path d="M541.199 228.908C540.772 228.909 540.345 228.879 539.925 228.821C539.803 228.806 539.722 228.715 539.741 228.62C539.741 228.617 539.741 228.616 539.743 228.614C539.764 228.521 539.876 228.457 539.995 228.471C541.878 228.76 543.822 228.334 545.242 227.319C545.326 227.247 545.469 227.241 545.561 227.307C545.653 227.373 545.66 227.486 545.576 227.558C544.395 228.436 542.825 228.92 541.199 228.908Z" fill="#263238"/>
<path opacity="0.6" d="M540.605 243.76C540.605 243.76 546.649 245.432 555.004 243.178C555.004 243.178 542.621 249.179 540.605 243.76Z" fill="black"/>
</svg>
