<svg width="481" height="485" viewBox="0 0 481 485" fill="none" xmlns="http://www.w3.org/2000/svg">
<path d="M0 345.757L239.801 484.207L480.048 345.5L240.024 207.438L0 345.757Z" fill="#80B4D6"/>
<path d="M18.2207 296.539L240.023 424.596L462.237 296.301L240.229 168.602L18.2207 296.539Z" fill="#2D508A"/>
<path opacity="0.3" d="M43.2832 296.549L240.234 183.051L437.157 296.321L240.023 410.136L43.2832 296.549Z" fill="#2D508A"/>
<path d="M18.2207 296.539V340.694L240.023 468.752V424.597L18.2207 296.539Z" fill="#2C3673"/>
<path d="M462.238 296.301L240.023 424.596V468.751L462.238 340.455V296.301Z" fill="#28225E"/>
<path d="M354.095 267.573L356.011 266.919C356.011 266.919 354.527 243.881 343.786 226.287C333.82 209.962 326.153 205.877 326.153 205.877L323.99 207.074C323.99 207.074 346.79 227.938 354.095 267.573Z" fill="#F04E70"/>
<path d="M323.988 207.074C323.988 207.074 348.925 223.892 354.094 267.573C343.686 256.07 333.47 246.769 323.988 245.824V207.074Z" fill="#C73855"/>
<path d="M337.851 266.976C337.903 278.433 324.511 287.782 307.94 287.857C291.364 287.932 277.888 278.706 277.837 267.249L277.467 185.862L337.481 185.59L337.831 266.334C337.844 266.545 337.85 266.761 337.851 266.976Z" fill="white"/>
<path d="M337.481 185.592C337.481 185.592 328.411 197.809 307.521 197.905C286.632 198 277.467 185.865 277.467 185.865C277.467 185.865 280.013 142.603 307.176 119.418C334.548 142.354 337.481 185.592 337.481 185.592Z" fill="#2D508A"/>
<path d="M337.481 185.592C337.481 185.592 328.411 197.809 307.521 197.905C286.632 198 277.467 185.865 277.467 185.865C285.64 192.825 311.502 199.408 318.073 180.178C324.643 160.941 307.176 119.418 307.176 119.418C334.548 142.354 337.481 185.592 337.481 185.592Z" fill="#2C3673"/>
<path d="M337.911 280.476C337.963 291.934 324.571 301.282 308.001 301.357C291.424 301.432 277.948 292.206 277.897 280.749L277.836 267.25C277.887 278.707 291.364 287.934 307.94 287.858C324.198 287.784 337.396 278.782 337.836 267.62L337.891 279.833C337.903 280.045 337.91 280.261 337.911 280.476Z" fill="#C73855"/>
<path d="M337.886 274.942C337.887 275.158 337.882 275.373 337.873 275.584C337.432 286.747 324.233 295.748 307.976 295.822C291.399 295.897 277.924 286.671 277.872 275.214L277.836 267.25C277.887 278.707 291.364 287.934 307.94 287.858C324.198 287.784 337.396 278.782 337.836 267.62L337.867 274.299C337.879 274.51 337.884 274.726 337.886 274.942Z" fill="#F04E70"/>
<path d="M337.886 254.703C337.887 254.92 337.882 255.135 337.873 255.346C337.432 266.509 324.233 275.51 307.976 275.584C291.399 275.659 277.924 266.433 277.872 254.976L277.836 247.012C277.887 258.469 291.364 267.696 307.94 267.62C324.198 267.546 337.396 258.544 337.836 247.381L337.867 254.061C337.879 254.27 337.884 254.487 337.886 254.703Z" fill="#DDE3E8"/>
<path d="M337.886 236.176C337.887 236.392 337.882 236.608 337.873 236.818C337.432 247.981 324.233 256.983 307.976 257.056C291.399 257.131 277.924 247.906 277.872 236.449L277.836 228.484C277.887 239.942 291.364 249.168 307.94 249.092C324.198 249.019 337.396 240.016 337.836 228.854L337.867 235.533C337.879 235.744 337.884 235.961 337.886 236.176Z" fill="#DDE3E8"/>
<path d="M304.323 285.19C304.423 307.334 278.541 325.401 246.515 325.547C214.478 325.692 188.434 307.861 188.333 285.717L187.619 128.421L303.61 127.895L304.287 283.948C304.308 284.354 304.321 284.772 304.323 285.19Z" fill="white"/>
<path d="M303.608 127.895C303.608 127.895 286.079 151.508 245.703 151.69C205.329 151.874 187.617 128.421 187.617 128.421C187.617 128.421 192.539 44.8093 245.036 0C297.937 44.3307 303.608 127.895 303.608 127.895Z" fill="#2D508A"/>
<path d="M303.608 127.895C303.608 127.895 286.079 151.508 245.703 151.69C205.329 151.874 187.617 128.421 187.617 128.421C203.416 141.875 253.397 154.598 266.096 117.431C278.795 80.2538 245.035 0 245.035 0C297.937 44.3307 303.608 127.895 303.608 127.895Z" fill="#2C3673"/>
<path d="M304.44 311.279C304.54 333.423 278.659 351.491 246.632 351.636C214.595 351.781 188.55 333.95 188.45 311.806L188.332 285.717C188.433 307.861 214.477 325.692 246.514 325.547C277.935 325.404 303.445 308.007 304.297 286.433L304.405 310.038C304.425 310.445 304.437 310.863 304.44 311.279Z" fill="#C73855"/>
<path d="M304.392 300.584C304.394 301.002 304.385 301.418 304.366 301.825C303.514 323.4 278.004 340.798 246.584 340.939C214.547 341.085 188.502 323.253 188.402 301.109L188.332 285.717C188.433 307.861 214.477 325.692 246.514 325.547C277.935 325.404 303.445 308.007 304.297 286.433L304.356 299.341C304.378 299.748 304.389 300.166 304.392 300.584Z" fill="#F04E70"/>
<path d="M304.245 268.496C304.248 268.914 304.238 269.331 304.22 269.737C303.368 291.312 277.858 308.709 246.438 308.852C214.401 308.997 188.356 291.166 188.256 269.021L188.186 253.629C188.286 275.773 214.331 293.604 246.368 293.459C277.789 293.316 303.299 275.919 304.149 254.345L304.208 267.253C304.231 267.662 304.244 268.078 304.245 268.496Z" fill="#DDE3E8"/>
<path d="M304.092 234.263C304.095 234.681 304.085 235.098 304.066 235.505C303.215 257.079 277.706 274.478 246.283 274.619C214.247 274.764 188.202 256.933 188.101 234.789L188.031 219.396C188.132 241.541 214.176 259.372 246.213 259.227C277.635 259.084 303.144 241.687 303.996 220.113L304.055 233.022C304.077 233.429 304.09 233.846 304.092 234.263Z" fill="#DDE3E8"/>
<path d="M211.714 311.195C211.767 322.652 198.374 332.001 181.804 332.076C165.227 332.15 151.751 322.925 151.7 311.468L151.33 230.081L211.345 229.809L211.696 310.553C211.707 310.763 211.713 310.979 211.714 311.195Z" fill="white"/>
<path d="M211.345 229.809C211.345 229.809 202.275 242.027 181.385 242.122C160.495 242.216 151.33 230.082 151.33 230.082C151.33 230.082 153.876 186.819 181.04 163.635C208.411 186.572 211.345 229.809 211.345 229.809Z" fill="#2D508A"/>
<path d="M211.345 229.81C211.345 229.81 202.275 242.028 181.385 242.122C160.495 242.217 151.33 230.082 151.33 230.082C159.504 237.044 185.366 243.626 191.936 224.397C198.507 205.16 181.04 163.637 181.04 163.637C208.411 186.573 211.345 229.81 211.345 229.81Z" fill="#2C3673"/>
<path d="M211.777 324.695C211.828 336.152 198.437 345.501 181.866 345.576C165.289 345.651 151.814 336.425 151.762 324.968L151.701 311.469C151.753 322.926 165.23 332.153 181.805 332.077C198.063 332.003 211.262 323.001 211.702 311.839L211.757 324.052C211.768 324.263 211.775 324.479 211.777 324.695Z" fill="#C73855"/>
<path d="M211.751 319.16C211.752 319.377 211.747 319.592 211.738 319.803C211.297 330.966 198.098 339.967 181.841 340.041C165.265 340.116 151.789 330.89 151.737 319.433L151.701 311.469C151.753 322.926 165.23 332.153 181.805 332.077C198.063 332.003 211.262 323.001 211.702 311.839L211.732 318.518C211.744 318.728 211.75 318.944 211.751 319.16Z" fill="#F04E70"/>
<path d="M211.751 299.459C211.752 299.674 211.747 299.891 211.738 300.102C211.297 311.264 198.098 320.266 181.841 320.34C165.265 320.414 151.789 311.189 151.737 299.732L151.701 291.768C151.753 303.225 165.23 312.451 181.805 312.375C198.063 312.302 211.262 303.3 211.702 292.137L211.732 298.817C211.744 299.026 211.75 299.243 211.751 299.459Z" fill="#DDE3E8"/>
<path d="M211.751 281.93C211.752 282.146 211.747 282.362 211.738 282.572C211.297 293.736 198.098 302.737 181.841 302.81C165.265 302.885 151.789 293.66 151.737 282.202L151.701 274.238C151.753 285.695 165.23 294.922 181.805 294.846C198.063 294.772 211.262 285.77 211.702 274.608L211.732 281.287C211.744 281.498 211.75 281.713 211.751 281.93Z" fill="#DDE3E8"/>
<path d="M273.174 227.864C287.19 227.864 298.552 213.104 298.552 194.896C298.552 176.688 287.19 161.928 273.174 161.928C259.157 161.928 247.795 176.688 247.795 194.896C247.795 213.104 259.157 227.864 273.174 227.864Z" fill="#C73855"/>
<path d="M275.687 227.864C289.703 227.864 301.066 213.104 301.066 194.896C301.066 176.688 289.703 161.928 275.687 161.928C261.671 161.928 250.309 176.688 250.309 194.896C250.309 213.104 261.671 227.864 275.687 227.864Z" fill="#F04E70"/>
<path d="M297.885 195.153C297.885 210.278 288.455 222.533 276.81 222.533C276.487 222.533 276.164 222.523 275.839 222.494C275.801 222.503 275.763 222.503 275.725 222.494C264.593 221.762 255.732 209.802 255.732 195.153C255.732 180.504 264.593 168.543 275.725 167.812C275.763 167.803 275.801 167.803 275.839 167.812C276.162 167.784 276.485 167.773 276.81 167.773C288.455 167.773 297.885 180.027 297.885 195.153Z" fill="#C73855"/>
<path d="M295.832 195.153C295.832 209.802 286.971 221.761 275.839 222.494C275.801 222.503 275.763 222.503 275.725 222.494C275.306 222.466 274.888 222.427 274.48 222.351C263.936 220.859 255.732 209.251 255.732 195.153C255.732 181.055 263.936 169.446 274.48 167.954C274.888 167.878 275.307 167.84 275.725 167.812C275.763 167.802 275.801 167.802 275.839 167.812C286.972 168.543 295.832 180.503 295.832 195.153Z" fill="#80B4D6"/>
<path d="M293.218 195.153C293.218 209.252 285.014 220.85 274.48 222.352C263.936 220.86 255.732 209.252 255.732 195.153C255.732 181.055 263.936 169.447 274.48 167.955C285.014 169.456 293.218 181.055 293.218 195.153Z" fill="#9DC8EB"/>
<path d="M135.255 322.243L133.121 321.514C133.121 321.514 134.776 295.836 146.747 276.226C157.855 258.03 166.4 253.477 166.4 253.477L168.81 254.811C168.81 254.811 143.398 278.065 135.255 322.243Z" fill="#F04E70"/>
<path d="M168.81 254.809C168.81 254.809 141.018 273.552 135.256 322.24C146.857 309.418 158.244 299.05 168.81 298V254.809Z" fill="#C73855"/>
<path d="M272.338 376.842C272.501 376.854 272.668 376.851 272.837 376.83C274.268 376.661 275.291 375.364 275.122 373.933L251.83 176.51C251.66 175.079 250.365 174.059 248.932 174.225C247.501 174.394 246.479 175.691 246.647 177.122L269.939 374.545C270.089 375.808 271.115 376.753 272.338 376.842Z" fill="#28225E"/>
<path d="M307.303 358.359C307.465 358.371 307.633 358.368 307.801 358.348C309.232 358.178 310.255 356.881 310.086 355.45L287.021 159.952C286.851 158.521 285.556 157.496 284.124 157.667C282.693 157.837 281.67 159.133 281.838 160.564L304.904 356.062C305.053 357.325 306.081 358.269 307.303 358.359Z" fill="#28225E"/>
<path d="M252.097 191.109C252.54 191.14 252.995 191.061 253.422 190.855L286.477 174.851C287.774 174.222 288.317 172.662 287.688 171.366C287.062 170.069 285.501 169.525 284.203 170.155L251.148 186.159C249.852 186.787 249.309 188.347 249.937 189.644C250.357 190.512 251.199 191.043 252.097 191.109Z" fill="#28225E"/>
<path d="M255.638 219.77C256.079 219.801 256.535 219.722 256.961 219.514L290.373 203.337C291.67 202.708 292.213 201.149 291.584 199.852C290.957 198.556 289.397 198.011 288.099 198.641L254.688 214.819C253.391 215.447 252.848 217.007 253.476 218.303C253.898 219.174 254.738 219.704 255.638 219.77Z" fill="#28225E"/>
<path d="M259.181 248.428C259.622 248.46 260.078 248.38 260.504 248.173L293.764 232.069C295.06 231.441 295.603 229.881 294.975 228.584C294.348 227.288 292.788 226.744 291.49 227.373L258.23 243.477C256.934 244.106 256.391 245.665 257.019 246.962C257.441 247.833 258.282 248.363 259.181 248.428Z" fill="#28225E"/>
<path d="M262.722 277.088C263.163 277.12 263.619 277.04 264.045 276.833L297.065 260.845C298.362 260.217 298.904 258.657 298.276 257.36C297.649 256.065 296.09 255.518 294.791 256.149L261.771 272.137C260.475 272.765 259.932 274.325 260.56 275.622C260.98 276.491 261.822 277.023 262.722 277.088Z" fill="#28225E"/>
<path d="M266.263 305.748C266.704 305.781 267.16 305.7 267.586 305.493L300.349 289.63C301.645 289.002 302.188 287.442 301.56 286.145C300.932 284.85 299.373 284.304 298.075 284.934L265.312 300.797C264.016 301.425 263.473 302.985 264.101 304.282C264.523 305.151 265.364 305.683 266.263 305.748Z" fill="#28225E"/>
<path d="M269.806 334.41C270.247 334.441 270.702 334.362 271.129 334.155L303.935 318.271C305.231 317.642 305.774 316.083 305.146 314.786C304.519 313.491 302.959 312.944 301.661 313.575L268.855 329.459C267.559 330.087 267.016 331.647 267.644 332.944C268.066 333.814 268.906 334.344 269.806 334.41Z" fill="#28225E"/>
<path d="M273.347 363.07C273.788 363.102 274.244 363.022 274.67 362.815L307.324 347.005C308.62 346.376 309.163 344.817 308.535 343.52C307.908 342.223 306.348 341.679 305.05 342.309L272.396 358.119C271.1 358.747 270.557 360.307 271.185 361.604C271.605 362.473 272.447 363.005 273.347 363.07Z" fill="#28225E"/>
<path d="M412.517 377.057C399.4 384.639 386.166 392.034 373.012 399.554C379.47 403.332 390.138 405.803 402.217 405.803C421.928 405.803 437.907 399.229 437.907 391.119C437.907 384.481 427.206 378.875 412.517 377.057Z" fill="#80B4D6"/>
<path d="M384.713 385.498C383.891 385.736 383.284 386.437 383.129 387.278C382.995 388.014 382.873 389.067 382.873 390.472C382.873 393.602 382.873 395.254 382.873 395.254C382.873 395.254 383.785 396.559 386.538 397.094L387.306 396.645C387.306 396.645 393.498 401.118 396.415 401.493C400.222 401.984 404.177 400.384 401.134 396.645C398.258 393.114 393.917 391.599 392.707 388.804C392.566 388.478 392.409 388.154 392.168 387.893C390.121 385.681 387.713 384.632 384.713 385.498Z" fill="#28225E"/>
<path d="M385.307 379.426L384.742 387.144C384.742 387.144 387.307 389.296 390.439 388.079L391.686 379.687C391.686 379.687 387.525 378.383 385.307 379.426Z" fill="#FFB591"/>
<path d="M374.185 311.352L394.971 327.75C397.133 329.847 398.713 333.126 398.367 336.118C396.879 348.968 395.536 366.468 393.959 374.086C393.948 374.128 393.937 374.169 393.927 374.221C393.802 374.805 393.687 375.369 393.572 375.912C393.51 376.194 393.447 376.466 393.394 376.727C392.956 378.772 391.683 385.2 391.683 385.2C388.824 385.794 386.643 385.378 383.647 384.292C383.647 384.292 384.179 368.273 384.492 360.696C384.774 353.757 385.057 343.556 385.35 341.625C373.926 333.946 363.753 326.814 360.666 322.785C365.454 316.212 374.185 311.352 374.185 311.352Z" fill="#9DC8EB"/>
<path d="M408.023 373.343C407.202 373.58 406.594 374.281 406.44 375.121C406.305 375.857 406.184 376.912 406.184 378.315C406.184 381.445 406.184 383.097 406.184 383.097C406.184 383.097 407.095 384.402 409.849 384.937L410.616 384.489C410.616 384.489 416.809 388.961 419.726 389.337C423.533 389.827 427.488 388.227 424.444 384.489C421.569 380.957 417.228 379.442 416.018 376.647C415.876 376.321 415.719 375.997 415.478 375.736C413.43 373.525 411.023 372.476 408.023 373.343Z" fill="#28225E"/>
<path d="M408.616 367.272L408.051 374.99C408.051 374.99 410.616 377.142 413.747 375.925L414.995 367.533C414.995 367.533 410.833 366.228 408.616 367.272Z" fill="#FFB591"/>
<path d="M396.609 292.764L418.278 315.596C420.441 317.693 422.021 320.972 421.674 323.965C420.187 336.815 418.844 354.315 417.266 361.932C417.256 361.975 417.245 362.015 417.235 362.068C417.109 362.652 416.995 363.216 416.88 363.759C416.818 364.041 416.755 364.313 416.702 364.573C416.263 366.619 414.99 373.047 414.99 373.047C412.13 373.641 409.95 373.225 406.955 372.139C406.955 372.139 407.487 356.12 407.8 348.543C408.082 341.604 408.85 330.507 409.143 328.577C397.083 319.531 391.223 312.385 386.576 308.399C391.365 301.824 396.609 292.764 396.609 292.764Z" fill="#9DC8EB"/>
<path d="M359.516 313.491V320.149C359.516 322.749 362.805 325.119 365.058 323.819L394.914 306.12C395.958 305.516 397.084 303.566 397.084 302.36V295.702C397.084 293.102 395.052 287.603 392.799 288.903L359.996 304.845C358.951 305.448 359.516 312.283 359.516 313.491Z" fill="#9DC8EB"/>
<path d="M390.094 231.148C390.094 231.148 398.389 233.326 400.147 247.332C403.065 270.591 408.628 295.776 410.2 295.819C410.2 295.819 408.605 295.819 404.151 297.814C404.151 297.814 397.087 284.529 394.807 276.18C389.54 256.893 390.441 241.764 390.094 231.148Z" fill="#C73855"/>
<path d="M396.608 243.681V292.763C396.06 293.616 394.279 294.405 393.321 294.904C372.384 305.796 368.666 306.969 362.666 308.274C359.994 308.854 358.805 307.413 359.078 303.447C360.17 287.623 356.769 247.487 359.184 243.961C361.105 241.165 366.145 238.525 373.45 234.34C380.755 230.177 387.026 230.458 390.544 231.283C394.135 232.129 396.191 234.404 396.608 243.681Z" fill="#F04E70"/>
<path d="M384.492 227.898L382.185 238.364C377.599 240.409 374.446 239.244 372.156 236.154L374.464 225.688C378.276 224.294 381.619 225.031 384.492 227.898Z" fill="#FFB591"/>
<path d="M383.554 232.149L382.619 236.388C375.826 236.634 374.119 227.248 374.119 227.248L383.554 232.149Z" fill="#FF8671"/>
<path d="M374.457 207.733L372.41 217.015C371.239 222.326 373.254 227.893 377.673 231.063C380.058 232.772 382.993 234.36 386.368 235.184C389.858 236.036 393.364 233.809 394.139 230.3L398.378 211.072C398.378 211.072 384.359 200.327 374.457 207.733Z" fill="#FFB591"/>
<path d="M403.471 206.896C403.138 211.634 397.899 211.54 397.899 211.54C393.109 209.067 385.418 209.599 385.418 209.599C385.104 211.039 383.946 211.853 382.538 212.907C382.33 213.064 382.141 213.283 381.974 213.544C381.974 213.544 381.974 213.554 381.963 213.575C381.817 214.129 379.47 222.873 380.357 226.098C380.45 226.421 380.586 226.756 380.774 227.068C382.309 224.711 385.95 223.416 388.205 223.009C390.814 222.529 393.506 224.439 393.506 224.439C394.946 224.178 395.488 224.857 395.488 224.857C396.303 226.579 394.674 228.562 394.674 228.562C394.674 228.562 394.319 227.445 393.025 227.267C391.94 227.121 390.937 226.892 388.632 226.412C387.056 226.088 384.405 228.071 382.882 229.355C385.146 231.087 388.382 232.194 390.531 231.818C393.85 231.234 394.319 229.46 394.319 229.46C394.319 229.46 394.58 237.12 387.243 237.443C379.897 237.766 375.462 230.233 375.399 227.247C375.337 224.262 378.592 216.572 378.592 216.572L378.603 216.561L379.103 214.934L376.922 216.625C373.833 219.328 373.301 225.725 373.301 225.725C369.137 222.761 371.401 211.763 372.091 207.462C372.769 203.152 376.16 202.923 376.16 202.923C380.71 196.619 393.066 201.202 395.769 200.982C398.67 200.749 403.805 202.158 403.471 206.896Z" fill="#28225E"/>
<path d="M379.1 214.931C379.1 214.931 374.869 211.205 373.108 214.538C371.739 217.13 372.635 223.008 376.276 222.899L379.1 214.931Z" fill="#FFB591"/>
<path d="M384.251 326.687L365.436 315.946C364.452 315.384 364.458 313.964 365.445 313.41L387.553 301.006C387.985 300.764 388.51 300.758 388.947 300.989L407.826 310.973C408.833 311.505 408.868 312.933 407.888 313.514L385.716 326.675C385.266 326.942 384.706 326.948 384.251 326.687Z" fill="#88A2CA"/>
<path d="M384.251 324.469L365.436 313.728C364.452 313.166 364.458 311.745 365.445 311.192L387.553 298.788C387.985 298.546 388.51 298.539 388.947 298.771L407.826 308.755C408.833 309.287 408.868 310.715 407.888 311.296L385.716 324.457C385.266 324.725 384.706 324.73 384.251 324.469Z" fill="#C0C8CE"/>
<path d="M364.717 314.613V312.531L384.171 323.25L385.247 327.292L365.527 316.009C365.026 315.722 364.717 315.19 364.717 314.613Z" fill="#DDE3E8"/>
<path d="M384.172 301.44V325.441C384.172 326.693 385.205 327.58 386.321 327.569H390.464V325.492L420.675 308.055C421.333 307.668 421.74 306.97 421.74 306.208V283.501H423.692V280.078H419.601C419.591 280.078 419.591 280.078 419.58 280.078C419.236 280.078 418.88 280.161 418.547 280.36L385.236 299.593C384.578 299.969 384.172 300.678 384.172 301.44Z" fill="#DDE3E8"/>
<path d="M422.617 280.363L389.309 299.594C388.65 299.974 388.244 300.677 388.244 301.438V325.438C388.244 327.077 390.019 328.102 391.439 327.283L424.746 308.053C425.405 307.672 425.811 306.969 425.811 306.209V282.207C425.812 280.568 424.037 279.543 422.617 280.363Z" fill="white"/>
<path d="M406.129 304.791C406.121 306.67 407.221 308.199 408.587 308.205C409.954 308.211 411.068 306.692 411.078 304.813C411.086 302.934 409.986 301.404 408.619 301.398C407.252 301.391 406.138 302.91 406.129 304.791Z" fill="#C0C8CE"/>
<path d="M359.185 243.963C359.185 243.963 349.554 269.937 353.452 283.524C356.757 295.043 373.28 306.155 381.629 308.398C381.629 308.398 383.103 305.824 384.168 302.902C384.168 302.902 371.596 297.18 364.232 279.335C360.45 270.17 367.541 255.505 367.541 255.505C367.541 255.505 368.744 244.941 359.185 243.963Z" fill="#C73855"/>
<path d="M381.631 308.397L384.171 309.64V302.902L381.631 308.397Z" fill="#FFB591"/>
<path d="M423.688 280.075H419.604C419.592 280.075 419.592 280.075 419.581 280.075C419.229 280.075 418.878 280.156 418.551 280.355L385.236 299.593C384.581 299.967 384.171 300.681 384.171 301.442V323.242L362.254 298.142C362.734 266.653 382.486 250.142 414.034 242.77L423.688 280.075Z" fill="url(#paint0_linear_1806_9321)"/>
<path opacity="0.5" d="M117.236 275.761C134.807 275.761 149.051 270.773 149.051 264.619C149.051 258.465 134.807 253.477 117.236 253.477C99.6643 253.477 85.4199 258.465 85.4199 264.619C85.4199 270.773 99.6643 275.761 117.236 275.761Z" fill="#2D508A"/>
<path d="M98.4047 255.084C97.5833 255.322 96.976 256.023 96.8227 256.863C96.6881 257.599 96.5664 258.652 96.5664 260.056C96.5664 263.187 96.5664 264.839 96.5664 264.839C96.5664 264.839 97.478 266.144 100.231 266.678L100.999 266.23C100.999 266.23 107.192 270.703 110.109 271.078C113.915 271.569 117.871 269.969 114.827 266.23C111.952 262.699 107.61 261.183 106.401 258.389C106.259 258.062 106.102 257.738 105.861 257.477C103.812 255.267 101.404 254.218 98.4047 255.084Z" fill="white"/>
<path d="M98.9988 249.014L98.4336 256.732C98.4336 256.732 100.999 258.884 104.13 257.667L105.377 249.275C105.377 249.275 101.216 247.971 98.9988 249.014Z" fill="#FFB591"/>
<path d="M97.334 253.887C100.339 254.963 102.52 255.379 105.38 254.785C105.38 254.785 106.643 248.356 107.081 246.312C107.134 246.051 107.196 245.779 107.259 245.497C107.374 244.954 107.489 244.391 107.614 243.806C107.624 243.754 107.635 243.713 107.646 243.67C109.441 234.998 112.049 221.098 113.583 210.151V172.948C113.583 172.948 107.145 171.142 100.486 174.847V209.691C100.194 211.622 98.462 223.341 98.18 230.28C97.8664 237.858 97.334 253.887 97.334 253.887Z" fill="#2C3673"/>
<path d="M122.582 250.276C121.76 250.513 121.153 251.214 120.998 252.054C120.864 252.79 120.742 253.844 120.742 255.248C120.742 258.378 120.742 260.03 120.742 260.03C120.742 260.03 121.654 261.335 124.407 261.87L125.175 261.422C125.175 261.422 131.367 265.894 134.285 266.27C138.091 266.76 142.046 265.16 139.003 261.422C136.128 257.89 131.786 256.375 130.576 253.58C130.435 253.254 130.278 252.93 130.037 252.669C127.989 250.458 125.581 249.41 122.582 250.276Z" fill="white"/>
<path d="M123.175 244.206L122.609 251.924C122.609 251.924 125.174 254.076 128.306 252.859L129.553 244.466C129.553 244.466 125.392 243.162 123.175 244.206Z" fill="#FFB591"/>
<path d="M121.607 249.336C124.226 250.64 126.867 250.838 129.549 249.972C129.549 249.972 130.99 241.603 131.427 239.558C131.48 239.297 131.542 239.025 131.605 238.743C131.709 238.221 131.835 237.657 131.96 237.052C131.97 237 131.981 236.959 131.992 236.917C132.054 236.613 132.117 236.312 132.18 235.998C133.964 227.284 136.448 213.968 137.93 203.397V166.194C137.93 166.194 131.492 164.388 124.834 168.093V202.937C124.541 204.868 122.809 216.587 122.527 223.526C122.212 231.104 121.607 249.336 121.607 249.336Z" fill="#2C3673"/>
<path d="M100.389 177.752V184.411C100.389 187.011 103.679 189.381 105.931 188.08L135.787 170.381C136.832 169.778 137.958 167.828 137.958 166.622V159.963C137.958 157.363 135.925 151.865 133.673 153.165L100.869 169.107C99.823 169.71 100.389 176.545 100.389 177.752Z" fill="#2C3673"/>
<path d="M130.967 95.4102C130.967 95.4102 141.326 98.5954 140.457 112.683C139.587 126.771 145.414 131.592 160.28 130.945C160.28 130.945 158.765 133.851 159.676 137.379C159.676 137.379 150.268 139.385 142.196 136.162C128.921 130.863 131.314 106.026 130.967 95.4102Z" fill="#C73855"/>
<path d="M137.483 107.941V157.024C136.935 157.877 135.154 158.666 134.196 159.164C113.259 170.056 109.541 171.23 103.541 172.534C100.869 173.115 99.6802 171.673 99.9529 167.707C101.045 151.883 97.6441 111.748 100.059 108.222C101.98 105.425 107.02 102.785 114.325 98.5996C121.63 94.4361 127.901 94.7181 131.419 95.5419C135.009 96.3891 137.065 98.6639 137.483 107.941Z" fill="#F04E70"/>
<path d="M125.994 90.5357L124.476 101.146C120.055 103.528 116.825 102.602 114.311 99.6923L115.828 89.0823C119.525 87.4066 122.914 87.8911 125.994 90.5357Z" fill="#FFB591"/>
<path d="M125.376 94.842L124.762 99.14C119.432 97.9347 115.602 90.6621 115.602 90.6621L125.376 94.842Z" fill="#FF8671"/>
<path d="M114.471 71.1758L113.125 80.584C112.355 85.9679 114.781 91.3683 119.427 94.1977C121.933 95.7236 124.978 97.088 128.404 97.6567C131.949 98.2453 135.279 95.7611 135.787 92.2049L138.574 72.7134C138.574 72.7134 123.79 63.0501 114.471 71.1758Z" fill="#FFB591"/>
<path d="M138.136 73.2225C138.136 73.2225 143.364 72.9159 143.339 68.1686C143.316 63.4212 138.09 62.3961 135.217 62.8443C132.539 63.262 119.871 59.6298 115.807 66.2518C115.807 66.2518 112.445 66.7374 112.088 71.0788C111.731 75.4201 110.298 86.5589 114.672 89.1988C114.672 89.1988 114.719 82.7875 117.596 79.8597L119.642 78.0073L119.092 80.4249C120.325 80.5548 121.464 79.7322 121.706 78.5152C121.917 77.4562 122.285 76.2907 122.92 75.7325C124.238 74.5729 125.332 73.6754 125.542 72.2127C125.542 72.2127 133.169 71.1069 138.136 73.2225Z" fill="#28225E"/>
<path d="M119.641 78.0094C119.641 78.0094 115.143 74.6112 113.636 78.0656C112.465 80.7535 114.146 87.3801 117.811 86.0543L119.641 78.0094Z" fill="#FFB591"/>
<path d="M167.619 115.085L160.012 75.5625C128.465 82.924 108.709 99.4398 108.238 130.93L128.978 156.587L167.619 115.085Z" fill="url(#paint1_linear_1806_9321)"/>
<path d="M169.456 117.038C169.643 117.658 169.643 118.348 169.374 119.027L156.244 152.389C155.858 153.372 154.981 154.074 153.939 154.261L140.084 156.59L133.986 157.628L133.694 157.853L133.87 159.141L130.617 157.865L130.336 157.76C128.932 157.151 128.089 155.49 128.721 153.887L141.944 119.987C142.342 118.98 143.243 118.255 144.319 118.103L166.143 114.932C166.67 114.861 167.173 114.92 167.617 115.084C167.676 115.107 167.734 115.13 167.793 115.154L171.034 116.441L169.456 117.038Z" fill="#DDE3E8"/>
<path d="M172.613 120.302L159.48 153.663C159.093 154.646 158.219 155.355 157.176 155.532L135.267 159.229C132.958 159.618 131.106 157.341 131.957 155.16L145.182 121.266C145.576 120.255 146.484 119.534 147.557 119.379L169.375 116.214C171.665 115.881 173.46 118.148 172.613 120.302Z" fill="white"/>
<path d="M151.004 138.194C150.04 140.642 150.489 143.11 152.007 143.708C153.525 144.305 155.536 142.806 156.499 140.358C157.463 137.91 157.014 135.442 155.496 134.844C153.979 134.247 151.968 135.747 151.004 138.194Z" fill="#DDE3E8"/>
<path d="M100.061 108.223C100.061 108.223 90.6648 127.093 93.6534 144.41C96.642 161.728 124.044 153.369 131.403 149.978L128.978 143.586C128.978 143.586 110.689 146.065 107.195 143.717C104.322 141.788 105.918 132.008 107.848 125.622C108.91 122.106 109.019 118.338 107.877 114.846C106.714 111.285 104.452 107.825 100.061 108.223Z" fill="#C73855"/>
<path d="M128.979 143.584C128.979 143.584 130.328 141.133 132.675 139.698C135.024 138.264 136.524 138.654 136.588 139.111C136.654 139.567 134.11 140.806 134.11 141.589C134.11 142.372 141.107 139.371 142.393 139.828C143.679 140.286 143.828 146.937 141.089 148.437C138.349 149.937 131.403 149.976 131.403 149.976L128.979 143.584Z" fill="#FFB591"/>
<path d="M169.056 132.326C169.267 132.172 169.581 131.045 168.41 130.932L167.797 132.489C168.162 132.659 168.697 132.59 169.056 132.326Z" fill="#FFB591"/>
<path d="M163.565 140.21C163.646 140.259 163.722 140.294 163.802 140.32L163.789 140.348C164.41 140.671 165.033 140.891 165.618 140.967C167.483 141.212 169.948 135.659 169.267 134.55C169.031 134.165 168.561 133.889 168.088 133.669C168.088 133.669 167.965 133.611 167.771 133.533C167.586 133.459 167.332 133.363 167.064 133.297C166.528 133.162 165.925 133.123 165.637 133.497C165.05 134.237 161.963 139.225 163.565 140.21Z" fill="#FFB591"/>
<path d="M111.018 483.435C130.729 483.435 146.708 476.861 146.708 468.751C146.708 460.641 130.729 454.066 111.018 454.066C91.3072 454.066 75.3281 460.641 75.3281 468.751C75.3281 476.861 91.3072 483.435 111.018 483.435Z" fill="#80B4D6"/>
<path d="M119.642 276.07C119.642 276.07 123.897 285.957 123.021 292.992C122.144 300.027 123.359 308.761 126.081 315.747C128.803 322.733 129.712 327.099 127.691 330.394C125.671 333.691 103.151 326.083 97.9744 324.539C92.7987 322.994 95.1543 305.289 95.9371 299.206C96.72 293.122 93.2539 276.626 93.2539 276.626L119.642 276.07Z" fill="#28225E"/>
<path d="M125.602 461.517C126.424 461.75 127.035 462.448 127.192 463.289C127.33 464.023 127.457 465.077 127.464 466.481C127.478 469.611 127.486 471.263 127.486 471.263C127.486 471.263 126.58 472.571 123.829 473.119L123.059 472.674C123.059 472.674 116.888 477.175 113.971 477.563C110.167 478.07 106.205 476.49 109.231 472.736C112.09 469.192 116.425 467.657 117.621 464.857C117.76 464.53 117.916 464.205 118.156 463.943C120.196 461.724 122.598 460.664 125.602 461.517Z" fill="white"/>
<path d="M124.982 455.447L125.582 463.162C125.582 463.162 123.026 465.326 119.89 464.123L118.605 455.736C118.605 455.736 122.76 454.414 124.982 455.447Z" fill="#FFB591"/>
<path d="M126.666 460.313C123.666 461.401 121.487 461.828 118.625 461.247C118.625 461.247 117.333 454.824 116.885 452.781C116.831 452.52 116.768 452.249 116.703 451.967C116.586 451.426 116.469 450.863 116.34 450.279C116.33 450.227 116.319 450.185 116.309 450.143C114.474 441.479 111.803 427.591 110.219 416.652L110.051 379.448C110.051 379.448 116.481 377.614 123.156 381.288L122.092 416.082C122.393 418.011 124.432 430.188 124.745 437.127C125.093 444.703 126.666 460.313 126.666 460.313Z" fill="#2C3673"/>
<path d="M106.545 456.819C107.367 457.052 107.978 457.751 108.135 458.591C108.273 459.326 108.399 460.379 108.406 461.783C108.42 464.913 108.429 466.565 108.429 466.565C108.429 466.565 107.523 467.874 104.772 468.421L104.002 467.977C104.002 467.977 97.8292 472.477 94.9143 472.866C91.1101 473.372 87.1479 471.793 90.1752 468.039C93.0339 464.494 97.3694 462.959 98.5653 460.159C98.7045 459.832 98.8602 459.507 99.1 459.245C101.137 457.026 103.541 455.967 106.545 456.819Z" fill="white"/>
<path d="M105.923 450.751L106.523 458.466C106.523 458.466 103.968 460.629 100.832 459.426L99.5469 451.04C99.5469 451.04 103.701 449.716 105.923 450.751Z" fill="#FFB591"/>
<path d="M107.511 455.874C104.898 457.191 102.258 457.401 99.5724 456.547C99.5724 456.547 98.0945 448.184 97.6463 446.141C97.5925 445.88 97.5293 445.61 97.4649 445.328C97.3584 444.807 97.2309 444.243 97.1022 443.639C97.0916 443.586 97.0811 443.546 97.0706 443.503C97.0062 443.201 96.943 442.898 96.8787 442.586C95.0544 433.88 92.5104 420.576 90.981 410.012L90.8125 372.809C90.8125 372.809 96.3591 370.85 103.034 374.524L104.076 409.492C104.377 411.422 106.163 423.133 106.476 430.071C106.823 437.647 107.511 455.874 107.511 455.874Z" fill="#2C3673"/>
<path d="M123.463 380.847L122.883 390.159C122.895 392.759 114.143 389.368 111.885 388.077L92.9726 376.982C91.9241 376.383 90.7902 374.439 90.7844 373.231L90.754 366.573C90.7423 363.973 92.7503 358.465 95.0087 359.756L117.2 371.259C118.249 371.857 123.846 372.76 123.463 380.847Z" fill="#2C3673"/>
<path d="M68.3027 337.657C68.3027 337.657 64.8542 336.082 62.5572 338.058C60.259 340.033 61.9663 345.232 63.2932 345.363C64.6202 345.494 68.9358 344.091 68.9358 344.091C68.9358 344.091 70.7788 339.964 68.3027 337.657Z" fill="#FFB591"/>
<path d="M95.4191 304.398C95.4191 304.398 89.4887 304.604 89.4887 319.471C89.4887 333.586 83.1709 338.239 68.3027 337.659C68.3027 337.659 69.831 340.559 68.9358 344.092C68.9358 344.092 78.3522 346.054 86.4099 342.795C99.6598 337.435 95.1195 315.015 95.4191 304.398Z" fill="#7CA0D1"/>
<path d="M64.2472 337.598V346.382C64.2472 347.847 61.2937 349.035 57.6556 349.035C54.0164 349.035 51.0664 347.847 51.0664 346.382V337.598H64.2472Z" fill="white"/>
<path d="M64.5164 345.82C62.7237 345.82 61.2656 344.385 61.2656 342.622C61.2656 340.858 62.7237 339.424 64.5164 339.424C66.3091 339.424 67.7671 340.858 67.7671 342.622C67.7671 344.385 66.3091 345.82 64.5164 345.82ZM64.5164 340.716C63.4363 340.716 62.5587 341.571 62.5587 342.622C62.5587 343.673 63.4375 344.528 64.5164 344.528C65.5953 344.528 66.474 343.673 66.474 342.622C66.474 341.571 65.5964 340.716 64.5164 340.716Z" fill="white"/>
<path d="M64.2472 337.597C64.2472 339.063 61.296 340.252 57.6568 340.252C54.0176 340.252 51.0664 339.063 51.0664 337.597C51.0664 336.13 54.0176 334.941 57.6568 334.941C61.296 334.941 64.2472 336.13 64.2472 337.597Z" fill="#E0E0E0"/>
<path d="M63.4195 337.598C63.4195 337.69 63.3786 337.788 63.2932 337.896C62.783 338.549 60.7316 339.425 57.6541 339.425C54.5766 339.425 52.5252 338.549 52.0151 337.896C51.9296 337.788 51.8887 337.689 51.8887 337.598C51.8887 336.954 54.0781 335.77 57.6541 335.77C61.229 335.77 63.4195 336.954 63.4195 337.598Z" fill="#28225E"/>
<path d="M63.2957 337.895C62.7855 338.548 60.7342 339.425 57.6566 339.425C54.5791 339.425 52.5278 338.548 52.0176 337.895C52.5266 337.242 54.5791 336.367 57.6566 336.367C60.733 336.366 62.7855 337.242 63.2957 337.895Z" fill="#2C3673"/>
<path d="M66.7077 340.265C66.7077 340.265 64.7196 340.8 65.1432 342.103C65.5668 343.408 66.4748 342.623 66.4748 342.623C66.4748 342.623 68.8561 342.66 69.2177 341.714C69.5793 340.767 68.305 337.66 68.305 337.66L66.7077 340.265Z" fill="#FFB591"/>
<path d="M90.9961 314.553L91.2184 363.636C91.7696 364.486 93.5494 365.276 94.516 365.761C106.522 371.786 112.891 376.115 118.898 377.392C121.571 377.961 123.774 377.572 123.482 373.609C122.319 357.789 125.448 315.069 122.681 310.952C120.787 308.137 118.358 307.039 114.11 305.107C106.456 301.627 100.528 303.13 96.462 304.082C92.2809 305.06 91.5332 307.995 90.9961 314.553Z" fill="#9DC8EB"/>
<path d="M102.666 296.066L102.714 306.59C106.693 309.502 109.96 309.037 112.796 306.544L112.748 296.021C109.378 293.895 106.017 293.91 102.666 296.066Z" fill="#FFB591"/>
<path d="M102.684 300.34L102.703 304.603C108.05 304.149 112.754 297.59 112.754 297.59L102.684 300.34Z" fill="#FF8671"/>
<path d="M118.099 280.311L116.856 289.56C116.144 294.853 112.409 299.307 107.265 300.739C104.49 301.511 101.142 302.528 97.8582 301.608C96.4868 301.223 95.6033 299.407 94.9925 296.343C94.5303 294.025 94.3887 291.653 94.4647 289.29L94.9129 275.323C94.9129 275.323 111.464 270.144 118.099 280.311Z" fill="#FFB591"/>
<path d="M113.226 284.12C115.831 283.645 115.96 290.653 113.226 292.281C110.482 293.908 110.262 305.931 112.797 306.546C123.025 309.029 123.462 288.493 120.394 278.13C118.046 270.209 112.056 269.135 109.364 269.072C104.208 267.298 97.5303 268.081 94.4937 271.19C94.4621 271.221 94.4199 271.252 94.379 271.294C93.7213 271.983 93.2521 272.786 93.0122 273.694C92.9806 273.861 92.9596 274.017 92.9397 274.163C91.9064 278.619 94.2444 284.63 94.5252 283.409C95.2039 280.361 97.2599 279.704 98.5319 279.6C99.9303 281.656 102.915 285.256 106.755 285.099C107.621 285.068 108.268 284.849 108.748 284.494C108.748 284.494 108.45 288.945 109.32 290.554C109.321 290.556 109.173 284.86 113.226 284.12Z" fill="#28225E"/>
<path d="M93.014 273.695C92.8677 274.28 93.1181 273.184 93.014 273.695V273.695Z" fill="#28225E"/>
<path d="M121.037 309.027C121.037 309.027 134.073 319.003 141.888 317.947C141.888 317.947 149.022 314.633 153.976 311.773C158.931 308.912 163.836 306.051 163.836 306.051L165.716 310.816C165.716 310.816 152.1 324.371 144.646 326.463C137.192 328.557 123.861 323.425 123.861 323.425C123.861 323.425 116.408 317.425 121.037 309.027Z" fill="#7CA0D1"/>
<path d="M163.834 306.051C163.834 306.051 163.192 304.818 163.638 304.077C164.084 303.336 165.323 302.269 165.715 302.12C166.106 301.972 167.803 302.075 167.672 302.858C167.672 302.858 171.804 299.871 172.846 300.729C173.586 301.338 170.193 303.859 170.193 303.859C170.193 303.859 172.15 305.511 172.063 307.511C171.977 309.511 169.498 309.425 169.498 309.425C169.498 309.425 166.89 311.207 165.715 310.816C164.54 310.425 163.834 306.051 163.834 306.051Z" fill="#FFB591"/>
<path d="M62.2793 184.441C57.546 185.469 55.6491 187.366 54.6205 192.1C54.3666 193.267 52.7026 193.267 52.4487 192.1C51.4189 187.366 49.5221 185.471 44.7899 184.441C43.6221 184.187 43.6221 182.523 44.7899 182.269C49.5221 181.24 51.4189 179.344 52.4487 174.61C52.7026 173.442 54.3666 173.442 54.6205 174.61C55.6491 179.342 57.546 181.239 62.2793 182.269C63.4471 182.523 63.4471 184.187 62.2793 184.441Z" fill="white"/>
<path d="M70.9393 204.046C68.4702 204.583 67.4814 205.572 66.9443 208.041C66.8121 208.65 65.9438 208.65 65.8116 208.041C65.2745 205.572 64.2857 204.583 61.8166 204.046C61.207 203.914 61.207 203.045 61.8166 202.913C64.2857 202.376 65.2756 201.386 65.8116 198.918C65.9438 198.309 66.8121 198.309 66.9443 198.918C67.4814 201.387 68.4702 202.376 70.9393 202.913C71.5477 203.044 71.5477 203.914 70.9393 204.046Z" fill="white"/>
<path d="M377.125 137.66C372.393 138.688 370.496 140.585 369.466 145.318C369.212 146.486 367.548 146.486 367.294 145.318C366.266 140.586 364.369 138.689 359.636 137.66C358.468 137.406 358.468 135.742 359.636 135.488C364.368 134.459 366.265 132.562 367.294 127.829C367.548 126.661 369.212 126.661 369.466 127.829C370.495 132.561 372.392 134.459 377.125 135.488C378.292 135.742 378.292 137.406 377.125 137.66Z" fill="white"/>
<path d="M362.103 116.954C359.634 117.491 358.644 118.481 358.108 120.949C357.976 121.559 357.108 121.559 356.976 120.949C356.439 118.48 355.45 117.49 352.981 116.954C352.371 116.822 352.371 115.954 352.981 115.821C355.45 115.284 356.439 114.295 356.976 111.826C357.108 111.217 357.976 111.217 358.108 111.826C358.645 114.295 359.634 115.284 362.103 115.821C362.713 115.954 362.713 116.822 362.103 116.954Z" fill="white"/>
<defs>
<linearGradient id="paint0_linear_1806_9321" x1="468.915" y1="370.25" x2="381.425" y2="262.155" gradientUnits="userSpaceOnUse">
<stop stop-color="white"/>
<stop offset="1" stop-color="white" stop-opacity="0"/>
</linearGradient>
<linearGradient id="paint1_linear_1806_9321" x1="214.375" y1="202.412" x2="127.381" y2="94.9308" gradientUnits="userSpaceOnUse">
<stop stop-color="white"/>
<stop offset="1" stop-color="white" stop-opacity="0"/>
</linearGradient>
</defs>
</svg>
