<svg width="651" height="442" viewBox="0 0 651 442" fill="none" xmlns="http://www.w3.org/2000/svg">
<path fill-rule="evenodd" clip-rule="evenodd" d="M166.861 107.863C190.32 107.863 212.642 112.715 232.893 121.456C269.261 49.7231 343.698 0.55542 429.626 0.55542C551.374 0.55542 650.07 99.2519 650.07 221C650.07 342.748 551.374 441.444 429.626 441.444H166.861C74.7452 441.444 0.0703125 366.77 0.0703125 274.654C0.0703125 182.538 74.7449 107.863 166.861 107.863Z" fill="#3368AD"/>
<path d="M434.12 441.444C431.258 439.994 419.212 433.249 421.28 423.437C423.621 412.315 436.455 413.485 434.721 404.706C432.987 395.925 424.559 382.254 432.754 372.302C440.949 362.353 454.578 368.317 456.287 352.886C457.664 340.451 463.41 331.644 474.543 334.226C484.848 336.617 492.533 344.596 492.723 363.574C492.931 383.781 507.16 378.103 507.337 392.989C507.514 407.981 495.572 407.981 490.908 418.04C488.783 422.624 494.05 438.32 479.185 441.445L434.12 441.444Z" fill="#C6D4FF"/>
<path d="M472.818 342.311C472.818 342.313 472.858 342.651 472.917 343.313C473.097 345.302 473.459 350.15 473.459 356.904C473.464 376.637 470.355 412.653 450.766 441.444H452.844C472.162 412.324 475.176 376.591 475.182 356.904C475.182 347.814 474.533 342.142 474.53 342.114C474.477 341.643 474.051 341.303 473.576 341.356C473.105 341.41 472.765 341.839 472.818 342.311Z" fill="#ECF4FF"/>
<path fill-rule="evenodd" clip-rule="evenodd" d="M453.647 441.444C453.353 439.431 452.012 427.533 460.525 422.427C469.836 416.839 479.351 412.491 478.318 403.488C477.285 394.485 479.825 383.859 494.75 383.659C503.975 383.539 500.512 373.811 509.885 371.873C515.583 370.694 519.341 376.641 520.068 382.481C520.898 389.133 517.132 395.672 521.451 401.089C527.056 408.108 529.332 421.197 517.287 424.922C505.796 428.477 515.034 439.016 501.671 441.444H453.647Z" fill="#DCE9FF"/>
<path d="M509.259 378.392C508.944 387.134 505.066 399.578 498.431 411.45C491.802 423.332 482.42 434.657 471.216 441.331C471.16 441.364 471.11 441.402 471.064 441.444H474.271C484.866 434.445 493.621 423.598 499.935 412.292C506.674 400.21 510.636 387.619 510.982 378.456C510.998 377.982 510.628 377.58 510.151 377.564C509.677 377.547 509.275 377.917 509.259 378.392Z" fill="white"/>
<path fill-rule="evenodd" clip-rule="evenodd" d="M209.345 236.454L215.771 234.4C218.456 233.539 220.273 230.997 220.152 228.182C219.933 222.733 220.399 217.355 221.499 212.137C222.073 209.372 220.715 206.563 218.204 205.275L212.213 202.173C209.101 200.573 207.87 196.753 209.471 193.642L215.395 182.155C217 179.044 220.827 177.827 223.936 179.43L229.935 182.521C232.449 183.816 235.523 183.297 237.436 181.222C241.048 177.298 245.164 173.799 249.728 170.822C252.092 169.282 253.104 166.338 252.239 163.645L250.191 157.218C249.121 153.885 250.967 150.321 254.296 149.252L266.608 145.319C269.939 144.249 273.503 146.091 274.573 149.423L276.627 155.848C277.488 158.534 280.024 160.353 282.841 160.238C288.286 160.013 293.664 160.482 298.88 161.575C301.65 162.162 304.455 160.795 305.751 158.282L308.843 152.284C310.446 149.174 314.267 147.949 317.375 149.562L328.865 155.478C331.977 157.082 333.192 160.906 331.591 164.018L328.499 170.015C327.204 172.528 327.724 175.607 329.805 177.514C333.721 181.131 337.222 185.246 340.205 189.806C341.738 192.174 344.689 193.183 347.378 192.329L353.802 190.272C357.134 189.203 360.698 191.044 361.768 194.378L365.702 206.687C366.765 210.024 364.928 213.585 361.595 214.655L355.173 216.708C352.486 217.57 350.673 220.101 350.784 222.928C351.015 228.364 350.54 233.745 349.446 238.96C348.857 241.731 350.225 244.538 352.732 245.836L358.735 248.924C361.848 250.526 363.065 254.352 361.461 257.462L355.548 268.944C353.941 272.058 350.114 273.274 347.002 271.673L341.012 268.577C338.491 267.284 335.42 267.801 333.505 269.886C329.89 273.802 325.779 277.309 321.219 280.277C318.853 281.815 317.831 284.774 318.693 287.46L320.747 293.883C321.818 297.216 319.979 300.786 316.642 301.849L304.333 305.79C301.007 306.849 297.435 305.01 296.364 301.677L294.316 295.251C293.457 292.564 290.918 290.755 288.091 290.865C282.655 291.09 277.275 290.618 272.061 289.526C269.297 288.944 266.49 290.303 265.193 292.816L262.104 298.814C260.496 301.928 256.672 303.152 253.56 301.548L242.075 295.621C238.964 294.02 237.739 290.199 239.348 287.084L242.442 281.084C243.735 278.572 243.218 275.502 241.142 273.582C237.211 269.975 233.712 265.861 230.742 261.294C229.196 258.931 226.259 257.915 223.569 258.777L217.135 260.828C213.804 261.898 210.233 260.059 209.171 256.724L205.238 244.413C204.168 241.081 206.01 237.516 209.345 236.454ZM254.336 241.739C261.034 254.862 275.77 262.46 290.346 260.302C314.404 256.746 327.656 231.029 316.602 209.363C309.901 196.248 295.171 188.647 280.6 190.806C256.537 194.364 243.275 220.074 254.336 241.739Z" fill="#DCE9FF"/>
<path fill-rule="evenodd" clip-rule="evenodd" d="M517.666 192.105L487.388 191.624C485.255 191.59 483.538 189.817 483.571 187.685L483.595 186.196C483.113 184.635 481.665 183.482 479.949 183.454L483.659 182.166L483.682 180.759L551.993 181.843L551.97 183.25L555.638 184.656C553.922 184.629 552.439 185.736 551.906 187.281L551.883 188.769C551.849 190.902 550.076 192.62 547.943 192.586L517.666 192.105Z" fill="#092978"/>
<path fill-rule="evenodd" clip-rule="evenodd" d="M511.403 191.703C510.762 191.692 510.251 191.128 510.262 190.443C510.273 189.757 510.802 189.21 511.443 189.221L532.956 189.562C533.597 189.572 534.108 190.136 534.097 190.821C534.086 191.507 533.558 192.054 532.916 192.044L511.403 191.703ZM507.567 189.159C508.208 189.169 508.719 189.732 508.708 190.418C508.698 191.104 508.169 191.651 507.528 191.641L506.537 191.625C505.895 191.615 505.384 191.051 505.395 190.365C505.406 189.68 505.935 189.133 506.576 189.143L507.567 189.159Z" fill="white"/>
<path d="M530.294 268.94L500.699 268.47C500.699 268.47 490.278 277.98 490.883 296.967C491.487 315.954 514.724 333.636 514.724 333.636C514.724 333.636 537.993 316.693 539.2 297.734C540.407 278.775 530.294 268.94 530.294 268.94Z" fill="#F69B25"/>
<path d="M525.11 268.857L505.881 268.552C505.881 268.552 499.089 276.033 499.441 290.925C499.794 305.816 514.851 319.225 514.851 319.225C514.851 319.225 530.012 306.296 530.836 291.423C531.661 276.55 525.11 268.857 525.11 268.857Z" fill="#FCB415"/>
<path d="M520.317 268.781L510.677 268.628C510.677 268.628 507.252 273.593 507.391 283.44C507.53 293.287 515.57 303.373 515.57 303.373C515.57 303.373 522.68 293.527 523.131 283.689C523.582 273.852 520.317 268.781 520.317 268.781Z" fill="#FFC775"/>
<path fill-rule="evenodd" clip-rule="evenodd" d="M489.638 279.445C481.017 276.827 492.684 264.135 492.684 264.135L539.596 264.88C539.596 264.88 550.856 277.936 542.155 280.278C530.123 285.503 504.693 287.667 489.638 279.445Z" fill="#F6597B"/>
<path fill-rule="evenodd" clip-rule="evenodd" d="M495.208 266.075C488.354 263.486 497.683 250.757 497.683 250.757L535.027 251.35C535.027 251.35 543.949 264.368 537.014 266.739C527.183 270.101 504.928 269.748 495.208 266.075Z" fill="white"/>
<path fill-rule="evenodd" clip-rule="evenodd" d="M551.221 201.126C551.221 201.126 585.434 217.829 587.506 218.807C589.577 219.786 591.376 221.547 591.862 223.839C592.346 226.13 600.663 272.089 601.162 273.671C601.657 275.254 599.032 276.316 593.911 275.486C592.154 275.202 576.095 251.494 569.03 250.113C555.518 247.472 545.783 245.505 545.783 245.505L551.221 201.126Z" fill="#FF7F9A"/>
<path fill-rule="evenodd" clip-rule="evenodd" d="M601.471 274.375L601.471 274.376C601.469 274.379 601.302 274.598 601.014 274.968C600.013 275.738 597.575 276.058 593.911 275.486C592.08 275.2 575.408 251.483 568.045 250.097C553.963 247.447 543.818 245.473 543.818 245.473L544.293 242.08L547.192 234.542C547.192 234.542 568.318 239.939 574.581 242.68C580.844 245.421 601.466 274.369 601.471 274.375Z" fill="#F6597B"/>
<path fill-rule="evenodd" clip-rule="evenodd" d="M482.768 200.151C482.768 200.151 447.155 215.633 444.966 216.544C442.777 217.455 440.847 219.157 440.266 221.431C439.687 223.706 428.344 277.329 427.773 278.895C427.207 280.461 429.907 281.607 435.267 280.944C437.105 280.716 455.791 249.584 463.194 248.433C477.353 246.231 487.556 244.58 487.556 244.58L482.768 200.151Z" fill="#FF7F9A"/>
<path fill-rule="evenodd" clip-rule="evenodd" d="M427.744 279.594L427.745 279.594C427.747 279.598 427.907 279.822 428.183 280.2C429.159 281.001 431.585 281.399 435.266 280.944C437.105 280.716 455.79 249.584 463.194 248.433C477.353 246.231 487.555 244.58 487.555 244.58L487.188 241.174L484.53 233.548C484.53 233.548 460.004 238.801 454.598 242.104C449.191 245.406 427.75 279.588 427.744 279.594Z" fill="#F6597B"/>
<path fill-rule="evenodd" clip-rule="evenodd" d="M541.361 260.134C557.062 253.571 565.396 159.301 536.673 121.211C524.371 105.5 514.912 104.098 501.314 119.304C470.111 154.367 475.399 252.191 491.07 259.335C500.582 263.671 531.717 264.166 541.361 260.134Z" fill="#FF7F9A"/>
<path fill-rule="evenodd" clip-rule="evenodd" d="M541.359 260.134C557.059 253.571 566.509 159.318 536.669 121.211C527.835 109.927 520.464 106.025 511.975 110.355C515.577 112.371 519.24 115.942 523.197 120.997C553.039 159.104 543.588 253.357 527.887 259.92C524.139 261.488 517.141 262.37 509.43 262.61C521.539 263.372 535.463 262.598 541.359 260.134Z" fill="#F6597B"/>
<path fill-rule="evenodd" clip-rule="evenodd" d="M554.752 222.425C558.558 189.923 555.149 144.806 536.673 121.211C524.372 105.5 514.913 104.098 501.315 119.304C481.144 141.859 476.055 187.974 478.883 221.22C499.843 225.298 533.671 225.836 554.752 222.425Z" fill="white"/>
<path fill-rule="evenodd" clip-rule="evenodd" d="M554.751 222.425C558.557 189.923 555.148 144.806 536.672 121.211C530.426 113.232 524.91 108.946 519.215 108.65C520.33 113.89 521.542 118.882 523.197 120.997C542.012 145.023 545.206 191.364 541.063 223.979C545.986 223.61 550.615 223.094 554.751 222.425Z" fill="#E0E8F5"/>
<path fill-rule="evenodd" clip-rule="evenodd" d="M519.183 201.194C531.354 201.388 541.441 191.551 541.635 179.297C541.829 167.043 532.061 156.892 519.89 156.699C507.721 156.505 497.635 166.342 497.44 178.595C497.246 190.849 507.014 201.001 519.183 201.194Z" fill="#8C9EF3"/>
<path fill-rule="evenodd" clip-rule="evenodd" d="M519.24 197.686C529.492 197.849 537.987 189.563 538.151 179.242C538.315 168.92 530.087 160.37 519.836 160.207C509.586 160.044 501.09 168.329 500.926 178.651C500.762 188.972 508.99 197.523 519.24 197.686Z" fill="#BCD3FF"/>
<path fill-rule="evenodd" clip-rule="evenodd" d="M520.875 275.089C522.773 272.669 522.618 243.154 522.698 238.101C522.779 233.047 518.767 208.917 518.643 208.176C518.231 205.543 515.937 205.798 515.43 208.125C515.283 208.862 510.507 232.852 510.427 237.906C510.347 242.959 511.245 272.486 513.065 274.965C515.682 278.528 518.146 278.567 520.875 275.089Z" fill="#F6597B"/>
<path fill-rule="evenodd" clip-rule="evenodd" d="M549.701 147.69C546.664 135.722 542.425 124.962 536.747 116.572C524.484 98.4476 515.028 96.8512 501.392 114.455C495.024 122.677 490.316 133.643 486.707 145.941C497.034 148.922 507.989 150.581 519.6 150.766C530.065 150.932 540.178 149.847 549.701 147.69Z" fill="#FF7F9A"/>
<path fill-rule="evenodd" clip-rule="evenodd" d="M527.703 105.897L527.677 105.877C527.31 105.569 526.943 105.281 526.576 105.011L526.545 104.988C526.434 104.906 526.322 104.826 526.21 104.747L526.115 104.68C525.783 104.449 525.452 104.233 525.119 104.032L524.992 103.955C524.892 103.896 524.793 103.838 524.693 103.781C524.653 103.758 524.612 103.736 524.57 103.714C524.394 103.616 524.219 103.523 524.043 103.434C523.991 103.407 523.937 103.379 523.885 103.354C523.795 103.31 523.705 103.267 523.615 103.225C523.556 103.198 523.498 103.171 523.438 103.144C523.348 103.104 523.26 103.064 523.171 103.026H523.17C523.045 102.973 522.92 102.923 527.703 105.897ZM527.703 105.897C530.61 108.327 533.585 111.9 536.745 116.572C542.423 124.961 546.659 135.722 549.697 147.691C545.512 148.638 541.216 149.379 536.823 149.898C533.753 136.959 529.332 125.31 523.273 116.358C519.33 110.527 515.675 106.41 512.078 104.089C512.257 103.984 512.436 103.881 512.613 103.784L512.619 103.781C513.158 103.486 513.695 103.23 514.227 103.012L514.287 102.987C514.632 102.848 514.974 102.725 515.317 102.617L515.38 102.597C515.529 102.552 515.676 102.51 515.824 102.47L515.905 102.448C516.072 102.405 516.238 102.365 516.404 102.329L516.439 102.322C516.587 102.291 516.734 102.262 516.882 102.238L517.007 102.216C517.147 102.195 517.286 102.175 517.426 102.158L517.49 102.15C517.647 102.131 517.806 102.118 517.963 102.106C518.005 102.104 518.049 102.101 518.092 102.099C518.209 102.092 518.326 102.087 518.443 102.084C518.492 102.082 518.541 102.082 518.59 102.081C518.741 102.079 518.89 102.079 519.041 102.084C519.077 102.086 519.113 102.088 519.149 102.089C519.267 102.095 519.385 102.101 519.503 102.11C519.563 102.115 519.623 102.12 519.683 102.126C519.784 102.135 519.885 102.146 519.986 102.158C520.043 102.165 520.099 102.171 520.154 102.178C520.294 102.198 520.435 102.22 520.575 102.245C520.639 102.256 520.702 102.27 520.767 102.282C520.857 102.3 520.946 102.318 521.036 102.337C521.105 102.353 521.174 102.368 521.244 102.385C521.337 102.408 521.433 102.433 521.528 102.458C521.636 102.488 521.744 102.518 521.852 102.55C521.935 102.575 522.017 102.6 522.1 102.627C522.18 102.652 522.26 102.679 522.339 102.708C522.408 102.731 522.476 102.755 522.544 102.781L527.703 105.897Z" fill="#F6597B"/>
<path fill-rule="evenodd" clip-rule="evenodd" d="M519.284 194.932C528.03 195.07 535.278 188.002 535.417 179.198C535.557 170.393 528.537 163.099 519.792 162.961C511.046 162.822 503.8 169.889 503.66 178.694C503.52 187.498 510.538 194.793 519.284 194.932Z" fill="#BCD3FF"/>
<path fill-rule="evenodd" clip-rule="evenodd" d="M528.146 167.782L516.681 193.951C518.186 194.296 519.755 194.405 521.33 194.252L531.543 170.943C530.578 169.697 529.428 168.636 528.146 167.782ZM523.88 165.846L512.338 192.188C510.184 190.876 508.359 188.994 507.117 186.653L516.233 165.845C518.807 165.146 521.44 165.18 523.88 165.846Z" fill="white"/>
<path d="M498.4 135.874C497.981 136.783 496.904 137.18 495.995 136.761C495.086 136.342 494.689 135.265 495.108 134.357C496.727 130.856 498.932 126.343 501.728 121.746C504.55 117.104 507.982 112.361 512.042 108.44C512.763 107.747 513.91 107.769 514.603 108.49C515.296 109.211 515.274 110.358 514.553 111.051C510.762 114.712 507.517 119.207 504.827 123.63C502.111 128.097 499.97 132.478 498.4 135.874Z" fill="white"/>
<path fill-rule="evenodd" clip-rule="evenodd" d="M493.142 139.2C494.049 138.645 495.233 138.931 495.787 139.838C496.342 140.745 496.056 141.929 495.149 142.484C494.242 143.038 493.058 142.752 492.503 141.845C491.949 140.938 492.235 139.754 493.142 139.2Z" fill="white"/>
<path d="M254.546 273.938H227.102V441.444H254.546V273.938Z" fill="#BCD3FF"/>
<path d="M267.97 273.938H254.545V441.443H267.97V273.938Z" fill="#95A7FF"/>
<path fill-rule="evenodd" clip-rule="evenodd" d="M247.536 269.169C258.822 269.169 267.971 271.305 267.971 273.938C267.971 276.572 258.822 278.708 247.536 278.708C236.251 278.708 227.102 276.572 227.102 273.938C227.101 271.305 236.251 269.169 247.536 269.169Z" fill="white"/>
<path d="M310.382 285.532H282.938V441.444H310.382V285.532Z" fill="#BCD3FF"/>
<path d="M366.218 198.936H338.773V441.443H366.218V198.936Z" fill="#BCD3FF"/>
<path d="M323.806 285.532H310.381V441.443H323.806V285.532Z" fill="#95A7FF"/>
<path d="M379.641 198.936H366.217V441.443H379.641V198.936Z" fill="#95A7FF"/>
<path d="M422.767 136.32H395.322V441.444H422.767V136.32Z" fill="#BCD3FF"/>
<path d="M436.19 136.321H422.766V441.443H436.19V136.321Z" fill="#95A7FF"/>
<path fill-rule="evenodd" clip-rule="evenodd" d="M359.208 194.166C370.494 194.166 379.643 196.302 379.643 198.936C379.643 201.57 370.494 203.706 359.208 203.706C347.923 203.706 338.773 201.57 338.773 198.936C338.773 196.302 347.923 194.166 359.208 194.166Z" fill="white"/>
<path fill-rule="evenodd" clip-rule="evenodd" d="M415.757 131.55C427.042 131.55 436.192 133.686 436.192 136.32C436.192 138.954 427.043 141.089 415.757 141.089C404.471 141.089 395.322 138.954 395.322 136.32C395.322 133.686 404.471 131.55 415.757 131.55Z" fill="white"/>
<path fill-rule="evenodd" clip-rule="evenodd" d="M303.372 280.762C314.658 280.762 323.807 282.898 323.807 285.532C323.807 288.165 314.658 290.301 303.372 290.301C292.086 290.301 282.938 288.165 282.938 285.532C282.938 282.898 292.087 280.762 303.372 280.762Z" fill="white"/>
<path d="M198.695 364.7H171.25V441.444H198.695V364.7Z" fill="#BCD3FF"/>
<path d="M212.122 364.7H198.697V441.443H212.122V364.7Z" fill="#95A7FF"/>
<path fill-rule="evenodd" clip-rule="evenodd" d="M191.685 359.929C202.97 359.929 212.119 362.065 212.119 364.699C212.119 367.333 202.97 369.469 191.685 369.469C180.399 369.469 171.25 367.333 171.25 364.699C171.25 362.065 180.399 359.929 191.685 359.929Z" fill="white"/>
<path d="M142.64 399.708H115.195V441.444H142.64V399.708Z" fill="#BCD3FF"/>
<path d="M156.065 399.708H142.641V441.443H156.065V399.708Z" fill="#95A7FF"/>
<path fill-rule="evenodd" clip-rule="evenodd" d="M135.63 394.938C146.916 394.938 156.065 397.074 156.065 399.708C156.065 402.342 146.916 404.478 135.63 404.478C124.345 404.478 115.195 402.342 115.195 399.708C115.196 397.074 124.345 394.938 135.63 394.938Z" fill="white"/>
<path fill-rule="evenodd" clip-rule="evenodd" d="M203.932 367.589H179.725C178.579 367.589 177.647 366.735 177.503 365.647C177.483 365.494 177.476 365.336 177.489 365.176L178.473 352.461C178.473 352.461 179.481 351.996 180.89 351.663C181.727 351.465 182.432 350.857 182.686 350.035C182.703 349.974 182.719 349.913 182.735 349.85C183.291 347.403 186.818 346.625 187.469 349.016C187.555 349.325 187.627 349.625 187.69 349.914C187.706 349.985 187.721 350.059 187.735 350.128C187.839 350.642 187.915 351.115 187.968 351.529L187.973 351.556C188.104 352.61 188.093 353.285 188.093 353.285C188.413 353.691 188.722 354.091 189.022 354.486C189.176 354.682 189.323 354.877 189.47 355.068C189.788 355.482 190.097 355.885 190.402 356.272C190.542 356.454 190.682 356.63 190.822 356.804C191.158 357.224 191.489 357.622 191.821 357.993C191.97 358.162 192.119 358.327 192.272 358.485C193.521 359.797 194.779 360.694 196.268 360.901C198.892 361.261 203.18 361.55 205.252 365.402C205.296 365.483 205.329 365.565 205.356 365.647C205.66 366.577 204.962 367.589 203.932 367.589Z" fill="#355297"/>
<path fill-rule="evenodd" clip-rule="evenodd" d="M116.735 295.984V310.881C116.735 327.397 119.574 367.865 120.631 387.908L131.716 387.691L140.887 311.205L156.431 313.43L157.198 293.703H157.198C157.381 225.507 122.45 241.387 125.506 280.052C125.841 284.307 115.104 291.314 116.735 295.984Z" fill="#355297"/>
<path fill-rule="evenodd" clip-rule="evenodd" d="M158.868 291.612L132.08 302.777L170.151 324.52L178.331 355.779L190.017 356.081C189.71 338.285 187.25 325.834 186.397 315.588C185.951 310.217 168.226 300.662 158.868 291.612Z" fill="#355297"/>
<path fill-rule="evenodd" clip-rule="evenodd" d="M135.662 398.654C135.462 402.185 122.942 400.969 120.94 399.909C120.167 399.5 119.843 398.71 119.783 397.755C119.685 396.231 120.253 394.281 120.746 392.753C121.547 390.265 121.436 390.311 121.993 388.61C121.993 388.61 121.849 385.845 125.952 384.789C130.054 383.731 131.558 390.618 132.259 391.943C132.9 393.156 135.393 394.816 135.65 397.802C135.675 398.075 135.679 398.359 135.662 398.654Z" fill="#355297"/>
<path fill-rule="evenodd" clip-rule="evenodd" d="M146.428 244.769C150.229 253.112 152.89 258.058 163.771 259.679C172.597 260.994 188.477 242.613 189.747 239.904C191.016 237.194 187.203 231.584 185.647 232.403C184.09 233.222 165.891 244.123 164.653 244.034C163.395 243.944 158.944 239.698 149.259 233.409C148.343 232.819 143.75 240.738 146.428 244.769Z" fill="#8C9EF3"/>
<path fill-rule="evenodd" clip-rule="evenodd" d="M111.141 237.097C107.517 242.499 118.432 274.005 115.41 301.454C132.726 301.796 149.966 295.557 160.088 292.333C158.775 277.267 158.373 253.509 154.07 237.999C153.058 235.483 151.056 233.691 146.104 232.304C134.046 228.925 116.106 229.694 111.141 237.097Z" fill="#8C9EF3"/>
<path fill-rule="evenodd" clip-rule="evenodd" d="M142.4 222.211C141.208 224.584 139.04 226.712 137.178 227.604L137.242 231.052L137.744 231.479C139.708 233.583 137.781 238.57 135.743 240.3C132.415 239.914 125.344 233.412 127.045 230.894L127.783 230.071L127.946 225.192C127.654 225.176 125.53 223.968 124.898 223.774C124.266 223.579 123.337 222.361 123.275 221.075C123.213 219.788 125.201 220.205 125.201 220.205C122.793 216.91 120.066 214.219 123.602 211.251C127.137 208.284 135.259 206.553 135.259 206.553L140.146 204.858C139.524 206.545 140.822 211.373 142.077 214.887C143.202 218.038 144 219.026 142.4 222.211Z" fill="#F9C4C7"/>
<path fill-rule="evenodd" clip-rule="evenodd" d="M130.248 225.869C130.248 225.869 133.013 230.611 135.284 231.04C137.554 231.47 136.394 231.152 137.24 231.052L137.176 227.604C135.612 227.856 134.08 227.732 130.248 225.869Z" fill="#EA8287"/>
<path fill-rule="evenodd" clip-rule="evenodd" d="M117.829 247.054C120.894 243.543 122.029 237.641 118.939 235.491C110.049 228.497 94.3556 253.47 91.0183 260.501C88.8052 265.297 100.338 285.468 103.515 287.052C104.848 287.717 107.579 288.318 109.207 287.647C110.169 287.249 111.509 286.476 110.655 284.397C108.388 278.874 104.046 266.329 104.85 265.039C111.546 254.298 112.98 252.608 117.829 247.054Z" fill="#8C9EF3"/>
<path fill-rule="evenodd" clip-rule="evenodd" d="M188.142 231.422C188.397 230.246 189.466 225.595 190.333 224.813C190.776 224.414 190.881 224.594 191.078 224.848C191.249 225.069 191.396 225.672 191.347 226.084C191.245 226.946 191.179 227.732 191.048 228.197C193.672 226.824 196.185 223.604 198.103 221.4C198.883 220.504 200.123 220.6 199.373 222.198C198.76 223.506 196.335 226.436 196.335 226.436L199.648 224.301C200.566 223.803 200.561 224.934 200.123 225.409C199.404 226.188 197.191 228.271 197.191 228.271L199.604 227.393C200.528 227.057 200.047 228.194 199.801 228.394C199.235 228.854 197.23 230.133 197.23 230.133L198.338 229.766C199.593 229.352 198.674 230.965 198.311 231.079C198.234 231.104 193.9 233.849 193.146 234.301C191.262 235.431 190.369 237.299 189.033 238.867C188.309 238.312 186.49 236.197 186.23 233.594L188.142 231.422Z" fill="#F7AAAC"/>
<path fill-rule="evenodd" clip-rule="evenodd" d="M142.736 201.557C144.173 206.09 142.898 209.792 138.423 211.069C135.091 212.02 130.546 211.763 128.179 214.55C127.007 215.931 127.124 217.92 128.437 220.994C128.824 221.899 129.34 222.566 127.811 221.858C127.109 221.533 125.952 221.078 125.557 221.397C124.678 222.107 125.122 223.601 125.823 224.081C126.136 224.296 126.729 224.617 126.729 224.617C126.729 224.617 124.96 225.295 123.134 224.136C121.309 222.976 115.97 219.448 116.268 213.48C116.709 204.634 125.33 201.611 133.031 196.973C136.416 194.934 141.599 197.973 142.736 201.557Z" fill="#355297"/>
<path fill-rule="evenodd" clip-rule="evenodd" d="M109.984 284.692L111.316 286.753L115.941 289.34C116.558 289.504 120.063 291.214 118.49 291.549C117.384 291.784 114.775 291.528 114.756 291.637C114.494 293.066 118.773 299.01 118.755 299.143C118.5 301.011 115.563 297.397 115.037 296.806C114.899 296.651 116.504 299.745 116.308 299.756C116.069 299.769 115.439 299.831 114.875 299.164C114.183 298.348 113.226 296.76 112.967 296.745C112.699 296.729 114.279 299.718 114.03 299.685C113.838 299.659 113.444 299.62 113.024 299.096C112.331 298.231 111.538 296.706 111.265 296.621C110.983 296.533 112.242 298.606 111.991 298.504C111.795 298.424 111.524 298.673 111.384 298.524C107.604 294.516 109.443 292.398 104.99 287.925C102.514 285.438 108.713 284.353 109.984 284.692Z" fill="#F9C4C7"/>
<path fill-rule="evenodd" clip-rule="evenodd" d="M417.133 19.3574L434.372 51.6886L470.447 58.093L445.026 84.4794L450.083 120.768L417.132 104.745L384.182 120.768L389.24 84.4787L363.818 58.093L399.894 51.6886L417.133 19.3574Z" fill="#FFC775"/>
<path fill-rule="evenodd" clip-rule="evenodd" d="M449.53 119.981L417.133 73.9097V104.745L449.53 119.981Z" fill="#FBB44A"/>
<path fill-rule="evenodd" clip-rule="evenodd" d="M445.027 84.4789L417.133 73.9095L470.448 58.0928L445.027 84.4789Z" fill="#FBB44A"/>
<path fill-rule="evenodd" clip-rule="evenodd" d="M417.132 73.9097L384.182 120.769L389.239 84.4786L417.132 73.9097Z" fill="#FBB44A"/>
<path fill-rule="evenodd" clip-rule="evenodd" d="M363.818 58.0927L417.132 73.9094L399.894 51.6885L363.818 58.0927Z" fill="#FBB44A"/>
<path fill-rule="evenodd" clip-rule="evenodd" d="M417.133 73.9096L417.133 19.3574L434.372 51.6886L417.133 73.9096Z" fill="#FBB44A"/>
</svg>
