<svg width="10398" height="2020" viewBox="0 0 10398 2020" fill="none" xmlns="http://www.w3.org/2000/svg">
<g clip-path="url(#clip0_2526_346)">
<path d="M1819.01 225.944C1724.09 327.293 1629.24 428.887 1534.56 530.561C1530.17 535.275 1525.87 539.989 1521.48 544.622C1308.06 773.735 1094.64 1002.85 881.793 1232.37C877.729 1236.76 873.584 1240.9 869.44 1244.8C850.26 1262.52 829.292 1275.69 804.423 1282.19C795.889 1284.46 787.031 1285.85 777.522 1286.42C732.823 1282.68 697.714 1262.85 672.682 1224.08C594.418 1103.14 515.504 982.611 436.996 861.837C400.83 806.164 365.639 749.759 328.499 694.736C310.131 667.672 314.032 645.728 337.195 625.49C339.551 623.458 341.746 621.751 344.021 620.289C344.834 619.72 345.565 619.232 346.378 618.744C347.272 618.257 348.166 617.688 349.06 617.281C349.792 616.875 350.36 616.55 351.011 616.306C351.742 615.981 352.23 615.737 352.799 615.493H352.88C352.88 615.493 353.205 615.25 353.368 615.168C354.261 614.843 355.074 614.599 355.968 614.193C356.781 613.949 357.594 613.705 358.488 613.38C359.056 613.218 359.707 613.136 360.276 612.974C361.007 612.893 361.495 612.811 362.226 612.73C362.389 612.649 362.632 612.649 362.958 612.649C362.958 612.567 363.039 612.567 363.12 612.567H363.526C363.526 612.567 363.852 612.486 364.014 612.486C364.502 612.486 364.989 612.405 365.396 612.405C365.721 612.324 366.127 612.324 366.452 612.324C367.671 612.242 368.89 612.324 370.028 612.405C370.353 612.405 370.76 612.486 371.003 612.486C371.41 612.486 371.979 612.567 372.385 612.649C372.629 612.649 372.791 612.649 373.116 612.73C373.279 612.73 373.441 612.73 373.685 612.811C374.01 612.811 374.417 612.893 374.742 612.974C374.986 613.055 375.229 613.055 375.636 613.136C375.88 613.136 376.205 613.218 376.53 613.38C377.261 613.461 377.911 613.624 378.643 613.868C379.212 614.03 379.781 614.193 380.35 614.355C380.918 614.518 381.487 614.762 382.056 614.924C382.3 615.087 382.625 615.168 382.95 615.331C383.275 615.412 383.682 615.575 384.088 615.656C385.551 616.387 387.095 617.119 388.639 617.932C389.046 618.175 389.614 618.419 390.021 618.826C390.915 619.232 391.646 619.801 392.54 620.289C393.028 620.532 393.597 620.857 394.084 621.345C394.409 621.508 394.572 621.67 394.978 621.833C396.523 622.971 398.229 624.108 399.773 625.409C401.48 626.79 403.187 628.172 404.812 629.635C406.438 631.098 408.144 632.642 409.77 634.268C487.14 709.366 564.348 784.626 641.474 859.967C649.357 867.607 657.241 875.41 665.124 883.131C693.081 910.358 720.957 937.747 748.427 965.625C749.158 966.437 749.89 967.169 750.702 967.9C751.271 968.469 752.003 969.119 752.653 969.688C752.815 969.851 752.978 969.932 753.141 970.095C753.628 970.582 754.278 971.151 754.847 971.639C756.391 972.939 757.854 974.158 759.48 975.215C760.211 975.703 760.861 976.271 761.593 976.678H761.674C762.405 977.165 763.056 977.653 763.787 978.06C764.519 978.466 765.169 978.872 765.9 979.279C767.363 980.01 768.745 980.66 770.126 981.229C771.589 981.798 772.971 982.286 774.271 982.692C777.847 983.586 781.423 983.911 784.918 983.749C784.999 983.749 785.08 983.749 785.161 983.667C785.487 983.667 785.893 983.667 786.218 983.586C786.949 983.586 787.6 983.505 788.331 983.342C789.144 983.261 789.875 983.099 790.769 982.936C791.663 982.692 792.476 982.448 793.451 982.123C793.614 982.123 793.776 982.042 793.939 981.961C794.67 981.798 795.32 981.554 796.052 981.148C797.84 980.417 799.709 979.685 801.659 978.71C802.553 978.222 803.447 977.653 804.423 977.166C809.136 974.402 813.931 970.745 819.051 966.275C835.875 951.564 852.535 936.853 869.44 922.143C1090.66 728.221 1312.86 535.113 1534.56 341.76C1543.42 334.121 1552.2 326.481 1561.06 318.678C1624.29 263.574 1686.95 207.495 1750.58 152.797C1751.48 152.065 1752.29 151.334 1753.18 150.602C1756.76 147.758 1760.33 145.32 1763.91 143.206C1766.51 141.662 1769.19 140.362 1771.79 139.224C1773.58 138.411 1775.37 137.842 1777.08 137.192C1777.97 136.948 1778.78 136.704 1779.68 136.379C1781.38 135.973 1783.09 135.567 1784.8 135.323C1799.26 132.966 1812.59 137.273 1823.08 147.839C1823.81 148.652 1824.46 149.302 1825.19 150.115C1827.3 152.472 1829.17 155.154 1831.04 157.998C1847.05 183.681 1838.11 205.138 1819.01 225.456V225.944Z" fill="#2769B2"/>
<path d="M269.82 734.642C293.633 770.078 317.283 806.895 340.12 842.656C352.311 861.593 364.908 881.261 377.423 900.605C405.625 943.924 433.826 987.162 462.027 1030.48C511.602 1106.55 562.884 1185.23 613.029 1262.68C649.357 1318.93 704.134 1351.6 771.508 1357.29L776.79 1357.69L781.992 1357.37C789.468 1356.88 796.945 1356.07 804.341 1354.77V1709.45H105.896C47.3811 1709.45 0 1661.99 0 1603.55V121.994C0 63.4759 47.4624 16.0928 105.896 16.0928H804.422V885.081C798.002 890.77 791.581 896.378 785.08 902.068C754.603 871.427 723.476 841.112 693.243 811.771L690.968 809.496C682.434 801.125 673.82 792.753 665.123 784.219C599.7 720.419 530.132 652.636 459.101 583.796C448.373 573.393 415.702 541.533 367.671 541.533C350.279 541.533 324.841 545.922 298.672 565.672C295.99 567.704 293.227 569.898 290.463 572.255C239.75 616.631 231.785 678.969 269.739 734.723L269.82 734.642Z" fill="#3DA684"/>
<path d="M641.555 860.211C649.438 867.851 657.321 875.653 665.205 883.374V885C658.784 890.689 652.364 896.297 645.862 901.986C615.385 871.346 584.258 841.03 554.026 811.69L551.75 809.414C488.846 747.971 421.635 682.545 352.717 615.574H352.798C352.798 615.574 353.123 615.331 353.286 615.249C354.18 614.924 354.992 614.68 355.886 614.274C356.699 614.03 357.512 613.786 358.406 613.461C358.975 613.299 359.625 613.218 360.194 613.055C360.925 612.974 361.413 612.892 362.144 612.811C362.307 612.73 362.551 612.73 362.876 612.73C362.876 612.649 362.957 612.649 363.038 612.649H363.445C363.445 612.649 363.77 612.567 363.932 612.567C364.42 612.567 364.907 612.486 365.314 612.486C365.639 612.405 366.045 612.405 366.37 612.405C367.589 612.323 368.808 612.405 369.946 612.486C370.271 612.486 370.678 612.567 370.922 612.567C371.328 612.567 371.897 612.649 372.303 612.73C372.547 612.73 372.71 612.73 373.035 612.811C373.197 612.811 373.36 612.811 373.603 612.892C373.929 612.892 374.335 612.974 374.66 613.055C374.904 613.136 375.148 613.136 375.554 613.217C375.798 613.217 376.123 613.299 376.448 613.461C377.179 613.543 377.83 613.705 378.561 613.949C379.13 614.112 379.699 614.274 380.268 614.437C380.837 614.599 381.406 614.843 381.974 615.006C382.218 615.168 382.543 615.249 382.868 615.412C383.193 615.493 383.6 615.656 384.006 615.737C385.469 616.469 387.013 617.2 388.557 618.013C388.964 618.257 389.533 618.5 389.939 618.907C390.833 619.313 391.564 619.882 392.458 620.37C392.946 620.614 393.515 620.939 394.003 621.426C394.328 621.589 394.49 621.751 394.897 621.914C396.441 623.052 398.147 624.19 399.692 625.49C401.398 626.872 403.105 628.253 404.73 629.716C406.356 631.179 408.062 632.723 409.688 634.349C487.058 709.447 564.266 784.707 641.392 860.049L641.555 860.211Z" fill="#2769B2"/>
<path d="M1534.56 121.994V247.969C1527.82 253.821 1521.07 259.754 1514.41 265.606L1506.04 272.921C1500.02 278.122 1494.09 283.324 1488.16 288.525C1430.29 338.997 1372.51 389.306 1314.81 439.615C1168.68 566.81 1018.17 697.987 869.439 828.189V16.0928H1428.75C1487.18 16.0928 1534.64 63.4759 1534.64 121.994H1534.56Z" fill="#3DA684"/>
<path d="M1534.56 634.593V1603.55C1534.56 1661.99 1487.1 1709.45 1428.67 1709.45H869.357V1332.17C886.099 1322.99 902.11 1311.2 917.633 1296.82C923.078 1291.78 928.36 1286.5 933.805 1280.64C1111.79 1088.67 1293.27 893.859 1468.65 705.383L1534.56 634.674V634.593Z" fill="#3DA684"/>
<path d="M1819.01 225.944C1724.09 327.293 1629.24 428.887 1534.56 530.561C1530.17 535.275 1525.87 539.989 1521.48 544.622C1308.06 773.735 1094.64 1002.85 881.793 1232.37C877.729 1236.76 873.584 1240.9 869.44 1244.8C850.26 1262.52 829.292 1275.69 804.423 1282.19C795.889 1284.46 787.031 1285.85 777.522 1286.42C732.823 1282.68 697.714 1262.85 672.682 1224.08C594.418 1103.14 515.504 982.611 436.996 861.837C400.83 806.164 365.639 749.759 328.499 694.736C310.131 667.672 314.032 645.728 337.195 625.49C339.551 623.458 341.746 621.751 344.021 620.289C344.834 619.72 345.565 619.232 346.378 618.744C347.272 618.257 348.166 617.688 349.06 617.281C349.792 616.875 350.36 616.55 351.011 616.306C351.742 615.981 352.23 615.737 352.799 615.493H352.88C352.88 615.493 353.205 615.25 353.368 615.168C354.261 614.843 355.074 614.599 355.968 614.193C356.781 613.949 357.594 613.705 358.488 613.38C359.056 613.218 359.707 613.136 360.276 612.974C361.007 612.893 361.495 612.811 362.226 612.73C362.389 612.649 362.632 612.649 362.958 612.649C362.958 612.567 363.039 612.567 363.12 612.567H363.526C363.526 612.567 363.852 612.486 364.014 612.486C364.502 612.486 364.989 612.405 365.396 612.405C365.721 612.324 366.127 612.324 366.452 612.324C367.671 612.242 368.89 612.324 370.028 612.405C370.353 612.405 370.76 612.486 371.003 612.486C371.41 612.486 371.979 612.567 372.385 612.649C372.629 612.649 372.791 612.649 373.116 612.73C373.279 612.73 373.441 612.73 373.685 612.811C374.01 612.811 374.417 612.893 374.742 612.974C374.986 613.055 375.229 613.055 375.636 613.136C375.88 613.136 376.205 613.218 376.53 613.38C377.261 613.461 377.911 613.624 378.643 613.868C379.212 614.03 379.781 614.193 380.35 614.355C380.918 614.518 381.487 614.762 382.056 614.924C382.3 615.087 382.625 615.168 382.95 615.331C383.275 615.412 383.682 615.575 384.088 615.656C385.551 616.387 387.095 617.119 388.639 617.932C389.046 618.175 389.614 618.419 390.021 618.826C390.915 619.232 391.646 619.801 392.54 620.289C393.028 620.532 393.597 620.857 394.084 621.345C394.409 621.508 394.572 621.67 394.978 621.833C396.523 622.971 398.229 624.108 399.773 625.409C401.48 626.79 403.187 628.172 404.812 629.635C406.438 631.098 408.144 632.642 409.77 634.268C487.14 709.366 564.348 784.626 641.474 859.967C649.357 867.607 657.241 875.41 665.124 883.131C693.081 910.358 720.957 937.747 748.427 965.625C749.158 966.437 749.89 967.169 750.702 967.9C751.271 968.469 752.003 969.119 752.653 969.688C752.815 969.851 752.978 969.932 753.141 970.095C753.628 970.582 754.278 971.151 754.847 971.639C756.391 972.939 757.854 974.158 759.48 975.215C760.211 975.703 760.861 976.271 761.593 976.678H761.674C762.405 977.165 763.056 977.653 763.787 978.06C764.519 978.466 765.169 978.872 765.9 979.279C767.363 980.01 768.745 980.66 770.126 981.229C771.589 981.798 772.971 982.286 774.271 982.692C777.847 983.586 781.423 983.911 784.918 983.749C784.999 983.749 785.08 983.749 785.161 983.667C785.487 983.667 785.893 983.667 786.218 983.586C786.949 983.586 787.6 983.505 788.331 983.342C789.144 983.261 789.875 983.099 790.769 982.936C791.663 982.692 792.476 982.448 793.451 982.123C793.614 982.123 793.776 982.042 793.939 981.961C794.67 981.798 795.32 981.554 796.052 981.148C797.84 980.417 799.709 979.685 801.659 978.71C802.553 978.222 803.447 977.653 804.423 977.166C809.136 974.402 813.931 970.745 819.051 966.275C835.875 951.564 852.535 936.853 869.44 922.143C1090.66 728.221 1312.86 535.113 1534.56 341.76C1543.42 334.121 1552.2 326.481 1561.06 318.678C1624.29 263.574 1686.95 207.495 1750.58 152.797C1751.48 152.065 1752.29 151.334 1753.18 150.602C1756.76 147.758 1760.33 145.32 1763.91 143.206C1766.51 141.662 1769.19 140.362 1771.79 139.224C1773.58 138.411 1775.37 137.842 1777.08 137.192C1777.97 136.948 1778.78 136.704 1779.68 136.379C1781.38 135.973 1783.09 135.567 1784.8 135.323C1799.26 132.966 1812.59 137.273 1823.08 147.839C1823.81 148.652 1824.46 149.302 1825.19 150.115C1827.3 152.472 1829.17 155.154 1831.04 157.998C1847.05 183.681 1838.11 205.138 1819.01 225.456V225.944Z" fill="#427CBF"/>
<path d="M3069.94 1758.62V1858.18C3069.94 1887.6 3051.65 1907.03 3023.29 1907.03C2994.93 1907.03 2977.78 1887.6 2977.78 1858.18V1758.62H2939.74V1863.38C2939.74 1907.76 2970.38 1937.59 3011.75 1937.59C3037.43 1937.59 3057.99 1926.37 3069.94 1907.03V1941.33C3069.94 1970.75 3051.98 1989.44 3024.43 1989.44C2999.07 1989.44 2981.92 1972.62 2979.65 1946.53L2944.21 1946.12C2947.95 1990.17 2980.05 2020 3025.89 2020C3075.14 2020 3108.3 1987.57 3108.3 1939.05V1758.62H3069.94Z" fill="#231F20"/>
<path d="M3236.54 1755.21C3179.9 1755.21 3138.53 1795.11 3138.53 1850.3C3138.53 1905.48 3179.9 1945.39 3236.54 1945.39C3293.19 1945.39 3334.23 1905.48 3334.23 1850.3C3334.23 1795.11 3293.27 1755.21 3236.54 1755.21ZM3236.22 1912.23C3202.25 1912.23 3177.62 1886.47 3177.62 1850.3C3177.62 1814.13 3202.25 1788.45 3236.22 1788.45C3270.19 1788.45 3295.14 1814.54 3295.14 1850.3C3295.14 1886.06 3270.52 1912.23 3236.22 1912.23Z" fill="#231F20"/>
<path d="M3492.39 1758.62V1866.31C3492.39 1895.08 3474.1 1913.69 3446.47 1913.69C3418.84 1913.69 3401.04 1895.08 3401.04 1866.31V1758.62H3363V1866.31C3363 1913.37 3396.89 1945.39 3446.87 1945.39C3496.86 1945.39 3530.42 1913.37 3530.42 1866.31V1758.62H3492.39Z" fill="#231F20"/>
<path d="M3562.04 1829.41V1942.06H3600.48V1832.82C3600.48 1805.19 3617.22 1790.64 3645.58 1790.64V1758.62C3592.68 1758.62 3562.04 1784.71 3562.04 1829.41Z" fill="#231F20"/>
<path d="M3819.34 1758.62V1711.24H3780.9V1758.62H3747.01V1790.64H3780.9V1942.06H3819.34V1790.64H3860.71V1758.62H3819.34Z" fill="#231F20"/>
<path d="M3882.33 1829.41V1942.06H3920.77V1832.82C3920.77 1805.19 3937.51 1790.64 3965.87 1790.64V1758.62C3912.97 1758.62 3882.33 1784.71 3882.33 1829.41Z" fill="#231F20"/>
<path d="M4114.27 1758.62V1866.31C4114.27 1895.08 4095.99 1913.69 4068.44 1913.69C4040.89 1913.69 4022.92 1895.08 4022.92 1866.31V1758.62H3984.89V1866.31C3984.89 1913.37 4018.78 1945.39 4068.76 1945.39C4118.74 1945.39 4152.31 1913.37 4152.31 1866.31V1758.62H4114.27Z" fill="#231F20"/>
<path d="M4263.81 1832.82C4242.52 1828.68 4225.78 1825.67 4225.78 1806.65C4225.78 1792.92 4239.92 1783.17 4259.34 1783.17C4280.55 1783.17 4295.1 1794.38 4295.83 1810.8H4331.67C4331.67 1777.96 4301.85 1755.21 4260.07 1755.21C4218.3 1755.21 4188.07 1777.23 4188.07 1810.39C4188.07 1853.71 4231.71 1861.92 4259.34 1865.98C4280.23 1869.72 4298.43 1872.73 4298.43 1891.67C4298.43 1907.03 4283.15 1917.02 4261.94 1917.02C4239.19 1917.02 4222.77 1905.48 4222.04 1888.01H4184.74C4185.14 1921.9 4216.43 1945.39 4260.81 1945.39C4305.18 1945.39 4336.14 1922.63 4336.14 1889.47C4336.14 1845.5 4289.9 1837.62 4263.81 1832.82Z" fill="#231F20"/>
<path d="M4424.89 1758.62V1711.24H4386.45V1758.62H4352.48V1790.64H4386.45V1942.06H4424.89V1790.64H4466.26V1758.62H4424.89Z" fill="#231F20"/>
<path d="M4672.04 1850.7C4671.71 1795.11 4631.08 1755.21 4574.35 1755.21C4517.62 1755.21 4476.34 1795.11 4476.34 1850.3C4476.34 1905.48 4517.7 1945.39 4574.35 1945.39C4619.46 1945.39 4658.63 1916.29 4669.11 1875.66H4630.35C4623.19 1897.68 4600.84 1914.1 4574.76 1914.1C4543.06 1914.1 4519.17 1892.8 4514.37 1862.25H4670.98C4671.71 1858.51 4672.04 1854.44 4672.04 1850.7ZM4515.43 1832.82C4522.17 1805.6 4544.93 1786.58 4574.76 1786.58C4604.58 1786.58 4628.8 1805.6 4635.14 1832.82H4515.43Z" fill="#231F20"/>
<path d="M4848.07 1684.01V1783.98C4833.52 1766.42 4810.77 1755.21 4783.95 1755.21C4729.82 1755.21 4691.46 1795.11 4691.46 1849.16C4691.46 1903.21 4732.1 1945.39 4788.74 1945.39C4845.39 1945.39 4886.11 1905.48 4886.11 1850.3V1684.01H4848.07ZM4789.15 1912.23C4755.18 1912.23 4730.63 1886.47 4730.63 1850.3C4730.63 1814.13 4755.18 1788.45 4789.15 1788.45C4823.12 1788.45 4848.07 1814.54 4848.07 1850.3C4848.07 1886.06 4823.45 1912.23 4789.15 1912.23Z" fill="#231F20"/>
<path d="M5113.18 1755.21C5086.28 1755.21 5063.6 1766.42 5049.06 1783.98V1684.01H5011.02V1850.3C5011.02 1905.48 5051.66 1945.39 5108.3 1945.39C5164.95 1945.39 5205.67 1905.48 5205.67 1849.16C5205.67 1792.84 5167.22 1755.21 5113.18 1755.21ZM5107.98 1912.23C5073.6 1912.23 5049.06 1886.47 5049.06 1850.3C5049.06 1814.13 5073.6 1788.45 5107.98 1788.45C5142.35 1788.45 5166.49 1814.54 5166.49 1850.3C5166.49 1886.06 5141.87 1912.23 5107.98 1912.23Z" fill="#231F20"/>
<path d="M5323.43 1755.21C5266.78 1755.21 5225.41 1795.11 5225.41 1850.3C5225.41 1905.48 5266.78 1945.39 5323.43 1945.39C5380.07 1945.39 5421.11 1905.48 5421.11 1850.3C5421.11 1795.11 5380.15 1755.21 5323.43 1755.21ZM5323.1 1912.23C5289.13 1912.23 5264.51 1886.47 5264.51 1850.3C5264.51 1814.13 5289.13 1788.45 5323.1 1788.45C5357.07 1788.45 5382.02 1814.54 5382.02 1850.3C5382.02 1886.06 5357.4 1912.23 5323.1 1912.23Z" fill="#231F20"/>
<path d="M5538.96 1755.21C5482.31 1755.21 5440.86 1795.11 5440.86 1850.3C5440.86 1905.48 5482.31 1945.39 5538.96 1945.39C5595.6 1945.39 5636.65 1905.48 5636.65 1850.3C5636.65 1795.11 5595.6 1755.21 5538.96 1755.21ZM5538.55 1912.23C5504.66 1912.23 5480.04 1886.47 5480.04 1850.3C5480.04 1814.13 5504.66 1788.45 5538.55 1788.45C5572.44 1788.45 5597.47 1814.54 5597.47 1850.3C5597.47 1886.06 5572.93 1912.23 5538.55 1912.23Z" fill="#231F20"/>
<path d="M5828.28 1758.62H5783.18L5705.24 1840.63V1684.01H5667.2V1942.06H5705.24V1852.9L5783.18 1942.06H5828.28L5743.68 1846.23L5828.28 1758.62Z" fill="#231F20"/>
<path d="M6014.72 1758.62H5969.61L5891.67 1840.63V1684.01H5853.64V1942.06H5891.67V1852.9L5969.61 1942.06H6014.72L5930.12 1846.23L6014.72 1758.62Z" fill="#231F20"/>
<path d="M6215.7 1850.7C6215.3 1795.11 6174.66 1755.21 6118.01 1755.21C6061.37 1755.21 6019.92 1795.11 6019.92 1850.3C6019.92 1905.48 6061.37 1945.39 6118.01 1945.39C6163.12 1945.39 6202.29 1916.29 6212.7 1875.66H6173.93C6166.86 1897.68 6144.51 1914.1 6118.42 1914.1C6086.73 1914.1 6062.83 1892.8 6057.96 1862.25H6214.56C6215.3 1858.51 6215.7 1854.44 6215.7 1850.7ZM6059.09 1832.82C6065.84 1805.6 6088.59 1786.58 6118.42 1786.58C6148.25 1786.58 6172.47 1805.6 6178.81 1832.82H6059.09Z" fill="#231F20"/>
<path d="M6430.83 1850.7C6430.5 1795.11 6389.87 1755.21 6333.14 1755.21C6276.41 1755.21 6235.13 1795.11 6235.13 1850.3C6235.13 1905.48 6276.49 1945.39 6333.14 1945.39C6378.25 1945.39 6417.42 1916.29 6427.9 1875.66H6389.14C6381.98 1897.68 6359.63 1914.1 6333.55 1914.1C6301.85 1914.1 6277.96 1892.8 6273.16 1862.25H6429.77C6430.5 1858.51 6430.83 1854.44 6430.83 1850.7ZM6274.22 1832.82C6280.96 1805.6 6303.72 1786.58 6333.55 1786.58C6363.37 1786.58 6387.59 1805.6 6393.93 1832.82H6274.22Z" fill="#231F20"/>
<path d="M6551.68 1755.21C6494.95 1755.21 6454.32 1795.11 6454.32 1850.3V2016.59H6492.35V1916.7C6506.9 1934.26 6529.65 1945.39 6556.47 1945.39C6610.6 1945.39 6648.96 1905.48 6648.96 1851.44C6648.96 1797.39 6608.32 1755.21 6551.68 1755.21ZM6551.27 1912.23C6516.98 1912.23 6492.35 1886.14 6492.35 1850.3C6492.35 1814.46 6516.98 1788.45 6551.27 1788.45C6585.57 1788.45 6609.79 1814.13 6609.79 1850.3C6609.79 1886.47 6585.24 1912.23 6551.27 1912.23Z" fill="#231F20"/>
<path d="M6698.54 1686.61C6683.99 1686.61 6674.32 1695.55 6674.32 1708.96C6674.32 1722.37 6683.99 1731.39 6698.54 1731.39C6713.08 1731.39 6722.75 1722.05 6722.75 1708.96C6722.75 1695.88 6712.76 1686.61 6698.54 1686.61ZM6679.52 1758.62V1942.06H6717.55V1758.62H6679.52Z" fill="#231F20"/>
<path d="M6839.87 1755.21C6790.29 1755.21 6756.32 1787.31 6756.32 1834.69V1942.06H6794.76V1834.69C6794.76 1805.92 6812.64 1786.9 6840.27 1786.9C6867.9 1786.9 6885.7 1805.92 6885.7 1834.69V1942.06H6924.14V1834.69C6924.14 1787.31 6889.85 1755.21 6839.87 1755.21Z" fill="#231F20"/>
<path d="M7049.79 1755.21C6993.14 1755.21 6952.51 1793.65 6952.51 1846.56C6952.51 1899.47 6990.14 1937.59 7043.04 1937.59C7070.27 1937.59 7093.76 1926.37 7109.12 1908.9V1932.39C7109.12 1965.14 7085.22 1989.44 7052.39 1989.44C7025.57 1989.44 7002.41 1971.15 6997.94 1946.53L6962.59 1946.12C6968.11 1989.03 7006.55 2020 7053.93 2020C7107.98 2020 7147.07 1982.29 7147.07 1930.11V1846.56C7147.07 1793.65 7106.44 1755.21 7049.79 1755.21ZM7050.2 1907.76C7016.22 1907.76 6991.6 1882 6991.6 1846.23C6991.6 1810.47 7016.22 1785.03 7050.2 1785.03C7084.17 1785.03 7109.12 1810.8 7109.12 1846.23C7109.12 1881.67 7084.49 1907.76 7050.2 1907.76Z" fill="#231F20"/>
<path d="M7373.82 1755.21C7317.17 1755.21 7276.46 1795.11 7276.46 1850.3V2016.59H7314.49V1916.7C7329.04 1934.26 7351.79 1945.39 7378.69 1945.39C7432.74 1945.39 7471.1 1905.48 7471.1 1851.44C7471.1 1797.39 7430.46 1755.21 7373.82 1755.21ZM7373.41 1912.23C7339.12 1912.23 7314.49 1886.14 7314.49 1850.3C7314.49 1814.46 7339.12 1788.45 7373.41 1788.45C7407.71 1788.45 7432.01 1814.13 7432.01 1850.3C7432.01 1886.47 7407.38 1912.23 7373.41 1912.23Z" fill="#231F20"/>
<path d="M7588.21 1755.21C7531.56 1755.21 7490.85 1795.11 7490.85 1850.3C7490.85 1905.48 7528.56 1945.39 7580 1945.39C7607.96 1945.39 7632.58 1934.26 7647.46 1916.7V1942.06H7685.49V1850.3C7685.49 1795.11 7644.86 1755.21 7588.21 1755.21ZM7588.54 1912.23C7554.65 1912.23 7530.02 1886.47 7530.02 1850.3C7530.02 1814.13 7554.65 1788.45 7588.54 1788.45C7622.43 1788.45 7647.46 1814.54 7647.46 1850.3C7647.46 1886.06 7622.91 1912.23 7588.54 1912.23Z" fill="#231F20"/>
<path d="M7718 1829.41V1942.06H7756.36V1832.82C7756.36 1805.19 7773.1 1790.64 7801.47 1790.64V1758.62C7748.56 1758.62 7718 1784.71 7718 1829.41Z" fill="#231F20"/>
<path d="M7878.27 1758.62V1711.24H7839.91V1758.62H7805.94V1790.64H7839.91V1942.06H7878.27V1790.64H7919.72V1758.62H7878.27Z" fill="#231F20"/>
<path d="M8024.8 1755.21C7975.22 1755.21 7941.33 1787.31 7941.33 1834.69V1942.06H7979.69V1834.69C7979.69 1805.92 7997.57 1786.9 8025.21 1786.9C8052.84 1786.9 8070.72 1805.92 8070.72 1834.69V1942.06H8109.08V1834.69C8109.08 1787.31 8074.78 1755.21 8024.8 1755.21Z" fill="#231F20"/>
<path d="M8333.14 1850.7C8332.82 1795.11 8292.18 1755.21 8235.46 1755.21C8178.73 1755.21 8137.44 1795.11 8137.44 1850.3C8137.44 1905.48 8178.81 1945.39 8235.46 1945.39C8280.64 1945.39 8319.73 1916.29 8330.22 1875.66H8291.45C8284.3 1897.68 8261.95 1914.1 8235.86 1914.1C8204.17 1914.1 8180.27 1892.8 8175.48 1862.25H8332.09C8332.82 1858.51 8333.14 1854.44 8333.14 1850.7ZM8176.53 1832.82C8183.28 1805.6 8206.04 1786.58 8235.86 1786.58C8265.69 1786.58 8289.91 1805.6 8296.25 1832.82H8176.53Z" fill="#231F20"/>
<path d="M8361.1 1829.41V1942.06H8399.54V1832.82C8399.54 1805.19 8416.36 1790.64 8444.65 1790.64V1758.62C8391.74 1758.62 8361.1 1784.71 8361.1 1829.41Z" fill="#231F20"/>
<path d="M5172.1 343.629C4850.02 343.629 4616.2 570.71 4616.2 883.618C4616.2 1196.53 4850.02 1423.53 5172.1 1423.53C5412.99 1423.53 5622.67 1279.26 5696.62 1067.7H5411.28C5362.03 1142.8 5272.06 1191.4 5174.05 1191.4C5037.03 1191.4 4927.88 1107.85 4892.04 979.766H5714.1L5719.3 953.676C5723.6 932.382 5725.88 908.163 5725.88 885.406C5723.85 571.523 5490.84 343.629 5172.1 343.629ZM4902.03 757.561C4945.92 645.889 5048.73 575.831 5174.05 575.831C5299.37 575.831 5409.33 647.352 5452.4 757.561H4902.03Z" fill="#0085F9"/>
<path d="M3113.34 4.22656V262.274H2691.46V1446.28H2409.53V262.274H1987.73V4.22656H3113.34Z" fill="#0085F9"/>
<path d="M3473.45 363.217V599.32H3440.94C3345.94 599.32 3232.72 632.724 3232.72 791.697V1423.53H2962.74V773.816C2962.74 516.663 3141.54 363.217 3440.94 363.217H3473.45Z" fill="#0085F9"/>
<path d="M4498.2 361.591V969.2C4498.2 1236.67 4301.52 1423.53 4020 1423.53C3738.47 1423.53 3539.77 1236.67 3539.77 969.2V361.591H3807.72V969.2C3807.72 1105.01 3888.26 1189.37 4017.97 1189.37C4147.68 1189.37 4230.25 1102.98 4230.25 969.2V361.591H4498.2Z" fill="#0085F9"/>
<path d="M6119.88 0H5851.93V1405.65H6119.88V0Z" fill="#0085F9"/>
<path d="M6803.7 343.629C6481.62 343.629 6247.88 570.71 6247.88 883.618C6247.88 949.206 6258.12 1010.98 6277.39 1067.7C6349.8 1281.7 6549.16 1423.53 6803.7 1423.53C7044.67 1423.53 7254.35 1279.26 7328.3 1067.7H7042.96C6993.71 1142.8 6903.74 1191.4 6805.73 1191.4C6707.72 1191.4 6616.53 1144.75 6564.19 1067.7C6546.48 1041.62 6532.74 1012.11 6523.64 979.766H7345.78L7350.98 953.676C7355.2 932.382 7357.56 908.163 7357.56 885.406C7355.45 571.523 7122.53 343.629 6803.7 343.629ZM6533.63 757.561C6577.6 645.889 6680.41 575.831 6805.73 575.831C6931.05 575.831 7040.93 647.352 7084.08 757.561H6533.63Z" fill="#0085F9"/>
<path d="M8261.62 0V451.237C8178.08 382.153 8069.01 343.629 7951.82 343.629C7647.05 343.629 7425.83 568.191 7425.83 877.604C7425.83 1187.02 7657.94 1423.53 7977.74 1423.53C8297.54 1423.53 8529.57 1196.44 8529.57 883.618V0H8261.62ZM7979.69 1181.41C7814.88 1181.41 7699.79 1058.93 7699.79 883.618C7699.79 708.309 7817.56 585.828 7979.69 585.828C8141.83 585.828 8261.62 711.072 8261.62 883.618C8261.62 1056.16 8145.65 1181.41 7979.69 1181.41Z" fill="#0085F9"/>
<path d="M9173.57 343.629C8853.85 343.629 8621.74 562.339 8621.74 863.705C8621.74 1165.07 8838.73 1381.75 9137.81 1381.75C9257.76 1381.75 9370.57 1342.58 9457.45 1272.27V1321.36C9457.45 1478.95 9343.91 1593.39 9187.55 1593.39C9061.09 1593.39 8949.91 1506.43 8929.02 1391.18L8928.05 1385.73H8673.99L8675.7 1399.22C8707.64 1643.94 8926.26 1821.53 9195.51 1821.53C9502.55 1821.53 9725.48 1606.15 9725.48 1309.5V863.705C9725.48 562.339 9493.37 343.629 9173.57 343.629ZM9175.6 1157.51C9013.38 1157.51 8895.7 1033.16 8895.7 861.755C8895.7 690.347 9013.38 567.866 9175.6 567.866C9337.82 567.866 9457.45 691.484 9457.45 861.755C9457.45 1032.03 9341.56 1157.51 9175.6 1157.51Z" fill="#0085F9"/>
<path d="M10398 361.591V597.694H10365.5C10270.5 597.694 10157.2 631.098 10157.2 790.071V1426.37H9887.29V772.19C9887.29 515.037 10066 361.591 10365.5 361.591H10398Z" fill="#0085F9"/>
</g>
<defs>
<clipPath id="clip0_2526_346">
<rect width="10398" height="2020" fill="white"/>
</clipPath>
</defs>
</svg>
