<svg width="108" height="20" viewBox="0 0 108 20" fill="none" xmlns="http://www.w3.org/2000/svg">
<path d="M18.3334 8.41678C18.4167 8.00011 18.0834 7.50011 17.6667 7.50011L12.9167 6.83344L10.7501 2.50011C10.6667 2.33344 10.5834 2.25011 10.4167 2.16678C10.0001 1.91678 9.50008 2.08344 9.25008 2.50011L7.16675 6.83344L2.41675 7.50011C2.16675 7.50011 2.00008 7.58345 1.91675 7.75011C1.58341 8.08345 1.58341 8.58344 1.91675 8.91678L5.33341 12.2501L4.50008 17.0001C4.50008 17.1668 4.50008 17.3334 4.58341 17.5001C4.83341 17.9168 5.33341 18.0834 5.75008 17.8334L10.0001 15.5834L14.2501 17.8334C14.3334 17.9168 14.5001 17.9168 14.6667 17.9168C14.7501 17.9168 14.7501 17.9168 14.8334 17.9168C15.2501 17.8334 15.5834 17.4168 15.5001 16.9168L14.6667 12.1668L18.0834 8.83344C18.2501 8.75011 18.3334 8.58345 18.3334 8.41678Z" fill="#FBBC05"/>
<path d="M40.3334 8.41678C40.4167 8.00011 40.0834 7.50011 39.6667 7.50011L34.9167 6.83344L32.7501 2.50011C32.6667 2.33344 32.5834 2.25011 32.4167 2.16678C32.0001 1.91678 31.5001 2.08344 31.2501 2.50011L29.1667 6.83344L24.4167 7.50011C24.1667 7.50011 24.0001 7.58345 23.9167 7.75011C23.5834 8.08345 23.5834 8.58344 23.9167 8.91678L27.3334 12.2501L26.5001 17.0001C26.5001 17.1668 26.5001 17.3334 26.5834 17.5001C26.8334 17.9168 27.3334 18.0834 27.7501 17.8334L32.0001 15.5834L36.2501 17.8334C36.3334 17.9168 36.5001 17.9168 36.6667 17.9168C36.7501 17.9168 36.7501 17.9168 36.8334 17.9168C37.2501 17.8334 37.5834 17.4168 37.5001 16.9168L36.6667 12.1668L40.0834 8.83344C40.2501 8.75011 40.3334 8.58345 40.3334 8.41678Z" fill="#FBBC05"/>
<path d="M62.3334 8.41678C62.4167 8.00011 62.0834 7.50011 61.6667 7.50011L56.9167 6.83344L54.7501 2.50011C54.6667 2.33344 54.5834 2.25011 54.4167 2.16678C54.0001 1.91678 53.5001 2.08344 53.2501 2.50011L51.1667 6.83344L46.4167 7.50011C46.1667 7.50011 46.0001 7.58345 45.9167 7.75011C45.5834 8.08345 45.5834 8.58344 45.9167 8.91678L49.3334 12.2501L48.5001 17.0001C48.5001 17.1668 48.5001 17.3334 48.5834 17.5001C48.8334 17.9168 49.3334 18.0834 49.7501 17.8334L54.0001 15.5834L58.2501 17.8334C58.3334 17.9168 58.5001 17.9168 58.6667 17.9168C58.7501 17.9168 58.7501 17.9168 58.8334 17.9168C59.2501 17.8334 59.5834 17.4168 59.5001 16.9168L58.6667 12.1668L62.0834 8.83344C62.2501 8.75011 62.3334 8.58345 62.3334 8.41678Z" fill="#FBBC05"/>
<path d="M84.3334 8.41678C84.4167 8.00011 84.0834 7.50011 83.6667 7.50011L78.9167 6.83344L76.7501 2.50011C76.6667 2.33344 76.5834 2.25011 76.4167 2.16678C76.0001 1.91678 75.5001 2.08344 75.2501 2.50011L73.1667 6.83344L68.4167 7.50011C68.1667 7.50011 68.0001 7.58345 67.9167 7.75011C67.5834 8.08345 67.5834 8.58344 67.9167 8.91678L71.3334 12.2501L70.5001 17.0001C70.5001 17.1668 70.5001 17.3334 70.5834 17.5001C70.8334 17.9168 71.3334 18.0834 71.7501 17.8334L76.0001 15.5834L80.2501 17.8334C80.3334 17.9168 80.5001 17.9168 80.6667 17.9168C80.7501 17.9168 80.7501 17.9168 80.8334 17.9168C81.2501 17.8334 81.5834 17.4168 81.5001 16.9168L80.6667 12.1668L84.0834 8.83344C84.2501 8.75011 84.3334 8.58345 84.3334 8.41678Z" fill="#FBBC05"/>
<path d="M106.333 8.41678C106.417 8.00011 106.083 7.50011 105.667 7.50011L100.917 6.83344L98.7501 2.50011C98.6667 2.33344 98.5834 2.25011 98.4167 2.16678C98.0001 1.91678 97.5001 2.08344 97.2501 2.50011L95.1667 6.83344L90.4167 7.50011C90.1667 7.50011 90.0001 7.58345 89.9167 7.75011C89.5834 8.08345 89.5834 8.58344 89.9167 8.91678L93.3334 12.2501L92.5001 17.0001C92.5001 17.1668 92.5001 17.3334 92.5834 17.5001C92.8334 17.9168 93.3334 18.0834 93.7501 17.8334L98.0001 15.5834L102.25 17.8334C102.333 17.9168 102.5 17.9168 102.667 17.9168C102.75 17.9168 102.75 17.9168 102.833 17.9168C103.25 17.8334 103.583 17.4168 103.5 16.9168L102.667 12.1668L106.083 8.83344C106.25 8.75011 106.333 8.58345 106.333 8.41678Z" fill="#FBBC05"/>
</svg>
