<svg width="351" height="231" viewBox="0 0 351 231" fill="none" xmlns="http://www.w3.org/2000/svg">
<path fill-rule="evenodd" clip-rule="evenodd" d="M308.883 23.0329C305.67 23.0329 303.064 20.4279 303.064 17.2138C303.064 14.0009 305.67 11.3947 308.883 11.3947C312.099 11.3947 314.704 14.0009 314.704 17.2138C314.704 20.4279 312.099 23.0329 308.883 23.0329ZM61.784 162.559H30.6912C13.9567 162.559 0.265625 176.25 0.265625 192.984C0.265625 209.717 13.9567 223.41 30.6912 223.41H293.597C320.695 223.41 342.864 201.239 342.864 174.143V174.141C342.864 147.045 320.695 124.876 293.597 124.876C282.141 124.874 272.766 115.5 272.766 104.043C272.766 92.5859 282.141 83.2125 293.597 83.2125H318.669C330.58 83.2125 340.325 73.4664 340.325 61.555C340.325 49.6437 330.58 39.8963 318.669 39.8963H286.965C282.328 39.8963 278.534 36.1019 278.534 31.4645C278.534 26.8272 282.328 23.0328 286.965 23.0328H292.553C295.755 23.0328 298.374 20.4138 298.374 17.2137C298.374 14.0134 295.753 11.3945 292.553 11.3945H271.609C271.609 11.3945 263.605 11.3945 255.883 11.3945C248.16 11.3945 247.299 20.5188 227.792 20.5188C197.636 20.5188 212.713 20.5188 182.557 20.5188C178.381 20.5188 174.964 23.9352 174.964 28.1112C174.964 32.2872 178.381 35.7049 182.557 35.7049H189.849C195.9 35.7049 200.853 40.657 200.853 46.7074V46.7086C200.853 52.7578 195.9 57.7099 189.849 57.7099H167.902C138.267 57.7099 134.081 65.454 128.89 80.8576C123.699 96.26 96.7446 97.5036 96.7446 97.5036H59.8856C50.7663 97.5036 43.3053 104.963 43.3053 114.083C43.3053 123.202 50.7663 130.663 59.8856 130.663H61.784C70.5544 130.663 77.7311 137.839 77.7311 146.61C77.7311 155.382 70.5544 162.559 61.784 162.559Z" fill="#EAEFF8"/>
<path fill-rule="evenodd" clip-rule="evenodd" d="M127.475 52.2115H128.538C128.178 52.1369 127.823 52.1369 127.475 52.2115ZM128.648 52.2115H129.52C129.242 51.6453 129.127 51.1901 129.171 50.8502C128.878 51.2672 128.703 51.7211 128.648 52.2115ZM129.598 52.2115H147.427C147.49 50.7326 147.002 49.2703 145.668 48.3981C145.329 48.6093 144.973 48.7912 144.601 48.9479C143.614 48.0139 142.753 47.1391 142.824 46.2202C137.088 49.844 132.407 46.799 130.243 50.6491C129.927 51.2155 129.709 51.735 129.598 52.2115ZM199.363 52.2115H319.891V42.0557H199.812C200.477 43.47 200.851 45.0474 200.851 46.707C200.851 48.7079 200.308 50.5898 199.363 52.2115Z" fill="#99C5F2"/>
<path fill-rule="evenodd" clip-rule="evenodd" d="M199.813 42.0558H324.487V40.6972C322.633 40.1765 320.681 39.8958 318.668 39.8958H286.965C282.471 39.8958 278.769 36.3341 278.546 31.8926H175.979C177.294 34.1664 179.754 35.7046 182.556 35.7046H189.848C194.239 35.7046 198.051 38.3122 199.813 42.0558Z" fill="#A4D0FC"/>
<path fill-rule="evenodd" clip-rule="evenodd" d="M246.741 216.494V206.851H93.8184V216.445C116.339 215.885 142.015 215.568 169.274 215.568C197.346 215.568 223.742 215.904 246.741 216.494Z" fill="#99C5F2"/>
<path fill-rule="evenodd" clip-rule="evenodd" d="M23.2617 206.85H317.3V130.994C310.257 127.098 302.176 124.875 293.597 124.874C282.14 124.874 272.768 115.499 272.768 104.043C272.768 92.585 282.14 83.2117 293.597 83.2117H317.3V52.2111H199.365C197.455 55.4922 193.898 57.7091 189.848 57.7091H167.901C157.952 57.7091 150.871 58.5825 145.657 60.3242C145.609 59.1955 145.516 58.1503 145.389 57.3046C145.388 57.067 145.384 56.8244 145.38 56.5766C146.007 56.1001 146.546 55.343 146.915 54.467C147.18 53.988 147.307 53.5368 147.323 53.107C147.379 52.8112 147.414 52.5104 147.428 52.2109H129.599L129.575 52.3196L129.52 52.2109H128.648L128.646 52.235L128.538 52.2109H127.475C127.193 52.2716 126.915 52.3816 126.641 52.5408C127.019 52.5623 127.488 52.8353 128.047 53.3598C127.041 54.7552 126.804 58.4572 127.981 61.1267C128.514 63.8341 129.661 65.3938 131.418 65.8021C131.89 66.29 132.526 66.6274 133.324 66.817C133.627 67.4237 134.02 67.9343 134.475 68.3641C133.824 69.2969 133.233 70.2929 132.683 71.3496C132.339 71.3205 132.102 71.3269 132.018 71.38L126.669 74.5222L126.756 74.6574L121.51 76.4636C121.51 76.4636 119.015 76.4636 118.504 86.1263C118.411 87.882 118.583 89.7425 118.954 91.6435C109.327 96.9229 96.7441 97.5031 96.7441 97.5031H59.8855C50.7663 97.5031 43.3052 104.963 43.3052 114.082C43.3052 123.201 50.7663 130.662 59.8855 130.662H61.7839C70.5543 130.662 77.731 137.839 77.731 146.609C77.731 155.382 70.5543 162.558 61.7839 162.558H30.6911C28.1304 162.558 25.6404 162.88 23.2617 163.483V206.85Z" fill="#A4D0FC"/>
<path fill-rule="evenodd" clip-rule="evenodd" d="M23.2617 206.85H317.3V130.994C310.257 127.098 302.176 124.875 293.597 124.874C282.14 124.874 272.768 115.499 272.768 104.043C272.768 92.5854 282.14 83.212 293.597 83.212H317.3V58.1797H156.726C152.288 58.6044 148.662 59.3198 145.657 60.3245C145.625 59.5586 145.57 58.8319 145.501 58.1797H127.246C127.344 59.1933 127.582 60.2197 127.981 61.1272C128.515 63.8345 129.661 65.3942 131.418 65.8025C131.89 66.2904 132.526 66.6279 133.324 66.8175C133.627 67.4242 134.02 67.9348 134.475 68.3646C133.824 69.2974 133.233 70.2934 132.683 71.35C132.339 71.321 132.102 71.3274 132.018 71.3804L126.669 74.5226L126.756 74.6578L121.51 76.4641C121.51 76.4641 119.015 76.4641 118.504 86.1268C118.411 87.8825 118.583 89.743 118.954 91.6439C109.327 96.9234 96.7442 97.5035 96.7442 97.5035H59.8855C50.7663 97.5035 43.3052 104.963 43.3052 114.082C43.3052 123.202 50.7663 130.663 59.8855 130.663H61.7839C70.5543 130.663 77.731 137.839 77.731 146.61C77.731 155.383 70.5543 162.558 61.7839 162.558H30.6911C28.1304 162.558 25.6404 162.88 23.2617 163.483V206.85Z" fill="#BBDBFA"/>
<path fill-rule="evenodd" clip-rule="evenodd" d="M98.4785 206.851H242.083V18.1299C238.773 19.4937 234.331 20.5188 227.792 20.5188H182.557C178.381 20.5188 174.963 23.9352 174.963 28.1112C174.963 32.2872 178.381 35.7048 182.557 35.7048H189.849C195.899 35.7048 200.852 40.657 200.852 46.7074C200.852 52.7578 195.899 57.7099 189.849 57.7099H167.902C157.952 57.7099 150.871 58.5833 145.658 60.325C145.609 59.1963 145.516 58.1511 145.389 57.3055C145.388 57.0678 145.384 56.8253 145.381 56.5774C146.008 56.1009 146.546 55.3439 146.915 54.4678C147.181 53.9888 147.307 53.5376 147.323 53.1078C147.656 51.3484 147.274 49.4475 145.669 48.3984C145.33 48.6095 144.974 48.7914 144.602 48.9482C143.615 48.0141 142.754 47.1394 142.825 46.2205C137.089 49.8442 132.408 46.7993 130.244 50.6494C129.903 51.2586 129.679 51.8135 129.575 52.3203C129.258 51.7023 129.124 51.2118 129.172 50.8503C128.875 51.2737 128.699 51.7363 128.646 52.2355C127.954 52.0648 127.285 52.1673 126.642 52.5415C127.02 52.563 127.488 52.8359 128.047 53.3605C127.041 54.7559 126.805 58.4579 127.981 61.1274C128.515 63.8348 129.661 65.3944 131.418 65.8027C131.891 66.2906 132.527 66.6281 133.324 66.8177C133.627 67.4244 134.021 67.935 134.476 68.3648C133.825 69.2976 133.233 70.2936 132.683 71.3503C132.339 71.3212 132.102 71.3276 132.018 71.3806L126.669 74.5228L126.757 74.658L121.51 76.4643C121.51 76.4643 119.015 76.4643 118.504 86.127C118.411 87.8827 118.583 89.7432 118.954 91.6441C111.492 95.7366 102.255 97.0057 98.4787 97.3685L98.4785 206.851Z" fill="#DFEDFA"/>
<path fill-rule="evenodd" clip-rule="evenodd" d="M47.3145 103.303H84.2619V97.5029H59.8856C54.8728 97.5029 50.3606 99.7578 47.3145 103.303Z" fill="#BBDBFA"/>
<path fill-rule="evenodd" clip-rule="evenodd" d="M52.9141 99.05H80.0078V97.5029H59.8859C57.3998 97.5029 55.0374 98.059 52.9141 99.05Z" fill="#99C5F2"/>
<path fill-rule="evenodd" clip-rule="evenodd" d="M73.1077 157.811H84.2619V115.347H43.3535C44.0044 123.882 51.1925 130.663 59.8858 130.663H61.7842C70.5546 130.663 77.7313 137.84 77.7313 146.61C77.7313 150.966 75.963 154.927 73.1077 157.811Z" fill="#BBDBFA"/>
<path fill-rule="evenodd" clip-rule="evenodd" d="M76.1274 153.556H80.0064V119.601H44.2559C46.5423 126.028 52.6977 130.662 59.8845 130.662H61.7829C70.5533 130.662 77.73 137.839 77.73 146.61C77.73 149.096 77.1536 151.453 76.1274 153.556Z" fill="#99C5F2"/>
<path fill-rule="evenodd" clip-rule="evenodd" d="M80.0064 121.158V119.601H44.2559C46.5423 126.028 52.6977 130.662 59.8845 130.662H61.7829C63.0949 130.662 64.3702 130.824 65.5924 131.128C70.2664 127.629 75.0795 124.313 80.0064 121.158Z" fill="#A4D0FC"/>
<path d="M158.667 115.347H112.059V157.811H158.667V115.347Z" fill="#BBDBFA"/>
<path d="M154.416 119.601H116.314V153.556H154.416V119.601Z" fill="#99C5F2"/>
<path fill-rule="evenodd" clip-rule="evenodd" d="M154.416 121.158V119.601H116.314V151.779C127.792 140.038 140.657 129.969 154.416 121.158Z" fill="#A4D0FC"/>
<path d="M228.503 115.347H181.893V157.811H228.503V115.347Z" fill="#BBDBFA"/>
<path d="M224.249 119.601H186.146V153.556H224.249V119.601Z" fill="#99C5F2"/>
<path fill-rule="evenodd" clip-rule="evenodd" d="M224.249 121.158V119.601H186.146V151.779C197.628 140.038 210.491 129.969 224.249 121.158Z" fill="#A4D0FC"/>
<path fill-rule="evenodd" clip-rule="evenodd" d="M112.059 103.304H158.667V58.016C153.331 58.4078 149.088 59.1789 145.657 60.3252C145.609 59.1965 145.515 58.1513 145.388 57.3057C145.387 57.068 145.383 56.8255 145.38 56.5776C146.007 56.1011 146.545 55.3441 146.914 54.468C147.18 53.989 147.306 53.5378 147.322 53.108C147.655 51.3486 147.273 49.4477 145.668 48.3986C145.329 48.6097 144.973 48.7916 144.601 48.9483C143.614 48.0143 142.753 47.1396 142.824 46.2207C137.088 49.8444 132.407 46.7995 130.243 50.6496C129.902 51.2588 129.678 51.8137 129.574 52.3205C129.257 51.7025 129.123 51.212 129.171 50.8505C128.874 51.2739 128.698 51.7365 128.645 52.2357C127.953 52.065 127.284 52.1675 126.641 52.5417C127.019 52.5632 127.488 52.8361 128.046 53.3607C127.04 54.7561 126.804 58.4581 127.98 61.1276C128.514 63.835 129.66 65.3946 131.417 65.8029C131.89 66.2908 132.526 66.6283 133.323 66.8179C133.626 67.4246 134.02 67.9352 134.475 68.365C133.824 69.2978 133.232 70.2938 132.682 71.3505C132.339 71.3214 132.101 71.3278 132.018 71.3808L126.669 74.523L126.756 74.6582L121.509 76.4645C121.509 76.4645 119.014 76.4645 118.504 86.1272C118.41 87.8829 118.582 89.7434 118.953 91.6443C116.748 92.8526 114.388 93.8157 112.059 94.5818L112.059 103.304Z" fill="#BBDBFA"/>
<path fill-rule="evenodd" clip-rule="evenodd" d="M116.314 99.051H154.416V58.437C151.008 58.8719 148.124 59.5012 145.658 60.3252C145.61 59.1965 145.516 58.1513 145.39 57.3057C145.389 57.068 145.385 56.8255 145.381 56.5776C146.008 56.1011 146.546 55.3441 146.916 54.468C147.181 53.989 147.307 53.5378 147.324 53.108C147.656 51.3486 147.274 49.4477 145.669 48.3986C145.331 48.6097 144.974 48.7916 144.603 48.9483C143.615 48.0143 142.755 47.1396 142.826 46.2207C137.09 49.8444 132.408 46.7995 130.244 50.6496C129.903 51.2588 129.679 51.8137 129.576 52.3205C129.258 51.7025 129.124 51.212 129.172 50.8505C128.875 51.2739 128.7 51.7365 128.647 52.2357C127.954 52.065 127.285 52.1675 126.642 52.5417C127.02 52.5632 127.489 52.8361 128.048 53.3607C127.042 54.7561 126.805 58.4581 127.982 61.1276C128.515 63.835 129.662 65.3946 131.419 65.8029C131.891 66.2908 132.527 66.6283 133.325 66.8179C133.628 67.4246 134.021 67.9352 134.476 68.365C133.825 69.2978 133.234 70.2938 132.684 71.3505C132.34 71.3214 132.102 71.3278 132.019 71.3808L126.67 74.523L126.757 74.6582L121.511 76.4645C121.511 76.4645 119.016 76.4645 118.505 86.1272C118.411 87.8829 118.583 89.7434 118.955 91.6443C118.095 92.1158 117.211 92.5493 116.315 92.9487V99.051H116.314Z" fill="#3885BC"/>
<path fill-rule="evenodd" clip-rule="evenodd" d="M154.416 66.6516V58.436C151.008 58.8709 148.124 59.5002 145.658 60.3243C145.61 59.1956 145.516 58.1504 145.39 57.3047C145.389 57.067 145.385 56.8245 145.381 56.5766C146.008 56.1001 146.546 55.3431 146.915 54.467C147.181 53.988 147.307 53.5369 147.324 53.1071C147.656 51.3477 147.274 49.4467 145.669 48.3976C145.33 48.6088 144.974 48.7907 144.602 48.9474C143.615 48.0134 142.754 47.1386 142.825 46.2197C137.09 49.8435 132.408 46.7985 130.244 50.6486C129.903 51.2578 129.679 51.8128 129.576 52.3195C129.258 51.7016 129.124 51.211 129.172 50.8495C128.875 51.273 128.7 51.7355 128.647 52.2347C127.954 52.0641 127.285 52.1665 126.642 52.5407C127.02 52.5622 127.489 52.8352 128.047 53.3597C127.041 54.7551 126.805 58.4571 127.982 61.1266C128.515 63.834 129.662 65.3937 131.418 65.802C131.891 66.2899 132.527 66.6273 133.324 66.8169C133.628 67.4236 134.021 67.9342 134.476 68.364C133.825 69.2969 133.234 70.2928 132.684 71.3495C132.34 71.3204 132.102 71.3268 132.019 71.3799L126.67 74.5221L126.757 74.6573L121.51 76.4635C121.51 76.4635 119.015 76.4635 118.505 86.1262C118.411 87.8819 118.583 89.7424 118.955 91.6434C118.095 92.1148 117.211 92.5483 116.314 92.9477V97.2666C127.792 85.5311 140.657 75.4626 154.416 66.6516Z" fill="#489BD4"/>
<path fill-rule="evenodd" clip-rule="evenodd" d="M116.314 99.051H154.416V58.437C151.008 58.8719 148.124 59.5012 145.658 60.3252C145.61 59.1965 145.516 58.1513 145.39 57.3057C145.389 57.068 145.385 56.8255 145.381 56.5776C146.008 56.1011 146.546 55.3441 146.916 54.468C147.181 53.989 147.307 53.5378 147.324 53.108C147.656 51.3486 147.274 49.4477 145.669 48.3986C145.331 48.6097 144.974 48.7916 144.603 48.9483C143.615 48.0143 142.755 47.1396 142.826 46.2207C137.09 49.8444 132.408 46.7995 130.244 50.6496C129.903 51.2588 129.679 51.8137 129.576 52.3205C129.258 51.7025 129.124 51.212 129.172 50.8505C128.875 51.2739 128.7 51.7365 128.647 52.2357C127.954 52.065 127.285 52.1675 126.642 52.5417C127.02 52.5632 127.489 52.8361 128.048 53.3607C127.042 54.7561 126.805 58.4581 127.982 61.1276C128.515 63.835 129.662 65.3946 131.419 65.8029C131.891 66.2908 132.527 66.6283 133.325 66.8179C133.628 67.4246 134.021 67.9352 134.476 68.365C133.825 69.2978 133.234 70.2938 132.684 71.3505C132.34 71.3214 132.102 71.3278 132.019 71.3808L126.67 74.523L126.757 74.6582L121.511 76.4645C121.511 76.4645 119.016 76.4645 118.505 86.1272C118.411 87.8829 118.583 89.7434 118.955 91.6443C118.095 92.1158 117.211 92.5493 116.315 92.9487V99.051H116.314Z" fill="#99C5F2"/>
<path fill-rule="evenodd" clip-rule="evenodd" d="M154.416 66.6516V58.436C151.008 58.8709 148.124 59.5002 145.658 60.3243C145.61 59.1956 145.516 58.1504 145.39 57.3047C145.389 57.067 145.385 56.8245 145.381 56.5766C146.008 56.1001 146.546 55.3431 146.915 54.467C147.181 53.988 147.307 53.5369 147.324 53.1071C147.656 51.3477 147.274 49.4467 145.669 48.3976C145.33 48.6088 144.974 48.7907 144.602 48.9474C143.615 48.0134 142.754 47.1386 142.825 46.2197C137.09 49.8435 132.408 46.7985 130.244 50.6486C129.903 51.2578 129.679 51.8128 129.576 52.3195C129.258 51.7016 129.124 51.211 129.172 50.8495C128.875 51.273 128.7 51.7355 128.647 52.2347C127.954 52.0641 127.285 52.1665 126.642 52.5407C127.02 52.5622 127.489 52.8352 128.047 53.3597C127.041 54.7551 126.805 58.4571 127.982 61.1266C128.515 63.834 129.662 65.3937 131.418 65.802C131.891 66.2899 132.527 66.6273 133.324 66.8169C133.628 67.4236 134.021 67.9342 134.476 68.364C133.825 69.2969 133.234 70.2928 132.684 71.3495C132.34 71.3204 132.102 71.3268 132.019 71.3799L126.67 74.5221L126.757 74.6573L121.51 76.4635C121.51 76.4635 119.015 76.4635 118.505 86.1262C118.411 87.8819 118.583 89.7424 118.955 91.6434C118.095 92.1148 117.211 92.5483 116.314 92.9477V97.2666C127.792 85.5311 140.658 75.4626 154.416 66.6516Z" fill="#A4D0FC"/>
<path fill-rule="evenodd" clip-rule="evenodd" d="M181.893 103.304H228.503V20.54H181.989L181.893 20.5476V35.6744C182.111 35.6947 182.333 35.7048 182.556 35.7048H189.848C195.899 35.7048 200.852 40.6569 200.852 46.7073C200.852 52.7577 195.899 57.7098 189.848 57.7098H181.893V103.304H181.893Z" fill="#BBDBFA"/>
<path fill-rule="evenodd" clip-rule="evenodd" d="M186.146 99.0504H224.249V24.793H186.146V35.7045H189.847C195.898 35.7045 200.851 40.6566 200.851 46.707C200.851 52.7574 195.898 57.7095 189.847 57.7095H186.146V99.0504Z" fill="#99C5F2"/>
<path fill-rule="evenodd" clip-rule="evenodd" d="M224.249 66.6517V24.7939H186.146V35.7043H189.847C195.898 35.7043 200.851 40.6564 200.851 46.7068C200.851 52.7572 195.898 57.7093 189.847 57.7093H186.146V97.2668C197.628 85.5312 210.491 75.4626 224.249 66.6517Z" fill="#A4D0FC"/>
<path fill-rule="evenodd" clip-rule="evenodd" d="M257.086 103.304H272.78C273.173 92.1847 282.386 83.212 293.596 83.212H303.695V60.8467H257.086L257.086 103.304Z" fill="#BBDBFA"/>
<path fill-rule="evenodd" clip-rule="evenodd" d="M261.34 99.0501H273.376C275.629 89.984 283.86 83.2117 293.597 83.2117H299.439V65.0996H261.34V99.0501Z" fill="#99C5F2"/>
<path fill-rule="evenodd" clip-rule="evenodd" d="M299.44 66.6517V65.0996H261.34V97.2669C272.821 85.5312 285.684 75.4627 299.44 66.6517Z" fill="#A4D0FC"/>
<path fill-rule="evenodd" clip-rule="evenodd" d="M257.086 157.811H303.695V125.925C300.432 125.238 297.055 124.874 293.596 124.874C286.298 124.874 279.846 121.07 276.123 115.347H257.086V157.811Z" fill="#BBDBFA"/>
<path fill-rule="evenodd" clip-rule="evenodd" d="M261.34 153.556H299.439V125.225C297.523 124.995 295.574 124.874 293.597 124.874C288.311 124.874 283.468 122.876 279.785 119.601H261.34V153.556Z" fill="#99C5F2"/>
<path fill-rule="evenodd" clip-rule="evenodd" d="M279.786 119.601H261.34V151.779C271.238 141.657 282.162 132.778 293.8 124.876L293.598 124.874C288.312 124.874 283.469 122.877 279.786 119.601Z" fill="#A4D0FC"/>
<path fill-rule="evenodd" clip-rule="evenodd" d="M130.83 169.024L130.773 170.164V215.785C143.113 215.643 156.005 215.567 169.275 215.567C183.266 215.567 196.841 215.651 209.787 215.808V170.164L209.733 169.024H130.83Z" fill="#BBDBFA"/>
<path fill-rule="evenodd" clip-rule="evenodd" d="M136.051 169.024L135.996 170.164V215.729C146.737 215.623 157.866 215.567 169.275 215.567C181.398 215.567 193.206 215.631 204.566 215.749V170.164L204.51 169.024H136.051Z" fill="#99C5F2"/>
<path fill-rule="evenodd" clip-rule="evenodd" d="M136.051 169.024L135.996 170.164V215.372C152.169 199.236 169.032 183.726 186.355 169.024H136.051Z" fill="#A4D0FC"/>
<path d="M209.787 168.327H130.773V173.452H209.787V168.327Z" fill="#BBDBFA"/>
<path fill-rule="evenodd" clip-rule="evenodd" d="M161.826 205.773C161.826 210.131 163.103 213.663 164.679 213.663C166.254 213.663 167.528 210.131 167.528 205.773C167.528 201.419 166.254 197.888 164.679 197.888C163.103 197.888 161.826 201.419 161.826 205.773Z" fill="#DFEDFA"/>
<path fill-rule="evenodd" clip-rule="evenodd" d="M173.033 205.773C173.033 210.131 174.31 213.663 175.883 213.663C177.458 213.663 178.736 210.131 178.736 205.773C178.736 201.419 177.458 197.888 175.883 197.888C174.31 197.888 173.033 201.419 173.033 205.773Z" fill="#DFEDFA"/>
<path fill-rule="evenodd" clip-rule="evenodd" d="M45.3897 218.284C45.2924 208.898 37.657 201.315 28.2496 201.315C19.5031 201.315 12.2885 207.868 11.2383 216.331C13.2227 217.988 15.4181 219.398 17.7778 220.515C24.2427 219.694 33.6465 218.942 45.3897 218.284Z" fill="#99C5F2"/>
<path fill-rule="evenodd" clip-rule="evenodd" d="M110.802 216.08C110.637 204.503 101.203 195.169 89.5848 195.169C77.8643 195.169 68.3633 204.669 68.3633 216.388C68.3633 216.67 68.3695 216.949 68.3809 217.228C81.0911 216.751 95.3685 216.361 110.802 216.08Z" fill="#99C5F2"/>
<path fill-rule="evenodd" clip-rule="evenodd" d="M85.8742 216.655C85.9614 215.823 86.0057 214.977 86.0057 214.12C86.0057 199.938 74.5077 188.438 60.3251 188.438C46.1424 188.438 34.6445 199.938 34.6445 214.12C34.6445 215.769 34.8088 217.373 35.1185 218.925C48.2797 218.006 65.6234 217.228 85.8742 216.655Z" fill="#99C5F2"/>
<path fill-rule="evenodd" clip-rule="evenodd" d="M264.766 217.034C264.04 208.234 256.671 201.315 247.683 201.315C239.007 201.315 231.835 207.767 230.699 216.135C242.872 216.37 254.3 216.673 264.766 217.034Z" fill="#99C5F2"/>
<path fill-rule="evenodd" clip-rule="evenodd" d="M312.453 219.636C318.611 217.063 324.147 213.272 328.755 208.569C325.641 200.719 317.979 195.169 309.02 195.169C297.3 195.169 287.799 204.669 287.799 216.388C287.799 216.931 287.82 217.47 287.863 218.002C297.515 218.491 305.806 219.04 312.453 219.636Z" fill="#99C5F2"/>
<path fill-rule="evenodd" clip-rule="evenodd" d="M304.944 219.033C305.267 217.447 305.439 215.806 305.439 214.12C305.439 199.938 293.943 188.438 279.76 188.438C265.576 188.438 254.078 199.938 254.078 214.12C254.078 214.993 254.124 215.852 254.215 216.699C274.582 217.292 291.938 218.089 304.944 219.033Z" fill="#99C5F2"/>
<path fill-rule="evenodd" clip-rule="evenodd" d="M169.275 230.712C258.212 230.712 330.749 227.309 330.749 223.138C330.749 218.969 258.212 215.567 169.275 215.567C80.338 215.567 7.80078 218.969 7.80078 223.138C7.80078 227.309 80.338 230.712 169.275 230.712Z" fill="#D2DFEE"/>
<path fill-rule="evenodd" clip-rule="evenodd" d="M143.208 65.0352C137.098 67.2496 133.177 67.4619 131.448 65.676C129.69 65.2676 128.544 63.708 128.011 61.0006C126.192 56.8752 127.748 50.285 130.306 53.5484C132.422 48.1363 140.912 51.2759 145.698 48.2715C148.604 50.1713 147.499 54.8642 145.411 56.4504C145.493 61.85 145.196 64.733 143.208 65.0352Z" fill="#284191"/>
<path fill-rule="evenodd" clip-rule="evenodd" d="M184.789 113.3C183.08 114.413 174.867 115.948 174.867 115.948C174.867 115.948 170.66 120.848 171.047 121.706C171.432 122.564 171.701 122.262 172.443 122.916C173.186 123.568 174.741 124.033 174.741 124.033C174.741 124.033 176.025 124.891 177.255 124.335C178.486 123.782 180.967 119.929 182.31 119.322C182.585 119.2 183.782 118.67 185.517 117.892L184.789 113.3Z" fill="#FFB27D"/>
<path fill-rule="evenodd" clip-rule="evenodd" d="M200.479 87.9832C200.676 86.4702 201.442 84.9762 201.745 83.4355C202.162 87.2728 205.421 92.2679 210.068 98.1275C209.736 100.784 208.621 105.855 207.207 109.456C201.996 113.117 195.428 115.45 184.829 118.28C183.892 117.575 182.939 115.536 182.502 114.025C191.506 109.141 194.921 106.89 198.963 105.628C198.943 97.9645 200.493 92.7912 200.479 87.9832Z" fill="#61A0E0"/>
<path fill-rule="evenodd" clip-rule="evenodd" d="M155.72 141.584C155.394 140.741 154.975 139.018 154.538 136.953C152.991 136.963 151.315 137.049 149.994 137.821C150.156 138.312 151.517 142.439 151.517 142.916C151.517 152.937 152.811 149.977 154.576 150.718C155.18 150.974 156.151 150.75 156.453 150.433C156.755 150.115 158.603 150.367 158.603 150.177C158.603 149.988 159.36 148.648 158.603 147.535C157.846 146.419 160.693 148.682 160.693 147.82C160.693 146.875 156.373 143.275 155.72 141.584Z" fill="#FFB27D"/>
<path fill-rule="evenodd" clip-rule="evenodd" d="M161.945 152.566V149.043C161.945 148.971 161.89 148.916 161.823 148.916H151.971C151.904 148.916 151.85 148.97 151.85 149.043V152.566H149.912V149.043C149.912 147.848 150.836 146.875 151.971 146.875H161.823C162.958 146.875 163.884 147.848 163.884 149.043V152.566H161.945Z" fill="#F57A44"/>
<path fill-rule="evenodd" clip-rule="evenodd" d="M141.957 175.962H173.352V155.414C173.352 153.397 171.715 151.762 169.698 151.762H146.181C143.848 151.762 141.957 153.652 141.957 155.984V175.962Z" fill="#FC9774"/>
<path fill-rule="evenodd" clip-rule="evenodd" d="M171.162 152.065C169.613 152.691 168.52 154.209 168.52 155.985V175.963H173.352V155.415C173.352 153.917 172.45 152.632 171.162 152.065Z" fill="#F57A44"/>
<path fill-rule="evenodd" clip-rule="evenodd" d="M160.694 148.916C160.694 148.916 160.023 147.413 159.313 147.477C158.604 147.535 159.112 148.916 159.112 148.916C159.112 148.916 160.047 149.562 160.694 148.916Z" fill="#FFB27D"/>
<path fill-rule="evenodd" clip-rule="evenodd" d="M153.378 147.473C153.378 147.473 152.036 149.944 152.433 150.343C152.831 150.737 154.097 150.594 154.097 150.594C154.097 150.594 155.679 151.116 156.175 150.62C156.175 150.62 158.605 150.543 158.605 150.177C158.605 149.815 157.439 146.875 156.898 146.875C156.36 146.875 156.132 148.857 156.132 148.857C156.132 148.857 155.896 147.289 155.483 146.875C155.068 146.463 154.246 148.857 154.246 148.857C154.246 148.857 154.435 147.019 153.378 147.473Z" fill="#FFB27D"/>
<path fill-rule="evenodd" clip-rule="evenodd" d="M163.932 118.177C165.767 119.067 174.108 119.56 174.108 119.56C174.108 119.56 178.897 123.893 178.62 124.794C178.344 125.693 178.04 125.428 177.385 126.169C176.73 126.909 175.247 127.567 175.247 127.567C175.247 127.567 174.081 128.578 172.789 128.181C171.5 127.785 168.555 124.274 167.147 123.842C166.858 123.753 165.604 123.379 163.785 122.824L163.932 118.177Z" fill="#FFB27D"/>
<path fill-rule="evenodd" clip-rule="evenodd" d="M128.102 213.411L127.5 216.716C127.5 216.716 129.784 221.045 132.139 223.399C134.493 225.752 137.618 225.433 137.618 223.429C137.618 221.425 133.543 216.414 133.543 214.012C133.543 211.608 128.102 213.411 128.102 213.411Z" fill="#284191"/>
<path fill-rule="evenodd" clip-rule="evenodd" d="M144.129 214.014L143.227 220.124C143.227 220.124 146.832 220.124 149.336 220.124C151.842 220.124 158.753 220.124 158.753 220.124C158.753 220.124 158.252 218.619 153.744 217.717C149.237 216.819 148.986 215.251 148.986 215.251L149.336 211.309L145.23 210.705L144.129 214.014Z" fill="#284191"/>
<path fill-rule="evenodd" clip-rule="evenodd" d="M137.617 144.062L146.783 176.28L143.426 215.115H149.336L157.451 174.045L149.336 127.017L137.617 144.062Z" fill="#3B5BB3"/>
<path fill-rule="evenodd" clip-rule="evenodd" d="M149.336 125.763L143.876 144.085C143.876 144.085 135.514 171.441 134.162 187.266C132.809 203.093 134.162 213.912 134.162 213.912L126.699 215.115C126.699 215.115 122.392 182.261 123.994 171.24C125.597 160.223 123.637 133.378 123.637 133.378L126.699 125.763H149.336Z" fill="#4567C6"/>
<path fill-rule="evenodd" clip-rule="evenodd" d="M227.382 92.7521C224.01 96.8004 221.18 99.7264 218.893 101.53C220.978 94.1273 223.211 86.1556 225.591 77.6152C226.429 78.323 227.103 79.0244 227.611 79.7196C227.798 83.1828 227.845 85.8244 227.749 87.647C226.513 88.624 225.519 89.2357 224.767 89.4834C225.905 90.5137 226.777 91.6031 227.382 92.7521Z" fill="#4689CC"/>
<path fill-rule="evenodd" clip-rule="evenodd" d="M206.258 90.7815C207.897 94.4153 209.74 97.7142 211.785 100.679C211.182 91.6334 210.876 84.0119 210.867 77.8135C209.95 78.3266 209.266 78.8196 208.762 79.3555C208.664 79.4692 208.571 79.5829 208.481 79.6968C207.513 83.1588 206.886 85.8673 206.6 87.8264C207.505 88.2397 208.27 88.5975 208.895 88.9008C208.046 89.4721 207.166 90.0989 206.258 90.7815Z" fill="#4689CC"/>
<path fill-rule="evenodd" clip-rule="evenodd" d="M227.611 79.7197C232.812 82.7354 237.064 85.4075 240.369 87.7369C242.598 96.2357 243.807 105.416 243.994 115.279C243.689 126.614 242.562 134.817 241.222 139.237C239.27 139.323 237.195 139.131 236.424 138.389C236.002 128.418 235.895 120.327 236.103 114.116C234.676 110.84 233.422 108.392 232.342 106.772C231.87 110.145 231.219 113.071 231.064 116.086C231.615 122.261 231.884 129.636 233.535 138.209C231.478 140.181 226.929 141.357 219.889 141.737C218.57 125.503 218.237 112.102 218.892 101.53C221.18 99.7264 224.01 96.8005 227.382 92.7521C226.776 91.6031 225.904 90.5137 224.767 89.4836C225.519 89.2358 226.512 88.6241 227.748 87.6471C227.844 85.8246 227.798 83.1829 227.611 79.7197Z" fill="#61A0E0"/>
<path fill-rule="evenodd" clip-rule="evenodd" d="M211.786 100.68C209.768 122.207 208.924 136.203 207.737 141.055C204.362 140.685 201.762 139.102 200.191 137.54C200.614 125.292 202.043 117.471 202.647 110.311C201.558 98.555 199.326 87.7472 201.731 82.7242C204.315 80.9838 206.565 79.9752 208.481 79.6982C207.513 83.1589 206.886 85.8676 206.601 87.8266C207.506 88.24 208.27 88.5977 208.896 88.9011C208.046 89.4723 207.167 90.0993 206.258 90.7819C207.898 94.4157 209.741 97.7146 211.786 100.68Z" fill="#61A0E0"/>
<path fill-rule="evenodd" clip-rule="evenodd" d="M209.451 127.107C210.063 120.313 210.778 111.437 211.786 100.679C211.194 91.7913 210.888 84.2771 210.869 78.137C211.113 78.046 212.606 77.1916 212.89 77.117C212.85 78.6275 211.662 80.6421 211.782 81.6229C212.163 80.4601 212.865 79.5121 213.889 78.7778C214.207 79.3908 214.303 80.0581 214.814 80.8064C215.364 80.235 215.883 79.689 216.224 79.2719C217.256 80.5106 218 81.8086 218.937 83.1155C220.77 80.7129 221.71 78.3885 223.376 77.002C223.945 77.2939 225.039 77.7034 225.492 77.9714C223.148 86.3779 220.949 94.2307 218.894 101.53C218.441 108.808 218.459 117.429 218.944 127.393C218.119 127.519 217.275 127.601 216.409 127.64V127.554C216.409 127.358 216.245 127.192 216.044 127.187L212.487 127.087C212.286 127.082 212.12 127.237 212.12 127.434V127.5C211.249 127.408 210.359 127.276 209.451 127.107Z" fill="#DFEDFA"/>
<path fill-rule="evenodd" clip-rule="evenodd" d="M213.269 83.7565C213.899 82.7403 214.629 82.1399 215.459 81.9541C216.079 82.2245 216.742 82.8528 217.452 83.8411C216.899 84.7953 216.311 85.4628 215.692 85.8407C216.856 93.1778 217.395 103.393 217.307 116.485C216.424 118.435 215.56 119.843 214.711 120.71C213.688 119.2 213.053 117.641 212.807 116.035C213.616 102.293 214.096 92.2653 214.25 85.9532C213.666 85.1873 213.339 84.4542 213.269 83.7565Z" fill="#4F8ECC"/>
<path fill-rule="evenodd" clip-rule="evenodd" d="M217.45 81.1598C217.857 81.7084 218.228 82.2658 218.602 82.8283C218.261 83.0558 217.824 83.32 217.29 83.6233C216.816 82.9938 216.362 82.5262 215.93 82.224C216.449 81.8399 216.956 81.4847 217.45 81.1598ZM214.088 80.2764C214.28 80.9539 214.546 81.5807 214.886 82.157C214.416 82.3871 213.981 82.7662 213.585 83.2946C213.36 82.9419 213.173 82.3441 213.023 81.5011C213.312 81.0486 213.665 80.6405 214.088 80.2764Z" fill="#4689CC"/>
<path fill-rule="evenodd" clip-rule="evenodd" d="M201.244 179.162C201.197 168.146 201.568 155.178 202.358 140.259C203.837 141.144 205.734 141.822 208.166 142.344C208.752 140.802 209.284 137.142 210.07 130.448C210.744 130.629 211.426 130.774 212.12 130.884V131.264C212.12 131.461 212.286 131.627 212.487 131.633L216.042 131.734C216.245 131.739 216.41 131.582 216.41 131.385V131.114C217.054 131.085 217.706 131.03 218.364 130.945C218.733 136.575 218.877 140.341 219.165 143.094C225.006 142.366 228.517 141.731 231.338 140.552C232.782 151.648 233.581 163.617 233.736 176.457C236.126 181.584 236.781 194.109 235.698 214.031C233.662 214.482 231.353 214.482 228.773 214.031C226.738 205.068 224.968 193.276 223.463 178.653C221.346 171.654 219.153 161.814 216.884 149.135C216.428 157.735 215.195 167.462 213.191 178.316C213.867 186.333 212.694 198.106 209.671 213.636C208.083 213.788 205.582 213.563 202.169 212.96C202.516 200.333 202.209 189.066 201.244 179.162Z" fill="#4567C6"/>
<path fill-rule="evenodd" clip-rule="evenodd" d="M219.165 143.094C218.877 140.341 218.733 136.575 218.364 130.945C218.618 130.914 218.872 130.877 219.127 130.837C219.328 134.317 219.582 137.95 219.89 141.738C224.96 141.464 228.737 140.777 231.223 139.679C231.262 139.97 231.3 140.26 231.338 140.552C228.517 141.732 225.006 142.366 219.165 143.094ZM208.165 142.344C205.733 141.822 203.836 141.144 202.357 140.259C202.375 139.927 202.393 139.594 202.411 139.261C203.847 140.129 205.642 140.825 207.737 141.055C208.236 139.013 208.676 135.349 209.167 130.182C209.466 130.278 209.766 130.366 210.07 130.448C209.284 137.142 208.752 140.803 208.165 142.344Z" fill="#3B5BB3"/>
<path fill-rule="evenodd" clip-rule="evenodd" d="M235.92 217.366C235.592 217.679 235.486 217.591 235.255 217.437C234.878 215.378 230.997 215.137 230.032 217.238C229.747 217.127 229.545 216.949 229.427 216.704C228.75 218.035 227.216 219.34 227.625 221.661C228.656 223.145 233.967 223.882 236.482 220.844C237.195 219.689 236.315 218.225 235.92 217.366ZM209.138 215.105C209.788 216.864 209.933 218.31 209.167 218.879C207.214 219.271 203.213 219.222 197.049 220.033C192.697 219.721 190.813 218.482 191.913 217.104C195.695 217.338 199.109 216.352 202.156 214.146C202.724 216.451 205.052 216.769 209.138 215.105Z" fill="#284191"/>
<path fill-rule="evenodd" clip-rule="evenodd" d="M235.521 214.067C235.625 215.299 235.728 216.424 235.831 217.446C235.57 217.662 235.463 217.576 235.254 217.437C234.878 215.378 230.996 215.138 230.032 217.238L230.025 217.236L230.019 217.234L230.013 217.231L230.006 217.228H230.005L230 217.226L229.994 217.223H229.992L229.987 217.22L229.981 217.218L229.98 217.216L229.975 217.215L229.968 217.213L229.967 217.211L229.962 217.21L229.956 217.206L229.953 217.205L229.949 217.204L229.943 217.201L229.941 217.2L229.938 217.197L229.932 217.195L229.929 217.193L229.925 217.192L229.919 217.189L229.916 217.187L229.914 217.186L229.907 217.183L229.904 217.18L229.901 217.179L229.896 217.176L229.891 217.174H229.89L229.883 217.17L229.88 217.168L229.878 217.166L229.872 217.164L229.868 217.161H229.867L229.861 217.157L229.856 217.155L229.849 217.151L229.844 217.148L229.838 217.145L229.833 217.141L229.817 217.131L229.81 217.128V217.127L229.805 217.124L229.8 217.121H229.799L229.795 217.118L229.79 217.114L229.788 217.113L229.785 217.11L229.779 217.107L229.777 217.105L229.774 217.103L229.769 217.1L229.767 217.099L229.762 217.096L229.759 217.093L229.756 217.091L229.747 217.085L229.746 217.084L229.743 217.081L229.737 217.077L229.734 217.075H229.732L229.728 217.071L229.724 217.067L229.723 217.066L229.718 217.062L229.714 217.06L229.708 217.055L229.704 217.052L229.703 217.051L229.699 217.047L229.694 217.044V217.043L229.689 217.039L229.685 217.036H229.684L229.68 217.032L229.675 217.028C229.845 216.202 229.99 215.268 230.107 214.225C232.083 214.459 233.888 214.407 235.521 214.067ZM202.862 213.08C202.713 213.624 202.515 214.1 202.266 214.508C202.287 214.569 202.311 214.627 202.336 214.685C202.448 214.941 202.589 215.163 202.761 215.351L202.764 215.354C202.821 215.416 202.88 215.475 202.943 215.53L202.947 215.532C202.966 215.55 202.986 215.566 203.006 215.583L203.015 215.59C203.233 215.765 203.488 215.899 203.777 215.991L203.784 215.994C203.81 216.001 203.836 216.01 203.862 216.018L203.877 216.021C203.904 216.029 203.93 216.035 203.958 216.043L203.967 216.046C203.996 216.052 204.025 216.059 204.054 216.066L204.059 216.067C204.088 216.073 204.118 216.078 204.148 216.085L204.163 216.087L204.248 216.103L204.257 216.104C204.55 216.149 204.873 216.163 205.225 216.144L205.24 216.143L205.345 216.137L205.361 216.135L205.466 216.126L205.489 216.124L205.594 216.114L205.612 216.111L205.728 216.097L205.73 216.096L205.851 216.081L205.878 216.076C206.168 216.033 206.475 215.971 206.797 215.89L206.833 215.881L206.958 215.849L206.974 215.844L207.098 215.811L207.136 215.801L207.25 215.768L207.29 215.757L207.404 215.724L207.452 215.709L207.567 215.674L207.6 215.664L207.729 215.623L207.763 215.612L207.892 215.569L207.921 215.559L208.056 215.513L208.089 215.502L208.223 215.454L208.39 215.395C208.496 215.355 208.602 215.315 208.711 215.273L208.736 215.264L208.903 215.199C208.896 214.706 208.922 214.198 208.979 213.677C207.519 213.717 205.48 213.519 202.862 213.08Z" fill="#FFB27D"/>
<path fill-rule="evenodd" clip-rule="evenodd" d="M230.24 115.828C230.607 111.245 230.953 107.302 231.278 103.999C231.511 104.939 231.864 105.863 232.342 106.772C231.871 110.146 231.22 113.072 231.064 116.086C231.615 122.262 231.885 129.637 233.535 138.21C233.348 138.39 233.14 138.564 232.91 138.731C231.566 133.448 230.676 125.813 230.24 115.828Z" fill="#4F8ECC"/>
<path fill-rule="evenodd" clip-rule="evenodd" d="M219.128 130.837C215.586 131.395 212.266 131.176 209.168 130.181C209.26 129.21 209.354 128.185 209.451 127.108C212.865 127.744 216.03 127.838 218.945 127.391C218.999 128.523 219.061 129.672 219.128 130.837Z" fill="#A0795F"/>
<path fill-rule="evenodd" clip-rule="evenodd" d="M216.042 127.187L212.486 127.087C212.284 127.081 212.119 127.24 212.119 127.443V131.255C212.119 131.458 212.283 131.627 212.486 131.632L216.042 131.733C216.245 131.738 216.409 131.579 216.409 131.377V127.564C216.409 127.361 216.245 127.192 216.042 127.187Z" fill="white"/>
<path fill-rule="evenodd" clip-rule="evenodd" d="M215.703 127.868V131.033L212.826 130.952V127.786L215.703 127.868Z" fill="#A0795F"/>
<path fill-rule="evenodd" clip-rule="evenodd" d="M221.857 148.088L223.315 181.906L260.206 178.023L255.838 148.088H221.857Z" fill="#A4D0FC"/>
<path fill-rule="evenodd" clip-rule="evenodd" d="M217.164 177.739C220.136 178.831 221.856 180.327 223.314 181.905L221.857 148.088L220.199 148.046L217.164 177.739Z" fill="#61A0E0"/>
<path fill-rule="evenodd" clip-rule="evenodd" d="M221.857 148.088L226.148 161.654C226.765 163.158 227.399 164.475 229.897 164.267L253.574 162.766C255.684 162.633 255.735 161.565 255.754 160.119V148.088H221.857Z" fill="#4F8ECC"/>
<path fill-rule="evenodd" clip-rule="evenodd" d="M238.948 161.858L244.971 161.47C245.302 161.449 245.633 161.68 245.683 162.01L246.502 167.359C246.553 167.687 246.345 167.992 246.02 168.025L239.753 168.658C239.427 168.692 239.075 168.452 239.04 168.118L238.465 162.525C238.431 162.192 238.617 161.88 238.948 161.858Z" fill="white"/>
<path fill-rule="evenodd" clip-rule="evenodd" d="M240.062 163.299L240.451 167.072L244.865 166.626L244.313 163.023L240.062 163.299Z" fill="#61A0E0"/>
<path fill-rule="evenodd" clip-rule="evenodd" d="M228.934 148.088C229.304 146.776 230.167 145.682 231.333 144.827C231.836 144.458 232.394 144.135 232.996 143.861C233.352 142.937 235.491 142.159 238.105 142.059C240.873 141.952 243.169 142.645 243.396 143.626C243.57 143.7 243.74 143.781 243.908 143.867C245.646 144.757 246.944 146.15 247.366 148.088H246.09C245.683 146.667 244.672 145.632 243.351 144.954C243.173 144.863 242.989 144.779 242.8 144.699C241.931 145.32 240.227 145.782 238.251 145.858C236.181 145.937 234.376 145.571 233.501 144.969C232.977 145.211 232.49 145.493 232.054 145.812C231.221 146.423 230.58 147.185 230.24 148.088H228.934Z" fill="#4689CC"/>
<path fill-rule="evenodd" clip-rule="evenodd" d="M234.979 143.576C234.959 144.389 234.667 145.618 235.185 146.203C236.545 147.737 239.873 147.843 241.304 146.858C241.919 146.434 241.99 145.05 242.007 144.163C241.271 142.282 240.873 140.544 240.813 138.945C239.356 137.978 237.156 137.886 236.424 138.389L234.979 143.576Z" fill="#FFB27D"/>
<path fill-rule="evenodd" clip-rule="evenodd" d="M221.578 75.0937C221.08 74.4768 221.555 71.566 221.215 70.5359C221.396 69.9874 221.581 69.2922 221.772 68.453C225.28 65.9593 225.728 64.1607 223.117 63.056C222.601 63.3593 221.974 64.2744 221.234 65.7988C220.616 65.7874 221.197 64.1771 220.866 63.578C221.547 61.016 220.924 60.2425 221.113 58.6499C219.301 56.0816 214.912 55.3928 209.494 56.213C209.034 61.2042 207.494 72.9829 213.53 72.6012L214.255 72.4483C214.579 74.487 214.646 77.3447 215.162 79.1106L215.273 79.3583C217.228 78.2218 218.372 78.4393 221.578 75.0937Z" fill="#FFB27D"/>
<path fill-rule="evenodd" clip-rule="evenodd" d="M209.776 56.6174C215.193 55.7971 219.302 56.0815 221.113 58.6497C220.925 60.2423 221.366 61.2155 220.688 63.7775C221.017 64.3766 220.617 65.7872 221.235 65.7986C221.975 64.2743 222.602 63.3591 223.118 63.0558C225.729 64.1605 225.281 65.9592 221.773 68.4529C221.582 69.2921 221.397 69.9873 221.216 70.5357C227.377 66.9159 230.076 58.1454 224.46 54.0313C223.323 46.7624 212.873 53.4348 207.492 50.0322C205.446 52.9912 208.132 56.587 209.776 56.6174Z" fill="#284191"/>
<path fill-rule="evenodd" clip-rule="evenodd" d="M225.043 56.5345C224.53 55.7988 224.491 55.1594 224.927 54.6159C226.152 54.3581 227.148 54.6513 227.914 55.4931C227.334 55.3465 226.377 55.694 225.043 56.5345Z" fill="#284191"/>
<path fill-rule="evenodd" clip-rule="evenodd" d="M223.777 54.2592C224.282 54.8254 224.746 54.9493 225.169 54.6332C225.429 53.5677 225.277 52.63 224.708 51.8223C224.78 52.3658 224.47 53.1772 223.777 54.2592Z" fill="#284191"/>
<path fill-rule="evenodd" clip-rule="evenodd" d="M213.589 56.2298C213.545 54.6562 212.932 53.7146 211.75 53.4023C209.755 54.3187 208.657 55.7697 208.455 57.7553C209.121 56.9438 210.833 56.4357 213.589 56.2298Z" fill="#284191"/>
<path fill-rule="evenodd" clip-rule="evenodd" d="M217.21 50.6907C216.97 51.3594 217.284 52.234 216.337 52.4387C215.71 55.3231 213.434 51.4314 213.479 50.3545C213.883 50.6578 215.126 50.7703 217.21 50.6907Z" fill="#284191"/>
<path fill-rule="evenodd" clip-rule="evenodd" d="M221.12 68.7728L222.485 77.7302C222.485 77.7302 221.145 80.5931 219.438 83.2257L215.415 81.0921L212.697 82.7959C212.649 79.9849 213.54 77.27 213.54 77.27C213.54 77.27 214.905 72.1916 214.498 69.6511C214.085 67.1259 221.12 68.7728 221.12 68.7728Z" fill="#FFB27D"/>
<path fill-rule="evenodd" clip-rule="evenodd" d="M217.855 71.6943C216.979 72.1267 215.778 72.3781 214.254 72.449C214.284 72.9659 214.261 73.56 214.229 73.9277C215.762 73.6331 216.971 72.8875 217.855 71.6943Z" fill="#F08261"/>
<path fill-rule="evenodd" clip-rule="evenodd" d="M221.599 56.6455C222.374 57.3849 222.529 58.046 222.064 58.6274C220.546 58.9472 219.229 58.6869 218.115 57.8476C218.879 57.9739 220.039 57.5733 221.599 56.6455Z" fill="#284191"/>
<path fill-rule="evenodd" clip-rule="evenodd" d="M218.961 85.8419C221.599 82.9929 223.429 80.2073 224.454 77.4809C223.879 76.3926 222.973 75.3006 222.337 74.9922C219.269 78.195 217.317 79.9848 215.446 81.073C215.435 81.0794 215.425 81.0869 215.413 81.092C215.389 81.0073 215.365 80.9213 215.34 80.8355C214.846 79.1443 214.129 77.1852 213.818 75.235C212.937 75.8593 212.62 76.81 212.138 77.7642C211.355 79.8774 211.082 82.3878 211.319 85.296C211.899 84.4859 212.48 83.7666 213.058 83.1397C213.845 82.2878 214.63 81.6066 215.413 81.0921C216.106 81.6812 216.771 82.4168 217.409 83.299C217.945 84.042 218.463 84.8902 218.961 85.8419Z" fill="#61A0E0"/>
<path fill-rule="evenodd" clip-rule="evenodd" d="M143.785 74.8135L147.534 78.5093L152.002 123.111C152.002 123.111 155.301 132.937 156.497 138.57C154.951 138.58 150.851 139.711 149.529 140.482C147.703 134.917 145.35 124.16 145.35 124.16L143.785 74.8135Z" fill="#F57A44"/>
<path fill-rule="evenodd" clip-rule="evenodd" d="M134.925 134.214C135.394 133.744 155.496 137.983 155.496 137.983L150.989 106.017L146.943 86.7965L141.227 72.9563C141.227 72.9563 132.658 70.8671 132.047 71.2551L130.508 96.0573L134.925 134.214Z" fill="#F57A44"/>
<path fill-rule="evenodd" clip-rule="evenodd" d="M126.922 75.2289C126.922 75.2289 136.542 70.0785 142.798 76.3387C149.056 82.5951 149.56 100.27 149.56 100.27V120.704L150.459 129.802L127.022 127.016L130.178 95.8235L126.922 75.2289Z" fill="white"/>
<path fill-rule="evenodd" clip-rule="evenodd" d="M146.784 105.528L131.426 72.9336L121.541 76.3386L124.996 105.528L118.535 138.284C118.535 138.284 143.703 136.105 146.784 139.185V105.528Z" fill="#FC9774"/>
<path fill-rule="evenodd" clip-rule="evenodd" d="M146.784 124.845C139.961 122.709 133.238 120.526 131.734 119.779C130.346 119.089 127.143 115.36 124.05 110.317L124.996 105.528L123.838 95.749C128.048 101.539 136.753 108.07 139.425 110.861C140.451 111.931 143.32 113.26 146.783 114.584L146.784 124.845Z" fill="#F57A44"/>
<path fill-rule="evenodd" clip-rule="evenodd" d="M142.574 76.3389C142.574 76.3389 148.285 94.4421 148.285 99.9871C148.285 105.528 152.793 137.984 152.793 137.984H155.497L151.74 99.9871L147.1 82.6016L142.574 76.3389Z" fill="#F57A44"/>
<path fill-rule="evenodd" clip-rule="evenodd" d="M141.229 72.957L148.749 106.018L147.101 82.6021L145.588 81.0198L146.783 81.2877L143.785 74.8138L141.229 72.957Z" fill="#FC9774"/>
<path fill-rule="evenodd" clip-rule="evenodd" d="M162.961 117.249L167.41 118.095L165.927 125.177L160.773 123.935L162.961 117.249Z" fill="white"/>
<path fill-rule="evenodd" clip-rule="evenodd" d="M121.54 76.3389C121.54 76.3389 119.045 76.3389 118.534 86.0004C117.899 98.0533 129.72 114.994 132.875 116.499C136.03 118.001 162.991 125.762 162.991 125.762L164.994 117.068C164.994 117.068 143.479 111.429 140.302 108.252C137.127 105.077 128.566 92.4704 126.699 86.545C125.128 81.5627 121.54 76.3389 121.54 76.3389Z" fill="#FC9774"/>
<path fill-rule="evenodd" clip-rule="evenodd" d="M146.784 105.528L130.509 84.719L131.694 82.6574H129.722L126.787 74.533L127.553 74.4697L134.752 80.2915L146.784 105.528Z" fill="#F57A44"/>
<path fill-rule="evenodd" clip-rule="evenodd" d="M162.207 123.175C162.207 123.482 161.959 123.728 161.653 123.728C161.347 123.728 161.1 123.482 161.1 123.175C161.1 122.87 161.347 122.62 161.653 122.62C161.959 122.62 162.207 122.871 162.207 123.175Z" fill="#4689CC"/>
<path fill-rule="evenodd" clip-rule="evenodd" d="M159.848 122.534C159.848 122.839 159.6 123.088 159.295 123.088C158.989 123.088 158.74 122.838 158.74 122.534C158.74 122.229 158.989 121.98 159.295 121.98C159.6 121.98 159.848 122.229 159.848 122.534Z" fill="#4689CC"/>
<path fill-rule="evenodd" clip-rule="evenodd" d="M157.451 121.875C157.451 122.181 157.203 122.428 156.897 122.428C156.591 122.428 156.344 122.18 156.344 121.875C156.344 121.567 156.591 121.322 156.897 121.322C157.203 121.322 157.451 121.567 157.451 121.875Z" fill="#4689CC"/>
<path fill-rule="evenodd" clip-rule="evenodd" d="M132.611 73.6735C132.813 75.3723 133.981 76.8979 135.744 77.4528C137.518 78.0101 139.203 78.4387 140.131 78.6599C140.451 78.7395 141.787 77.9558 141.774 77.6273C141.727 76.4316 140.945 74.4397 141.189 72.2568C141.332 70.97 141.473 69.7997 141.548 69.0931C141.172 68.1502 138.32 60.9786 138.502 61.4362V61.4286L137.914 59.96C137.914 59.96 132.519 72.9115 132.611 73.6735Z" fill="#FFB27D"/>
<path fill-rule="evenodd" clip-rule="evenodd" d="M134.553 68.7721C135.053 69.2739 139.961 73.1946 141.015 73.8683C141.206 72.1165 141.547 69.0932 141.547 69.0932C141.547 69.0932 140.65 69.8655 138.512 61.377C138.512 61.377 138.507 61.3959 138.501 61.4288V61.4364C138.38 62.163 133.85 68.077 134.553 68.7721Z" fill="#F08261"/>
<path fill-rule="evenodd" clip-rule="evenodd" d="M143.697 70.2705C143.697 70.2705 134.265 71.6936 132.86 65.2715C131.455 58.8521 129.182 54.8404 135.681 53.0254C142.18 51.2128 143.996 53.383 144.986 55.4118C145.977 57.4402 146.334 69.4779 143.697 70.2705Z" fill="#FFB27D"/>
<path fill-rule="evenodd" clip-rule="evenodd" d="M146.783 105.528L132.659 84.0939L134.161 80.8885L131.005 81.0871L126.699 74.3957L132.048 71.2549L146.783 105.528Z" fill="#FC9774"/>
<path fill-rule="evenodd" clip-rule="evenodd" d="M130.068 52.9897C129.599 53.5154 129.166 53.6318 128.775 53.3372C128.532 52.3463 128.675 51.4754 129.202 50.7246C129.135 51.2291 129.424 51.9836 130.068 52.9897Z" fill="#284191"/>
<path fill-rule="evenodd" clip-rule="evenodd" d="M133.418 54.9801C132.266 54.5251 131.395 54.6781 130.805 55.4365C130.85 57.1617 131.746 60.6338 133.12 61.3935C133.359 61.2265 133.303 57.5738 133.418 54.9801Z" fill="#284191"/>
<path fill-rule="evenodd" clip-rule="evenodd" d="M131.496 58.1163C133.015 57.7915 132.872 60.9135 132.757 62.4604C132.531 65.504 129.102 58.6244 131.496 58.1163Z" fill="#FFB27D"/>
<path fill-rule="evenodd" clip-rule="evenodd" d="M128.927 54.1405C129.586 53.6311 129.8 53.0738 129.565 52.4709C128.55 51.9008 127.587 51.8832 126.672 52.4153C127.228 52.4482 127.979 53.0233 128.927 54.1405Z" fill="#284191"/>
<path fill-rule="evenodd" clip-rule="evenodd" d="M133.849 53.3115C131.902 54.257 131.26 55.1089 131.921 55.8672C134.859 56.3007 137.671 55.9834 140.358 54.9155C138.739 55.0684 136.57 54.5338 133.849 53.3115Z" fill="#284191"/>
<path fill-rule="evenodd" clip-rule="evenodd" d="M145.272 56.223C143.07 53.9986 138.911 53.7305 133.183 55.8236C129.558 54.9237 128.744 53.249 130.275 50.5238C132.438 46.6725 137.119 49.7175 142.856 46.0938C142.638 48.9099 151.174 51.3215 145.272 56.223Z" fill="#284191"/>
<path fill-rule="evenodd" clip-rule="evenodd" d="M186.175 0.40332L173.955 10.0966L179.169 13.858L186.175 0.40332Z" fill="#BBDBFA"/>
<path fill-rule="evenodd" clip-rule="evenodd" d="M171.336 8.37065L185.759 0.555664L166.998 7.49978L171.336 8.37065Z" fill="#BBDBFA"/>
<path fill-rule="evenodd" clip-rule="evenodd" d="M171.336 8.3713L173.542 14.6493L173.954 10.0966L186.173 0.40332L185.759 0.556322L171.336 8.3713Z" fill="#8BBAE9"/>
<path fill-rule="evenodd" clip-rule="evenodd" d="M173.543 14.6484L176.264 11.7615L173.955 10.0957L173.543 14.6484Z" fill="#61A0E0"/>
<path fill-rule="evenodd" clip-rule="evenodd" d="M171.458 13.2028C171.787 13.0145 171.493 12.5747 171.217 12.7314C171.056 12.8148 170.899 12.9008 170.742 12.9904C170.44 13.1635 170.702 13.6236 171.005 13.4492C171.154 13.3632 171.305 13.2824 171.458 13.2028ZM129.715 20.9051C129.472 20.6132 129.091 20.9797 129.294 21.2236L129.619 21.6482C129.853 21.9289 130.246 21.575 130.033 21.3197L129.715 20.9051ZM131.054 22.5041C130.794 22.2463 130.435 22.6356 130.669 22.8682C130.792 22.9997 130.916 23.1286 131.042 23.2549C131.287 23.4988 131.663 23.1272 131.415 22.8783C131.292 22.7569 131.171 22.6318 131.054 22.5041ZM132.566 23.9361C132.298 23.7136 131.96 24.1194 132.228 24.3431C132.365 24.4581 132.504 24.5719 132.646 24.6819C132.895 24.8891 133.255 24.5011 132.969 24.2635C132.833 24.1573 132.699 24.0473 132.566 23.9361ZM134.242 25.1723C133.909 24.9813 133.684 25.4605 133.955 25.6172C134.106 25.7145 134.259 25.808 134.412 25.9016C134.725 26.081 134.975 25.6134 134.683 25.4466C134.535 25.3581 134.386 25.267 134.242 25.1723ZM136.056 26.1897C135.712 26.043 135.531 26.5397 135.828 26.6675C135.99 26.7458 136.153 26.8203 136.316 26.8937C136.642 27.034 136.843 26.5437 136.529 26.4097C136.371 26.3376 136.213 26.2656 136.056 26.1897ZM137.984 26.9784C137.679 26.8645 137.468 27.3486 137.817 27.4801C137.986 27.537 138.156 27.5926 138.326 27.6457C138.696 27.7381 138.786 27.216 138.479 27.1389C138.313 27.0884 138.148 27.034 137.984 26.9784ZM139.992 27.5333C139.677 27.4549 139.521 27.9604 139.883 28.0501C140.058 28.0881 140.233 28.1235 140.408 28.1563C140.792 28.2043 140.812 27.6748 140.504 27.6356C140.333 27.604 140.163 27.5699 139.992 27.5333ZM142.053 27.8568C141.722 27.8163 141.639 28.3384 142 28.3839C142.178 28.4015 142.357 28.4168 142.536 28.4306C142.845 28.4697 142.955 27.9516 142.57 27.9035L142.053 27.8568ZM144.136 27.9566C143.794 27.9566 143.786 28.485 144.141 28.485C144.32 28.485 144.498 28.4811 144.676 28.4761C145.003 28.4761 145.029 27.9477 144.658 27.9477C144.485 27.9517 144.311 27.9566 144.136 27.9566ZM146.221 27.8404C145.867 27.8834 145.941 28.4066 146.28 28.3649C146.457 28.3459 146.634 28.3258 146.811 28.3004C147.148 28.2586 147.094 27.7329 146.739 27.7771C146.566 27.7999 146.394 27.8202 146.221 27.8404ZM148.282 27.5118C147.923 27.6015 148.076 28.1084 148.395 28.0288C148.569 27.9922 148.742 27.9517 148.917 27.9112C149.26 27.8252 149.125 27.3146 148.793 27.3968C148.623 27.4372 148.454 27.4764 148.282 27.5118ZM150.298 26.9745C149.948 27.106 150.162 27.5901 150.465 27.4764C150.634 27.4208 150.804 27.3652 150.972 27.3044C151.308 27.1793 151.111 26.6877 150.793 26.8064C150.629 26.8647 150.465 26.9203 150.298 26.9745ZM152.243 26.2237C151.94 26.3539 152.127 26.8481 152.466 26.7041C152.627 26.6295 152.789 26.5536 152.95 26.4753C153.1 26.3882 153.123 26.253 153.077 26.1441L153.163 26.1619C153.548 26.21 153.566 25.6804 153.259 25.6411C153.091 25.607 152.926 25.5704 152.759 25.5286C152.423 25.4439 152.291 25.9558 152.631 26.0417L152.243 26.2237ZM154.077 25.2444C153.8 25.4036 154.032 25.8789 154.36 25.6918C154.513 25.5957 154.665 25.4997 154.813 25.3974C155.105 25.1888 154.788 24.7653 154.512 24.9625C154.369 25.0598 154.224 25.1533 154.077 25.2444ZM155.739 24.012C155.489 24.2193 155.806 24.6441 156.092 24.4051C156.227 24.2863 156.359 24.1624 156.487 24.0347C156.737 23.7858 156.36 23.4154 156.116 23.6593C155.992 23.7794 155.868 23.897 155.739 24.012ZM157.107 22.4888C156.912 22.7618 157.333 23.0804 157.544 22.7871C157.648 22.6368 157.745 22.4801 157.838 22.322C158.011 22.0187 157.552 21.757 157.379 22.0592C157.294 22.2045 157.203 22.3499 157.107 22.4888ZM157.942 20.6688C157.863 20.9886 158.369 21.1389 158.459 20.7825C158.501 20.5979 158.531 20.4197 158.553 20.2328C158.596 19.8979 158.072 19.8194 158.027 20.176C158.007 20.3453 157.98 20.5045 157.942 20.6688ZM157.914 18.7072C157.992 19.0168 158.514 18.9232 158.421 18.5567C158.371 18.376 158.313 18.2015 158.242 18.0272C158.104 17.7062 157.618 17.916 157.755 18.2344C157.82 18.3862 157.87 18.5492 157.914 18.7072ZM156.992 16.9188C157.227 17.2006 157.612 16.8771 157.418 16.6054C157.31 16.4587 157.203 16.316 157.088 16.1744C156.862 15.9026 156.46 16.2464 156.678 16.5093C156.787 16.6432 156.89 16.7797 156.992 16.9188ZM155.602 15.4311C155.852 15.6384 156.212 15.2518 155.926 15.0128C155.78 14.8977 155.634 14.7941 155.48 14.6905C155.143 14.4983 154.923 14.9799 155.191 15.1329C155.332 15.2289 155.468 15.3248 155.602 15.4311ZM153.829 14.5148C154.176 14.6019 154.293 14.0863 153.965 14.0028C153.784 13.9548 153.599 13.9182 153.415 13.8903C153.061 13.8461 153.005 14.3718 153.343 14.4148C153.505 14.4377 153.673 14.4718 153.829 14.5148ZM151.856 14.4592C152.217 14.3695 152.061 13.8626 151.745 13.9422C151.566 13.9775 151.383 14.0243 151.207 14.0813C150.891 14.2 151.017 14.6728 151.371 14.5843C151.528 14.5337 151.695 14.4907 151.856 14.4592ZM150.014 15.2402C150.311 15.0291 149.988 14.6095 149.718 14.8028C149.564 14.9051 149.417 15.0126 149.272 15.1277C148.997 15.3564 149.344 15.7558 149.605 15.5385C149.734 15.4323 149.876 15.3337 150.014 15.2402ZM148.535 16.6205C148.742 16.3714 148.356 16.0113 148.117 16.2968C148.004 16.4421 147.898 16.5913 147.795 16.7443C147.603 17.0792 148.085 17.3029 148.239 17.0323C148.33 16.8921 148.431 16.7532 148.535 16.6205ZM147.557 18.3913C147.674 18.0765 147.185 17.8755 147.057 18.2143C146.995 18.3888 146.942 18.5656 146.896 18.7426C146.81 19.0839 147.324 19.2079 147.408 18.8741C147.45 18.7111 147.5 18.5492 147.557 18.3913ZM147.242 20.3668C147.242 20.0509 146.714 20.0104 146.714 20.3933C146.722 20.5779 146.739 20.7649 146.768 20.9483C146.808 21.2706 147.337 21.2326 147.29 20.8636C147.263 20.6992 147.25 20.5311 147.242 20.3668ZM147.761 22.2779C147.581 21.9619 147.131 22.2399 147.296 22.5295C147.382 22.6912 147.483 22.8568 147.588 23.0071C147.792 23.2928 148.221 22.9831 148.019 22.7013C147.927 22.5673 147.837 22.422 147.761 22.2779ZM149.051 23.7984C148.798 23.5886 148.441 23.9791 148.724 24.2143C148.868 24.3293 149.013 24.4366 149.166 24.5404C149.484 24.7225 149.734 24.2965 149.46 24.1005C149.318 24.0043 149.185 23.9045 149.051 23.7984ZM150.811 24.8361C150.483 24.6945 150.287 25.1862 150.598 25.3189C150.762 25.3923 150.926 25.463 151.093 25.5312C151.419 25.6538 151.611 25.1787 151.289 25.0396C151.129 24.9763 150.969 24.9068 150.811 24.8361ZM154.786 25.8042C154.956 25.8042 155.128 25.8028 155.297 25.7916C155.607 25.7524 155.717 26.2706 155.334 26.3186C155.152 26.3312 154.97 26.3338 154.788 26.3338C154.438 26.3338 154.44 25.8042 154.786 25.8042ZM156.806 25.5401C156.488 25.6209 156.594 26.1391 156.949 26.0507C157.119 26.0079 157.304 25.9446 157.471 25.8851C157.807 25.76 157.61 25.2684 157.293 25.3871C157.137 25.4415 156.965 25.5008 156.806 25.5401ZM158.687 24.7412C158.388 24.9118 158.645 25.3744 158.952 25.1987C159.108 25.1102 159.268 25.0141 159.416 24.9155C159.683 24.7627 159.464 24.2798 159.125 24.4733C158.983 24.5668 158.835 24.6565 158.687 24.7412ZM160.372 23.5456C160.107 23.7655 160.441 24.1751 160.713 23.9501C160.851 23.8338 160.985 23.7163 161.119 23.5975C161.368 23.3889 161.052 22.9643 160.765 23.2031C160.636 23.3194 160.504 23.4344 160.372 23.5456ZM161.886 22.1097C161.65 22.3449 162.011 22.7315 162.269 22.475L162.633 22.0857C162.878 21.7925 162.446 21.4841 162.244 21.728C162.125 21.8556 162.006 21.9833 161.886 22.1097ZM163.286 20.545C163.06 20.818 163.47 21.1504 163.69 20.8875L164.031 20.483C164.256 20.2138 163.849 19.8752 163.626 20.1431L163.286 20.545ZM164.637 18.922C164.416 19.1874 164.819 19.5287 165.044 19.2583L165.381 18.8501C165.602 18.5847 165.199 18.2435 164.974 18.5127L164.637 18.922ZM165.995 17.2928C165.766 17.5671 166.179 17.8982 166.397 17.6366L166.741 17.2384C166.973 16.9591 166.556 16.6356 166.342 16.8909L165.995 17.2928ZM167.421 15.7091C167.183 15.9468 167.547 16.3309 167.801 16.0758L168.168 15.7041C168.418 15.4538 168.04 15.0848 167.796 15.3274L167.421 15.7091ZM168.982 14.2405C168.714 14.4629 169.052 14.87 169.319 14.6463C169.451 14.5363 169.587 14.4225 169.722 14.3214C170.012 14.0813 169.648 13.6946 169.401 13.9019C169.258 14.0104 169.118 14.1243 168.982 14.2405Z" fill="#8BBAE9"/>
<path fill-rule="evenodd" clip-rule="evenodd" d="M66.5059 51.3955L79.1667 56.5851L75.6896 61.0266L66.5059 51.3955Z" fill="#BBDBFA"/>
<path fill-rule="evenodd" clip-rule="evenodd" d="M80.9525 54.493L66.8926 51.4229L84.3968 52.702L80.9525 54.493Z" fill="#BBDBFA"/>
<path fill-rule="evenodd" clip-rule="evenodd" d="M80.9526 54.4934L80.624 60.3226L79.1667 56.5851L66.5059 51.3955L66.8927 51.4232L80.9526 54.4934Z" fill="#8BBAE9"/>
<path fill-rule="evenodd" clip-rule="evenodd" d="M80.6237 60.3224L77.627 58.5529L79.1663 56.585L80.6237 60.3224Z" fill="#61A0E0"/>
<path fill-rule="evenodd" clip-rule="evenodd" d="M82.917 57.5206C82.62 57.484 82.5517 57.9454 82.8664 57.9859L83.3278 58.0389C83.6298 58.0769 83.6918 57.6142 83.3834 57.5764L82.917 57.5206ZM109.331 87.4304C109.609 87.2711 109.407 86.8895 109.129 87.0083C108.991 87.074 108.854 87.1373 108.714 87.1979C108.43 87.3205 108.614 87.749 108.896 87.6277L109.331 87.4304ZM107.55 88.1128C107.832 88.0421 107.74 87.5846 107.423 87.6628C107.275 87.7033 107.13 87.7425 106.982 87.7779C106.675 87.855 106.799 88.3049 107.089 88.2329C107.244 88.1963 107.396 88.1546 107.55 88.1128ZM105.667 88.4517C105.974 88.4138 105.951 87.9853 105.636 87.9853C105.486 87.994 105.335 88.0018 105.184 88.0043C104.879 88.0043 104.875 88.4707 105.186 88.4707C105.344 88.4616 105.506 88.4617 105.667 88.4517ZM103.748 88.3518C104.058 88.3897 104.136 87.9675 103.834 87.8918C103.685 87.8665 103.538 87.8323 103.392 87.797C103.092 87.7224 102.98 88.1749 103.278 88.2495C103.433 88.2886 103.591 88.3239 103.748 88.3518ZM101.918 87.7502C102.155 87.8854 102.422 87.5011 102.125 87.3318C101.988 87.2661 101.86 87.1927 101.728 87.1195C101.455 86.9628 101.231 87.3723 101.492 87.5214C101.63 87.6024 101.774 87.6806 101.918 87.7502ZM100.323 86.6695C100.577 86.8805 100.855 86.5052 100.636 86.3232C100.527 86.2271 100.407 86.1159 100.31 86.0109C100.085 85.7872 99.7628 86.1247 99.9738 86.3358C100.089 86.4508 100.203 86.562 100.323 86.6695ZM99.0638 85.2197C99.2358 85.4612 99.6123 85.2412 99.4506 84.958C99.3659 84.8317 99.285 84.7052 99.2067 84.5751C99.0601 84.3198 98.6467 84.5383 98.8059 84.8152C98.8881 84.953 98.9753 85.087 99.0638 85.2197ZM98.1714 83.5248C98.275 83.8028 98.7174 83.6525 98.6062 83.3542C98.5493 83.2126 98.4962 83.0698 98.4457 82.9257C98.3318 82.6235 97.901 82.8044 98.0045 83.0785C98.0577 83.229 98.112 83.377 98.1714 83.5248ZM97.604 81.7135C97.6786 82.0157 98.1311 81.8981 98.0578 81.6023L97.9517 81.1524C97.8734 80.8401 97.4233 80.9703 97.4953 81.2547L97.604 81.7135ZM97.2172 79.872C97.2513 80.1451 97.7189 80.1273 97.6761 79.7874L97.5926 79.3298C97.5585 79.0544 97.0909 79.0759 97.1326 79.412L97.2172 79.872ZM96.8873 78.033C96.9228 78.306 97.3904 78.287 97.3474 77.9496L97.2614 77.487C97.188 77.1937 96.7634 77.2594 96.8025 77.5767L96.8873 78.033ZM96.5106 76.2179C96.5865 76.5175 97.0389 76.4025 96.9644 76.1055C96.9278 75.9539 96.8899 75.7983 96.8469 75.6467C96.7761 75.3635 96.3186 75.4582 96.3969 75.7718C96.4399 75.9109 96.4765 76.0751 96.5106 76.2179ZM96.0467 74.5699C96.211 74.6925 96.4905 74.5344 96.3994 74.2919C96.3615 74.1933 96.3198 74.096 96.278 73.9986C96.2983 73.8836 96.2249 73.79 96.1302 73.7522C95.9721 73.6473 95.7029 73.79 95.7775 74.0201C95.742 74.1199 95.7042 74.2198 95.665 74.3171C95.569 74.5724 95.8875 74.7353 96.0467 74.5699ZM95.109 72.8799C95.3151 73.1276 95.6575 72.8433 95.4844 72.6019C95.3895 72.4717 95.2872 72.3429 95.181 72.2215C94.9939 71.9977 94.6237 72.2821 94.8297 72.5298C94.9281 72.6424 95.0217 72.7586 95.109 72.8799ZM93.8298 71.6489C94.1256 71.817 94.324 71.3936 94.0838 71.257C93.9474 71.166 93.8108 71.0852 93.6667 71.0056C93.4139 70.8603 93.1649 71.257 93.4469 71.4176C93.5784 71.4896 93.7047 71.5668 93.8298 71.6489ZM92.1981 70.9221C92.5051 70.9992 92.6062 70.5429 92.3168 70.471C92.1613 70.428 92.0071 70.3914 91.8492 70.3584C91.5775 70.2902 91.4322 70.7352 91.7582 70.816C91.9048 70.8464 92.0515 70.883 92.1981 70.9221ZM90.3994 70.6352C90.6737 70.6682 90.7686 70.2106 90.431 70.1688C90.2729 70.1574 90.1151 70.15 89.9557 70.1436C89.6308 70.1436 89.6523 70.61 89.9417 70.61C90.0949 70.6163 90.2466 70.6238 90.3994 70.6352ZM88.5819 70.6707C88.8815 70.6327 88.831 70.1676 88.5201 70.2081C88.3595 70.2283 88.2028 70.2523 88.0448 70.2827C87.7515 70.3559 87.816 70.7807 88.1333 70.7415C88.2824 70.7123 88.4316 70.6895 88.5819 70.6707ZM86.8491 71.1383C87.1208 71.022 86.9514 70.5859 86.6569 70.7123C86.5053 70.7819 86.3663 70.8551 86.2196 70.9347C85.9592 71.0839 86.183 71.4945 86.4559 71.338L86.2196 70.9347L86.4547 71.338C86.5849 71.2646 86.7152 71.1989 86.8491 71.1383ZM85.431 72.167C85.6345 71.923 85.2679 71.6336 85.0771 71.8624C84.9696 71.985 84.866 72.1215 84.7763 72.2579C84.6056 72.5562 85.0316 72.7495 85.1656 72.5132C85.2464 72.3946 85.3349 72.2759 85.431 72.167ZM84.6676 73.7155C84.7081 73.4032 84.2833 73.33 84.2101 73.6283C84.1772 73.7925 84.157 73.9544 84.1444 74.1212C84.1444 74.4321 84.5717 74.4587 84.6108 74.1491C84.6221 74.0023 84.6397 73.8607 84.6676 73.7155ZM84.7649 75.4483C84.6979 75.1829 84.2353 75.2562 84.3188 75.5886C84.3681 75.7466 84.4237 75.8983 84.4882 76.0499C84.6083 76.3292 85.0393 76.1497 84.9167 75.8628C84.8584 75.7263 84.809 75.5924 84.7649 75.4483ZM85.627 76.9789C85.4412 76.7552 85.0695 77.0384 85.2781 77.2886C85.3843 77.4099 85.4993 77.5313 85.6181 77.64C85.8608 77.8422 86.1515 77.5135 85.9365 77.2987C85.8279 77.1976 85.7242 77.0888 85.627 76.9789ZM87.0222 78.0799C86.7669 77.9332 86.5205 78.3313 86.801 78.4907C86.9426 78.5678 87.0879 78.6399 87.2359 78.7055C87.5253 78.8293 87.701 78.3971 87.4242 78.2784C87.2864 78.2163 87.1549 78.1506 87.0222 78.0799ZM88.7033 78.7092C88.4277 78.6397 88.2875 79.086 88.6085 79.1668C88.7677 79.2009 88.9244 79.2313 89.085 79.2553C89.3933 79.2932 89.4477 78.8293 89.1456 78.7927C88.9953 78.7662 88.8537 78.742 88.7033 78.7092ZM90.4881 78.8255C90.1708 78.8646 90.2429 79.326 90.5374 79.2906C90.6953 79.2754 90.866 79.2489 91.0215 79.2172C91.3438 79.1376 91.2022 78.6914 90.9266 78.7608C90.785 78.7875 90.632 78.8129 90.4881 78.8255ZM92.1994 78.3389C91.9226 78.4968 92.1223 78.8799 92.4028 78.7598C92.5483 78.6903 92.6936 78.6118 92.8325 78.5297C93.0903 78.3831 92.8692 77.9711 92.5923 78.1303C92.466 78.2037 92.3321 78.2769 92.1994 78.3389ZM93.6731 77.3227C93.4418 77.5528 93.7882 77.8674 93.9929 77.6627C94.1093 77.554 94.2267 77.4376 94.3367 77.3214C94.5503 77.0636 94.1711 76.7893 93.9917 77.0054C93.8918 77.1141 93.7806 77.2203 93.6731 77.3227ZM94.8308 75.9335C94.6614 76.2293 95.0861 76.4277 95.2227 76.1888C95.3099 76.0548 95.3933 75.9183 95.4743 75.7805C95.6285 75.5101 95.2203 75.2825 95.0698 75.5467C94.9926 75.6782 94.9143 75.8072 94.8308 75.9335ZM96.1871 72.5703C96.1189 72.8421 96.5638 72.9874 96.6446 72.6613C96.6776 72.5058 96.7053 72.3491 96.7318 72.1924C96.7723 71.8701 96.306 71.8321 96.2706 72.1215C96.2427 72.2707 96.2174 72.4198 96.1871 72.5703ZM96.4095 70.7565C96.4095 71.0827 96.8771 71.0612 96.8771 70.7718C96.8821 70.6126 96.886 70.4559 96.8872 70.2965C96.8872 69.9906 96.4196 69.9881 96.4196 70.2965C96.4184 70.4507 96.4159 70.6037 96.4095 70.7565ZM96.3388 68.9276C96.3767 69.2323 96.8393 69.1753 96.8015 68.8695C96.7825 68.7114 96.761 68.5535 96.7358 68.3967C96.7004 68.1174 96.234 68.1439 96.2758 68.4763C96.3034 68.6179 96.321 68.7823 96.3388 68.9276ZM95.9747 67.1366C96.0429 67.4109 96.5029 67.3261 96.4221 67.004C96.3791 66.8511 96.3311 66.7006 96.2805 66.5501C96.1656 66.2431 95.7372 66.4289 95.8381 66.6979C95.8863 66.8434 95.9317 66.9887 95.9747 67.1366ZM95.3251 65.4292C95.4958 65.7275 95.8801 65.4582 95.7447 65.2231C95.6752 65.079 95.6056 64.9374 95.5299 64.7983C95.3707 64.5177 94.9738 64.7642 95.1192 65.0195C95.1911 65.1547 95.2593 65.2913 95.3251 65.4292ZM94.4049 63.8504C94.5818 64.0994 94.9635 63.8289 94.7841 63.5786C94.6931 63.4484 94.5996 63.3208 94.5035 63.193C94.2937 62.9415 93.9499 63.2587 94.1345 63.48C94.2267 63.6014 94.3164 63.7252 94.4049 63.8504ZM93.2371 62.4398C93.4595 62.661 93.7843 62.3261 93.5708 62.1125C93.4608 61.9988 93.3484 61.8876 93.2334 61.7776C93.0273 61.5716 92.6836 61.8889 92.9122 62.1163C93.0221 62.2223 93.1309 62.3298 93.2371 62.4398ZM91.8669 61.2265C92.0792 61.4034 92.4065 61.0686 92.1462 60.8524C92.0211 60.7564 91.8921 60.6616 91.7632 60.5719C91.5194 60.3976 91.24 60.7716 91.4965 60.9549C91.6218 61.0431 91.7444 61.1329 91.8669 61.2265ZM90.3325 60.2179C90.5942 60.367 90.8331 59.9651 90.5601 59.8096C90.4224 59.7325 90.2833 59.6554 90.1431 59.582C89.899 59.4429 89.64 59.8311 89.9308 59.9979C90.0647 60.0674 90.201 60.1433 90.3325 60.2179ZM88.6793 59.4102C88.9548 59.5289 89.1469 59.103 88.8575 58.9792C88.7122 58.9186 88.5643 58.8579 88.4163 58.8022C88.1294 58.6935 87.9652 59.1309 88.2532 59.2395C88.3962 59.2926 88.5391 59.3521 88.6793 59.4102ZM86.9452 58.7909C87.2636 58.8705 87.3521 58.413 87.0741 58.3423L86.6217 58.2133C86.3121 58.135 86.2122 58.5912 86.5004 58.6633L86.9452 58.7909ZM85.1517 58.3409C85.4259 58.4091 85.5689 57.963 85.2452 57.8821C85.091 57.8505 84.9368 57.8214 84.7827 57.7922C84.4439 57.7506 84.4262 58.2182 84.698 58.2511C84.8495 58.2803 85.0012 58.3094 85.1517 58.3409Z" fill="#8BBAE9"/>
<path fill-rule="evenodd" clip-rule="evenodd" d="M307.305 101.435L319.967 106.626L316.49 111.066L307.305 101.435Z" fill="#BBDBFA"/>
<path fill-rule="evenodd" clip-rule="evenodd" d="M321.753 104.533L307.691 101.462L325.196 102.741L321.753 104.533Z" fill="#BBDBFA"/>
<path fill-rule="evenodd" clip-rule="evenodd" d="M321.753 104.534L321.424 110.363L319.967 106.626L307.305 101.435L307.691 101.462L321.753 104.534Z" fill="#8BBAE9"/>
<path fill-rule="evenodd" clip-rule="evenodd" d="M321.424 110.363L318.426 108.593L319.966 106.625L321.424 110.363Z" fill="#61A0E0"/>
<path fill-rule="evenodd" clip-rule="evenodd" d="M323.718 107.561C323.421 107.524 323.352 107.985 323.668 108.025L324.129 108.079C324.43 108.117 324.492 107.654 324.183 107.615L323.718 107.561ZM350.131 137.469C350.41 137.311 350.208 136.93 349.93 137.048C349.791 137.113 349.654 137.176 349.515 137.238C349.23 137.361 349.414 137.789 349.697 137.668L350.131 137.469ZM348.351 138.152C348.632 138.082 348.541 137.623 348.223 137.703C348.077 137.744 347.931 137.783 347.783 137.818C347.475 137.895 347.599 138.345 347.888 138.273C348.045 138.236 348.197 138.195 348.351 138.152ZM346.468 138.49C346.774 138.452 346.751 138.025 346.437 138.025C346.286 138.034 346.137 138.042 345.984 138.043C345.68 138.043 345.677 138.511 345.986 138.511C346.145 138.501 346.307 138.501 346.468 138.49ZM344.548 138.392C344.858 138.43 344.936 138.008 344.634 137.932C344.485 137.906 344.338 137.872 344.191 137.836C343.893 137.761 343.779 138.215 344.078 138.29C344.233 138.329 344.391 138.364 344.548 138.392ZM342.718 137.79C342.955 137.926 343.223 137.541 342.925 137.371C342.79 137.306 342.66 137.233 342.528 137.158C342.255 137.003 342.031 137.412 342.293 137.562C342.431 137.642 342.575 137.721 342.718 137.79ZM341.124 136.71C341.378 136.921 341.656 136.545 341.436 136.362C341.328 136.266 341.209 136.156 341.11 136.051C340.886 135.826 340.564 136.165 340.775 136.376C340.89 136.491 341.004 136.602 341.124 136.71ZM339.864 135.26C340.037 135.5 340.414 135.281 340.252 134.998C340.167 134.872 340.085 134.745 340.007 134.615C339.86 134.36 339.447 134.577 339.606 134.855C339.688 134.993 339.775 135.127 339.864 135.26ZM338.971 133.565C339.076 133.843 339.518 133.693 339.406 133.394C339.349 133.253 339.298 133.109 339.247 132.966C339.133 132.664 338.701 132.845 338.805 133.119C338.858 133.268 338.913 133.417 338.971 133.565ZM338.404 131.754C338.48 132.055 338.932 131.938 338.858 131.643L338.752 131.193C338.673 130.879 338.225 131.01 338.295 131.294L338.404 131.754ZM338.017 129.912C338.051 130.184 338.519 130.166 338.476 129.828L338.394 129.37C338.36 129.094 337.892 129.115 337.934 129.451L338.017 129.912ZM337.688 128.073C337.723 128.346 338.19 128.326 338.149 127.99L338.061 127.527C337.988 127.234 337.563 127.298 337.604 127.616L337.688 128.073ZM337.312 126.258C337.386 126.558 337.839 126.443 337.766 126.146C337.728 125.993 337.69 125.838 337.647 125.687C337.576 125.404 337.119 125.498 337.197 125.812C337.241 125.951 337.276 126.114 337.312 126.258ZM336.847 124.61C337.012 124.731 337.292 124.575 337.201 124.332C337.162 124.233 337.121 124.135 337.078 124.039C337.098 123.924 337.025 123.83 336.932 123.791C336.772 123.687 336.503 123.829 336.578 124.061C336.542 124.16 336.504 124.26 336.465 124.357C336.37 124.612 336.687 124.774 336.847 124.61ZM335.91 122.919C336.116 123.167 336.459 122.883 336.285 122.641C336.191 122.512 336.087 122.383 335.981 122.261C335.794 122.036 335.424 122.322 335.631 122.57C335.728 122.681 335.822 122.8 335.91 122.919ZM334.631 121.688C334.927 121.857 335.124 121.432 334.885 121.296C334.747 121.206 334.611 121.124 334.468 121.045C334.214 120.9 333.966 121.296 334.247 121.457C334.379 121.529 334.506 121.607 334.631 121.688ZM332.998 120.962C333.307 121.038 333.408 120.583 333.118 120.51C332.962 120.468 332.807 120.431 332.649 120.398C332.378 120.33 332.232 120.775 332.558 120.856C332.706 120.886 332.853 120.922 332.998 120.962ZM331.2 120.674C331.474 120.708 331.57 120.251 331.232 120.209C331.073 120.197 330.915 120.189 330.756 120.184C330.431 120.184 330.453 120.65 330.743 120.65C330.895 120.656 331.047 120.664 331.2 120.674ZM329.382 120.71C329.682 120.673 329.631 120.208 329.32 120.247C329.161 120.267 329.004 120.292 328.846 120.323C328.552 120.396 328.617 120.821 328.935 120.78C329.084 120.753 329.232 120.73 329.382 120.71ZM327.65 121.177C327.922 121.061 327.753 120.626 327.458 120.753C327.305 120.821 327.166 120.895 327.02 120.975C326.759 121.124 326.983 121.534 327.256 121.378C327.386 121.305 327.515 121.239 327.65 121.177ZM326.231 122.207C326.436 121.963 326.069 121.673 325.877 121.901C325.77 122.024 325.667 122.162 325.576 122.297C325.406 122.595 325.832 122.79 325.967 122.554C326.048 122.433 326.136 122.315 326.231 122.207ZM325.469 123.756C325.508 123.443 325.085 123.369 325.01 123.668C324.977 123.832 324.957 123.994 324.944 124.16C324.944 124.472 325.373 124.499 325.412 124.189C325.422 124.041 325.44 123.9 325.469 123.756ZM325.565 125.488C325.498 125.223 325.037 125.296 325.119 125.629C325.168 125.786 325.224 125.937 325.289 126.09C325.409 126.369 325.84 126.19 325.718 125.903C325.658 125.765 325.609 125.631 325.565 125.488ZM326.428 127.019C326.241 126.795 325.871 127.078 326.078 127.327C326.186 127.449 326.301 127.57 326.418 127.68C326.662 127.882 326.951 127.554 326.736 127.337C326.629 127.238 326.524 127.129 326.428 127.019ZM327.823 128.12C327.568 127.973 327.322 128.371 327.601 128.531C327.744 128.607 327.888 128.68 328.036 128.746C328.325 128.87 328.502 128.437 328.225 128.318C328.088 128.256 327.955 128.191 327.823 128.12ZM329.505 128.748C329.228 128.68 329.088 129.126 329.41 129.206C329.568 129.241 329.724 129.271 329.886 129.294C330.195 129.333 330.248 128.869 329.947 128.832C329.797 128.805 329.654 128.781 329.505 128.748ZM331.289 128.865C330.972 128.905 331.044 129.366 331.337 129.329C331.495 129.315 331.666 129.289 331.822 129.257C332.144 129.178 332.003 128.732 331.728 128.801C331.586 128.829 331.432 128.853 331.289 128.865ZM332.999 128.379C332.723 128.537 332.924 128.92 333.203 128.8C333.35 128.73 333.494 128.652 333.633 128.57C333.89 128.423 333.67 128.011 333.394 128.169C333.267 128.244 333.132 128.317 332.999 128.379ZM334.473 127.363C334.243 127.593 334.588 127.908 334.793 127.703C334.91 127.593 335.028 127.478 335.137 127.36C335.351 127.104 334.972 126.829 334.791 127.044C334.692 127.154 334.582 127.26 334.473 127.363ZM335.631 125.974C335.463 126.269 335.887 126.468 336.024 126.228C336.111 126.095 336.193 125.959 336.274 125.821C336.429 125.55 336.021 125.323 335.87 125.587C335.793 125.717 335.714 125.847 335.631 125.974ZM336.987 122.61C336.919 122.882 337.364 123.027 337.446 122.701C337.478 122.545 337.507 122.389 337.533 122.232C337.574 121.91 337.107 121.872 337.071 122.162C337.043 122.311 337.017 122.46 336.987 122.61ZM337.211 120.797C337.211 121.122 337.677 121.101 337.677 120.811C337.684 120.653 337.687 120.495 337.687 120.335C337.687 120.03 337.22 120.028 337.22 120.338C337.22 120.491 337.216 120.644 337.211 120.797ZM337.139 118.968C337.177 119.272 337.641 119.216 337.603 118.91C337.584 118.752 337.561 118.594 337.536 118.437C337.5 118.157 337.034 118.184 337.075 118.515C337.103 118.658 337.121 118.822 337.139 118.968ZM336.775 117.175C336.844 117.451 337.304 117.366 337.223 117.044C337.179 116.891 337.131 116.741 337.082 116.59C336.967 116.282 336.538 116.469 336.64 116.738C336.686 116.884 336.733 117.029 336.775 117.175ZM336.126 115.469C336.297 115.767 336.68 115.498 336.545 115.262C336.476 115.119 336.406 114.978 336.331 114.837C336.172 114.558 335.774 114.804 335.92 115.06C335.991 115.195 336.059 115.331 336.126 115.469ZM335.205 113.889C335.382 114.139 335.764 113.869 335.584 113.619C335.493 113.488 335.4 113.36 335.303 113.233C335.094 112.982 334.75 113.299 334.934 113.52C335.028 113.641 335.116 113.765 335.205 113.889ZM334.038 112.479C334.259 112.701 334.586 112.366 334.372 112.153C334.262 112.039 334.148 111.928 334.033 111.818C333.827 111.612 333.483 111.928 333.713 112.157C333.822 112.263 333.932 112.37 334.038 112.479ZM332.667 111.265C332.88 111.444 333.207 111.109 332.948 110.892C332.821 110.796 332.693 110.702 332.563 110.611C332.319 110.436 332.04 110.81 332.298 110.995C332.422 111.083 332.546 111.174 332.667 111.265ZM331.134 110.258C331.396 110.407 331.633 110.005 331.36 109.85C331.223 109.771 331.083 109.696 330.943 109.622C330.699 109.482 330.44 109.871 330.731 110.038C330.866 110.108 331.001 110.183 331.134 110.258ZM329.479 109.45C329.756 109.569 329.948 109.143 329.659 109.019C329.512 108.957 329.365 108.899 329.218 108.841C328.93 108.734 328.765 109.171 329.055 109.28C329.196 109.333 329.34 109.391 329.479 109.45ZM327.745 108.831C328.065 108.911 328.152 108.452 327.875 108.382L327.422 108.252C327.113 108.175 327.013 108.631 327.3 108.703L327.745 108.831ZM325.953 108.38C326.227 108.449 326.369 108.003 326.046 107.922C325.892 107.891 325.738 107.862 325.583 107.832C325.244 107.79 325.226 108.257 325.498 108.291C325.65 108.32 325.801 108.348 325.953 108.38Z" fill="#8BBAE9"/>
</svg>
