<svg width="10399" height="2020" viewBox="0 0 10399 2020" fill="none" xmlns="http://www.w3.org/2000/svg">
<g clip-path="url(#clip0_2527_397)">
<path d="M1819.08 225.943C1724.15 327.292 1629.31 428.886 1534.62 530.56C1530.23 535.274 1525.92 539.988 1521.54 544.621C1308.11 773.734 1094.68 1002.85 881.823 1232.37C877.759 1236.76 873.614 1240.9 869.469 1244.8C850.288 1262.52 829.319 1275.69 804.449 1282.19C795.915 1284.46 787.056 1285.85 777.547 1286.41C732.846 1282.68 697.736 1262.84 672.703 1224.08C594.435 1103.14 515.518 982.61 437.007 861.836C400.839 806.163 365.647 749.758 328.505 694.735C310.137 667.671 314.038 645.727 337.201 625.489C339.558 623.457 341.753 621.751 344.028 620.288C344.841 619.719 345.573 619.231 346.385 618.743C347.279 618.256 348.173 617.687 349.067 617.28C349.799 616.874 350.368 616.549 351.018 616.305C351.749 615.98 352.237 615.736 352.806 615.492H352.887C352.887 615.492 353.212 615.249 353.375 615.167C354.269 614.842 355.082 614.598 355.976 614.192C356.788 613.948 357.601 613.704 358.495 613.379C359.064 613.217 359.714 613.135 360.283 612.973C361.015 612.892 361.502 612.81 362.234 612.729C362.396 612.648 362.64 612.648 362.965 612.648C362.965 612.566 363.047 612.566 363.128 612.566H363.534C363.534 612.566 363.859 612.485 364.022 612.485C364.51 612.485 364.997 612.404 365.404 612.404C365.729 612.323 366.135 612.323 366.46 612.323C367.679 612.241 368.898 612.323 370.036 612.404C370.361 612.404 370.768 612.485 371.012 612.485C371.418 612.485 371.987 612.566 372.393 612.648C372.637 612.648 372.8 612.648 373.125 612.729C373.287 612.729 373.45 612.729 373.694 612.81C374.019 612.81 374.425 612.892 374.75 612.973C374.994 613.054 375.238 613.054 375.644 613.135C375.888 613.135 376.213 613.217 376.538 613.379C377.27 613.461 377.92 613.623 378.651 613.867C379.22 614.029 379.789 614.192 380.358 614.354C380.927 614.517 381.496 614.761 382.065 614.923C382.309 615.086 382.634 615.167 382.959 615.33C383.284 615.411 383.69 615.574 384.097 615.655C385.56 616.386 387.104 617.118 388.648 617.931C389.054 618.174 389.623 618.418 390.03 618.825C390.924 619.231 391.655 619.8 392.549 620.288C393.037 620.531 393.606 620.856 394.094 621.344C394.419 621.507 394.581 621.669 394.988 621.832C396.532 622.97 398.239 624.107 399.783 625.408C401.489 626.79 403.196 628.171 404.822 629.634C406.447 631.097 408.154 632.641 409.78 634.267C487.153 709.365 564.364 784.625 641.494 859.966C649.377 867.606 657.261 875.409 665.144 883.13C693.103 910.357 720.98 937.746 748.451 965.624C749.182 966.436 749.914 967.168 750.727 967.899C751.296 968.468 752.027 969.118 752.677 969.687C752.84 969.85 753.002 969.931 753.165 970.094C753.653 970.581 754.303 971.15 754.872 971.638C756.416 972.938 757.879 974.157 759.504 975.214C760.236 975.702 760.886 976.271 761.617 976.677H761.699C762.43 977.164 763.08 977.652 763.812 978.059C764.543 978.465 765.194 978.871 765.925 979.278C767.388 980.009 768.77 980.659 770.151 981.228C771.614 981.797 772.996 982.285 774.296 982.691C777.872 983.585 781.448 983.91 784.943 983.748C785.025 983.748 785.106 983.748 785.187 983.667C785.512 983.667 785.919 983.667 786.244 983.585C786.975 983.585 787.625 983.504 788.357 983.341C789.17 983.26 789.901 983.098 790.795 982.935C791.689 982.691 792.502 982.447 793.477 982.122C793.64 982.122 793.802 982.041 793.965 981.96C794.696 981.797 795.346 981.553 796.078 981.147C797.866 980.416 799.735 979.684 801.686 978.709C802.58 978.221 803.474 977.652 804.449 977.165C809.163 974.401 813.958 970.744 819.079 966.274C835.902 951.563 852.564 936.852 869.469 922.142C1090.7 728.22 1312.9 535.112 1534.62 341.759C1543.48 334.12 1552.26 326.48 1561.12 318.677C1624.35 263.573 1687.01 207.494 1750.65 152.796C1751.54 152.064 1752.36 151.333 1753.25 150.601C1756.83 147.757 1760.4 145.319 1763.98 143.205C1766.58 141.661 1769.26 140.361 1771.86 139.223C1773.65 138.41 1775.44 137.841 1777.14 137.191C1778.04 136.947 1778.85 136.703 1779.74 136.378C1781.45 135.972 1783.16 135.566 1784.87 135.322C1799.33 132.965 1812.66 137.272 1823.15 147.838C1823.88 148.651 1824.53 149.301 1825.26 150.114C1827.37 152.471 1829.24 155.153 1831.11 157.997C1847.12 183.68 1838.18 205.137 1819.08 225.455V225.943Z" fill="#2769B2"/>
<path d="M269.832 734.641C293.645 770.077 317.296 806.895 340.134 842.655C352.326 861.592 364.923 881.261 377.439 900.604C405.642 943.924 433.844 987.162 462.046 1030.48C511.624 1106.55 562.908 1185.23 613.055 1262.68C649.384 1318.92 704.164 1351.6 771.54 1357.29L776.823 1357.69L782.025 1357.37C789.502 1356.88 796.979 1356.07 804.375 1354.77V1709.45H105.901C47.3831 1709.45 0 1661.99 0 1603.55V121.993C0 63.4754 47.4644 16.0923 105.901 16.0923H804.456V885.081C798.036 890.77 791.615 896.378 785.113 902.067C754.635 871.427 723.507 841.111 693.273 811.771L690.997 809.495C682.463 801.124 673.848 792.753 665.152 784.219C599.726 720.418 530.154 652.635 459.12 583.796C448.392 573.393 415.72 541.533 367.686 541.533C350.294 541.533 324.855 545.922 298.684 565.671C296.002 567.703 293.239 569.898 290.476 572.255C239.76 616.631 231.795 678.968 269.751 734.723L269.832 734.641Z" fill="#3DA684"/>
<path d="M641.584 860.212C649.468 867.851 657.352 875.654 665.235 883.375V885C658.815 890.69 652.394 896.298 645.892 901.987C615.414 871.346 584.286 841.031 554.052 811.691L551.776 809.415C488.869 747.971 421.655 682.545 352.734 615.575H352.816C352.816 615.575 353.141 615.331 353.303 615.25C354.197 614.925 355.01 614.681 355.904 614.275C356.717 614.031 357.53 613.787 358.424 613.462C358.992 613.299 359.643 613.218 360.212 613.055C360.943 612.974 361.431 612.893 362.162 612.812C362.325 612.73 362.569 612.73 362.894 612.73C362.894 612.649 362.975 612.649 363.056 612.649H363.463C363.463 612.649 363.788 612.568 363.95 612.568C364.438 612.568 364.926 612.487 365.332 612.487C365.657 612.405 366.063 612.405 366.389 612.405C367.608 612.324 368.827 612.405 369.965 612.487C370.29 612.487 370.696 612.568 370.94 612.568C371.346 612.568 371.915 612.649 372.322 612.73C372.565 612.73 372.728 612.73 373.053 612.812C373.216 612.812 373.378 612.812 373.622 612.893C373.947 612.893 374.353 612.974 374.679 613.055C374.922 613.137 375.166 613.137 375.573 613.218C375.816 613.218 376.141 613.299 376.467 613.462C377.198 613.543 377.848 613.706 378.58 613.949C379.149 614.112 379.718 614.275 380.286 614.437C380.855 614.6 381.424 614.843 381.993 615.006C382.237 615.169 382.562 615.25 382.887 615.412C383.212 615.494 383.619 615.656 384.025 615.738C385.488 616.469 387.032 617.2 388.576 618.013C388.983 618.257 389.552 618.501 389.958 618.907C390.852 619.314 391.584 619.883 392.478 620.37C392.965 620.614 393.534 620.939 394.022 621.427C394.347 621.589 394.51 621.752 394.916 621.914C396.46 623.052 398.167 624.19 399.711 625.49C401.418 626.872 403.125 628.254 404.75 629.717C406.376 631.18 408.082 632.724 409.708 634.349C487.081 709.447 564.292 784.707 641.422 860.049L641.584 860.212Z" fill="#2769B2"/>
<path d="M1534.63 121.993V247.969C1527.88 253.821 1521.14 259.754 1514.47 265.605L1506.1 272.92C1500.09 278.122 1494.16 283.323 1488.22 288.525C1430.35 338.996 1372.57 389.305 1314.86 439.614C1168.73 566.809 1018.21 697.987 869.479 828.188V16.0923H1428.81C1487.25 16.0923 1534.71 63.4754 1534.71 121.993H1534.63Z" fill="#3DA684"/>
<path d="M1534.63 634.593V1603.55C1534.63 1661.99 1487.17 1709.45 1428.73 1709.45H869.4V1332.17C886.143 1322.99 902.154 1311.2 917.678 1296.82C923.123 1291.78 928.406 1286.5 933.851 1280.65C1111.84 1088.67 1293.33 893.859 1468.72 705.383L1534.63 634.674V634.593Z" fill="#3DA684"/>
<path d="M1819.08 225.943C1724.15 327.292 1629.31 428.886 1534.62 530.56C1530.23 535.274 1525.92 539.988 1521.54 544.621C1308.11 773.734 1094.68 1002.85 881.823 1232.37C877.759 1236.76 873.614 1240.9 869.469 1244.8C850.288 1262.52 829.319 1275.69 804.449 1282.19C795.915 1284.46 787.056 1285.85 777.547 1286.41C732.846 1282.68 697.736 1262.84 672.703 1224.08C594.435 1103.14 515.518 982.61 437.007 861.836C400.839 806.163 365.647 749.758 328.505 694.735C310.137 667.671 314.038 645.727 337.201 625.489C339.558 623.457 341.753 621.751 344.028 620.288C344.841 619.719 345.573 619.231 346.385 618.743C347.279 618.256 348.173 617.687 349.067 617.28C349.799 616.874 350.368 616.549 351.018 616.305C351.749 615.98 352.237 615.736 352.806 615.492H352.887C352.887 615.492 353.212 615.249 353.375 615.167C354.269 614.842 355.082 614.598 355.976 614.192C356.788 613.948 357.601 613.704 358.495 613.379C359.064 613.217 359.714 613.135 360.283 612.973C361.015 612.892 361.502 612.81 362.234 612.729C362.396 612.648 362.64 612.648 362.965 612.648C362.965 612.566 363.047 612.566 363.128 612.566H363.534C363.534 612.566 363.859 612.485 364.022 612.485C364.51 612.485 364.997 612.404 365.404 612.404C365.729 612.323 366.135 612.323 366.46 612.323C367.679 612.241 368.898 612.323 370.036 612.404C370.361 612.404 370.768 612.485 371.012 612.485C371.418 612.485 371.987 612.566 372.393 612.648C372.637 612.648 372.8 612.648 373.125 612.729C373.287 612.729 373.45 612.729 373.694 612.81C374.019 612.81 374.425 612.892 374.75 612.973C374.994 613.054 375.238 613.054 375.644 613.135C375.888 613.135 376.213 613.217 376.538 613.379C377.27 613.461 377.92 613.623 378.651 613.867C379.22 614.029 379.789 614.192 380.358 614.354C380.927 614.517 381.496 614.761 382.065 614.923C382.309 615.086 382.634 615.167 382.959 615.33C383.284 615.411 383.69 615.574 384.097 615.655C385.56 616.386 387.104 617.118 388.648 617.931C389.054 618.174 389.623 618.418 390.03 618.825C390.924 619.231 391.655 619.8 392.549 620.288C393.037 620.531 393.606 620.856 394.094 621.344C394.419 621.507 394.581 621.669 394.988 621.832C396.532 622.97 398.239 624.107 399.783 625.408C401.489 626.79 403.196 628.171 404.822 629.634C406.447 631.097 408.154 632.641 409.78 634.267C487.153 709.365 564.364 784.625 641.494 859.966C649.377 867.606 657.261 875.409 665.144 883.13C693.103 910.357 720.98 937.746 748.451 965.624C749.182 966.436 749.914 967.168 750.727 967.899C751.296 968.468 752.027 969.118 752.677 969.687C752.84 969.85 753.002 969.931 753.165 970.094C753.653 970.581 754.303 971.15 754.872 971.638C756.416 972.938 757.879 974.157 759.504 975.214C760.236 975.702 760.886 976.271 761.617 976.677H761.699C762.43 977.164 763.08 977.652 763.812 978.059C764.543 978.465 765.194 978.871 765.925 979.278C767.388 980.009 768.77 980.659 770.151 981.228C771.614 981.797 772.996 982.285 774.296 982.691C777.872 983.585 781.448 983.91 784.943 983.748C785.025 983.748 785.106 983.748 785.187 983.667C785.512 983.667 785.919 983.667 786.244 983.585C786.975 983.585 787.625 983.504 788.357 983.341C789.17 983.26 789.901 983.098 790.795 982.935C791.689 982.691 792.502 982.447 793.477 982.122C793.64 982.122 793.802 982.041 793.965 981.96C794.696 981.797 795.346 981.553 796.078 981.147C797.866 980.416 799.735 979.684 801.686 978.709C802.58 978.221 803.474 977.652 804.449 977.165C809.163 974.401 813.958 970.744 819.079 966.274C835.902 951.563 852.564 936.852 869.469 922.142C1090.7 728.22 1312.9 535.112 1534.62 341.759C1543.48 334.12 1552.26 326.48 1561.12 318.677C1624.35 263.573 1687.01 207.494 1750.65 152.796C1751.54 152.064 1752.36 151.333 1753.25 150.601C1756.83 147.757 1760.4 145.319 1763.98 143.205C1766.58 141.661 1769.26 140.361 1771.86 139.223C1773.65 138.41 1775.44 137.841 1777.14 137.191C1778.04 136.947 1778.85 136.703 1779.74 136.378C1781.45 135.972 1783.16 135.566 1784.87 135.322C1799.33 132.965 1812.66 137.272 1823.15 147.838C1823.88 148.651 1824.53 149.301 1825.26 150.114C1827.37 152.471 1829.24 155.153 1831.11 157.997C1847.12 183.68 1838.18 205.137 1819.08 225.455V225.943Z" fill="white"/>
<path d="M3070.07 1758.62V1858.18C3070.07 1887.6 3051.79 1907.03 3023.42 1907.03C2995.06 1907.03 2977.91 1887.6 2977.91 1858.18V1758.62H2939.87V1863.38C2939.87 1907.76 2970.51 1937.59 3011.88 1937.59C3037.56 1937.59 3058.13 1926.37 3070.07 1907.03V1941.33C3070.07 1970.75 3052.11 1989.44 3024.56 1989.44C2999.2 1989.44 2982.05 1972.62 2979.78 1946.53L2944.34 1946.12C2948.08 1990.17 2980.18 2020 3026.02 2020C3075.27 2020 3108.43 1987.57 3108.43 1939.05V1758.62H3070.07Z" fill="white"/>
<path d="M3236.69 1755.21C3180.05 1755.21 3138.68 1795.11 3138.68 1850.3C3138.68 1905.48 3180.05 1945.39 3236.69 1945.39C3293.34 1945.39 3334.39 1905.48 3334.39 1850.3C3334.39 1795.11 3293.42 1755.21 3236.69 1755.21ZM3236.37 1912.23C3202.4 1912.23 3177.77 1886.47 3177.77 1850.3C3177.77 1814.13 3202.4 1788.45 3236.37 1788.45C3270.34 1788.45 3295.29 1814.54 3295.29 1850.3C3295.29 1886.06 3270.67 1912.23 3236.37 1912.23Z" fill="white"/>
<path d="M3492.54 1758.62V1866.31C3492.54 1895.08 3474.25 1913.69 3446.62 1913.69C3418.99 1913.69 3401.19 1895.08 3401.19 1866.31V1758.62H3363.15V1866.31C3363.15 1913.37 3397.04 1945.39 3447.03 1945.39C3497.01 1945.39 3530.58 1913.37 3530.58 1866.31V1758.62H3492.54Z" fill="white"/>
<path d="M3562.19 1829.41V1942.06H3600.64V1832.82C3600.64 1805.19 3617.38 1790.64 3645.74 1790.64V1758.62C3592.83 1758.62 3562.19 1784.71 3562.19 1829.41Z" fill="white"/>
<path d="M3819.51 1758.62V1711.24H3781.06V1758.62H3747.17V1790.64H3781.06V1942.06H3819.51V1790.64H3860.88V1758.62H3819.51Z" fill="white"/>
<path d="M3882.5 1829.41V1942.06H3920.94V1832.82C3920.94 1805.19 3937.68 1790.64 3966.05 1790.64V1758.62C3913.14 1758.62 3882.5 1784.71 3882.5 1829.41Z" fill="white"/>
<path d="M4114.45 1758.62V1866.31C4114.45 1895.08 4096.16 1913.69 4068.61 1913.69C4041.06 1913.69 4023.1 1895.08 4023.1 1866.31V1758.62H3985.06V1866.31C3985.06 1913.37 4018.95 1945.39 4068.94 1945.39C4118.92 1945.39 4152.49 1913.37 4152.49 1866.31V1758.62H4114.45Z" fill="white"/>
<path d="M4263.99 1832.82C4242.7 1828.68 4225.96 1825.67 4225.96 1806.65C4225.96 1792.92 4240.1 1783.17 4259.52 1783.17C4280.74 1783.17 4295.28 1794.38 4296.02 1810.8H4331.86C4331.86 1777.96 4302.03 1755.21 4260.25 1755.21C4218.48 1755.21 4188.25 1777.23 4188.25 1810.39C4188.25 1853.71 4231.89 1861.92 4259.52 1865.98C4280.41 1869.72 4298.62 1872.73 4298.62 1891.67C4298.62 1907.03 4283.34 1917.02 4262.12 1917.02C4239.37 1917.02 4222.95 1905.48 4222.22 1888.01H4184.91C4185.32 1921.9 4216.61 1945.39 4260.99 1945.39C4305.36 1945.39 4336.33 1922.63 4336.33 1889.47C4336.33 1845.5 4290.08 1837.62 4263.99 1832.82Z" fill="white"/>
<path d="M4425.08 1758.62V1711.24H4386.64V1758.62H4352.67V1790.64H4386.64V1942.06H4425.08V1790.64H4466.45V1758.62H4425.08Z" fill="white"/>
<path d="M4672.24 1850.7C4671.92 1795.11 4631.28 1755.21 4574.55 1755.21C4517.82 1755.21 4476.53 1795.11 4476.53 1850.3C4476.53 1905.48 4517.9 1945.39 4574.55 1945.39C4619.66 1945.39 4658.83 1916.29 4669.32 1875.66H4630.55C4623.4 1897.68 4601.05 1914.1 4574.96 1914.1C4543.26 1914.1 4519.36 1892.8 4514.57 1862.25H4671.19C4671.92 1858.51 4672.24 1854.44 4672.24 1850.7ZM4515.63 1832.82C4522.37 1805.6 4545.13 1786.58 4574.96 1786.58C4604.78 1786.58 4629 1805.6 4635.34 1832.82H4515.63Z" fill="white"/>
<path d="M4848.27 1684.01V1783.98C4833.73 1766.42 4810.97 1755.21 4784.15 1755.21C4730.02 1755.21 4691.66 1795.11 4691.66 1849.16C4691.66 1903.21 4732.29 1945.39 4788.94 1945.39C4845.59 1945.39 4886.31 1905.48 4886.31 1850.3V1684.01H4848.27ZM4789.35 1912.23C4755.38 1912.23 4730.83 1886.47 4730.83 1850.3C4730.83 1814.13 4755.38 1788.45 4789.35 1788.45C4823.32 1788.45 4848.27 1814.54 4848.27 1850.3C4848.27 1886.06 4823.65 1912.23 4789.35 1912.23Z" fill="white"/>
<path d="M5113.39 1755.21C5086.49 1755.21 5063.82 1766.42 5049.27 1783.98V1684.01H5011.23V1850.3C5011.23 1905.48 5051.87 1945.39 5108.52 1945.39C5165.17 1945.39 5205.89 1905.48 5205.89 1849.16C5205.89 1792.84 5167.44 1755.21 5113.39 1755.21ZM5108.19 1912.23C5073.81 1912.23 5049.27 1886.47 5049.27 1850.3C5049.27 1814.13 5073.81 1788.45 5108.19 1788.45C5142.57 1788.45 5166.71 1814.54 5166.71 1850.3C5166.71 1886.06 5142.08 1912.23 5108.19 1912.23Z" fill="white"/>
<path d="M5323.66 1755.21C5267.01 1755.21 5225.64 1795.11 5225.64 1850.3C5225.64 1905.48 5267.01 1945.39 5323.66 1945.39C5380.31 1945.39 5421.35 1905.48 5421.35 1850.3C5421.35 1795.11 5380.39 1755.21 5323.66 1755.21ZM5323.33 1912.23C5289.36 1912.23 5264.73 1886.47 5264.73 1850.3C5264.73 1814.13 5289.36 1788.45 5323.33 1788.45C5357.31 1788.45 5382.26 1814.54 5382.26 1850.3C5382.26 1886.06 5357.63 1912.23 5323.33 1912.23Z" fill="white"/>
<path d="M5539.2 1755.21C5482.55 1755.21 5441.1 1795.11 5441.1 1850.3C5441.1 1905.48 5482.55 1945.39 5539.2 1945.39C5595.85 1945.39 5636.89 1905.48 5636.89 1850.3C5636.89 1795.11 5595.85 1755.21 5539.2 1755.21ZM5538.79 1912.23C5504.9 1912.23 5480.27 1886.47 5480.27 1850.3C5480.27 1814.13 5504.9 1788.45 5538.79 1788.45C5572.68 1788.45 5597.72 1814.54 5597.72 1850.3C5597.72 1886.06 5573.17 1912.23 5538.79 1912.23Z" fill="white"/>
<path d="M5828.53 1758.62H5783.42L5705.48 1840.63V1684.01H5667.45V1942.06H5705.48V1852.9L5783.42 1942.06H5828.53L5743.92 1846.23L5828.53 1758.62Z" fill="white"/>
<path d="M6014.98 1758.62H5969.87L5891.93 1840.63V1684.01H5853.89V1942.06H5891.93V1852.9L5969.87 1942.06H6014.98L5930.37 1846.23L6014.98 1758.62Z" fill="white"/>
<path d="M6215.97 1850.7C6215.57 1795.11 6174.93 1755.21 6118.28 1755.21C6061.63 1755.21 6020.18 1795.11 6020.18 1850.3C6020.18 1905.48 6061.63 1945.39 6118.28 1945.39C6163.39 1945.39 6202.56 1916.29 6212.96 1875.66H6174.2C6167.13 1897.68 6144.78 1914.1 6118.69 1914.1C6086.99 1914.1 6063.09 1892.8 6058.22 1862.25H6214.83C6215.57 1858.51 6215.97 1854.44 6215.97 1850.7ZM6059.36 1832.82C6066.1 1805.6 6088.86 1786.58 6118.69 1786.58C6148.51 1786.58 6172.73 1805.6 6179.07 1832.82H6059.36Z" fill="white"/>
<path d="M6431.11 1850.7C6430.78 1795.11 6390.15 1755.21 6333.42 1755.21C6276.69 1755.21 6235.4 1795.11 6235.4 1850.3C6235.4 1905.48 6276.77 1945.39 6333.42 1945.39C6378.52 1945.39 6417.7 1916.29 6428.18 1875.66H6389.41C6382.26 1897.68 6359.91 1914.1 6333.82 1914.1C6302.13 1914.1 6278.23 1892.8 6273.44 1862.25H6430.05C6430.78 1858.51 6431.11 1854.44 6431.11 1850.7ZM6274.49 1832.82C6281.24 1805.6 6304 1786.58 6333.82 1786.58C6363.65 1786.58 6387.87 1805.6 6394.21 1832.82H6274.49Z" fill="white"/>
<path d="M6551.96 1755.21C6495.23 1755.21 6454.6 1795.11 6454.6 1850.3V2016.59H6492.63V1916.7C6507.18 1934.26 6529.94 1945.39 6556.76 1945.39C6610.89 1945.39 6649.25 1905.48 6649.25 1851.44C6649.25 1797.39 6608.61 1755.21 6551.96 1755.21ZM6551.56 1912.23C6517.26 1912.23 6492.63 1886.14 6492.63 1850.3C6492.63 1814.46 6517.26 1788.45 6551.56 1788.45C6585.85 1788.45 6610.07 1814.13 6610.07 1850.3C6610.07 1886.47 6585.53 1912.23 6551.56 1912.23Z" fill="white"/>
<path d="M6698.82 1686.61C6684.27 1686.61 6674.6 1695.55 6674.6 1708.96C6674.6 1722.37 6684.27 1731.39 6698.82 1731.39C6713.37 1731.39 6723.04 1722.05 6723.04 1708.96C6723.04 1695.88 6713.04 1686.61 6698.82 1686.61ZM6679.8 1758.62V1942.06H6717.84V1758.62H6679.8Z" fill="white"/>
<path d="M6840.16 1755.21C6790.59 1755.21 6756.61 1787.31 6756.61 1834.69V1942.06H6795.06V1834.69C6795.06 1805.92 6812.94 1786.9 6840.57 1786.9C6868.2 1786.9 6886 1805.92 6886 1834.69V1942.06H6924.45V1834.69C6924.45 1787.31 6890.15 1755.21 6840.16 1755.21Z" fill="white"/>
<path d="M7050.09 1755.21C6993.44 1755.21 6952.81 1793.65 6952.81 1846.56C6952.81 1899.47 6990.44 1937.59 7043.35 1937.59C7070.57 1937.59 7094.06 1926.37 7109.42 1908.9V1932.39C7109.42 1965.14 7085.53 1989.44 7052.69 1989.44C7025.87 1989.44 7002.71 1971.15 6998.24 1946.53L6962.89 1946.12C6968.41 1989.03 7006.85 2020 7054.24 2020C7108.29 2020 7147.38 1982.29 7147.38 1930.11V1846.56C7147.38 1793.65 7106.74 1755.21 7050.09 1755.21ZM7050.5 1907.76C7016.53 1907.76 6991.9 1882 6991.9 1846.23C6991.9 1810.47 7016.53 1785.03 7050.5 1785.03C7084.47 1785.03 7109.42 1810.8 7109.42 1846.23C7109.42 1881.67 7084.8 1907.76 7050.5 1907.76Z" fill="white"/>
<path d="M7374.14 1755.21C7317.49 1755.21 7276.77 1795.11 7276.77 1850.3V2016.59H7314.81V1916.7C7329.36 1934.26 7352.11 1945.39 7379.01 1945.39C7433.06 1945.39 7471.42 1905.48 7471.42 1851.44C7471.42 1797.39 7430.79 1755.21 7374.14 1755.21ZM7373.73 1912.23C7339.43 1912.23 7314.81 1886.14 7314.81 1850.3C7314.81 1814.46 7339.43 1788.45 7373.73 1788.45C7408.03 1788.45 7432.33 1814.13 7432.33 1850.3C7432.33 1886.47 7407.7 1912.23 7373.73 1912.23Z" fill="white"/>
<path d="M7588.54 1755.21C7531.89 1755.21 7491.17 1795.11 7491.17 1850.3C7491.17 1905.48 7528.88 1945.39 7580.33 1945.39C7608.29 1945.39 7632.91 1934.26 7647.79 1916.7V1942.06H7685.82V1850.3C7685.82 1795.11 7645.19 1755.21 7588.54 1755.21ZM7588.86 1912.23C7554.97 1912.23 7530.35 1886.47 7530.35 1850.3C7530.35 1814.13 7554.97 1788.45 7588.86 1788.45C7622.76 1788.45 7647.79 1814.54 7647.79 1850.3C7647.79 1886.06 7623.24 1912.23 7588.86 1912.23Z" fill="white"/>
<path d="M7718.33 1829.41V1942.06H7756.69V1832.82C7756.69 1805.19 7773.43 1790.64 7801.8 1790.64V1758.62C7748.89 1758.62 7718.33 1784.71 7718.33 1829.41Z" fill="white"/>
<path d="M7878.6 1758.62V1711.24H7840.24V1758.62H7806.27V1790.64H7840.24V1942.06H7878.6V1790.64H7920.05V1758.62H7878.6Z" fill="white"/>
<path d="M8025.14 1755.21C7975.57 1755.21 7941.68 1787.31 7941.68 1834.69V1942.06H7980.04V1834.69C7980.04 1805.92 7997.92 1786.9 8025.55 1786.9C8053.18 1786.9 8071.06 1805.92 8071.06 1834.69V1942.06H8109.43V1834.69C8109.43 1787.31 8075.13 1755.21 8025.14 1755.21Z" fill="white"/>
<path d="M8333.5 1850.7C8333.17 1795.11 8292.54 1755.21 8235.81 1755.21C8179.08 1755.21 8137.79 1795.11 8137.79 1850.3C8137.79 1905.48 8179.16 1945.39 8235.81 1945.39C8281 1945.39 8320.09 1916.29 8330.57 1875.66H8291.81C8284.65 1897.68 8262.3 1914.1 8236.21 1914.1C8204.52 1914.1 8180.62 1892.8 8175.83 1862.25H8332.44C8333.17 1858.51 8333.5 1854.44 8333.5 1850.7ZM8176.88 1832.82C8183.63 1805.6 8206.39 1786.58 8236.21 1786.58C8266.04 1786.58 8290.26 1805.6 8296.6 1832.82H8176.88Z" fill="white"/>
<path d="M8361.46 1829.41V1942.06H8399.9V1832.82C8399.9 1805.19 8416.73 1790.64 8445.01 1790.64V1758.62C8392.1 1758.62 8361.46 1784.71 8361.46 1829.41Z" fill="white"/>
<path d="M5172.32 343.629C4850.23 343.629 4616.4 570.711 4616.4 883.618C4616.4 1196.53 4850.23 1423.53 5172.32 1423.53C5413.22 1423.53 5622.9 1279.26 5696.86 1067.71H5411.51C5362.26 1142.8 5272.29 1191.41 5174.27 1191.41C5037.24 1191.41 4928.09 1107.85 4892.25 979.766H5714.34L5719.54 953.677C5723.85 932.383 5726.12 908.163 5726.12 885.406C5724.09 571.524 5491.08 343.629 5172.32 343.629ZM4902.24 757.561C4946.13 645.89 5048.94 575.831 5174.27 575.831C5299.59 575.831 5409.56 647.353 5452.63 757.561H4902.24Z" fill="white"/>
<path d="M3113.47 4.22656V262.274H2691.57V1446.28H2409.63V262.274H1987.81V4.22656H3113.47Z" fill="white"/>
<path d="M3473.6 363.216V599.319H3441.09C3346.08 599.319 3232.87 632.723 3232.87 791.696V1423.52H2962.87V773.815C2962.87 516.662 3141.68 363.216 3441.09 363.216H3473.6Z" fill="white"/>
<path d="M4498.39 361.591V969.2C4498.39 1236.67 4301.71 1423.53 4020.17 1423.53C3738.64 1423.53 3539.92 1236.67 3539.92 969.2V361.591H3807.89V969.2C3807.89 1105.01 3888.43 1189.37 4018.14 1189.37C4147.86 1189.37 4230.43 1102.98 4230.43 969.2V361.591H4498.39Z" fill="white"/>
<path d="M6120.14 0H5852.18V1405.65H6120.14V0Z" fill="white"/>
<path d="M6803.99 343.629C6481.9 343.629 6248.15 570.711 6248.15 883.618C6248.15 949.207 6258.39 1010.98 6277.66 1067.71C6350.07 1281.7 6549.44 1423.53 6803.99 1423.53C7044.97 1423.53 7254.66 1279.26 7328.62 1067.71H7043.26C6994.01 1142.8 6904.04 1191.41 6806.02 1191.41C6708.01 1191.41 6616.82 1144.75 6564.48 1067.71C6546.76 1041.62 6533.02 1012.11 6523.92 979.766H7346.09L7351.3 953.677C7355.52 932.383 7357.88 908.163 7357.88 885.406C7355.77 571.524 7122.83 343.629 6803.99 343.629ZM6533.92 757.561C6577.89 645.89 6680.7 575.831 6806.02 575.831C6931.35 575.831 7041.23 647.353 7084.39 757.561H6533.92Z" fill="white"/>
<path d="M8261.97 0V451.237C8178.42 382.153 8069.35 343.629 7952.15 343.629C7647.37 343.629 7426.14 568.191 7426.14 877.604C7426.14 1187.02 7658.26 1423.53 7978.08 1423.53C8297.9 1423.53 8529.94 1196.44 8529.94 883.618V0H8261.97ZM7980.03 1181.41C7815.21 1181.41 7700.12 1058.93 7700.12 883.618C7700.12 708.309 7817.89 585.828 7980.03 585.828C8142.17 585.828 8261.97 711.072 8261.97 883.618C8261.97 1056.16 8145.99 1181.41 7980.03 1181.41Z" fill="white"/>
<path d="M9173.96 343.629C8854.22 343.629 8622.1 562.339 8622.1 863.706C8622.1 1165.07 8839.11 1381.75 9138.2 1381.75C9258.16 1381.75 9370.97 1342.58 9457.85 1272.27V1321.36C9457.85 1478.96 9344.31 1593.39 9187.94 1593.39C9061.47 1593.39 8950.29 1506.43 8929.4 1391.18L8928.43 1385.73H8674.36L8676.07 1399.22C8708.01 1643.94 8926.64 1821.53 9195.9 1821.53C9502.96 1821.53 9725.9 1606.15 9725.9 1309.5V863.706C9725.9 562.339 9493.77 343.629 9173.96 343.629ZM9175.99 1157.51C9013.77 1157.51 8896.08 1033.16 8896.08 861.755C8896.08 690.347 9013.77 567.866 9175.99 567.866C9338.21 567.866 9457.85 691.485 9457.85 861.755C9457.85 1032.03 9341.95 1157.51 9175.99 1157.51Z" fill="white"/>
<path d="M10398.4 361.591V597.694H10365.9C10270.9 597.694 10157.6 631.098 10157.6 790.071V1426.37H9887.71V772.19C9887.71 515.037 10066.4 361.591 10365.9 361.591H10398.4Z" fill="white"/>
</g>
<defs>
<clipPath id="clip0_2527_397">
<rect width="10398.4" height="2020" fill="white"/>
</clipPath>
</defs>
</svg>
