<svg width="398" height="396" viewBox="0 0 398 396" fill="none" xmlns="http://www.w3.org/2000/svg">
<path d="M66.0855 82.0905C64.5735 84.0593 63.0073 85.9817 61.3405 87.8177C51.8915 98.2257 39.2393 105.587 25.9633 108.397C19.244 109.819 11.7748 109.92 6.70023 105.768C1.90437 101.844 0.356995 95.0237 0.0539353 88.5444C-0.0467158 86.3986 -0.00358252 84.2385 0.159008 82.0762C2.38771 52.5146 26.273 24.8875 51.3705 10.6471C64.1256 3.41014 78.6879 -1.14239 92.7802 0.250139C107.365 1.69133 124.421 7.8222 116.993 26.686C114.064 34.1231 108.132 40.0903 101.89 45.114C95.647 50.1366 88.8857 54.5133 83.1917 60.1873C76.6317 66.7241 71.7374 74.7297 66.0855 82.0905Z" fill="#FAFAEA"/>
<path d="M37.8134 324.121C38.2238 323.919 38.6607 323.742 39.1241 323.591C45.9241 321.393 54.8799 326.149 62.1865 330.606C71.0128 335.991 79.8391 341.377 88.6655 346.761C98.8545 352.978 111.065 361.513 114.125 372.018C115.532 376.849 114.583 381.645 111.563 384.958C108.42 388.406 103.309 390.149 97.9984 391.122C91.9471 392.229 85.344 392.442 78.6357 390.988C62.6046 387.512 48.572 372.004 39.989 360.044C33.3405 350.782 27.3944 329.254 37.8134 324.121Z" fill="url(#paint0_linear_2099_2582)"/>
<path d="M394.438 193.32C397.979 206.769 397.34 219.703 395.806 233.584C394.74 243.235 396 252.133 393.132 261.606C385.272 287.571 371.204 312.372 354.157 333.372C306.512 392.061 204.736 405.658 141.069 366.999C120.109 354.271 103.125 335.441 94.1007 312.511C67.5576 245.068 114.707 163.369 199.412 130.033C235.121 115.979 275.937 111.955 313.413 120.836C349.339 129.349 381.863 153.347 393.412 189.783C393.788 190.966 394.128 192.146 394.438 193.32Z" fill="url(#paint1_linear_2099_2582)"/>
<mask id="mask0_2099_2582" style="mask-type:luminance" maskUnits="userSpaceOnUse" x="33" y="18" width="364" height="335">
<path d="M132.832 38.0243C222.05 -7.63373 331.389 27.6793 377.047 116.898C380.432 123.511 383.418 130.328 385.975 137.304C399.582 174.416 400.539 215.554 388.836 253.298C383.179 271.54 370.313 285.681 357.436 299.664C341.801 316.642 322.887 330.717 301.688 339.954C270.278 353.642 233.766 356.33 201.389 345.115C180.85 338.001 161.682 325.444 139.986 324.12C127.886 323.381 115.648 326.234 103.682 324.286C88.8446 321.871 75.9712 312.2 66.6294 300.422C45.9462 274.345 35.5172 240.144 34.1512 207.204C31.2412 137.073 70.3535 69.997 132.832 38.0243Z" fill="white"/>
</mask>
<g mask="url(#mask0_2099_2582)">
<path d="M401.433 -24.7017H-95.3926V390.427H401.433V-24.7017Z" fill="url(#paint2_linear_2099_2582)"/>
<path d="M401.406 -23.4858H-71.4363V152.532H401.406V-23.4858Z" fill="url(#paint3_linear_2099_2582)"/>
<path d="M362.428 121.024V122.647L193.445 122.686L193.405 -23.3318H195.397L362.398 -23.3716L362.428 121.024Z" fill="white"/>
<path d="M362.415 -23.3521H195.413V121.044H362.415V-23.3521Z" fill="url(#paint4_linear_2099_2582)"/>
<path d="M362.429 122.646L358.86 120.601L358.603 -23.3623H362.399L362.429 122.646Z" fill="#9EB8F2"/>
<path d="M240.192 67.0186H212.582L222.699 54.2403V53.1321C222.699 52.7361 223.064 52.4198 223.507 52.4198H223.744L223.784 52.2815L224.897 48.2234C224.947 48.0553 225.114 47.9159 225.351 47.8473C225.469 47.8075 225.608 47.7876 225.756 47.7876H227.018C227.441 47.7876 227.796 47.9657 227.876 48.2234L228.99 52.2815L229.03 52.4198H229.266C229.71 52.4198 230.075 52.7361 230.075 53.1321V54.2403L240.192 67.0186Z" fill="#9EB8F2"/>
<path d="M226.783 16.0601H225.993V48.2209H226.783V16.0601Z" fill="#9EB8F2"/>
<path d="M227.994 53.1317V54.24H222.7V53.1317C222.7 52.7358 223.065 52.4194 223.508 52.4194H227.186C227.629 52.4183 227.994 52.7358 227.994 53.1317Z" fill="#8181A5"/>
<path d="M230.075 53.1317V54.24H229.226V53.1317C229.226 52.7358 228.861 52.4194 228.418 52.4194H229.266C229.71 52.4183 230.075 52.7358 230.075 53.1317Z" fill="#8181A5"/>
<path d="M229.228 53.1317V54.24H227.995V53.1317C227.995 52.7358 227.63 52.4194 227.186 52.4194H228.418C228.863 52.4183 229.228 52.7358 229.228 53.1317Z" fill="#9EB8F2"/>
<path d="M228.182 52.4183H226.949L226.909 52.28L225.795 48.2219C225.746 48.0538 225.579 47.9244 225.352 47.8459C225.47 47.806 225.608 47.7861 225.757 47.7861H226.17C226.595 47.7861 226.949 47.9642 227.029 48.2219L228.142 52.28L228.182 52.4183Z" fill="#AEAED2"/>
<path d="M237.717 67.0185H234.325L227.994 54.2402H229.228L237.717 67.0185Z" fill="#9EB8F2"/>
<path d="M391.18 27.6138H363.57L373.687 14.8356V13.7273C373.687 13.3313 374.052 13.015 374.495 13.015H374.732L374.772 12.8767L375.886 8.8186C375.936 8.65048 376.103 8.51222 376.339 8.44254C376.458 8.40272 376.596 8.38281 376.743 8.38281H378.005C378.429 8.38281 378.784 8.56089 378.863 8.8186L379.977 12.8767L380.017 13.015H380.254C380.697 13.015 381.062 13.3313 381.062 13.7273V14.8356L391.18 27.6138Z" fill="#9EB8F2"/>
<path d="M388.705 27.6142H385.313L378.983 14.8359H380.215L388.705 27.6142Z" fill="#9EB8F2"/>
<path d="M321.516 85.2085H296.843L305.884 73.7896V72.7985C305.884 72.4446 306.21 72.1614 306.606 72.1614H306.817L306.853 72.0376L307.848 68.4108C307.892 68.2604 308.042 68.1365 308.254 68.0746C308.36 68.0392 308.483 68.0215 308.616 68.0215H309.744C310.122 68.0215 310.44 68.1808 310.51 68.4108L311.506 72.0376L311.541 72.1614H311.752C312.148 72.1614 312.475 72.4446 312.475 72.7985V73.7896L321.516 85.2085Z" fill="#9EB8F2"/>
<path d="M309.531 16.0366H308.827V68.4106H309.531V16.0366Z" fill="#9EB8F2"/>
<path d="M310.615 72.7987V73.7897H305.883V72.7987C305.883 72.4448 306.21 72.1616 306.606 72.1616H309.893C310.289 72.1616 310.615 72.4448 310.615 72.7987Z" fill="#8181A5"/>
<path d="M312.475 72.7987V73.7897H311.717V72.7987C311.717 72.4448 311.391 72.1616 310.995 72.1616H311.752C312.148 72.1616 312.475 72.4448 312.475 72.7987Z" fill="#8181A5"/>
<path d="M311.716 72.7987V73.7897H310.615V72.7987C310.615 72.4448 310.289 72.1616 309.893 72.1616H310.994C311.39 72.1616 311.716 72.4448 311.716 72.7987Z" fill="#9EB8F2"/>
<path d="M310.782 72.1614H309.68L309.645 72.0376L308.65 68.4108C308.605 68.2604 308.456 68.1454 308.252 68.0746C308.359 68.0392 308.481 68.0215 308.614 68.0215H308.985C309.364 68.0215 309.68 68.1808 309.751 68.4108L310.747 72.0376L310.782 72.1614Z" fill="#AEAED2"/>
<path d="M319.303 85.2085H316.273L310.615 73.7896H311.717L319.303 85.2085Z" fill="#9EB8F2"/>
<path d="M165.628 121.023V122.646L-3.35509 122.686L-3.3938 -23.3225H-1.4029L165.598 -23.3623L165.628 121.023Z" fill="white"/>
<path d="M165.614 -23.3423H-1.38745V121.043H165.614V-23.3423Z" fill="url(#paint5_linear_2099_2582)"/>
<path d="M165.628 122.646L162.059 120.601L161.802 -23.3623H165.598L165.628 122.646Z" fill="#9EB8F2"/>
<path d="M140.809 63.9082H113.199L123.316 51.13V50.0217C123.316 49.6257 123.681 49.3094 124.125 49.3094H124.362L124.401 49.1712L125.515 45.113C125.565 44.9449 125.732 44.8055 125.969 44.737C126.087 44.6972 126.225 44.6772 126.372 44.6772H127.634C128.058 44.6772 128.413 44.8553 128.493 45.113L129.606 49.1712L129.646 49.3094H129.883C130.326 49.3094 130.691 49.6257 130.691 50.0217V51.13L140.809 63.9082Z" fill="#9EB8F2"/>
<path d="M127.399 12.9497H126.609V45.1105H127.399V12.9497Z" fill="#9EB8F2"/>
<path d="M128.611 50.0204V51.1287H123.316V50.0204C123.316 49.6244 123.681 49.3081 124.125 49.3081H127.802C128.246 49.3081 128.611 49.6244 128.611 50.0204Z" fill="#8181A5"/>
<path d="M130.691 50.0204V51.1287H129.843V50.0204C129.843 49.6244 129.478 49.3081 129.034 49.3081H129.883C130.327 49.3081 130.691 49.6244 130.691 50.0204Z" fill="#8181A5"/>
<path d="M129.844 50.0204V51.1287H128.612V50.0204C128.612 49.6244 128.247 49.3081 127.804 49.3081H129.036C129.479 49.3081 129.844 49.6244 129.844 50.0204Z" fill="#9EB8F2"/>
<path d="M128.799 49.3084H127.567L127.527 49.1702L126.413 45.1121C126.363 44.9439 126.196 44.8145 125.97 44.736C126.088 44.6962 126.226 44.6763 126.373 44.6763H126.787C127.211 44.6763 127.566 44.8543 127.645 45.1121L128.759 49.1702L128.799 49.3084Z" fill="#AEAED2"/>
<path d="M138.334 63.9083H134.942L128.611 51.1289H129.844L138.334 63.9083Z" fill="#9EB8F2"/>
<path d="M282.662 182.551H281.744V182.78H282.662V182.551Z" fill="#8989AD"/>
<path d="M284.411 184.55C284.411 185.534 283.794 186.327 283.037 186.327H280.758V182.778H283.037C283.794 182.777 284.411 183.57 284.411 184.55Z" fill="#8989AD"/>
<path d="M282.132 184.552C282.132 185.533 281.516 186.33 280.758 186.33C279.998 186.33 279.383 185.534 279.383 184.552C279.383 183.571 279.999 182.776 280.758 182.776C281.516 182.775 282.132 183.57 282.132 184.552Z" fill="#707094"/>
<path d="M282.407 184.531H284.117C284.109 183.56 283.497 182.777 282.746 182.777H281.036C281.788 182.777 282.399 183.56 282.407 184.531Z" fill="#ADADD1"/>
<path d="M281.52 184.552C281.52 185.096 281.179 185.537 280.758 185.537C280.336 185.537 279.996 185.096 279.996 184.552C279.996 184.009 280.336 183.568 280.758 183.568C281.179 183.568 281.52 184.008 281.52 184.552Z" fill="#BABADE"/>
<path d="M281.297 184.552C281.297 184.937 281.055 185.25 280.758 185.25C280.459 185.25 280.218 184.938 280.218 184.552C280.218 184.168 280.46 183.854 280.758 183.854C281.056 183.854 281.297 184.166 281.297 184.552Z" fill="#A6A6CA"/>
<path d="M301.449 182.551H300.531V182.78H301.449V182.551Z" fill="#8989AD"/>
<path d="M303.196 184.55C303.196 185.534 302.58 186.327 301.823 186.327H299.543V182.778H301.823C302.58 182.777 303.196 183.57 303.196 184.55Z" fill="#8989AD"/>
<path d="M299.543 186.33C300.302 186.33 300.918 185.534 300.918 184.552C300.918 183.571 300.302 182.775 299.543 182.775C298.783 182.775 298.168 183.571 298.168 184.552C298.168 185.534 298.783 186.33 299.543 186.33Z" fill="#707094"/>
<path d="M301.193 184.531H302.903C302.896 183.56 302.283 182.777 301.532 182.777H299.822C300.573 182.777 301.184 183.56 301.193 184.531Z" fill="#ADADD1"/>
<path d="M300.305 184.552C300.305 185.096 299.964 185.537 299.543 185.537C299.121 185.537 298.781 185.096 298.781 184.552C298.781 184.009 299.121 183.568 299.543 183.568C299.964 183.568 300.305 184.008 300.305 184.552Z" fill="#BABADE"/>
<path d="M300.082 184.552C300.082 184.937 299.84 185.25 299.543 185.25C299.244 185.25 299.003 184.938 299.003 184.552C299.003 184.168 299.245 183.854 299.543 183.854C299.841 183.854 300.082 184.166 300.082 184.552Z" fill="#A6A6CA"/>
<path d="M304.849 144.614H277.386V182.551H304.849V144.614Z" fill="#9EB8F2"/>
<path d="M304.849 144.614H277.386V147.911H304.849V144.614Z" fill="#DADAFE"/>
<path d="M308.789 140.707H207.506V143.661H308.789V140.707Z" fill="#9EB8F2"/>
<path d="M308.788 140.72H306.197V186.33H308.788V140.72Z" fill="#9EB8F2"/>
<path d="M210.098 140.72H207.506V186.33H210.098V140.72Z" fill="#9EB8F2"/>
<path d="M308.789 136.666H207.506V140.707H308.789V136.666Z" fill="url(#paint6_linear_2099_2582)"/>
<path d="M315.389 134.696H280.947C280.523 134.696 280.18 134.353 280.18 133.929V110.66C280.18 110.236 280.523 109.894 280.947 109.894H315.388C315.812 109.894 316.155 110.236 316.155 110.66V133.929C316.155 134.352 315.812 134.696 315.389 134.696Z" fill="#F8F8FF"/>
<path d="M314.44 133.555H281.895C281.553 133.555 281.276 133.278 281.276 132.937V111.651C281.276 111.309 281.553 111.032 281.895 111.032H314.44C314.781 111.032 315.058 111.309 315.058 111.649V132.935C315.059 133.278 314.782 133.555 314.44 133.555Z" fill="#9EB8F2"/>
<path d="M281.807 111.036L295.14 119.888V124.7L281.807 133.554C281.51 133.554 281.272 133.317 281.272 133.03V111.56C281.272 111.274 281.51 111.036 281.807 111.036Z" fill="#AEC7F3"/>
<path d="M315.055 111.56V133.03C315.055 133.317 314.827 133.554 314.531 133.554L301.197 124.7V119.888L314.531 111.036C314.827 111.036 315.055 111.274 315.055 111.56Z" fill="#AEC7F3"/>
<path d="M302.082 139.436H294.688C294.281 139.436 293.971 139.014 294.037 138.547L296.115 123.52C296.167 123.147 296.442 122.874 296.766 122.874H300.004C300.328 122.874 300.604 123.147 300.655 123.52L302.733 138.547C302.798 139.014 302.488 139.436 302.082 139.436Z" fill="#F8F8FF"/>
<path d="M312.636 112.047H283.699V112.586H312.636V112.047Z" fill="#9191B5"/>
<path d="M284.247 131.421H283.421V132.816H284.247V131.421Z" fill="#9191B5"/>
<path d="M285.542 131.421H284.716V132.816H285.542V131.421Z" fill="#9191B5"/>
<path d="M286.837 131.421H286.011V132.816H286.837V131.421Z" fill="#9191B5"/>
<path d="M288.134 131.421H287.308V132.816H288.134V131.421Z" fill="#9191B5"/>
<path d="M298.384 131.127C299.117 131.127 299.712 130.533 299.712 129.8C299.712 129.067 299.117 128.473 298.384 128.473C297.651 128.473 297.057 129.067 297.057 129.8C297.057 130.533 297.651 131.127 298.384 131.127Z" fill="#9191B5"/>
<path d="M401.466 318.661H336.355V324.726H401.466V318.661Z" fill="#DEE9FF"/>
<path d="M115.501 182.551H114.583V182.78H115.501V182.551Z" fill="#8989AD"/>
<path d="M117.25 184.55C117.25 185.534 116.633 186.327 115.876 186.327H113.597V182.778H115.876C116.633 182.777 117.25 183.57 117.25 184.55Z" fill="#8989AD"/>
<path d="M114.972 184.552C114.972 185.533 114.356 186.33 113.597 186.33C112.837 186.33 112.222 185.534 112.222 184.552C112.222 183.571 112.838 182.776 113.597 182.776C114.356 182.775 114.972 183.57 114.972 184.552Z" fill="#707094"/>
<path d="M115.246 184.531H116.956C116.948 183.56 116.335 182.777 115.584 182.777H113.875C114.627 182.777 115.238 183.56 115.246 184.531Z" fill="#ADADD1"/>
<path d="M114.359 184.552C114.359 185.096 114.018 185.537 113.597 185.537C113.177 185.537 112.835 185.096 112.835 184.552C112.835 184.009 113.176 183.568 113.597 183.568C114.017 183.568 114.359 184.008 114.359 184.552Z" fill="#BABADE"/>
<path d="M114.136 184.552C114.136 184.937 113.894 185.25 113.597 185.25C113.298 185.25 113.057 184.938 113.057 184.552C113.057 184.168 113.299 183.854 113.597 183.854C113.894 183.854 114.136 184.166 114.136 184.552Z" fill="#A6A6CA"/>
<path d="M134.288 182.551H133.37V182.78H134.288V182.551Z" fill="#8989AD"/>
<path d="M136.036 184.55C136.036 185.534 135.419 186.327 134.662 186.327H132.381V182.778H134.662C135.419 182.777 136.036 183.57 136.036 184.55Z" fill="#8989AD"/>
<path d="M133.757 184.552C133.757 185.533 133.141 186.33 132.382 186.33C131.623 186.33 131.007 185.534 131.007 184.552C131.007 183.571 131.623 182.776 132.382 182.776C133.141 182.776 133.757 183.57 133.757 184.552Z" fill="#707094"/>
<path d="M134.031 184.531H135.741C135.733 183.56 135.121 182.777 134.37 182.777H132.66C133.412 182.777 134.023 183.56 134.031 184.531Z" fill="#ADADD1"/>
<path d="M133.144 184.552C133.144 185.096 132.804 185.537 132.382 185.537C131.961 185.537 131.62 185.096 131.62 184.552C131.62 184.009 131.961 183.568 132.382 183.568C132.804 183.568 133.144 184.008 133.144 184.552Z" fill="#BABADE"/>
<path d="M132.922 184.552C132.922 184.937 132.679 185.25 132.382 185.25C132.083 185.25 131.842 184.938 131.842 184.552C131.842 184.168 132.084 183.854 132.382 183.854C132.679 183.854 132.922 184.166 132.922 184.552Z" fill="#A6A6CA"/>
<path d="M137.688 144.614H110.226V182.551H137.688V144.614Z" fill="#9EB8F2"/>
<path d="M137.688 144.614H110.226V147.911H137.688V144.614Z" fill="#DADAFE"/>
<path d="M141.629 140.707H40.3462V143.661H141.629V140.707Z" fill="#9EB8F2"/>
<path d="M141.628 140.72H139.036V186.33H141.628V140.72Z" fill="#9EB8F2"/>
<path d="M42.9377 140.72H40.3462V186.33H42.9377V140.72Z" fill="#9EB8F2"/>
<path d="M141.629 136.666H40.3462V140.707H141.629V136.666Z" fill="url(#paint7_linear_2099_2582)"/>
<path d="M201.299 207.818H7.84521V213.461H201.299V207.818Z" fill="#9EB8F2"/>
<path d="M201.3 207.843H196.351V294.958H201.3V207.843Z" fill="#9EB8F2"/>
<path d="M201.299 196.139H7.84497V207.818H201.299V196.139Z" fill="url(#paint8_linear_2099_2582)"/>
<path d="M139.011 194.905H70.6497C69.8102 194.905 69.1289 194.224 69.1289 193.384V147.199C69.1289 146.358 69.8102 145.678 70.6497 145.678H139.011C139.851 145.678 140.531 146.359 140.531 147.199V193.384C140.531 194.224 139.851 194.905 139.011 194.905Z" fill="#F8F8FF"/>
<path d="M137.129 192.642H72.532C71.8551 192.642 71.3054 192.093 71.3054 191.415V149.166C71.3054 148.489 71.854 147.94 72.5309 147.94H137.128C137.805 147.94 138.353 148.489 138.353 149.166V191.415C138.355 192.093 137.806 192.642 137.129 192.642Z" fill="#9EB8F2"/>
<path d="M72.3586 147.946L98.8221 165.516V175.069L72.3586 192.642C71.769 192.642 71.2979 192.17 71.2979 191.601V148.989C71.2967 148.417 71.769 147.946 72.3586 147.946Z" fill="#AEC7F3"/>
<path d="M138.349 148.987V191.599C138.349 192.168 137.898 192.64 137.308 192.64L110.845 175.067V165.514L137.308 147.944C137.898 147.946 138.349 148.417 138.349 148.987Z" fill="#AEC7F3"/>
<path d="M112.599 204.315H97.9241C97.1167 204.315 96.5017 203.476 96.63 202.55L100.754 172.725C100.856 171.986 101.405 171.443 102.049 171.443H108.475C109.118 171.443 109.667 171.986 109.769 172.725L113.893 202.55C114.022 203.477 113.407 204.315 112.599 204.315Z" fill="#F8F8FF"/>
<path d="M133.548 149.953H76.1125V151.021H133.548V149.953Z" fill="#9191B5"/>
<path d="M77.1987 188.408H75.5596V191.176H77.1987V188.408Z" fill="#9191B5"/>
<path d="M79.7705 188.408H78.1313V191.176H79.7705V188.408Z" fill="#9191B5"/>
<path d="M82.3418 188.408H80.7026V191.176H82.3418V188.408Z" fill="#9191B5"/>
<path d="M84.9136 188.408H83.2744V191.176H84.9136V188.408Z" fill="#9191B5"/>
<path d="M107.895 185.189C107.895 186.644 106.716 187.823 105.262 187.823C103.807 187.823 102.628 186.644 102.628 185.189C102.628 183.735 103.807 182.556 105.262 182.556C106.716 182.556 107.895 183.735 107.895 185.189Z" fill="#9191B5"/>
<path d="M398.512 44.9482H394.89V319.677H398.512V44.9482Z" fill="#9EB8F2"/>
<path d="M349.493 44.9482H345.871V319.677H349.493V44.9482Z" fill="#9EB8F2"/>
<path d="M339.172 44.9482H335.549V324.726H339.172V44.9482Z" fill="#9EB8F2"/>
<path d="M397.598 89.772H336.677V92.2462H397.598V89.772Z" fill="#9EB8F2"/>
<path d="M398.493 44.5664H335.559V47.0407H398.493V44.5664Z" fill="#9EB8F2"/>
<path d="M397.939 136.862H337.019V139.337H397.939V136.862Z" fill="#9EB8F2"/>
<path d="M398.28 183.953H337.359V186.427H398.28V183.953Z" fill="#9EB8F2"/>
<path d="M398.622 231.043H337.701V233.518H398.622V231.043Z" fill="#9EB8F2"/>
<path d="M398.964 278.133H338.043V280.608H398.964V278.133Z" fill="#9EB8F2"/>
<path d="M346.963 53.5698H340.4V89.6615H346.963V53.5698Z" fill="#DEE9FF"/>
<path d="M361.871 53.5698H346.963V89.6615H361.871V53.5698Z" fill="#9EB8F2"/>
<path d="M345.645 55.5024H341.793V74.8462H345.645V55.5024Z" fill="#F8F8FF"/>
<path d="M345.645 57.4517H341.793V59.656H345.645V57.4517Z" fill="#9EB8F2"/>
<path d="M345.961 79.6902C345.961 80.9279 344.958 81.9322 343.719 81.9322C342.481 81.9322 341.477 80.929 341.477 79.6902C341.477 78.4525 342.48 77.4482 343.719 77.4482C344.958 77.4493 345.961 78.4525 345.961 79.6902Z" fill="#F8F8FF"/>
<path d="M345.437 79.6904C345.437 80.6382 344.668 81.4081 343.719 81.4081C342.771 81.4081 342.001 80.6394 342.001 79.6904C342.001 78.7425 342.77 77.9727 343.719 77.9727C344.668 77.9738 345.437 78.7425 345.437 79.6904Z" fill="#9292B6"/>
<path d="M339.295 58.8473L333.688 62.2583L352.449 93.0915L358.055 89.6804L339.295 58.8473Z" fill="#DEE9FF"/>
<path d="M352.033 51.1006L339.296 58.8501L358.057 89.6833L370.793 81.9338L352.033 51.1006Z" fill="#9EB8F2"/>
<path d="M339.174 61.1836L335.883 63.186L345.938 79.7115L349.229 77.709L339.174 61.1836Z" fill="#F8F8FF"/>
<path d="M340.186 62.8388L336.895 64.8413L338.04 66.7245L341.331 64.722L340.186 62.8388Z" fill="#9EB8F2"/>
<path d="M352.009 81.6648C352.653 82.7221 352.317 84.1014 351.259 84.7451C350.202 85.3889 348.823 85.0526 348.179 83.9952C347.535 82.9378 347.872 81.5586 348.929 80.9149C349.986 80.2711 351.366 80.6074 352.009 81.6648Z" fill="#F8F8FF"/>
<path d="M351.561 81.9369C352.055 82.7466 351.797 83.8039 350.987 84.2961C350.176 84.7894 349.12 84.5317 348.628 83.7221C348.135 82.9114 348.392 81.8551 349.202 81.3629C350.012 80.8696 351.068 81.1273 351.561 81.9369Z" fill="#9292B6"/>
<path d="M370.662 53.5698H364.1V89.6615H370.662V53.5698Z" fill="#DEE9FF"/>
<path d="M385.57 53.5698H370.661V89.6615H385.57V53.5698Z" fill="#9EB8F2"/>
<path d="M369.345 55.5024H365.492V74.8462H369.345V55.5024Z" fill="#F8F8FF"/>
<path d="M369.345 57.4517H365.492V59.656H369.345V57.4517Z" fill="#9EB8F2"/>
<path d="M369.66 79.6902C369.66 80.9279 368.657 81.9322 367.418 81.9322C366.18 81.9322 365.177 80.929 365.177 79.6902C365.177 78.4525 366.18 77.4482 367.418 77.4482C368.656 77.4493 369.66 78.4525 369.66 79.6902Z" fill="#F8F8FF"/>
<path d="M369.136 79.6904C369.136 80.6382 368.367 81.4081 367.419 81.4081C366.471 81.4081 365.703 80.6394 365.703 79.6904C365.703 78.7425 366.471 77.9727 367.419 77.9727C368.367 77.9738 369.136 78.7425 369.136 79.6904Z" fill="#9292B6"/>
<path d="M370.812 100.726H364.25V136.818H370.812V100.726Z" fill="#DEE9FF"/>
<path d="M385.719 100.726H370.811V136.818H385.719V100.726Z" fill="#9EB8F2"/>
<path d="M369.494 102.66H365.642V122.003H369.494V102.66Z" fill="#F8F8FF"/>
<path d="M369.494 104.609H365.642V106.813H369.494V104.609Z" fill="#9EB8F2"/>
<path d="M369.81 126.847C369.81 128.085 368.806 129.089 367.568 129.089C366.33 129.089 365.326 128.086 365.326 126.847C365.326 125.609 366.329 124.605 367.568 124.605C368.806 124.606 369.81 125.609 369.81 126.847Z" fill="#F8F8FF"/>
<path d="M369.285 126.847C369.285 127.795 368.516 128.565 367.567 128.565C366.619 128.565 365.85 127.796 365.85 126.847C365.85 125.899 366.618 125.13 367.567 125.13C368.516 125.13 369.285 125.899 369.285 126.847Z" fill="#9292B6"/>
<path d="M379.458 100.726H372.896V136.818H379.458V100.726Z" fill="#DEE9FF"/>
<path d="M394.366 100.726H379.458V136.818H394.366V100.726Z" fill="#9EB8F2"/>
<path d="M378.14 102.66H374.288V122.003H378.14V102.66Z" fill="#F8F8FF"/>
<path d="M378.14 104.609H374.288V106.813H378.14V104.609Z" fill="#9EB8F2"/>
<path d="M378.455 126.847C378.455 128.085 377.452 129.089 376.215 129.089C374.977 129.089 373.973 128.086 373.973 126.847C373.973 125.609 374.976 124.605 376.215 124.605C377.452 124.606 378.455 125.609 378.455 126.847Z" fill="#F8F8FF"/>
<path d="M377.931 126.847C377.931 127.795 377.163 128.565 376.215 128.565C375.267 128.565 374.498 127.796 374.498 126.847C374.498 125.899 375.267 125.13 376.215 125.13C377.163 125.13 377.931 125.899 377.931 126.847Z" fill="#9292B6"/>
<path d="M344.59 198.158L339.066 201.702L358.556 232.08L364.079 228.536L344.59 198.158Z" fill="#DEE9FF"/>
<path d="M379.554 223.404L364.066 228.514L344.576 198.137L360.064 193.027L379.554 223.404Z" fill="#9EB8F2"/>
<path d="M344.483 200.473L341.241 202.553L351.686 218.833L354.929 216.753L344.483 200.473Z" fill="#F8F8FF"/>
<path d="M345.536 202.114L342.294 204.194L343.484 206.049L346.726 203.969L345.536 202.114Z" fill="#9EB8F2"/>
<path d="M357.838 220.661C358.507 221.703 358.204 223.09 357.162 223.758C356.121 224.426 354.734 224.124 354.066 223.082C353.397 222.041 353.699 220.654 354.741 219.985C355.783 219.317 357.17 219.619 357.838 220.661Z" fill="#F8F8FF"/>
<path d="M357.397 220.946C357.909 221.745 357.677 222.807 356.879 223.319C356.081 223.831 355.019 223.598 354.507 222.801C353.995 222.002 354.227 220.941 355.025 220.429C355.823 219.915 356.885 220.148 357.397 220.946Z" fill="#9292B6"/>
<path d="M370.812 195.04H364.25V231.131H370.812V195.04Z" fill="#DEE9FF"/>
<path d="M385.719 195.04H370.811V231.131H385.719V195.04Z" fill="#9EB8F2"/>
<path d="M369.494 196.972H365.642V216.316H369.494V196.972Z" fill="#F8F8FF"/>
<path d="M369.494 198.922H365.642V201.126H369.494V198.922Z" fill="#9EB8F2"/>
<path d="M369.81 221.16C369.81 222.398 368.806 223.402 367.568 223.402C366.33 223.402 365.326 222.399 365.326 221.16C365.326 219.922 366.329 218.919 367.568 218.919C368.806 218.919 369.81 219.923 369.81 221.16Z" fill="#F8F8FF"/>
<path d="M369.285 221.16C369.285 222.109 368.516 222.878 367.567 222.878C366.619 222.878 365.85 222.109 365.85 221.16C365.85 220.213 366.618 219.444 367.567 219.444C368.516 219.444 369.285 220.213 369.285 221.16Z" fill="#9292B6"/>
<path d="M379.458 195.04H372.896V231.131H379.458V195.04Z" fill="#DEE9FF"/>
<path d="M394.366 195.04H379.458V231.131H394.366V195.04Z" fill="#9EB8F2"/>
<path d="M378.14 196.972H374.288V216.316H378.14V196.972Z" fill="#F8F8FF"/>
<path d="M378.14 198.922H374.288V201.126H378.14V198.922Z" fill="#9EB8F2"/>
<path d="M378.455 221.16C378.455 222.398 377.452 223.402 376.215 223.402C374.977 223.402 373.973 222.399 373.973 221.16C373.973 219.922 374.976 218.919 376.215 218.919C377.452 218.919 378.455 219.923 378.455 221.16Z" fill="#F8F8FF"/>
<path d="M376.215 222.878C377.163 222.878 377.932 222.109 377.932 221.161C377.932 220.212 377.163 219.443 376.215 219.443C375.266 219.443 374.497 220.212 374.497 221.161C374.497 222.109 375.266 222.878 376.215 222.878Z" fill="#9292B6"/>
<path d="M345.921 147.883H339.358V183.975H345.921V147.883Z" fill="#9EB8F2"/>
<path d="M360.828 147.883H345.919V183.975H360.828V147.883Z" fill="#9EB8F2"/>
<path d="M344.603 149.817H340.75V169.161H344.603V149.817Z" fill="#F8F8FF"/>
<path d="M344.603 151.765H340.75V153.971H344.603V151.765Z" fill="#9EB8F2"/>
<path d="M344.918 174.004C344.918 175.241 343.915 176.246 342.676 176.246C341.439 176.246 340.436 175.242 340.436 174.004C340.436 172.765 341.439 171.762 342.676 171.762C343.915 171.763 344.918 172.766 344.918 174.004Z" fill="#F8F8FF"/>
<path d="M344.395 174.004C344.395 174.952 343.626 175.722 342.678 175.722C341.73 175.722 340.961 174.953 340.961 174.004C340.961 173.056 341.73 172.286 342.678 172.286C343.626 172.287 344.395 173.056 344.395 174.004Z" fill="#9292B6"/>
<path d="M354.567 147.883H348.005V183.975H354.567V147.883Z" fill="#9EB8F2"/>
<path d="M369.474 147.883H354.566V183.975H369.474V147.883Z" fill="#9EB8F2"/>
<path d="M353.249 149.817H349.397V169.161H353.249V149.817Z" fill="#F8F8FF"/>
<path d="M353.249 151.765H349.397V153.971H353.249V151.765Z" fill="#9EB8F2"/>
<path d="M353.565 174.004C353.565 175.241 352.562 176.246 351.323 176.246C350.085 176.246 349.081 175.242 349.081 174.004C349.081 172.765 350.084 171.762 351.323 171.762C352.562 171.763 353.565 172.766 353.565 174.004Z" fill="#F8F8FF"/>
<path d="M353.041 174.004C353.041 174.952 352.272 175.722 351.323 175.722C350.375 175.722 349.606 174.953 349.606 174.004C349.606 173.056 350.375 172.286 351.323 172.286C352.272 172.287 353.041 173.056 353.041 174.004Z" fill="#9292B6"/>
<path d="M345.921 242.007H339.358V278.099H345.921V242.007Z" fill="#9EB8F2"/>
<path d="M360.828 242.007H345.919V278.099H360.828V242.007Z" fill="#9EB8F2"/>
<path d="M344.603 243.94H340.75V263.284H344.603V243.94Z" fill="#F8F8FF"/>
<path d="M344.603 245.889H340.75V248.094H344.603V245.889Z" fill="#9EB8F2"/>
<path d="M344.918 268.129C344.918 269.366 343.915 270.371 342.676 270.371C341.439 270.371 340.436 269.367 340.436 268.129C340.436 266.89 341.439 265.887 342.676 265.887C343.915 265.887 344.918 266.89 344.918 268.129Z" fill="#F8F8FF"/>
<path d="M342.676 269.847C343.625 269.847 344.394 269.077 344.394 268.129C344.394 267.18 343.625 266.411 342.676 266.411C341.728 266.411 340.958 267.18 340.958 268.129C340.958 269.077 341.728 269.847 342.676 269.847Z" fill="#9292B6"/>
<path d="M354.567 242.007H348.005V278.099H354.567V242.007Z" fill="#9EB8F2"/>
<path d="M369.474 242.007H354.566V278.099H369.474V242.007Z" fill="#9EB8F2"/>
<path d="M353.249 243.94H349.397V263.284H353.249V243.94Z" fill="#F8F8FF"/>
<path d="M353.249 245.889H349.397V248.094H353.249V245.889Z" fill="#9EB8F2"/>
<path d="M353.565 268.129C353.565 269.366 352.562 270.371 351.323 270.371C350.085 270.371 349.081 269.367 349.081 268.129C349.081 266.89 350.084 265.887 351.323 265.887C352.562 265.887 353.565 266.89 353.565 268.129Z" fill="#F8F8FF"/>
<path d="M353.041 268.129C353.041 269.077 352.272 269.845 351.323 269.845C350.375 269.845 349.606 269.077 349.606 268.129C349.606 267.181 350.375 266.412 351.323 266.412C352.272 266.411 353.041 267.18 353.041 268.129Z" fill="#9292B6"/>
<path d="M373.003 181.522L356.903 181.504L370.137 147.925L386.237 147.943L373.003 181.522Z" fill="#9EB8F2"/>
<path d="M362.852 183.975L356.748 181.57L370.137 148.431L386.237 148.449L390.891 150.413L362.852 183.975Z" fill="#F8F8FF"/>
<path d="M376.1 150.423L369.994 148.017L356.759 181.597L362.865 184.003L376.1 150.423Z" fill="#9EB8F2"/>
<path d="M378.952 183.993L362.852 183.975L376.086 150.397L392.186 150.415L378.952 183.993Z" fill="#9EB8F2"/>
<path d="M374.125 151.713L370.542 150.3L363.448 168.296L367.032 169.709L374.125 151.713Z" fill="#F8F8FF"/>
<path d="M373.414 153.524L369.831 152.111L369.022 154.163L372.606 155.575L373.414 153.524Z" fill="#9EB8F2"/>
<path d="M365.576 174.331C365.123 175.483 363.821 176.049 362.668 175.594C361.517 175.141 360.95 173.839 361.405 172.688C361.859 171.536 363.16 170.97 364.313 171.425C365.465 171.879 366.031 173.18 365.576 174.331Z" fill="#F8F8FF"/>
<path d="M365.089 174.139C364.741 175.022 363.744 175.454 362.861 175.107C361.979 174.76 361.546 173.762 361.893 172.879C362.241 171.997 363.238 171.564 364.121 171.911C365.004 172.26 365.437 173.258 365.089 174.139Z" fill="#9292B6"/>
<path d="M379.307 53.5698H372.745V89.6615H379.307V53.5698Z" fill="#DEE9FF"/>
<path d="M394.216 53.5698H379.307V89.6615H394.216V53.5698Z" fill="#9EB8F2"/>
<path d="M388.531 44.9482H384.908V324.726H388.531V44.9482Z" fill="#9EB8F2"/>
<path d="M377.989 55.5024H374.137V74.8462H377.989V55.5024Z" fill="#F8F8FF"/>
<path d="M377.989 57.4526H374.137V59.657H377.989V57.4526Z" fill="#9EB8F2"/>
<path d="M376.064 81.9322C377.302 81.9322 378.306 80.9284 378.306 79.6902C378.306 78.452 377.302 77.4482 376.064 77.4482C374.826 77.4482 373.822 78.452 373.822 79.6902C373.822 80.9284 374.826 81.9322 376.064 81.9322Z" fill="#F8F8FF"/>
<path d="M377.782 79.6904C377.782 80.6382 377.013 81.4081 376.064 81.4081C375.115 81.4081 374.348 80.6394 374.348 79.6904C374.348 78.7425 375.116 77.9727 376.064 77.9727C377.012 77.9727 377.782 78.7425 377.782 79.6904Z" fill="#9292B6"/>
<path d="M130.818 134.696H96.3754C95.9518 134.696 95.6089 134.353 95.6089 133.929V110.66C95.6089 110.236 95.9518 109.894 96.3754 109.894H130.817C131.24 109.894 131.583 110.236 131.583 110.66V133.929C131.583 134.352 131.24 134.696 130.818 134.696Z" fill="#F8F8FF"/>
<path d="M129.869 133.555H97.3235C96.9828 133.555 96.7063 133.279 96.7063 132.938V111.652C96.7063 111.31 96.9828 111.034 97.3235 111.034H129.869C130.21 111.034 130.487 111.31 130.487 111.652V132.938C130.487 133.279 130.211 133.555 129.869 133.555Z" fill="#9EB8F2"/>
<path d="M97.2359 111.036L110.569 119.888V124.7L97.2359 133.554C96.9395 133.554 96.7017 133.317 96.7017 133.03V111.56C96.7017 111.274 96.9395 111.036 97.2359 111.036Z" fill="#AEC7F3"/>
<path d="M130.484 111.56V133.03C130.484 133.317 130.256 133.554 129.96 133.554L116.627 124.7V119.888L129.96 111.036C130.256 111.036 130.484 111.274 130.484 111.56Z" fill="#AEC7F3"/>
<path d="M117.511 139.436H110.117C109.711 139.436 109.4 139.014 109.465 138.547L111.544 123.52C111.595 123.147 111.871 122.874 112.195 122.874H115.433C115.757 122.874 116.033 123.147 116.084 123.52L118.162 138.547C118.227 139.014 117.917 139.436 117.511 139.436Z" fill="#F8F8FF"/>
<path d="M128.065 112.047H99.1274V112.586H128.065V112.047Z" fill="#9191B5"/>
<path d="M99.6751 131.421H98.8489V132.816H99.6751V131.421Z" fill="#9191B5"/>
<path d="M100.971 131.421H100.145V132.816H100.971V131.421Z" fill="#9191B5"/>
<path d="M102.267 131.421H101.44V132.816H102.267V131.421Z" fill="#9191B5"/>
<path d="M103.563 131.421H102.737V132.816H103.563V131.421Z" fill="#9191B5"/>
<path d="M115.141 129.8C115.141 130.533 114.547 131.127 113.813 131.127C113.08 131.127 112.486 130.533 112.486 129.8C112.486 129.067 113.08 128.473 113.813 128.473C114.547 128.473 115.141 129.067 115.141 129.8Z" fill="#9191B5"/>
</g>
<path d="M66.0559 389.526C68.8487 389.933 71.6636 389.704 74.2175 388.863C73.6722 385.626 73.1281 382.388 72.5828 379.152C72.5142 378.743 72.4368 378.315 72.1791 377.968C71.8019 377.46 71.1405 377.263 70.5366 377.159C68.2481 376.763 64.8216 376.639 65.0583 379.448C65.3425 382.804 65.7263 386.168 66.0559 389.526Z" fill="#F4A086"/>
<path d="M52.9431 376.662C54.8942 378.71 57.2468 380.266 59.7642 381.172C61.2916 378.256 62.818 375.339 64.3455 372.422C64.5379 372.054 64.737 371.665 64.7436 371.23C64.7536 370.592 64.3532 370.026 63.9406 369.571C62.3789 367.842 59.7586 365.628 58.2478 368.013C56.4438 370.864 54.7128 373.782 52.9431 376.662Z" fill="#F4A086"/>
<path fill-rule="evenodd" clip-rule="evenodd" d="M91.775 253.439C88.594 247.806 63.4887 255.586 64.3526 265.358C65.4575 277.851 69.0157 291.142 73.2397 303.528C73.4189 304.054 73.6014 304.58 73.785 305.104C76.0513 311.562 75.8677 318.649 73.138 324.925C67.2471 338.471 63.5407 356.872 57.3479 367.597L64.7452 373.402C66.0448 372.169 94.0468 324.824 95.4825 318.484C96.5698 313.692 94.3035 257.917 91.775 253.439Z" fill="#222B54"/>
<path fill-rule="evenodd" clip-rule="evenodd" d="M47.8327 271.264C48.003 274.173 55.449 272.313 58.2882 272.313C81.6614 272.313 95.1873 264.713 91.9543 253.975C88.634 242.947 67.7162 244.726 56.7906 248.281C54.4358 249.048 51.0037 249.789 49.3944 251.989C47.0628 255.175 47.2177 260.767 47.8327 271.264Z" fill="#0A3C5F"/>
<path d="M82.1036 194.623C82.8634 205.367 84.9704 216.373 91.015 225.288C92.318 227.209 94.2104 229.203 96.5188 228.96C97.8682 228.819 99.0417 227.889 99.7695 226.745C100.498 225.6 100.84 224.255 101.089 222.921C103.047 212.424 99.8425 201.725 96.6515 191.533C95.3375 187.336 93.59 179.905 89.3173 177.642C84.8665 175.284 82.6256 182.567 82.2175 185.536C81.8038 188.545 81.889 191.603 82.1036 194.623Z" fill="#F4A086"/>
<path fill-rule="evenodd" clip-rule="evenodd" d="M81.5903 179.358C81.7949 177.581 82.2705 175.486 83.9207 174.71C85.6617 173.892 87.5287 175.087 88.8836 176.301C97.0894 183.663 100.2 194.053 101.687 205.206L82.0095 206.42C80.6966 197.541 80.5473 188.42 81.5903 179.358Z" fill="#818BEA"/>
<path fill-rule="evenodd" clip-rule="evenodd" d="M60.0429 325.498C61.1556 328.396 62.7318 331.663 65.3752 332.474C67.208 333.036 72.8245 329.473 74.0135 328.042C75.2025 326.612 79.6179 268.746 77.627 264.547C74.957 258.913 69.4223 255.266 64.0535 254.425C56.2525 253.205 47.6982 255.585 47.6772 265.357C47.6507 277.849 50.0033 291.141 53.1046 303.527C54.965 310.962 57.2833 318.312 60.0429 325.498Z" fill="#0A3C5F"/>
<path fill-rule="evenodd" clip-rule="evenodd" d="M74.7516 317.558C71.8969 311.837 62.6127 307.317 58.862 317.84C52.823 334.783 60.468 360.107 64.1025 379.674H73.5062C73.9895 377.902 76.3388 320.738 74.7516 317.558Z" fill="#0A3C5F"/>
<path fill-rule="evenodd" clip-rule="evenodd" d="M89.3948 221.308C91.149 212.66 94.1408 204.217 95.4106 195.504C96.0034 191.43 96.8684 186.411 94.487 182.888C92.3501 179.728 83.1267 167.288 70.8075 167.288C53.2455 167.288 45.8372 174.441 43.3629 182.913C41.5965 193.611 42.206 208.189 45.3947 218.42C48.4596 228.255 45.2001 238.724 42.3885 260.437H93.1166C92.9286 248.124 87.6406 229.956 89.3948 221.308Z" fill="#818BEA"/>
<path d="M91.8059 176.804C93.1619 176.804 103.446 216.748 99.5405 223.064C97.575 226.243 94.2425 226.305 91.3103 224.69C87.229 222.441 85.5157 176.804 91.8059 176.804Z" fill="#F4A086"/>
<path d="M37.2329 209.269C37.8755 199.575 41.405 190.09 47.256 182.335C48.309 180.939 49.8154 179.453 51.5254 179.822C52.4578 180.023 53.1999 180.768 53.6269 181.622C54.0538 182.475 54.2142 183.433 54.3569 184.376C56.0248 195.377 56.1188 206.549 56.2095 217.675C56.2372 221.094 56.2604 224.557 55.4198 227.871C54.5792 231.185 52.7631 234.388 49.853 236.182C48.33 237.121 45.7119 238.005 43.9699 237.114C42.5685 236.397 41.9005 234.013 41.3264 232.694C39.2913 228.015 37.9718 223.024 37.4198 217.951C37.1079 215.069 37.0416 212.162 37.2329 209.269Z" fill="#F7B690"/>
<path fill-rule="evenodd" clip-rule="evenodd" d="M53.6404 178.998C53.2134 177.27 52.4801 175.278 50.7613 174.82C48.9485 174.337 46.1579 176.445 44.9821 177.908C37.8614 186.776 35.0243 197.549 34.9834 208.915L56.6754 205.974C56.8324 196.9 55.8193 187.807 53.6404 178.998Z" fill="#818BEA"/>
<path d="M86.0809 221.926C87.5752 222.819 87.896 224.976 87.2013 226.573C86.5079 228.17 54.388 237.961 48.2737 238.085C46.4133 238.123 44.2709 238.024 43.1217 236.561C42.0953 235.254 42.3043 233.374 42.77 231.778C43.5519 229.098 44.9799 226.058 47.0792 224.145C48.527 222.826 50.2845 223.38 52.0675 223.328C58.6197 223.136 85.1242 221.354 86.0809 221.926Z" fill="#F7B690"/>
<path fill-rule="evenodd" clip-rule="evenodd" d="M87.1341 155.484C86.372 156.333 85.6929 155.932 85.9462 154.829C86.7558 151.302 86.9881 150.77 86.0037 147.273C85.4617 145.35 85.2062 145.147 86.1298 144.71C89.1869 143.264 93.4375 148.454 87.1341 155.484Z" fill="#222B56"/>
<path d="M75.7416 154.975C74.5382 149.666 70.521 148.422 68.185 149.696C66.6885 159.634 65.1621 164.051 61.2666 169.472C66.11 172.577 74.3778 171.999 76.1652 169.472C76.2382 168.676 76.3643 157.72 75.7416 154.975Z" fill="#F4A086"/>
<path d="M73.8447 143.629C78.3198 139.869 85.4804 142.094 87.051 148.123C88.4889 153.642 83.7561 163.791 81.2299 165.602C76.8112 168.771 69.9105 162.812 69.3951 159.69C68.6396 155.118 70.0819 146.792 73.8447 143.629Z" fill="#F7B690"/>
<path fill-rule="evenodd" clip-rule="evenodd" d="M72.0208 157.921C71.9301 158.5 71.8582 159.156 72.221 159.617C72.5218 160 73.0549 160.135 73.5405 160.093C74.0261 160.051 74.4851 159.862 74.9452 159.705C76.9073 159.034 79.0553 158.919 81.0772 159.375C81.9974 159.583 82.9552 159.954 83.4773 160.74C83.9042 161.381 83.9695 162.196 83.9286 162.965C83.8766 163.938 83.6686 164.913 83.2107 165.771C82.7528 166.63 82.0284 167.365 81.1269 167.732C79.8649 168.246 78.4271 167.993 77.1241 167.599C74.8025 166.895 72.5771 165.732 70.9092 163.97C69.2413 162.208 68.1772 159.804 68.3199 157.383C68.3918 156.18 68.7568 154.995 69.3751 153.961C69.9104 153.067 70.6681 152.262 71.6458 151.9C73.1655 151.34 72.847 152.628 72.7021 153.53C72.4676 154.991 72.2486 156.456 72.0208 157.921Z" fill="#222B56"/>
<path fill-rule="evenodd" clip-rule="evenodd" d="M75.4587 145.456C75.524 146.312 71.5024 156.735 71.2292 156.554C70.2547 155.91 69.4971 152.617 67.4741 152.342C66.8271 152.253 65.8659 152.497 66.0904 151.212C67.5139 143.069 67.1135 143.421 68.704 142.959C72.208 141.939 75.3415 143.929 75.4587 145.456Z" fill="#222B56"/>
<path fill-rule="evenodd" clip-rule="evenodd" d="M67.5721 138.665C75.0944 135.307 86.2899 135.662 89.0716 138.122C93.2127 141.783 88.2443 148.965 86.4049 149.056C85.5654 149.098 84.9527 148.321 84.362 147.724C81.5549 144.887 78.3274 146.009 75.8067 145.984C71.3404 145.939 61.1625 141.527 67.5721 138.665Z" fill="#222B56"/>
<path d="M65.9531 150.757C65.5738 152.042 65.7209 153.474 66.3524 154.655C68.1597 158.035 71.312 154.555 71.2401 151.992C71.1538 148.937 66.984 147.263 65.9531 150.757Z" fill="#F7B690"/>
<path fill-rule="evenodd" clip-rule="evenodd" d="M62.2065 381.607C62.4111 381.119 62.6577 380.604 62.5604 380.084C62.4299 379.391 61.7209 378.945 61.0285 378.814C60.335 378.684 59.6205 378.781 58.9171 378.719C57.6573 378.61 56.4594 377.952 55.6641 376.973C54.9972 376.152 54.8567 374.727 53.796 374.292C52.8592 373.907 51.7531 374.519 50.9291 374.913C49.5089 375.592 48.1054 376.306 46.694 377.001C46.381 377.155 46.0581 377.321 45.7749 377.526L50.4889 383.153C51.0773 383.106 52.3283 382.421 52.8658 382.162C52.4267 382.563 51.4976 383.646 51.3892 384.228L59.9899 395.616L63.6388 392.297C61.3283 389.321 60.7498 385.082 62.2065 381.607Z" fill="#0A3C5F"/>
<path fill-rule="evenodd" clip-rule="evenodd" d="M64.7993 391.492C63.4842 391.183 62.1104 391.426 60.7599 391.414C60.677 391.413 60.594 391.406 60.51 391.403L59.989 395.614L66.6497 395.592C66.9948 395.218 67.2348 394.762 67.2779 394.257C67.3952 392.911 66.1144 391.8 64.7993 391.492Z" fill="#0A3C5F"/>
<path fill-rule="evenodd" clip-rule="evenodd" d="M78.0366 394.281C78.0897 392.936 77.5279 391.821 76.9505 391.508C76.3731 391.195 75.4717 388.94 74.276 385.639C73.7285 384.13 70.6814 383.707 69.1594 386.306C68.665 387.15 68.2071 387.697 67.653 387.679C67.1884 387.664 66.6686 386.856 66.2218 387.39C65.828 387.862 65.7218 389.102 65.6223 389.987C65.4497 391.511 65.2938 393.047 65.1301 394.575C65.0936 394.914 65.0582 395.268 65.0471 395.616H77.7579C77.9106 395.241 78.0167 394.787 78.0366 394.281Z" fill="#0A3C5F"/>
<path d="M88.5518 219.209C89.2596 218.758 90.4121 218.421 90.755 219.187C90.9596 219.643 90.6588 220.168 90.3004 220.517C89.9421 220.865 89.4996 221.164 89.316 221.628C88.9997 222.429 89.6578 223.347 90.4719 223.631C91.2848 223.916 92.1785 223.745 93.0224 223.573C95.3098 223.106 97.596 222.639 99.8822 222.172C100.832 221.979 102.043 221.889 102.548 222.718C102.916 223.323 102.681 224.107 102.375 224.746C101.152 227.308 98.8945 229.357 96.2256 230.326C93.5578 231.295 90.5106 231.173 87.9279 229.994C86.3673 229.281 84.9482 228.161 84.1364 226.649C81.8723 222.436 85.5599 221.114 88.5518 219.209Z" fill="#F7B690"/>
<path d="M90.8968 171.014C89.1946 169.369 86.5555 168.77 84.3102 169.52C82.8436 170.01 81.4422 171.325 81.638 172.859C81.7895 174.04 82.9962 174.977 84.1786 174.839C84.2063 176.284 85.5446 177.31 86.7502 178.107C87.4746 178.586 88.1991 179.065 88.9225 179.544C89.5673 179.97 90.3006 180.415 91.0594 180.27C94.6474 179.584 92.5017 172.565 90.8968 171.014Z" fill="#F7B690"/>
<path d="M120.419 343.409C120.583 349.408 126.608 365.318 128.124 382.263C128.341 383.328 133.683 383.289 133.969 382.366C134.693 363.054 138.41 340.384 136.263 328.718C135.547 324.824 128.69 318.035 125.527 322.532C122.645 326.624 120.283 338.431 120.419 343.409Z" fill="#F7B690"/>
<path fill-rule="evenodd" clip-rule="evenodd" d="M125.63 388.991C125.516 387.355 125.405 385.688 125.803 384.098C126.191 382.541 126.755 380.959 127.971 379.911C128.289 380.693 129.095 381.755 129.939 381.789C130.606 381.816 133.909 380.415 134.535 380.646C134.986 380.81 135.715 387.224 137.705 388.584C139.695 389.944 142.027 390.694 144.215 391.706C144.978 392.059 145.745 392.458 146.303 393.086C146.862 393.715 147.178 394.621 146.904 395.416C146.877 395.492 146.837 395.549 146.802 395.615H132.322C131.982 395.122 131.691 394.585 131.409 394.056C130.396 392.161 129.383 390.265 128.371 388.369C127.794 390.734 127.573 393.184 127.71 395.614H126.092C125.938 393.407 125.784 391.2 125.63 388.991Z" fill="#18898D"/>
<path d="M144.817 342.059C144.03 348.011 147.51 364.293 146.336 381.201C146.384 382.273 151.711 382.708 152.142 381.82C155.921 362.768 163.215 340.656 162.925 328.918C162.829 325.001 157.074 317.674 153.211 321.845C149.692 325.641 145.47 337.119 144.817 342.059Z" fill="#F7B690"/>
<path fill-rule="evenodd" clip-rule="evenodd" d="M144.085 388.991C143.971 387.355 143.859 385.688 144.257 384.098C144.646 382.541 145.21 380.959 146.425 379.911C146.744 380.693 147.55 381.755 148.394 381.789C149.061 381.816 152.364 380.415 152.99 380.646C153.441 380.81 154.17 387.224 156.161 388.584C158.15 389.944 160.483 390.694 162.671 391.706C163.434 392.059 164.201 392.458 164.759 393.086C165.318 393.715 165.634 394.621 165.36 395.416C165.333 395.492 165.292 395.549 165.258 395.615H150.777C150.438 395.122 150.147 394.585 149.865 394.056C148.852 392.161 147.839 390.265 146.827 388.369C146.249 390.734 146.029 393.184 146.165 395.614H144.548C144.392 393.407 144.238 391.2 144.085 388.991Z" fill="#18898D"/>
<path fill-rule="evenodd" clip-rule="evenodd" d="M151.7 254.295C140.655 236.714 120.138 244.194 114.816 254.882C111.648 261.244 110.96 269.44 114.221 275.421C116.04 283.911 117.531 281.123 122.282 327.291C124.004 331.275 151.989 330.744 160.689 328.956C163.219 328.722 163.398 328.331 163.466 326.17C166.218 303.963 158.737 265.497 151.7 254.295Z" fill="#2A95BF"/>
<path fill-rule="evenodd" clip-rule="evenodd" d="M150.386 237.365C151.924 233.696 152.257 227.962 153.992 224.382C156.671 218.852 159.169 216.32 159.169 211.693C159.169 204.277 150.794 202.02 146.346 193.558C143.915 188.933 139.571 188.978 135.726 188.978C131.837 188.978 127.284 199.752 127.417 204.183C127.683 213.041 132.932 219.919 131.82 228.841C130.63 238.373 125.055 242.803 117.788 250.704L153.457 257.667C152.561 253.988 146.419 246.82 150.386 237.365Z" fill="#407BFF"/>
<path fill-rule="evenodd" clip-rule="evenodd" d="M130.094 205.159C130.361 208.433 131.275 211.621 132.334 214.731C135.169 223.062 139.076 231.028 143.931 238.368C144.74 239.592 145.608 240.83 146.831 241.643C148.054 242.456 149.726 242.755 150.993 242.013C152.863 240.918 152.988 238.302 152.819 236.141C152.033 226.088 149.788 216.214 147.552 206.382C146.73 202.77 145.783 198.932 143.086 196.395C140.599 194.056 136.007 192.947 132.864 194.65C129.8 196.306 129.851 202.176 130.094 205.159Z" fill="#407BFF"/>
<path fill-rule="evenodd" clip-rule="evenodd" d="M175.13 224.709C176.439 225.197 176.356 227.093 175.822 228.383C174.36 231.922 152.47 244.294 149.48 242.433C147.673 241.308 144.654 237.9 144.713 235.727C144.786 233.103 174.585 224.506 175.13 224.709Z" fill="#407BFF"/>
<path d="M173.787 224.679C175.498 220.85 176.723 216.325 178.461 214.759C179.871 213.488 179.006 216.989 179.049 218.887C181.639 214.362 183.652 214.838 187.245 213.72C190.968 212.562 180.34 228.822 174.387 229.651L173.787 224.679Z" fill="#F7B690"/>
<path d="M136.034 174.007C136.658 172.831 143.5 176.359 143.907 177.204C144.314 178.049 144.745 187.607 146.208 193.574C146.523 194.862 133.76 190.919 134.667 189.36C136.137 186.832 137.638 177.191 136.034 174.007Z" fill="#F4A086"/>
<path d="M155.759 165.393C153.395 155.587 139.982 157.656 136.796 158.633C133.611 159.611 133.529 164.117 133.223 167.435C133.034 169.483 133.775 171.52 134.993 173.145C136.165 174.708 141.267 177.061 141.556 177.123C143.449 180.387 146.526 184.119 149.656 184.073C151.067 184.052 152.345 183.148 153.174 182.007C154.002 180.865 154.456 179.502 154.897 178.163C156.265 174.005 156.784 169.648 155.759 165.393Z" fill="#F7B690"/>
<path d="M132.543 171.091C131.375 169.679 130.462 168.004 130.232 166.186C129.96 164.036 130.674 161.84 131.884 160.041C134.045 156.83 139.623 152.687 144.132 152.595C148.948 152.498 157.218 157.293 156.433 163.251C156.199 165.034 155.219 165.046 153.514 165.616C151.267 166.366 148.252 166.884 146.388 168.347C144.159 170.095 145.15 174.314 140.588 175.685C139.114 176.129 137.598 178.732 136.618 180.759C135.455 179.435 133.672 172.454 132.543 171.091Z" fill="#222B56"/>
<path d="M138.608 171.841C138.369 172.064 138.246 172.384 138.171 172.702C137.937 173.7 138.122 174.789 138.673 175.653C139.224 176.517 140.133 177.145 141.136 177.353C141.534 177.436 141.973 177.448 142.32 177.237C143.514 176.509 142.908 173.975 142.334 172.993C141.739 171.974 139.626 170.896 138.608 171.841Z" fill="#F7B690"/>
<path d="M127.436 174.805C125.523 176.538 124.532 179.236 124.869 181.796C125.187 184.22 126.602 186.45 126.604 188.894C126.606 190.856 125.693 192.697 124.69 194.383C122.154 198.652 118.897 202.49 115.099 205.687C114.683 206.037 114.217 206.492 114.318 207.026C114.442 207.68 115.28 207.865 115.946 207.896C118.462 208.013 121.007 207.972 123.463 207.411C125.918 206.849 128.293 205.735 130.06 203.941C132.028 201.944 133.141 199.19 133.383 196.398C133.626 193.605 133.04 190.779 131.961 188.192C131.332 186.684 130.535 185.237 130.102 183.663C129.669 182.088 129.641 180.309 130.495 178.916C131.245 177.693 132.567 176.929 133.43 175.784C133.838 175.244 134.534 174.129 134.418 173.41C134.278 172.54 133.256 172.707 132.494 172.743C130.641 172.833 128.813 173.556 127.436 174.805Z" fill="#222B56"/>
<path fill-rule="evenodd" clip-rule="evenodd" d="M130.798 174.563C131.09 175.188 131.591 175.69 132.099 176.156C132.536 176.558 132.998 176.952 133.548 177.175C134.097 177.399 134.758 177.427 135.262 177.115C135.894 176.725 136.134 175.892 136.034 175.157C135.858 173.868 134.809 171.648 133.331 171.549C131.603 171.431 129.967 172.786 130.798 174.563Z" fill="#3C79A6"/>
<path d="M255.505 325.498C254.13 328.396 252.258 331.663 249.54 332.474C247.657 333.036 242.363 329.473 241.303 328.042C240.244 326.612 243.529 257.638 245.9 253.439C249.081 247.806 274.187 255.586 273.322 265.358C272.217 277.851 268.658 291.142 264.434 303.528C261.9 310.962 258.916 318.312 255.505 325.498Z" fill="#255880"/>
<path d="M300.443 389.526C297.737 389.933 294.873 389.704 292.14 388.862C291.996 385.625 291.851 382.388 291.708 379.151C291.69 378.742 291.675 378.314 291.859 377.967C292.129 377.459 292.747 377.262 293.329 377.158C295.533 376.762 298.935 376.638 299.295 379.447C299.725 382.804 300.058 386.168 300.443 389.526Z" fill="#F4A086"/>
<path d="M241.126 389.526C238.325 389.933 235.515 389.704 232.975 388.863C233.575 385.626 234.174 382.388 234.774 379.152C234.85 378.743 234.934 378.315 235.197 377.968C235.583 377.46 236.247 377.263 236.853 377.159C239.148 376.763 242.577 376.639 242.293 379.448C241.952 382.804 241.512 386.168 241.126 389.526Z" fill="#F4A086"/>
<path d="M242.04 317.558C245.625 311.826 254.265 307.899 257.895 317.84C263.432 333.002 245.87 361.364 243.257 379.674H233.853C233.592 377.902 240.052 320.738 242.04 317.558Z" fill="#255880"/>
<path fill-rule="evenodd" clip-rule="evenodd" d="M287.543 270.234C285.254 272.038 282.227 272.313 279.387 272.313C256.014 272.313 242.488 264.713 245.721 253.975C249.042 242.947 269.959 244.726 280.885 248.281C283.24 249.048 286.672 249.789 288.281 251.989C290.614 255.175 293.106 265.853 287.543 270.234Z" fill="#0A3C5F"/>
<path d="M218.368 213.732C216.124 214.326 213.388 214.587 211.806 212.887C210.881 211.894 210.607 210.423 210.809 209.081C211.012 207.739 211.638 206.501 212.326 205.33C217.743 196.128 241.612 179.405 251.508 173.654C255.862 171.123 254.364 194.016 252.721 196.524C251.057 199.066 228.781 210.978 218.368 213.732Z" fill="#2D6C9C"/>
<path d="M295.686 325.183C295.191 328.081 291.449 331.663 288.978 332.474C287.265 333.036 280.89 329.474 279.396 328.042C277.903 326.612 261.168 268.747 262.266 264.547C263.737 258.914 268.495 255.266 273.683 254.427C281.224 253.206 289.372 255.829 292.388 265.359C299.668 288.358 290.645 305.541 295.686 325.183Z" fill="#2D6C9C"/>
<path d="M203.439 170.423C202.478 169.135 201.252 167.714 199.647 167.785C198.292 167.844 197.198 169.037 196.822 170.339C196.709 170.734 197.695 175.315 199.011 180.319L207.243 177.032C205.59 173.865 204.209 171.454 203.439 170.423Z" fill="#D5E5FD"/>
<path d="M207.243 177.032L197.427 179.956C200.447 191.439 207.624 209.547 211.616 212.835C214.501 215.212 217.676 214.198 219.931 211.725C222.381 209.04 213.104 188.266 207.243 177.032Z" fill="#2D6C9C"/>
<path d="M276.426 317.558C278.063 311.837 286.385 307.317 292.377 317.84C302.023 334.783 299.77 360.107 300.301 379.674H290.897C290.035 377.902 275.516 320.738 276.426 317.558Z" fill="#2D6C9C"/>
<path d="M243.19 182.889C240.808 186.412 241.672 191.431 242.266 195.504C243.536 204.219 243.166 265.752 243.047 267.125C242.928 268.498 243.525 270.028 244.911 270.649C245.723 271.012 246.672 271.014 247.581 271.008C259.857 270.929 279.292 270.849 291.569 270.769C292.384 270.764 293.256 270.744 293.923 270.327C295.397 269.408 294.887 267.41 294.358 265.882C290.818 255.655 289.069 228.734 292.282 218.422C295.471 208.191 299.386 195.552 297.62 184.854C293.288 179.565 284.431 167.29 266.869 167.29C254.55 167.289 245.327 179.728 243.19 182.889Z" fill="#3C79A6"/>
<path d="M290.949 178.453C289.273 177.953 277.471 178.704 280.621 187.096C284.531 197.514 292.345 205.999 298.866 215.014C300.87 217.784 302.904 220.587 305.546 222.758C308.187 224.928 311.548 226.432 314.955 226.151C316.739 226.004 319.37 225.166 320.246 223.415C320.951 222.007 320.076 219.691 319.755 218.288C318.62 213.311 300.259 181.23 290.949 178.453Z" fill="#3C79A6"/>
<path fill-rule="evenodd" clip-rule="evenodd" d="M306.518 209.513C306.534 209.581 306.544 209.65 306.544 209.721C306.538 209.651 306.525 209.583 306.518 209.513Z" fill="#18898D"/>
<path d="M281.371 247.731C281.207 249.465 284.655 251.032 286.353 251.417C286.844 251.529 289.364 249.013 292.9 246.561L287.504 241.042C284.985 244.191 281.404 247.377 281.371 247.731Z" fill="#D5E5FD"/>
<path d="M256.866 229.951C259.093 218.148 261.369 206.378 264.032 195.692C266.551 185.586 272.613 178.464 280.253 171.826C273.943 166.9 262.938 166.433 257.53 172.869C250.856 180.811 252.977 195.213 253.276 204.734C253.514 212.289 255.699 229.964 256.866 229.951Z" fill="#ACCCFD"/>
<path d="M264.374 176.516C265.254 175.245 266.427 173.901 266.159 172.377C265.983 171.377 265.117 170.539 264.113 170.397C260.385 169.869 262.095 173.921 262.629 175.705C259.049 181.073 254.745 192.336 253.319 205.777C253.703 213.796 255.751 229.963 256.867 229.951C258.385 221.909 259.928 213.891 261.598 206.211C261.915 197.343 262.726 178.894 264.374 176.516Z" fill="#407BFF"/>
<path d="M320.395 220.877C319.948 219.275 318.309 218.333 316.747 217.764C314.123 216.81 310.827 216.163 308.043 216.723C306.123 217.111 305.53 218.855 304.433 220.262C301.688 223.782 290.953 236.548 285.577 243.269L291.459 250.665C300.149 244.639 315.934 229.384 318.576 225.932C319.708 224.455 320.895 222.669 320.395 220.877Z" fill="#3C79A6"/>
<path fill-rule="evenodd" clip-rule="evenodd" d="M264.897 135.716C266.251 134.354 275.615 130.789 278.629 137.547C279.678 139.899 280.069 143.915 279.521 146.43C278.792 149.768 275.59 160.625 277.861 162.185C275.574 162.73 273.048 162.163 271.214 160.692C269.38 159.221 268.278 156.879 268.314 154.528C268.355 151.871 269.748 149.203 268.993 146.656C268.538 145.117 267.369 143.913 266.238 142.773C265.329 141.857 263.8 140.847 263.565 139.54C263.325 138.207 263.965 136.651 264.897 135.716Z" fill="#222B56"/>
<path fill-rule="evenodd" clip-rule="evenodd" d="M256.255 140.015C256.411 138.89 256.77 137.73 257.612 136.968C258.959 135.747 261.102 135.941 262.744 136.72C263.629 137.14 264.537 137.864 264.543 138.844C264.547 139.664 263.915 140.333 263.3 140.878C261.882 142.133 259.846 143.993 257.976 144.493C255.665 145.11 256.071 141.342 256.255 140.015Z" fill="#222B56"/>
<path d="M261.935 154.975C263.138 149.666 267.155 148.422 269.491 149.696C270.988 159.634 272.514 164.051 276.41 169.472C271.566 172.577 263.298 171.999 261.511 169.472C261.439 168.676 261.313 157.72 261.935 154.975Z" fill="#F4A086"/>
<path d="M271.765 142.447C269.513 137.053 262.13 135.745 257.969 140.381C254.16 144.626 253.709 155.814 255.123 158.582C257.596 163.424 266.461 161.295 268.352 158.759C271.12 155.043 273.658 146.983 271.765 142.447Z" fill="#F7B690"/>
<path fill-rule="evenodd" clip-rule="evenodd" d="M256.906 141.451C256.747 142.697 256.819 143.975 256.537 145.2C256.253 146.426 255.507 147.653 254.307 148.028C254.92 147.059 254.917 145.819 254.692 144.695C254.466 143.57 254.039 142.491 253.862 141.359C253.477 138.889 254.385 136.253 256.21 134.544C258.036 132.837 260.726 132.104 263.165 132.653C264.51 132.955 265.822 133.676 266.523 134.863C267.224 136.05 267.147 137.739 266.118 138.657C265.281 139.403 263.977 139.523 262.917 139.277C262.017 139.069 261.742 138.452 261.002 138.044C258.687 136.765 257.145 139.57 256.906 141.451Z" fill="#222B56"/>
<path d="M275.507 152.402C275.255 153.718 274.467 154.922 273.364 155.682C270.207 157.857 269.002 153.319 270.242 151.073C271.721 148.398 276.194 148.824 275.507 152.402Z" fill="#F7B690"/>
<path fill-rule="evenodd" clip-rule="evenodd" d="M264.104 138.5C264.129 139.521 266.845 141.18 267.593 141.875C268.34 142.571 269.188 143.208 269.654 144.117C270.256 145.289 270.114 146.702 269.778 147.976C269.443 149.249 268.929 150.489 268.822 151.802C268.715 153.115 269.119 154.578 270.231 155.285C269.747 154.067 270.267 152.666 271.047 151.614C271.827 150.561 272.858 149.71 273.603 148.632C275.033 146.565 275.24 143.714 274.122 141.462C273.327 139.859 271.141 137.257 269.471 136.63C268.088 136.11 264.05 136.189 264.104 138.5Z" fill="#222B56"/>
<path fill-rule="evenodd" clip-rule="evenodd" d="M215.036 394.282C214.916 392.937 216.192 391.822 217.506 391.509C218.82 391.196 220.194 391.435 221.544 391.418C225.397 391.374 229.14 389.063 230.906 385.64C231.149 385.17 231.385 384.65 231.846 384.39C232.461 384.045 233.257 384.302 233.803 384.75C234.348 385.198 234.733 385.808 235.231 386.307C236.123 387.202 237.397 387.697 238.658 387.68C239.715 387.664 240.898 386.857 241.913 387.391C242.809 387.862 243.05 389.103 243.278 389.988C243.67 391.512 244.025 393.047 244.398 394.576C244.481 394.915 244.561 395.268 244.586 395.617H237.245C236.903 395.136 236.625 393.737 236.479 393.158C236.455 393.752 236.221 395.159 235.843 395.617H215.668C215.324 395.242 215.082 394.787 215.036 394.282Z" fill="#0A3C5F"/>
<path fill-rule="evenodd" clip-rule="evenodd" d="M288.75 394.282C288.697 392.937 289.259 391.822 289.836 391.509C290.414 391.196 291.315 388.94 292.511 385.64C293.058 384.13 296.105 383.708 297.627 386.307C298.122 387.151 298.58 387.697 299.134 387.679C299.598 387.664 300.118 386.857 300.565 387.391C300.959 387.862 301.065 389.103 301.164 389.988C301.337 391.512 301.493 393.047 301.657 394.576C301.693 394.914 301.729 395.268 301.74 395.617H289.029C288.876 395.242 288.77 394.787 288.75 394.282Z" fill="#0A3C5F"/>
<path d="M259.092 174.56C259.873 173.988 260.653 173.418 261.433 172.846C261.981 172.444 262.602 172.022 263.278 172.096C263.947 172.17 264.458 172.706 264.906 173.21C265.677 174.076 266.448 174.942 267.217 175.809C267.581 176.218 267.985 176.651 268.523 176.756C269.217 176.892 269.879 176.442 270.436 176.006C272.919 174.07 275.265 171.959 277.451 169.694C277.651 169.487 277.862 169.245 277.852 168.957C277.843 168.721 277.686 168.52 277.537 168.339C276.568 167.161 275.6 165.983 274.631 164.804C272.477 165.854 270.267 166.888 267.893 167.224C266.066 167.483 264.105 167.286 262.46 166.406C262.186 166.259 261.67 165.752 261.356 165.922C261.052 166.087 260.978 167.079 260.898 167.396C260.616 168.515 260.334 169.632 260.052 170.75C259.733 172.022 259.412 173.29 259.092 174.56Z" fill="#D5E5FD"/>
<path d="M256.753 236.507L256.127 270.191L257.121 270.209L257.747 236.526L256.753 236.507Z" fill="#255880"/>
<path d="M259.858 229.927L258.976 229.466C264.557 218.807 271.946 209.366 280.946 201.393L274.563 196.804L281.026 194.664C282.808 187.178 283.324 180.63 280.166 173.129L281.083 172.743C284.383 180.583 283.808 187.376 281.929 195.165L281.864 195.434L276.726 197.135L282.542 201.315L282.069 201.727C272.951 209.705 265.477 219.193 259.858 229.927Z" fill="#255880"/>
<path d="M254.656 230.175C249.729 220.73 246.671 210.127 245.813 199.511L245.783 199.141L248.071 198.254C247.093 197.682 246.414 196.649 246.134 195.683C245.706 194.202 245.937 192.666 246.25 191.227C247.631 184.89 250.69 179.024 255.098 174.266L255.828 174.942C251.54 179.571 248.564 185.276 247.22 191.44C246.935 192.752 246.721 194.14 247.089 195.407C247.408 196.511 248.373 197.655 249.602 197.703L251.993 197.799L246.834 199.801C247.721 210.162 250.729 220.497 255.537 229.715L254.656 230.175Z" fill="#255880"/>
<path d="M278.897 252.659C278.592 254.226 278.641 255.965 279.558 257.271C280.367 258.424 281.752 259.073 283.147 259.268C284.542 259.462 285.961 259.251 287.342 258.977C288.322 258.783 289.354 258.526 290.05 257.81C290.747 257.094 290.905 255.769 290.116 255.158C289.183 254.433 287.651 255.118 286.726 254.38C285.798 253.64 286.218 252.19 286.172 251.004C286.101 249.212 284.239 247.059 282.302 247.369C280.164 247.711 279.246 250.876 278.897 252.659Z" fill="#F7B690"/>
<path d="M194.072 164.46C195.283 161.532 198.692 159.698 201.802 160.301C201.989 156.917 199.506 148.329 202.364 150.151C203.631 150.958 205.798 162.04 204.679 168.052C204.308 170.04 203.662 172.104 202.136 173.43C197.044 177.851 192.33 168.672 194.072 164.46Z" fill="#F7B690"/>
<path d="M199.5 174.061C199.443 174.061 199.385 174.051 199.329 174.03C198.4 173.687 198.041 172.623 198.101 171.781C198.136 171.272 198.284 170.804 198.424 170.352C198.496 170.121 198.569 169.891 198.624 169.657C198.974 168.173 198.562 166.543 197.548 165.404C197.473 165.32 197.394 165.237 197.316 165.154C197.085 164.911 196.845 164.66 196.659 164.342C196.314 163.757 196.283 163.091 196.577 162.606C197.088 161.766 198.218 161.802 199.03 162.087C201.227 162.858 202.939 164.741 203.499 167C203.565 167.267 203.401 167.537 203.136 167.602C202.865 167.665 202.599 167.503 202.534 167.239C202.062 165.33 200.558 163.676 198.703 163.025C198.206 162.85 197.608 162.828 197.43 163.122C197.312 163.315 197.389 163.62 197.517 163.838C197.646 164.057 197.837 164.257 198.038 164.468C198.124 164.559 198.211 164.65 198.293 164.743C199.519 166.12 200.017 168.091 199.594 169.885C199.533 170.141 199.455 170.395 199.376 170.648C199.246 171.065 199.123 171.458 199.095 171.85C199.06 172.351 199.247 172.94 199.674 173.097C199.932 173.192 200.063 173.477 199.968 173.735C199.892 173.936 199.702 174.061 199.5 174.061Z" fill="#F4A086"/>
<path d="M265.183 241.54C263.928 241.54 262.906 240.519 262.906 239.264C262.906 238.008 263.928 236.987 265.183 236.987C266.438 236.987 267.46 238.008 267.46 239.264C267.46 240.519 266.438 241.54 265.183 241.54ZM265.183 237.981C264.476 237.981 263.901 238.556 263.901 239.262C263.901 239.969 264.476 240.544 265.183 240.544C265.889 240.544 266.466 239.969 266.466 239.262C266.464 238.557 265.889 237.981 265.183 237.981Z" fill="#255880"/>
<path d="M264.541 254.025C263.287 254.025 262.265 253.004 262.265 251.747C262.265 250.492 263.287 249.471 264.541 249.471C265.795 249.471 266.817 250.492 266.817 251.747C266.817 253.004 265.796 254.025 264.541 254.025ZM264.541 250.466C263.834 250.466 263.259 251.041 263.259 251.747C263.259 252.454 263.834 253.029 264.541 253.029C265.248 253.029 265.823 252.454 265.823 251.747C265.823 251.041 265.248 250.466 264.541 250.466Z" fill="#255880"/>
<path d="M257.394 245.546C257.777 254.224 257.851 262.828 261.374 270.768C259.427 270.841 257.028 271.87 255.38 270.588C253.562 269.173 254.816 265.636 255.058 263.749C255.797 257.986 257.672 251.336 257.394 245.546Z" fill="#255880"/>
<path d="M195.806 143.704C201.561 143.277 204.094 133.001 207.938 120.32C209.621 114.77 190.356 116.349 184.708 117.72C182.122 118.348 188.728 144.23 195.806 143.704Z" fill="#758798"/>
<path fill-rule="evenodd" clip-rule="evenodd" d="M218.024 102.857C218.54 115.491 208.717 126.15 196.085 126.665C183.451 127.18 172.792 117.358 172.277 104.725C171.761 92.0919 181.584 81.4328 194.216 80.9174C206.85 80.4009 217.509 90.2238 218.024 102.857Z" fill="#407BFF"/>
<path d="M195.127 127.679C189.116 127.679 183.41 125.455 178.962 121.357C174.27 117.033 171.543 111.14 171.283 104.765C170.746 91.6038 181.015 80.4592 194.176 79.9228C207.351 79.3885 218.483 89.6561 219.019 102.815C219.557 115.976 209.287 127.12 196.126 127.658C195.792 127.672 195.459 127.679 195.127 127.679ZM195.172 81.8915C194.867 81.8915 194.564 81.8982 194.258 81.9103C182.193 82.4037 172.778 92.6192 173.27 104.684C173.509 110.53 176.01 115.93 180.31 119.895C184.612 123.859 190.206 125.9 196.044 125.671C208.109 125.178 217.524 114.962 217.032 102.898C216.793 97.0534 214.292 91.6514 209.991 87.6873C205.915 83.9311 200.682 81.8915 195.172 81.8915Z" fill="#F0C30F"/>
<path d="M198.661 124.137C197.961 124.137 197.336 123.642 197.199 122.928C196.112 117.319 195.281 111.446 195.927 105.643C195.652 105.642 195.377 105.637 195.103 105.629C194.853 111.163 194.506 116.516 192.997 122.676C192.801 123.476 191.995 123.965 191.193 123.77C190.392 123.573 189.903 122.766 190.099 121.966C191.556 116.03 191.876 111.008 192.126 105.414C190.657 105.233 188.94 104.881 187.337 104.043C185.209 102.932 183.701 101.129 183.2 99.1004C182.582 96.604 183.642 93.9417 185.721 92.7704C187.627 91.6953 190.174 91.9685 192.054 93.4551C193.511 94.6054 194.547 96.437 194.972 98.6137C195.239 99.9775 195.262 101.328 195.225 102.651C195.617 102.662 196.009 102.665 196.398 102.66C196.658 101.399 196.998 100.144 197.434 98.8991C197.818 97.7963 198.299 96.5299 199.153 95.457C200.219 94.1154 201.685 93.3433 203.172 93.34C203.177 93.34 203.182 93.34 203.186 93.34C204.354 93.34 205.482 93.8344 206.365 94.7336C207.34 95.728 207.905 97.1272 207.876 98.4765C207.828 100.659 206.456 102.789 204.296 104.039C202.542 105.054 200.568 105.379 198.948 105.522C198.246 111.1 199.06 116.857 200.127 122.364C200.283 123.173 199.756 123.956 198.946 124.112C198.851 124.128 198.755 124.137 198.661 124.137ZM203.186 96.3208C203.183 96.3208 203.181 96.3208 203.181 96.3208C202.621 96.3219 201.971 96.7024 201.487 97.3119C200.925 98.0198 200.568 98.9676 200.25 99.879C199.952 100.732 199.704 101.592 199.498 102.459C200.601 102.313 201.795 102.037 202.803 101.454C204.047 100.733 204.869 99.5384 204.893 98.4091C204.906 97.8549 204.653 97.2477 204.236 96.8208C204.052 96.635 203.672 96.3208 203.186 96.3208ZM188.266 95.1064C187.872 95.1064 187.499 95.1916 187.184 95.3696C186.282 95.8784 185.803 97.2024 186.095 98.3836C186.387 99.566 187.367 100.694 188.717 101.399C189.664 101.893 190.78 102.218 192.247 102.42C192.273 101.3 192.248 100.224 192.044 99.1844C191.755 97.7078 191.101 96.5045 190.204 95.7955C189.634 95.3453 188.924 95.1064 188.266 95.1064Z" fill="white"/>
<path d="M195.638 132.545C193.508 132.545 191.351 132.185 189.52 131.604C188.997 131.439 188.707 130.88 188.873 130.356C189.039 129.834 189.596 129.544 190.122 129.709C194.041 130.952 199.371 131.006 201.97 128.702C202.381 128.338 203.009 128.375 203.374 128.786C203.738 129.198 203.701 129.826 203.289 130.19C201.388 131.878 198.538 132.545 195.638 132.545Z" fill="#96A4B1"/>
<path d="M195.107 136.483C193.975 136.483 192.792 136.381 191.594 136.175C191.053 136.082 190.69 135.567 190.784 135.025C190.877 134.485 191.391 134.118 191.933 134.215C195.032 134.749 197.957 134.519 199.962 133.586C200.462 133.354 201.051 133.571 201.282 134.069C201.515 134.566 201.299 135.158 200.8 135.39C199.248 136.112 197.27 136.483 195.107 136.483Z" fill="#96A4B1"/>
<path d="M194.577 140.424C194.229 140.424 193.875 140.414 193.517 140.395C192.97 140.365 192.55 139.896 192.579 139.348C192.608 138.799 193.084 138.383 193.626 138.409C195.371 138.503 197.001 138.34 198.332 137.937C198.861 137.776 199.413 138.074 199.573 138.598C199.732 139.123 199.436 139.68 198.91 139.839C197.641 140.225 196.159 140.424 194.577 140.424Z" fill="#96A4B1"/>
<path d="M198.971 77.2006C198.925 77.2006 198.879 77.1972 198.832 77.1917C198.288 77.1165 197.909 76.6143 197.985 76.0702L198.414 72.9743C198.489 72.4301 198.985 72.0519 199.536 72.126C200.08 72.2012 200.459 72.7033 200.383 73.2475L199.954 76.3434C199.885 76.84 199.459 77.2006 198.971 77.2006Z" fill="#407BFF"/>
<path d="M191.7 77.1519C191.206 77.1519 190.778 76.7836 190.715 76.2803L190.328 73.1789C190.259 72.6337 190.646 72.137 191.192 72.0696C191.733 71.9977 192.232 72.3881 192.302 72.9323L192.689 76.0337C192.757 76.5779 192.371 77.0756 191.825 77.1431C191.782 77.1497 191.741 77.1519 191.7 77.1519Z" fill="#407BFF"/>
<path d="M184.667 78.987C184.274 78.987 183.903 78.7536 183.746 78.3665L182.569 75.4719C182.362 74.9631 182.606 74.3836 183.115 74.1767C183.625 73.971 184.204 74.2132 184.412 74.7231L185.588 77.6177C185.795 78.1265 185.551 78.706 185.042 78.9129C184.918 78.9637 184.792 78.987 184.667 78.987Z" fill="#407BFF"/>
<path d="M178.348 82.5795C178.047 82.5795 177.75 82.4434 177.554 82.1857L175.668 79.6938C175.337 79.2558 175.424 78.632 175.862 78.3002C176.301 77.9672 176.922 78.0557 177.255 78.4926L179.141 80.9846C179.472 81.4225 179.385 82.0464 178.947 82.3782C178.767 82.5142 178.556 82.5795 178.348 82.5795Z" fill="#407BFF"/>
<path d="M173.17 87.6852C172.958 87.6852 172.742 87.6166 172.561 87.4751L170.094 85.5561C169.661 85.2187 169.583 84.5938 169.921 84.1602C170.258 83.7288 170.882 83.6481 171.317 83.9866L173.783 85.9056C174.216 86.2429 174.294 86.8678 173.957 87.3014C173.76 87.5536 173.467 87.6852 173.17 87.6852Z" fill="#407BFF"/>
<path d="M169.495 93.9578C169.366 93.9578 169.235 93.9323 169.108 93.8792L166.229 92.6637C165.723 92.4502 165.486 91.8673 165.7 91.3607C165.914 90.8542 166.496 90.6175 167.002 90.831L169.881 92.0465C170.386 92.26 170.624 92.8429 170.411 93.3494C170.25 93.7288 169.882 93.9578 169.495 93.9578Z" fill="#407BFF"/>
<path d="M167.567 100.966C167.523 100.966 167.475 100.962 167.43 100.957L164.334 100.529C163.789 100.453 163.409 99.9513 163.486 99.4071C163.561 98.8641 164.055 98.4836 164.606 98.5588L167.702 98.9868C168.247 99.062 168.627 99.5642 168.55 100.108C168.482 100.605 168.057 100.966 167.567 100.966Z" fill="#407BFF"/>
<path d="M164.416 108.623C163.922 108.623 163.494 108.254 163.431 107.751C163.363 107.206 163.749 106.709 164.295 106.641L167.395 106.253C167.947 106.185 168.436 106.572 168.505 107.117C168.573 107.663 168.187 108.159 167.642 108.228L164.541 108.615C164.499 108.62 164.457 108.623 164.416 108.623Z" fill="#407BFF"/>
<path d="M166.458 116.447C166.065 116.447 165.694 116.212 165.537 115.826C165.33 115.318 165.575 114.738 166.083 114.531L168.978 113.354C169.488 113.147 170.066 113.392 170.274 113.901C170.481 114.409 170.235 114.989 169.728 115.196L166.833 116.373C166.709 116.422 166.583 116.447 166.458 116.447Z" fill="#407BFF"/>
<path d="M170.453 123.476C170.152 123.476 169.855 123.34 169.659 123.082C169.328 122.644 169.414 122.02 169.852 121.689L172.344 119.804C172.782 119.472 173.405 119.559 173.738 119.996C174.069 120.434 173.982 121.058 173.544 121.39L171.052 123.276C170.873 123.409 170.662 123.476 170.453 123.476Z" fill="#407BFF"/>
<path d="M176.13 129.231C175.918 129.231 175.702 129.162 175.521 129.021C175.087 128.683 175.01 128.058 175.347 127.625L177.266 125.158C177.605 124.727 178.228 124.647 178.662 124.985C179.096 125.322 179.173 125.947 178.836 126.38L176.917 128.847C176.72 129.099 176.427 129.231 176.13 129.231Z" fill="#407BFF"/>
<path d="M213.841 129.483C213.54 129.483 213.243 129.347 213.047 129.089L211.161 126.597C210.83 126.159 210.917 125.536 211.355 125.205C211.794 124.872 212.417 124.96 212.748 125.397L214.634 127.889C214.965 128.327 214.879 128.951 214.441 129.282C214.261 129.418 214.05 129.483 213.841 129.483Z" fill="#407BFF"/>
<path d="M219.595 123.804C219.383 123.804 219.167 123.736 218.986 123.594L216.519 121.675C216.086 121.338 216.008 120.713 216.346 120.279C216.684 119.848 217.307 119.768 217.741 120.106L220.208 122.025C220.642 122.362 220.719 122.987 220.382 123.421C220.185 123.673 219.892 123.804 219.595 123.804Z" fill="#407BFF"/>
<path d="M223.686 116.829C223.557 116.829 223.426 116.804 223.299 116.751L220.42 115.535C219.915 115.322 219.677 114.739 219.891 114.232C220.105 113.726 220.688 113.489 221.193 113.703L224.072 114.918C224.578 115.132 224.816 115.714 224.602 116.221C224.442 116.602 224.073 116.829 223.686 116.829Z" fill="#407BFF"/>
<path d="M225.831 109.033C225.786 109.033 225.74 109.03 225.693 109.024L222.598 108.595C222.054 108.52 221.674 108.018 221.751 107.474C221.826 106.929 222.327 106.548 222.872 106.625L225.967 107.054C226.511 107.13 226.891 107.632 226.815 108.176C226.746 108.674 226.32 109.033 225.831 109.033Z" fill="#407BFF"/>
<path d="M222.783 101.335C222.288 101.335 221.86 100.967 221.797 100.464C221.73 99.9192 222.116 99.4225 222.66 99.354L225.76 98.9669C226.307 98.8983 226.802 99.2854 226.871 99.8307C226.938 100.376 226.552 100.873 226.007 100.94L222.907 101.327C222.866 101.333 222.824 101.335 222.783 101.335Z" fill="#407BFF"/>
<path d="M220.949 94.3013C220.556 94.3013 220.184 94.0669 220.027 93.6808C219.82 93.1721 220.066 92.5925 220.574 92.3856L223.468 91.2088C223.978 91.0031 224.557 91.2464 224.764 91.7552C224.971 92.264 224.726 92.8436 224.218 93.0504L221.324 94.2272C221.201 94.2781 221.075 94.3013 220.949 94.3013Z" fill="#407BFF"/>
<path d="M217.358 87.9817C217.057 87.9817 216.759 87.8456 216.564 87.5879C216.233 87.1499 216.319 86.5261 216.757 86.1943L219.249 84.3085C219.687 83.9755 220.31 84.064 220.643 84.5009C220.973 84.9389 220.887 85.5627 220.449 85.8934L217.957 87.7793C217.777 87.9153 217.567 87.9817 217.358 87.9817Z" fill="#407BFF"/>
<path d="M212.25 82.806C212.038 82.806 211.822 82.7374 211.641 82.5958C211.208 82.2585 211.13 81.6335 211.467 81.2L213.386 78.7335C213.723 78.3021 214.348 78.2225 214.782 78.5598C215.215 78.8972 215.293 79.5221 214.955 79.9557L213.036 82.4222C212.84 82.6743 212.545 82.806 212.25 82.806Z" fill="#407BFF"/>
<path d="M205.98 79.1296C205.85 79.1296 205.72 79.1041 205.594 79.051C205.088 78.8376 204.85 78.2536 205.064 77.7481L206.279 74.8691C206.493 74.3625 207.077 74.1258 207.581 74.3393C208.087 74.5527 208.324 75.1367 208.111 75.6422L206.895 78.5213C206.735 78.9017 206.367 79.1296 205.98 79.1296Z" fill="#407BFF"/>
<path d="M357.878 337.886C360.068 343.66 360.42 360.787 365.577 377.442C365.783 378.528 360.55 380.218 359.909 379.429C351.636 361.24 339.122 340.815 336.647 328.991C335.821 325.045 339.858 316.352 344.709 319.618C349.127 322.593 356.06 333.093 357.878 337.886Z" fill="#F4A086"/>
<path fill-rule="evenodd" clip-rule="evenodd" d="M370.868 383.74C370.362 382.131 369.84 380.492 368.861 379.12C367.902 377.776 366.767 376.474 365.209 375.929C365.199 376.797 364.826 378.118 364.031 378.468C363.402 378.745 359.714 378.648 359.2 379.103C358.855 379.409 360.327 385.02 359.391 387.433C359.391 387.433 356.029 389.977 354.296 391.2C353.589 391.699 352.888 392.245 352.439 392.984C351.99 393.723 351.839 394.698 352.263 395.453C352.304 395.526 352.356 395.574 352.403 395.636L365.211 393.289L366.956 392.602C367.095 392.002 367.172 391.378 367.244 390.768C367.499 388.571 367.755 386.374 368.011 384.179C369.455 386.225 370.587 388.488 371.373 390.866L372.921 390.257C372.237 388.083 371.553 385.912 370.868 383.74Z" fill="#6A60D1"/>
<path d="M366.034 259.633C366.745 264.523 365.81 269.494 364.702 274.311C361.205 289.503 354.526 311.547 347.625 325.527C346.785 327.228 336.816 330.058 336.541 328.299C333.739 310.374 337.722 278.624 343.178 261.32C344.35 257.604 345.778 253.828 348.484 251.025C356.359 242.871 364.74 250.738 366.034 259.633Z" fill="#F4A086"/>
<path d="M381.705 341.907C381.969 348.077 376.922 364.447 376.586 381.879C376.44 382.974 370.941 382.935 370.58 381.985C368.441 362.118 362.978 338.794 364.344 326.792C364.8 322.787 371.363 315.803 374.944 320.428C378.202 324.639 381.485 336.785 381.705 341.907Z" fill="#F7B690"/>
<path fill-rule="evenodd" clip-rule="evenodd" d="M379.381 388.8C379.499 387.118 379.613 385.402 379.205 383.765C378.805 382.164 378.225 380.537 376.975 379.458C376.647 380.264 375.817 381.355 374.95 381.391C374.264 381.418 370.866 379.978 370.221 380.214C369.758 380.384 369.007 386.982 366.959 388.381C364.912 389.78 362.513 390.552 360.262 391.593C359.477 391.956 358.688 392.367 358.113 393.013C357.538 393.659 357.213 394.592 357.495 395.409C357.523 395.487 357.565 395.545 357.599 395.615H372.496C372.846 395.107 373.146 394.555 373.435 394.012C374.477 392.062 375.519 390.111 376.562 388.161C377.156 390.593 377.382 393.114 377.242 395.615H378.906C379.065 393.344 379.223 391.072 379.381 388.8Z" fill="#7368E3"/>
<path fill-rule="evenodd" clip-rule="evenodd" d="M350.741 269.522C354.655 274.374 366.456 278.334 369.794 276.256C388.055 264.888 387.838 267.039 389.229 261.511C390.306 257.226 387.995 252.896 385.768 249.08C383.78 245.676 363.351 242.495 354.163 244.885C352.3 245.369 349.424 244.711 348.648 246.532C347.162 250.009 346.194 253.339 343.925 259.083C342.647 262.316 347.04 264.934 350.741 269.522Z" fill="#222B56"/>
<path d="M386.72 250.755C380.223 241.866 364.845 243.328 360.135 254.893C354.926 267.685 361.317 318.127 364.242 327.872C365.575 330.408 377.022 335.084 379.087 330.31C380.623 315.394 385.174 287.663 387.396 280.11C389.067 274.432 393.459 259.975 386.72 250.755Z" fill="#F7B690"/>
<path fill-rule="evenodd" clip-rule="evenodd" d="M331.558 224.768C331.176 225.961 338.781 227.117 339.83 226.183C349.535 217.539 361.849 205.596 368.071 194.185C369.142 192.222 364.402 185.422 364.686 183.204C354.235 186.23 334.967 214.117 331.558 224.768Z" fill="#EFBD33"/>
<path fill-rule="evenodd" clip-rule="evenodd" d="M335.619 305.87C340.532 309.38 383.721 311.801 389.502 313.544C389.025 303.776 389.275 287.896 390.911 278.254C391.845 272.745 393.127 267.19 392.574 261.63C392.021 256.07 389.208 250.343 384.11 248.054C378.779 245.66 372.619 247.539 366.776 247.606C363.827 247.64 360.876 247.182 358.07 246.278C355.976 245.605 353.257 243.503 350.992 244.411C348.864 245.264 347.865 248.296 346.942 250.149C345.419 253.206 334.388 284.464 335.619 305.87Z" fill="#6A60D1"/>
<path fill-rule="evenodd" clip-rule="evenodd" d="M351.004 231.064C349.998 224.276 347.442 217.62 347.945 210.777C348.341 205.376 352.784 200.855 355.613 195.825C356.956 193.439 356.193 189.451 357.806 187.451C361.136 183.326 365.964 182.653 371.008 181.024C384.818 176.564 388.397 197.221 387.826 201.769C387.255 206.317 384.404 212.707 383.583 217.217C381.482 228.767 381.553 238.125 385.767 249.082C385.96 249.582 358.666 253.15 353.559 252.122C348.383 251.08 347.72 249.15 349.496 244.575C351.204 240.165 351.702 235.769 351.004 231.064Z" fill="#407BFF"/>
<path d="M338.85 219.476C349.649 218.377 369.264 221.101 376.374 221.547C376.079 229.788 335.201 231.497 332.566 228.746C326.582 222.5 335.411 219.825 338.85 219.476Z" fill="#F4A086"/>
<path fill-rule="evenodd" clip-rule="evenodd" d="M381.565 197.799C381.903 210.729 382.24 223.66 382.579 236.59C382.607 237.642 382.664 238.778 383.33 239.593C384.701 241.271 387.735 240.691 389.15 239.051C395.252 231.972 397.786 203.91 395.894 198.818C394.338 194.634 391.316 190.485 387.15 188.6C381.348 185.976 381.446 193.277 381.565 197.799Z" fill="#407BFF"/>
<path d="M344.144 217.868C346.233 216.475 383.948 227.65 390.351 233.786C392.094 235.456 389.755 240.06 386.499 240.549C384.314 240.877 381.109 240.304 379.276 239.772C364.62 235.515 337.879 222.881 344.144 217.868Z" fill="#F7B690"/>
<path fill-rule="evenodd" clip-rule="evenodd" d="M360.41 147.593C361.441 145.03 363.933 143.116 366.675 142.781C369.417 142.446 372.297 143.702 373.915 145.94C374.739 147.079 375.281 148.47 376.408 149.311C377.891 150.416 379.93 150.251 381.723 150.704C384.444 151.394 386.685 153.71 387.283 156.453C388.494 162.01 383.392 167.454 384.451 173.041C384.934 175.585 386.636 177.712 388.403 179.606C390.17 181.499 392.094 183.328 393.212 185.664C394.33 188 394.448 191.039 392.728 192.975C391.498 194.358 389.606 194.916 387.798 195.315C385.784 195.76 383.726 195.825 381.663 195.825C376.891 195.825 376.891 186 376.648 178.402C376.507 174.006 366.33 173.528 365.087 169.308C364.405 166.995 365.179 164.507 364.946 162.106C364.718 159.764 363.515 158.111 362.025 156.401C360.911 155.122 360.161 153.165 359.94 151.51C359.766 150.192 359.914 148.829 360.41 147.593Z" fill="#222B56"/>
<path d="M366.796 172.066C367.301 175.147 367.107 178.341 366.231 181.337C365.96 182.265 365.644 183.343 366.202 184.132C366.734 184.887 367.793 184.986 368.716 185.015C370.261 185.065 371.837 185.11 373.319 184.67C374.801 184.23 376.199 183.212 376.686 181.745C377.088 180.533 376.826 179.214 376.56 177.965C376.051 175.57 375.542 173.175 375.034 170.78C374.884 170.078 374.718 169.341 374.237 168.808C373.432 167.913 371.969 167.905 370.9 168.462C369.833 169.018 369.068 170.006 368.339 170.964L366.796 172.066Z" fill="#F4A086"/>
<path d="M362.248 171.028C361.476 169.481 361.284 167.719 361.109 165.999C360.869 163.633 360.642 161.231 361.048 158.887C361.455 156.543 362.578 154.227 364.54 152.882C366.908 151.258 370.101 151.317 372.821 152.236C375.184 153.035 377.456 154.569 378.385 156.883C378.89 158.14 378.961 159.523 379.027 160.877C379.112 162.635 379.192 164.438 378.654 166.115C378.059 167.971 376.741 169.533 375.185 170.707C373.63 171.882 371.84 172.705 370.039 173.45C368.999 173.881 367.928 174.293 366.804 174.364C364.566 174.504 363.177 172.892 362.248 171.028Z" fill="#F7B690"/>
<path fill-rule="evenodd" clip-rule="evenodd" d="M371.901 156.445C372.903 158.703 372.515 161.547 374.088 163.451C375.367 164.997 377.834 165.39 379.529 164.315C380.82 163.495 381.58 161.975 381.667 160.449C381.753 158.923 381.22 157.403 380.371 156.13C379.523 154.857 378.374 153.812 377.151 152.894C375.267 151.48 373.148 150.326 370.844 149.839C369.384 149.529 367.852 149.502 366.391 149.827C365.289 150.072 363.155 150.672 362.859 151.976C362.567 153.264 363.702 153.501 364.618 153.246C366.012 152.86 367.259 152.751 368.647 153.307C370.083 153.882 371.275 155.034 371.901 156.445Z" fill="#222B56"/>
<path d="M377.392 162.951C377.829 162.795 378.285 162.671 378.749 162.69C379.212 162.708 379.686 162.883 379.982 163.241C380.381 163.721 380.385 164.422 380.226 165.026C379.827 166.55 378.484 167.649 376.873 167.33C375.652 167.088 375.178 165.986 375.404 164.812C375.596 163.81 376.499 163.271 377.392 162.951Z" fill="#F7B690"/>
<path d="M379.276 216.664C380.672 218.69 375.934 219.88 376.249 221.118C376.523 222.193 383.237 222.354 384.832 222.765C385.606 222.964 386.508 223.294 386.768 224.232C387.014 225.122 386.527 226.07 385.963 226.689C384.578 228.214 382.644 228.758 380.804 228.654C378.963 228.551 377.179 227.864 375.419 227.181C374.49 226.82 373.545 226.451 372.748 225.749C371.122 224.315 370.764 221.247 372.436 219.62C374.145 217.958 377.258 217.484 379.276 216.664Z" fill="#F7B690"/>
<path d="M332.009 222.038C333.674 221.044 336.051 220.041 337.129 219.917C336.105 220.932 333.957 223.504 334.548 224.444C335.119 225.355 337.808 221.601 338.882 221.446C340.996 221.139 343.331 222.253 345.315 221.281C346.811 220.549 347.837 218.443 346.625 217.132C341.196 211.268 332.694 217.087 332.009 222.038Z" fill="#F7B690"/>
<defs>
<linearGradient id="paint0_linear_2099_2582" x1="20.7627" y1="373.621" x2="103.067" y2="317.313" gradientUnits="userSpaceOnUse">
<stop stop-color="#FEFFE6"/>
<stop offset="0.8765" stop-color="#D0E9FF"/>
</linearGradient>
<linearGradient id="paint1_linear_2099_2582" x1="180.411" y1="171.71" x2="341.868" y2="364.864" gradientUnits="userSpaceOnUse">
<stop stop-color="#FEFFE6"/>
<stop offset="0.8765" stop-color="#D0E9FF"/>
</linearGradient>
<linearGradient id="paint2_linear_2099_2582" x1="153.008" y1="38.8797" x2="152.967" y2="349.551" gradientUnits="userSpaceOnUse">
<stop offset="0.1064" stop-color="white"/>
<stop offset="0.4098" stop-color="#D0E9FF"/>
<stop offset="0.951" stop-color="#A4BAF0"/>
</linearGradient>
<linearGradient id="paint3_linear_2099_2582" x1="164.978" y1="-2.86782" x2="164.951" y2="190.102" gradientUnits="userSpaceOnUse">
<stop offset="0.1064" stop-color="white"/>
<stop offset="0.4098" stop-color="#D0E9FF"/>
<stop offset="0.951" stop-color="#A4BAF0"/>
</linearGradient>
<linearGradient id="paint4_linear_2099_2582" x1="278.913" y1="-24.9598" x2="278.913" y2="165.882" gradientUnits="userSpaceOnUse">
<stop offset="0.1235" stop-color="#D0E9FF"/>
<stop offset="1" stop-color="#FEFFE6"/>
</linearGradient>
<linearGradient id="paint5_linear_2099_2582" x1="82.1128" y1="-24.96" x2="82.1128" y2="165.882" gradientUnits="userSpaceOnUse">
<stop offset="0.1235" stop-color="#D0E9FF"/>
<stop offset="1" stop-color="#FEFFE6"/>
</linearGradient>
<linearGradient id="paint6_linear_2099_2582" x1="258.147" y1="-24.9592" x2="258.147" y2="165.882" gradientUnits="userSpaceOnUse">
<stop offset="0.1235" stop-color="#D0E9FF"/>
<stop offset="1" stop-color="#FEFFE6"/>
</linearGradient>
<linearGradient id="paint7_linear_2099_2582" x1="90.9868" y1="-24.9592" x2="90.9868" y2="165.882" gradientUnits="userSpaceOnUse">
<stop offset="0.1235" stop-color="#D0E9FF"/>
<stop offset="1" stop-color="#FEFFE6"/>
</linearGradient>
<linearGradient id="paint8_linear_2099_2582" x1="7.84519" y1="201.979" x2="201.299" y2="201.979" gradientUnits="userSpaceOnUse">
<stop stop-color="#FEFFE6"/>
<stop offset="0.8765" stop-color="#D0E9FF"/>
</linearGradient>
</defs>
</svg>
