<svg width="12" height="10" viewBox="0 0 12 10" fill="none" xmlns="http://www.w3.org/2000/svg">
<path d="M7.31749 9.99389C7.4429 9.97681 7.55919 9.91312 7.64702 9.81342L11.5429 5.49803C11.6195 5.4422 11.6823 5.36626 11.7255 5.27709L12 4.99642L11.7073 4.6952L11.6892 4.67529C11.6787 4.64757 11.6664 4.62073 11.6523 4.59501L11.616 4.5751C11.5891 4.53764 11.5583 4.50379 11.5241 4.47426L7.64644 0.179429C7.59482 0.122603 7.5335 0.0775051 7.46598 0.0467167C7.39846 0.0159273 7.32607 5.24521e-05 7.25296 0C7.17984 -5.14984e-05 7.10743 0.0157213 7.03988 0.0464134C6.97232 0.0771065 6.91095 0.122118 6.85926 0.178871C6.80758 0.235624 6.76661 0.303004 6.73869 0.377154C6.71077 0.451305 6.69645 0.530771 6.69655 0.611002C6.69665 0.691233 6.71117 0.770655 6.73928 0.84472C6.76739 0.918785 6.80853 0.98604 6.86036 1.04263L9.89638 4.39398H0.622669C0.544784 4.38315 0.465689 4.39063 0.390643 4.41594C0.315598 4.44124 0.246321 4.48379 0.18742 4.54075C0.128518 4.5977 0.0813427 4.66777 0.0490274 4.74628C0.0167122 4.82479 0 4.90995 0 4.9961C0 5.08225 0.0167122 5.16741 0.0490274 5.24592C0.0813427 5.32443 0.128518 5.3945 0.18742 5.45146C0.246321 5.50841 0.315598 5.55096 0.390643 5.57627C0.465689 5.60157 0.544784 5.60906 0.622669 5.59823H9.89638L6.86036 8.95085C6.77471 9.03921 6.71695 9.1552 6.69544 9.28201C6.67393 9.40883 6.68981 9.53986 6.74075 9.65611C6.7917 9.77235 6.87507 9.86776 6.97877 9.9285C7.08248 9.98924 7.20112 10.0121 7.31749 9.99389Z" fill="#0085F9"/>
</svg>
