<svg width="72" height="72" viewBox="0 0 72 72" fill="none" xmlns="http://www.w3.org/2000/svg">
<circle opacity="0.15" cx="36" cy="36" r="36" fill="#0085F9"/>
<circle cx="36" cy="36" r="26" fill="#002D62"/>
<path d="M25.875 47.625H39.5287L42.75 44.4037V24.375H25.875V47.625ZM39.75 46.3463V44.625H41.4713L39.75 46.3463ZM26.625 25.125H42V43.875H39V46.875H26.625V25.125ZM30 34.875H29.25V32.25H30V34.875ZM31.875 34.875H31.125V28.875H31.875V34.875ZM33.75 34.875H33V30.375H33.75V34.875ZM35.625 34.875H34.875V26.625H35.625V34.875ZM37.5 34.875H36.75V27.75H37.5V34.875ZM39.375 34.875H38.625V30.375H39.375V34.875ZM34.47 39H34.5V38.625C34.5 37.9288 34.2234 37.2611 33.7312 36.7688C33.2389 36.2766 32.5712 36 31.875 36H31.5V36.03C31.0174 36.099 30.5636 36.301 30.1893 36.6133C29.8151 36.9257 29.5352 37.3361 29.3811 37.7986C29.2269 38.261 29.2046 38.7573 29.3166 39.2317C29.4286 39.7062 29.6706 40.14 30.0153 40.4847C30.36 40.8294 30.7938 41.0714 31.2683 41.1834C31.7427 41.2954 32.239 41.2731 32.7014 41.1189C33.1639 40.9648 33.5743 40.6849 33.8867 40.3107C34.199 39.9364 34.401 39.4826 34.47 39ZM31.875 40.5C31.41 40.5005 30.9615 40.3281 30.6164 40.0165C30.2713 39.7048 30.0543 39.2761 30.0076 38.8134C29.9609 38.3508 30.0877 37.8873 30.3635 37.5129C30.6393 37.1386 31.0443 36.88 31.5 36.7875V39H33.7125C33.6261 39.4235 33.3959 39.8041 33.0611 40.0775C32.7262 40.3508 32.3072 40.5001 31.875 40.5ZM32.25 38.25V36.7875C32.3548 36.8108 32.4576 36.8421 32.5575 36.8812L32.6475 36.9225C32.7202 36.9561 32.7904 36.995 32.8575 37.0387L32.94 37.0912C33.1162 37.2153 33.2697 37.3688 33.3937 37.545L33.4462 37.6275C33.49 37.6946 33.5289 37.7648 33.5625 37.8375C33.5747 37.8682 33.5885 37.8982 33.6038 37.9275C33.6429 38.0274 33.6742 38.1302 33.6975 38.235H32.25V38.25ZM35.25 36H39.375V36.75H35.25V36ZM35.25 37.875H39.375V38.625H35.25V37.875ZM39.375 40.5H35.25V39.75H39.375V40.5ZM29.25 44.25H31.5V42H29.25V44.25ZM30 42.75H30.75V43.5H30V42.75ZM32.625 44.25H34.875V42H32.625V44.25ZM33.375 42.75H34.125V43.5H33.375V42.75ZM36 44.25H38.25V42H36V44.25ZM36.75 42.75H37.5V43.5H36.75V42.75ZM44.25 26.625V43.125C44.31 44.2987 44.6625 45.375 45.375 45.375C46.0875 45.375 46.4287 44.2987 46.5 43.125V26.625H44.25ZM45.375 44.5912C45.1307 44.141 45.0018 43.6372 45 43.125H45.75C45.7482 43.6372 45.6193 44.141 45.375 44.5912ZM45.75 42.375H45V29.25H45.75V42.375ZM45.75 28.5H45V27.375H45.75V28.5Z" fill="white"/>
</svg>
