<svg width="72" height="72" viewBox="0 0 72 72" fill="none" xmlns="http://www.w3.org/2000/svg">
<circle opacity="0.15" cx="36" cy="36" r="36" fill="#0085F9"/>
<circle cx="36" cy="36" r="26" fill="#002D62"/>
<path d="M27.3919 47.0666C27.5002 47.1173 27.6206 47.1363 27.7392 47.1214C27.8579 47.1064 27.9698 47.0582 28.0622 46.9823L29.5659 45.7282L31.3773 47.1902L31.3817 47.1936C31.4931 47.2813 31.6309 47.3288 31.7727 47.3285C31.9145 47.3282 32.052 47.28 32.163 47.1918L32.1675 47.1882L33.9581 45.7271L35.7487 47.1882L35.7532 47.1918C35.8642 47.28 36.0017 47.3281 36.1435 47.3285C36.2853 47.3288 36.423 47.2813 36.5345 47.1936L36.5388 47.1902L38.35 45.7282L39.8534 46.9822C39.9464 47.0583 40.0589 47.1065 40.1781 47.1215C40.2972 47.1364 40.4182 47.1174 40.527 47.0666C40.6297 47.0208 40.7171 46.9465 40.7788 46.8525C40.8405 46.7585 40.8739 46.6488 40.875 46.5363V44.0831L41.8991 44.9405C42.0111 45.0339 42.1525 45.085 42.2983 45.0846C42.3879 45.0846 42.4764 45.0642 42.5569 45.0248C42.6579 44.9783 42.7432 44.9034 42.8025 44.8092C42.8617 44.7151 42.8924 44.6058 42.8906 44.4945V42.0414L43.9278 42.8988C44.0423 42.9923 44.1857 43.0433 44.3336 43.0429C44.4276 43.0429 44.5204 43.0225 44.6058 42.9831C44.7084 42.9373 44.7956 42.8629 44.8572 42.7689C44.9188 42.6749 44.9521 42.5652 44.9531 42.4528V26.3364C44.9531 25.4186 44.1433 24.6562 43.1504 24.6562H32.9331C31.9402 24.6562 31.125 25.4186 31.125 26.3364V26.7188H30.8914C29.8985 26.7188 29.1094 27.4604 29.1094 28.3781V28.7344H28.8496C27.8567 28.7344 27.0469 29.5021 27.0469 30.4199V46.5363C27.0474 46.6485 27.0803 46.7581 27.1415 46.8522C27.2026 46.9462 27.2896 47.0206 27.3919 47.0666ZM31.875 26.3364C31.875 25.8322 32.3538 25.4063 32.9331 25.4063H43.1504C43.7297 25.4063 44.2031 25.8322 44.2031 26.3364V42.1422L42.8906 41.0648V28.3781C42.8906 27.4604 42.1015 26.7188 41.1086 26.7188H31.875V26.3364ZM29.8594 28.3781C29.8594 27.8739 30.312 27.4688 30.8914 27.4688H41.1086C41.688 27.4688 42.1406 27.8739 42.1406 28.3781V44.184L40.875 43.1063V30.4199C40.875 29.5021 40.0597 28.7344 39.0669 28.7344H29.8594V28.3781ZM27.7969 30.4199C27.7969 29.9156 28.2703 29.4844 28.8496 29.4844H39.0669C39.6462 29.4844 40.125 29.9156 40.125 30.4199V46.2257L38.7566 45.0874C38.755 45.0861 38.7517 45.0848 38.7501 45.0836C38.6391 44.9934 38.5006 44.9437 38.3576 44.9426C38.2146 44.9416 38.0754 44.9892 37.963 45.0777C37.9616 45.0789 37.9597 45.08 37.9583 45.0811L36.1459 46.544L34.3547 45.0825L34.35 45.0789C34.2386 44.9903 34.1005 44.9421 33.9582 44.9421C33.8159 44.9421 33.6778 44.9903 33.5664 45.0789L33.562 45.0825L31.7709 46.544L29.9587 45.0811L29.9544 45.0777C29.8422 44.9892 29.7032 44.9415 29.5603 44.9426C29.4174 44.9437 29.2791 44.9934 29.1682 45.0836C29.1667 45.0848 29.1641 45.0861 29.1626 45.0874L27.7969 46.2257V30.4199Z" fill="white"/>
<path d="M31.0117 42.9375H36.9046C37.004 42.9375 37.0994 42.898 37.1697 42.8277C37.2401 42.7573 37.2796 42.662 37.2796 42.5625C37.2796 42.463 37.2401 42.3677 37.1697 42.2973C37.0994 42.227 37.004 42.1875 36.9046 42.1875H31.0117C30.9123 42.1875 30.8169 42.227 30.7466 42.2973C30.6762 42.3677 30.6367 42.463 30.6367 42.5625C30.6367 42.662 30.6762 42.7573 30.7466 42.8277C30.8169 42.898 30.9123 42.9375 31.0117 42.9375ZM33.9581 38.753C33.6106 38.7526 33.2774 38.6143 33.0316 38.3686C32.7859 38.1228 32.6476 37.7896 32.6472 37.4421C32.6472 37.3426 32.6077 37.2472 32.5374 37.1769C32.467 37.1066 32.3716 37.0671 32.2722 37.0671C32.1727 37.0671 32.0773 37.1066 32.007 37.1769C31.9367 37.2472 31.8972 37.3426 31.8972 37.4421C31.8978 37.9033 32.0529 38.3511 32.3378 38.7139C32.6226 39.0767 33.0207 39.3336 33.4686 39.4438V40.125C33.4686 40.2245 33.5081 40.3198 33.5785 40.3902C33.6488 40.4605 33.7442 40.5 33.8436 40.5C33.9431 40.5 34.0385 40.4605 34.1088 40.3902C34.1791 40.3198 34.2186 40.2245 34.2186 40.125V39.486C34.7384 39.4198 35.2135 39.1581 35.5471 38.7541C35.8808 38.3501 36.0481 37.8342 36.0149 37.3113C35.9817 36.7884 35.7506 36.2977 35.3685 35.9392C34.9864 35.5806 34.4821 35.381 33.9581 35.3811C33.621 35.3813 33.2968 35.2515 33.0529 35.0189C32.809 34.7862 32.664 34.4685 32.6482 34.1318C32.6324 33.7951 32.7469 33.4652 32.968 33.2107C33.189 32.9562 33.4997 32.7967 33.8353 32.7652C33.8381 32.7652 33.8408 32.7656 33.8436 32.7656C33.863 32.7656 33.8824 32.764 33.9016 32.7609C33.9203 32.7601 33.9391 32.7595 33.9581 32.7595C34.3057 32.7599 34.6389 32.8982 34.8846 33.1439C35.1304 33.3897 35.2686 33.7229 35.269 34.0704C35.269 34.1699 35.3086 34.2653 35.3789 34.3356C35.4492 34.4059 35.5446 34.4454 35.644 34.4454C35.7435 34.4454 35.8389 34.4059 35.9092 34.3356C35.9795 34.2653 36.019 34.1699 36.019 34.0704C36.0184 33.5692 35.8353 33.0853 35.504 32.7091C35.1727 32.3329 34.7158 32.0902 34.2186 32.0263V31.4531C34.2186 31.3537 34.1791 31.2583 34.1088 31.188C34.0385 31.1176 33.9431 31.0781 33.8436 31.0781C33.7442 31.0781 33.6488 31.1176 33.5785 31.188C33.5081 31.2583 33.4686 31.3537 33.4686 31.4531V32.0685C32.979 32.188 32.5501 32.4828 32.2632 32.8972C31.9762 33.3115 31.8511 33.8166 31.9113 34.317C31.9716 34.8174 32.2132 35.2783 32.5904 35.6126C32.9675 35.9469 33.4541 36.1315 33.9581 36.1312C34.3045 36.1333 34.6359 36.2723 34.8801 36.518C35.1242 36.7636 35.2613 37.0959 35.2613 37.4422C35.2613 37.7885 35.1242 38.1208 34.8801 38.3664C34.6359 38.612 34.3045 38.751 33.9581 38.7531V38.753Z" fill="white"/>
</svg>
