<svg width="72" height="72" viewBox="0 0 72 72" fill="none" xmlns="http://www.w3.org/2000/svg">
<circle opacity="0.15" cx="36" cy="36" r="36" fill="#0085F9"/>
<circle cx="36" cy="36" r="26" fill="#002D62"/>
<path fill-rule="evenodd" clip-rule="evenodd" d="M27.6398 28.2421H29.6288V25.9955C29.2 26.4806 28.4784 27.365 27.8102 28.0638L27.6398 28.2421ZM39.2511 39.0856C39.8606 39.6622 40.4166 40.2061 40.9317 40.7102C41.8744 41.6325 42.6826 42.4232 43.2154 42.8386C43.235 42.8539 43.255 42.8686 43.2751 42.8827C43.2947 42.8937 43.3133 42.9061 43.3309 42.9199C43.5744 43.074 43.8456 43.1421 44.1 43.1268C44.374 43.1103 44.6261 42.9945 44.791 42.7832L44.7915 42.7826C44.9562 42.5714 45.007 42.2983 44.956 42.0276C44.9032 41.747 44.7427 41.4708 44.4864 41.2614L44.4603 41.2407C44.0854 40.9484 43.5237 40.5797 42.8563 40.1592C42.833 40.1473 42.811 40.1333 42.7902 40.1176C42.4551 39.9069 42.0945 39.6836 41.7183 39.4506C41.1211 39.0808 40.4855 38.6872 39.8555 38.2849C39.7469 38.4525 39.6289 38.6185 39.5017 38.7817C39.4198 38.8868 39.3361 38.9881 39.2511 39.0856ZM43.5012 39.5221C44.1005 39.9024 44.611 40.2411 44.9777 40.5243L44.9779 40.5239L45.004 40.5447C45.4513 40.8935 45.7323 41.3725 45.8251 41.8649C45.9187 42.3618 45.8224 42.8737 45.5154 43.2894L45.514 43.2922L45.4874 43.3263C45.1585 43.7482 44.6721 43.9785 44.1518 44.0098C43.9379 44.0227 43.718 44.0014 43.5012 43.9455V46.4087C43.5012 46.6405 43.4066 46.851 43.2543 47.0032C43.102 47.1555 42.8916 47.25 42.6598 47.25H27.0535C26.8007 47.25 26.5715 47.1472 26.4055 46.9812C26.2396 46.8153 26.1367 46.586 26.1367 46.3333V28.7075H26.138C26.138 28.5964 26.1796 28.4852 26.2631 28.3993C26.4319 28.2259 26.771 27.8712 27.1696 27.4543C28.2529 26.3212 29.755 24.75 29.9996 24.75H42.6598C42.8916 24.75 43.1021 24.8445 43.2544 24.9968C43.4067 25.1491 43.5012 25.3595 43.5012 25.5913V39.5221L43.5012 39.5221ZM29.3714 30.9221H29.2538C29.009 30.9221 28.8105 31.1205 28.8105 31.3653C28.8105 31.6101 29.009 31.8086 29.2538 31.8086H29.3714C29.6162 31.8086 29.8146 31.6101 29.8146 31.3653C29.8146 31.1205 29.6162 30.9221 29.3714 30.9221ZM32.2128 31.8086H40.2666C40.5114 31.8086 40.7099 31.6101 40.7099 31.3653C40.7099 31.1205 40.5114 30.9221 40.2666 30.9221H32.2128C31.968 30.9221 31.7695 31.1205 31.7695 31.3653C31.7695 31.6101 31.968 31.8086 32.2128 31.8086ZM29.3714 34.0634H29.2538C29.009 34.0634 28.8105 34.2618 28.8105 34.5066C28.8105 34.7514 29.009 34.9499 29.2538 34.9499H29.3714C29.6162 34.9499 29.8146 34.7514 29.8146 34.5066C29.8146 34.2618 29.6162 34.0634 29.3714 34.0634ZM37.8195 34.9499L39.7464 36.4522C39.6746 36.7017 39.5752 36.9584 39.4492 37.2157C39.2814 37.5583 39.0662 37.9038 38.8057 38.238C38.5716 38.5382 38.3156 38.8081 38.0481 39.0432C37.8575 39.2107 37.6636 39.3579 37.4701 39.4832L35.2242 37.7321C35.2986 37.5131 35.3939 37.2891 35.5095 37.0643C35.6713 36.7496 35.8707 36.4358 36.106 36.134C36.3651 35.8018 36.6483 35.5087 36.942 35.2604C37.0767 35.1465 37.2127 35.0428 37.3486 34.9499H37.8196L37.8195 34.9499ZM38.2104 34.1347C38.2318 34.1486 38.2519 34.1643 38.2706 34.1816L40.4936 35.9149C40.5098 35.9259 40.5252 35.9378 40.5396 35.9508L40.6273 36.0192L40.9984 35.5433L38.1853 33.3498L37.8142 33.8257L38.2104 34.1347ZM29.3714 37.2046H29.2538C29.009 37.2046 28.8105 37.4031 28.8105 37.6479C28.8105 37.8927 29.009 38.0911 29.2538 38.0911H29.3714C29.6162 38.0911 29.8146 37.8927 29.8146 37.6479C29.8146 37.4031 29.6162 37.2046 29.3714 37.2046ZM29.3714 40.3459H29.2538C29.009 40.3459 28.8105 40.5443 28.8105 40.7891C28.8105 41.0339 29.009 41.2324 29.2538 41.2324H29.3714C29.6162 41.2324 29.8146 41.0339 29.8146 40.7891C29.8146 40.5443 29.6162 40.3459 29.3714 40.3459ZM36.25 40.4171C36.2715 40.4311 36.2917 40.4468 36.3104 40.4642L36.8396 40.8768L37.2108 40.4009L37.1893 40.3842C37.1733 40.3733 37.158 40.3614 37.1434 40.3484L34.462 38.2576C34.4483 38.2481 34.4351 38.2379 34.4227 38.2269L34.3976 38.2074L34.0265 38.6833L36.2501 40.417L36.25 40.4171ZM32.2128 41.2324H35.8593L36.4483 41.6917C36.5997 41.8097 36.7834 41.8554 36.9573 41.8338C37.1322 41.8122 37.2996 41.7232 37.4174 41.5723L38.0255 40.7923C38.1436 40.6409 38.1893 40.4572 38.1677 40.2833C38.1604 40.2241 38.1454 40.166 38.1229 40.1102C38.2942 39.9901 38.4636 39.857 38.6292 39.7117C39.1959 40.2486 39.775 40.8151 40.3119 41.3404C41.2407 42.2492 42.0414 43.0324 42.6147 43.4896V46.3635H27.0535C27.0454 46.3635 27.0379 46.3601 27.0323 46.3545C27.0267 46.3489 27.0232 46.3413 27.0232 46.3333V29.1286H29.674C29.9057 29.1286 30.1162 29.034 30.2685 28.8818C30.4208 28.7295 30.5153 28.519 30.5153 28.2872V25.6365H42.6147V38.9671C42.4732 38.8793 42.3289 38.79 42.1822 38.6991C41.5799 38.3261 40.9376 37.9284 40.2863 37.5115C40.3725 37.3278 40.4474 37.1449 40.5106 36.9644C40.5881 36.9819 40.6675 36.9856 40.7449 36.9761C40.9198 36.9544 41.0872 36.8655 41.205 36.7145L41.8132 35.9345C41.9312 35.7832 41.9769 35.5995 41.9553 35.4255C41.9337 35.2506 41.8448 35.0832 41.6937 34.9655L38.5765 32.5349C38.4251 32.4169 38.2414 32.3712 38.0675 32.3927C37.8926 32.4144 37.7252 32.5034 37.6075 32.6543L36.9993 33.4343C36.8812 33.5857 36.8356 33.7694 36.8571 33.9433C36.8621 33.9839 36.8707 34.024 36.883 34.0633H32.2127C31.9679 34.0633 31.7695 34.2617 31.7695 34.5065C31.7695 34.7513 31.9679 34.9498 32.2127 34.9498H35.9747C35.7794 35.1453 35.59 35.3592 35.4099 35.5903C35.1371 35.9401 34.9077 36.3005 34.7234 36.659C34.6297 36.8412 34.5472 37.0236 34.476 37.2045H32.2127C31.9679 37.2045 31.7695 37.403 31.7695 37.6478C31.7695 37.8926 31.9679 38.091 32.2127 38.091H33.3684L33.2117 38.292C33.0936 38.4435 33.048 38.6272 33.0695 38.801C33.0891 38.9593 33.1638 39.1114 33.2898 39.2262L33.2895 39.2264L33.2996 39.2365L34.7223 40.3458H32.2127C31.9679 40.3458 31.7695 40.5443 31.7695 40.789C31.7695 41.0338 31.9679 41.2323 32.2127 41.2323L32.2128 41.2324ZM29.3714 43.4872H29.2538C29.009 43.4872 28.8105 43.6856 28.8105 43.9304C28.8105 44.1752 29.009 44.3737 29.2538 44.3737H29.3714C29.6162 44.3737 29.8146 44.1752 29.8146 43.9304C29.8146 43.6856 29.6162 43.4872 29.3714 43.4872ZM32.2128 44.3737H40.2666C40.5114 44.3737 40.7099 44.1752 40.7099 43.9304C40.7099 43.6856 40.5114 43.4872 40.2666 43.4872H32.2128C31.968 43.4872 31.7695 43.6856 31.7695 43.9304C31.7695 44.1752 31.968 44.3737 32.2128 44.3737Z" fill="white"/>
</svg>
