<svg width="72" height="72" viewBox="0 0 72 72" fill="none" xmlns="http://www.w3.org/2000/svg">
<circle opacity="0.15" cx="36" cy="36" r="36" fill="#0085F9"/>
<circle cx="36" cy="36" r="26" fill="#002D62"/>
<path d="M38.7682 29.87C38.9978 30.0004 39.2697 30.0346 39.5245 29.9653C39.7792 29.896 39.9963 29.7287 40.1282 29.5C40.2373 29.3074 40.4074 29.1564 40.6116 29.0708C40.8158 28.9852 41.0426 28.9698 41.2565 29.0269C41.4704 29.0841 41.6593 29.2107 41.7935 29.3868C41.9278 29.5629 41.9997 29.7786 41.9982 30C41.9982 30.2652 41.8928 30.5196 41.7053 30.7071C41.5178 30.8946 41.2634 31 40.9982 31C40.733 31 40.4786 31.1054 40.2911 31.2929C40.1035 31.4804 39.9982 31.7348 39.9982 32C39.9982 32.2652 40.1035 32.5196 40.2911 32.7071C40.4786 32.8946 40.733 33 40.9982 33C41.5247 32.9997 42.0419 32.8608 42.4977 32.5972C42.9536 32.3337 43.332 31.9549 43.5951 31.4988C43.8581 31.0426 43.9965 30.5253 43.9963 29.9988C43.996 29.4723 43.8573 28.9551 43.5939 28.4992C43.3304 28.0433 42.9517 27.6647 42.4956 27.4016C42.0396 27.1384 41.5223 26.9999 40.9958 27C40.4693 27.0001 39.952 27.1387 39.4961 27.402C39.0401 27.6653 38.6615 28.044 38.3982 28.5C38.3321 28.6141 38.2892 28.7402 38.272 28.871C38.2548 29.0018 38.2637 29.1347 38.2981 29.262C38.3325 29.3893 38.3917 29.5086 38.4724 29.613C38.5531 29.7173 38.6536 29.8047 38.7682 29.87ZM43.0682 37C42.8057 36.9659 42.5404 37.0373 42.3305 37.1985C42.1205 37.3597 41.983 37.5976 41.9482 37.86C41.7383 39.5552 40.9159 41.1151 39.6358 42.246C38.3557 43.3769 36.7063 44.0007 34.9982 44H29.4082L30.0582 43.35C30.2444 43.1626 30.349 42.9092 30.349 42.645C30.349 42.3808 30.2444 42.1274 30.0582 41.94C29.0831 40.9611 28.4196 39.7156 28.1511 38.3603C27.8826 37.005 28.0212 35.6005 28.5494 34.3238C29.0776 33.0471 29.9718 31.9553 31.1194 31.1859C32.2669 30.4165 33.6165 30.0038 34.9982 30C35.2634 30 35.5178 29.8946 35.7053 29.7071C35.8928 29.5196 35.9982 29.2652 35.9982 29C35.9982 28.7348 35.8928 28.4804 35.7053 28.2929C35.5178 28.1054 35.2634 28 34.9982 28C33.3074 28.0071 31.6528 28.4902 30.224 29.3942C28.7951 30.2982 27.6498 31.5863 26.9193 33.1111C26.1887 34.6359 25.9024 36.3357 26.0932 38.0157C26.2841 39.6956 26.9443 41.2879 27.9982 42.61L26.2882 44.29C26.1494 44.4306 26.0554 44.6092 26.0181 44.8032C25.9807 44.9972 26.0016 45.1979 26.0782 45.38C26.1532 45.5626 26.2806 45.7189 26.4443 45.8293C26.608 45.9396 26.8008 45.999 26.9982 46H34.9982C37.1896 46.0003 39.3059 45.201 40.95 43.7521C42.5941 42.3031 43.653 40.3041 43.9282 38.13C43.9465 37.9993 43.9387 37.8662 43.9053 37.7385C43.8719 37.6107 43.8135 37.4909 43.7336 37.3858C43.6536 37.2808 43.5537 37.1926 43.4395 37.1264C43.3253 37.0602 43.1991 37.0172 43.0682 37ZM41.3782 34.07C41.1961 33.9895 40.9942 33.9651 40.7982 34L40.6182 34.06L40.4382 34.15L40.2882 34.28C40.1982 34.3721 40.1269 34.4808 40.0782 34.6C40.0191 34.7247 39.9916 34.8621 39.9982 35C39.9953 35.1334 40.0191 35.266 40.0682 35.39C40.1199 35.51 40.1946 35.6187 40.2882 35.71C40.3816 35.8027 40.4924 35.876 40.6143 35.9258C40.7361 35.9755 40.8666 36.0008 40.9982 36C41.2634 36 41.5178 35.8946 41.7053 35.7071C41.8928 35.5196 41.9982 35.2652 41.9982 35C42.0016 34.8688 41.9742 34.7387 41.9182 34.62C41.8107 34.3797 41.6185 34.1875 41.3782 34.08V34.07Z" fill="white"/>
</svg>
