<svg width="72" height="72" viewBox="0 0 72 72" fill="none" xmlns="http://www.w3.org/2000/svg">
<circle opacity="0.15" cx="36" cy="36" r="36" fill="#0085F9"/>
<circle cx="36" cy="36" r="26" fill="#002D62"/>
<g clip-path="url(#clip0_1873_9449)">
<path d="M36.0018 31.3748C35.6061 31.3748 35.2194 31.4921 34.8905 31.7119C34.5615 31.9316 34.3052 32.244 34.1538 32.6095C34.0024 32.975 33.9628 33.3772 34.0399 33.7652C34.1171 34.1532 34.3076 34.5097 34.5874 34.7894C34.8671 35.0691 35.2235 35.2596 35.6115 35.3368C35.9995 35.414 36.4017 35.3744 36.7672 35.223C37.1327 35.0716 37.4451 34.8152 37.6649 34.4863C37.8847 34.1573 38.002 33.7706 38.002 33.375C38.0014 32.8447 37.7905 32.3363 37.4155 31.9613C37.0405 31.5863 36.5321 31.3753 36.0018 31.3748ZM36.0018 34.6245C35.7544 34.6245 35.5127 34.5512 35.3071 34.4137C35.1015 34.2763 34.9412 34.081 34.8466 33.8525C34.752 33.624 34.7273 33.3726 34.7756 33.1301C34.8239 32.8875 34.943 32.6647 35.118 32.4899C35.2929 32.3151 35.5157 32.1961 35.7583 32.1479C36.0009 32.0998 36.2523 32.1246 36.4807 32.2194C36.7092 32.3141 36.9044 32.4745 37.0417 32.6802C37.1789 32.8859 37.2521 33.1277 37.252 33.375C37.2516 33.7065 37.1198 34.0242 36.8854 34.2586C36.651 34.493 36.3332 34.6241 36.0018 34.6245ZM47.9328 46.9897L46.8603 40.065V35.9813C46.8596 35.6361 46.7437 35.3011 46.5309 35.0293C46.3181 34.7575 46.0207 34.5647 45.6858 34.4813V33.6458C46.0929 33.3986 46.4185 33.0374 46.6225 32.607V32.601C46.7755 32.2808 46.8556 31.9306 46.8573 31.5757C46.8577 31.0266 46.6716 30.4935 46.3296 30.0638C45.9876 29.6341 45.5098 29.3333 44.9745 29.2105C44.4392 29.0877 43.8781 29.1503 43.383 29.3881C42.8879 29.6258 42.4882 30.0245 42.2493 30.519C42.244 30.5265 42.241 30.5355 42.2358 30.5438C41.9746 31.0842 41.926 31.703 42.0995 32.2777C42.273 32.8523 42.6559 33.3408 43.1725 33.6465V34.65C43.1095 34.686 43.0491 34.7263 42.9918 34.7708L41.2128 36.1957H40.4793C40.5431 36.0333 40.5574 35.8556 40.5204 35.6851C40.4835 35.5145 40.3969 35.3587 40.2715 35.2372L40.1163 35.0812H40.3353C40.5786 35.0809 40.8118 34.9839 40.9837 34.8116C41.1555 34.6393 41.252 34.4058 41.2518 34.1625V32.5875C41.2514 32.3444 41.1546 32.1114 40.9826 31.9396C40.8107 31.7678 40.5776 31.6712 40.3345 31.671H40.1155L40.2708 31.5157C40.3559 31.4306 40.4235 31.3296 40.4697 31.2183C40.5158 31.1071 40.5395 30.9878 40.5395 30.8674C40.5395 30.7469 40.5158 30.6277 40.4697 30.5164C40.4235 30.4052 40.3559 30.3041 40.2708 30.219L39.1585 29.1053C38.9865 28.9334 38.7533 28.8368 38.5101 28.8368C38.267 28.8368 38.0338 28.9334 37.8618 29.1053L37.7058 29.2612V29.0415C37.7056 28.7986 37.609 28.5657 37.4374 28.3939C37.2657 28.2221 37.0329 28.1254 36.79 28.125H35.215C34.972 28.1252 34.739 28.2218 34.5672 28.3937C34.3953 28.5655 34.2987 28.7985 34.2985 29.0415V29.2612L34.1425 29.1053C33.9704 28.9335 33.7372 28.8371 33.4941 28.8371C33.251 28.8371 33.0178 28.9335 32.8458 29.1053L31.7328 30.2183C31.6475 30.3033 31.5798 30.4044 31.5336 30.5156C31.4875 30.6269 31.4637 30.7462 31.4637 30.8666C31.4637 30.9871 31.4875 31.1064 31.5336 31.2176C31.5798 31.3289 31.6475 31.4299 31.7328 31.515L31.888 31.671H31.669C31.4261 31.6712 31.1931 31.7677 31.0212 31.9393C30.8492 32.111 30.7523 32.3438 30.7518 32.5868V34.1617C30.7519 34.405 30.8487 34.6381 31.0206 34.8101C31.1926 34.9821 31.4258 35.0788 31.669 35.079H31.888L31.7328 35.2343C31.6073 35.3558 31.5207 35.5117 31.4837 35.6824C31.4467 35.8531 31.4611 36.031 31.525 36.1935H30.7915L29.0118 34.7685C28.9547 34.7241 28.8945 34.6837 28.8318 34.6477V33.6458C29.3489 33.3396 29.732 32.8502 29.905 32.2747C30.0779 31.6993 30.0282 31.0797 29.7655 30.5392C29.7655 30.5332 29.7595 30.5265 29.7558 30.5205C29.621 30.2302 29.43 29.9694 29.1939 29.7533C28.9578 29.5372 28.6812 29.37 28.3801 29.2614C28.079 29.1527 27.7594 29.1048 27.4397 29.1204C27.12 29.136 26.8066 29.2148 26.5175 29.3522C26.2284 29.4896 25.9694 29.6829 25.7554 29.921C25.5415 30.1591 25.3768 30.4372 25.2709 30.7392C25.165 31.0413 25.1201 31.3614 25.1386 31.6809C25.1571 32.0005 25.2387 32.3132 25.3788 32.601V32.607C25.5827 33.0374 25.9084 33.3986 26.3155 33.6458V34.482C25.9806 34.5654 25.6831 34.7583 25.4703 35.03C25.2575 35.3018 25.1416 35.6369 25.141 35.982V40.065L24.07 46.9943C24.0395 47.2392 24.1029 47.4865 24.2476 47.6865C24.3923 47.8864 24.6074 48.0241 24.8495 48.0716C25.0917 48.1192 25.3429 48.0732 25.5525 47.9428C25.762 47.8125 25.9144 47.6075 25.9788 47.3693L27.496 42.5333L28.063 43.1558L27.589 46.9635C27.5792 47.0129 27.5747 47.0632 27.5755 47.1135C27.5731 47.3561 27.66 47.5912 27.8196 47.774C27.9793 47.9567 28.2005 48.0744 28.4413 48.1047C28.682 48.135 28.9255 48.0757 29.1254 47.9382C29.3253 47.8006 29.4677 47.5944 29.5255 47.3587L30.4885 43.5577C30.5676 43.2446 30.5485 42.9147 30.4338 42.6127L29.419 40.023V38.2005L29.9943 38.6318C30.0592 38.6804 30.1381 38.7067 30.2193 38.7067H31.6878C31.9785 38.7062 32.2601 38.605 32.4846 38.4203C32.7091 38.2355 32.8627 37.9787 32.9193 37.6935C33.0926 37.8388 33.3139 37.9143 33.5399 37.9053C33.7659 37.8963 33.9805 37.8034 34.1418 37.6448L34.2978 37.4888V37.7085C34.2979 37.9514 34.3945 38.1843 34.5661 38.3561C34.7378 38.5279 34.9706 38.6246 35.2135 38.625H36.7885C37.0315 38.6248 37.2645 38.5282 37.4363 38.3563C37.6082 38.1845 37.7048 37.9515 37.705 37.7085V37.4888L37.861 37.6448C38.0222 37.8036 38.2367 37.8966 38.4628 37.9056C38.6889 37.9146 38.9102 37.839 39.0835 37.6935C39.1402 37.9786 39.2938 38.2352 39.5183 38.4198C39.7428 38.6044 40.0244 38.7055 40.315 38.706H41.7835C41.8646 38.706 41.9436 38.6797 42.0085 38.631L42.5838 38.1998V40.0223L41.5698 42.6135C41.4548 42.9151 41.4356 43.2449 41.515 43.5577L42.478 47.361C42.5358 47.5969 42.6784 47.8033 42.8785 47.9408C43.0787 48.0784 43.3224 48.1375 43.5634 48.1069C43.8043 48.0764 44.0256 47.9582 44.185 47.775C44.3445 47.5918 44.431 47.3564 44.428 47.1135C44.4292 47.0723 44.4262 47.0311 44.419 46.9905L43.9405 43.1558L44.5075 42.5325L46.0158 47.3325C46.0714 47.5773 46.2193 47.7913 46.4287 47.9298C46.6381 48.0682 46.8929 48.1206 47.1399 48.076C47.387 48.0313 47.6073 47.8931 47.755 47.69C47.9027 47.487 47.9664 47.2348 47.9328 46.986V46.9897ZM29.2563 31.575C29.2577 31.8984 29.1654 32.2154 28.9905 32.4875C28.8155 32.7595 28.5655 32.9751 28.2706 33.108C27.9757 33.2409 27.6487 33.2855 27.329 33.2364C27.0093 33.1873 26.7106 33.0465 26.4693 32.8312H26.6943C26.7937 32.8312 26.8891 32.7917 26.9594 32.7214C27.0297 32.6511 27.0693 32.5557 27.0693 32.4562V31.5893L29.2008 31.167C29.2361 31.3002 29.2547 31.4372 29.2563 31.575ZM28.081 33.9517V34.4348C28.0683 34.4348 28.0563 34.4348 28.0435 34.4348H27.0685V33.9548C27.4023 34.0279 27.748 34.0279 28.0818 33.9548L28.081 33.9517ZM25.981 32.082C25.9261 31.9188 25.897 31.748 25.8948 31.5757C25.8934 31.2337 25.9968 30.8994 26.1912 30.618C26.3855 30.3365 26.6615 30.1213 26.9818 30.0014C27.3021 29.8814 27.6515 29.8625 27.9829 29.9471C28.3144 30.0318 28.6119 30.2159 28.8355 30.4748L26.6208 30.9135C26.536 30.9308 26.4599 30.9768 26.4053 31.0438C26.3506 31.1108 26.3207 31.1946 26.3208 31.281V32.0812L25.981 32.082ZM25.2535 47.175C25.2123 47.364 24.919 47.3378 24.865 47.2747C24.8442 47.2512 24.8287 47.2235 24.8195 47.1935C24.8103 47.1635 24.8077 47.1319 24.8118 47.1007L25.84 40.4647H27.358L25.2535 47.175ZM29.734 42.885C29.7928 43.0414 29.8022 43.2121 29.761 43.374L28.798 47.175C28.7778 47.2282 28.7396 47.2726 28.6899 47.3004C28.6403 47.3283 28.5825 47.3377 28.5265 47.3272C28.4706 47.3166 28.4202 47.2867 28.3841 47.2427C28.3481 47.1987 28.3286 47.1434 28.3293 47.0865L28.8288 43.08C28.8357 43.0261 28.8308 42.9714 28.8145 42.9196C28.7982 42.8678 28.7708 42.8202 28.7343 42.78L27.7593 41.706L28.147 40.47H28.7913L29.734 42.885ZM30.7518 37.956H30.3438L28.0938 36.2685C28.0544 36.239 28.0095 36.2175 27.9618 36.2052C27.9141 36.193 27.8645 36.1903 27.8157 36.1973C27.767 36.2042 27.7201 36.2207 27.6777 36.2458C27.6353 36.2709 27.5983 36.3041 27.5688 36.3435C27.5392 36.3829 27.5177 36.4277 27.5055 36.4754C27.4933 36.5231 27.4906 36.5728 27.4975 36.6215C27.5045 36.6703 27.521 36.7172 27.5461 36.7596C27.5712 36.8019 27.6044 36.839 27.6438 36.8685L28.687 37.65C28.6768 37.6798 28.6705 37.7108 28.6683 37.7423V39.717H25.8933V35.9813C25.8936 35.7693 25.978 35.5662 26.1279 35.4164C26.2777 35.2665 26.4808 35.1821 26.6928 35.1818H28.0428C28.2243 35.182 28.4004 35.2439 28.5423 35.3572L30.4248 36.8625C30.4914 36.9156 30.5742 36.9445 30.6595 36.9443H30.7518V37.956ZM31.687 37.956H31.5018V36.9435H31.687C31.8213 36.9435 31.95 36.9968 32.045 37.0918C32.1399 37.1867 32.1933 37.3155 32.1933 37.4498C32.1933 37.584 32.1399 37.7128 32.045 37.8077C31.95 37.9027 31.8213 37.956 31.687 37.956ZM39.7405 36L38.6268 37.1145C38.6113 37.13 38.5929 37.1422 38.5727 37.1506C38.5525 37.159 38.5309 37.1633 38.509 37.1633C38.4871 37.1633 38.4655 37.159 38.4453 37.1506C38.4251 37.1422 38.4067 37.13 38.3913 37.1145L37.5948 36.3187C37.5423 36.2662 37.4754 36.2303 37.4026 36.2158C37.3298 36.2013 37.2543 36.2087 37.1857 36.2372C37.117 36.2656 37.0584 36.3138 37.0172 36.3756C36.976 36.4374 36.9541 36.51 36.9543 36.5842V37.7092C36.9543 37.7311 36.9499 37.7528 36.9416 37.773C36.9332 37.7932 36.9209 37.8115 36.9055 37.827C36.89 37.8424 36.8717 37.8547 36.8515 37.8631C36.8313 37.8714 36.8096 37.8757 36.7878 37.8757H35.2128C35.1686 37.8757 35.1262 37.8582 35.095 37.827C35.0638 37.7958 35.0463 37.7534 35.0463 37.7092V36.5842C35.0462 36.51 35.0242 36.4375 34.983 36.3758C34.9417 36.3142 34.8831 36.2661 34.8145 36.2377C34.7691 36.2188 34.7204 36.2092 34.6713 36.2092C34.622 36.2092 34.5732 36.2188 34.5276 36.2376C34.482 36.2564 34.4406 36.2839 34.4058 36.3187L33.6093 37.1145C33.5938 37.13 33.5754 37.1422 33.5552 37.1506C33.535 37.159 33.5134 37.1633 33.4915 37.1633C33.4696 37.1633 33.448 37.159 33.4278 37.1506C33.4076 37.1422 33.3892 37.13 33.3738 37.1145L32.263 36C32.2475 35.9845 32.2353 35.9662 32.2269 35.946C32.2185 35.9258 32.2142 35.9041 32.2142 35.8823C32.2142 35.8604 32.2185 35.8387 32.2269 35.8185C32.2353 35.7983 32.2475 35.78 32.263 35.7645L33.0588 34.9688C33.1113 34.9163 33.1472 34.8494 33.1617 34.7766C33.1762 34.7038 33.1688 34.6283 33.1403 34.5597C33.1119 34.491 33.0637 34.4324 33.0019 34.3912C32.9401 34.35 32.8675 34.3281 32.7933 34.3282H31.6683C31.6243 34.3281 31.5822 34.3106 31.551 34.2795C31.5198 34.2485 31.5021 34.2065 31.5018 34.1625V32.5875C31.5018 32.5656 31.5061 32.5439 31.5145 32.5236C31.5229 32.5034 31.5352 32.485 31.5508 32.4695C31.5663 32.454 31.5848 32.4418 31.6051 32.4335C31.6253 32.4251 31.6471 32.4209 31.669 32.421H32.794C32.8683 32.4211 32.9409 32.3992 33.0027 32.358C33.0645 32.3168 33.1127 32.2582 33.1411 32.1896C33.1695 32.121 33.177 32.0455 33.1624 31.9727C33.1479 31.8998 33.1121 31.8329 33.0595 31.7805L32.263 30.984C32.2475 30.9686 32.2352 30.9502 32.2268 30.93C32.2184 30.9098 32.2142 30.8881 32.2143 30.8662C32.2146 30.8226 32.2321 30.7809 32.263 30.75L33.3768 29.6355C33.3922 29.62 33.4106 29.6078 33.4308 29.5994C33.451 29.591 33.4726 29.5867 33.4945 29.5867C33.5164 29.5867 33.538 29.591 33.5582 29.5994C33.5784 29.6078 33.5968 29.62 33.6123 29.6355L34.4088 30.4312C34.4612 30.4838 34.5281 30.5197 34.6009 30.5342C34.6737 30.5487 34.7492 30.5413 34.8178 30.5128C34.8865 30.4844 34.9451 30.4362 34.9863 30.3744C35.0275 30.3126 35.0494 30.24 35.0493 30.1657V29.0408C35.0493 28.9966 35.0668 28.9542 35.098 28.923C35.1292 28.8918 35.1716 28.8743 35.2158 28.8743H36.7908C36.8349 28.8743 36.8773 28.8918 36.9085 28.923C36.9397 28.9542 36.9573 28.9966 36.9573 29.0408V30.1657C36.9571 30.24 36.979 30.3126 37.0202 30.3744C37.0614 30.4362 37.12 30.4844 37.1887 30.5128C37.2573 30.5413 37.3328 30.5487 37.4056 30.5342C37.4784 30.5197 37.5453 30.4838 37.5978 30.4312L38.3943 29.6355C38.4097 29.62 38.4281 29.6078 38.4483 29.5994C38.4685 29.591 38.4901 29.5867 38.512 29.5867C38.5339 29.5867 38.5555 29.591 38.5757 29.5994C38.5959 29.6078 38.6143 29.62 38.6298 29.6355L39.7405 30.75C39.756 30.7655 39.7682 30.7838 39.7766 30.804C39.785 30.8242 39.7893 30.8459 39.7893 30.8677C39.7893 30.8896 39.785 30.9113 39.7766 30.9315C39.7682 30.9517 39.756 30.97 39.7405 30.9855L38.9448 31.7812C38.8922 31.8337 38.8563 31.9006 38.8418 31.9734C38.8273 32.0462 38.8347 32.1217 38.8632 32.1903C38.8916 32.259 38.9398 32.3176 39.0016 32.3588C39.0634 32.4 39.136 32.4219 39.2103 32.4218H40.3353C40.3572 32.4217 40.3789 32.4259 40.3992 32.4342C40.4195 32.4425 40.4379 32.4548 40.4535 32.4703C40.469 32.4857 40.4813 32.5041 40.4898 32.5244C40.4982 32.5446 40.5025 32.5663 40.5025 32.5883V34.1632C40.5025 34.2076 40.4849 34.2501 40.4535 34.2815C40.4221 34.3129 40.3796 34.3305 40.3353 34.3305H39.2103C39.136 34.3304 39.0634 34.3523 39.0016 34.3935C38.9398 34.4347 38.8916 34.4933 38.8632 34.5619C38.8347 34.6305 38.8273 34.706 38.8418 34.7788C38.8563 34.8517 38.8922 34.9186 38.9448 34.971L39.7405 35.7675C39.756 35.7829 39.7683 35.8013 39.7767 35.8215C39.7851 35.8417 39.7893 35.8634 39.7893 35.8853C39.7885 35.9284 39.771 35.9695 39.7405 36ZM40.5018 37.956H40.3165C40.1822 37.956 40.0535 37.9027 39.9585 37.8077C39.8636 37.7128 39.8103 37.584 39.8103 37.4498C39.8103 37.3155 39.8636 37.1867 39.9585 37.0918C40.0535 36.9968 40.1822 36.9435 40.3165 36.9435H40.5018V37.956ZM44.4288 29.8935C44.8746 29.8939 45.3021 30.0712 45.6173 30.3864C45.9326 30.7017 46.1099 31.1292 46.1103 31.575C46.108 31.7472 46.0789 31.918 46.024 32.0812H45.6858V31.281C45.6858 31.1946 45.6559 31.1108 45.6012 31.0438C45.5466 30.9768 45.4705 30.9308 45.3858 30.9135L43.171 30.4748C43.327 30.2937 43.5199 30.1482 43.7369 30.048C43.9539 29.9479 44.1898 29.8954 44.4288 29.8943V29.8935ZM42.7473 31.575C42.7489 31.4369 42.7678 31.2996 42.8035 31.1663L44.935 31.5885V32.4555C44.935 32.555 44.9745 32.6503 45.0448 32.7207C45.1152 32.791 45.2105 32.8305 45.31 32.8305H45.535C45.2937 33.046 44.9951 33.1869 44.6753 33.2362C44.3556 33.2855 44.0284 33.241 43.7334 33.1081C43.4384 32.9753 43.1882 32.7597 43.0132 32.4876C42.8382 32.2155 42.7458 31.8985 42.7473 31.575ZM44.935 33.951V34.431H43.96C43.9473 34.431 43.9353 34.431 43.9225 34.431V33.948C44.2563 34.0211 44.602 34.0211 44.9358 33.948L44.935 33.951ZM43.2693 42.7792C43.2327 42.8194 43.2053 42.8671 43.189 42.9189C43.1727 42.9707 43.1678 43.0254 43.1748 43.0792L43.6773 47.1157C43.6771 47.1797 43.6515 47.2411 43.6063 47.2863C43.5611 47.3315 43.4997 47.3571 43.4358 47.3573C43.383 47.3556 43.3322 47.3371 43.2907 47.3044C43.2493 47.2717 43.2194 47.2266 43.2055 47.1757L42.2425 43.3755C42.2013 43.2138 42.2107 43.0434 42.2695 42.8873L43.2153 40.47H43.8595L44.2473 41.7052L43.2693 42.7792ZM44.1348 39.7192H43.3345V37.7438C43.3323 37.7123 43.326 37.6813 43.3158 37.6515L44.3598 36.8685C44.3991 36.839 44.4323 36.8019 44.4574 36.7596C44.4825 36.7172 44.499 36.6703 44.506 36.6215C44.5129 36.5728 44.5102 36.5231 44.498 36.4754C44.4858 36.4277 44.4643 36.3829 44.4348 36.3435C44.4052 36.3041 44.3682 36.2709 44.3258 36.2458C44.2834 36.2207 44.2365 36.2042 44.1878 36.1973C44.139 36.1903 44.0894 36.193 44.0417 36.2052C43.994 36.2175 43.9491 36.239 43.9098 36.2685L41.6598 37.956H41.2518V36.9443H41.344C41.4293 36.9445 41.5121 36.9156 41.5788 36.8625L43.4598 35.3572C43.6019 35.244 43.7782 35.1821 43.96 35.1818H45.31C45.5219 35.1821 45.725 35.2665 45.8749 35.4164C46.0247 35.5662 46.1091 35.7693 46.1095 35.9813V39.7185H44.1355L44.1348 39.7192ZM47.1348 47.2792C47.1022 47.3052 47.0637 47.3226 47.0226 47.3299C46.9816 47.3371 46.9395 47.3339 46.9 47.3207C46.8605 47.3074 46.825 47.2844 46.7967 47.2538C46.7684 47.2233 46.7482 47.1861 46.738 47.1458L44.6425 40.4708H46.1598L47.1873 47.1015C47.192 47.1328 47.1902 47.1647 47.1818 47.1952C47.1734 47.2257 47.1586 47.2541 47.1385 47.2785L47.1348 47.2792Z" fill="white"/>
</g>
<defs>
<clipPath id="clip0_1873_9449">
<rect width="24" height="24" fill="white" transform="translate(24 24)"/>
</clipPath>
</defs>
</svg>
