<svg width="291" height="211" viewBox="0 0 291 211" fill="none" xmlns="http://www.w3.org/2000/svg">
<path d="M265.681 18.3398C265.227 16.5287 264.529 14.8185 263.628 13.2464L265.718 10.0121L262.819 7.02876L259.92 4.04486L256.776 6.19537C255.248 5.26842 253.586 4.55082 251.826 4.0825L251.081 0.27832H246.98H242.88L242.135 4.0825C240.375 4.55025 238.713 5.26842 237.185 6.19537L234.042 4.04486L231.142 7.02876L228.243 10.0121L230.333 13.2464C229.432 14.8185 228.734 16.5287 228.28 18.3398L224.582 19.1053V23.3247V27.5442L228.28 28.3097C228.734 30.1208 229.432 31.831 230.333 33.4031L228.243 36.6374L231.142 39.6207L234.042 42.6041L237.185 40.4535C238.713 41.3805 240.375 42.0981 242.135 42.5664L242.88 46.3712H246.98H251.081L251.826 42.5664C253.586 42.0987 255.248 41.3805 256.776 40.4535L259.92 42.6041L262.819 39.6207L265.718 36.6374L263.628 33.4031C264.529 31.831 265.227 30.1208 265.681 28.3097L269.379 27.5442V23.3247V19.1053L265.681 18.3398ZM246.979 38.1102C239.044 38.1102 232.61 31.4904 232.61 23.3247C232.61 15.1591 239.043 8.53926 246.979 8.53926C254.916 8.53926 261.349 15.1591 261.349 23.3247C261.349 31.4904 254.916 38.1102 246.979 38.1102Z" fill="#73C0FF"/>
<path d="M271.275 54.2227C271.067 53.3927 270.747 52.6084 270.334 51.888L271.292 50.4048L269.963 49.037L268.634 47.6691L267.193 48.6553C266.492 48.2304 265.73 47.9012 264.923 47.6868L264.582 45.9424H262.702H260.822L260.48 47.6868C259.673 47.9012 258.912 48.2304 258.211 48.6553L256.77 47.6691L255.441 49.037L254.111 50.4048L255.07 51.888C254.657 52.6084 254.337 53.3927 254.128 54.2227L252.434 54.5735V56.5078V58.4422L254.128 58.7935C254.337 59.6241 254.657 60.4079 255.07 61.1283L254.111 62.6114L255.441 63.9787L256.77 65.3466L258.211 64.3604C258.912 64.7853 259.673 65.1145 260.48 65.3289L260.822 67.0733H262.702H264.582L264.923 65.3289C265.73 65.1145 266.492 64.7853 267.193 64.3604L268.634 65.3466L269.963 63.9787L271.292 62.6114L270.334 61.1283C270.747 60.4073 271.067 59.6235 271.275 58.7935L272.971 58.4422V56.5078V54.5735L271.275 54.2227ZM262.702 63.2862C259.064 63.2862 256.114 60.2516 256.114 56.5078C256.114 52.7641 259.063 49.7295 262.702 49.7295C266.341 49.7295 269.29 52.7641 269.29 56.5078C269.29 60.2521 266.34 63.2862 262.702 63.2862Z" fill="#73C0FF"/>
<path d="M152.117 188.649H172.291V125.602H152.117V188.649Z" fill="#4DA8F2"/>
<path d="M83.9619 155.973H240.443C245.336 155.973 249.303 151.891 249.303 146.856V38.6449C249.303 33.6097 245.336 29.5283 240.443 29.5283H83.9619C79.0688 29.5283 75.1016 33.6097 75.1016 38.6449V146.857C75.1016 151.891 79.0682 155.973 83.9619 155.973Z" fill="#0085F9"/>
<path d="M81.9261 136.161L242.482 136.161L242.482 16.0741L81.9261 16.0741L81.9261 136.161Z" fill="white"/>
<path d="M81.9258 30.5742H242.482V16.0693H81.9258V30.5742Z" fill="url(#paint0_linear_316_10421)"/>
<path d="M156.584 145.224C156.584 148.418 159.099 151.006 162.203 151.006C165.307 151.006 167.822 148.418 167.822 145.224C167.822 142.031 165.307 139.442 162.203 139.442C159.099 139.443 156.584 142.032 156.584 145.224Z" fill="#4DA8F2"/>
<path d="M136.118 45.1892H184.072C185.149 45.1892 186.022 44.2908 186.022 43.183V42.8978C186.022 41.79 185.149 40.8916 184.072 40.8916H136.118C135.041 40.8916 134.168 41.79 134.168 42.8978V43.183C134.168 44.2908 135.041 45.1892 136.118 45.1892Z" fill="#DFE1E8"/>
<path d="M136.118 52.9417H184.072C185.149 52.9417 186.022 52.0433 186.022 50.935V50.6498C186.022 49.542 185.149 48.6436 184.072 48.6436H136.118C135.041 48.6436 134.168 49.542 134.168 50.6498V50.935C134.168 52.0433 135.041 52.9417 136.118 52.9417Z" fill="#DFE1E8"/>
<path d="M136.118 60.6937H184.072C185.149 60.6937 186.022 59.7953 186.022 58.6875V58.4023C186.022 57.2939 185.149 56.3955 184.072 56.3955H136.118C135.041 56.3955 134.168 57.2939 134.168 58.4023V58.6875C134.168 59.7958 135.041 60.6937 136.118 60.6937Z" fill="#DFE1E8"/>
<path d="M158.645 127.709H98.4608C93.4425 127.709 89.3594 123.509 89.3594 118.344V80.6762C89.3594 75.5127 93.4425 71.3115 98.4608 71.3115H158.645C163.663 71.3115 167.746 75.5127 167.746 80.6762V118.344C167.747 123.509 163.663 127.709 158.645 127.709ZM98.4608 72.4855C94.0717 72.4855 90.5003 76.1596 90.5003 80.6762V118.344C90.5003 122.861 94.0711 126.535 98.4608 126.535H158.645C163.034 126.535 166.605 122.861 166.605 118.344V80.6762C166.605 76.1596 163.034 72.4855 158.645 72.4855H98.4608Z" fill="#DFE1E8"/>
<path d="M103.219 85.5086H153.882C156.102 85.5086 157.902 83.657 157.902 81.373V80.5858C157.902 78.3018 156.102 76.4502 153.882 76.4502H103.219C100.999 76.4502 99.1992 78.3018 99.1992 80.5858V81.373C99.1992 83.657 100.999 85.5086 103.219 85.5086Z" fill="#DFE1E8"/>
<path d="M207.584 186.271H116.824V191.03H207.584V186.271Z" fill="#0085F9"/>
<path d="M224.426 83.6892C224.426 88.6377 221.827 92.9615 217.956 95.2957C217.178 95.764 216.349 96.1525 215.479 96.4491C215.4 96.4765 215.322 96.5027 215.242 96.5278C214.016 96.9197 212.713 97.1308 211.362 97.1308C209.276 97.1308 207.304 96.6276 205.554 95.7338C201.253 93.5336 198.297 88.9668 198.297 83.6892C198.297 76.2651 204.146 70.2471 211.361 70.2471C218.577 70.2471 224.426 76.2651 224.426 83.6892Z" fill="#EEF0F7"/>
<path d="M208.242 82.2698C208.242 82.2698 207.35 76.3299 212.131 76.44C216.912 76.5495 216.848 79.4866 216.762 82.4015C216.677 85.3164 214.845 85.0974 216.912 89.152C218.978 93.2066 215.122 93.2066 215.122 93.2066L212.131 88.9769L208.242 82.2698Z" fill="#3C4145"/>
<path d="M211.607 77.0116C211.607 77.0116 208.369 77.5376 208.241 82.2715C208.114 87.0061 209.115 88.014 211.948 87.0278C214.781 86.0415 215.676 81.0879 215.74 80.3212C215.803 79.554 215.974 76.4418 211.607 77.0116Z" fill="#EEA886"/>
<path d="M217.291 93.479C217.301 94.8971 216.564 95.8457 215.478 96.4521C215.4 96.4795 215.321 96.5057 215.242 96.5308C214.016 96.9227 212.712 97.1338 211.361 97.1338C209.275 97.1338 207.304 96.6306 205.554 95.7368C205.16 94.9285 205.73 93.7808 206.889 92.0193C207.684 90.8089 208.465 89.5727 209.799 88.9721C211.769 88.6492 213.854 88.6298 215.322 89.4837C216.492 90.1637 217.273 91.3992 217.291 93.479Z" fill="#E55353"/>
<path d="M207.523 91.9436L206.035 94.3576C206.038 94.3445 206.137 93.9789 206.306 92.9207C206.338 92.7194 206.372 92.4935 206.409 92.2408C206.419 92.1661 206.435 92.0913 206.456 92.0183C207.093 90.5067 209.08 89.3818 209.152 89.3447L207.523 91.9436Z" fill="#E55353"/>
<path d="M217.956 95.2936C217.179 95.762 216.349 96.1504 215.479 96.447C215.401 96.4744 215.322 96.5007 215.243 96.5258C214.912 95.6484 214.626 94.8898 214.564 94.6935C214.546 94.6365 214.503 94.5298 214.445 94.3861C214.177 93.7147 213.576 92.2219 213.568 91.0542C213.563 90.3013 213.805 89.6841 214.541 89.5084C214.831 89.4393 215.091 89.4348 215.323 89.4787C216.145 89.6321 216.625 90.392 216.892 91.0656C216.897 91.0776 216.901 91.0884 216.904 91.0999C217.128 91.6731 217.197 92.174 217.197 92.174C217.197 92.174 217.21 92.227 217.234 92.3217C217.28 92.5099 217.368 92.8665 217.483 93.3336C217.615 93.8698 217.78 94.5521 217.956 95.2936Z" fill="#EEA886"/>
<path d="M213.768 84.891C213.487 85.4364 213.191 88.8218 213.191 88.8218C213.191 88.8218 209.231 90.362 209.637 89.4904C209.82 89.0951 209.874 88.5823 209.878 88.1396C209.882 87.7911 209.853 87.4859 209.834 87.3176C209.824 87.2286 209.816 87.1773 209.816 87.1773C209.816 87.1773 214.049 84.3457 213.768 84.891Z" fill="#EEA886"/>
<path d="M210.287 80.4062C210.287 80.4062 211.948 83.1894 213.461 84.2857C214.973 85.3815 214.206 86.2582 214.206 86.2582C214.206 86.2582 218.152 77.7104 214.401 77.1189C210.649 76.5273 208.349 76.4834 208.242 82.2692C208.241 82.2687 209.946 80.3617 210.287 80.4062Z" fill="#3C4145"/>
<path d="M212.094 86.9717C211.486 87.8941 209.88 88.1428 209.88 88.1428C209.884 87.7942 209.855 87.4891 209.836 87.3208C210.867 87.525 212.094 86.9717 212.094 86.9717Z" fill="#A77860"/>
<path d="M206.462 92.0016C206.462 92.0016 206.375 92.1847 206.305 92.9222L206.888 92.0164C206.888 92.0164 207.93 90.4797 208.287 90.0798C208.644 89.6799 209.16 89.3291 209.16 89.3291C209.16 89.3291 207.085 90.3433 206.462 92.0016Z" fill="#BD4444"/>
<path d="M214.345 94.294C214.345 94.294 216.886 93.2684 217.638 93.2085C217.638 93.2085 217.127 89.009 214.63 89.4539C212.134 89.8994 214.345 94.294 214.345 94.294Z" fill="#E55353"/>
<path d="M209.8 88.9676C209.8 88.9676 207.935 91.9201 208.566 92.1774C209.198 92.4358 212.617 91.8334 214.071 89.0292C214.071 89.0292 211.897 87.8826 209.8 88.9676Z" fill="#EEA886"/>
<path d="M72.374 153.85L52.0156 154.009L52.0298 155.927L72.3882 155.768L72.374 153.85Z" fill="#323657"/>
<path d="M76.5662 135.178L70.6113 155.21L72.3943 155.771L78.3491 135.739L76.5662 135.178Z" fill="#323657"/>
<path d="M108.961 158.267H107.373V208.623H108.961V158.267Z" fill="#706865"/>
<path d="M47.7761 158.269H117.596V155.406H47.7761V158.269Z" fill="#B59074"/>
<path d="M56.7085 208.622H58.2969L58.2969 158.264H56.7085L56.7085 208.622Z" fill="#706865"/>
<path d="M26.7068 175.562H24.7969V200.363H26.7068V175.562Z" fill="#918783"/>
<path d="M49.7218 197.436C49.7218 197.436 49.7407 198.532 50.0861 199.809C50.3394 200.745 50.8489 204.37 51.4992 204.877C52.1495 205.384 54.2462 206.727 53.9385 208.108C53.6303 209.488 53.3697 210.451 51.1056 209.634C48.8415 208.816 47.3274 208.349 46.8928 206.304C46.4576 204.259 45.2185 202.397 45.2185 202.397L43.5819 206.586L42.7188 206.228C42.7188 206.228 44.0238 201.704 43.9118 201.301C43.7993 200.898 44.51 197.303 47.2487 196.413C49.9874 195.523 49.7218 197.436 49.7218 197.436Z" fill="#1D3B54"/>
<path d="M64.8459 198.757C64.8459 198.757 65.2611 199.767 66.0445 200.818C66.6194 201.59 68.4056 204.757 69.1929 204.978C69.9801 205.199 72.4128 205.641 72.6273 207.039C72.8419 208.438 72.9494 209.432 70.5522 209.543C68.155 209.653 66.5811 209.8 65.4363 208.07C64.2915 206.34 62.467 205.088 62.467 205.088V209.602H61.5367C61.5367 209.602 61.1076 204.905 60.857 204.573C60.6064 204.242 59.9622 200.634 62.1809 198.757C64.3985 196.88 64.8459 198.757 64.8459 198.757Z" fill="#1D3B54"/>
<path d="M40.4727 137.417C40.4727 137.417 41.0054 135.473 41.0575 135.219C41.1097 134.966 41.6136 134.463 42.2417 133.937C42.8693 133.41 43.9465 132.989 44.0801 133.031C44.2131 133.074 44.3673 133.054 44.5874 133.344C44.8069 133.636 44.8374 134.006 44.8374 134.006C44.8374 134.006 45.2726 134.234 45.2759 134.694C45.2759 134.694 45.6756 134.927 45.5975 135.449C45.5975 135.449 45.9816 135.689 45.8935 136.063C45.8935 136.063 45.389 136.569 45.2548 136.811C45.1207 137.054 44.0014 138.031 42.7872 138.798C42.7872 138.798 41.2377 139.975 40.4727 137.417Z" fill="#EEA886"/>
<path d="M42.791 135.875C42.791 135.875 43.0205 136.693 42.9723 136.956C42.9235 137.219 44.7885 137.257 44.7885 137.257C44.7885 137.257 43.7651 135.614 42.791 135.875Z" fill="#CF8C6C"/>
<path d="M21.7945 140.758C22.5474 139.504 23.5519 138.939 26.7424 141.21C29.933 143.48 29.1834 143.035 29.9474 143.755C30.7113 144.474 34.0588 146.274 34.0588 146.274C34.0588 146.274 36.0141 144.275 36.9516 142.853C38.0088 141.252 40.2153 136.974 40.2153 136.974L43.3093 139.343C43.3093 139.343 37.2986 150.555 36.0435 151.384C34.7883 152.212 31.0057 150.826 29.0365 149.973C27.0673 149.119 24.9828 148.014 24.0836 147.784C23.1838 147.556 19.8303 144.031 21.7945 140.758Z" fill="#1D3B54"/>
<path d="M44.4632 127.728L42.9648 134.755L43.5426 134.885L45.041 127.858L44.4632 127.728Z" fill="#EB4747"/>
<path d="M43.9101 133.162C43.9101 133.162 42.3506 134.536 42.5346 134.821C42.7181 135.107 42.9549 135.097 42.9549 135.097L42.5623 135.962C42.5623 135.962 42.6167 136.686 43.3668 136.413C43.3668 136.413 43.3496 137.095 44.0431 136.743C44.0431 136.743 44.2266 137.198 44.5759 137.093C44.9252 136.989 45.8931 136.062 45.8931 136.062C45.8931 136.062 46.0118 135.772 45.5971 135.448C45.5971 135.448 45.7013 134.953 45.2755 134.693C45.2755 134.693 45.2983 134.281 44.837 134.005C44.837 134.005 44.8187 133.086 44.0797 133.03C44.0797 133.03 43.9749 133.103 43.9101 133.162Z" fill="#DB9C7C"/>
<path d="M41.0781 135.237C41.0781 135.237 42.1232 134.265 42.9198 133.991C43.1 133.93 43.2857 133.903 43.4093 134.052C43.533 134.202 43.4809 134.575 43.049 135.02C42.6177 135.465 42.2573 136.243 42.2573 136.243C42.2573 136.243 41.6835 136.567 41.0781 135.237Z" fill="#EEA886"/>
<path d="M36.6674 147.567C36.6674 147.567 37.2955 145.225 36.5554 143.411C36.5554 143.411 36.837 145.288 36.0376 146.623C35.4593 147.591 36.6674 147.567 36.6674 147.567Z" fill="#152C3D"/>
<path d="M48.0669 147.932C48.0669 147.932 49.7511 135.091 52.6872 129.493H48.369C48.369 129.493 43.5325 138.262 44.4395 147.118L48.0669 147.932Z" fill="#EDDAD3"/>
<path d="M49.1016 138.319C49.1016 138.319 49.5944 137.374 49.7131 137.065C49.8317 136.757 50.3157 137.292 50.2431 137.688C50.1693 138.084 49.1016 138.319 49.1016 138.319Z" fill="#EEA886"/>
<path d="M52.9292 140.465C52.9292 140.465 52.7989 140.928 52.6459 141.102C52.6459 141.102 52.3443 141.395 52.1419 141.618C52.0782 141.689 52.0238 141.751 51.9928 141.796C51.8636 141.982 51.6347 142.43 51.2033 142.787C50.7726 143.144 49.1255 144.247 49.1255 144.247L47.9635 142.97L47.0332 141.974C47.0332 141.974 47.8193 138.934 48.1841 138.553C48.2196 138.516 48.2562 138.481 48.2933 138.451C48.6321 138.159 49.0035 138.089 49.1981 137.957C49.2696 137.909 50.0153 137.48 50.2526 137.575C50.583 137.706 50.7604 137.936 50.8114 138.18C50.8114 138.18 51.4467 138.467 51.6591 138.895C51.6591 138.895 52.2539 139.14 52.3703 139.75C52.3703 139.75 52.9463 140.067 52.9292 140.465Z" fill="#EEA886"/>
<path d="M60.573 173.624C60.573 173.624 57.7196 180.229 55.6833 184.943C55.3412 185.737 55.0219 186.477 54.743 187.121C54.4165 187.878 54.1454 188.504 53.9591 188.937C52.663 191.938 49.4741 198.481 49.4741 198.481C49.4741 198.481 47.0747 198.575 46.9355 196.479C46.9355 196.479 49.2374 191.937 49.2374 188.746C49.2374 185.554 49.6537 176.153 52.617 174.121C56.2299 171.643 58.5761 171.174 60.573 173.624Z" fill="#EEA886"/>
<path d="M34.1886 161.068C34.1886 161.068 34.7907 161.688 35.2996 161.83C35.8085 161.974 44.3279 162.641 48.263 163.975C52.198 165.308 57.4298 166.166 58.4017 167.309C59.3741 168.453 60.9946 174.74 60.948 175.931C60.9014 177.122 64.4063 197.192 64.8432 198.759C65.0743 199.589 61.6737 199.271 61.6737 199.271C61.6737 199.271 56.8411 187.412 55.8093 185.221C53.9128 181.195 53.8185 176.265 53.1239 175.502C52.4292 174.74 44.6977 173.026 40.2531 173.026C35.8085 173.026 25.8544 173.407 24.7894 172.787C23.7245 172.168 17.0579 167.642 19.8359 161.593C22.614 155.543 34.1886 161.068 34.1886 161.068Z" fill="#EEA886"/>
<path d="M53.4158 165.4L46.3639 179.361C46.3639 179.361 44.24 174.18 40.5345 173.288C36.8284 172.397 22.0399 172.875 22.0399 172.875C22.0399 172.875 15.2536 164.042 21.0653 159.408C26.8765 154.775 33.6633 160.137 33.6633 160.137C33.6633 160.137 35.0654 161.701 35.7434 161.736C40.6747 161.989 45.9326 162.933 53.4158 165.4Z" fill="#1D3B54"/>
<path d="M69.1928 204.977C69.1928 204.977 67.0462 205.53 66.2229 204.977C65.4002 204.426 62.6027 199.561 61.6758 199.269C61.6758 199.269 62.5739 197.395 64.8452 198.757C64.8452 198.757 68.5841 204.168 69.1928 204.977Z" fill="#EEA886"/>
<path d="M51.4979 204.877C51.4979 204.877 49.3058 204.565 48.7426 203.736C48.1793 202.909 47.3477 197.321 46.5938 196.694C46.5938 196.694 48.1067 195.3 49.7205 197.435C49.7205 197.435 51.2274 203.891 51.4979 204.877Z" fill="#EEA886"/>
<path d="M29.1023 117.223C30.796 117.139 34.5526 118.015 35.1308 122.633C35.1308 122.633 34.9955 123.878 34.7017 124.857C34.4079 125.834 35.26 128.718 35.0377 128.861C34.8154 129.002 33.8967 129.184 33.8967 129.184C33.8967 129.184 32.9088 132.335 31.8338 132.309C30.7589 132.281 26.6891 131.417 24.7725 127.497C22.8555 123.578 22.2639 117.564 29.1023 117.223Z" fill="#EEA886"/>
<path d="M30.3797 130.872C30.3797 130.872 30.2478 131.313 30.0975 131.969C30.0205 132.304 29.939 132.694 29.868 133.11C29.6729 134.26 29.5587 135.603 29.8481 136.498C29.8481 136.498 27.4714 137.345 25.5937 133.888C25.5937 133.888 26.4003 130.165 25.3519 127.907C24.3041 125.65 30.3797 130.872 30.3797 130.872Z" fill="#EEA886"/>
<path d="M35.1305 122.633C35.1305 122.633 32.532 125.032 29.7839 124.843C26.9925 124.649 25.1808 128.238 25.1808 128.238C25.1808 128.238 21.0262 122.873 24.3753 118.536C27.7249 114.198 35.7242 117.25 35.1305 122.633Z" fill="#1D3B54"/>
<path d="M28.5179 124.822C28.5029 124.278 27.9153 123.462 27.0499 124.205C26.1839 124.948 27.3481 127.532 28.0572 127.279C28.7668 127.025 28.5334 125.383 28.5179 124.822Z" fill="#EEA886"/>
<path d="M30.0983 131.967C30.0213 132.303 29.9398 132.692 29.8688 133.108C27.6618 131.666 26.5508 129.915 26.5508 129.915C27.8126 131.089 30.0983 131.967 30.0983 131.967Z" fill="#A77860"/>
<path d="M36.5426 145.18C36.0425 147.566 34.7258 147.69 34.8056 149.453C34.8855 151.215 35.3966 151.366 34.5113 154.145C34.3477 154.659 34.2141 155.22 34.1071 155.791C34.0949 155.859 34.0816 155.927 34.0705 155.995C34.0129 156.316 33.9635 156.639 33.9208 156.957C33.8421 157.547 33.785 158.123 33.7456 158.649C33.6414 160.021 34.6232 161.079 34.6232 161.079C34.6232 161.079 25.9575 166.421 20.0078 165.672C20.0078 165.672 21.5479 159.01 22.3967 156.722C23.2449 154.434 22.9888 143.861 22.3645 141.592C21.4437 138.243 23.2837 133.223 25.799 132.569L29.6991 134.428C29.6991 134.428 33.6281 139.255 34.509 139.984C35.3889 140.712 37.0504 142.761 36.5426 145.18Z" fill="#1D3B54"/>
<path d="M23.6498 135.404C24.7514 134.461 26.3453 132.845 28.6698 136.04C30.9944 139.236 32.6859 141.294 33.1881 142.226C33.6904 143.158 38.0607 149.65 38.0607 149.65C38.0607 149.65 40.3825 147.432 41.7103 146.392C43.2066 145.218 47.2847 140.846 47.2847 140.846L49.9801 143.922C49.9801 143.922 40.6292 154.598 39.1833 154.974C37.7375 155.35 33.6876 151.601 32.0838 150.147C30.4799 148.694 25.9799 143.404 25.1982 142.891C24.416 142.38 20.7775 137.865 23.6498 135.404Z" fill="#1D3B54"/>
<path d="M55.6843 184.939C55.3422 185.734 55.0229 186.473 54.744 187.117C53.6945 183.645 53.781 177.843 53.781 177.843C54.4108 181.889 55.6654 184.893 55.6843 184.939Z" fill="#A77860"/>
<path d="M40.5347 172.876H10.5V176.277H40.5347V172.876Z" fill="#0085F9"/>
<path d="M26.1287 162.026C26.1287 162.026 25.3714 165.177 28.9367 165.893C32.502 166.609 36.8861 167.522 36.8861 173.182H24.5215L26.1287 162.026Z" fill="#0085F9"/>
<path d="M44.4609 127.727L44.971 126.759L45.0386 127.858L44.4609 127.727Z" fill="#EEA886"/>
<path d="M10.5002 176.275L0 130.868C0 130.868 18.9829 127.817 21.2443 136.587C23.5062 145.359 27.2267 171.412 31.7495 173.023C36.2728 174.634 10.5002 176.275 10.5002 176.275Z" fill="#0085F9"/>
<path d="M34.9154 152.625C34.9154 152.625 34.7219 153.459 34.5151 154.148L29.8965 147.985L34.9154 152.625Z" fill="#152C3D"/>
<path d="M23.3379 124.384C23.3379 124.384 25.1635 129.346 24.6673 130.702C24.6673 130.702 27.5169 129.45 26.9969 126.197C26.4769 122.947 23.3379 124.384 23.3379 124.384Z" fill="#1D3B54"/>
<path d="M29.9229 134.701V133.719L25.8703 131.688L24.4688 133.355L29.9229 134.701Z" fill="#1D3B54"/>
<path d="M44.2885 206.765C44.2885 207.658 43.5855 208.38 42.7185 208.38C41.8514 208.38 41.1484 207.658 41.1484 206.765C41.1484 205.873 41.8514 205.149 42.7185 205.149C43.5855 205.149 44.2885 205.873 44.2885 206.765Z" fill="#BFB2AC"/>
<path d="M8.92969 205.162L9.32719 206.312L26.1286 200.956L25.3231 198.626L8.92969 205.162Z" fill="#918783"/>
<path d="M42.7179 205.165L42.3204 206.316L25.5195 200.96L26.2574 198.483L42.7179 205.165Z" fill="#918783"/>
<path d="M30.8805 206.193V207.532L25.5195 200.96L26.2574 198.483L30.8805 206.193Z" fill="#918783"/>
<path d="M31.0131 206.765C31.0131 207.658 30.3102 208.38 29.4431 208.38C28.576 208.38 27.873 207.658 27.873 206.765C27.873 205.873 28.576 205.149 29.4431 205.149C30.3102 205.149 31.0131 205.873 31.0131 206.765Z" fill="#BFB2AC"/>
<path d="M8.92941 208.38C9.79652 208.38 10.4995 207.657 10.4995 206.765C10.4995 205.873 9.79652 205.149 8.92941 205.149C8.06231 205.149 7.35938 205.873 7.35938 206.765C7.35938 207.657 8.06231 208.38 8.92941 208.38Z" fill="#BFB2AC"/>
<path d="M229.251 44.4725C229.251 48.7581 227.753 52.6826 225.268 55.7242C224.686 56.4355 224.051 57.0983 223.368 57.7058C223.173 57.8792 222.974 58.0492 222.772 58.2124C222.543 58.3983 222.309 58.578 222.072 58.7526C219.834 60.384 217.196 61.4729 214.341 61.8317C213.838 61.8956 213.327 61.9367 212.811 61.9538C212.626 61.9601 212.44 61.9629 212.253 61.9629C211.703 61.9629 211.158 61.9361 210.623 61.8836C210.023 61.8249 209.434 61.7348 208.854 61.6127C206.279 61.0759 203.915 59.9391 201.906 58.3498C201.299 57.8713 200.726 57.3522 200.19 56.7949C200.085 56.6865 199.982 56.5764 199.88 56.4651C199.499 56.051 199.14 55.6175 198.801 55.1663C196.577 52.2098 195.254 48.4997 195.254 44.4725C195.254 34.8123 202.865 26.9814 212.253 26.9814C221.64 26.9814 229.251 34.8123 229.251 44.4725Z" fill="#EEF0F7"/>
<path d="M223.325 54.1212L222.071 58.7502C219.834 60.3816 217.196 61.4706 214.34 61.8294C213.838 61.8933 213.327 61.9343 212.811 61.9515C212.626 61.9577 212.439 61.9606 212.253 61.9606C211.703 61.9606 211.158 61.9338 210.623 61.8813C210.023 61.8225 209.433 61.7324 208.854 61.6103C206.278 61.0736 203.915 59.9367 201.906 58.3475C201.665 56.817 201.408 55.1234 201.18 53.5394C202.429 53.0608 206.406 51.6695 208.915 50.7962C208.95 50.7836 208.986 50.7722 209.019 50.7602C209.075 50.7403 209.129 50.7214 209.182 50.7032C209.331 50.6518 209.473 50.6017 209.609 50.5549C209.746 50.507 209.877 50.4619 209.999 50.4185C210.513 50.2406 210.875 50.1151 211.005 50.0712C211.006 50.07 211.006 50.07 211.007 50.07C211.041 50.058 211.058 50.0518 211.058 50.0518L211.087 50.054L214.462 50.3142L215.028 50.3575L215.204 50.3712C215.204 50.3712 215.23 50.3775 215.281 50.3912C215.485 50.4442 216.076 50.6039 216.859 50.8498C216.86 50.8498 216.862 50.8509 216.863 50.8509C218.86 51.4795 222.102 52.6746 223.325 54.1212Z" fill="#D9C7C1"/>
<path d="M213.138 35.7842C213.138 35.7842 217.185 36.487 216.498 43.0064C215.812 49.5258 212.24 48.9509 212 48.9412C211.761 48.932 208.408 49.0199 208.23 41.0487C208.23 41.0487 208.179 35.1556 213.138 35.7842Z" fill="#EEA987"/>
<path d="M214.909 47.0519C214.909 47.0519 214.77 49.7351 215.015 50.3187C215.262 50.9028 211.766 52.7504 209.594 50.6461C209.594 50.6461 210.033 47.713 209.896 46.6776C209.76 45.6423 214.909 47.0519 214.909 47.0519Z" fill="#EEA987"/>
<path d="M216.581 41.1632C216.581 41.1632 217.03 40.6801 217.187 41.1758C217.345 41.6715 216.47 43.8688 216.525 43.9686C216.525 43.9686 216.442 44.1591 216.336 44.0524C216.231 43.9458 216.581 41.1632 216.581 41.1632Z" fill="#EEA987"/>
<path d="M208.276 40.9893C208.276 40.9893 207.847 40.4879 207.669 40.9768C207.492 41.465 208.139 43.6595 208.22 43.7952C208.22 43.7952 208.359 44.0206 208.469 43.9185C208.578 43.8163 208.276 40.9893 208.276 40.9893Z" fill="#EEA987"/>
<path d="M216.839 40.6106C216.699 41.5027 216.568 42.1656 216.568 42.1656L215.979 42.9568C215.979 42.9568 216.014 41.2067 215.923 40.9317C215.889 40.8273 215.849 40.6431 215.808 40.4429C215.74 40.1132 215.671 39.7407 215.623 39.6169C215.547 39.4184 212.154 38.399 209.132 39.8302C209.132 39.8302 209.159 40.0995 209.156 40.3995C209.156 40.7486 209.119 41.1399 208.962 41.1993C208.673 41.3082 208.793 43.2471 208.793 43.2471L208.322 42.6881C208.322 42.6881 208.186 41.675 208.052 40.5108C208.052 40.5108 208.051 40.5079 208.051 40.5022C208.02 40.2307 207.989 39.9517 207.96 39.6745C207.892 38.5034 208.005 36.3769 209.487 35.1276C210.487 34.6873 212.084 34.3131 214.745 35.1516C214.745 35.1516 215.356 35.1932 215.527 35.3632C217.186 37.2416 216.839 40.6106 216.839 40.6106Z" fill="#E8734D"/>
<path d="M210.176 48.0713C210.176 48.0713 210.822 48.9942 212.322 48.9594C213.823 48.9246 214.475 48.1192 214.475 48.1192C214.475 48.1192 213.764 49.6485 212.315 49.632C210.866 49.616 210.176 48.0713 210.176 48.0713Z" fill="#C78D71"/>
<path d="M209.184 50.7011C209.184 50.7011 210.268 52.6439 212.326 52.8271C213.631 52.9428 214.761 51.2407 215.291 50.405C215.291 50.405 212.368 49.117 209.184 50.7011Z" fill="#EEA987"/>
<path d="M214.916 49.79C214.916 49.79 214.089 50.9052 212.326 52.0986L213.422 53.8361L215.291 50.4038L214.916 49.79Z" fill="#EDDAD3"/>
<path d="M209.678 50.0537C209.678 50.0537 210.731 51.4113 212.325 52.1027L211.122 53.8927L209.02 50.7616L209.678 50.0537Z" fill="#EDDAD3"/>
<path d="M212.326 52.0986L213.265 53.5692C213.265 53.5692 212.279 54.1436 211.361 53.5327L212.326 52.0986Z" fill="#5073AB"/>
<path d="M224.41 53.8486C224.41 53.8486 224.401 53.8823 224.383 53.9456C224.28 54.3232 223.884 55.7744 223.368 57.7047C223.172 57.8781 222.973 58.0481 222.771 58.2112C222.542 58.3972 222.309 58.5769 222.071 58.7514C219.833 60.3829 217.196 61.4718 214.34 61.8306C214.592 55.7761 215.29 50.4072 215.29 50.4072C215.841 50.5561 216.363 50.7044 216.858 50.8504C216.859 50.8504 216.861 50.8516 216.862 50.8516C221.175 52.1254 223.362 53.2428 224.108 53.6678C224.114 53.6701 224.12 53.6741 224.124 53.6769C224.319 53.7882 224.41 53.8486 224.41 53.8486Z" fill="#323657"/>
<path d="M208.854 61.6068C206.278 61.07 203.915 59.9332 201.906 58.344C201.299 57.8654 200.726 57.3463 200.189 56.789C200.085 56.6806 199.981 56.5705 199.88 56.4593C199.582 55.1593 199.385 54.3105 199.372 54.2557L199.371 54.2529C199.371 54.2529 201.474 52.8308 208.915 50.7881C208.915 50.7881 208.915 50.7898 208.915 50.7926C208.915 50.9683 208.919 55.8797 208.854 61.6068Z" fill="#323657"/>
<path d="M212.864 53.7316C212.795 55.3259 212.787 58.4199 212.811 61.9497C212.626 61.956 212.44 61.9589 212.253 61.9589C211.703 61.9589 211.159 61.9321 210.623 61.8796C210.95 57.5261 211.501 54.804 211.752 53.727C211.834 53.3739 211.885 53.1982 211.885 53.1982L212.882 53.3677C212.876 53.4783 212.869 53.5993 212.864 53.7316Z" fill="#5073AB"/>
<path d="M225.266 55.722C224.684 56.4333 224.049 57.0962 223.366 57.7037C223.171 57.8771 222.972 58.0471 222.77 58.2102L224.107 53.6667L224.107 53.665C224.113 53.6685 224.118 53.6713 224.123 53.6759C224.205 53.7312 224.291 53.8213 224.382 53.9451C224.644 54.2971 224.945 54.9177 225.266 55.722Z" fill="#323657"/>
<path d="M200.189 56.793C200.085 56.6846 199.981 56.5745 199.88 56.4632C199.498 56.0491 199.139 55.6156 198.801 55.1644C198.993 54.6921 199.184 54.3755 199.371 54.2568L199.371 54.2597L200.189 56.793Z" fill="#323657"/>
<path d="M109.618 26.0637H90.5477C89.4899 26.0637 88.6328 25.1818 88.6328 24.0934V22.5533C88.6328 21.4649 89.4899 20.583 90.5477 20.583H109.618C110.675 20.583 111.533 21.4649 111.533 22.5533V24.0934C111.533 25.1818 110.675 26.0637 109.618 26.0637Z" fill="#F5F7FF"/>
<path d="M98.1003 61.9584C99.1636 62.3292 100.302 62.5363 101.486 62.5528C105.074 62.6002 108.283 60.8752 110.325 58.1674C111.74 56.2895 112.595 53.9411 112.625 51.3821C112.629 51.1283 112.624 50.8744 112.611 50.624C112.553 49.4877 112.33 48.3959 111.968 47.3714C110.452 43.075 106.475 39.9821 101.77 39.9199C99.2351 39.8857 96.8906 40.7374 95.0117 42.1954C92.3872 44.2318 90.6747 47.449 90.6298 51.0912C90.5672 56.1218 93.7045 60.4285 98.1003 61.9584ZM93.3813 51.1271C93.4151 48.4165 94.6819 46.0184 96.6256 44.4919C98.042 43.3784 99.8155 42.727 101.734 42.7515C105.262 42.7983 108.243 45.1171 109.381 48.3383L109.383 48.3429C109.653 49.109 109.819 49.9264 109.864 50.7769C109.873 50.9651 109.876 51.1539 109.875 51.3456C109.851 53.264 109.209 55.0243 108.149 56.431C106.618 58.4628 104.213 59.7566 101.524 59.7206C100.634 59.7092 99.7812 59.5535 98.9834 59.2751C95.6881 58.1291 93.3347 54.9011 93.3813 51.1271Z" fill="#0085F9"/>
<path d="M108.149 56.4307L110.326 58.1648C108.284 60.8732 105.075 62.5987 101.488 62.5508C100.303 62.5354 99.1654 62.3272 98.1016 61.957L98.9847 59.2737C99.7825 59.5509 100.636 59.7066 101.524 59.7186C104.213 59.7551 106.619 58.4614 108.149 56.4307Z" fill="#1A598C"/>
<path d="M109.863 50.7755L112.612 50.6221C112.625 50.8725 112.63 51.1263 112.626 51.3807C112.595 53.9391 111.74 56.2881 110.325 58.1654L108.148 56.4313C109.209 55.0241 109.85 53.2632 109.874 51.3448C109.876 51.1531 109.872 50.9638 109.863 50.7755Z" fill="#2273B5"/>
<path d="M109.864 50.7781C109.819 49.9276 109.654 49.1102 109.383 48.3441L109.381 48.3395L111.969 47.3721C112.331 48.3966 112.553 49.4884 112.612 50.6246L109.864 50.7781Z" fill="#2273B5"/>
<path d="M95.0117 42.1954C96.8906 40.7368 99.2351 39.8857 101.77 39.9199C106.475 39.9821 110.452 43.075 111.968 47.3714L109.383 48.3434L109.38 48.3389C108.243 45.1177 105.261 42.7983 101.734 42.7521C99.815 42.7276 98.0415 43.379 96.625 44.4925L95.0117 42.1954Z" fill="#4DA8F2"/>
<path d="M183.457 84.5059H176.332C174.915 84.5059 173.768 83.3251 173.768 81.8682V74.5371C173.768 73.0802 174.915 71.8994 176.332 71.8994H183.457C184.873 71.8994 186.021 73.0808 186.021 74.5371V81.8682C186.021 83.3251 184.873 84.5059 183.457 84.5059Z" fill="#0085F9"/>
<path d="M179.508 80.9803L176.41 78.2017C176.157 77.9741 176.13 77.5771 176.351 77.3159C176.573 77.0546 176.958 77.0278 177.212 77.2554L179.403 79.2205L182.526 75.6354C182.751 75.377 183.137 75.3559 183.388 75.5875C183.639 75.819 183.66 76.2161 183.435 76.4739L179.508 80.9803Z" fill="#F3F3F3"/>
<path d="M183.457 100.66H176.332C174.915 100.66 173.768 99.4794 173.768 98.0225V90.6914C173.768 89.2345 174.915 88.0537 176.332 88.0537H183.457C184.873 88.0537 186.021 89.2345 186.021 90.6914V98.0225C186.021 99.4794 184.873 100.66 183.457 100.66Z" fill="#0085F9"/>
<path d="M179.508 97.1329L176.41 94.3544C176.157 94.1268 176.13 93.7298 176.351 93.4685C176.573 93.2073 176.958 93.1804 177.212 93.408L179.403 95.3726L182.526 91.788C182.751 91.5296 183.137 91.508 183.388 91.7396C183.639 91.9711 183.66 92.3682 183.435 92.626L179.508 97.1329Z" fill="#F3F3F3"/>
<path d="M183.457 116.814H176.332C174.915 116.814 173.768 115.632 173.768 114.175V106.844C173.768 105.387 174.915 104.206 176.332 104.206H183.457C184.873 104.206 186.021 105.387 186.021 106.844V114.175C186.021 115.632 184.873 116.814 183.457 116.814Z" fill="#0085F9"/>
<path d="M134.95 191.471C134.95 191.471 135.32 194.026 135.568 195.116C135.816 196.206 138.106 199.332 138.065 199.863C138.025 200.395 137.056 201.021 136.569 200.593C136.081 200.165 132.845 196.744 132.153 195.278C131.461 193.813 129.173 191.902 128.939 191.252C128.705 190.6 131.638 188.697 132.394 188.393C133.15 188.09 134.95 191.471 134.95 191.471Z" fill="#1D2033"/>
<path d="M129.214 146.002C129.214 146.002 129.517 147.631 129.74 147.933C129.963 148.234 130.565 149.749 130.626 149.963C130.687 150.176 131.056 151.706 131.12 151.899C131.182 152.093 130.759 152.395 130.47 151.986C130.29 151.732 129.974 150.741 129.846 150.422C129.718 150.103 129.323 149.091 129.217 149.275C129.11 149.46 129.137 150.816 129.119 151.165C129.101 151.514 129.317 152.587 129.418 153.031C129.518 153.475 130.092 155.337 129.862 155.437C129.632 155.538 129.438 155.51 129.14 155.01C129.14 155.01 128.67 155.281 128.395 154.668C128.395 154.668 127.973 154.825 127.713 154.026C127.713 154.026 127.413 153.857 127.297 153.571C127.181 153.284 126.499 150.835 126.505 149.836C126.511 148.838 126.739 148.141 126.697 147.437C126.656 146.732 126.305 145.224 126.305 145.224L129.214 146.002Z" fill="#EEA886"/>
<path d="M133.276 187.989L132.395 188.39L134.951 191.468L135.799 190.503L133.276 187.989Z" fill="#50558A"/>
<path d="M142.212 194.438C142.212 194.438 141.642 195.85 141.163 196.409C140.683 196.969 138.845 197.969 138.836 199.631C138.825 201.433 141.933 200.932 143.149 200.867C144.364 200.8 144.456 199.838 144.968 198.818C145.479 197.798 145.995 197.971 146.091 197.147C146.187 196.324 145.699 194.482 145.699 194.482L142.212 194.438Z" fill="#1D2033"/>
<path d="M142.157 193.916L142.068 194.771C142.068 194.771 143.98 195.478 145.787 194.845L145.686 193.677L142.157 193.916Z" fill="#50558A"/>
<path d="M152.759 172.205C152.759 169.984 151.183 150.601 151.255 149.861C151.303 149.377 150.802 144.737 150.447 141.567C150.444 141.54 150.441 141.512 150.437 141.486C150.437 141.479 150.436 141.473 150.436 141.467C150.335 140.576 150.248 139.808 150.19 139.293C150.162 139.055 150.141 138.87 150.128 138.753C150.116 138.656 150.111 138.605 150.111 138.605C150.111 138.605 139.944 136.542 134.673 138.491C134.453 138.573 134.241 138.661 134.04 138.757C134.04 138.757 134.027 138.849 134.004 139.022C133.95 139.423 133.841 140.26 133.694 141.396C133.669 141.588 133.643 141.788 133.615 141.995C132.865 147.839 133.347 154.191 134.661 160.692C135.949 167.07 136.658 171.84 136.791 172.767C136.965 173.982 137.482 177.326 138.055 180.993C135.256 184.544 132.871 187.563 133.048 187.864C133.49 188.606 137.416 192.788 137.632 192.048C137.632 192.048 138.341 191.222 139.452 189.905C139.805 192.149 140.046 193.679 140.046 193.679C140.046 193.679 144.35 194.736 145.934 193.774C145.934 193.774 145.311 188.909 144.662 183.618C148.613 178.753 152.759 173.368 152.759 172.205ZM143.216 170.601C143.163 167.618 141.873 150.904 142.01 150.904C142.644 150.904 146.219 166.821 146.352 169.061C146.379 169.52 145.821 170.546 144.921 171.897C144.515 172.505 144.04 173.178 143.518 173.895L143.518 173.895C143.34 172.257 143.225 171.052 143.216 170.601Z" fill="#292C47"/>
<path d="M154.456 110.879L151.721 120.971C151.628 121.298 151.516 121.701 151.397 122.169L151.393 122.187C151.392 122.191 151.39 122.195 151.389 122.199C150.933 123.998 150.369 126.74 150.2 129.787C150.086 131.864 150.461 140.213 150.461 140.213C150.461 140.213 146.323 141.801 140.133 141.399C140.133 141.399 133.474 141.239 134.018 137.038C135.455 125.921 134.049 121.337 133.861 120.22C133.861 120.22 132.958 114.82 132.311 110.296C134.184 109.578 142.188 106.81 142.188 106.81L146.334 107.129C146.334 107.129 152.635 108.726 154.456 110.879Z" fill="#D9C7C1"/>
<path d="M144.27 92.5441C144.27 92.5441 148.317 93.2463 147.631 99.7657C146.945 106.285 143.372 105.71 143.133 105.701C142.894 105.692 139.54 105.78 139.363 97.8086C139.363 97.8086 139.311 91.9149 144.27 92.5441Z" fill="#EEA987"/>
<path d="M146.042 103.812C146.042 103.812 145.902 106.496 146.149 107.079C146.395 107.663 142.899 109.511 140.727 107.406C140.727 107.406 141.166 104.473 141.029 103.437C140.893 102.402 146.042 103.812 146.042 103.812Z" fill="#EEA987"/>
<path d="M147.713 97.9226C147.713 97.9226 148.163 97.44 148.32 97.9357C148.477 98.4314 147.603 100.629 147.657 100.728C147.657 100.728 147.574 100.919 147.469 100.812C147.364 100.706 147.713 97.9226 147.713 97.9226Z" fill="#EEA987"/>
<path d="M139.409 97.7471C139.409 97.7471 138.98 97.2457 138.802 97.7346C138.625 98.2229 139.272 100.417 139.353 100.552C139.353 100.552 139.492 100.778 139.602 100.676C139.712 100.574 139.409 97.7471 139.409 97.7471Z" fill="#EEA987"/>
<path d="M147.971 97.3689C147.832 98.261 147.7 98.9239 147.7 98.9239L147.111 99.7156C147.111 99.7156 147.146 97.9655 147.055 97.6906C147.022 97.5862 146.981 97.402 146.94 97.2023C146.873 96.8726 146.803 96.5001 146.756 96.3763C146.68 96.1784 143.287 95.1585 140.265 96.5897C140.265 96.5897 140.291 96.8589 140.289 97.1595C140.288 97.5086 140.251 97.8999 140.095 97.9593C139.806 98.0682 139.927 100.007 139.927 100.007L139.455 99.4475C139.455 99.4475 139.319 98.435 139.185 97.2708C139.185 97.2708 139.184 97.2679 139.184 97.2622C139.153 96.9907 139.122 96.7112 139.093 96.4345C139.025 95.2634 139.138 93.1369 140.62 91.8876C141.62 91.4473 143.216 91.0725 145.878 91.9116C145.878 91.9116 146.488 91.9532 146.66 92.1232C148.318 93.9999 147.971 97.3689 147.971 97.3689Z" fill="#E8734D"/>
<path d="M141.307 104.831C141.307 104.831 141.953 105.754 143.453 105.719C144.954 105.684 145.605 104.88 145.605 104.88C145.605 104.88 144.895 106.408 143.446 106.392C141.997 106.376 141.307 104.831 141.307 104.831Z" fill="#C78D71"/>
<path d="M140.316 107.463C140.316 107.463 141.401 109.405 143.459 109.589C144.764 109.705 145.894 108.003 146.424 107.166C146.424 107.166 143.501 105.879 140.316 107.463Z" fill="#EEA987"/>
<path d="M146.047 106.552C146.047 106.552 145.219 107.668 143.457 108.861L144.554 110.598L146.422 107.166L146.047 106.552Z" fill="#EDDAD3"/>
<path d="M140.81 106.81C140.81 106.81 141.862 108.168 143.457 108.859L142.254 110.649L140.15 107.517L140.81 106.81Z" fill="#EDDAD3"/>
<path d="M143.456 108.86L144.395 110.331C144.395 110.331 143.409 110.905 142.492 110.294L143.456 108.86Z" fill="#5073AB"/>
<path d="M133.793 142.158C133.793 142.158 138.871 144.085 150.355 142.269L150.202 140.13C150.202 140.13 143.546 142.151 133.996 140.42L133.793 142.158Z" fill="#1D2033"/>
<path d="M146.421 107.165C146.421 107.165 145.233 116.292 145.396 124.164C145.559 132.036 151.338 146.332 151.338 146.332C151.338 146.332 153.863 143.818 154.963 142.395C154.963 142.395 151.031 130.72 151.103 128.614C151.175 126.509 155.541 110.607 155.541 110.607C155.541 110.607 153.114 108.978 146.421 107.165Z" fill="#323657"/>
<path d="M140.047 107.552C140.047 107.552 140.057 116.293 139.894 124.165C139.732 132.037 138.724 146.692 138.724 146.692C138.724 146.692 133.068 145.771 131.969 144.348C131.969 144.348 134.26 130.721 134.188 128.615C134.116 126.51 130.504 111.017 130.504 111.017C130.504 111.017 132.606 109.594 140.047 107.552Z" fill="#323657"/>
<path d="M143.838 140.79H140.719V143.177H143.838V140.79Z" fill="#3A4066"/>
<path d="M143.017 109.96C143.017 109.96 141.624 114.854 141.502 124.574C141.381 134.293 141.673 137.08 141.673 137.08L142.761 139.295L144.211 136.984C144.211 136.984 143.746 114.618 144.015 110.131L143.017 109.96Z" fill="#5073AB"/>
<path d="M151.025 146.415C151.025 146.415 151.365 146.181 151.459 146.015C151.459 146.015 151.603 145.7 151.721 145.482C151.759 145.414 151.793 145.354 151.821 145.318C151.932 145.166 152.228 144.862 152.382 144.43C152.536 143.999 152.665 141.991 152.665 141.991L151.468 141.629L150.403 141.147C150.403 141.147 148.072 142.987 147.877 143.374C147.858 143.411 147.841 143.45 147.828 143.487C147.698 143.828 147.762 144.131 147.716 144.317C147.7 144.385 147.591 145.075 147.747 145.228C147.965 145.44 148.213 145.508 148.433 145.475C148.433 145.475 148.879 145.874 149.304 145.91C149.304 145.91 149.703 146.29 150.247 146.2C150.247 146.2 150.701 146.544 151.025 146.415Z" fill="#EEA886"/>
<path d="M149.498 140.925C149.498 140.925 151.116 142.392 153.383 143.176C153.383 143.176 160.898 130.575 160.993 129.666C161.08 128.824 157.265 111.69 155.542 110.606L152.414 120.03C152.621 119.968 155.974 127.188 155.987 128.117C156.006 129.362 149.498 140.925 149.498 140.925Z" fill="#323657"/>
<path d="M130.099 147.708C130.099 147.708 128.41 148.031 125.967 147.889C125.967 147.889 126.919 131.715 126.823 130.806C126.736 129.965 128.781 112.101 130.502 111.017L133.574 120.538C133.366 120.476 131.515 130.278 131.501 131.207C131.485 132.452 130.099 147.708 130.099 147.708Z" fill="#323657"/>
<path d="M147.533 142.716L152.362 145.292L150.464 148.908L146.354 144.387L147.533 142.716Z" fill="#292C47"/>
<path d="M144.922 171.897L144.434 181.73L143.52 173.896C144.042 173.179 144.516 172.506 144.922 171.897Z" fill="#1D2033"/>
<path d="M123.434 52.3721H120.615V61.8811H123.434V52.3721Z" fill="#0085F9"/>
<path d="M224.425 115.721C224.425 123.117 218.601 129.163 211.361 129.163C204.132 129.163 198.297 123.131 198.297 115.721C198.297 108.297 204.146 102.278 211.361 102.278C218.575 102.278 224.425 108.297 224.425 115.721Z" fill="#EEF0F7"/>
<path d="M118.815 55.04H115.996V61.8823H118.815V55.04Z" fill="#0085F9"/>
<path d="M128.055 47.9658H125.236V61.882H128.055V47.9658Z" fill="#0085F9"/>
<path d="M242.665 155.353H260.794V154.245H242.665V155.353Z" fill="#E2D2CA"/>
<path d="M258.366 158.235H256.777V208.593H258.366V158.235Z" fill="#706865"/>
<path d="M232.906 155.511H245.508V153.93H232.906V155.511Z" fill="#CCBDB7"/>
<path d="M236.818 155.354H241.59V140.441H236.818V155.354Z" fill="#4667A8"/>
<path d="M197.478 158.235H267.298V155.372H197.478V158.235Z" fill="#B59074"/>
<path d="M280.701 138.041C280.701 138.041 281.464 149.06 279.372 150.379C278.061 151.205 272.835 153.991 272.99 154.514C273.144 155.036 275.941 159.163 275.941 159.163C275.941 159.163 285.979 152.361 286.303 150.217C286.619 148.123 285.808 134.084 284.429 133.437C283.396 132.952 282.85 133.354 281.548 134.348C279.719 135.745 280.701 138.041 280.701 138.041Z" fill="#FFC05C"/>
<path d="M268.348 201.715C268.348 201.715 268.659 203.944 268.699 204.279C268.738 204.614 272.172 204.082 272.172 204.082L272.45 201.427C272.45 201.427 268.777 201.4 268.348 201.715Z" fill="#424773"/>
<path d="M268.662 203.998C268.662 203.998 267.574 205.341 266.522 205.927C265.47 206.512 263.816 206.745 263.194 207.351C262.744 207.788 261.558 209.671 265.928 209.634C270.298 209.595 272.405 209.899 272.873 209.177C273.342 208.455 272.196 203.847 272.196 203.847C272.196 203.847 271.161 204.23 268.662 203.998Z" fill="#292C47"/>
<path d="M246.352 201.738C246.352 201.738 246.664 203.968 246.703 204.302C246.741 204.637 250.175 204.104 250.175 204.104L250.454 201.451C250.454 201.451 246.781 201.423 246.352 201.738Z" fill="#424773"/>
<path d="M246.665 204.019C246.665 204.019 245.576 205.363 244.524 205.949C243.472 206.534 239.6 207.015 238.978 207.622C238.529 208.059 237.782 209.82 243.931 209.655C248.3 209.538 250.408 209.921 250.876 209.199C251.345 208.477 250.198 203.868 250.198 203.868C250.198 203.868 249.223 204.278 246.665 204.019Z" fill="#292C47"/>
<path d="M279.423 163.204C279.423 163.204 266.94 165.377 264.12 165.832C261.301 166.288 246.013 170.202 244.101 171.395C242.58 172.344 244.899 195.146 245.441 203.845H251.463L251.899 177.75C259.125 177.936 264.282 176.011 269.544 176.833C274.805 177.655 279.192 178.824 282.536 174.209C282.536 174.209 282.66 164.211 279.423 163.204Z" fill="#292C47"/>
<path d="M267.119 203.872L272.987 203.499L273.559 177.756C276.67 177.836 277.736 177.633 280.254 177.319L284.991 165.987C280.839 166.841 267.535 170.294 265.761 171.401C264.239 172.35 266.577 195.173 267.119 203.872Z" fill="#292C47"/>
<path d="M273.678 115.06C273.678 115.06 269.102 113.759 267.355 117.414C265.61 121.069 266.401 127.999 268.708 128.65C271.014 129.302 274.33 128.552 275.288 126.277C276.245 124.002 277.009 120.769 276.78 118.676C276.551 116.582 274.893 115.56 273.678 115.06Z" fill="#EEA886"/>
<path d="M269.901 127.92C269.901 127.92 269.952 130.699 269.654 131.292C269.357 131.885 276.026 131.735 276.026 131.735C276.026 131.735 274.975 128.397 275.572 125.553C276.162 122.739 269.901 127.92 269.901 127.92Z" fill="#EEA886"/>
<path d="M275.93 124.5C275.93 124.5 275.574 125.246 273.847 125.126C272.121 125.005 269.844 122.862 269.111 122.671C268.378 122.479 268.335 122.05 268.335 122.05L267.947 122.759L267.196 122.877C267.196 122.877 267.706 120.729 266.594 119.972C265.482 119.216 267.094 113.125 272.725 114.594C272.725 114.594 277.021 115.403 277.079 117.872C277.137 120.341 276.765 123.192 275.93 124.5Z" fill="#3A3F47"/>
<path d="M269.303 131.22C269.303 131.22 269.322 130.088 269.821 129.979C270.32 129.87 275.064 129.199 275.676 129.446L275.939 130.941C275.939 130.941 274.759 131.689 269.303 131.22Z" fill="#E2D2CA"/>
<path d="M267.931 121.547C268.058 120.619 269.084 119.553 269.672 120.999C270.259 122.443 269.275 124.55 268.617 124.436C267.957 124.323 267.757 122.806 267.931 121.547Z" fill="#EEA886"/>
<path d="M249.432 144.6C249.434 144.599 249.437 144.598 249.44 144.599C249.404 144.615 249.4 144.616 249.432 144.6Z" fill="#323657"/>
<path d="M275.012 115.721C275.012 115.721 280.591 115.45 275.986 124.412L275.012 115.721Z" fill="#3A3F47"/>
<path d="M287.443 206.921L287.028 208.122L269.49 202.532L270.331 200.099L287.443 206.921Z" fill="#918783"/>
<path d="M268.886 201.671H270.88V182.052H268.886V201.671Z" fill="#918783"/>
<path d="M264.006 182.171H275.763V181.015H264.006V182.171Z" fill="#5E5854"/>
<path d="M252.174 206.921L252.589 208.123L270.126 202.532L269.356 199.946L252.174 206.921Z" fill="#918783"/>
<path d="M264.531 207.994V209.392L270.127 202.532L269.357 199.946L264.531 207.994Z" fill="#918783"/>
<path d="M250.535 208.593C250.535 209.525 251.269 210.28 252.174 210.28C253.079 210.28 253.813 209.525 253.813 208.593C253.813 207.662 253.079 206.907 252.174 206.907C251.269 206.907 250.535 207.662 250.535 208.593Z" fill="#BFB2AC"/>
<path d="M264.391 208.593C264.391 209.525 265.125 210.28 266.03 210.28C266.935 210.28 267.669 209.525 267.669 208.593C267.669 207.662 266.935 206.907 266.03 206.907C265.125 206.907 264.391 207.662 264.391 208.593Z" fill="#BFB2AC"/>
<path d="M285.805 208.593C285.805 209.525 286.539 210.28 287.444 210.28C288.349 210.28 289.083 209.525 289.083 208.593C289.083 207.662 288.349 206.907 287.444 206.907C286.539 206.907 285.805 207.662 285.805 208.593Z" fill="#BFB2AC"/>
<path d="M257.983 181.016H281.634C282.795 181.016 283.735 180.049 283.735 178.855V178.8C283.735 177.606 282.795 176.638 281.634 176.638H257.983C256.823 176.638 255.883 177.606 255.883 178.8V178.855C255.883 180.048 256.823 181.016 257.983 181.016Z" fill="#E2D2CA"/>
<path d="M206.412 208.595H208V158.237H206.412V208.595Z" fill="#706865"/>
<path d="M220.698 147.626H257.711C258.869 147.626 259.807 146.661 259.807 145.47V119.874C259.807 118.683 258.869 117.718 257.711 117.718H220.698C219.54 117.718 218.602 118.683 218.602 119.874V145.47C218.602 146.661 219.54 147.626 220.698 147.626Z" fill="#5F8BE3"/>
<path d="M220.215 142.933H258.193V119.327H220.215V142.933Z" fill="#F5F7FF"/>
<path d="M220.215 121.214H258.193V119.335H220.215V121.214Z" fill="#CECFD6"/>
<path d="M222.916 141.484H224.901C225.617 141.484 226.198 140.887 226.198 140.15V123.959C226.198 123.222 225.617 122.624 224.901 122.624H222.916C222.2 122.624 221.619 123.222 221.619 123.959V140.15C221.619 140.887 222.2 141.484 222.916 141.484Z" fill="#CECFD6"/>
<path d="M249.466 124.371H256.418C256.805 124.371 257.119 124.049 257.119 123.651V123.345C257.119 122.947 256.805 122.624 256.418 122.624H249.466C249.079 122.624 248.766 122.947 248.766 123.345V123.651C248.766 124.048 249.079 124.371 249.466 124.371Z" fill="#CECFD6"/>
<path d="M250.212 141.965H255.671C256.47 141.965 257.118 141.298 257.118 140.476V127.03C257.118 126.208 256.47 125.542 255.671 125.542H250.212C249.413 125.542 248.766 126.208 248.766 127.03V140.476C248.766 141.298 249.413 141.965 250.212 141.965Z" fill="#CECFD6"/>
<path d="M237.875 145.138C237.875 145.893 238.47 146.505 239.204 146.505C239.938 146.505 240.533 145.893 240.533 145.138C240.533 144.383 239.938 143.771 239.204 143.771C238.47 143.771 237.875 144.383 237.875 145.138Z" fill="#5C5552"/>
<path d="M230.672 155.41V154.878C230.672 154.878 231.399 151.567 236.543 151.567C241.687 151.567 241.583 155.41 241.583 155.41H230.672V155.41Z" fill="#2E436E"/>
<path d="M241.646 152.06C241.646 152.06 240.528 151.97 240.119 151.716C239.71 151.462 237.26 149.767 236.685 150.038C236.11 150.31 232.281 151.517 232.414 152.093C232.547 152.669 232.901 152.613 233.171 152.511C233.441 152.409 236.222 151.809 236.467 151.91C236.467 151.91 233.736 152.935 233.725 153.683C233.714 154.43 234.296 154.612 234.555 154.895C234.814 155.178 235.125 155.881 235.829 155.934C236.533 155.988 239.967 154.759 240.673 154.703C241.38 154.647 242.689 154.748 242.778 154.629C242.868 154.511 241.646 152.06 241.646 152.06Z" fill="#EEA886"/>
<path d="M261.991 132.792C265.554 132.147 269.304 131.223 269.304 131.223L275.94 130.944C275.94 130.944 282.03 132.324 284.429 133.438C284.656 133.544 284.657 139.029 285.282 140.466L283.294 144.783C283.294 144.783 282.144 153.333 281.906 157.136C281.797 158.882 282.216 174.007 282.216 174.007C282.216 174.007 281.62 174.309 277.091 174.823C272.562 175.337 261.247 174.638 261.176 174.088C261.104 173.537 263.367 153.594 263.468 152.561C263.621 150.977 263.022 143.652 263.022 143.652C262.169 144.831 259.994 150.157 257.726 152.691C256.392 154.181 249.788 155.096 248.543 155.138C245.833 155.231 240.889 155.786 240.745 155.515C240.63 155.352 240.315 151.001 240.624 150.894C240.896 150.801 250.075 150.257 252.427 148.973C253.287 148.504 255.858 142.733 255.858 142.733C255.858 142.733 260.026 133.7 261.991 132.792Z" fill="#FFC05C"/>
<path d="M275.069 173.568H286.209C288.436 173.568 290.243 171.709 290.243 169.418V150.347C290.243 148.054 288.436 146.196 286.209 146.196H275.069C272.841 146.196 271.035 148.055 271.035 150.347V169.418C271.035 171.709 272.841 173.568 275.069 173.568Z" fill="#E2D2CA"/>
<path d="M274.436 179.926C277.267 179.926 279.564 178.948 281.263 177.018C285.103 172.656 284.413 164.988 284.382 164.664C284.323 164.059 283.799 163.618 283.213 163.678C282.626 163.738 282.197 164.276 282.255 164.881C282.264 164.968 282.875 171.918 279.675 175.546C278.381 177.014 276.667 177.727 274.436 177.727C273.846 177.727 273.367 178.219 273.367 178.827C273.367 179.434 273.846 179.926 274.436 179.926Z" fill="#E2D2CA"/>
<path d="M239.755 128.981C239.755 130.334 239.281 131.572 238.497 132.532C238.313 132.757 238.113 132.966 237.898 133.157C237.837 133.213 237.773 133.266 237.71 133.318C237.637 133.377 237.563 133.432 237.489 133.488C236.783 134.003 235.951 134.347 235.05 134.46C234.891 134.48 234.73 134.493 234.567 134.498C234.509 134.5 234.45 134.501 234.391 134.501C234.217 134.501 234.046 134.492 233.877 134.476C233.687 134.457 233.501 134.428 233.318 134.391C232.506 134.221 231.759 133.862 231.125 133.361C230.934 133.209 230.753 133.046 230.585 132.87C230.551 132.836 230.519 132.802 230.487 132.766C230.367 132.635 230.253 132.499 230.146 132.356C229.444 131.423 229.027 130.252 229.027 128.981C229.027 125.933 231.428 123.462 234.392 123.462C237.353 123.462 239.755 125.933 239.755 128.981Z" fill="#EEF0F7"/>
<path d="M237.884 132.028L237.489 133.489C236.782 134.003 235.95 134.347 235.049 134.46C234.89 134.48 234.73 134.493 234.567 134.498C234.508 134.5 234.45 134.501 234.391 134.501C234.217 134.501 234.045 134.492 233.876 134.476C233.687 134.458 233.5 134.429 233.318 134.391C232.505 134.221 231.759 133.862 231.125 133.361C231.049 132.878 230.968 132.344 230.896 131.844C231.291 131.692 232.546 131.254 233.337 130.978C233.349 130.974 233.359 130.97 233.37 130.967C233.388 130.96 233.405 130.954 233.422 130.949C233.469 130.933 233.514 130.917 233.556 130.902C233.599 130.887 233.641 130.872 233.68 130.859C233.842 130.802 233.956 130.763 233.997 130.749L233.998 130.749C234.008 130.745 234.014 130.743 234.014 130.743L234.023 130.744L235.088 130.825L235.266 130.839L235.322 130.844C235.322 130.844 235.331 130.846 235.347 130.85C235.41 130.867 235.597 130.917 235.844 130.995L235.846 130.995C236.476 131.194 237.499 131.571 237.884 132.028Z" fill="#D9C7C1"/>
<path d="M234.67 126.242C234.67 126.242 235.947 126.465 235.73 128.522C235.513 130.579 234.386 130.397 234.31 130.394C234.235 130.391 233.177 130.419 233.121 127.903C233.121 127.903 233.105 126.044 234.67 126.242Z" fill="#EEA987"/>
<path d="M235.23 129.796C235.23 129.796 235.187 130.642 235.264 130.827C235.342 131.011 234.238 131.594 233.553 130.93C233.553 130.93 233.691 130.004 233.648 129.678C233.605 129.35 235.23 129.796 235.23 129.796Z" fill="#EEA987"/>
<path d="M235.755 127.939C235.755 127.939 235.897 127.786 235.947 127.943C235.996 128.099 235.72 128.793 235.737 128.824C235.737 128.824 235.711 128.884 235.678 128.85C235.644 128.817 235.755 127.939 235.755 127.939Z" fill="#EEA987"/>
<path d="M233.136 127.883C233.136 127.883 233.001 127.725 232.945 127.879C232.889 128.034 233.094 128.725 233.119 128.768C233.119 128.768 233.163 128.84 233.198 128.807C233.232 128.775 233.136 127.883 233.136 127.883Z" fill="#EEA987"/>
<path d="M235.839 127.763C235.794 128.044 235.753 128.253 235.753 128.253L235.567 128.503C235.567 128.503 235.579 127.951 235.55 127.864C235.54 127.831 235.526 127.773 235.514 127.71C235.493 127.606 235.471 127.489 235.456 127.449C235.432 127.387 234.361 127.065 233.408 127.517C233.408 127.517 233.416 127.602 233.416 127.696C233.415 127.806 233.404 127.93 233.354 127.948C233.263 127.983 233.301 128.595 233.301 128.595L233.152 128.418C233.152 128.418 233.109 128.099 233.067 127.731C233.067 127.731 233.067 127.73 233.067 127.728C233.058 127.643 233.048 127.554 233.038 127.467C233.017 127.098 233.052 126.427 233.52 126.032C233.835 125.893 234.339 125.775 235.179 126.04C235.179 126.04 235.372 126.053 235.425 126.107C235.948 126.7 235.839 127.763 235.839 127.763Z" fill="#E8734D"/>
<path d="M233.736 130.118C233.736 130.118 233.94 130.409 234.414 130.398C234.888 130.387 235.093 130.133 235.093 130.133C235.093 130.133 234.87 130.616 234.412 130.61C233.954 130.605 233.736 130.118 233.736 130.118Z" fill="#C78D71"/>
<path d="M233.422 130.946C233.422 130.946 233.764 131.56 234.414 131.617C234.826 131.654 235.183 131.116 235.35 130.852C235.35 130.852 234.427 130.446 233.422 130.946Z" fill="#EEA987"/>
<path d="M235.231 130.661C235.231 130.661 234.97 131.013 234.414 131.39L234.76 131.938L235.35 130.855L235.231 130.661Z" fill="#EDDAD3"/>
<path d="M233.579 130.743C233.579 130.743 233.912 131.172 234.414 131.39L234.035 131.955L233.371 130.967L233.579 130.743Z" fill="#EDDAD3"/>
<path d="M234.414 131.388L234.711 131.852C234.711 131.852 234.4 132.034 234.109 131.84L234.414 131.388Z" fill="#5073AB"/>
<path d="M238.228 131.939C238.223 131.957 237.904 133.137 237.899 133.155C237.838 133.21 237.775 133.263 237.711 133.315C237.638 133.374 237.564 133.43 237.49 133.486C236.784 134 235.952 134.344 235.051 134.457C235.13 132.546 235.351 130.853 235.351 130.853C235.524 130.899 235.689 130.946 235.845 130.992L235.846 130.993C236.415 131.161 237.719 131.594 238.228 131.939Z" fill="#323657"/>
<path d="M233.32 134.388C232.507 134.218 231.761 133.859 231.127 133.358C230.936 133.207 230.755 133.043 230.586 132.867C230.553 132.834 230.521 132.799 230.489 132.764C230.395 132.353 230.333 132.085 230.328 132.068V132.067C230.328 132.067 230.991 131.618 233.34 130.974C233.34 130.974 233.34 130.974 233.34 130.975C233.34 131.031 233.341 132.581 233.32 134.388Z" fill="#323657"/>
<path d="M234.586 131.906C234.564 132.409 234.562 133.385 234.569 134.499C234.511 134.501 234.452 134.502 234.393 134.502C234.219 134.502 234.048 134.493 233.879 134.477C233.983 133.103 234.156 132.244 234.235 131.904C234.261 131.793 234.277 131.737 234.277 131.737L234.592 131.791C234.59 131.826 234.587 131.865 234.586 131.906Z" fill="#5073AB"/>
<path d="M238.499 132.533C238.315 132.758 238.115 132.967 237.899 133.159C237.838 133.214 237.775 133.267 237.711 133.319C237.711 133.318 238.228 131.942 238.228 131.942C238.363 132.022 238.439 132.387 238.499 132.533Z" fill="#323657"/>
<path d="M230.584 132.871C230.551 132.837 230.519 132.802 230.487 132.767C230.367 132.636 230.253 132.5 230.146 132.357C230.207 132.209 230.267 132.109 230.326 132.071V132.072L230.584 132.871Z" fill="#323657"/>
<path d="M211.361 121.082C210.998 121.082 210.703 120.779 210.703 120.404V111.039C210.703 110.666 210.998 110.362 211.361 110.362C211.724 110.362 212.019 110.665 212.019 111.039V120.404C212.019 120.779 211.725 121.082 211.361 121.082Z" fill="#949494"/>
<path d="M215.912 116.398H206.81C206.447 116.398 206.152 116.095 206.152 115.721C206.152 115.347 206.446 115.044 206.81 115.044H215.912C216.276 115.044 216.569 115.347 216.569 115.721C216.57 116.095 216.276 116.398 215.912 116.398Z" fill="#949494"/>
<defs>
<linearGradient id="paint0_linear_316_10421" x1="81.9259" y1="23.3218" x2="242.482" y2="23.3218" gradientUnits="userSpaceOnUse">
<stop stop-color="#40D5E6"/>
<stop offset="1" stop-color="#5577FF"/>
</linearGradient>
</defs>
</svg>
