<svg width="72" height="72" viewBox="0 0 72 72" fill="none" xmlns="http://www.w3.org/2000/svg">
<circle opacity="0.15" cx="36" cy="36" r="36" fill="#0085F9"/>
<circle cx="36" cy="36" r="26" fill="#002D62"/>
<g clip-path="url(#clip0_216_1103)">
<path d="M34.3764 33.7493C34.3764 33.7681 34.3745 33.785 34.3745 33.8018C34.3724 34.4482 34.5922 35.0757 34.9973 35.5794C35.4023 36.0832 35.968 36.4326 36.5998 36.5692C37.2315 36.7059 37.891 36.6215 38.4681 36.3302C39.0451 36.0389 39.5046 35.5584 39.7698 34.9689C40.035 34.3795 40.0898 33.7168 39.925 33.0918C39.7603 32.4668 39.3859 31.9173 38.8646 31.5352C38.3433 31.1531 37.7066 30.9615 37.061 30.9925C36.4153 31.0235 35.7999 31.2752 35.3177 31.7056L35.837 31.9268C35.9357 31.7556 36.0779 31.6135 36.249 31.5147C36.4202 31.416 36.6144 31.3641 36.812 31.3643C37.0011 31.364 37.1872 31.4115 37.353 31.5023C37.5189 31.5931 37.6591 31.7243 37.7608 31.8837L38.6983 33.35C38.7957 33.5029 38.8549 33.6771 38.8706 33.8578C38.8863 34.0385 38.8582 34.2203 38.7886 34.3878C38.719 34.5553 38.6101 34.7035 38.4709 34.8199C38.3318 34.9363 38.1667 35.0173 37.9895 35.0562L36.1145 35.4631C36.0382 35.4802 35.9603 35.489 35.882 35.4893C35.6244 35.4889 35.3746 35.4009 35.1735 35.2397C34.9725 35.0785 34.8323 34.8538 34.7758 34.6025C34.7268 34.382 34.7457 34.1519 34.8302 33.9425L34.3764 33.7493Z" fill="white"/>
<path d="M31.8658 32.6824C31.7889 33.0506 31.7499 33.4257 31.7495 33.8018C31.7479 35.0993 32.2097 36.3548 33.0517 37.342C33.8938 38.3292 35.0607 38.9831 36.3423 39.1861C37.6239 39.3891 38.9358 39.1277 40.0417 38.449C41.1476 37.7703 41.9747 36.719 42.3741 35.4844C42.7735 34.2499 42.7188 32.9133 42.2199 31.7155C41.7211 30.5177 40.8108 29.5374 39.6532 28.9513C38.4956 28.3652 37.1667 28.2118 35.906 28.5188C34.6453 28.8258 33.5356 29.5729 32.777 30.6255L34.5733 31.3887C35.1369 30.7808 35.8951 30.3889 36.7169 30.2806C37.5388 30.1723 38.3726 30.3545 39.0745 30.7956C39.7763 31.2367 40.302 31.9091 40.5608 32.6966C40.8196 33.4841 40.7953 34.3373 40.492 35.1087C40.1887 35.8802 39.6254 36.5215 38.8996 36.9219C38.1738 37.3222 37.3309 37.4565 36.5166 37.3016C35.7022 37.1466 34.9676 36.7121 34.4396 36.0731C33.9115 35.4341 33.6233 34.6307 33.6245 33.8018C33.6242 33.6803 33.6304 33.5588 33.6433 33.438L31.8658 32.6824Z" fill="white"/>
<path d="M37.187 27.6143C38.4724 27.6138 39.7259 28.0135 40.7738 28.7579C41.8216 29.5023 42.6117 30.5545 43.0344 31.7683C43.4571 32.9821 43.4914 34.2975 43.1326 35.5317C42.7738 36.7659 42.0396 37.8578 41.0321 38.6559C40.0245 39.4539 38.7935 39.9185 37.5099 39.9851C36.2263 40.0517 34.9538 39.717 33.869 39.0276C32.7842 38.3381 31.941 37.3281 31.4564 36.1376C30.9717 34.9471 30.8697 33.6353 31.1645 32.3843L28.7252 31.3474C28.1373 33.3671 28.2923 35.5305 29.1622 37.4457C30.0321 39.3609 31.5593 40.9012 33.467 41.7874L30.6545 48.468C30.616 48.5595 30.6152 48.6626 30.6525 48.7547C30.6897 48.8467 30.7619 48.9203 30.8533 48.9593C30.8986 48.9786 30.9472 48.9888 30.9965 48.9892C31.0457 48.9897 31.0945 48.9804 31.1402 48.9619C31.1858 48.9435 31.2274 48.9162 31.2625 48.8816C31.2975 48.847 31.3254 48.8059 31.3445 48.7605L34.1589 42.078C36.0025 42.7529 38.0188 42.7919 39.887 42.1886L42.6545 48.7605C42.6948 48.8498 42.7684 48.9198 42.8596 48.9555C42.9508 48.9913 43.0524 48.9898 43.1425 48.9516C43.2327 48.9134 43.3044 48.8414 43.3421 48.751C43.3799 48.6606 43.3807 48.559 43.3445 48.468L40.592 41.9299C41.8776 41.3918 43.0171 40.5566 43.9172 39.4927C44.8173 38.4287 45.4522 37.1665 45.7699 35.8096C46.0875 34.4527 46.0788 33.0398 45.7444 31.6869C45.41 30.3341 44.7596 29.0798 43.8464 28.0271C42.9332 26.9743 41.7834 26.1532 40.4913 25.6311C39.1993 25.109 37.8018 24.9008 36.4136 25.0235C35.0254 25.1463 33.6862 25.5965 32.5058 26.3373C31.3254 27.0781 30.3375 28.0882 29.6233 29.2849L32.072 30.3255C32.6386 29.4905 33.401 28.8069 34.2926 28.3343C35.1842 27.8617 36.1779 27.6145 37.187 27.6143Z" fill="white"/>
<path d="M22.2282 27.7716L22.6089 27.9329L22.157 28.2535C22.1038 28.2917 22.0615 28.3431 22.0343 28.4026C22.007 28.4621 21.9956 28.5277 22.0014 28.5929C22.007 28.6581 22.0298 28.7207 22.0673 28.7743C22.1048 28.828 22.1558 28.8708 22.2151 28.8985C22.2151 28.8985 24.1932 29.8285 24.1951 29.8285C24.2556 29.8556 24.322 29.8667 24.3879 29.8608C24.4539 29.8549 24.5173 29.8322 24.572 29.7948L25.4757 29.1516L36.5101 33.841L35.7939 33.9985C35.7458 34.0091 35.7003 34.029 35.66 34.0571C35.6197 34.0853 35.5853 34.1211 35.5588 34.1625C35.5323 34.204 35.5143 34.2503 35.5057 34.2987C35.4972 34.3471 35.4982 34.3968 35.5089 34.4448C35.5329 34.5402 35.5925 34.6229 35.6754 34.6758C35.7584 34.7288 35.8584 34.7481 35.9551 34.7298L37.8301 34.3229C37.8891 34.3099 37.944 34.2829 37.9903 34.2442C38.0366 34.2054 38.0729 34.1561 38.0961 34.1003C38.1193 34.0446 38.1287 33.9841 38.1235 33.9239C38.1183 33.8638 38.0987 33.8057 38.0664 33.7548L37.1289 32.2866C37.1023 32.2452 37.0678 32.2093 37.0273 32.1812C36.9869 32.153 36.9413 32.1331 36.8931 32.1226C36.845 32.112 36.7952 32.1111 36.7467 32.1198C36.6982 32.1285 36.6519 32.1466 36.6104 32.1732C36.5689 32.1998 36.5331 32.2343 36.5049 32.2748C36.4768 32.3152 36.4569 32.3608 36.4463 32.4089C36.4358 32.4571 36.4348 32.5068 36.4435 32.5553C36.4522 32.6038 36.4704 32.6502 36.497 32.6916L36.7857 33.1435L25.6839 28.426L25.4401 27.3366C25.4278 27.2808 25.4028 27.2286 25.367 27.1841C25.3313 27.1395 25.2857 27.1038 25.2339 27.0798L23.2539 26.1498C23.1905 26.12 23.1201 26.1086 23.0506 26.1169C22.9811 26.1251 22.9153 26.1526 22.8606 26.1964C22.806 26.2401 22.7647 26.2982 22.7414 26.3642C22.7181 26.4302 22.7137 26.5014 22.7289 26.5698L22.877 27.2316L22.5207 27.0816C22.4752 27.0611 22.426 27.0499 22.3761 27.0487C22.3262 27.0474 22.2766 27.0562 22.2301 27.0744C22.1836 27.0926 22.1412 27.1199 22.1054 27.1547C22.0696 27.1895 22.0412 27.2311 22.0217 27.2771C22.0022 27.3231 21.9921 27.3725 21.9919 27.4224C21.9918 27.4723 22.0017 27.5218 22.0209 27.5678C22.0401 27.6139 22.0684 27.6557 22.104 27.6907C22.1396 27.7257 22.1818 27.7532 22.2282 27.7716ZM24.7482 27.6798L24.8345 28.0641L23.7245 27.5935L23.627 27.1529L24.7482 27.6798ZM23.4189 28.2779L24.6657 28.8085L24.3151 29.056L23.1151 28.4935L23.4189 28.2779Z" fill="white"/>
</g>
<defs>
<clipPath id="clip0_216_1103">
<rect width="24" height="24" fill="white" transform="translate(21.9995 24.9893)"/>
</clipPath>
</defs>
</svg>
