<svg width="72" height="72" viewBox="0 0 72 72" fill="none" xmlns="http://www.w3.org/2000/svg">
<circle opacity="0.15" cx="36" cy="36" r="36" fill="#0085F9"/>
<circle cx="36" cy="36" r="26" fill="#002D62"/>
<g clip-path="url(#clip0_216_1130)">
<path d="M38.9353 41.1065L36.6373 40.5317L34.6179 38.8498C35.1791 38.5188 35.6444 38.0474 35.9679 37.4819C36.2914 36.9163 36.462 36.2763 36.4629 35.6248C36.7421 35.6207 37.0098 35.513 37.214 35.3225C37.4181 35.132 37.5442 34.8724 37.5675 34.5941C37.5909 34.3159 37.51 34.0389 37.3405 33.817C37.171 33.5951 36.925 33.4442 36.6504 33.3935L36.8641 32.8982C37.1782 32.1701 37.1942 31.348 36.9089 30.6082C36.6235 29.8685 36.0595 29.2701 35.3379 28.9415L34.2913 28.4649C33.6719 28.1899 32.9908 28.0836 32.3171 28.1567C31.6434 28.2298 31.001 28.4797 30.455 28.8812L29.8629 29.3248C29.5256 29.4114 29.212 29.5725 28.9451 29.7961C28.6782 30.0198 28.4647 30.3003 28.3204 30.6172C28.176 30.9341 28.1045 31.2793 28.1109 31.6275C28.1173 31.9757 28.2017 32.318 28.3576 32.6293L28.7409 33.3962C28.4665 33.4504 28.2221 33.605 28.0555 33.8296C27.8889 34.0543 27.8119 34.333 27.8397 34.6113C27.8674 34.8896 27.9978 35.1477 28.2055 35.3351C28.4131 35.5224 28.6832 35.6257 28.9629 35.6248C28.9638 36.2763 29.1344 36.9163 29.4579 37.4819C29.7814 38.0474 30.2467 38.5188 30.8079 38.8498L28.7885 40.5324L26.4905 41.1065C25.9114 41.2512 25.3973 41.5854 25.0299 42.0559C24.6625 42.5263 24.4629 43.1061 24.4629 43.703V47.2498C24.4629 47.3493 24.5024 47.4446 24.5727 47.515C24.6431 47.5853 24.7384 47.6248 24.8379 47.6248H40.5879C40.6873 47.6248 40.7827 47.5853 40.8531 47.515C40.9234 47.4446 40.9629 47.3493 40.9629 47.2498V43.703C40.9629 43.1061 40.7633 42.5263 40.3959 42.0559C40.0285 41.5854 39.5144 41.2512 38.9353 41.1065ZM33.0879 41.6248V43.1248H32.3379V41.6248H33.0879ZM33.8379 39.9695C33.8377 40.2096 33.7423 40.4397 33.5725 40.6094C33.4028 40.7792 33.1727 40.8746 32.9326 40.8748H32.4931C32.2531 40.8746 32.023 40.7792 31.8533 40.6094C31.6835 40.4397 31.5881 40.2096 31.5879 39.9695V39.2019C32.3202 39.4324 33.1056 39.4324 33.8379 39.2019V39.9695ZM32.3379 43.8748H33.0879V44.6248H32.3379V43.8748ZM34.103 41.1403C34.2573 40.9869 34.3795 40.8045 34.4628 40.6035C34.546 40.4025 34.5885 40.1871 34.5879 39.9695V39.8004L36.0129 40.9873L35.5355 42.1802L34.0445 41.1864C34.0629 41.1707 34.085 41.1579 34.103 41.1403ZM36.8379 34.4998C36.8379 34.5993 36.7984 34.6946 36.7281 34.765C36.6577 34.8353 36.5623 34.8748 36.4629 34.8748V34.1248C36.5623 34.1248 36.6577 34.1643 36.7281 34.2346C36.7984 34.305 36.8379 34.4003 36.8379 34.4998ZM29.0881 30.7697C29.2297 30.5354 29.4292 30.3415 29.6674 30.2067C29.9056 30.0718 30.1745 30.0006 30.4483 29.9998C30.7372 29.9995 31.0217 30.0707 31.2764 30.2071C31.5312 30.3434 31.7482 30.5407 31.9081 30.7813L32.0259 30.9579L32.6499 30.5417L32.5321 30.365C32.1988 29.8657 31.6968 29.503 31.118 29.3435C31.5435 29.0813 32.0264 28.9264 32.525 28.8922C33.0236 28.858 33.5231 28.9456 33.9804 29.1474L35.027 29.6248C35.5699 29.8721 35.9942 30.3224 36.2088 30.879C36.4234 31.4356 36.4112 32.0542 36.1749 32.6019L36.1498 32.6604L35.6735 31.7079C35.649 31.6585 35.6139 31.615 35.5707 31.5807C35.5274 31.5464 35.4771 31.522 35.4234 31.5094C35.3697 31.4967 35.3138 31.4961 35.2598 31.5076C35.2058 31.519 35.155 31.5422 35.111 31.5755L34.511 32.0255C33.9917 32.415 33.3601 32.6255 32.711 32.6255C32.0619 32.6255 31.4303 32.415 30.911 32.0255L30.311 31.5755C30.267 31.5422 30.2162 31.519 30.1622 31.5076C30.1082 31.4961 30.0524 31.4967 29.9986 31.5094C29.9449 31.522 29.8946 31.5464 29.8514 31.5807C29.8081 31.615 29.773 31.6585 29.7485 31.7079L29.2441 32.7238L29.0296 32.2952C28.9096 32.0567 28.8521 31.7917 28.8623 31.5249C28.8725 31.2581 28.9502 30.9983 29.0881 30.7697ZM28.5879 34.4998C28.5879 34.4003 28.6274 34.305 28.6977 34.2346C28.7681 34.1643 28.8634 34.1248 28.9629 34.1248V34.8748C28.8634 34.8748 28.7681 34.8353 28.6977 34.765C28.6274 34.6946 28.5879 34.5993 28.5879 34.4998ZM29.7129 35.6248V33.4633L30.2221 32.4444L30.4629 32.6248C31.112 33.1116 31.9015 33.3748 32.7129 33.3748C33.5243 33.3748 34.3138 33.1116 34.9629 32.6248L35.2033 32.4444L35.7129 33.4633V35.6248C35.7129 36.4204 35.3968 37.1835 34.8342 37.7461C34.2716 38.3087 33.5085 38.6248 32.7129 38.6248C31.9172 38.6248 31.1542 38.3087 30.5916 37.7461C30.029 37.1835 29.7129 36.4204 29.7129 35.6248ZM30.8379 39.8004V39.9695C30.8373 40.1871 30.8798 40.4025 30.963 40.6035C31.0463 40.8045 31.1685 40.9869 31.3228 41.1403C31.3408 41.1579 31.3603 41.1707 31.3805 41.1875L29.8895 42.1813L29.4129 40.9873L30.8379 39.8004ZM40.2129 46.8748H37.9629V44.9998H37.2129V46.8748H28.2129V44.9998H27.4629V46.8748H25.2129V43.703C25.2129 43.2734 25.3565 42.856 25.621 42.5174C25.8854 42.1787 26.2555 41.9382 26.6724 41.834L28.7349 41.318L29.3634 42.8893C29.3841 42.9411 29.4162 42.9877 29.4572 43.0255C29.4982 43.0634 29.5472 43.0916 29.6005 43.1082C29.6539 43.1247 29.7102 43.1291 29.7655 43.1211C29.8207 43.1131 29.8735 43.0928 29.9199 43.0618L31.5879 41.9503V44.9998C31.5879 45.0993 31.6274 45.1946 31.6977 45.265C31.7681 45.3353 31.8634 45.3748 31.9629 45.3748H33.4629C33.5623 45.3748 33.6577 45.3353 33.7281 45.265C33.7984 45.1946 33.8379 45.0993 33.8379 44.9998V41.9503L35.5048 43.0618C35.5664 43.1029 35.6388 43.1248 35.7129 43.1248C35.7878 43.1249 35.8611 43.1024 35.9232 43.0605C35.9853 43.0185 36.0334 42.9589 36.0613 42.8893L36.6898 41.318L38.7523 41.834C39.1693 41.938 39.5397 42.1784 39.8044 42.5171C40.069 42.8557 40.2128 43.2732 40.2129 43.703V46.8748Z" fill="white"/>
<path d="M47.3379 28.125H46.703C46.6505 27.9758 46.5902 27.8295 46.5223 27.6866L46.9723 27.2366C47.0426 27.1663 47.0821 27.0709 47.0821 26.9715C47.0821 26.8721 47.0426 26.7767 46.9723 26.7064L45.3796 25.1171C45.3093 25.0468 45.214 25.0073 45.1145 25.0073C45.0151 25.0073 44.9197 25.0468 44.8494 25.1171L44.3994 25.5671C44.2572 25.4988 44.1115 25.4379 43.9629 25.3849V24.75C43.9629 24.6505 43.9234 24.5552 43.8531 24.4848C43.7827 24.4145 43.6873 24.375 43.5879 24.375H41.3379C41.2384 24.375 41.1431 24.4145 41.0727 24.4848C41.0024 24.5552 40.9629 24.6505 40.9629 24.75V25.3849C40.8138 25.4374 40.6676 25.4977 40.5249 25.5656L40.0749 25.1156C40.0032 25.0479 39.9084 25.0101 39.8098 25.0101C39.7112 25.0101 39.6163 25.0479 39.5446 25.1156L37.955 26.7083C37.8847 26.7786 37.8452 26.8739 37.8452 26.9734C37.8452 27.0728 37.8847 27.1682 37.955 27.2385L38.405 27.6885C38.3367 27.8307 38.2758 27.9764 38.2228 28.125H37.5879C37.4884 28.125 37.3931 28.1645 37.3227 28.2348C37.2524 28.3052 37.2129 28.4005 37.2129 28.5V30.75C37.2129 30.8495 37.2524 30.9448 37.3227 31.0152C37.3931 31.0855 37.4884 31.125 37.5879 31.125H38.2228C38.2752 31.2741 38.3355 31.4203 38.4035 31.563L37.9535 32.013C37.8832 32.0833 37.8437 32.1787 37.8437 32.2781C37.8437 32.3776 37.8832 32.4729 37.9535 32.5433L39.5446 34.1344C39.615 34.2047 39.7103 34.2442 39.8098 34.2442C39.9092 34.2442 40.0046 34.2047 40.0749 34.1344L40.5249 33.6844C40.6676 33.7522 40.8138 33.8125 40.9629 33.8651V34.5C40.9629 34.5995 41.0024 34.6948 41.0727 34.7652C41.1431 34.8355 41.2384 34.875 41.3379 34.875H43.5879C43.6873 34.875 43.7827 34.8355 43.8531 34.7652C43.9234 34.6948 43.9629 34.5995 43.9629 34.5V33.8651C44.1121 33.8126 44.2584 33.7522 44.4013 33.6844L44.8513 34.1344C44.9216 34.2047 45.017 34.2442 45.1164 34.2442C45.2158 34.2442 45.3112 34.2047 45.3815 34.1344L46.9726 32.5433C47.0429 32.4729 47.0824 32.3776 47.0824 32.2781C47.0824 32.1787 47.0429 32.0833 46.9726 32.013L46.5226 31.563C46.5905 31.4203 46.6507 31.2741 46.703 31.125H47.3379C47.4373 31.125 47.5327 31.0855 47.6031 31.0152C47.6734 30.9448 47.7129 30.8495 47.7129 30.75V28.5C47.7129 28.4005 47.6734 28.3052 47.6031 28.2348C47.5327 28.1645 47.4373 28.125 47.3379 28.125ZM46.9629 30.375H46.4285C46.3469 30.375 46.2675 30.4016 46.2024 30.4508C46.1373 30.5 46.09 30.5691 46.0678 30.6476C45.989 30.9276 45.8778 31.1975 45.7363 31.4516C45.696 31.5231 45.6803 31.6058 45.6915 31.6871C45.7027 31.7684 45.7403 31.8438 45.7985 31.9016L46.1735 32.2785L45.1145 33.3375L44.7395 32.9625C44.6817 32.9043 44.6063 32.8667 44.525 32.8555C44.4437 32.8442 44.361 32.86 44.2895 32.9002C44.0354 33.0416 43.7657 33.1529 43.4859 33.2318C43.4073 33.254 43.3381 33.3012 43.2889 33.3663C43.2396 33.4314 43.2129 33.5108 43.2129 33.5925V34.125H41.7129V33.5906C41.7129 33.509 41.6862 33.4296 41.6369 33.3644C41.5876 33.2993 41.5185 33.2521 41.4399 33.2299C41.16 33.151 40.8903 33.0397 40.6363 32.8984C40.5648 32.8581 40.4821 32.8424 40.4008 32.8536C40.3195 32.8648 40.2441 32.9024 40.1863 32.9606L39.8113 33.3356L38.7504 32.2766L39.1254 31.8997C39.1836 31.8419 39.2212 31.7665 39.2324 31.6852C39.2437 31.604 39.2279 31.5212 39.1876 31.4497C39.0461 31.1956 38.9349 30.9258 38.8561 30.6458C38.8336 30.5679 38.7865 30.4994 38.7218 30.4506C38.6571 30.4018 38.5783 30.3753 38.4973 30.375H37.9629V28.875H38.4973C38.5789 28.875 38.6582 28.8484 38.7234 28.7992C38.7885 28.75 38.8357 28.6809 38.858 28.6024C38.9368 28.3224 39.048 28.0525 39.1895 27.7984C39.2298 27.7269 39.2455 27.6442 39.2343 27.5629C39.223 27.4816 39.1854 27.4062 39.1273 27.3484L38.7523 26.9734L39.8113 25.9125L40.1863 26.2894C40.2441 26.3476 40.3195 26.3852 40.4008 26.3964C40.4821 26.4076 40.5648 26.3919 40.6363 26.3516C40.8903 26.2103 41.16 26.099 41.4399 26.0201C41.5185 25.9979 41.5876 25.9507 41.6369 25.8856C41.6862 25.8204 41.7129 25.741 41.7129 25.6594V25.125H43.2129V25.6594C43.2129 25.741 43.2396 25.8204 43.2889 25.8856C43.3381 25.9507 43.4073 25.9979 43.4859 26.0201C43.7657 26.099 44.0354 26.2103 44.2895 26.3516C44.361 26.3919 44.4437 26.4076 44.525 26.3964C44.6063 26.3852 44.6817 26.3476 44.7395 26.2894L45.1145 25.9125L46.1754 26.9734L45.8004 27.3484C45.7422 27.4062 45.7046 27.4816 45.6934 27.5629C45.6821 27.6442 45.6979 27.7269 45.7381 27.7984C45.8796 28.0525 45.9909 28.3224 46.0696 28.6024C46.0919 28.6809 46.1392 28.75 46.2043 28.7992C46.2694 28.8484 46.3488 28.875 46.4304 28.875H46.9629V30.375Z" fill="white"/>
<path d="M43.2129 28.875H43.9629C43.9629 28.5766 43.8444 28.2905 43.6334 28.0795C43.4224 27.8685 43.1363 27.75 42.8379 27.75V27.375H42.0879V27.75C41.7895 27.75 41.5034 27.8685 41.2924 28.0795C41.0814 28.2905 40.9629 28.5766 40.9629 28.875C40.9629 29.1734 41.0814 29.4595 41.2924 29.6705C41.5034 29.8815 41.7895 30 42.0879 30V30.75C41.9884 30.75 41.8931 30.7105 41.8227 30.6402C41.7524 30.5698 41.7129 30.4745 41.7129 30.375H40.9629C40.9629 30.6734 41.0814 30.9595 41.2924 31.1705C41.5034 31.3815 41.7895 31.5 42.0879 31.5V31.875H42.8379V31.5C43.1363 31.5 43.4224 31.3815 43.6334 31.1705C43.8444 30.9595 43.9629 30.6734 43.9629 30.375C43.9629 30.0766 43.8444 29.7905 43.6334 29.5795C43.4224 29.3685 43.1363 29.25 42.8379 29.25V28.5C42.9373 28.5 43.0327 28.5395 43.1031 28.6098C43.1734 28.6802 43.2129 28.7755 43.2129 28.875ZM43.2129 30.375C43.2129 30.4745 43.1734 30.5698 43.1031 30.6402C43.0327 30.7105 42.9373 30.75 42.8379 30.75V30C42.9373 30 43.0327 30.0395 43.1031 30.1098C43.1734 30.1802 43.2129 30.2755 43.2129 30.375ZM42.0879 29.25C41.9884 29.25 41.8931 29.2105 41.8227 29.1402C41.7524 29.0698 41.7129 28.9745 41.7129 28.875C41.7129 28.7755 41.7524 28.6802 41.8227 28.6098C41.8931 28.5395 41.9884 28.5 42.0879 28.5V29.25Z" fill="white"/>
<path d="M42.4629 26.25C41.7954 26.25 41.1429 26.4479 40.5878 26.8188C40.0328 27.1896 39.6002 27.7167 39.3448 28.3334C39.0894 28.9501 39.0225 29.6287 39.1527 30.2834C39.283 30.9381 39.6044 31.5395 40.0764 32.0115C40.5484 32.4835 41.1498 32.8049 41.8045 32.9352C42.4591 33.0654 43.1377 32.9985 43.7544 32.7431C44.3711 32.4876 44.8983 32.0551 45.2691 31.5C45.64 30.945 45.8379 30.2925 45.8379 29.625C45.8369 28.7302 45.481 27.8723 44.8483 27.2396C44.2156 26.6069 43.3577 26.251 42.4629 26.25ZM42.4629 32.25C41.9437 32.25 41.4362 32.096 41.0045 31.8076C40.5728 31.5192 40.2364 31.1092 40.0377 30.6295C39.839 30.1499 39.787 29.6221 39.8883 29.1129C39.9896 28.6037 40.2396 28.136 40.6067 27.7688C40.9738 27.4017 41.4416 27.1517 41.9508 27.0504C42.46 26.9492 42.9878 27.0011 43.4674 27.1998C43.9471 27.3985 44.3571 27.7349 44.6455 28.1666C44.9339 28.5983 45.0879 29.1058 45.0879 29.625C45.0871 30.3209 44.8103 30.9882 44.3182 31.4803C43.8261 31.9724 43.1588 32.2492 42.4629 32.25Z" fill="white"/>
<path d="M47.3379 35.625H37.5879C37.4884 35.625 37.3931 35.6645 37.3227 35.7348C37.2524 35.8052 37.2129 35.9005 37.2129 36V37.5C37.2129 37.5995 37.2524 37.6948 37.3227 37.7652C37.3931 37.8355 37.4884 37.875 37.5879 37.875H47.3379C47.4373 37.875 47.5327 37.8355 47.6031 37.7652C47.6734 37.6948 47.7129 37.5995 47.7129 37.5V36C47.7129 35.9005 47.6734 35.8052 47.6031 35.7348C47.5327 35.6645 47.4373 35.625 47.3379 35.625ZM46.9629 37.125H37.9629V36.375H46.9629V37.125Z" fill="white"/>
</g>
<defs>
<clipPath id="clip0_216_1130">
<rect width="24" height="24" fill="white" transform="translate(24.0879 24)"/>
</clipPath>
</defs>
</svg>
