<svg width="72" height="72" viewBox="0 0 72 72" fill="none" xmlns="http://www.w3.org/2000/svg">
<circle opacity="0.15" cx="36" cy="36" r="36" fill="#0085F9"/>
<circle cx="36.1758" cy="36" r="26" fill="#002D62"/>
<path d="M40.5547 25.9043V28.0643H42.6966L40.5547 25.9043Z" fill="white"/>
<path d="M38.5126 40.4492C38.2137 39.9873 38.2726 39.4031 38.6575 39.0228L39.4182 38.262C39.6311 38.0492 39.9118 37.936 40.2152 37.936C40.4371 37.936 40.6499 37.9994 40.8356 38.1171L41.0031 38.2303L41.0439 38.0356C41.1571 37.5058 41.6235 37.1299 42.1533 37.1299H43.1812V28.9699H40.102C39.8529 28.9699 39.6492 28.7661 39.6492 28.5171V25.4424H31.145C30.8326 25.4424 30.5745 25.696 30.5745 26.0129V30.6454H36.3299C37.2129 30.6454 37.933 31.3654 37.933 32.2484V40.8929C38.0688 40.7752 38.2363 40.6937 38.4175 40.6529L38.6212 40.6122L38.5126 40.4492ZM41.3706 37.1664H38.8393C38.589 37.1664 38.3865 36.9636 38.3865 36.7136C38.3865 36.4635 38.589 36.2607 38.8393 36.2607H41.3706C41.6209 36.2607 41.8234 36.4635 41.8234 36.7136C41.8234 36.9636 41.6209 37.1664 41.3706 37.1664ZM41.3706 35.3551H38.8393C38.589 35.3551 38.3865 35.1523 38.3865 34.9022C38.3865 34.6522 38.589 34.4494 38.8393 34.4494H41.3706C41.6209 34.4494 41.8234 34.6522 41.8234 34.9022C41.8234 35.1523 41.6209 35.3551 41.3706 35.3551ZM41.3706 33.5437H38.8393C38.589 33.5437 38.3865 33.341 38.3865 33.0909C38.3865 32.8408 38.589 32.6381 38.8393 32.6381H41.3706C41.6209 32.6381 41.8234 32.8408 41.8234 33.0909C41.8234 33.341 41.6209 33.5437 41.3706 33.5437ZM41.3706 30.8268C41.6209 30.8268 41.8234 31.0295 41.8234 31.2796C41.8234 31.5297 41.6209 31.7324 41.3706 31.7324H38.8393C38.589 31.7324 38.3865 31.5297 38.3865 31.2796C38.3865 31.0295 38.589 30.8268 38.8393 30.8268H41.3706ZM32.2211 26.958H38.1238C38.3741 26.958 38.5767 27.1608 38.5767 27.4109C38.5767 27.6609 38.3741 27.8637 38.1238 27.8637H32.2211C31.9708 27.8637 31.7683 27.6609 31.7683 27.4109C31.7683 27.1608 31.9708 26.958 32.2211 26.958ZM32.2211 29.7716C31.9708 29.7716 31.7683 29.5689 31.7683 29.3188C31.7683 29.0687 31.9708 28.866 32.2211 28.866H38.1238C38.3741 28.866 38.5767 29.0687 38.5767 29.3188C38.5767 29.5689 38.3741 29.7716 38.1238 29.7716H32.2211Z" fill="white"/>
<path d="M44.3767 38.2301L44.5352 38.126C44.73 37.9992 44.9473 37.9358 45.1647 37.9358C45.4409 37.9358 45.699 38.0309 45.9028 38.212V31.5192C45.9028 31.2248 45.6673 30.9849 45.373 30.9849H44.0869V37.5237C44.2137 37.6731 44.3043 37.8543 44.3405 38.0626L44.3767 38.2301Z" fill="white"/>
<path d="M46.772 41.536L45.9434 41.373C45.8754 41.124 45.7758 40.8794 45.6445 40.6485L46.1109 39.9466C46.1698 39.856 46.1607 39.7383 46.0838 39.6613L45.323 38.9051C45.246 38.8281 45.1283 38.819 45.0377 38.8779L44.3403 39.3443C44.1094 39.213 43.8694 39.1134 43.6158 39.0409L43.4483 38.2168C43.4302 38.1126 43.3351 38.0356 43.2264 38.0356H42.1532C42.0445 38.0356 41.9539 38.1126 41.9313 38.2168L41.7637 39.0409C41.5147 39.1134 41.2702 39.213 41.0437 39.3443L40.3419 38.8779C40.2513 38.819 40.1336 38.8281 40.0566 38.9051L39.2958 39.6613C39.2188 39.7383 39.2098 39.856 39.2687 39.9466L39.7351 40.6485C39.6083 40.8794 39.5086 41.1194 39.4362 41.373L38.6121 41.536C38.5079 41.5586 38.4309 41.6538 38.4309 41.7579V42.8311C38.4309 42.9398 38.5079 43.0303 38.6121 43.053L39.4362 43.2205C39.5086 43.4696 39.6038 43.7141 39.7351 43.9451L39.2687 44.647C39.2098 44.7375 39.2188 44.8553 39.2958 44.9322L40.0566 45.6885C40.1336 45.7655 40.2513 45.779 40.3419 45.7202L41.0392 45.2538C41.2702 45.3805 41.5101 45.4847 41.7637 45.5526L41.9313 46.3768C41.9539 46.4809 42.0445 46.5579 42.1532 46.5579H43.2264C43.3351 46.5579 43.4302 46.4809 43.4483 46.3768L43.6158 45.5526C43.8694 45.4802 44.1139 45.3805 44.3449 45.2538L45.0377 45.7202C45.1283 45.779 45.246 45.7655 45.323 45.6885L46.0838 44.9322C46.1607 44.8553 46.1698 44.7375 46.1109 44.647L45.6445 43.9451C45.7758 43.7096 45.8754 43.4651 45.9434 43.2205L46.772 43.053C46.8762 43.0303 46.9532 42.9398 46.9532 42.8311V41.7579C46.9532 41.6538 46.8762 41.5586 46.772 41.536ZM42.6921 43.8998C41.8045 43.8998 41.0845 43.1843 41.0845 42.2968C41.0845 41.4137 41.8045 40.6938 42.6921 40.6938C43.5796 40.6938 44.2951 41.4137 44.2951 42.2968C44.2951 43.1843 43.5796 43.8998 42.6921 43.8998Z" fill="white"/>
<path d="M36.3306 31.5503H26.0957C25.7101 31.5503 25.3984 31.862 25.3984 32.2476V45.6349C25.3984 46.0205 25.7101 46.3322 26.0957 46.3322H36.3306C36.7162 46.3322 37.0279 46.0205 37.0279 45.6349V32.2476C37.0279 31.862 36.7162 31.5503 36.3306 31.5503ZM27.2098 33.6555C27.2098 33.4933 27.3414 33.3617 27.5037 33.3617H34.9227C35.085 33.3617 35.2166 33.4933 35.2166 33.6555V36.2727C35.2166 36.435 35.085 36.5666 34.9227 36.5666H27.5037C27.3414 36.5666 27.2098 36.435 27.2098 36.2727V33.6555ZM28.8761 43.1784C28.8761 43.4652 28.6426 43.6987 28.3556 43.6987H27.3832C27.0962 43.6987 26.8627 43.4652 26.8627 43.1784V42.1812C26.8627 41.8944 27.0962 41.6609 27.3832 41.6609H28.3556C28.6426 41.6609 28.8761 41.8944 28.8761 42.1812V43.1784ZM28.8761 39.7822C28.8761 40.069 28.6426 40.3025 28.3556 40.3025H27.3832C27.0962 40.3025 26.8627 40.069 26.8627 39.7822V38.785C26.8627 38.4982 27.0962 38.2647 27.3832 38.2647H28.3556C28.6426 38.2647 28.8761 38.4982 28.8761 38.785V39.7822ZM32.2197 43.1784C32.2197 43.4652 31.9862 43.6987 31.6997 43.6987H30.7268C30.4402 43.6987 30.2067 43.4652 30.2067 43.1784V42.1812C30.2067 41.8944 30.4402 41.6609 30.7268 41.6609H31.6997C31.9862 41.6609 32.2197 41.8944 32.2197 42.1812V43.1784ZM32.2197 39.7822C32.2197 40.069 31.9862 40.3025 31.6997 40.3025H30.7268C30.4402 40.3025 30.2067 40.069 30.2067 39.7822V38.785C30.2067 38.4982 30.4402 38.2647 30.7268 38.2647H31.6997C31.9862 38.2647 32.2197 38.4982 32.2197 38.785V39.7822ZM35.5638 43.1784C35.5638 43.4652 35.3303 43.6987 35.0433 43.6987H34.0708C33.7838 43.6987 33.5503 43.4652 33.5503 43.1784V42.1812C33.5503 41.8944 33.7838 41.6609 34.0708 41.6609H35.0433C35.3303 41.6609 35.5638 41.8944 35.5638 42.1812V43.1784ZM35.5638 39.7822C35.5638 40.069 35.3303 40.3025 35.0433 40.3025H34.0708C33.7838 40.3025 33.5503 40.069 33.5503 39.7822V38.785C33.5503 38.4982 33.7838 38.2647 34.0708 38.2647H35.0433C35.3303 38.2647 35.5638 38.4982 35.5638 38.785V39.7822Z" fill="white"/>
</svg>
