<svg width="72" height="72" viewBox="0 0 72 72" fill="none" xmlns="http://www.w3.org/2000/svg">
<circle opacity="0.15" cx="36" cy="36" r="36" fill="#0085F9"/>
<circle cx="36" cy="36" r="26" fill="#002D62"/>
<path fill-rule="evenodd" clip-rule="evenodd" d="M27.7737 24.75H41.1173V27.3358C41.1173 27.8747 41.5553 28.3126 42.0941 28.3126H44.6799V46.7963C44.6799 47.0462 44.4762 47.25 44.2263 47.25H27.7737C27.5238 47.25 27.3201 47.0462 27.3201 46.7963V25.2036C27.3201 24.9538 27.5238 24.75 27.7737 24.75ZM41.8673 24.7893V27.3358C41.8673 27.4607 41.9692 27.5626 42.0941 27.5626H44.6407C44.6186 27.5145 44.5875 27.4701 44.5471 27.4298L42.0002 24.8829C41.9598 24.8425 41.9155 24.8113 41.8673 24.7893ZM30.3863 41.7017C30.2056 41.7017 30.0582 41.8491 30.0582 42.0298V44.4586C30.0582 44.6393 30.2056 44.7868 30.3863 44.7868H31.3382C31.5189 44.7868 31.6664 44.6393 31.6664 44.4586V42.0298C31.6664 41.8491 31.5189 41.7017 31.3382 41.7017H30.3863ZM40.6618 36.8791C40.4811 36.8791 40.3336 37.0265 40.3336 37.2073V44.4586C40.3336 44.6393 40.4811 44.7868 40.6618 44.7868H41.6137C41.7944 44.7868 41.9418 44.6393 41.9418 44.4586V37.2073C41.9418 37.0266 41.7944 36.8791 41.6137 36.8791H40.6618ZM37.2366 40.0853C37.0559 40.0853 36.9085 40.2327 36.9085 40.4134V44.4586C36.9085 44.6393 37.0559 44.7868 37.2366 44.7868H38.1885C38.3692 44.7868 38.5166 44.6393 38.5166 44.4586C38.5166 43.0328 38.5166 41.8393 38.5166 40.4134C38.5166 40.2327 38.3692 40.0853 38.1885 40.0853C37.8712 40.0853 37.5539 40.0853 37.2366 40.0853ZM33.8115 38.9886C33.6308 38.9886 33.4833 39.1359 33.4833 39.3167V44.4586C33.4833 44.6393 33.6307 44.7868 33.8115 44.7868H34.7633C34.9441 44.7868 35.0915 44.6394 35.0915 44.4586V39.3167C35.0915 39.136 34.9441 38.9886 34.7633 38.9886H33.8115ZM37.0364 31.3654C36.8397 31.3654 36.6788 31.5263 36.6788 31.723V32.8068C36.6788 33.0035 36.8397 33.1644 37.0364 33.1644H38.1202C38.3169 33.1644 38.4778 33.0035 38.4778 32.8068V31.723C38.4778 31.5263 38.3169 31.3654 38.1202 31.3654H37.0364ZM37.0364 28.7055C36.8397 28.7055 36.6788 28.8664 36.6788 29.0631V30.1469C36.6788 30.3436 36.8397 30.5046 37.0364 30.5046H38.1202C38.3169 30.5046 38.4778 30.3436 38.4778 30.1469V29.0631C38.4778 28.8664 38.3169 28.7055 38.1202 28.7055H37.0364ZM31.0878 38.8864L34.3385 36.4181L37.5647 37.8054C37.7098 37.8677 37.8725 37.8313 37.9778 37.726L40.2318 35.6754L40.2035 35.8184C40.1639 36.0215 40.2964 36.2182 40.4994 36.2579C40.7025 36.2975 40.8992 36.165 40.9388 35.9619L41.186 34.7063C41.2306 34.4769 41.0554 34.2612 40.8193 34.2612L39.5396 34.2659C39.3333 34.2659 39.1661 34.4331 39.1661 34.6394C39.1661 34.8457 39.3333 35.013 39.5396 35.013L39.8486 35.0118L37.6393 37.0217L34.4348 35.6453C34.3154 35.5941 34.1727 35.6068 34.0618 35.6909L30.6367 38.2916C30.4725 38.4162 30.4403 38.6503 30.5649 38.8145C30.6895 38.9788 30.9236 39.0109 31.0878 38.8864ZM39.5776 29.4555H42.6332C42.8403 29.4555 43.0082 29.2875 43.0082 29.0805C43.0082 28.8734 42.8403 28.7055 42.6332 28.7055H39.5776C39.3706 28.7055 39.2026 28.8734 39.2026 29.0805C39.2026 29.2875 39.3706 29.4555 39.5776 29.4555ZM39.5776 30.5045H42.6332C42.8403 30.5045 43.0082 30.3366 43.0082 30.1295C43.0082 29.9224 42.8403 29.7545 42.6332 29.7545H39.5776C39.3706 29.7545 39.2026 29.9224 39.2026 30.1295C39.2026 30.3366 39.3706 30.5045 39.5776 30.5045ZM39.5776 32.1154H42.6332C42.8403 32.1154 43.0082 31.9475 43.0082 31.7404C43.0082 31.5333 42.8403 31.3654 42.6332 31.3654H39.5776C39.3706 31.3654 39.2026 31.5333 39.2026 31.7404C39.2026 31.9475 39.3706 32.1154 39.5776 32.1154ZM39.5776 33.1644H42.6332C42.8403 33.1644 43.0082 32.9965 43.0082 32.7894C43.0082 32.5823 42.8403 32.4144 42.6332 32.4144H39.5776C39.3706 32.4144 39.2026 32.5823 39.2026 32.7894C39.2026 32.9966 39.3706 33.1644 39.5776 33.1644ZM33.4951 28.5108C33.3204 28.0947 32.9898 27.8519 32.6249 27.7552V27.6506C32.6249 27.4435 32.457 27.2756 32.2499 27.2756C32.0428 27.2756 31.8749 27.4435 31.8749 27.6506V27.7603C31.356 27.9022 30.9708 28.3222 30.9981 28.883C31.0308 29.5579 31.6007 29.845 32.1926 29.9422C32.4234 29.9801 32.818 30.0581 32.8526 30.3433C32.855 30.363 32.8562 30.3745 32.8563 30.3783C32.8615 30.5993 32.5548 30.6825 32.3828 30.7033C32.3409 30.7084 32.307 30.7112 32.281 30.7118C32.0112 30.7182 31.7045 30.6036 31.6329 30.3166C31.5836 30.116 31.3809 29.9933 31.1803 30.0427C30.9797 30.092 30.8571 30.2947 30.9064 30.4953C31.0266 30.9774 31.4032 31.3 31.8748 31.414V31.5175C31.8748 31.7246 32.0427 31.8925 32.2498 31.8925C32.4569 31.8925 32.6248 31.7246 32.6248 31.5175V31.4217C33.1567 31.3082 33.6173 30.9506 33.6033 30.3607C33.6023 30.3188 33.6001 30.2836 33.5967 30.2553C33.513 29.5658 32.9225 29.304 32.3127 29.2039C32.1171 29.1718 31.7573 29.0985 31.7451 28.8478C31.7346 28.6308 31.9269 28.5083 32.1169 28.4701C32.2169 28.4499 32.3247 28.4516 32.4282 28.4779C32.5853 28.5177 32.7283 28.6213 32.8037 28.8009C32.8838 28.9918 33.1035 29.0817 33.2944 29.0016C33.4853 28.9215 33.5752 28.7018 33.4951 28.5108ZM32.2499 26.5287C30.5625 26.5287 29.1945 27.8966 29.1945 29.584C29.1945 31.2714 30.5625 32.6394 32.2499 32.6394C33.9373 32.6394 35.3052 31.2714 35.3052 29.584C35.3052 27.8966 33.9373 26.5287 32.2499 26.5287Z" fill="white"/>
</svg>
