<svg width="72" height="72" viewBox="0 0 72 72" fill="none" xmlns="http://www.w3.org/2000/svg">
<circle opacity="0.15" cx="36" cy="36" r="36" fill="#0085F9"/>
<circle cx="36" cy="36" r="26" fill="#002D62"/>
<g clip-path="url(#clip0_216_1118)">
<path d="M35.2029 37.8266V37.3491L36.2219 36.9406C38.3066 36.1049 40.2529 34.9698 42.0069 33.5666L42.4274 33.2301L42.9146 33.5844V32.4707H24.0911V39.5295H35.3226C35.2434 38.9682 35.2029 38.3999 35.2029 37.8266ZM31.8557 36.706H26.2087V35.2942H31.8557V36.706ZM34.6793 36.706H33.2675V35.2942H34.6793V36.706Z" fill="white"/>
<path d="M38.7596 46.4132C38.3698 46.0234 38.0101 45.6104 37.6799 45.1767H36.0911V43.7649H36.7537C36.5209 43.3491 36.3115 42.9185 36.1273 42.4736C35.9194 41.9719 35.7472 41.4605 35.6092 40.9414H24.0911V48.0002H40.3466L38.7596 46.4132ZM31.8558 45.1767H26.2087V43.7649H31.8558V45.1767ZM34.6793 45.1767H33.2675V43.7649H34.6793V45.1767Z" fill="white"/>
<path d="M46.7612 37.5527C46.7338 37.5409 46.7066 37.5286 46.6793 37.5167V26.8235H42.9146V24H24.0911V31.0588H42.9146V28.2353H45.2675V36.8236C44.5907 36.4537 42.4632 35.0017 42.4632 35.0017C40.7136 36.3388 38.7932 37.4307 36.7472 38.2508L36.6249 38.2999C36.7408 40.9887 37.8429 43.4998 39.7578 45.4147L42.3431 48H42.7135L45.2278 45.4857C46.1382 44.5753 46.8497 43.5106 47.3424 42.3211C47.8351 41.1316 48.0849 39.8757 48.0849 38.5882V38.1241L46.7612 37.5527ZM31.8558 28.2353H26.2087V26.8235H31.8558V28.2353ZM34.6793 28.2353H33.2675V26.8235H34.6793V28.2353ZM37.5028 28.2353H36.0911V26.8235H37.5028V28.2353ZM41.9605 43.359L40.0598 41.4376L41.0634 40.4447L41.9667 41.3578L44.0629 39.2651L45.0603 40.2642L41.9605 43.359Z" fill="white"/>
</g>
<defs>
<clipPath id="clip0_216_1118">
<rect width="24" height="24" fill="white" transform="translate(24.0879 24)"/>
</clipPath>
</defs>
</svg>
