<svg width="364" height="281" viewBox="0 0 364 281" fill="none" xmlns="http://www.w3.org/2000/svg">
<g opacity="0.2">
<path d="M81.6272 70.7517C77.0616 68.6047 69.5111 72.0955 67.1037 77.2038C62.508 86.9554 77.3717 101.078 82.777 99.5623C88.8173 97.8684 90.0098 74.6935 81.6272 70.7517Z" stroke="#0F31AC" stroke-width="1.6511" stroke-miterlimit="10" stroke-linecap="round" stroke-dasharray="4.13 4.13 4.13 4.13 4.13 4.13"/>
<path d="M58.7914 92.8382C57.162 91.8957 39.9024 81.9117 30.1348 89.8132C23.2764 95.3613 23.2108 107.22 28.3647 113.885C38.5724 127.086 70.2257 121.168 73.51 111.722C75.7216 105.361 65.338 96.6252 58.7914 92.8382Z" stroke="#0F31AC" stroke-width="1.6511" stroke-miterlimit="10" stroke-linecap="round" stroke-dasharray="4.13 4.13 4.13 4.13 4.13 4.13"/>
<path d="M81.0013 255.845C123.013 245.417 170.748 234.801 244.873 236.609C286.328 237.621 295.722 224.756 327.14 208.761C355.143 194.505 368.897 166.158 360.45 150.092C351.922 133.872 325.947 140.33 304.674 116.186C294.986 105.189 296.691 97.4819 291.098 85.2878C273.386 46.676 207.001 16.4964 174.265 32.4683C131.017 53.5685 167.99 144.74 119.647 169.645C89.0678 185.4 65.9549 155.156 35.7613 178.243C20.8007 189.683 2.50328 205.729 1.0882 223.153C1.0882 223.153 -0.893111 265.751 81.0013 255.845Z" stroke="#0F31AC" stroke-width="1.6511" stroke-miterlimit="10" stroke-linecap="round" stroke-dasharray="4.13 4.13 4.13 4.13 4.13 4.13"/>
<path d="M313.11 208.401C313.11 208.401 305.5 218.491 297.889 232.335C291.027 244.819 285.808 261.64 284.656 275.684C281.424 275.532 277.874 275.388 274.036 275.252C251.305 274.445 218.49 273.94 182.001 273.94C140.519 273.94 103.785 274.594 81.2185 275.599C80.4416 275.634 79.6813 275.669 78.9383 275.704C50.7648 240.784 -5.96776 179.947 46.2416 154.92C46.2416 154.92 50.0664 153.755 55.8006 151.253C73.9495 143.331 111.245 122.017 107.096 81.8281C107.096 81.8281 105.683 74.3288 105.683 63.8938C105.683 39.4939 113.407 -0.951383 164.978 0.894545C196.208 2.01399 224.969 17.9058 242.357 43.3426C259.413 68.2915 286.684 98.9879 308.893 81.4632C314.02 77.4163 320.799 75.9171 327.127 77.6962C343.113 82.1864 361.274 105.431 313.11 208.401Z" fill="#1D85EE"/>
</g>
<path opacity="0.15" d="M354.58 277.045C354.58 278.696 277.314 280.035 182.001 280.035C128.222 280.035 80.1886 279.609 48.5377 278.941C41.2475 278.787 34.8275 278.62 29.4065 278.443C25.8358 278.326 22.6985 278.205 20.0315 278.079C13.1696 277.758 9.42188 277.409 9.42188 277.045C9.42188 276.582 15.5047 276.143 26.3614 275.752C30.8076 275.591 36.0538 275.439 42.0109 275.297C73.356 274.545 124.381 274.055 182.001 274.055C232.684 274.055 278.265 274.433 309.839 275.037C337.639 275.567 354.58 276.272 354.58 277.045Z" fill="#040C2B"/>
<path d="M37.6579 202.55L21.1692 202.886C19.3379 202.923 17.8231 201.469 17.7859 199.637L17.4929 185.248C17.4556 183.416 18.9099 181.901 20.7413 181.864L37.2299 181.529C39.0613 181.491 40.5761 182.946 40.6133 184.777L40.9063 199.167C40.9436 200.998 39.4892 202.513 37.6579 202.55Z" fill="#DEE4FC"/>
<path d="M36.3057 195.622L36.2474 196.698L36.2462 196.719L36.2515 196.721L36.7451 196.89C36.6565 197.212 36.5221 197.515 36.3499 197.787C36.3469 197.792 36.3437 197.797 36.3406 197.802L36.1506 197.709L35.8376 197.556L35.1915 198.419L35.4209 198.744C35.1516 198.923 34.8545 199.059 34.5386 199.143L34.4357 198.637L33.3982 198.616L33.2415 199.189C32.8934 199.123 32.5662 198.994 32.2706 198.815L32.5719 198.307L31.8646 197.506L31.2877 197.855L31.2827 197.858C31.269 197.837 31.2556 197.816 31.2423 197.795C31.0187 197.438 30.8605 197.031 30.7852 196.595L31.293 196.482L31.3507 195.384L30.8263 195.22C30.9187 194.827 31.0786 194.462 31.292 194.14L31.8304 194.461L32.5569 193.673L32.2691 193.189C32.6402 192.96 33.06 192.811 33.507 192.764L33.6216 193.416L34.6581 193.468L34.8213 192.927C34.9149 192.888 35.4808 193.244 35.7556 193.484L35.4218 193.972L36.116 194.817L36.5628 194.57C36.6973 194.864 36.7909 195.183 36.836 195.518L36.3057 195.622ZM33.8468 193.936C33.4603 193.929 33.0884 194.04 32.7685 194.254C32.6589 194.328 32.5554 194.414 32.4595 194.511C32.0838 194.893 31.8703 195.405 31.8581 195.955C31.8459 196.505 32.0366 197.026 32.3951 197.422C32.7535 197.818 33.2368 198.042 33.7558 198.052C34.2749 198.063 34.7677 197.859 35.1433 197.477C35.5189 197.096 35.7324 196.583 35.7446 196.033C35.7569 195.484 35.5662 194.963 35.2077 194.567C35.1712 194.526 35.1334 194.488 35.0944 194.451C34.7503 194.127 34.313 193.946 33.8468 193.936Z" fill="white"/>
<path d="M35.4101 188.571L35.3445 189.834L35.3432 189.859L35.349 189.861L35.8885 190.058C35.791 190.437 35.6435 190.792 35.4548 191.112C35.4514 191.118 35.448 191.124 35.4446 191.13L35.2369 191.021L34.895 190.841L34.187 191.855L34.4372 192.236C34.1424 192.447 33.8174 192.607 33.4717 192.706L33.3601 192.112L32.2257 192.089L32.0534 192.762C31.6728 192.685 31.3153 192.535 30.9924 192.325L31.3228 191.729L30.5507 190.79L29.9194 191.199L29.9139 191.203C29.8989 191.179 29.8842 191.154 29.8698 191.129C29.626 190.711 29.4537 190.234 29.3721 189.722L29.9276 189.589L29.9926 188.301L29.4195 188.11C29.5212 187.648 29.6968 187.219 29.9307 186.841L30.5188 187.218L31.3147 186.292L31.0008 185.724C31.407 185.455 31.8664 185.279 32.3551 185.223L32.4793 185.988L33.6126 186.047L33.792 185.413C33.8944 185.367 34.5126 185.784 34.8127 186.064L34.4468 186.638L35.2044 187.628L35.6934 187.338C35.84 187.683 35.9418 188.056 35.9905 188.449L35.4101 188.571ZM32.7243 186.598C32.3017 186.59 31.8948 186.721 31.5447 186.973C31.4246 187.06 31.3113 187.16 31.2062 187.275C30.7947 187.723 30.5604 188.325 30.5462 188.97C30.5319 189.615 30.7395 190.226 31.1307 190.69C31.522 191.154 32.0501 191.416 32.6175 191.428C33.1851 191.439 33.7243 191.199 34.1357 190.751C34.5472 190.303 34.7816 189.701 34.7958 189.056C34.81 188.411 34.6024 187.8 34.2112 187.336C34.1713 187.288 34.13 187.243 34.0874 187.2C33.7119 186.821 33.2341 186.608 32.7243 186.598Z" fill="white"/>
<path d="M29.8649 193.185L29.7747 194.923L29.7728 194.958L29.7809 194.961L30.5226 195.232C30.3886 195.754 30.1858 196.242 29.9262 196.684C29.9216 196.692 29.9169 196.7 29.9122 196.707L29.6267 196.558L29.1566 196.311L28.1831 197.706L28.5271 198.231C28.1217 198.521 27.6749 198.741 27.1995 198.878L27.046 198.06L25.4861 198.029L25.2492 198.956C24.7258 198.849 24.2343 198.642 23.7903 198.353L24.2446 197.533L23.1831 196.24L22.315 196.804L22.3074 196.809C22.2868 196.775 22.2666 196.741 22.2468 196.707C21.9116 196.131 21.6748 195.475 21.5625 194.77L22.3264 194.586L22.4157 192.812L21.6277 192.549C21.7677 191.913 22.009 191.323 22.3308 190.802L23.1394 191.321L24.2336 190.046L23.8021 189.263C24.3607 188.893 24.9923 188.651 25.6643 188.574L25.835 189.628L27.3934 189.709L27.6401 188.835C27.781 188.773 28.631 189.346 29.0435 189.733L28.5405 190.523L29.582 191.886L30.2544 191.486C30.456 191.961 30.5959 192.476 30.6629 193.017L29.8649 193.185ZM26.172 190.468C25.5908 190.456 25.0314 190.636 24.5499 190.984C24.3849 191.103 24.229 191.242 24.0846 191.4C23.5189 192.016 23.1966 192.845 23.1769 193.733C23.1573 194.622 23.4427 195.463 23.9806 196.102C24.5185 196.741 25.2447 197.102 26.025 197.118C26.8054 197.133 27.5468 196.802 28.1125 196.185C28.6782 195.568 29.0005 194.74 29.0201 193.851C29.0397 192.963 28.7544 192.122 28.2164 191.483C28.1616 191.418 28.1048 191.355 28.0462 191.296C27.5299 190.774 26.8728 190.482 26.172 190.468Z" fill="white"/>
<path d="M352.43 148.794H335.938C334.106 148.794 332.621 147.31 332.621 145.478V131.085C332.621 129.253 334.106 127.769 335.938 127.769H352.43C354.261 127.769 355.746 129.253 355.746 131.085V145.478C355.746 147.31 354.261 148.794 352.43 148.794Z" fill="#DEE4FC"/>
<path d="M342.789 135.79C342.789 137.092 342.538 138.069 342.034 138.723C341.53 139.376 340.792 139.703 339.819 139.703C338.885 139.703 338.164 139.368 337.654 138.697C337.145 138.027 336.891 137.058 336.891 135.79C336.891 133.205 337.867 131.912 339.819 131.912C340.775 131.912 341.509 132.247 342.021 132.917C342.533 133.588 342.789 134.546 342.789 135.79ZM339.03 135.807C339.03 136.526 339.093 137.062 339.22 137.416C339.348 137.769 339.553 137.946 339.836 137.946C340.379 137.946 340.651 137.233 340.651 135.807C340.651 134.393 340.379 133.685 339.836 133.685C339.553 133.685 339.348 133.859 339.22 134.207C339.093 134.555 339.03 135.089 339.03 135.807ZM348.629 132.09L341.745 144.498H339.709L346.592 132.09H348.629ZM351.48 140.747C351.48 142.043 351.228 143.017 350.725 143.671C350.221 144.324 349.483 144.651 348.51 144.651C347.576 144.651 346.855 144.316 346.345 143.645C345.836 142.975 345.582 142.009 345.582 140.747C345.582 138.161 346.558 136.868 348.51 136.868C349.466 136.868 350.2 137.203 350.712 137.874C351.224 138.544 351.48 139.502 351.48 140.747ZM347.72 140.764C347.72 141.483 347.784 142.019 347.911 142.372C348.039 142.726 348.244 142.903 348.527 142.903C349.07 142.903 349.341 142.19 349.341 140.764C349.341 139.349 349.07 138.642 348.527 138.642C348.244 138.642 348.039 138.816 347.911 139.164C347.784 139.512 347.72 140.045 347.72 140.764Z" fill="white"/>
<path d="M106.91 126.917H90.4181C88.5864 126.917 87.1016 125.432 87.1016 123.6V109.208C87.1016 107.376 88.5865 105.891 90.4181 105.891H106.91C108.742 105.891 110.227 107.376 110.227 109.208V123.6C110.227 125.432 108.742 126.917 106.91 126.917Z" fill="#DEE4FC"/>
<path d="M103.264 118.793C103.264 119.764 102.913 120.545 102.21 121.134C101.508 121.724 100.524 122.077 99.2591 122.193V124.072H98.0035V122.23C96.5127 122.199 95.205 121.936 94.0809 121.441V119.022C94.6125 119.285 95.2525 119.517 96.0009 119.718C96.7493 119.92 97.417 120.039 98.0035 120.076V117.235L97.3895 116.996C96.1797 116.52 95.3227 116.002 94.8187 115.443C94.3145 114.884 94.0625 114.192 94.0625 113.367C94.0625 112.481 94.4092 111.753 95.1027 111.181C95.7962 110.61 96.763 110.263 98.0035 110.141V108.739H99.2591V110.104C100.658 110.166 101.923 110.447 103.053 110.948L102.192 113.092C101.239 112.701 100.261 112.463 99.2591 112.377V115.081C100.451 115.539 101.298 115.937 101.802 116.272C102.306 116.609 102.676 116.978 102.911 117.381C103.147 117.785 103.264 118.255 103.264 118.793ZM96.8212 113.367C96.8212 113.636 96.9144 113.857 97.1007 114.032C97.287 114.206 97.5879 114.384 98.0035 114.568V112.414C97.2153 112.53 96.8212 112.848 96.8212 113.367ZM100.506 118.93C100.506 118.674 100.401 118.457 100.194 118.279C99.9861 118.102 99.6745 117.919 99.259 117.73V120.012C100.09 119.871 100.506 119.511 100.506 118.93Z" fill="white"/>
<path d="M250.723 54.6836H234.231C232.399 54.6836 230.914 53.1987 230.914 51.3671V36.9743C230.914 35.1425 232.399 33.6577 234.231 33.6577H250.723C252.554 33.6577 254.039 35.1426 254.039 36.9743V51.3671C254.039 53.1987 252.554 54.6836 250.723 54.6836Z" fill="#DEE4FC"/>
<path d="M233.943 48.723L242.263 43.117C241.998 42.3564 241.903 41.5167 242.02 40.6531C242.405 37.8205 244.919 35.8076 247.635 36.1571C250.351 36.5066 252.242 39.0862 251.857 41.9188C251.473 44.7514 248.959 46.7643 246.242 46.4148C245.098 46.2676 244.102 45.7239 243.359 44.9333L235.096 50.4989C234.619 50.8389 233.974 50.717 233.655 50.2266C233.337 49.7361 233.466 49.063 233.943 48.723ZM246.369 45.4823C248.588 45.7677 250.649 44.1175 250.963 41.8036C251.277 39.4897 249.727 37.375 247.508 37.0896C245.289 36.8041 243.229 38.4542 242.914 40.7681C242.6 43.0821 244.15 45.1968 246.369 45.4823Z" fill="white"/>
<path d="M250.168 39.6113C250.292 39.9307 250.364 40.2693 250.406 40.6104C250.447 40.9522 250.449 41.2992 250.416 41.6436C250.384 41.9883 250.297 42.3279 250.172 42.6503L250.069 42.888C250.029 42.965 249.983 43.0386 249.941 43.1134L249.874 43.224C249.849 43.259 249.823 43.2931 249.796 43.327C249.744 43.3951 249.69 43.4621 249.637 43.5279C249.677 43.4517 249.717 43.3766 249.758 43.3026L249.819 43.192L249.869 43.0754C249.903 42.9979 249.94 42.9228 249.97 42.8445L250.052 42.6067C250.082 42.5289 250.097 42.4458 250.12 42.3656C250.14 42.2846 250.165 42.2049 250.177 42.1217L250.223 41.8756L250.253 41.6264C250.288 41.2938 250.293 40.9576 250.278 40.6211C250.261 40.2847 250.226 39.948 250.168 39.6113Z" fill="white"/>
<path d="M301.709 271.452V274.612C301.709 274.913 301.465 275.157 301.164 275.157H277.13C276.83 275.157 276.586 274.913 276.586 274.612V271.452C276.586 271.151 276.83 270.907 277.13 270.907H301.164C301.465 270.907 301.709 271.151 301.709 271.452Z" fill="#FDC538"/>
<path d="M289.753 270.907H288.539V275.157H289.753V270.907Z" fill="#FEE29B"/>
<path d="M288.12 270.907H286.906V275.157H288.12V270.907Z" fill="#FEE29B"/>
<path d="M291.388 270.907H290.174V275.157H291.388V270.907Z" fill="#FEE29B"/>
<path d="M300.773 267.2V270.361C300.773 270.661 300.53 270.905 300.229 270.905H276.195C275.894 270.905 275.65 270.661 275.65 270.361V267.2C275.65 266.899 275.894 266.656 276.195 266.656H300.229C300.53 266.656 300.773 266.899 300.773 267.2Z" fill="#FDB606"/>
<path d="M283.589 266.655H282.375V270.905H283.589V266.655Z" fill="#FEE29B"/>
<path d="M281.952 266.655H280.738V270.905H281.952V266.655Z" fill="#FEE29B"/>
<path d="M285.222 266.655H284.008V270.905H285.222V266.655Z" fill="#FEE29B"/>
<path d="M302.734 262.95V266.111C302.734 266.411 302.491 266.655 302.19 266.655H278.156C277.855 266.655 277.611 266.411 277.611 266.111V262.95C277.611 262.649 277.855 262.406 278.156 262.406H302.19C302.491 262.406 302.734 262.649 302.734 262.95Z" fill="#FDC538"/>
<path d="M290.779 262.406H289.564V266.655H290.779V262.406Z" fill="#FEE29B"/>
<path d="M289.146 262.406H287.932V266.655H289.146V262.406Z" fill="#FEE29B"/>
<path d="M292.413 262.406H291.199V266.655H292.413V262.406Z" fill="#FEE29B"/>
<path d="M301.193 258.702V261.862C301.193 262.163 300.949 262.407 300.649 262.407H276.615C276.314 262.407 276.07 262.163 276.07 261.862V258.702C276.07 258.401 276.314 258.157 276.615 258.157H300.649C300.95 258.157 301.193 258.401 301.193 258.702Z" fill="#FDB606"/>
<path d="M284.011 258.157H282.797V262.407H284.011V258.157Z" fill="#FEE29B"/>
<path d="M282.374 258.157H281.16V262.407H282.374V258.157Z" fill="#FEE29B"/>
<path d="M285.644 258.157H284.43V262.407H285.644V258.157Z" fill="#FEE29B"/>
<path d="M302.268 254.453V257.614C302.268 257.914 302.024 258.158 301.723 258.158H277.689C277.388 258.158 277.145 257.914 277.145 257.614V254.453C277.145 254.152 277.388 253.909 277.689 253.909H301.723C302.024 253.909 302.268 254.152 302.268 254.453Z" fill="#FDC538"/>
<path d="M290.316 253.909H289.102V258.158H290.316V253.909Z" fill="#FEE29B"/>
<path d="M288.679 253.909H287.465V258.158H288.679V253.909Z" fill="#FEE29B"/>
<path d="M291.949 253.909H290.734V258.158H291.949V253.909Z" fill="#FEE29B"/>
<path d="M300.726 250.202V253.362C300.726 253.663 300.483 253.907 300.182 253.907H276.148C275.847 253.907 275.604 253.663 275.604 253.362V250.202C275.604 249.901 275.847 249.657 276.148 249.657H300.182C300.483 249.657 300.726 249.901 300.726 250.202Z" fill="#FDB606"/>
<path d="M283.544 249.656H282.33V253.905H283.544V249.656Z" fill="#FEE29B"/>
<path d="M281.909 249.656H280.695V253.905H281.909V249.656Z" fill="#FEE29B"/>
<path d="M285.177 249.656H283.963V253.905H285.177V249.656Z" fill="#FEE29B"/>
<path d="M280.805 275.743H238.321C236.838 275.743 235.637 274.541 235.637 273.059V218.958C235.637 217.475 236.838 216.273 238.321 216.273H280.805C282.287 216.273 283.489 217.475 283.489 218.958V273.059C283.489 274.541 282.287 275.743 280.805 275.743Z" fill="#0085F9"/>
<g opacity="0.2">
<path d="M247.145 245.879H240.171C239.943 245.879 239.758 245.694 239.758 245.466V239.877C239.758 239.649 239.943 239.464 240.171 239.464H247.145C247.373 239.464 247.558 239.649 247.558 239.877V245.466C247.558 245.694 247.374 245.879 247.145 245.879Z" fill="black"/>
<path d="M247.145 254.137H240.171C239.943 254.137 239.758 253.952 239.758 253.724V248.134C239.758 247.907 239.943 247.722 240.171 247.722H247.145C247.373 247.722 247.558 247.907 247.558 248.134V253.724C247.558 253.952 247.374 254.137 247.145 254.137Z" fill="black"/>
<path d="M247.145 262.394H240.171C239.943 262.394 239.758 262.21 239.758 261.982V256.392C239.758 256.164 239.943 255.979 240.171 255.979H247.145C247.373 255.979 247.558 256.164 247.558 256.392V261.982C247.558 262.21 247.374 262.394 247.145 262.394Z" fill="black"/>
<path d="M247.145 270.652H240.171C239.943 270.652 239.758 270.467 239.758 270.239V264.65C239.758 264.422 239.943 264.237 240.171 264.237H247.145C247.373 264.237 247.558 264.422 247.558 264.65V270.239C247.558 270.467 247.374 270.652 247.145 270.652Z" fill="black"/>
<path d="M257.796 245.879H250.821C250.593 245.879 250.408 245.694 250.408 245.466V239.877C250.408 239.649 250.593 239.464 250.821 239.464H257.796C258.024 239.464 258.209 239.649 258.209 239.877V245.466C258.209 245.694 258.024 245.879 257.796 245.879Z" fill="black"/>
<path d="M257.796 254.137H250.821C250.593 254.137 250.408 253.952 250.408 253.724V248.134C250.408 247.907 250.593 247.722 250.821 247.722H257.796C258.024 247.722 258.209 247.907 258.209 248.134V253.724C258.209 253.952 258.024 254.137 257.796 254.137Z" fill="black"/>
<path d="M257.796 262.394H250.821C250.593 262.394 250.408 262.21 250.408 261.982V256.392C250.408 256.164 250.593 255.979 250.821 255.979H257.796C258.024 255.979 258.209 256.164 258.209 256.392V261.982C258.209 262.21 258.024 262.394 257.796 262.394Z" fill="black"/>
<path d="M257.796 270.652H250.821C250.593 270.652 250.408 270.467 250.408 270.239V264.65C250.408 264.422 250.593 264.237 250.821 264.237H257.796C258.024 264.237 258.209 264.422 258.209 264.65V270.239C258.209 270.467 258.024 270.652 257.796 270.652Z" fill="black"/>
<path d="M268.446 245.879H261.471C261.243 245.879 261.059 245.694 261.059 245.466V239.877C261.059 239.649 261.243 239.464 261.471 239.464H268.446C268.674 239.464 268.859 239.649 268.859 239.877V245.466C268.859 245.694 268.674 245.879 268.446 245.879Z" fill="black"/>
<path d="M268.446 254.137H261.471C261.243 254.137 261.059 253.952 261.059 253.724V248.134C261.059 247.907 261.243 247.722 261.471 247.722H268.446C268.674 247.722 268.859 247.907 268.859 248.134V253.724C268.859 253.952 268.674 254.137 268.446 254.137Z" fill="black"/>
<path d="M268.446 262.394H261.471C261.243 262.394 261.059 262.21 261.059 261.982V256.392C261.059 256.164 261.243 255.979 261.471 255.979H268.446C268.674 255.979 268.859 256.164 268.859 256.392V261.982C268.859 262.21 268.674 262.394 268.446 262.394Z" fill="black"/>
<path d="M268.446 270.652H261.471C261.243 270.652 261.059 270.467 261.059 270.239V264.65C261.059 264.422 261.243 264.237 261.471 264.237H268.446C268.674 264.237 268.859 264.422 268.859 264.65V270.239C268.859 270.467 268.674 270.652 268.446 270.652Z" fill="black"/>
<path d="M279.101 245.879H272.126C271.898 245.879 271.713 245.694 271.713 245.466V239.877C271.713 239.649 271.898 239.464 272.126 239.464H279.101C279.328 239.464 279.513 239.649 279.513 239.877V245.466C279.513 245.694 279.328 245.879 279.101 245.879Z" fill="black"/>
<path d="M279.101 254.137H272.126C271.898 254.137 271.713 253.952 271.713 253.724V248.134C271.713 247.907 271.898 247.722 272.126 247.722H279.101C279.328 247.722 279.513 247.907 279.513 248.134V253.724C279.513 253.952 279.328 254.137 279.101 254.137Z" fill="black"/>
<path d="M279.101 262.394H272.126C271.898 262.394 271.713 262.21 271.713 261.982V256.392C271.713 256.164 271.898 255.979 272.126 255.979H279.101C279.328 255.979 279.513 256.164 279.513 256.392V261.982C279.513 262.21 279.328 262.394 279.101 262.394Z" fill="black"/>
<path d="M279.101 270.652H272.126C271.898 270.652 271.713 270.467 271.713 270.239V264.65C271.713 264.422 271.898 264.237 272.126 264.237H279.101C279.328 264.237 279.513 264.422 279.513 264.65V270.239C279.513 270.467 279.328 270.652 279.101 270.652Z" fill="black"/>
</g>
<path d="M246.999 245.616H240.024C239.796 245.616 239.611 245.431 239.611 245.203V239.613C239.611 239.386 239.796 239.201 240.024 239.201H246.999C247.227 239.201 247.412 239.386 247.412 239.613V245.203C247.412 245.431 247.227 245.616 246.999 245.616Z" fill="#E3E9F7"/>
<path d="M246.999 253.873H240.024C239.796 253.873 239.611 253.688 239.611 253.461V247.871C239.611 247.643 239.796 247.458 240.024 247.458H246.999C247.227 247.458 247.412 247.643 247.412 247.871V253.461C247.412 253.688 247.227 253.873 246.999 253.873Z" fill="#E3E9F7"/>
<path d="M246.999 262.131H240.024C239.796 262.131 239.611 261.946 239.611 261.718V256.129C239.611 255.901 239.796 255.716 240.024 255.716H246.999C247.227 255.716 247.412 255.901 247.412 256.129V261.718C247.412 261.946 247.227 262.131 246.999 262.131Z" fill="#E3E9F7"/>
<path d="M246.999 270.388H240.024C239.796 270.388 239.611 270.204 239.611 269.976V264.386C239.611 264.158 239.796 263.974 240.024 263.974H246.999C247.227 263.974 247.412 264.158 247.412 264.386V269.976C247.412 270.204 247.227 270.388 246.999 270.388Z" fill="#E3E9F7"/>
<path d="M257.649 245.616H250.674C250.447 245.616 250.262 245.431 250.262 245.203V239.613C250.262 239.386 250.447 239.201 250.674 239.201H257.649C257.877 239.201 258.062 239.386 258.062 239.613V245.203C258.062 245.431 257.877 245.616 257.649 245.616Z" fill="#E3E9F7"/>
<path d="M257.649 253.873H250.674C250.447 253.873 250.262 253.688 250.262 253.461V247.871C250.262 247.643 250.447 247.458 250.674 247.458H257.649C257.877 247.458 258.062 247.643 258.062 247.871V253.461C258.062 253.688 257.877 253.873 257.649 253.873Z" fill="#E3E9F7"/>
<path d="M257.649 262.131H250.674C250.447 262.131 250.262 261.946 250.262 261.718V256.129C250.262 255.901 250.447 255.716 250.674 255.716H257.649C257.877 255.716 258.062 255.901 258.062 256.129V261.718C258.062 261.946 257.877 262.131 257.649 262.131Z" fill="#E3E9F7"/>
<path d="M257.649 270.388H250.674C250.447 270.388 250.262 270.204 250.262 269.976V264.386C250.262 264.158 250.447 263.974 250.674 263.974H257.649C257.877 263.974 258.062 264.158 258.062 264.386V269.976C258.062 270.204 257.877 270.388 257.649 270.388Z" fill="#E3E9F7"/>
<path d="M268.302 245.616H261.327C261.099 245.616 260.914 245.431 260.914 245.203V239.613C260.914 239.386 261.099 239.201 261.327 239.201H268.302C268.53 239.201 268.715 239.386 268.715 239.613V245.203C268.715 245.431 268.53 245.616 268.302 245.616Z" fill="#E3E9F7"/>
<path d="M268.302 253.873H261.327C261.099 253.873 260.914 253.688 260.914 253.461V247.871C260.914 247.643 261.099 247.458 261.327 247.458H268.302C268.53 247.458 268.715 247.643 268.715 247.871V253.461C268.715 253.688 268.53 253.873 268.302 253.873Z" fill="#E3E9F7"/>
<path d="M268.302 262.131H261.327C261.099 262.131 260.914 261.946 260.914 261.718V256.129C260.914 255.901 261.099 255.716 261.327 255.716H268.302C268.53 255.716 268.715 255.901 268.715 256.129V261.718C268.715 261.946 268.53 262.131 268.302 262.131Z" fill="#E3E9F7"/>
<path d="M268.302 270.388H261.327C261.099 270.388 260.914 270.204 260.914 269.976V264.386C260.914 264.158 261.099 263.974 261.327 263.974H268.302C268.53 263.974 268.715 264.158 268.715 264.386V269.976C268.715 270.204 268.53 270.388 268.302 270.388Z" fill="#E3E9F7"/>
<path d="M278.954 245.616H271.979C271.751 245.616 271.566 245.431 271.566 245.203V239.613C271.566 239.386 271.751 239.201 271.979 239.201H278.954C279.182 239.201 279.367 239.386 279.367 239.613V245.203C279.367 245.431 279.182 245.616 278.954 245.616Z" fill="#E3E9F7"/>
<path d="M278.954 253.873H271.979C271.751 253.873 271.566 253.688 271.566 253.461V247.871C271.566 247.643 271.751 247.458 271.979 247.458H278.954C279.182 247.458 279.367 247.643 279.367 247.871V253.461C279.367 253.688 279.182 253.873 278.954 253.873Z" fill="#E3E9F7"/>
<path d="M278.954 262.131H271.979C271.751 262.131 271.566 261.946 271.566 261.718V256.129C271.566 255.901 271.751 255.716 271.979 255.716H278.954C279.182 255.716 279.367 255.901 279.367 256.129V261.718C279.367 261.946 279.182 262.131 278.954 262.131Z" fill="#E3E9F7"/>
<path d="M278.954 270.388H271.979C271.751 270.388 271.566 270.204 271.566 269.976V264.386C271.566 264.158 271.751 263.974 271.979 263.974H278.954C279.182 263.974 279.367 264.158 279.367 264.386V269.976C279.367 270.204 279.182 270.388 278.954 270.388Z" fill="#F6471E"/>
<path d="M279.366 221.364H239.617V233.658H279.366V221.364Z" fill="#F4F6FC"/>
<path opacity="0.15" d="M279.367 221.364V233.658H239.617V233.276H279.019V221.364H279.367Z" fill="black"/>
<path d="M274.23 266.937V266.308H276.701V266.937H274.23ZM274.23 268.049V267.42H276.701V268.049H274.23Z" fill="white"/>
<path d="M244.19 260.286H243.613V258.706L243.618 258.447L243.628 258.163C243.532 258.259 243.465 258.322 243.428 258.351L243.114 258.603L242.836 258.256L243.715 257.556H244.189L244.19 260.286Z" fill="#0085F9"/>
<path d="M242.549 250.868C242.549 250.328 242.663 249.926 242.891 249.662C243.12 249.398 243.462 249.266 243.917 249.266C244.073 249.266 244.195 249.275 244.283 249.294V249.755C244.172 249.73 244.063 249.718 243.955 249.718C243.757 249.718 243.595 249.748 243.47 249.808C243.345 249.867 243.251 249.956 243.189 250.073C243.127 250.19 243.09 250.356 243.079 250.571H243.103C243.227 250.359 243.424 250.254 243.695 250.254C243.939 250.254 244.13 250.33 244.268 250.483C244.406 250.636 244.476 250.848 244.476 251.118C244.476 251.409 244.393 251.64 244.229 251.81C244.065 251.98 243.837 252.065 243.546 252.065C243.344 252.065 243.168 252.018 243.018 251.925C242.868 251.831 242.753 251.695 242.671 251.516C242.59 251.337 242.549 251.121 242.549 250.868ZM243.535 251.603C243.658 251.603 243.752 251.562 243.818 251.479C243.884 251.397 243.917 251.279 243.917 251.126C243.917 250.992 243.886 250.888 243.825 250.811C243.763 250.734 243.67 250.696 243.546 250.696C243.429 250.696 243.329 250.734 243.246 250.81C243.163 250.886 243.122 250.974 243.122 251.075C243.122 251.223 243.161 251.348 243.239 251.45C243.316 251.553 243.415 251.603 243.535 251.603Z" fill="#0085F9"/>
<path d="M242.854 243.768L243.879 241.527H242.533V241.042H244.492V241.404L243.459 243.768H242.854Z" fill="#0085F9"/>
<path d="M254.167 241.004C254.428 241.004 254.639 241.064 254.799 241.183C254.959 241.302 255.039 241.462 255.039 241.663C255.039 241.803 255 241.927 254.923 242.036C254.846 242.145 254.721 242.242 254.549 242.328C254.754 242.438 254.9 242.552 254.989 242.671C255.078 242.79 255.123 242.92 255.123 243.062C255.123 243.286 255.035 243.466 254.859 243.602C254.684 243.739 254.453 243.807 254.167 243.807C253.868 243.807 253.633 243.743 253.463 243.616C253.292 243.489 253.207 243.309 253.207 243.077C253.207 242.921 253.248 242.783 253.331 242.662C253.414 242.542 253.547 242.435 253.73 242.343C253.574 242.245 253.462 242.14 253.394 242.028C253.325 241.915 253.291 241.793 253.291 241.66C253.291 241.464 253.372 241.306 253.534 241.186C253.696 241.065 253.907 241.004 254.167 241.004ZM253.741 243.043C253.741 243.15 253.778 243.234 253.853 243.293C253.928 243.353 254.03 243.383 254.159 243.383C254.302 243.383 254.409 243.352 254.48 243.29C254.551 243.229 254.587 243.148 254.587 243.047C254.587 242.963 254.552 242.885 254.481 242.813C254.411 242.74 254.297 242.662 254.139 242.58C253.874 242.702 253.741 242.856 253.741 243.043ZM254.163 241.426C254.065 241.426 253.985 241.452 253.925 241.502C253.865 241.552 253.834 241.62 253.834 241.704C253.834 241.779 253.858 241.846 253.906 241.905C253.954 241.964 254.041 242.025 254.167 242.087C254.289 242.03 254.374 241.971 254.422 241.912C254.471 241.852 254.495 241.783 254.495 241.704C254.495 241.619 254.464 241.551 254.402 241.501C254.34 241.451 254.26 241.426 254.163 241.426Z" fill="#0085F9"/>
<path d="M265.78 242.202C265.78 242.74 265.667 243.141 265.44 243.406C265.214 243.671 264.871 243.804 264.412 243.804C264.25 243.804 264.127 243.795 264.044 243.778V243.315C264.149 243.341 264.258 243.354 264.373 243.354C264.566 243.354 264.724 243.326 264.849 243.269C264.973 243.212 265.068 243.123 265.134 243.002C265.2 242.881 265.238 242.714 265.248 242.501H265.226C265.154 242.618 265.07 242.7 264.976 242.747C264.881 242.794 264.763 242.818 264.621 242.818C264.383 242.818 264.196 242.742 264.059 242.589C263.922 242.437 263.854 242.225 263.854 241.954C263.854 241.661 263.937 241.43 264.103 241.26C264.269 241.09 264.495 241.005 264.781 241.005C264.983 241.005 265.159 241.053 265.311 241.147C265.462 241.242 265.578 241.379 265.659 241.559C265.74 241.739 265.78 241.953 265.78 242.202ZM264.793 241.468C264.673 241.468 264.58 241.51 264.513 241.592C264.445 241.674 264.412 241.792 264.412 241.946C264.412 242.078 264.442 242.183 264.503 242.26C264.564 242.337 264.657 242.376 264.782 242.376C264.898 242.376 264.999 242.337 265.082 242.261C265.165 242.184 265.207 242.096 265.207 241.997C265.207 241.849 265.168 241.724 265.09 241.622C265.013 241.52 264.913 241.468 264.793 241.468Z" fill="#0085F9"/>
<path d="M244.467 267.183C244.467 267.659 244.389 268.012 244.232 268.241C244.076 268.47 243.836 268.585 243.511 268.585C243.196 268.585 242.958 268.467 242.798 268.23C242.639 267.994 242.559 267.644 242.559 267.183C242.559 266.701 242.636 266.346 242.792 266.117C242.948 265.889 243.187 265.775 243.511 265.775C243.826 265.775 244.064 265.894 244.225 266.133C244.386 266.372 244.467 266.722 244.467 267.183ZM243.132 267.183C243.132 267.517 243.161 267.757 243.219 267.902C243.277 268.047 243.374 268.12 243.511 268.12C243.645 268.12 243.742 268.047 243.802 267.9C243.862 267.753 243.892 267.514 243.892 267.183C243.892 266.848 243.861 266.607 243.801 266.461C243.741 266.315 243.644 266.242 243.511 266.242C243.375 266.242 243.278 266.315 243.219 266.461C243.161 266.607 243.132 266.848 243.132 267.183Z" fill="#0085F9"/>
<path d="M264.543 267.457H263.58V266.911H264.543V265.938H265.088V266.911H266.051V267.457H265.088V268.418H264.543V267.457Z" fill="#0085F9"/>
<path d="M275.471 251.112L274.685 251.898L274.24 251.453L275.026 250.667L274.234 249.875L274.679 249.43L275.471 250.222L276.257 249.436L276.702 249.881L275.916 250.667L276.698 251.449L276.253 251.894L275.471 251.112Z" fill="#0085F9"/>
<path d="M253.66 267.18C253.66 267.019 253.703 266.897 253.789 266.815C253.876 266.733 254.001 266.691 254.166 266.691C254.325 266.691 254.448 266.734 254.535 266.818C254.622 266.902 254.665 267.023 254.665 267.18C254.665 267.331 254.621 267.45 254.533 267.537C254.445 267.624 254.323 267.668 254.166 267.668C254.005 267.668 253.88 267.625 253.792 267.54C253.704 267.455 253.66 267.335 253.66 267.18Z" fill="#0085F9"/>
<path d="M274.234 242.716V242.098H276.702V242.716H274.234Z" fill="#0085F9"/>
<path d="M275.109 241.521C275.109 241.406 275.14 241.319 275.202 241.261C275.263 241.202 275.353 241.172 275.47 241.172C275.584 241.172 275.672 241.202 275.734 241.263C275.796 241.323 275.827 241.409 275.827 241.521C275.827 241.629 275.796 241.714 275.733 241.776C275.67 241.839 275.583 241.87 275.47 241.87C275.356 241.87 275.267 241.839 275.204 241.779C275.141 241.718 275.109 241.632 275.109 241.521Z" fill="#0085F9"/>
<path d="M275.109 243.291C275.109 243.176 275.14 243.089 275.202 243.03C275.263 242.971 275.353 242.942 275.47 242.942C275.584 242.942 275.672 242.972 275.734 243.032C275.796 243.092 275.827 243.179 275.827 243.291C275.827 243.399 275.796 243.484 275.733 243.546C275.67 243.608 275.583 243.639 275.47 243.639C275.356 243.639 275.267 243.609 275.204 243.548C275.141 243.487 275.109 243.401 275.109 243.291Z" fill="#0085F9"/>
<path d="M255.122 260.307H253.214V259.905L253.9 259.213C254.102 259.005 254.235 258.861 254.297 258.78C254.359 258.7 254.404 258.626 254.432 258.557C254.459 258.489 254.473 258.418 254.473 258.345C254.473 258.235 254.443 258.154 254.382 258.1C254.322 258.047 254.241 258.02 254.14 258.02C254.035 258.02 253.932 258.044 253.832 258.093C253.733 258.141 253.629 258.21 253.521 258.3L253.207 257.928C253.341 257.814 253.453 257.733 253.541 257.686C253.63 257.638 253.726 257.602 253.831 257.576C253.935 257.551 254.052 257.538 254.182 257.538C254.352 257.538 254.503 257.569 254.633 257.631C254.764 257.694 254.866 257.781 254.938 257.893C255.01 258.005 255.046 258.133 255.046 258.277C255.046 258.403 255.024 258.521 254.98 258.631C254.936 258.741 254.867 258.854 254.774 258.97C254.682 259.086 254.518 259.251 254.284 259.465L253.933 259.795V259.821H255.123L255.122 260.307Z" fill="#0085F9"/>
<path d="M265.68 258.169C265.68 258.339 265.628 258.484 265.525 258.603C265.422 258.723 265.277 258.805 265.09 258.85V258.861C265.31 258.888 265.477 258.955 265.591 259.062C265.704 259.168 265.76 259.312 265.76 259.492C265.76 259.755 265.665 259.959 265.475 260.105C265.284 260.252 265.012 260.325 264.659 260.325C264.363 260.325 264.1 260.276 263.871 260.177V259.686C263.977 259.74 264.093 259.783 264.22 259.817C264.347 259.85 264.473 259.867 264.597 259.867C264.788 259.867 264.928 259.835 265.019 259.77C265.11 259.706 265.156 259.602 265.156 259.458C265.156 259.33 265.103 259.239 264.999 259.186C264.894 259.132 264.727 259.106 264.498 259.106H264.291V258.663H264.502C264.714 258.663 264.868 258.635 264.966 258.58C265.064 258.525 265.113 258.43 265.113 258.295C265.113 258.089 264.983 257.985 264.724 257.985C264.635 257.985 264.543 258 264.451 258.03C264.358 258.06 264.255 258.112 264.142 258.185L263.875 257.787C264.124 257.608 264.421 257.519 264.765 257.519C265.048 257.519 265.271 257.576 265.435 257.69C265.598 257.805 265.68 257.964 265.68 258.169Z" fill="#0085F9"/>
<path d="M265.846 251.462H265.518V252.028H264.954V251.462H263.789V251.061L264.986 249.298H265.518V251.014H265.846V251.462ZM264.954 251.014V250.551C264.954 250.474 264.957 250.362 264.963 250.215C264.97 250.068 264.975 249.983 264.978 249.959H264.963C264.917 250.061 264.862 250.161 264.797 250.258L264.297 251.014H264.954Z" fill="#0085F9"/>
<path d="M254.212 250.265C254.475 250.265 254.685 250.339 254.842 250.487C254.998 250.635 255.076 250.838 255.076 251.096C255.076 251.4 254.982 251.635 254.794 251.799C254.606 251.964 254.337 252.046 253.988 252.046C253.684 252.046 253.439 251.997 253.252 251.898V251.4C253.35 251.452 253.465 251.495 253.595 251.528C253.726 251.561 253.85 251.577 253.967 251.577C254.319 251.577 254.495 251.433 254.495 251.144C254.495 250.869 254.313 250.731 253.948 250.731C253.882 250.731 253.81 250.738 253.73 250.751C253.65 250.764 253.585 250.778 253.536 250.793L253.306 250.67L253.409 249.279H254.889V249.768H253.915L253.864 250.304L253.93 250.291C254.006 250.273 254.1 250.265 254.212 250.265Z" fill="#0085F9"/>
<path d="M276.707 258.607H274.229V259.236H276.707V258.607Z" fill="#0085F9"/>
<path d="M258.407 226.874C258.753 226.874 259.024 226.96 259.223 227.131C259.421 227.303 259.52 227.537 259.52 227.835C259.52 228.175 259.412 228.441 259.196 228.634C258.98 228.827 258.681 228.924 258.301 228.924C257.932 228.924 257.65 228.865 257.455 228.746V228.387C257.56 228.455 257.69 228.507 257.846 228.546C258.001 228.584 258.155 228.603 258.306 228.603C258.569 228.603 258.774 228.541 258.92 228.417C259.066 228.292 259.139 228.113 259.139 227.878C259.139 227.42 258.858 227.191 258.297 227.191C258.155 227.191 257.965 227.213 257.727 227.256L257.534 227.133L257.657 225.597H259.289V225.941H257.976L257.893 226.926C258.065 226.892 258.236 226.874 258.407 226.874Z" fill="black"/>
<path d="M262.323 228.125H261.836V228.879H261.479V228.125H259.883V227.8L261.441 225.58H261.836V227.786H262.323V228.125ZM261.479 227.786V226.695C261.479 226.481 261.486 226.24 261.501 225.97H261.483C261.411 226.114 261.344 226.233 261.281 226.327L260.255 227.786L261.479 227.786Z" fill="black"/>
<path d="M264.672 226.37C264.672 226.579 264.613 226.75 264.496 226.884C264.378 227.017 264.212 227.106 263.996 227.151V227.169C264.26 227.202 264.455 227.286 264.582 227.42C264.71 227.555 264.773 227.731 264.773 227.95C264.773 228.263 264.665 228.503 264.448 228.672C264.231 228.84 263.922 228.924 263.523 228.924C263.349 228.924 263.19 228.911 263.046 228.885C262.901 228.859 262.761 228.813 262.625 228.747V228.392C262.767 228.462 262.919 228.516 263.08 228.553C263.24 228.589 263.393 228.608 263.536 228.608C264.103 228.608 264.387 228.385 264.387 227.941C264.387 227.543 264.074 227.344 263.449 227.344H263.126V227.023H263.453C263.709 227.023 263.912 226.966 264.062 226.853C264.211 226.74 264.286 226.584 264.286 226.383C264.286 226.223 264.231 226.097 264.121 226.006C264.011 225.915 263.862 225.869 263.673 225.869C263.53 225.869 263.394 225.889 263.267 225.927C263.14 225.966 262.995 226.038 262.832 226.143L262.643 225.891C262.778 225.785 262.933 225.702 263.109 225.641C263.285 225.581 263.47 225.55 263.664 225.55C263.983 225.55 264.231 225.623 264.407 225.769C264.584 225.915 264.672 226.115 264.672 226.37Z" fill="black"/>
<path d="M267.425 228.879H265.268V228.558L266.132 227.689C266.395 227.423 266.569 227.233 266.653 227.119C266.736 227.006 266.799 226.895 266.841 226.787C266.883 226.679 266.904 226.563 266.904 226.439C266.904 226.264 266.851 226.125 266.744 226.023C266.638 225.92 266.491 225.869 266.302 225.869C266.166 225.869 266.037 225.891 265.915 225.936C265.793 225.981 265.657 226.063 265.508 226.181L265.31 225.927C265.612 225.676 265.942 225.55 266.298 225.55C266.606 225.55 266.848 225.629 267.023 225.787C267.198 225.945 267.285 226.157 267.285 226.423C267.285 226.632 267.227 226.837 267.11 227.041C266.994 227.244 266.775 227.502 266.455 227.813L265.737 228.515V228.533H267.425V228.879H267.425Z" fill="black"/>
<path d="M269.277 228.879H268.913V226.54C268.913 226.345 268.919 226.161 268.931 225.988C268.9 226.019 268.864 226.052 268.826 226.087C268.787 226.121 268.608 226.267 268.291 226.524L268.094 226.268L268.962 225.597H269.277V228.879Z" fill="black"/>
<path d="M271.084 228.345L271.117 228.396C271.078 228.546 271.022 228.72 270.949 228.918C270.876 229.117 270.799 229.301 270.72 229.472H270.439C270.48 229.316 270.524 229.124 270.573 228.895C270.622 228.666 270.656 228.482 270.675 228.345L271.084 228.345Z" fill="black"/>
<path d="M273.808 228.879H271.65V228.558L272.515 227.689C272.778 227.423 272.952 227.233 273.035 227.119C273.119 227.006 273.182 226.895 273.224 226.787C273.266 226.679 273.287 226.563 273.287 226.439C273.287 226.264 273.234 226.125 273.127 226.023C273.021 225.92 272.874 225.869 272.685 225.869C272.549 225.869 272.42 225.891 272.298 225.936C272.176 225.981 272.04 226.063 271.891 226.181L271.693 225.927C271.995 225.676 272.325 225.55 272.681 225.55C272.989 225.55 273.231 225.629 273.406 225.787C273.581 225.945 273.668 226.157 273.668 226.423C273.668 226.632 273.61 226.837 273.493 227.041C273.377 227.244 273.158 227.502 272.838 227.813L272.12 228.515V228.533H273.808V228.879Z" fill="black"/>
<path d="M275.305 226.874C275.651 226.874 275.923 226.96 276.121 227.131C276.319 227.303 276.419 227.537 276.419 227.835C276.419 228.175 276.31 228.441 276.094 228.634C275.878 228.827 275.58 228.924 275.2 228.924C274.83 228.924 274.548 228.865 274.354 228.746V228.387C274.458 228.455 274.588 228.507 274.744 228.546C274.9 228.584 275.053 228.603 275.204 228.603C275.468 228.603 275.672 228.541 275.818 228.417C275.964 228.292 276.037 228.113 276.037 227.878C276.037 227.42 275.756 227.191 275.195 227.191C275.053 227.191 274.863 227.213 274.625 227.256L274.432 227.133L274.556 225.597H276.187V225.941H274.874L274.791 226.926C274.963 226.892 275.135 226.874 275.305 226.874Z" fill="black"/>
<path d="M234.173 273.315C238.325 269.163 238.325 262.431 234.173 258.279C230.021 254.127 223.289 254.127 219.137 258.279C214.985 262.431 214.985 269.163 219.137 273.315C223.289 277.467 230.021 277.467 234.173 273.315Z" fill="#FDC538"/>
<path d="M226.658 275.311C231.911 275.311 236.171 271.052 236.171 265.798C236.171 260.544 231.911 256.285 226.658 256.285C221.404 256.285 217.145 260.544 217.145 265.798C217.145 271.052 221.404 275.311 226.658 275.311Z" fill="#FDB606"/>
<path opacity="0.5" d="M218.293 266.578C218.109 265.405 218.209 264.176 218.582 263.03C218.764 262.455 219.021 261.904 219.327 261.383C219.636 260.863 220.006 260.38 220.42 259.939C220.838 259.502 221.301 259.107 221.8 258.766C222.301 258.43 222.834 258.138 223.394 257.917C224.511 257.466 225.724 257.265 226.909 257.344C225.725 257.421 224.569 257.7 223.508 258.184C222.98 258.43 222.472 258.716 222.001 259.056C221.528 259.392 221.088 259.772 220.691 260.195C220.59 260.299 220.497 260.41 220.399 260.517C220.305 260.627 220.215 260.741 220.123 260.853C220.038 260.97 219.95 261.085 219.867 261.204C219.788 261.325 219.704 261.444 219.628 261.567C219.317 262.057 219.064 262.582 218.856 263.125C218.445 264.216 218.263 265.392 218.293 266.578Z" fill="white"/>
<path d="M226.508 270.6V269.28C225.732 269.267 224.929 269.032 224.461 268.705L224.782 267.829C225.264 268.143 225.959 268.391 226.709 268.391C227.659 268.391 228.301 267.855 228.301 267.11C228.301 266.391 227.779 265.947 226.789 265.554C225.424 265.031 224.581 264.43 224.581 263.293C224.581 262.208 225.371 261.384 226.602 261.188V259.868H227.431V261.136C228.234 261.162 228.783 261.371 229.171 261.593L228.836 262.456C228.555 262.299 228.007 262.012 227.15 262.012C226.12 262.012 225.732 262.613 225.732 263.136C225.732 263.816 226.227 264.156 227.391 264.626C228.769 265.175 229.465 265.855 229.465 267.019C229.465 268.051 228.729 269.019 227.351 269.241V270.6H226.508Z" fill="white"/>
<path opacity="0.1" d="M246.648 273.316C250.8 269.164 250.8 262.432 246.648 258.28C242.496 254.128 235.764 254.128 231.612 258.28C227.46 262.432 227.46 269.164 231.612 273.316C235.764 277.468 242.496 277.468 246.648 273.316Z" fill="black"/>
<path d="M248.374 273.315C252.527 269.163 252.527 262.431 248.374 258.279C244.222 254.127 237.49 254.127 233.338 258.279C229.186 262.431 229.186 269.163 233.338 273.315C237.49 277.467 244.222 277.467 248.374 273.315Z" fill="#FDC538"/>
<path d="M247.582 272.524C251.297 268.809 251.297 262.785 247.582 259.07C243.867 255.355 237.844 255.355 234.129 259.07C230.414 262.785 230.414 268.809 234.129 272.524C237.844 276.239 243.867 276.239 247.582 272.524Z" fill="#FDB606"/>
<path opacity="0.5" d="M232.493 266.578C232.308 265.405 232.408 264.176 232.781 263.03C232.964 262.455 233.22 261.904 233.526 261.383C233.835 260.863 234.205 260.38 234.619 259.939C235.038 259.502 235.5 259.107 235.999 258.766C236.5 258.43 237.033 258.138 237.593 257.917C238.71 257.466 239.923 257.265 241.108 257.344C239.924 257.421 238.768 257.7 237.708 258.184C237.179 258.43 236.671 258.716 236.201 259.056C235.728 259.392 235.287 259.772 234.89 260.195C234.789 260.299 234.696 260.41 234.598 260.517C234.504 260.627 234.414 260.741 234.322 260.853C234.237 260.97 234.149 261.085 234.066 261.204C233.987 261.325 233.903 261.444 233.827 261.567C233.516 262.057 233.263 262.582 233.055 263.125C232.644 264.216 232.463 265.392 232.493 266.578Z" fill="white"/>
<path d="M240.707 270.6V269.28C239.931 269.267 239.128 269.032 238.66 268.705L238.981 267.829C239.463 268.143 240.159 268.391 240.908 268.391C241.858 268.391 242.5 267.855 242.5 267.11C242.5 266.391 241.978 265.947 240.988 265.554C239.624 265.031 238.781 264.43 238.781 263.293C238.781 262.208 239.57 261.384 240.801 261.188V259.868H241.63V261.136C242.433 261.162 242.982 261.371 243.37 261.593L243.035 262.456C242.754 262.299 242.206 262.012 241.349 262.012C240.319 262.012 239.931 262.613 239.931 263.136C239.931 263.816 240.426 264.156 241.59 264.626C242.968 265.175 243.664 265.855 243.664 267.019C243.664 268.051 242.928 269.019 241.55 269.241V270.6H240.707Z" fill="white"/>
<path d="M92.508 276.429C93.486 276.429 94.2788 275.396 94.2788 274.123C94.2788 272.849 93.486 271.817 92.508 271.817C91.5301 271.817 90.7373 272.849 90.7373 274.123C90.7373 275.396 91.5301 276.429 92.508 276.429Z" fill="#0085F9"/>
<path d="M100.319 276.429C101.297 276.429 102.089 275.396 102.089 274.123C102.089 272.849 101.297 271.817 100.319 271.817C99.3406 271.817 98.5479 272.849 98.5479 274.123C98.5479 275.396 99.3406 276.429 100.319 276.429Z" fill="#0085F9"/>
<path d="M114.847 276.429C115.825 276.429 116.618 275.396 116.618 274.123C116.618 272.849 115.825 271.817 114.847 271.817C113.869 271.817 113.076 272.849 113.076 274.123C113.076 275.396 113.869 276.429 114.847 276.429Z" fill="#0085F9"/>
<path d="M122.656 276.429C123.634 276.429 124.427 275.396 124.427 274.123C124.427 272.849 123.634 271.817 122.656 271.817C121.679 271.817 120.886 272.849 120.886 274.123C120.886 275.396 121.679 276.429 122.656 276.429Z" fill="#0085F9"/>
<path d="M124.429 273.623L124.475 264.759L109.401 258.27V255.723L105.405 255.312V258.68L90.6943 264.431V274.124H91.9656L91.8748 266.731L105.405 264.759V267.142L109.038 266.977V264.759L122.659 266.567V274.124L124.429 273.623Z" fill="#0085F9"/>
<path d="M106.765 257.038L98.502 265.17V274.124H100.318V267.47L106.765 264.759L114.847 267.224V274.124H116.573V265.581L107.583 257.038H106.765Z" fill="#0085F9"/>
<path d="M108.967 235.511H105.746V258.683H108.967V235.511Z" fill="#0085F9"/>
<path d="M111.807 231.579H102.908V237.1H111.807V231.579Z" fill="#0085F9"/>
<path d="M118.627 232.918H99.172C97.1219 232.918 95.46 231.256 95.46 229.206V226.727H122.339V229.206C122.339 231.256 120.677 232.918 118.627 232.918Z" fill="#0085F9"/>
<path d="M100.593 202.506V206.187H114.214C114.214 206.187 119.844 204.682 120.48 225.095H123.022C123.022 225.095 124.021 202.59 114.032 202.506L100.593 202.506Z" fill="#6275BA"/>
<path d="M83.0664 163.604H100.229C100.229 163.604 101.954 163.437 101.864 167.369L104.406 206.857C104.406 206.857 105.133 219.825 114.758 220.327H125.02C125.02 220.327 129.832 222.251 126.927 226.685L125.746 227.689L106.132 228.525L87.7884 217.147L83.0664 163.604Z" fill="#6275BA"/>
<path d="M86.6077 166.03C86.6077 166.03 84.0651 160.508 81.5225 166.03L84.6099 211.458C84.6099 211.458 84.9006 225.155 95.6068 228.011L105.95 228.525C105.95 228.525 112.851 225.262 105.95 220.326L98.2311 220.828C98.2311 220.828 88.9687 218.82 89.2411 207.609L86.6077 166.03Z" fill="#0085F9"/>
<path d="M123.653 263.288L125.376 266.047L128.797 270.363L131.403 271.666L134.09 269.386C133.871 269.299 133.616 268.871 133.344 268.228C132.896 267.169 132.403 265.526 131.956 263.855C130.957 260.127 130.802 256.225 131.504 252.43L136.452 225.654L137.588 220.804C138.178 218.287 137.136 215.669 134.978 214.245L129.693 212.217L123.666 214.335L124.054 215.11L128.553 224.107L124.806 256.926C124.754 259.543 124.383 260.872 124.124 261.488C123.981 261.83 123.872 261.952 123.872 261.952L123.653 263.288Z" fill="#DB965F"/>
<path d="M123.252 265.907L123.129 270.513L123.992 270.803L123.998 266.657C123.998 266.657 125.036 266.14 126.701 268.964C126.701 268.964 128.077 272.422 130.15 272.886C130.15 272.886 131.121 273.134 132.541 273.222C133.95 273.309 135.799 273.238 137.579 272.61C137.579 272.61 139.076 272.267 136.718 270.824C136.718 270.824 134.025 269.254 133.344 268.228C133.313 268.182 133.286 268.137 133.264 268.094C133.279 268.164 133.683 270.129 131.421 270.239C131.421 270.239 130.222 270.686 127.95 268.259C127.405 267.677 126.797 266.928 126.13 265.969C126.13 265.969 123.67 263.319 124.157 261.475C124.157 261.475 124.146 261.479 124.124 261.488C123.796 261.624 121.203 262.823 123.252 265.907Z" fill="#040C2B"/>
<path opacity="0.15" d="M123.252 265.907L123.129 270.513L123.992 270.803L123.998 266.657C123.998 266.657 125.036 266.14 126.701 268.964C126.701 268.964 128.077 272.422 130.15 272.886C130.15 272.886 131.121 273.134 132.541 273.222C131.008 272.174 129.761 271.047 129.761 271.047C129.573 270.921 129.394 270.763 129.225 270.577C128.72 270.021 128.3 269.211 127.95 268.258C127.106 265.958 126.673 262.821 126.454 260.387C126.255 258.185 126.344 255.966 126.707 253.784L130.222 232.699C133.723 216.737 130.222 217.47 130.222 217.47L124.054 215.11L128.552 224.107L124.806 256.926C124.754 259.542 124.383 260.872 124.124 261.488C123.796 261.624 121.203 262.823 123.252 265.907Z" fill="black"/>
<path d="M118.374 260.104C118.292 264.175 117.439 265.13 117.439 265.13L117.22 266.465L118.944 269.225L122.364 273.541L124.97 274.844L127.658 272.563C126.836 272.235 125.498 267.116 124.711 263.8C124.283 262 124.216 260.134 124.514 258.309L129.938 225.086C130.653 222.326 129.991 219.391 128.16 217.206L126.029 214.662L115.279 221.014L119.256 223.528C121.138 224.718 122.119 226.923 121.743 229.117L119.838 240.239C119.649 241.347 119.518 242.465 119.446 243.587L118.374 260.104Z" fill="#DB965F"/>
<path d="M116.821 269.084L116.706 273.374C116.701 273.562 116.82 273.732 116.998 273.791C117.275 273.884 117.562 273.678 117.562 273.386L117.649 269.671C117.649 269.671 118.605 269.317 120.271 272.142C120.271 272.142 121.647 275.599 123.719 276.063C123.719 276.063 127.576 277.049 131.148 275.788C131.148 275.788 132.646 275.445 130.287 274.001C130.287 274.001 127.346 272.286 126.833 271.269C126.833 271.269 127.294 273.305 124.99 273.417C124.99 273.417 123.147 274.104 119.7 269.147C119.7 269.147 117.239 266.496 117.726 264.653C117.726 264.653 114.638 265.798 116.821 269.084Z" fill="#040C2B"/>
<path d="M95.837 217.455C98.9609 221.613 114.64 224.038 120.055 224.762C120.24 224.787 120.416 224.84 120.578 224.916L124.459 222.805L131.781 218.822L137.269 216.147C136.524 214.856 135.44 213.773 134.09 213.062L114.407 202.997L110.861 202.873L108.496 202.791L99.1041 202.465C98.8321 203.133 98.6351 203.8 98.5015 204.458L93.7603 204.293C91.0461 210.96 95.837 217.455 95.837 217.455Z" fill="#040C2B"/>
<path d="M108.739 178.574C110.528 181.458 114.785 185.003 118.173 187.556C120.814 189.547 122.925 190.934 122.925 190.934L126.628 184.617L116.032 171.702C115.435 171.29 114.886 171.001 114.383 170.817C109.072 168.873 108.739 178.574 108.739 178.574Z" fill="white"/>
<path opacity="0.1" d="M108.739 178.574C110.528 181.457 114.785 185.003 118.173 187.556C117.863 178.75 116.595 174.117 115.197 171.5C109.887 169.556 108.739 178.574 108.739 178.574Z" fill="black"/>
<path d="M130.467 189.345L140.948 182.684C140.948 182.684 149.396 181.531 150.221 176.076C150.221 176.076 151.446 171.256 143.993 174.163L142.748 174.887L143.604 173.536C143.955 172.981 143.795 172.246 143.244 171.888C143.244 171.888 139.305 175.278 138.474 178.26C138.474 178.26 137.511 180.008 135.008 180.943L127.705 184.748L130.467 189.345Z" fill="#DB965F"/>
<path d="M121.711 187.628C121.711 187.628 121.401 193.071 127.543 191.381L132.018 188.851L134.864 187.241C134.864 187.241 132.868 183.531 133.413 181.455C133.413 181.455 132.074 181.98 130.217 182.825C127.647 183.994 124.086 185.776 121.711 187.628Z" fill="white"/>
<path d="M100.337 144.666C100.337 144.666 107.911 144.585 108.807 154.683C108.807 154.683 109.011 160.33 109.792 162.172C110.032 162.736 110.075 163.371 109.864 163.946C109.715 164.351 109.445 164.731 108.961 164.897C108.454 165.071 108.046 165.466 107.921 165.987C107.724 166.806 107.88 168.073 109.621 169.586C109.621 169.586 112.064 171.947 110.191 173.169L89.832 173.82L87.2261 170.726L86.4932 169.504C86.4932 169.504 88.942 169.465 90.2913 168.588C91.0442 168.099 91.2057 167.057 90.6609 166.343C90.0344 165.522 89.1239 163.951 90.1578 162.745C90.1578 162.745 91.2165 160.709 90.9722 157.696C90.9722 157.696 90.4022 145.317 100.337 144.666Z" fill="#131A3F"/>
<path d="M94.2686 167.997L96.8746 174.105L107.543 173.698L105.507 169.382C105.507 169.382 104.651 168.598 103.966 166.828C103.616 165.923 103.31 164.761 103.186 163.315L96.3859 156.678C96.3859 156.678 96.482 160.123 95.9746 163.321C95.6708 165.231 95.1521 167.053 94.2686 167.997Z" fill="#C9885B"/>
<path opacity="0.15" d="M95.9775 163.321C95.9838 163.33 95.9901 163.339 95.9964 163.349C96.8137 164.572 97.9424 165.559 99.2707 166.19C101.106 167.063 102.66 167.184 103.969 166.828C103.619 165.923 103.313 164.761 103.189 163.315L96.3888 156.678C96.3888 156.678 96.4849 160.123 95.9775 163.321Z" fill="black"/>
<path d="M104.816 147.842C104.816 147.842 111.168 160.627 102.943 165.676C102.943 165.676 95.8581 166.735 94.8809 155.904C94.8809 155.904 96.5096 142.63 104.816 147.842Z" fill="#DB965F"/>
<path d="M105.63 150.773C105.63 150.773 103.268 147.051 99.6181 151.753C99.1567 152.347 98.8411 153.041 98.6778 153.775C98.0581 156.562 95.8543 164.387 90.7275 163.884L95.9395 147.923L100.989 145.643L105.59 147.638L108.806 160.79L107.504 164.454C107.503 164.455 106.933 151.425 105.63 150.773Z" fill="#131A3F"/>
<path d="M86.4111 170.926L86.6424 171.732L91.0033 186.911L91.1343 187.365C91.4432 188.514 91.6949 189.663 91.8995 190.791C91.9875 191.277 92.0662 191.759 92.1368 192.235C92.4028 194.028 92.5542 195.749 92.633 197.324C92.7485 199.666 92.7015 201.683 92.6248 203.122C92.5593 204.361 93.6795 205.377 95.0237 205.292L114.823 204.035C116.137 203.951 117.093 202.848 116.888 201.647C116.412 198.867 115.649 194.251 115.483 192.319C115.483 192.319 115.565 188.34 116.053 183.461C116.053 183.461 117.519 170.325 113.448 170.25L107.697 169.714L107.526 169.698L107.443 169.691L106.2 169.574L104.336 167.507L104.245 167.323C104.244 167.348 104.242 167.374 104.24 167.399L104.205 167.362C104.207 167.369 104.217 167.409 104.234 167.476C104.114 168.637 103.283 169.61 102.8 170.087C102.772 170.114 102.744 170.141 102.719 170.166L102.715 170.169C102.681 170.2 102.65 170.23 102.621 170.256C102.612 170.264 102.604 170.271 102.596 170.279C102.582 170.29 102.57 170.302 102.559 170.311C102.543 170.326 102.528 170.338 102.515 170.35C102.501 170.362 102.488 170.372 102.478 170.38C102.469 170.388 102.463 170.393 102.459 170.396C102.456 170.399 102.454 170.4 102.454 170.4C102.443 170.396 102.432 170.391 102.421 170.387C102.349 170.359 102.278 170.329 102.205 170.299C102.114 170.26 102.022 170.219 101.93 170.178C101.909 170.168 101.889 170.159 101.867 170.149C101.845 170.139 101.822 170.13 101.801 170.119C101.776 170.107 101.75 170.095 101.725 170.083C101.718 170.08 101.713 170.078 101.706 170.075C101.702 170.073 101.699 170.071 101.695 170.069C101.682 170.063 101.671 170.057 101.659 170.051C98.4896 168.536 95.0022 166.289 95.0022 166.289L92.9624 169.063L92.857 169.185L92.8447 169.199C91.4401 169.43 90.2903 169.683 89.3727 169.921C87.3083 170.458 86.4111 170.926 86.4111 170.926Z" fill="white"/>
<path opacity="0.1" d="M86.6406 171.731L91.0016 186.91L91.1325 187.365C91.4414 188.514 91.6931 189.662 91.8977 190.791C91.9417 191.034 91.9837 191.276 92.0225 191.516C92.0389 191.616 92.0552 191.717 92.0717 191.817C92.0931 191.957 92.1146 192.096 92.1351 192.235C92.1647 191.77 92.1842 191.287 92.1924 190.79C92.3182 183.904 90.532 174.247 88.2416 171.907C87.3404 172.142 86.877 171.983 86.6406 171.731Z" fill="black"/>
<path opacity="0.15" d="M86.5336 171.59L86.4082 170.925C86.4082 170.925 86.3536 171.283 86.5336 171.59Z" fill="black"/>
<path opacity="0.15" d="M95.0254 170.364L95.0327 170.637L99.603 174.554L101.553 170.884L101.58 170.834L101.839 170.348L101.93 170.177C101.908 170.168 101.888 170.159 101.867 170.149C101.845 170.139 101.822 170.129 101.8 170.119C101.776 170.107 101.75 170.095 101.724 170.083C101.718 170.08 101.712 170.077 101.706 170.074C101.702 170.072 101.698 170.071 101.694 170.068L101.435 170.476L99.3586 173.739L95.0254 170.364Z" fill="black"/>
<path opacity="0.15" d="M102.594 170.28L102.716 170.468L102.83 170.645L102.89 170.737L103.033 170.956L105.628 174.962L106.438 171.517L106.327 171.271L105.547 173.984L103.05 170.621L102.889 170.405L102.719 170.177L102.713 170.169C102.679 170.201 102.648 170.23 102.62 170.256C102.611 170.264 102.602 170.271 102.594 170.28Z" fill="black"/>
<path d="M109.13 194.832C109.13 194.829 109.13 194.827 109.131 194.824L109.13 194.832Z" fill="#131A3F"/>
<path d="M109.13 194.832C109.13 194.829 109.13 194.827 109.131 194.824" stroke="#131A3F" stroke-width="0.0746874" stroke-miterlimit="10"/>
<path d="M80.3567 190.26L79.4667 193.574C78.7346 196.299 80.883 198.942 83.7005 198.783L86.6128 198.618L86.7889 194.266L88.5704 187.034L89.9517 181.679C91.3927 171.253 87.5446 170.738 87.5446 170.738C85.2739 169.661 83.7997 176.915 83.7997 176.915L80.3567 190.26Z" fill="white"/>
<path d="M131.26 169.606L131.261 169.602C131.261 169.602 131.259 169.601 131.26 169.606Z" fill="#9AAAF7" stroke="#131A3F" stroke-width="0.0746874" stroke-miterlimit="10"/>
<path opacity="0.1" d="M92.1348 192.235C92.4008 194.028 92.6442 197.21 92.723 198.784L100.949 196.502L103.926 196.208C103.891 196.124 103.859 196.032 103.829 195.933C103.822 195.911 103.816 195.888 103.809 195.865L104.471 196.942C104.891 196.91 105.277 196.714 105.571 196.411C107.338 194.59 111.239 196.227 111.239 196.227C115.851 196.311 111.927 191.185 111.927 191.185C108.422 188.152 104.581 191.327 104.581 191.327C104.293 191.425 103.943 191.508 103.555 191.578C103.563 191.42 103.569 191.329 103.569 191.329L100.745 191.06L92.6758 190.789L92.192 190.79C92.1839 191.287 92.1645 191.77 92.1348 192.235Z" fill="black"/>
<path d="M105.573 196.018C105.279 196.321 104.894 196.518 104.473 196.549L99.4605 196.919L98.6286 196.98L98.0791 192.535C98.0791 192.535 98.5204 192.567 99.1856 192.591C100.678 192.645 103.276 192.505 104.583 192.059C104.583 192.059 108.424 188.884 111.929 191.917C111.929 191.917 115.981 196.851 111.369 196.767C111.369 196.767 107.341 194.197 105.573 196.018Z" fill="#DB965F"/>
<path d="M103.928 196.941C103.893 196.856 103.861 196.764 103.831 196.666C103.454 195.411 103.519 193.127 103.556 192.338C103.564 192.163 103.571 192.061 103.571 192.061L100.747 191.793L92.6773 191.521L85.1285 191.538L84.4385 198.785L90.7137 198.246L100.951 197.235L103.928 196.941Z" fill="white"/>
<path d="M102.47 170.712L103.302 180.478L103.794 178.422L104.771 178.829L102.828 170.644L102.714 170.467L102.592 170.279C102.579 170.291 102.567 170.301 102.555 170.311C102.539 170.326 102.524 170.338 102.511 170.349C102.497 170.362 102.484 170.372 102.475 170.38L102.47 170.712Z" fill="#040C2B"/>
<path d="M99.3994 180.215L100.702 179.4L101.68 180.785L102.328 170.349L102.042 170.885L99.3994 180.215Z" fill="#040C2B"/>
<path d="M102.292 172.399C103.259 172.399 104.043 171.779 104.043 171.014C104.043 170.25 103.259 169.63 102.292 169.63C101.325 169.63 100.541 170.25 100.541 171.014C100.541 171.779 101.325 172.399 102.292 172.399Z" fill="#040C2B"/>
<path d="M83.0664 204.347C83.0664 205.363 83.9608 206.187 85.0641 206.187H96.6876C96.6876 206.187 102.318 204.682 102.953 225.095H105.496C105.496 225.095 106.495 202.59 96.5059 202.506H85.0641C83.9609 202.506 83.0664 203.33 83.0664 204.347Z" fill="#0085F9"/>
<path opacity="0.1" d="M63.873 274.4C63.873 275.014 64.1175 275.566 64.5032 275.937L65.4086 272.394C64.539 272.542 63.873 273.384 63.873 274.4Z" fill="black"/>
<path d="M70.5567 205.386H186.074C186.929 205.386 187.623 204.127 187.623 202.573C187.623 201.019 186.929 199.76 186.074 199.76H70.5567C69.7014 199.76 69.0078 201.019 69.0078 202.573C69.0078 204.127 69.7014 205.386 70.5567 205.386Z" fill="#407BFF"/>
<path d="M166.866 276.402C167.632 276.249 168.121 275.57 167.964 274.877L151.801 203.646C151.641 202.938 150.869 202.486 150.088 202.641L147.81 203.093C147.028 203.249 146.538 203.951 146.721 204.655L165.161 275.433C165.341 276.122 166.1 276.554 166.866 276.402Z" fill="#407BFF"/>
<path d="M84.794 276.402C84.028 276.249 83.5391 275.57 83.6964 274.877L99.8589 203.646C100.019 202.938 100.791 202.486 101.573 202.641L103.851 203.093C104.632 203.249 105.122 203.951 104.939 204.655L86.4989 275.433C86.3194 276.122 85.56 276.554 84.794 276.402Z" fill="#407BFF"/>
<path d="M189.27 276.402C190.036 276.249 190.525 275.57 190.367 274.877L174.205 203.646C174.044 202.938 173.273 202.486 172.491 202.641L170.213 203.093C169.431 203.249 168.941 203.951 169.124 204.655L187.565 275.433C187.744 276.122 188.504 276.554 189.27 276.402Z" fill="#407BFF"/>
<path d="M62.3907 276.402C61.6247 276.249 61.1358 275.57 61.2931 274.877L77.4555 203.646C77.6162 202.938 78.3875 202.486 79.1695 202.641L81.4472 203.093C82.2291 203.249 82.7191 203.951 82.5359 204.655L64.0957 275.433C63.9161 276.122 63.1568 276.554 62.3907 276.402Z" fill="#407BFF"/>
<path d="M174.433 199.708H151.406C149.855 199.708 148.598 198.998 148.598 198.122C148.598 197.247 149.855 196.537 151.406 196.537H174.433C175.984 196.537 177.241 197.247 177.241 198.122C177.241 198.998 175.984 199.708 174.433 199.708Z" fill="#0B2581"/>
<path d="M149.693 199.708H133.491C132.4 199.708 131.516 198.998 131.516 198.122C131.516 197.247 132.4 196.537 133.491 196.537H149.693C150.784 196.537 151.668 197.247 151.668 198.122C151.668 198.998 150.784 199.708 149.693 199.708Z" fill="#0F31AC"/>
<path d="M150.688 195.942L160.448 175.034C160.646 174.61 161.072 174.338 161.541 174.338H185.971C186.857 174.338 187.441 175.263 187.06 176.064L177.243 197.662L151.756 197.658C150.884 197.64 150.319 196.732 150.688 195.942Z" fill="#0F31AC"/>
<path d="M140.474 193.586H117.266L129.199 167.353H152.407L140.474 193.586Z" fill="#407BFF"/>
<path d="M149.607 173.493C149.607 173.493 140.203 176.35 146.088 181.274C146.088 181.274 151.637 175.252 149.607 173.493Z" fill="#DB965F"/>
<path d="M108.26 196.769H106.568V197.852H108.26V196.769Z" fill="#F6471E"/>
<path d="M110.424 196.769H108.732V197.852H110.424V196.769Z" fill="#F6471E"/>
<path d="M112.588 196.769H110.896V197.852H112.588V196.769Z" fill="#F6471E"/>
<path d="M114.755 196.769H113.063V197.852H114.755V196.769Z" fill="#F6471E"/>
<path d="M116.919 196.769H115.228V197.852H116.919V196.769Z" fill="#F6471E"/>
<path d="M119.627 199.746H106.026C105.354 199.746 104.809 199.201 104.809 198.529C104.809 197.856 105.354 197.311 106.026 197.311H119.627V199.746Z" fill="#F6471E"/>
<path d="M119.613 199.742L116.303 197.948L121.09 195.34C121.329 195.21 121.617 195.21 121.856 195.339L123.485 196.222C124.045 196.525 124.046 197.327 123.487 197.632L119.613 199.742Z" fill="#F6471E"/>
<path d="M209.45 61.8887H126.281V116.438H209.45V61.8887Z" fill="#E3E9F7"/>
<path d="M209.45 51.7856H126.323V61.9108H209.45V51.7856Z" fill="#407BFF"/>
<path d="M131.452 57.9979C132.393 57.9979 133.156 57.2726 133.156 56.3779C133.156 55.4831 132.393 54.7578 131.452 54.7578C130.511 54.7578 129.748 55.4831 129.748 56.3779C129.748 57.2726 130.511 57.9979 131.452 57.9979Z" fill="#E3E9F7"/>
<path d="M136.421 57.9979C137.362 57.9979 138.124 57.2726 138.124 56.3779C138.124 55.4831 137.362 54.7578 136.421 54.7578C135.48 54.7578 134.717 55.4831 134.717 56.3779C134.717 57.2726 135.48 57.9979 136.421 57.9979Z" fill="#E3E9F7"/>
<path d="M141.389 57.9979C142.33 57.9979 143.093 57.2726 143.093 56.3779C143.093 55.4831 142.33 54.7578 141.389 54.7578C140.448 54.7578 139.686 55.4831 139.686 56.3779C139.686 57.2726 140.448 57.9979 141.389 57.9979Z" fill="#E3E9F7"/>
<path d="M201.786 64.4102H133.922V113.918H201.786V64.4102Z" fill="white"/>
<path d="M188.715 66.9189H140.753H133.922V74.4929H140.753H188.715H201.808V66.9189H188.715Z" fill="#F4F6FC"/>
<path d="M184.137 71.9373V69.4766H184.658V71.9373H184.137Z" fill="#407BFF"/>
<path d="M187.46 71.9373H186.797L185.727 70.0758H185.712C185.733 70.4046 185.744 70.639 185.744 70.7793V71.9373H185.277V69.4766H185.935L187.004 71.3196H187.016C186.999 70.9998 186.991 70.7737 186.991 70.6413V69.4766H187.46V71.9373H187.46Z" fill="#407BFF"/>
<path d="M189.483 69.4766H190.01L189.173 71.9373H188.604L187.77 69.4766H188.296L188.759 70.9408C188.785 71.0273 188.812 71.128 188.839 71.243C188.867 71.358 188.884 71.438 188.89 71.4828C188.903 71.3796 188.945 71.1989 189.017 70.9408L189.483 69.4766Z" fill="#407BFF"/>
<path d="M192.555 70.7037C192.555 71.111 192.454 71.4241 192.252 71.6429C192.05 71.8616 191.76 71.9711 191.383 71.9711C191.006 71.9711 190.717 71.8617 190.515 71.6429C190.313 71.424 190.212 71.1099 190.212 70.7003C190.212 70.2908 190.313 69.978 190.516 69.762C190.718 69.5461 191.009 69.438 191.387 69.438C191.765 69.438 192.054 69.5469 192.254 69.7645C192.455 69.9822 192.555 70.2952 192.555 70.7037ZM190.759 70.7037C190.759 70.9786 190.811 71.1857 190.915 71.3248C191.02 71.464 191.176 71.5335 191.383 71.5335C191.8 71.5335 192.008 71.2569 192.008 70.7037C192.008 70.1494 191.801 69.8722 191.387 69.8722C191.179 69.8722 191.023 69.9421 190.917 70.0817C190.812 70.2214 190.759 70.4288 190.759 70.7037Z" fill="#407BFF"/>
<path d="M193.063 71.9373V69.4766H193.585V71.9373H193.063Z" fill="#407BFF"/>
<path d="M195.249 69.8756C195.053 69.8756 194.901 69.9494 194.793 70.0969C194.685 70.2445 194.632 70.4501 194.632 70.7137C194.632 71.2624 194.838 71.5368 195.249 71.5368C195.422 71.5368 195.631 71.4936 195.877 71.4072V71.8448C195.675 71.929 195.45 71.9711 195.201 71.9711C194.843 71.9711 194.569 71.8625 194.379 71.6454C194.19 71.4283 194.095 71.1166 194.095 70.7104C194.095 70.4546 194.141 70.2305 194.234 70.038C194.328 69.8456 194.461 69.6981 194.636 69.5954C194.81 69.4927 195.015 69.4414 195.249 69.4414C195.488 69.4414 195.728 69.4992 195.97 69.6148L195.801 70.0389C195.709 69.9952 195.617 69.957 195.524 69.9245C195.431 69.8918 195.339 69.8756 195.249 69.8756Z" fill="#407BFF"/>
<path d="M197.82 71.9373H196.402V69.4766H197.82V69.9041H196.924V70.4444H197.757V70.8718H196.924V71.5063H197.82V71.9373Z" fill="#407BFF"/>
<path d="M139.266 70.3399V69.8629C139.266 69.7219 139.151 69.6074 139.01 69.6074H138.537C138.131 69.6074 137.801 69.9371 137.801 70.3438V70.8169C137.801 70.958 137.915 71.0724 138.056 71.0724H138.533V71.5494C138.533 71.6905 138.648 71.805 138.789 71.805H139.262C139.669 71.805 139.998 71.4753 139.998 71.0686V70.5954C139.998 70.4544 139.884 70.3399 139.743 70.3399H139.266Z" fill="#407BFF"/>
<path d="M147.279 69.8623H141.29V70.6879H147.279V69.8623Z" fill="#407BFF"/>
<path d="M150.338 70.7231H141.29V71.5487H150.338V70.7231Z" fill="#407BFF"/>
<path d="M137.801 77.7246H150.339" stroke="#B4C4FB" stroke-width="0.660439" stroke-miterlimit="10"/>
<path d="M137.801 78.8013H145.815" stroke="#B4C4FB" stroke-width="0.660439" stroke-miterlimit="10"/>
<path d="M137.801 79.8789H145.815" stroke="#B4C4FB" stroke-width="0.660439" stroke-miterlimit="10"/>
<path d="M197.818 77.6157H195.929V77.8312H197.818V77.6157Z" fill="#407BFF"/>
<path d="M195.226 77.6157H193.47V77.8312H195.226V77.6157Z" fill="#407BFF"/>
<path d="M192.717 77.6157H190.948V77.8312H192.717V77.6157Z" fill="#407BFF"/>
<path d="M195.799 77.1821L195.455 78.1049H195.28L195.624 77.1821H195.799Z" fill="#407BFF"/>
<path d="M193.342 77.1821L192.998 78.1049H192.823L193.167 77.1821H193.342Z" fill="#407BFF"/>
<path d="M137.801 104.245H150.339" stroke="#407BFF" stroke-width="0.81674" stroke-miterlimit="10"/>
<path d="M137.801 105.323H148.573" stroke="#407BFF" stroke-width="0.75702" stroke-miterlimit="10"/>
<path d="M137.801 106.4H146.806" stroke="#407BFF" stroke-width="0.692165" stroke-miterlimit="10"/>
<path d="M135.991 111.419L197.82 111.419V110.643L135.991 110.643V111.419Z" fill="#BDC9F9"/>
<path d="M197.819 81.9902H135.989V84.6617H197.819V81.9902Z" fill="#F4F6FC"/>
<path d="M197.819 84.6611H135.989V87.3325H197.819V84.6611Z" fill="#E3E9F7"/>
<path d="M197.819 90.0044H135.989V92.6759H197.819V90.0044Z" fill="#E3E9F7"/>
<path d="M197.819 87.333H135.989V90.0045H197.819V87.333Z" fill="#F4F6FC"/>
<path d="M169.5 85.9966H171.481" stroke="#0085F9" stroke-width="0.680616" stroke-miterlimit="10"/>
<path d="M169.5 88.6675H171.481" stroke="#0085F9" stroke-width="0.680616" stroke-miterlimit="10"/>
<path d="M169.5 91.3394H171.481" stroke="#0085F9" stroke-width="0.680616" stroke-miterlimit="10"/>
<path d="M181.535 85.9966H182.789" stroke="#0085F9" stroke-width="0.680616" stroke-miterlimit="10"/>
<path d="M181.535 88.6675H182.789" stroke="#0085F9" stroke-width="0.680616" stroke-miterlimit="10"/>
<path d="M181.535 91.3394H182.789" stroke="#0085F9" stroke-width="0.680616" stroke-miterlimit="10"/>
<path d="M193.02 86.0186H195" stroke="#0085F9" stroke-width="0.680616" stroke-miterlimit="10"/>
<path d="M193.02 88.6904H195" stroke="#0085F9" stroke-width="0.680616" stroke-miterlimit="10"/>
<path d="M193.02 91.3618H195" stroke="#0085F9" stroke-width="0.680616" stroke-miterlimit="10"/>
<path d="M137.82 85.9966H152.191" stroke="#0085F9" stroke-width="0.680616" stroke-miterlimit="10"/>
<path d="M137.82 88.6675H154.706" stroke="#0085F9" stroke-width="0.680616" stroke-miterlimit="10"/>
<path d="M137.82 91.3394H157.033" stroke="#0085F9" stroke-width="0.680616" stroke-miterlimit="10"/>
<path d="M197.819 97.415H180.044V100.087H197.819V97.415Z" fill="#BDC9F9"/>
<path d="M181.055 94.2671H188.595" stroke="#0085F9" stroke-width="0.680616" stroke-miterlimit="10"/>
<path d="M181.055 95.8188H186.311" stroke="#0085F9" stroke-width="0.680616" stroke-miterlimit="10"/>
<path d="M193.041 94.2671H194.98" stroke="#0085F9" stroke-width="0.680616" stroke-miterlimit="10"/>
<path d="M193.041 95.8188H194.98" stroke="#0085F9" stroke-width="0.680616" stroke-miterlimit="10"/>
<path d="M137.82 83.3262H157.033" stroke="white" stroke-width="0.952865" stroke-miterlimit="10"/>
<path d="M180.708 83.3262H183.616" stroke="white" stroke-width="0.952865" stroke-miterlimit="10"/>
<path d="M192.557 83.3262H195.464" stroke="white" stroke-width="0.952865" stroke-miterlimit="10"/>
<path d="M169.033 83.3262H171.941" stroke="white" stroke-width="0.952865" stroke-miterlimit="10"/>
<path d="M193.038 98.7515H194.977" stroke="white" stroke-width="0.952865" stroke-miterlimit="10"/>
<path d="M181.051 98.7515H187.6" stroke="white" stroke-width="0.952865" stroke-miterlimit="10"/>
<path d="M185.64 104.619C185.64 104.619 183.835 104.668 184.342 106.01C184.587 106.661 185.368 106.928 185.973 106.585C186.217 106.446 186.506 106.237 186.842 105.926C186.842 105.926 188.227 103.208 187.365 103.966C187.365 103.966 186.59 104.559 186.795 105.772C186.902 106.406 187.57 106.779 188.163 106.532C188.671 106.321 189.099 106.02 188.645 105.691C188.645 105.691 187.351 106.463 188.53 106.779C188.703 106.825 188.886 106.824 189.058 106.777L189.472 106.662C189.667 106.607 189.873 106.602 190.07 106.646L190.598 106.763C190.825 106.814 191.061 106.799 191.28 106.721L191.83 106.526C192.021 106.458 192.226 106.438 192.427 106.468L192.507 106.48C192.919 106.542 193.333 106.392 193.61 106.083" stroke="#407BFF" stroke-width="0.247665" stroke-miterlimit="10"/>
<path opacity="0.1" d="M209.451 88.689V116.439H154.021V98.7912H154.061V88.689H209.451Z" fill="black" stroke="#0F31AC" stroke-width="0.16511" stroke-miterlimit="10"/>
<path d="M266.33 99.9468H155.422V154.496H266.33V99.9468Z" fill="#E3E9F7"/>
<path d="M266.329 89.8442H155.464V99.9694H266.329V89.8442Z" fill="#407BFF"/>
<path d="M160.589 96.0502C161.529 96.0502 162.292 95.3249 162.292 94.4301C162.292 93.5354 161.529 92.8101 160.589 92.8101C159.648 92.8101 158.885 93.5354 158.885 94.4301C158.885 95.3249 159.648 96.0502 160.589 96.0502Z" fill="#E3E9F7"/>
<path d="M165.557 96.0502C166.498 96.0502 167.261 95.3249 167.261 94.4301C167.261 93.5354 166.498 92.8101 165.557 92.8101C164.616 92.8101 163.854 93.5354 163.854 94.4301C163.854 95.3249 164.616 96.0502 165.557 96.0502Z" fill="#E3E9F7"/>
<path d="M170.526 96.0502C171.467 96.0502 172.23 95.3249 172.23 94.4301C172.23 93.5354 171.467 92.8101 170.526 92.8101C169.585 92.8101 168.822 93.5354 168.822 94.4301C168.822 95.3249 169.585 96.0502 170.526 96.0502Z" fill="#E3E9F7"/>
<path d="M176.238 104.477H158.918V110.163H176.238V104.477Z" fill="#F4F6FC" stroke="#0F31AC" stroke-width="0.16511" stroke-miterlimit="10"/>
<path d="M193.557 104.477H176.237V110.163H193.557V104.477Z" fill="#F4F6FC" stroke="#0F31AC" stroke-width="0.16511" stroke-miterlimit="10"/>
<path d="M210.877 104.477H193.558V110.163H210.877V104.477Z" fill="#F4F6FC" stroke="#0F31AC" stroke-width="0.16511" stroke-miterlimit="10"/>
<path d="M228.195 104.477H210.875V110.163H228.195V104.477Z" fill="#F4F6FC" stroke="#0F31AC" stroke-width="0.16511" stroke-miterlimit="10"/>
<path d="M245.515 104.477H228.195V110.163H245.515V104.477Z" fill="#F4F6FC" stroke="#0F31AC" stroke-width="0.16511" stroke-miterlimit="10"/>
<path d="M262.835 104.477H245.516V110.163H262.835V104.477Z" fill="#F4F6FC" stroke="#0F31AC" stroke-width="0.16511" stroke-miterlimit="10"/>
<path d="M176.238 110.163H158.918V115.849H176.238V110.163Z" fill="#F4F6FC" stroke="#0F31AC" stroke-width="0.16511" stroke-miterlimit="10"/>
<path d="M193.557 110.163H176.237V115.849H193.557V110.163Z" fill="#CDD7FB" stroke="#0F31AC" stroke-width="0.16511" stroke-miterlimit="10"/>
<path d="M210.877 110.163H193.558V115.849H210.877V110.163Z" fill="white" stroke="#0F31AC" stroke-width="0.16511" stroke-miterlimit="10"/>
<path d="M228.195 110.163H210.875V115.849H228.195V110.163Z" fill="white" stroke="#0F31AC" stroke-width="0.16511" stroke-miterlimit="10"/>
<path d="M245.515 110.163H228.195V115.849H245.515V110.163Z" fill="white" stroke="#0F31AC" stroke-width="0.16511" stroke-miterlimit="10"/>
<path d="M262.835 110.163H245.516V115.849H262.835V110.163Z" fill="white" stroke="#0F31AC" stroke-width="0.16511" stroke-miterlimit="10"/>
<path d="M176.238 115.849H158.918V121.535H176.238V115.849Z" fill="#F4F6FC" stroke="#0F31AC" stroke-width="0.16511" stroke-miterlimit="10"/>
<path d="M193.557 115.849H176.237V121.535H193.557V115.849Z" fill="white" stroke="#0F31AC" stroke-width="0.16511" stroke-miterlimit="10"/>
<path d="M210.877 115.849H193.558V121.535H210.877V115.849Z" fill="white" stroke="#0F31AC" stroke-width="0.16511" stroke-miterlimit="10"/>
<path d="M228.195 115.849H210.875V121.535H228.195V115.849Z" fill="#CDD7FB" stroke="#0F31AC" stroke-width="0.16511" stroke-miterlimit="10"/>
<path d="M245.515 115.849H228.195V121.535H245.515V115.849Z" fill="white" stroke="#0F31AC" stroke-width="0.16511" stroke-miterlimit="10"/>
<path d="M262.835 115.849H245.516V121.535H262.835V115.849Z" fill="white" stroke="#0F31AC" stroke-width="0.16511" stroke-miterlimit="10"/>
<path d="M176.238 121.535H158.918V127.221H176.238V121.535Z" fill="#F4F6FC" stroke="#0F31AC" stroke-width="0.16511" stroke-miterlimit="10"/>
<path d="M193.557 121.535H176.237V127.221H193.557V121.535Z" fill="white" stroke="#0F31AC" stroke-width="0.16511" stroke-miterlimit="10"/>
<path d="M210.877 121.535H193.558V127.221H210.877V121.535Z" fill="white" stroke="#0F31AC" stroke-width="0.16511" stroke-miterlimit="10"/>
<path d="M228.195 121.535H210.875V127.221H228.195V121.535Z" fill="white" stroke="#0F31AC" stroke-width="0.16511" stroke-miterlimit="10"/>
<path d="M245.515 121.535H228.195V127.221H245.515V121.535Z" fill="white" stroke="#0F31AC" stroke-width="0.16511" stroke-miterlimit="10"/>
<path d="M262.835 121.535H245.516V127.221H262.835V121.535Z" fill="white" stroke="#0F31AC" stroke-width="0.16511" stroke-miterlimit="10"/>
<path d="M176.238 127.22H158.918V132.906H176.238V127.22Z" fill="#F4F6FC" stroke="#0F31AC" stroke-width="0.16511" stroke-miterlimit="10"/>
<path d="M193.557 127.22H176.237V132.906H193.557V127.22Z" fill="white" stroke="#0F31AC" stroke-width="0.16511" stroke-miterlimit="10"/>
<path d="M210.877 127.22H193.558V132.906H210.877V127.22Z" fill="white" stroke="#0F31AC" stroke-width="0.16511" stroke-miterlimit="10"/>
<path d="M228.195 127.22H210.875V132.906H228.195V127.22Z" fill="white" stroke="#0F31AC" stroke-width="0.16511" stroke-miterlimit="10"/>
<path d="M245.515 127.22H228.195V132.906H245.515V127.22Z" fill="white" stroke="#0F31AC" stroke-width="0.16511" stroke-miterlimit="10"/>
<path d="M262.835 127.22H245.516V132.906H262.835V127.22Z" fill="white" stroke="#0F31AC" stroke-width="0.16511" stroke-miterlimit="10"/>
<path d="M176.238 132.906H158.918V138.592H176.238V132.906Z" fill="#F4F6FC" stroke="#0F31AC" stroke-width="0.16511" stroke-miterlimit="10"/>
<path d="M193.557 132.906H176.237V138.592H193.557V132.906Z" fill="white" stroke="#0F31AC" stroke-width="0.16511" stroke-miterlimit="10"/>
<path d="M210.877 132.906H193.558V138.592H210.877V132.906Z" fill="white" stroke="#0F31AC" stroke-width="0.16511" stroke-miterlimit="10"/>
<path d="M228.195 132.906H210.875V138.592H228.195V132.906Z" fill="white" stroke="#0F31AC" stroke-width="0.16511" stroke-miterlimit="10"/>
<path d="M245.515 132.906H228.195V138.592H245.515V132.906Z" fill="white" stroke="#0F31AC" stroke-width="0.16511" stroke-miterlimit="10"/>
<path d="M262.835 132.906H245.516V138.592H262.835V132.906Z" fill="white" stroke="#0F31AC" stroke-width="0.16511" stroke-miterlimit="10"/>
<path d="M176.238 138.593H158.918V144.279H176.238V138.593Z" fill="#F4F6FC" stroke="#0F31AC" stroke-width="0.16511" stroke-miterlimit="10"/>
<path d="M193.557 138.593H176.237V144.279H193.557V138.593Z" fill="white" stroke="#0F31AC" stroke-width="0.16511" stroke-miterlimit="10"/>
<path d="M210.877 138.593H193.558V144.279H210.877V138.593Z" fill="white" stroke="#0F31AC" stroke-width="0.16511" stroke-miterlimit="10"/>
<path d="M228.195 138.593H210.875V144.279H228.195V138.593Z" fill="white" stroke="#0F31AC" stroke-width="0.16511" stroke-miterlimit="10"/>
<path d="M245.515 138.593H228.195V144.279H245.515V138.593Z" fill="white" stroke="#0F31AC" stroke-width="0.16511" stroke-miterlimit="10"/>
<path d="M262.835 138.593H245.516V144.279H262.835V138.593Z" fill="white" stroke="#0F31AC" stroke-width="0.16511" stroke-miterlimit="10"/>
<path d="M176.238 144.278H158.918V149.964H176.238V144.278Z" fill="#F4F6FC" stroke="#0F31AC" stroke-width="0.16511" stroke-miterlimit="10"/>
<path d="M193.557 144.278H176.237V149.964H193.557V144.278Z" fill="white" stroke="#0F31AC" stroke-width="0.16511" stroke-miterlimit="10"/>
<path d="M210.877 144.278H193.558V149.964H210.877V144.278Z" fill="white" stroke="#0F31AC" stroke-width="0.16511" stroke-miterlimit="10"/>
<path d="M228.195 144.278H210.875V149.964H228.195V144.278Z" fill="white" stroke="#0F31AC" stroke-width="0.16511" stroke-miterlimit="10"/>
<path d="M245.515 144.278H228.195V149.964H245.515V144.278Z" fill="white" stroke="#0F31AC" stroke-width="0.16511" stroke-miterlimit="10"/>
<path d="M262.835 144.278H245.516V149.964H262.835V144.278Z" fill="#0085F9" stroke="#0F31AC" stroke-width="0.16511" stroke-miterlimit="10"/>
<path opacity="0.1" d="M266.371 128.562V154.47H196.369V137.994H196.42V128.562H266.371Z" fill="black" stroke="#0F31AC" stroke-width="0.16511" stroke-miterlimit="10"/>
<path d="M294.563 140.398H197.689V194.948H294.563V140.398Z" fill="#E3E9F7"/>
<path d="M294.562 130.296H197.731V140.421H294.562V130.296Z" fill="#407BFF"/>
<path d="M202.86 136.508C203.801 136.508 204.564 135.782 204.564 134.888C204.564 133.993 203.801 133.268 202.86 133.268C201.919 133.268 201.156 133.993 201.156 134.888C201.156 135.782 201.919 136.508 202.86 136.508Z" fill="#E3E9F7"/>
<path d="M207.829 136.508C208.77 136.508 209.533 135.782 209.533 134.888C209.533 133.993 208.77 133.268 207.829 133.268C206.888 133.268 206.125 133.993 206.125 134.888C206.125 135.782 206.888 136.508 207.829 136.508Z" fill="#E3E9F7"/>
<path d="M212.798 136.508C213.738 136.508 214.501 135.782 214.501 134.888C214.501 133.993 213.738 133.268 212.798 133.268C211.857 133.268 211.094 133.993 211.094 134.888C211.094 135.782 211.857 136.508 212.798 136.508Z" fill="#E3E9F7"/>
<path d="M291.076 144.929H201.174V190.417H291.076V144.929Z" fill="#F9FBFD"/>
<path d="M222.879 151.743H217.719V183.601H222.879V151.743Z" fill="#EEF2FA"/>
<path d="M229.789 151.743H224.629V183.601H229.789V151.743Z" fill="#EEF2FA"/>
<path d="M236.699 151.743H231.539V183.601H236.699V151.743Z" fill="#EEF2FA"/>
<path d="M243.609 151.743H238.449V183.601H243.609V151.743Z" fill="#EEF2FA"/>
<path d="M250.521 151.743H245.361V183.601H250.521V151.743Z" fill="#EEF2FA"/>
<path d="M257.434 151.743H252.273V183.601H257.434V151.743Z" fill="#EEF2FA"/>
<path d="M264.344 151.743H259.184V183.601H264.344V151.743Z" fill="#EEF2FA"/>
<path d="M271.254 151.743H266.094V183.601H271.254V151.743Z" fill="#EEF2FA"/>
<path d="M278.164 151.743H273.004V183.601H278.164V151.743Z" fill="#EEF2FA"/>
<path d="M222.879 164.233H217.719V183.601H222.879V164.233Z" fill="#407BFF"/>
<path d="M229.789 168.179H224.629V183.601H229.789V168.179Z" fill="#0085F9"/>
<path d="M236.699 176.232H231.539V183.601H236.699V176.232Z" fill="#6286E8"/>
<path d="M243.609 172.307H238.449V183.601H243.609V172.307Z" fill="#407BFF"/>
<path d="M250.521 176.232H245.361V183.601H250.521V176.232Z" fill="#0085F9"/>
<path d="M257.434 159.809H252.273V183.601H257.434V159.809Z" fill="#6286E8"/>
<path d="M264.344 154.842H259.184V183.601H264.344V154.842Z" fill="#407BFF"/>
<path d="M271.254 169.417H266.094V183.601H271.254V169.417Z" fill="#0085F9"/>
<path d="M278.164 164.233H273.004V183.601H278.164V164.233Z" fill="#6286E8"/>
<path d="M211.662 183.083H210.879V182.991L211.177 182.796C211.265 182.737 211.323 182.695 211.352 182.671C211.381 182.646 211.402 182.623 211.415 182.601C211.428 182.58 211.435 182.556 211.435 182.532C211.435 182.498 211.419 182.471 211.388 182.451C211.356 182.432 211.313 182.422 211.258 182.422C211.213 182.422 211.17 182.427 211.129 182.438C211.088 182.448 211.04 182.468 210.986 182.496L210.885 182.416C210.95 182.38 211.012 182.355 211.073 182.34C211.133 182.326 211.198 182.318 211.266 182.318C211.374 182.318 211.46 182.337 211.525 182.373C211.59 182.41 211.622 182.459 211.622 182.521C211.622 182.555 211.613 182.587 211.594 182.618C211.575 182.648 211.547 182.68 211.508 182.712C211.469 182.745 211.405 182.789 211.315 182.844L211.114 182.971V182.976H211.662V183.083Z" fill="#0085F9"/>
<path d="M212.586 182.705C212.586 182.836 212.554 182.934 212.489 182.997C212.424 183.061 212.326 183.092 212.193 183.092C212.064 183.092 211.967 183.06 211.9 182.994C211.834 182.928 211.801 182.832 211.801 182.705C211.801 182.573 211.833 182.475 211.898 182.412C211.962 182.348 212.061 182.317 212.193 182.317C212.322 182.317 212.42 182.35 212.486 182.416C212.553 182.482 212.586 182.578 212.586 182.705ZM211.989 182.705C211.989 182.808 212.005 182.882 212.038 182.925C212.07 182.969 212.122 182.991 212.193 182.991C212.264 182.991 212.316 182.969 212.349 182.924C212.382 182.88 212.399 182.807 212.399 182.705C212.399 182.604 212.382 182.531 212.349 182.486C212.316 182.441 212.264 182.418 212.193 182.418C212.122 182.418 212.07 182.44 212.038 182.485C212.005 182.529 211.989 182.603 211.989 182.705Z" fill="#0085F9"/>
<path d="M211.703 178.62H211.547V178.784H211.366V178.62H210.838V178.527L211.366 178.029H211.547V178.519H211.703V178.62ZM211.366 178.519V178.33C211.366 178.263 211.369 178.208 211.374 178.165H211.367C211.353 178.188 211.33 178.215 211.298 178.247L211.011 178.519H211.366Z" fill="#0085F9"/>
<path d="M212.586 178.408C212.586 178.538 212.554 178.636 212.489 178.699C212.424 178.763 212.326 178.795 212.193 178.795C212.064 178.795 211.967 178.762 211.9 178.696C211.834 178.631 211.801 178.534 211.801 178.408C211.801 178.275 211.833 178.177 211.898 178.114C211.962 178.051 212.061 178.019 212.193 178.019C212.322 178.019 212.42 178.052 212.486 178.118C212.553 178.184 212.586 178.28 212.586 178.408ZM211.989 178.408C211.989 178.51 212.005 178.584 212.038 178.628C212.07 178.672 212.122 178.694 212.193 178.694C212.264 178.694 212.316 178.671 212.349 178.627C212.382 178.582 212.399 178.509 212.399 178.408C212.399 178.307 212.382 178.233 212.349 178.188C212.316 178.143 212.264 178.121 212.193 178.121C212.122 178.121 212.07 178.143 212.038 178.187C212.005 178.231 211.989 178.305 211.989 178.408Z" fill="#0085F9"/>
<path d="M210.883 174.167C210.883 173.872 211.067 173.725 211.435 173.725C211.493 173.725 211.542 173.728 211.582 173.734V173.835C211.542 173.827 211.496 173.823 211.443 173.823C211.319 173.823 211.226 173.845 211.164 173.888C211.102 173.932 211.068 174.001 211.063 174.097H211.072C211.097 174.069 211.132 174.047 211.177 174.032C211.222 174.017 211.274 174.009 211.335 174.009C211.44 174.009 211.521 174.03 211.58 174.072C211.639 174.114 211.668 174.171 211.668 174.242C211.668 174.321 211.634 174.384 211.566 174.43C211.498 174.476 211.406 174.498 211.289 174.498C211.206 174.498 211.134 174.486 211.073 174.46C211.012 174.434 210.965 174.396 210.932 174.346C210.899 174.297 210.883 174.237 210.883 174.167ZM211.286 174.399C211.35 174.399 211.399 174.385 211.433 174.358C211.468 174.332 211.485 174.293 211.485 174.243C211.485 174.2 211.469 174.166 211.437 174.141C211.404 174.117 211.356 174.104 211.291 174.104C211.251 174.104 211.214 174.11 211.18 174.121C211.146 174.132 211.12 174.148 211.1 174.167C211.081 174.186 211.071 174.206 211.071 174.227C211.071 174.275 211.091 174.316 211.131 174.349C211.172 174.382 211.223 174.399 211.286 174.399Z" fill="#0085F9"/>
<path d="M212.586 174.112C212.586 174.243 212.554 174.34 212.489 174.403C212.424 174.467 212.326 174.499 212.193 174.499C212.064 174.499 211.967 174.466 211.9 174.4C211.834 174.335 211.801 174.238 211.801 174.112C211.801 173.979 211.833 173.881 211.898 173.818C211.962 173.755 212.061 173.723 212.193 173.723C212.322 173.723 212.42 173.756 212.486 173.822C212.553 173.888 212.586 173.985 212.586 174.112ZM211.989 174.112C211.989 174.214 212.005 174.288 212.038 174.332C212.07 174.376 212.122 174.398 212.193 174.398C212.264 174.398 212.316 174.375 212.349 174.331C212.382 174.286 212.399 174.213 212.399 174.112C212.399 174.011 212.382 173.938 212.349 173.892C212.316 173.847 212.264 173.825 212.193 173.825C212.122 173.825 212.07 173.847 212.038 173.891C212.005 173.935 211.989 174.009 211.989 174.112Z" fill="#0085F9"/>
<path d="M211.269 169.43C211.379 169.43 211.465 169.446 211.529 169.479C211.593 169.512 211.625 169.556 211.625 169.611C211.625 169.688 211.554 169.749 211.411 169.795C211.502 169.825 211.567 169.856 211.605 169.888C211.643 169.921 211.662 169.957 211.662 169.997C211.662 170.06 211.627 170.109 211.557 170.147C211.487 170.184 211.392 170.203 211.272 170.203C211.147 170.203 211.05 170.186 210.98 170.15C210.911 170.115 210.877 170.066 210.877 170.002C210.877 169.96 210.895 169.922 210.931 169.888C210.967 169.855 211.026 169.825 211.109 169.799C211.038 169.772 210.988 169.742 210.958 169.712C210.928 169.681 210.913 169.647 210.913 169.609C210.913 169.554 210.945 169.511 211.011 169.478C211.077 169.446 211.163 169.43 211.269 169.43ZM211.055 169.997C211.055 170.033 211.074 170.061 211.112 170.081C211.151 170.1 211.203 170.11 211.269 170.11C211.337 170.11 211.39 170.1 211.428 170.08C211.465 170.059 211.484 170.032 211.484 169.997C211.484 169.969 211.467 169.943 211.432 169.92C211.397 169.897 211.344 169.876 211.274 169.856L211.251 169.85C211.181 169.87 211.131 169.892 211.101 169.915C211.07 169.939 211.055 169.967 211.055 169.997ZM211.267 169.523C211.215 169.523 211.172 169.531 211.14 169.548C211.108 169.565 211.092 169.589 211.092 169.618C211.092 169.636 211.098 169.652 211.109 169.666C211.121 169.68 211.138 169.693 211.16 169.704C211.182 169.716 211.22 169.73 211.272 169.746C211.335 169.728 211.38 169.708 211.406 169.688C211.432 169.668 211.445 169.645 211.445 169.618C211.445 169.589 211.429 169.566 211.397 169.549C211.364 169.531 211.321 169.523 211.267 169.523Z" fill="#0085F9"/>
<path d="M212.586 169.816C212.586 169.947 212.554 170.044 212.489 170.108C212.424 170.172 212.326 170.203 212.193 170.203C212.064 170.203 211.967 170.171 211.9 170.105C211.834 170.039 211.801 169.943 211.801 169.816C211.801 169.683 211.833 169.585 211.898 169.522C211.962 169.459 212.061 169.428 212.193 169.428C212.322 169.428 212.42 169.461 212.486 169.527C212.553 169.593 212.586 169.689 212.586 169.816ZM211.989 169.816C211.989 169.919 212.005 169.992 212.038 170.036C212.07 170.08 212.122 170.102 212.193 170.102C212.264 170.102 212.316 170.08 212.349 170.035C212.382 169.991 212.399 169.918 212.399 169.816C212.399 169.715 212.382 169.642 212.349 169.597C212.316 169.552 212.264 169.529 212.193 169.529C212.122 169.529 212.07 169.551 212.038 169.596C212.005 169.64 211.989 169.714 211.989 169.816Z" fill="#0085F9"/>
<path d="M210.964 165.9H210.778V165.413C210.778 165.355 210.78 165.309 210.784 165.275C210.772 165.284 210.757 165.293 210.74 165.303C210.722 165.313 210.663 165.344 210.562 165.397L210.469 165.321L210.809 165.146H210.964L210.964 165.9Z" fill="#0085F9"/>
<path d="M212.125 165.523C212.125 165.654 212.093 165.751 212.028 165.815C211.963 165.879 211.865 165.91 211.732 165.91C211.603 165.91 211.506 165.878 211.439 165.812C211.373 165.746 211.34 165.65 211.34 165.523C211.34 165.39 211.372 165.292 211.437 165.229C211.501 165.166 211.6 165.135 211.732 165.135C211.861 165.135 211.959 165.168 212.025 165.234C212.092 165.3 212.125 165.396 212.125 165.523ZM211.528 165.523C211.528 165.626 211.544 165.699 211.577 165.743C211.609 165.787 211.661 165.809 211.732 165.809C211.803 165.809 211.855 165.787 211.888 165.742C211.921 165.698 211.937 165.625 211.937 165.523C211.937 165.422 211.921 165.349 211.888 165.304C211.855 165.259 211.803 165.236 211.732 165.236C211.661 165.236 211.609 165.258 211.577 165.303C211.544 165.347 211.528 165.421 211.528 165.523Z" fill="#0085F9"/>
<path d="M213.051 165.523C213.051 165.654 213.018 165.751 212.954 165.815C212.889 165.879 212.791 165.91 212.658 165.91C212.529 165.91 212.432 165.878 212.365 165.812C212.299 165.746 212.266 165.65 212.266 165.523C212.266 165.39 212.298 165.292 212.362 165.229C212.427 165.166 212.525 165.135 212.658 165.135C212.787 165.135 212.885 165.168 212.951 165.234C213.017 165.3 213.051 165.396 213.051 165.523ZM212.454 165.523C212.454 165.626 212.47 165.699 212.502 165.743C212.535 165.787 212.587 165.809 212.658 165.809C212.729 165.809 212.781 165.787 212.814 165.742C212.847 165.698 212.863 165.625 212.863 165.523C212.863 165.422 212.847 165.349 212.814 165.304C212.781 165.259 212.729 165.236 212.658 165.236C212.587 165.236 212.535 165.258 212.502 165.303C212.47 165.347 212.454 165.421 212.454 165.523Z" fill="#0085F9"/>
<path d="M210.964 161.604H210.778V161.118C210.778 161.06 210.78 161.014 210.784 160.98C210.772 160.988 210.757 160.997 210.74 161.007C210.722 161.017 210.663 161.049 210.562 161.102L210.469 161.025L210.809 160.851H210.964L210.964 161.604Z" fill="#0085F9"/>
<path d="M212.123 161.604H211.34V161.512L211.638 161.317C211.726 161.258 211.784 161.217 211.813 161.192C211.842 161.168 211.863 161.144 211.876 161.123C211.889 161.101 211.896 161.078 211.896 161.053C211.896 161.019 211.88 160.992 211.849 160.973C211.817 160.953 211.774 160.943 211.719 160.943C211.674 160.943 211.631 160.949 211.59 160.959C211.549 160.97 211.501 160.989 211.447 161.017L211.346 160.937C211.411 160.902 211.473 160.877 211.534 160.862C211.594 160.847 211.659 160.84 211.727 160.84C211.835 160.84 211.921 160.858 211.986 160.895C212.051 160.931 212.083 160.981 212.083 161.042C212.083 161.076 212.074 161.109 212.055 161.139C212.036 161.17 212.008 161.201 211.969 161.234C211.93 161.266 211.866 161.31 211.775 161.365L211.575 161.492V161.497H212.123V161.604Z" fill="#0085F9"/>
<path d="M213.051 161.228C213.051 161.359 213.018 161.456 212.954 161.519C212.889 161.583 212.791 161.615 212.658 161.615C212.529 161.615 212.432 161.582 212.365 161.516C212.299 161.451 212.266 161.355 212.266 161.228C212.266 161.095 212.298 160.997 212.362 160.934C212.427 160.871 212.525 160.839 212.658 160.839C212.787 160.839 212.885 160.872 212.951 160.938C213.017 161.004 213.051 161.101 213.051 161.228ZM212.454 161.228C212.454 161.33 212.47 161.404 212.502 161.448C212.535 161.492 212.587 161.514 212.658 161.514C212.729 161.514 212.781 161.491 212.814 161.447C212.847 161.402 212.863 161.329 212.863 161.228C212.863 161.127 212.847 161.054 212.814 161.008C212.781 160.963 212.729 160.941 212.658 160.941C212.587 160.941 212.535 160.963 212.502 161.007C212.47 161.051 212.454 161.125 212.454 161.228Z" fill="#0085F9"/>
<path d="M210.964 157.308H210.778V156.821C210.778 156.763 210.78 156.717 210.784 156.683C210.772 156.691 210.757 156.7 210.74 156.71C210.722 156.72 210.663 156.752 210.562 156.805L210.469 156.728L210.809 156.554H210.964L210.964 157.308Z" fill="#0085F9"/>
<path d="M212.166 157.143H212.01V157.308H211.829V157.143H211.301V157.05L211.829 156.552H212.01V157.043H212.166V157.143ZM211.829 157.043V156.854C211.829 156.786 211.831 156.731 211.837 156.688H211.83C211.816 156.711 211.792 156.738 211.761 156.771L211.474 157.043L211.829 157.043Z" fill="#0085F9"/>
<path d="M213.051 156.931C213.051 157.062 213.018 157.159 212.954 157.223C212.889 157.286 212.791 157.318 212.658 157.318C212.529 157.318 212.432 157.285 212.365 157.22C212.299 157.154 212.266 157.058 212.266 156.931C212.266 156.798 212.298 156.7 212.362 156.637C212.427 156.574 212.525 156.542 212.658 156.542C212.787 156.542 212.885 156.575 212.951 156.641C213.017 156.707 213.051 156.804 213.051 156.931ZM212.454 156.931C212.454 157.034 212.47 157.107 212.502 157.151C212.535 157.195 212.587 157.217 212.658 157.217C212.729 157.217 212.781 157.195 212.814 157.15C212.847 157.105 212.863 157.032 212.863 156.931C212.863 156.83 212.847 156.757 212.814 156.712C212.781 156.667 212.729 156.644 212.658 156.644C212.587 156.644 212.535 156.666 212.502 156.71C212.47 156.755 212.454 156.828 212.454 156.931Z" fill="#0085F9"/>
<path d="M210.964 153.012H210.778V152.526C210.778 152.468 210.78 152.422 210.784 152.388C210.772 152.396 210.757 152.405 210.74 152.415C210.722 152.425 210.663 152.456 210.562 152.51L210.469 152.433L210.809 152.259H210.964L210.964 153.012Z" fill="#0085F9"/>
<path d="M211.346 152.692C211.346 152.397 211.53 152.25 211.898 152.25C211.956 152.25 212.005 152.252 212.045 152.258V152.359C212.005 152.352 211.959 152.348 211.906 152.348C211.782 152.348 211.689 152.37 211.627 152.413C211.565 152.456 211.531 152.526 211.526 152.621H211.535C211.56 152.593 211.595 152.572 211.64 152.556C211.685 152.541 211.737 152.533 211.798 152.533C211.903 152.533 211.984 152.554 212.043 152.596C212.101 152.638 212.131 152.695 212.131 152.767C212.131 152.846 212.097 152.908 212.029 152.954C211.961 153 211.869 153.023 211.752 153.023C211.669 153.023 211.597 153.01 211.536 152.984C211.475 152.958 211.428 152.92 211.395 152.871C211.362 152.821 211.346 152.761 211.346 152.692ZM211.749 152.923C211.813 152.923 211.862 152.91 211.896 152.883C211.931 152.856 211.948 152.818 211.948 152.768C211.948 152.725 211.932 152.691 211.9 152.666C211.867 152.641 211.818 152.629 211.754 152.629C211.714 152.629 211.677 152.634 211.643 152.646C211.609 152.657 211.583 152.672 211.563 152.691C211.544 152.711 211.534 152.731 211.534 152.751C211.534 152.799 211.554 152.84 211.594 152.873C211.635 152.906 211.686 152.923 211.749 152.923Z" fill="#0085F9"/>
<path d="M213.051 152.636C213.051 152.766 213.018 152.864 212.954 152.927C212.889 152.991 212.791 153.023 212.658 153.023C212.529 153.023 212.432 152.99 212.365 152.924C212.299 152.859 212.266 152.762 212.266 152.636C212.266 152.503 212.298 152.405 212.362 152.342C212.427 152.279 212.525 152.247 212.658 152.247C212.787 152.247 212.885 152.28 212.951 152.346C213.017 152.412 213.051 152.509 213.051 152.636ZM212.454 152.636C212.454 152.738 212.47 152.812 212.502 152.856C212.535 152.899 212.587 152.922 212.658 152.922C212.729 152.922 212.781 152.899 212.814 152.855C212.847 152.81 212.863 152.737 212.863 152.636C212.863 152.535 212.847 152.462 212.814 152.416C212.781 152.371 212.729 152.349 212.658 152.349C212.587 152.349 212.535 152.371 212.502 152.415C212.47 152.459 212.454 152.533 212.454 152.636Z" fill="#0085F9"/>
<path d="M214.096 186.66H281.786" stroke="#407BFF" stroke-width="0.16511" stroke-miterlimit="10"/>
<path d="M214.096 186.659V148.685" stroke="#407BFF" stroke-width="0.16511" stroke-miterlimit="10"/>
</svg>
