<svg width="338" height="281" viewBox="0 0 338 281" fill="none" xmlns="http://www.w3.org/2000/svg">
<path d="M238.495 8.00635C238.13 7.85316 237.752 7.69315 237.381 7.55426C228.379 3.98243 218.973 1.52858 209.334 0.529067C206.215 0.208378 203.072 0.025224 199.911 0.00071279C190.069 -0.0435436 180.022 1.97319 170.953 6.01958C165.53 8.42849 160.456 11.5795 155.974 15.4414C142.203 27.2878 141.91 43.5327 135.322 59.5072C130.634 70.847 125.139 81.9472 117.933 91.9308C110.728 101.914 101.834 110.61 91.3061 117.065C79.2037 124.477 66.338 125.142 53.7583 130.272C49.7711 131.898 45.1937 134.928 40.8184 139.792C38.3537 142.158 36.1184 144.801 34.2344 147.709C32.3307 150.624 30.7729 153.817 29.6447 157.323C24.3509 173.677 27.6361 192.368 35.27 207.752C43.4364 224.185 54.9403 238.142 68.6618 249.183C77.4293 256.257 87.0861 262.119 97.3617 266.706C118.825 276.264 142.909 280.185 166.911 277.465C236.142 269.625 305.873 217.88 318.505 146.823C318.619 146.161 318.727 145.512 318.826 144.844C318.909 144.449 318.97 144.029 319.026 143.623C319.352 141.514 319.607 139.375 319.809 137.247C320.323 131.666 320.434 126.063 320.082 120.499C319.795 116.117 319.231 111.766 318.382 107.462C317.388 102.485 316.221 97.601 314.846 92.8608C313.781 89.1099 312.585 85.4353 311.238 81.8464C308.205 73.6665 304.448 65.9094 299.82 58.5778C297.595 55.0325 295.165 51.5826 292.498 48.2633C288.995 43.8329 285.094 39.5993 280.763 35.5638C272.405 27.7536 263.04 20.7256 252.95 15.0275C248.28 12.3871 243.445 10.0224 238.495 8.00635Z" fill="#CADFF4"/>
<path d="M121.156 162.984H122.623H183.317H248.953C236.903 163.896 248.298 191.515 257.429 220.245C265.078 244.289 271.145 269.131 260.562 279.714H132.779C156.011 256.482 99.035 164.651 121.156 162.984Z" fill="white"/>
<path d="M135.521 193.412H180.977" stroke="#1D85EE" stroke-width="1.26308" stroke-miterlimit="10"/>
<path d="M137.294 199.952H161.985" stroke="#1D85EE" stroke-width="1.26308" stroke-miterlimit="10"/>
<path d="M234.568 197.173H209.06C207.75 197.173 206.401 196.111 206.046 194.802C205.691 193.493 206.465 192.431 207.774 192.431H233.282C234.591 192.431 235.941 193.493 236.296 194.802C236.651 196.111 235.877 197.173 234.568 197.173Z" fill="#1D85EE"/>
<path d="M141.438 215.242H186.896" stroke="#1D85EE" stroke-width="1.26308" stroke-miterlimit="10"/>
<path d="M143.212 221.783H167.902" stroke="#1D85EE" stroke-width="1.26308" stroke-miterlimit="10"/>
<path d="M240.486 219.002H214.978C213.668 219.002 212.319 217.94 211.964 216.631C211.609 215.322 212.383 214.26 213.692 214.26H239.2C240.509 214.26 241.859 215.322 242.214 216.631C242.568 217.94 241.795 219.002 240.486 219.002Z" fill="#1D85EE"/>
<path d="M248.631 258.099H223.123C221.814 258.099 220.464 257.038 220.11 255.729C219.755 254.419 220.528 253.358 221.838 253.358H247.346C248.655 253.358 250.004 254.419 250.359 255.729C250.714 257.038 249.94 258.099 248.631 258.099Z" fill="#1D85EE"/>
<path d="M149.313 242.785H247.781" stroke="#1D85EE" stroke-width="1.26308" stroke-miterlimit="10"/>
<path d="M248.953 162.985C236.902 163.896 248.298 191.516 257.428 220.246H294.448C270.02 219.961 270.19 161.404 248.953 162.985Z" fill="#2E2C3F"/>
<path d="M179.8 24.1344C179.8 24.1344 155.457 23.0232 159.331 57.8782C161.51 77.592 177.236 124.597 183.318 162.985H248.954C270.192 161.404 270.021 219.961 294.45 220.246C295.461 220.246 296.515 220.16 297.626 219.961C337.139 212.854 290.988 92.7338 287.114 57.8788C283.482 25.1175 304.762 24.135 307.326 24.135H179.8V24.1344Z" fill="white"/>
<path d="M183.316 162.984H248.953" stroke="#2E2C3F" stroke-width="0.68005" stroke-miterlimit="10"/>
<path d="M277.009 24.1344H179.8C179.8 24.1344 155.457 23.0232 159.331 57.8782" stroke="#2E2C3F" stroke-width="0.68005" stroke-miterlimit="10"/>
<path d="M185.079 55.3076C185.079 55.8985 184.941 56.4385 184.664 56.9278C184.396 57.4078 183.985 57.7956 183.431 58.091C182.887 58.3771 182.217 58.5202 181.424 58.5202H180.08V61.8159H177.366V52.0535H181.424C182.208 52.0535 182.873 52.192 183.418 52.4689C183.971 52.7459 184.387 53.129 184.664 53.6182C184.941 54.1075 185.079 54.6707 185.079 55.3076ZM181.16 56.36C181.927 56.36 182.31 56.0092 182.31 55.3076C182.31 54.5968 181.927 54.2414 181.16 54.2414H180.08V56.36H181.16ZM185.727 57.9248C185.727 57.1216 185.87 56.42 186.156 55.82C186.451 55.2199 186.848 54.7584 187.347 54.4352C187.854 54.1121 188.418 53.9506 189.036 53.9506C189.572 53.9506 190.033 54.0567 190.421 54.2691C190.809 54.4814 191.109 54.7676 191.321 55.1276V54.0475H194.035V61.8159H191.321V60.7358C191.109 61.0959 190.804 61.382 190.407 61.5944C190.019 61.8067 189.562 61.9128 189.036 61.9128C188.418 61.9128 187.854 61.7513 187.347 61.4282C186.848 61.1051 186.451 60.6435 186.156 60.0434C185.87 59.4342 185.727 58.7279 185.727 57.9248ZM191.321 57.9248C191.321 57.4263 191.182 57.0339 190.905 56.7478C190.638 56.4616 190.305 56.3185 189.908 56.3185C189.502 56.3185 189.165 56.4616 188.898 56.7478C188.63 57.0247 188.496 57.4171 188.496 57.9248C188.496 58.4233 188.63 58.8203 188.898 59.1157C189.165 59.4019 189.502 59.5449 189.908 59.5449C190.305 59.5449 190.638 59.4019 190.905 59.1157C191.182 58.8295 191.321 58.4325 191.321 57.9248ZM203.945 54.0475L199.016 65.5132H196.066L197.922 61.4836L194.737 54.0475H197.756L199.39 58.451L200.968 54.0475H203.945ZM207.37 55.4184C207.674 54.9753 208.043 54.6245 208.477 54.366C208.911 54.1075 209.377 53.9783 209.876 53.9783V56.8724H209.114C208.523 56.8724 208.085 56.9878 207.799 57.2186C207.513 57.4494 207.37 57.8509 207.37 58.4233V61.8159H204.655V54.0475H207.37V55.4184ZM214.463 61.9128C213.688 61.9128 212.991 61.7513 212.372 61.4282C211.763 61.1051 211.283 60.6435 210.932 60.0434C210.581 59.4434 210.406 58.7372 210.406 57.9248C210.406 57.1216 210.581 56.42 210.932 55.82C211.292 55.2199 211.777 54.7584 212.386 54.4352C213.004 54.1121 213.701 53.9506 214.477 53.9506C215.252 53.9506 215.945 54.1121 216.554 54.4352C217.173 54.7584 217.657 55.2199 218.008 55.82C218.368 56.42 218.548 57.1216 218.548 57.9248C218.548 58.7279 218.368 59.4342 218.008 60.0434C217.657 60.6435 217.173 61.1051 216.554 61.4282C215.936 61.7513 215.239 61.9128 214.463 61.9128ZM214.463 59.5588C214.842 59.5588 215.155 59.4203 215.405 59.1434C215.663 58.8572 215.792 58.451 215.792 57.9248C215.792 57.3986 215.663 56.997 215.405 56.7201C215.155 56.4431 214.846 56.3046 214.477 56.3046C214.108 56.3046 213.798 56.4431 213.549 56.7201C213.3 56.997 213.175 57.3986 213.175 57.9248C213.175 58.4602 213.295 58.8664 213.535 59.1434C213.775 59.4203 214.085 59.5588 214.463 59.5588ZM222.366 51.5688V61.8159H219.652V51.5688H222.366ZM226.626 51.5688V61.8159H223.912V51.5688H226.626Z" fill="#2E2C3F"/>
<path d="M261.888 64.9865C267.539 64.9865 272.121 60.4052 272.121 54.7538C272.121 49.1024 267.539 44.521 261.888 44.521C256.237 44.521 251.655 49.1024 251.655 54.7538C251.655 60.4052 256.237 64.9865 261.888 64.9865Z" fill="#F5B55D"/>
<path d="M262.469 59.1438V60.5165H261.464V59.1561C260.263 59.0826 259.098 58.6904 258.461 58.1389L259.012 56.9011C259.613 57.3913 260.533 57.7467 261.464 57.8325V55.3807C260.104 55.0498 258.645 54.6086 258.645 52.9044C258.645 51.6543 259.552 50.5629 261.464 50.379V48.9941H262.469V50.3545C263.376 50.4035 264.296 50.6732 264.958 51.1021L264.455 52.3399C263.806 51.96 263.119 51.7517 262.469 51.6781V54.1544C263.83 54.4853 265.313 54.9143 265.313 56.6185C265.313 57.8686 264.394 58.9477 262.469 59.1438ZM261.464 53.8971V51.7149C260.594 51.8497 260.226 52.2909 260.226 52.8302C260.226 53.4191 260.753 53.6887 261.464 53.8971ZM263.744 56.7288C263.744 56.1283 263.205 55.8464 262.47 55.638V57.808C263.365 57.6725 263.744 57.2558 263.744 56.7288Z" fill="white"/>
<path d="M180.298 79.4336H225.755" stroke="#1D85EE" stroke-width="1.26308" stroke-miterlimit="10"/>
<path d="M182.101 85.9731H206.792" stroke="#1D85EE" stroke-width="1.26308" stroke-miterlimit="10"/>
<path d="M279.361 83.1932H253.853C252.543 83.1932 251.189 82.1318 250.828 80.8224C250.467 79.5131 251.236 78.4517 252.546 78.4517H278.054C279.363 78.4517 280.718 79.5131 281.079 80.8224C281.439 82.1318 280.67 83.1932 279.361 83.1932Z" fill="#1D85EE"/>
<path d="M186.313 102.371H231.77" stroke="#1D85EE" stroke-width="1.26308" stroke-miterlimit="10"/>
<path d="M188.116 108.912H212.807" stroke="#1D85EE" stroke-width="1.26308" stroke-miterlimit="10"/>
<path d="M285.376 106.131H259.868C258.559 106.131 257.205 105.069 256.844 103.76C256.483 102.451 257.252 101.389 258.562 101.389H284.07C285.379 101.389 286.733 102.451 287.094 103.76C287.455 105.069 286.686 106.131 285.376 106.131Z" fill="#1D85EE"/>
<path d="M192.577 125.309H238.035" stroke="#1D85EE" stroke-width="1.26308" stroke-miterlimit="10"/>
<path d="M194.379 131.849H219.07" stroke="#1D85EE" stroke-width="1.26308" stroke-miterlimit="10"/>
<path d="M291.64 129.07H266.132C264.823 129.07 263.468 128.008 263.108 126.699C262.747 125.39 263.515 124.328 264.825 124.328H290.333C291.643 124.328 292.997 125.39 293.358 126.699C293.719 128.008 292.949 129.07 291.64 129.07Z" fill="#1D85EE"/>
<path d="M199.817 148.246H245.274" stroke="#1D85EE" stroke-width="1.26308" stroke-miterlimit="10"/>
<path d="M201.62 154.785H226.311" stroke="#1D85EE" stroke-width="1.26308" stroke-miterlimit="10"/>
<path d="M298.882 152.006H273.374C272.065 152.006 270.711 150.944 270.35 149.635C269.989 148.326 270.758 147.264 272.068 147.264H297.576C298.885 147.264 300.239 148.326 300.6 149.635C300.961 150.944 300.191 152.006 298.882 152.006Z" fill="#1D85EE"/>
<path d="M13.5146 173.466V273.618C13.5146 276.797 16.074 279.356 19.2421 279.356H92.0786C95.2467 279.356 97.8163 276.797 97.8163 273.618V173.466C97.8163 170.298 95.2467 167.729 92.0786 167.729H19.2421C16.074 167.729 13.5146 170.298 13.5146 173.466Z" fill="#2E2C3F"/>
<path d="M19.9658 173.466V273.618C19.9658 276.797 22.5252 279.356 25.6933 279.356H98.5298C101.698 279.356 104.267 276.797 104.267 273.618V173.466C104.267 170.298 101.698 167.729 98.5298 167.729H25.6933C22.5245 167.729 19.9658 170.298 19.9658 173.466Z" fill="#1D85EE"/>
<path d="M19.9658 173.466V208.945H104.267V173.466C104.267 170.298 101.698 167.729 98.5298 167.729H25.6933C22.5245 167.729 19.9658 170.298 19.9658 173.466Z" fill="#2E2C3F"/>
<path d="M25.6933 167.729C22.5252 167.729 19.9658 170.298 19.9658 173.466V208.946" stroke="white" stroke-width="0.326953" stroke-miterlimit="10"/>
<path d="M33.8737 200.678H90.353C91.9653 200.678 93.2725 199.371 93.2725 197.759V182.89C93.2725 181.277 91.9653 179.97 90.353 179.97H33.8737C32.2614 179.97 30.9541 181.277 30.9541 182.89V197.759C30.9541 199.371 32.2614 200.678 33.8737 200.678Z" fill="#1D85EE"/>
<path d="M91.2089 197.758V182.89C91.2089 182.417 90.8256 182.034 90.353 182.034H33.8737C33.4012 182.034 33.0186 182.416 33.0186 182.889V197.758C33.0186 198.229 33.4012 198.612 33.873 198.612H90.3544C90.8263 198.613 91.2089 198.23 91.2089 197.758Z" fill="white"/>
<path d="M85.2483 229.193C89.6803 229.193 93.273 225.601 93.273 221.169C93.273 216.737 89.6803 213.144 85.2483 213.144C80.8164 213.144 77.2236 216.737 77.2236 221.169C77.2236 225.601 80.8164 229.193 85.2483 229.193Z" fill="white" stroke="#2E2C3F" stroke-width="0.716477" stroke-miterlimit="10"/>
<path d="M62.1136 229.193C66.5455 229.193 70.1383 225.601 70.1383 221.169C70.1383 216.737 66.5455 213.144 62.1136 213.144C57.6816 213.144 54.0889 216.737 54.0889 221.169C54.0889 225.601 57.6816 229.193 62.1136 229.193Z" fill="white" stroke="#2E2C3F" stroke-width="0.716477" stroke-miterlimit="10"/>
<path d="M38.9788 229.193C43.4107 229.193 47.0035 225.601 47.0035 221.169C47.0035 216.737 43.4107 213.144 38.9788 213.144C34.5469 213.144 30.9541 216.737 30.9541 221.169C30.9541 225.601 34.5469 229.193 38.9788 229.193Z" fill="white" stroke="#2E2C3F" stroke-width="0.716477" stroke-miterlimit="10"/>
<path d="M85.2483 250.097C89.6803 250.097 93.273 246.504 93.273 242.072C93.273 237.64 89.6803 234.047 85.2483 234.047C80.8164 234.047 77.2236 237.64 77.2236 242.072C77.2236 246.504 80.8164 250.097 85.2483 250.097Z" fill="white" stroke="#2E2C3F" stroke-width="0.716477" stroke-miterlimit="10"/>
<path d="M62.1145 250.097C66.5465 250.097 70.1392 246.504 70.1392 242.072C70.1392 237.64 66.5465 234.047 62.1145 234.047C57.6826 234.047 54.0898 237.64 54.0898 242.072C54.0898 246.504 57.6826 250.097 62.1145 250.097Z" fill="white" stroke="#2E2C3F" stroke-width="0.716477" stroke-miterlimit="10"/>
<path d="M85.2483 269.817C89.6803 269.817 93.273 266.224 93.273 261.792C93.273 257.36 89.6803 253.768 85.2483 253.768C80.8164 253.768 77.2236 257.36 77.2236 261.792C77.2236 266.224 80.8164 269.817 85.2483 269.817Z" fill="white" stroke="#2E2C3F" stroke-width="0.716477" stroke-miterlimit="10"/>
<path d="M62.1145 269.817C66.5465 269.817 70.1392 266.224 70.1392 261.792C70.1392 257.36 66.5465 253.768 62.1145 253.768C57.6826 253.768 54.0898 257.36 54.0898 261.792C54.0898 266.224 57.6826 269.817 62.1145 269.817Z" fill="white" stroke="#2E2C3F" stroke-width="0.716477" stroke-miterlimit="10"/>
<path d="M38.9788 234.047C43.4106 234.047 47.0035 237.64 47.0035 242.072C47.0035 242.139 46.9953 242.204 46.9933 242.271V261.594C46.9947 261.661 47.0035 261.726 47.0035 261.793C47.0035 266.224 43.4106 269.817 38.9788 269.817C34.547 269.817 30.9541 266.224 30.9541 261.793V242.072C30.9541 237.64 34.547 234.047 38.9788 234.047Z" fill="white" stroke="#2E2C3F" stroke-width="0.716477" stroke-miterlimit="10"/>
<path d="M42.6542 175.449C43.5522 175.449 44.2801 174.721 44.2801 173.823C44.2801 172.925 43.5522 172.197 42.6542 172.197C41.7563 172.197 41.0283 172.925 41.0283 173.823C41.0283 174.721 41.7563 175.449 42.6542 175.449Z" fill="#F5B55D"/>
<path d="M32.58 175.449C33.478 175.449 34.2059 174.721 34.2059 173.823C34.2059 172.925 33.478 172.197 32.58 172.197C31.682 172.197 30.9541 172.925 30.9541 173.823C30.9541 174.721 31.682 175.449 32.58 175.449Z" fill="#F5B55D"/>
<path d="M71.5315 52.9273C71.5315 52.9273 63.5585 49.766 63.3202 66.2396C63.163 77.1376 48.6108 67.843 51.6958 89.9277C53.3939 102.085 72.1232 98.3568 72.1232 98.3568L82.4724 59.2416L71.5315 52.9273Z" fill="#2E2C3F"/>
<path d="M63.0713 89.6064C63.0713 89.6064 68.0164 83.0837 67.8666 71.4912C67.8265 68.3783 78.6509 77.7171 78.6509 77.7171L78.5535 96.4832L69.6995 100.216L63.0713 89.6064Z" fill="#FBAE94"/>
<path d="M67.9941 68.6321C67.9941 68.6321 67.0232 76.5962 70.0163 81.1021C73.0087 85.6088 76.411 87.3117 79.7248 85.5128C85.2622 82.5068 87.8808 75.3434 88.8953 71.7082C89.9098 68.0731 91.8721 55.108 84.9027 52.7488C77.9334 50.3896 72.1909 53.2424 69.7691 58.513C67.3473 63.7836 67.9941 68.6321 67.9941 68.6321Z" fill="#FBAE94"/>
<path d="M70.0156 81.1021C72.5253 84.8809 75.3223 86.6886 78.1139 86.1126" stroke="#2E2C3F" stroke-width="0.358272" stroke-miterlimit="10"/>
<path d="M67.7323 66.4561C67.7323 66.4561 70.7866 66.7543 76.9669 66.2906C84.278 65.7425 87.4658 60.8906 87.4658 60.8906C87.4658 60.8906 89.8911 63.5753 89.4492 68.8942C89.4492 68.8942 95.8895 65.3251 91.0036 58.031C91.0036 58.031 90.2771 51.5008 84.037 49.9239C77.7941 48.3463 73.0784 50.7988 69.9226 54.7152C65.7366 59.9109 67.7323 66.4561 67.7323 66.4561Z" fill="#2E2C3F"/>
<path d="M80.1178 75.3926C80.1178 75.3926 81.1364 77.9955 80.1368 78.1923C79.1373 78.3884 78.5586 77.9288 78.5586 77.9288" stroke="#2E2C3F" stroke-width="0.358272" stroke-miterlimit="10"/>
<path d="M76.5967 79.9663C76.5967 79.9663 77.765 82.4133 80.1467 80.6833L76.5967 79.9663Z" fill="white"/>
<path d="M69.3218 66.7221C69.3218 66.7221 67.6932 63.9257 66.0761 65.4407C64.459 66.9563 67.9594 73.1161 67.9594 73.1161" fill="#FBAE94"/>
<path d="M85.6977 73.5484C85.8837 73.0487 85.7639 72.5428 85.4301 72.4186C85.0964 72.2944 84.6751 72.5989 84.4891 73.0986C84.3031 73.5983 84.4229 74.1041 84.7566 74.2283C85.0904 74.3525 85.5117 74.0481 85.6977 73.5484Z" fill="#2E2C3F"/>
<path d="M76.4828 70.9493C76.6688 70.4495 76.549 69.9437 76.2153 69.8195C75.8816 69.6953 75.4602 69.9997 75.2743 70.4995C75.0883 70.9992 75.2081 71.505 75.5418 71.6292C75.8755 71.7534 76.2968 71.449 76.4828 70.9493Z" fill="#2E2C3F"/>
<path d="M84.333 70.1258C84.333 70.1258 86.3729 69.8623 87.5338 71.2084L84.333 70.1258Z" fill="#2E2C3F"/>
<path d="M74.6807 68.3265C74.6807 68.3265 76.6423 67.7082 78.0217 68.8283L74.6807 68.3265Z" fill="#2E2C3F"/>
<path d="M68.3078 67.37C68.3078 67.37 67.5077 66.1655 67.01 66.5659C66.5123 66.9662 67.7249 69.7517 68.0361 70.453" fill="#2E2C3F"/>
<path d="M71.5325 52.9253C71.5325 52.9253 66.987 56.013 66.9414 61.987" stroke="white" stroke-width="0.319667" stroke-miterlimit="10"/>
<path d="M87.3255 92.4946C87.3255 92.4946 91.7232 94.0572 90.8306 103.578C89.938 113.098 90.1654 129.442 90.1654 129.442L125.074 133.791L123.635 138.615C123.635 138.615 118.229 138.797 103.772 140.376C94.3099 141.41 85.893 140.151 81.5341 137.196C72.7577 131.246 81.9058 99.7105 81.9058 99.7105L87.3255 92.4946Z" fill="#FBAE94"/>
<path d="M87.4173 92.2661C87.4173 92.2661 91.2894 94.2706 91.2894 100.102C91.2894 105.934 90.2266 127.983 90.8189 128.257C91.4113 128.53 94.0537 129.077 94.0537 129.077C94.0537 129.077 96.9692 129.563 97.6984 130.291C97.6984 130.291 94.5698 136.365 95.7089 140.876C95.7089 140.876 94.7067 141.56 92.0186 140.557C92.0186 140.557 86.2782 140.512 83.7726 139.783C81.267 139.055 82.5423 130.626 82.5423 130.626C82.5423 130.626 86.3694 102.199 86.3238 102.335C86.2782 102.472 86.4607 92.5854 86.4607 92.5854L87.4173 92.2661Z" fill="#1D85EE"/>
<path d="M145.708 239.445C145.708 239.445 148.506 243.92 149.708 247.078L153.432 246.046L150.177 239.345L145.708 239.445Z" fill="#2E2C3F"/>
<path d="M144.154 230.084C144.154 230.084 144.059 238.389 145.89 239.656C147.721 240.923 149.494 240.989 152.293 242.45C155.093 243.91 157.503 244.617 159.82 246.154C162.138 247.691 164.437 248.353 169.349 246.676C174.261 244.999 180.454 242.107 177.115 239.187C173.776 236.267 159.935 236.315 159.935 236.315L144.154 230.084Z" fill="#2E2C3F"/>
<path d="M142.261 224.383C142.261 224.383 143.797 227.122 144.062 229.534C144.327 231.947 145.223 236.582 147.343 238.323C149.462 240.064 155.075 243.065 161.648 245.685C164.77 246.929 170.091 245.538 173.964 242.835C177.837 240.132 177.64 239.307 176.157 238.569C174.673 237.832 167.518 236.325 162.992 233.63C158.465 230.934 153.967 226.705 152.266 224.007C149.981 220.381 150.284 220.63 150.284 220.63L142.261 224.383Z" fill="#FBAE94"/>
<path d="M172.584 237.32C172.584 237.32 167.935 240.426 165.946 246.035L163.986 246.558L160.546 245.734C160.546 245.734 162.188 238.451 168.62 236.102L172.584 237.32Z" fill="#2E2C3F"/>
<path d="M133.991 265.657C133.991 265.657 135.303 270.769 135.493 274.142L139.355 274.286L138.28 266.914L133.991 265.657Z" fill="#2E2C3F"/>
<path d="M135.344 256.264C135.344 256.264 132.739 264.149 134.1 265.912C135.461 267.674 137.13 268.273 139.357 270.514C141.583 272.753 143.665 274.156 145.409 276.323C147.153 278.489 149.144 279.816 154.332 279.705C159.521 279.594 166.3 278.713 164.001 274.919C161.703 271.126 148.497 266.981 148.497 266.981L135.344 256.264Z" fill="#2E2C3F"/>
<path d="M135.264 250.257C135.264 250.257 135.898 253.333 135.421 255.711C134.944 258.091 134.394 262.78 135.887 265.081C137.381 267.382 141.821 271.941 147.293 276.428C149.892 278.558 155.385 278.844 159.893 277.44C164.402 276.036 164.466 275.19 163.275 274.038C162.084 272.885 155.72 269.284 152.222 265.344C148.724 261.405 145.717 256.013 144.913 252.926C143.833 248.779 144.046 249.108 144.046 249.108L135.264 250.257Z" fill="#FBAE94"/>
<path d="M160.248 271.767C160.248 271.767 154.877 273.32 151.283 278.063L149.256 277.969L146.227 276.141C146.227 276.141 149.997 269.696 156.839 269.405L160.248 271.767Z" fill="#2E2C3F"/>
<path d="M121.992 191.497C120.624 190.463 93.3686 180.707 89.7722 179.432C89.6224 179.375 89.519 179.328 89.4502 179.305C89.5421 179.328 89.6225 179.34 89.7144 179.362C105.434 183.281 124.727 187.395 124.727 187.395L142.587 229.851C144.851 236.366 123.451 192.589 121.992 191.497Z" fill="#2E2C3F"/>
<path d="M152.569 256.35C152.569 256.35 139.171 261.038 130.473 258.797C130.473 258.797 104.596 196.104 103.7 194.094C103.286 193.163 96.7363 186.429 89.7731 179.432C89.7615 179.409 89.7384 179.386 89.7159 179.363C81.5686 171.17 72.9053 162.633 72.9053 162.633L83.1666 134.182C83.1666 134.182 108.389 153.935 117.087 164.414C122.579 171.033 134.886 205.746 143.504 230.577C145.768 237.093 148.042 243.045 149.605 247.515L149.617 247.526C149.835 248.17 150.042 248.767 150.237 249.342L150.421 249.905C151.776 253.948 152.569 256.35 152.569 256.35Z" fill="#2E2C3F"/>
<path d="M52.0437 138.869C52.0437 138.869 49.329 162.633 61.5268 169.922C73.7245 177.21 124.729 187.391 124.729 187.391L142.598 230.315C142.598 230.315 153.308 228.232 156.134 220.498C156.134 220.498 145.572 175.277 140.366 169.327C135.159 163.376 87.8559 145.229 87.8559 145.229L83.1702 134.184L66.2867 131.246L52.0437 138.869Z" fill="#2E2C3F"/>
<path d="M89.7148 179.363C105.434 183.281 124.727 187.395 124.727 187.395L142.588 229.851" stroke="white" stroke-width="0.319667" stroke-miterlimit="10"/>
<path d="M101.696 150.714C93.7951 147.507 87.8559 145.228 87.8559 145.228L84.5469 139.919" stroke="white" stroke-width="0.319667" stroke-miterlimit="10"/>
<path d="M66.4761 80.4219C66.4761 80.4219 55.0566 82.487 52.007 91.6773C48.6571 101.773 49.6376 141.014 51.1995 146.48C51.1995 146.48 78.0577 147.266 84.3353 135.698C84.3353 135.698 83.6748 128.484 83.9894 126.485C84.9562 120.349 88.1175 116.147 88.415 111.312C88.7126 106.477 86.5256 95.9109 87.4182 92.2663L78.6711 85.9335C78.6711 85.9335 79.1266 91.8107 76.3289 90.7098C72.3288 89.137 66.4761 80.4219 66.4761 80.4219Z" fill="#1D85EE"/>
<path d="M84.3341 135.698C84.3341 135.698 83.6737 128.484 83.9883 126.485C84.9551 120.349 88.1164 116.147 88.4139 111.312C88.5623 108.903 88.0939 105.071 87.6963 101.381" stroke="#2E2C3F" stroke-width="0.358272" stroke-miterlimit="10"/>
<path d="M55.1304 85.1323C55.1304 85.1323 50.3705 88.1077 47.0975 106.553C43.8246 124.998 40.2548 134.37 46.9491 137.643C53.6427 140.915 83.0964 129.164 83.0964 129.164L82.5013 122.767L56.3206 123.511C56.3206 123.511 61.9731 102.685 61.6756 95.2473C61.3781 87.8095 55.1304 85.1323 55.1304 85.1323Z" fill="#FBAE94"/>
<path d="M123.383 129.518L99.5824 129.369L82.2529 136.137L118.32 136.063L123.383 129.518Z" fill="#2E2C3F"/>
<path d="M135.111 109.247C131.295 114.858 115.798 137.399 115.798 137.399L126.312 133.254L142.882 108.599C143.146 108.207 142.85 107.681 142.378 107.704L137.433 107.947C136.496 107.993 135.638 108.472 135.111 109.247Z" fill="#2E2C3F"/>
<path d="M82.2529 136.137V137.534H117.136L118.32 136.063L82.2529 136.137Z" fill="white"/>
<path d="M136.447 109.118C132.632 114.729 117.136 137.534 117.136 137.534L127.528 133.253L144.218 108.47C144.482 108.077 144.186 107.552 143.713 107.575L138.769 107.817C137.833 107.864 136.975 108.342 136.447 109.118Z" fill="white"/>
<path d="M133.596 120.449C134.001 119.747 134.03 119.004 133.66 118.79C133.289 118.576 132.66 118.973 132.255 119.675C131.849 120.377 131.821 121.12 132.191 121.334C132.561 121.548 133.19 121.152 133.596 120.449Z" fill="#2E2C3F"/>
<path d="M79.5273 123.254C79.5273 123.254 81.6326 121.934 82.9174 119.793C84.2022 117.651 85.0587 116.224 87.1994 115.154C89.3407 114.084 91.1246 112.834 93.2298 113.191C95.335 113.548 97.5833 114.833 97.5833 114.833C97.5833 114.833 97.298 116.117 95.6203 115.653C93.9434 115.189 92.4802 115.26 92.4802 115.26L90.6602 116.509C90.6602 116.509 93.4436 117.187 93.5151 117.687C93.5151 117.687 95.2636 118.115 95.2636 119.043C95.2636 119.043 97.0835 120.506 96.5483 121.862C96.0132 123.218 94.6569 124.645 93.5512 123.825C93.5512 123.825 94.5146 122.183 93.765 122.04C93.0153 121.897 91.1954 123.397 90.0181 124.502C88.8402 125.609 86.6635 127.892 84.9511 128.642C83.2381 129.392 79.848 130.105 79.848 130.105L79.5273 123.254Z" fill="#FBAE94"/>
<path d="M90.6612 116.51C90.6612 116.51 88.3061 116.438 87.6279 116.795" stroke="#2E2C3F" stroke-width="0.358272" stroke-miterlimit="10"/>
<path d="M93.5163 117.688L90.3047 118.116" stroke="#2E2C3F" stroke-width="0.358272" stroke-miterlimit="10"/>
<path d="M95.2646 119.043C95.2646 119.043 92.3743 119.329 91.4463 119.971" stroke="#2E2C3F" stroke-width="0.358272" stroke-miterlimit="10"/>
<path d="M63.8027 123.307C63.8027 123.307 61.3727 122.639 60.3405 123.186H56.8783C56.8783 123.186 60.0974 110.916 60.2799 109.519C60.2813 109.51 60.2744 109.501 60.2744 109.492C60.7122 107.349 63.6325 92.5849 61.8588 88.5317C59.9456 84.1585 61.7376 82.0015 61.7376 82.0015C61.7376 82.0015 53.203 83.9753 50.3787 90.8092C47.5545 97.643 46.0967 108.485 46.0967 108.485C46.0967 108.485 42.6039 123.306 41.6316 127.801C40.66 132.296 40.7206 140.314 47.0377 139.95C53.3548 139.586 57.9718 138.128 57.9718 138.128C57.9718 138.128 62.8311 138.128 64.4107 136.063C64.4107 136.063 67.0831 125.008 63.8027 123.307Z" fill="#1D85EE"/>
<path d="M63.8033 123.307C63.8033 123.307 61.3733 122.64 60.3411 123.186H56.8789C56.8789 123.186 62.6343 101.045 62.2244 95.2441" stroke="#2E2C3F" stroke-width="0.358272" stroke-miterlimit="10"/>
<path d="M56.8789 123.186C56.8789 123.186 52.2926 122.699 49.5596 124.067" stroke="#2E2C3F" stroke-width="0.358272" stroke-miterlimit="10"/>
<path d="M60.3415 123.185C60.3415 123.185 61.3138 129.715 58.9443 136.822" stroke="#2E2C3F" stroke-width="0.358272" stroke-miterlimit="10"/>
<path d="M122.081 137.043C122.081 137.043 122.046 139.268 122.972 139.172C123.899 139.076 124.75 138.202 124.75 138.202C124.75 138.202 125.543 139.226 126.83 137.575C126.83 137.575 128.234 137.665 129.124 135.468C129.124 135.468 130.342 134.67 130.586 133.799C130.83 132.927 131.44 129.224 131.139 128.811C131.139 128.811 131.093 128.538 130.804 128.653C130.804 128.653 130.89 127.638 130.331 127.535C129.773 127.432 129.544 128.521 129.544 128.521C129.544 128.521 129.023 127.302 128.463 127.51C127.903 127.717 127.068 131.716 127.068 131.716C127.068 131.716 126.794 129.004 126.086 130.148C125.377 131.293 125.097 133.108 124.098 134.713C123.099 136.317 122.081 137.043 122.081 137.043Z" fill="#FBAE94"/>
<path d="M127.067 131.716C127.067 131.716 126.869 133.034 126.19 134.511C125.512 135.987 124.801 137.648 124.801 137.648" stroke="#2E2C3F" stroke-width="0.358272" stroke-miterlimit="10"/>
<path d="M129.543 128.521C129.543 128.521 129.208 131.615 128.69 133.062C128.171 134.508 127.089 136.817 127.089 136.817" stroke="#2E2C3F" stroke-width="0.358272" stroke-miterlimit="10"/>
<path d="M129.124 135.469C129.124 135.469 130.094 133.119 130.341 131.764" stroke="#2E2C3F" stroke-width="0.358272" stroke-miterlimit="10"/>
<path d="M289.328 205.072C287.293 205.072 285.644 207.491 285.644 210.475C285.644 213.459 287.293 215.878 289.328 215.878" stroke="#2E2C3F" stroke-width="0.944431" stroke-miterlimit="10"/>
<path d="M276.707 204.665C274.666 204.665 273.012 207.09 273.012 210.083C273.012 213.075 274.666 215.501 276.707 215.501" stroke="#2E2C3F" stroke-width="0.944431" stroke-miterlimit="10"/>
<path d="M264.213 204.583C262.157 204.583 260.489 207.028 260.489 210.043C260.489 213.058 262.156 215.502 264.213 215.502" stroke="#2E2C3F" stroke-width="0.944431" stroke-miterlimit="10"/>
<path d="M251.907 204.176C249.773 204.176 248.044 206.711 248.044 209.839C248.044 212.966 249.773 215.501 251.907 215.501" stroke="#2E2C3F" stroke-width="0.944431" stroke-miterlimit="10"/>
<path d="M239.308 204.338C237.205 204.338 235.501 206.837 235.501 209.919C235.501 213.002 237.205 215.501 239.308 215.501" stroke="#2E2C3F" stroke-width="0.944431" stroke-miterlimit="10"/>
<path d="M227.023 231.165C227.023 231.165 227.798 279.212 229.528 279.721C231.258 280.23 301.877 278.968 303.274 276.802C304.672 274.636 255.819 223.419 255.819 223.419L227.023 231.165Z" fill="#2E2C3F"/>
<path d="M229.195 208.744C229.195 208.744 230.105 218.237 231.395 230.439C233.229 248.007 235.837 271.2 237.556 279.833H303.279C304.448 279.245 299.711 242.999 298.93 232.029C298.909 231.779 298.895 231.528 298.88 231.306C298.866 231.076 298.851 230.854 298.837 230.625C298.228 220.83 297.017 210.341 297.017 210.341L229.195 208.744Z" fill="white"/>
<path d="M303.278 279.831C304.446 279.245 299.708 243.001 298.931 232.033" stroke="#2E2C3F" stroke-width="0.236125" stroke-miterlimit="10" stroke-linecap="round" stroke-linejoin="round"/>
<g opacity="0.4">
<path d="M286.472 244.37L292.182 244.385C292.782 244.386 293.212 243.886 293.144 243.266L292.506 237.423C292.438 236.802 291.897 236.289 291.295 236.279L285.563 236.177C284.947 236.167 284.504 236.669 284.574 237.3L285.233 243.23C285.304 243.858 285.858 244.369 286.472 244.37Z" fill="#1D85EE"/>
<path d="M272.485 244.335L278.495 244.35C279.125 244.351 279.577 243.838 279.506 243.202L278.83 237.209C278.758 236.572 278.188 236.046 277.555 236.035L271.522 235.928C270.874 235.916 270.407 236.432 270.481 237.079L271.18 243.164C271.255 243.809 271.84 244.333 272.485 244.335Z" fill="#1D85EE"/>
<path d="M257.754 244.298L264.086 244.313C264.751 244.315 265.226 243.788 265.15 243.136L264.435 236.985C264.358 236.331 263.757 235.791 263.091 235.779L256.733 235.666C256.05 235.654 255.558 236.183 255.637 236.848L256.378 243.096C256.456 243.758 257.073 244.296 257.754 244.298Z" fill="#1D85EE"/>
<path d="M242.213 244.259L248.895 244.276C249.596 244.278 250.098 243.736 250.017 243.066L249.258 236.749C249.177 236.077 248.542 235.522 247.839 235.509L241.13 235.39C240.408 235.377 239.889 235.921 239.973 236.604L240.76 243.024C240.844 243.704 241.495 244.257 242.213 244.259Z" fill="#1D85EE"/>
<path d="M288.181 259.78L293.851 259.632C294.447 259.616 294.873 259.105 294.807 258.49L294.174 252.693C294.106 252.077 293.568 251.582 292.971 251.588L287.28 251.651C286.668 251.658 286.228 252.171 286.297 252.796L286.952 258.679C287.02 259.303 287.572 259.796 288.181 259.78Z" fill="#1D85EE"/>
<path d="M274.296 260.144L280.262 259.987C280.888 259.971 281.337 259.446 281.266 258.816L280.596 252.871C280.524 252.239 279.958 251.732 279.33 251.738L273.341 251.804C272.698 251.811 272.234 252.338 272.307 252.98L273.001 259.015C273.075 259.655 273.655 260.161 274.296 260.144Z" fill="#1D85EE"/>
<path d="M259.673 260.528L265.959 260.363C266.618 260.346 267.09 259.808 267.015 259.161L266.305 253.06C266.23 252.411 265.633 251.891 264.971 251.898L258.662 251.967C257.984 251.975 257.495 252.516 257.574 253.175L258.308 259.37C258.385 260.028 258.997 260.546 259.673 260.528Z" fill="#1D85EE"/>
<path d="M244.251 260.93L250.882 260.757C251.577 260.738 252.074 260.185 251.995 259.522L251.242 253.257C251.161 252.59 250.532 252.057 249.834 252.064L243.176 252.138C242.46 252.146 241.946 252.701 242.028 253.378L242.808 259.743C242.892 260.418 243.538 260.949 244.251 260.93Z" fill="#1D85EE"/>
<path d="M289.876 275.069L295.507 274.76C296.098 274.727 296.522 274.207 296.455 273.597L295.827 267.845C295.761 267.233 295.226 266.756 294.633 266.78L288.982 267.004C288.374 267.028 287.937 267.552 288.006 268.173L288.655 274.009C288.724 274.628 289.272 275.103 289.876 275.069Z" fill="#1D85EE"/>
<path d="M276.091 275.825L282.013 275.5C282.635 275.466 283.08 274.932 283.01 274.307L282.345 268.409C282.274 267.782 281.713 267.293 281.088 267.318L275.143 267.554C274.504 267.579 274.044 268.116 274.117 268.753L274.804 274.739C274.878 275.374 275.454 275.86 276.091 275.825Z" fill="#1D85EE"/>
<path d="M261.576 276.621L267.814 276.278C268.468 276.242 268.937 275.693 268.862 275.052L268.158 269.001C268.083 268.358 267.491 267.856 266.834 267.882L260.571 268.131C259.898 268.157 259.414 268.71 259.492 269.363L260.22 275.507C260.298 276.16 260.905 276.657 261.576 276.621Z" fill="#1D85EE"/>
<path d="M246.272 277.461L252.852 277.1C253.542 277.062 254.036 276.498 253.957 275.839L253.21 269.627C253.13 268.966 252.506 268.452 251.813 268.48L245.206 268.742C244.496 268.77 243.985 269.337 244.067 270.009L244.841 276.319C244.923 276.989 245.565 277.5 246.272 277.461Z" fill="#1D85EE"/>
</g>
<path d="M226.599 209.744C226.599 209.744 226.74 220.202 226.882 231.906L231.393 230.443L241.993 230.698C241.993 230.698 291.988 230.793 298.839 230.626C298.228 220.835 297.019 210.345 297.019 210.345L229.193 208.746L226.599 209.744Z" fill="#1D85EE"/>
<path d="M226.598 209.742C226.598 209.742 226.739 220.201 226.881 231.905L231.392 230.441L229.192 208.744L226.598 209.742Z" fill="#2E2C3F"/>
<path d="M231.394 230.442L229.194 208.746" stroke="#2E2C3F" stroke-width="0.236125" stroke-miterlimit="10" stroke-linecap="round" stroke-linejoin="round"/>
<path d="M289.314 217.73C290.262 217.73 291.031 216.961 291.031 216.013C291.031 215.065 290.262 214.297 289.314 214.297C288.366 214.297 287.598 215.065 287.598 216.013C287.598 216.961 288.366 217.73 289.314 217.73Z" fill="#2E2C3F"/>
<path d="M276.81 217.505C277.758 217.505 278.527 216.737 278.527 215.789C278.527 214.841 277.758 214.072 276.81 214.072C275.862 214.072 275.094 214.841 275.094 215.789C275.094 216.737 275.862 217.505 276.81 217.505Z" fill="#2E2C3F"/>
<path d="M264.307 217.282C265.255 217.282 266.024 216.514 266.024 215.566C266.024 214.618 265.255 213.849 264.307 213.849C263.359 213.849 262.591 214.618 262.591 215.566C262.591 216.514 263.359 217.282 264.307 217.282Z" fill="#2E2C3F"/>
<path d="M251.805 217.057C252.753 217.057 253.522 216.289 253.522 215.341C253.522 214.393 252.753 213.625 251.805 213.625C250.857 213.625 250.089 214.393 250.089 215.341C250.089 216.289 250.857 217.057 251.805 217.057Z" fill="#2E2C3F"/>
<path d="M239.301 216.833C240.249 216.833 241.018 216.064 241.018 215.116C241.018 214.168 240.249 213.4 239.301 213.4C238.353 213.4 237.585 214.168 237.585 215.116C237.585 216.064 238.353 216.833 239.301 216.833Z" fill="#2E2C3F"/>
<path d="M289.328 215.879C291.363 215.879 293.013 213.46 293.013 210.476C293.013 207.492 291.363 205.074 289.328 205.074" stroke="#2E2C3F" stroke-width="0.944431" stroke-miterlimit="10"/>
<path d="M276.707 215.501C278.748 215.501 280.403 213.075 280.403 210.083C280.403 207.09 278.748 204.665 276.707 204.665" stroke="#2E2C3F" stroke-width="0.944431" stroke-miterlimit="10"/>
<path d="M264.214 215.501C266.27 215.501 267.938 213.057 267.938 210.042C267.938 207.027 266.271 204.583 264.214 204.583" stroke="#2E2C3F" stroke-width="0.944431" stroke-miterlimit="10"/>
<path d="M251.907 215.501C254.04 215.501 255.77 212.966 255.77 209.839C255.77 206.711 254.04 204.176 251.907 204.176" stroke="#2E2C3F" stroke-width="0.944431" stroke-miterlimit="10"/>
<path d="M239.308 215.502C241.41 215.502 243.114 213.003 243.114 209.921C243.114 206.839 241.41 204.34 239.308 204.34" stroke="#2E2C3F" stroke-width="0.944431" stroke-miterlimit="10"/>
<path d="M131.044 55.6704C123.884 55.6704 118.079 61.4748 118.079 68.6355C118.079 71.2963 118.883 73.7679 119.994 75.7383L117.397 81.3453L123.645 79.274C125.744 80.7366 128.291 81.6006 131.044 81.6006C138.204 81.6006 144.009 75.7962 144.009 68.6355C144.009 61.4755 138.205 55.6704 131.044 55.6704Z" fill="#1D85EE"/>
<path d="M124.993 68.4031L126.212 72.7559L138.515 66.1978" stroke="white" stroke-width="2.39093" stroke-miterlimit="10" stroke-linecap="round" stroke-linejoin="round"/>
<path d="M171.018 142.008C179.598 144.075 188.451 138.482 190.55 129.006C192.761 119.021 186.558 109.283 177 107.817C167.871 106.416 159.711 113.263 158.468 122.626C157.283 131.548 162.789 140.025 171.018 142.008Z" fill="#1D85EE"/>
<path d="M165.115 140.372C169.835 144.786 176.479 146.436 182.64 144.579C185.76 143.639 188.638 141.831 190.951 139.32C194.582 135.379 196.535 130.112 196.342 124.509C196.144 118.783 193.735 113.539 189.587 109.864C184.105 105.007 176.56 103.928 170.114 106.888H170.113L170.713 108.699L170.113 106.888C167.068 108.286 164.429 110.526 162.462 113.34C159.556 117.498 158.305 122.559 158.852 127.625C159.388 132.593 161.603 137.088 165.115 140.372ZM164.455 115.158C166.224 112.677 168.508 110.841 171.048 109.705C176.379 107.324 182.769 108.049 187.597 112.345C194.874 118.821 195.298 130.279 188.858 137.411C186.828 139.659 184.373 141.18 181.779 141.988C176.645 143.589 170.907 142.405 166.659 138.447C160.389 132.603 159.307 122.38 164.455 115.158Z" fill="#2E2C3F"/>
<path d="M171.237 140.75C179.149 142.631 187.268 137.441 189.163 128.727C191.151 119.586 185.475 110.681 176.739 109.308C168.363 107.991 160.83 114.242 159.658 122.86C158.536 131.102 163.625 138.94 171.237 140.75Z" fill="#1D85EE"/>
<path d="M167.311 106.215C164.267 107.613 161.628 109.854 159.661 112.668C156.755 116.826 155.503 121.886 156.05 126.952C156.586 131.92 158.801 136.415 162.313 139.699C167.032 144.113 173.676 145.763 179.837 143.906C182.958 142.966 185.836 141.157 188.149 138.646C191.779 134.706 193.733 129.438 193.539 123.836C193.342 118.109 190.933 112.865 186.785 109.191C181.303 104.334 173.758 103.255 167.312 106.214L167.311 106.215ZM161.654 114.484C163.422 112.004 165.706 110.168 168.246 109.032C173.577 106.65 179.967 107.376 184.795 111.672C192.073 118.147 192.496 129.606 186.056 136.738C184.026 138.985 181.571 140.506 178.978 141.315C173.843 142.915 168.105 141.732 163.858 137.773C157.587 131.929 156.505 121.707 161.654 114.484Z" fill="white"/>
<path d="M169.743 113.501C169.952 113.412 170.059 113.153 169.984 112.923L169.12 110.313C169.044 110.081 168.812 109.969 168.603 110.062C168.395 110.154 168.288 110.416 168.364 110.646L169.228 113.248C169.303 113.477 169.534 113.59 169.743 113.501Z" fill="#2E2C3F"/>
<path d="M185.819 121.399L188.424 120.422C188.657 120.334 188.785 120.072 188.712 119.835C188.638 119.598 188.39 119.478 188.158 119.566L185.553 120.552C185.325 120.638 185.201 120.897 185.274 121.13C185.348 121.364 185.592 121.484 185.819 121.399Z" fill="#2E2C3F"/>
<path d="M178.645 140.36C178.854 140.294 178.966 140.066 178.895 139.851L178.086 137.404C178.014 137.188 177.786 137.067 177.577 137.136C177.369 137.205 177.258 137.436 177.329 137.651L178.139 140.09C178.21 140.305 178.436 140.426 178.645 140.36Z" fill="#2E2C3F"/>
<path d="M160.698 130.824L162.856 130.014C163.048 129.942 163.145 129.711 163.071 129.498C162.998 129.285 162.782 129.171 162.59 129.244L160.432 130.061C160.243 130.132 160.15 130.361 160.223 130.571C160.296 130.782 160.509 130.895 160.698 130.824Z" fill="#2E2C3F"/>
<path d="M173.854 125.816L173.857 125.815L181.559 122.86C181.81 122.764 181.945 122.474 181.859 122.212C181.774 121.951 181.502 121.819 181.252 121.913C181.252 121.913 181.25 121.914 181.248 121.915L173.547 124.899C173.31 124.991 173.188 125.27 173.273 125.523C173.359 125.774 173.618 125.905 173.854 125.816Z" fill="#2E2C3F"/>
<path d="M173.921 125.906C173.966 125.889 174.008 125.86 174.042 125.819C174.149 125.691 174.139 125.494 174.018 125.379L166.696 118.423C166.578 118.309 166.397 118.323 166.295 118.457C166.193 118.588 166.206 118.787 166.325 118.9L173.629 125.844C173.711 125.923 173.824 125.942 173.921 125.906Z" fill="#2E2C3F"/>
<path d="M173.529 126.55C174.079 126.661 174.612 126.275 174.716 125.686C174.821 125.095 174.455 124.527 173.9 124.418C173.347 124.31 172.818 124.7 172.717 125.289C172.616 125.876 172.979 126.439 173.529 126.55Z" fill="#2E2C3F"/>
<path d="M0.932617 280H337.069" stroke="#2E2C3F" stroke-width="0.716477" stroke-miterlimit="10"/>
</svg>
