<svg width="498" height="280" viewBox="0 0 498 280" fill="none" xmlns="http://www.w3.org/2000/svg">
<path d="M371.263 246.985C391.193 248.52 412.146 246.335 429.21 236.141C446.275 225.947 458.455 206.438 455.389 187.16C453.094 172.723 443.031 160.569 439.131 146.466C431.789 119.917 446.916 89.5624 434.291 64.9859C425.001 46.9016 403.22 38.1569 382.586 36.1366C361.952 34.1168 341.083 37.279 320.41 35.6774C291.742 33.456 264.684 22.2081 236.467 16.8122C208.25 11.4163 175.797 13.1299 155.141 32.6951C145.321 41.9967 139.158 54.4517 129.498 63.9113C110.693 82.326 82.1155 86.549 58.6347 98.8205C44.57 106.171 31.3577 118.022 29.2645 133.452C27.9205 143.36 31.3527 153.236 35.0263 162.558C43.2726 183.483 53.0073 203.845 64.137 223.453C67.7726 229.857 71.697 236.343 77.5981 240.863C87.2488 248.255 100.464 249.158 112.732 248.66C163.363 246.606 213.235 226.057 263.353 233.27C277.466 235.301 291.196 239.511 305.366 241.134C331.371 244.112 358.069 238.293 383.749 243.272C379.198 243.051 375.24 244.806 371.263 246.985Z" fill="#E3EDFE"/>
<path d="M420.319 45.1262L418.333 41.0557C417.695 39.7478 416.118 39.2046 414.81 39.843L413.038 40.7072C411.955 41.2361 410.667 40.9356 409.887 40.0153C408.131 37.9427 406.105 36.1687 403.887 34.7214C402.89 34.0712 402.487 32.8087 402.874 31.6831L403.506 29.8463C403.98 28.47 403.248 26.971 401.872 26.4969L397.589 25.0235C396.213 24.55 394.713 25.2817 394.24 26.6581L393.607 28.4949C393.22 29.6198 392.125 30.3671 390.94 30.2663C388.3 30.043 385.612 30.1942 382.952 30.7473C381.771 30.9925 380.571 30.4374 380.043 29.3535L379.179 27.5821C378.54 26.2742 376.963 25.731 375.655 26.3694L371.584 28.3555C370.277 28.9939 369.733 30.5712 370.372 31.8791L371.236 33.6506C371.765 34.7339 371.464 36.0219 370.545 36.8009C368.472 38.5574 366.698 40.5834 365.25 42.8016C364.6 43.7978 363.338 44.2016 362.212 43.814L360.375 43.1818C358.999 42.7083 357.499 43.44 357.026 44.8164L355.552 49.0991C355.079 50.4755 355.81 51.975 357.187 52.4486L359.024 53.0807C360.149 53.4678 360.896 54.5629 360.796 55.7482C360.572 58.3877 360.724 61.0763 361.277 63.7357C361.522 64.916 360.967 66.1163 359.883 66.6446L358.111 67.5088C356.804 68.1472 356.26 69.7245 356.899 71.0325L358.885 75.103C359.523 76.4109 361.101 76.9542 362.409 76.3158L364.181 75.4515C365.264 74.9226 366.552 75.2231 367.331 76.1428C369.087 78.2154 371.113 79.9894 373.332 81.4366C374.328 82.0869 374.732 83.3493 374.344 84.475L373.712 86.3117C373.238 87.6881 373.97 89.1877 375.346 89.6612L379.629 91.1346C381.006 91.6081 382.504 90.8764 382.979 89.5L383.611 87.6632C383.998 86.5382 385.093 85.791 386.278 85.8911C388.917 86.1145 391.606 85.9633 394.266 85.4102C395.446 85.165 396.646 85.72 397.175 86.8039L398.039 88.5754C398.677 89.8833 400.255 90.4259 401.563 89.7881L405.634 87.802C406.942 87.1636 407.485 85.5862 406.846 84.2783L405.982 82.5069C405.453 81.4236 405.754 80.1356 406.674 79.3559C408.747 77.5994 410.521 75.5734 411.968 73.3552C412.618 72.359 413.881 71.9552 415.006 72.3429L416.843 72.975C418.219 73.4486 419.719 72.7168 420.192 71.3405L421.666 67.0577C422.139 65.6814 421.408 64.1818 420.031 63.7083L418.195 63.0761C417.07 62.6891 416.322 61.594 416.423 60.4086C416.646 57.7692 416.495 55.0806 415.942 52.4206C415.697 51.2402 416.252 50.0399 417.336 49.5117L419.107 48.6474C420.415 48.0115 420.958 46.4342 420.319 45.1262ZM396.389 71.2023C388.268 75.9903 377.858 72.4082 374.402 63.6367C371.683 56.7363 374.439 48.7264 380.828 44.9595C388.949 40.1715 399.36 43.7536 402.816 52.5251C405.534 59.4255 402.778 67.436 396.389 71.2023Z" fill="#C9DBFA"/>
<path d="M448.694 102.853L447.599 100.609C447.247 99.8881 446.377 99.5888 445.656 99.9409L444.68 100.418C444.083 100.709 443.373 100.543 442.943 100.036C441.975 98.8937 440.858 97.9156 439.636 97.1179C439.086 96.7595 438.864 96.0633 439.078 95.4435L439.426 94.4312C439.687 93.6727 439.284 92.8457 438.525 92.585L436.164 91.7724C435.406 91.5111 434.58 91.9149 434.318 92.6734L433.97 93.6857C433.756 94.3061 433.153 94.718 432.499 94.6626C431.045 94.5394 429.563 94.6228 428.097 94.9277C427.446 95.0627 426.784 94.7566 426.493 94.1599L426.017 93.1836C425.664 92.4625 424.795 92.1632 424.074 92.5153L421.83 93.6105C421.109 93.9626 420.81 94.8319 421.162 95.553L421.639 96.5293C421.93 97.1266 421.764 97.8366 421.257 98.2659C420.115 99.2341 419.137 100.351 418.339 101.574C417.98 102.123 417.284 102.345 416.664 102.132L415.652 101.783C414.894 101.522 414.067 101.926 413.806 102.684L412.993 105.045C412.733 105.804 413.136 106.63 413.894 106.891L414.907 107.24C415.527 107.453 415.939 108.057 415.884 108.71C415.76 110.165 415.844 111.647 416.149 113.113C416.284 113.764 415.978 114.425 415.381 114.716L414.404 115.193C413.683 115.544 413.384 116.414 413.736 117.135L414.831 119.379C415.182 120.1 416.052 120.4 416.773 120.047L417.75 119.571C418.347 119.28 419.057 119.445 419.486 119.952C420.454 121.095 421.571 122.072 422.794 122.87C423.343 123.229 423.566 123.925 423.352 124.545L423.004 125.557C422.743 126.316 423.146 127.143 423.905 127.403L426.265 128.215C427.024 128.477 427.85 128.073 428.111 127.314L428.46 126.302C428.673 125.682 429.277 125.27 429.93 125.325C431.385 125.448 432.867 125.365 434.333 125.06C434.984 124.925 435.645 125.231 435.937 125.828L436.413 126.804C436.765 127.525 437.635 127.825 438.356 127.472L440.599 126.377C441.321 126.026 441.62 125.156 441.268 124.435L440.791 123.458C440.5 122.861 440.665 122.151 441.173 121.722C442.315 120.754 443.292 119.637 444.091 118.414C444.449 117.865 445.145 117.643 445.766 117.856L446.778 118.204C447.537 118.466 448.363 118.062 448.624 117.303L449.437 114.943C449.698 114.184 449.294 113.358 448.536 113.097L447.524 112.748C446.903 112.535 446.491 111.931 446.547 111.278C446.67 109.823 446.587 108.341 446.282 106.875C446.147 106.224 446.453 105.563 447.049 105.272L448.026 104.795C448.747 104.443 449.046 103.574 448.694 102.853ZM435.503 117.227C431.027 119.866 425.288 117.891 423.384 113.057C421.886 109.253 423.404 104.838 426.926 102.761C431.403 100.122 437.141 102.097 439.046 106.932C440.544 110.735 439.025 115.151 435.503 117.227Z" fill="#C9DBFA"/>
<path d="M179.796 191.118L178.701 188.875C178.35 188.153 177.48 187.854 176.758 188.206L175.782 188.683C175.185 188.974 174.475 188.809 174.046 188.302C173.077 187.159 171.961 186.181 170.738 185.383C170.188 185.025 169.966 184.329 170.18 183.709L170.528 182.697C170.789 181.938 170.386 181.112 169.627 180.85L167.266 180.038C166.508 179.777 165.682 180.18 165.42 180.939L165.072 181.951C164.858 182.571 164.255 182.983 163.602 182.928C162.147 182.805 160.665 182.888 159.199 183.193C158.548 183.328 157.886 183.022 157.595 182.425L157.119 181.449C156.767 180.728 155.897 180.429 155.176 180.781L152.932 181.876C152.211 182.227 151.912 183.097 152.264 183.818L152.741 184.795C153.032 185.392 152.866 186.102 152.359 186.531C151.217 187.499 150.239 188.616 149.441 189.839C149.083 190.388 148.386 190.611 147.766 190.397L146.754 190.049C145.995 189.787 145.168 190.191 144.908 190.95L144.095 193.31C143.834 194.069 144.237 194.896 144.996 195.157L146.008 195.505C146.629 195.718 147.041 196.322 146.985 196.975C146.862 198.43 146.945 199.912 147.25 201.378C147.385 202.029 147.079 202.69 146.482 202.982L145.506 203.458C144.784 203.81 144.485 204.68 144.837 205.401L145.932 207.645C146.284 208.366 147.154 208.665 147.875 208.313L148.851 207.836C149.449 207.545 150.158 207.711 150.588 208.218C151.556 209.36 152.673 210.338 153.896 211.136C154.445 211.494 154.667 212.19 154.454 212.81L154.105 213.823C153.845 214.581 154.248 215.407 155.006 215.669L157.367 216.481C158.125 216.742 158.952 216.339 159.213 215.58L159.562 214.568C159.775 213.948 160.378 213.536 161.032 213.591C162.487 213.714 163.969 213.631 165.435 213.326C166.086 213.191 166.747 213.497 167.038 214.094L167.515 215.071C167.866 215.792 168.736 216.091 169.457 215.739L171.701 214.644C172.422 214.292 172.721 213.423 172.369 212.701L171.893 211.725C171.601 211.128 171.767 210.418 172.274 209.988C173.417 209.02 174.395 207.903 175.192 206.681C175.551 206.131 176.247 205.909 176.867 206.123L177.88 206.471C178.638 206.732 179.465 206.329 179.726 205.57L180.538 203.209C180.799 202.451 180.396 201.624 179.637 201.363L178.625 201.015C178.005 200.801 177.593 200.198 177.648 199.544C177.771 198.09 177.688 196.608 177.383 195.142C177.248 194.491 177.554 193.829 178.151 193.538L179.128 193.062C179.849 192.709 180.148 191.839 179.796 191.118ZM166.606 205.492C162.129 208.131 156.391 206.157 154.486 201.322C152.988 197.519 154.507 193.103 158.028 191.027C162.505 188.387 168.243 190.362 170.149 195.198C171.647 199.001 170.127 203.416 166.606 205.492Z" fill="#C9DBFA"/>
<path d="M113.904 125.319L111.804 121.015C111.128 119.631 109.46 119.058 108.078 119.732L106.205 120.646C105.059 121.205 103.698 120.888 102.873 119.915C101.016 117.724 98.8738 115.848 96.5286 114.318C95.4752 113.63 95.0484 112.295 95.4578 111.105L96.126 109.163C96.6269 107.708 95.8529 106.123 94.3981 105.622L89.8696 104.064C88.4142 103.563 86.8288 104.337 86.3285 105.792L85.6603 107.734C85.2509 108.924 84.0935 109.713 82.8397 109.607C80.0491 109.371 77.2061 109.532 74.3943 110.116C73.1461 110.375 71.8774 109.788 71.3187 108.642L70.4046 106.769C69.7295 105.386 68.0613 104.813 66.6788 105.487L62.3749 107.588C60.9917 108.263 60.418 109.931 61.0931 111.314L62.0071 113.186C62.5659 114.332 62.2485 115.693 61.276 116.518C59.0845 118.375 57.2092 120.517 55.6785 122.863C54.9909 123.916 53.6557 124.343 52.466 123.933L50.524 123.265C49.0686 122.764 47.4838 123.538 46.9829 124.993L45.4249 129.522C44.924 130.977 45.6981 132.562 47.1528 133.063L49.0948 133.731C50.2845 134.14 51.0741 135.298 50.9683 136.552C50.7318 139.342 50.8924 142.185 51.4766 144.997C51.7361 146.245 51.1487 147.514 50.0032 148.073L48.1303 148.987C46.7471 149.662 46.1734 151.33 46.8485 152.713L48.9485 157.016C49.6237 158.4 51.2918 158.973 52.6744 158.299L54.5473 157.385C55.6928 156.826 57.0542 157.143 57.8787 158.116C59.736 160.307 61.8783 162.183 64.2235 163.713C65.2769 164.401 65.7037 165.736 65.2943 166.926L64.6261 168.868C64.1252 170.323 64.8992 171.909 66.354 172.409L70.8825 173.967C72.3372 174.468 73.9227 173.694 74.4236 172.239L75.0918 170.297C75.5012 169.107 76.6586 168.318 77.9124 168.424C80.703 168.66 83.546 168.5 86.3578 167.915C87.606 167.656 88.8747 168.243 89.4334 169.389L90.3475 171.262C91.0226 172.645 92.6908 173.218 94.0733 172.543L98.3772 170.443C99.7604 169.768 100.334 168.1 99.6597 166.717L98.7456 164.845C98.1869 163.699 98.5042 162.338 99.4767 161.513C101.668 159.656 103.544 157.514 105.074 155.168C105.762 154.115 107.097 153.688 108.287 154.098L110.229 154.766C111.683 155.267 113.269 154.493 113.77 153.038L115.328 148.509C115.829 147.054 115.055 145.469 113.6 144.968L111.658 144.3C110.468 143.891 109.679 142.733 109.784 141.48C110.021 138.689 109.86 135.846 109.276 133.034C109.017 131.786 109.604 130.517 110.75 129.958L112.622 129.044C114.004 128.37 114.579 126.702 113.904 125.319ZM88.6015 152.89C80.0142 157.952 69.0077 154.165 65.354 144.891C62.4794 137.595 65.3939 129.125 72.1487 125.142C80.736 120.08 91.7431 123.868 95.3968 133.142C98.2709 140.438 95.357 148.908 88.6015 152.89Z" fill="#C9DBFA"/>
<path d="M249.001 262.707C367.552 262.707 463.657 253.932 463.657 243.106C463.657 232.281 367.552 223.506 249.001 223.506C130.45 223.506 34.3447 232.281 34.3447 243.106C34.3447 253.932 130.45 262.707 249.001 262.707Z" fill="#C9DBFA"/>
<path d="M254.008 167.652H243.995V245.472H254.008V167.652Z" fill="#8DAEF3"/>
<path d="M334.226 169.835H163.777C156.882 169.835 151.293 164.245 151.293 157.351V62.1898C151.293 55.295 156.882 49.7056 163.777 49.7056H334.226C341.121 49.7056 346.711 55.295 346.711 62.1898V157.351C346.711 164.245 341.121 169.835 334.226 169.835Z" fill="#C9DBFA"/>
<path d="M163.776 166.725C158.608 166.725 154.403 162.52 154.403 157.351V62.1905C154.403 57.0217 158.608 52.8174 163.776 52.8174H334.226C339.394 52.8174 343.599 57.0224 343.599 62.1905V157.351C343.599 162.52 339.394 166.725 334.226 166.725H163.776Z" fill="white"/>
<path d="M271.548 49.7056H226.455V54.0711H271.548V49.7056Z" fill="#8DAEF3"/>
<path d="M271.548 165.469H226.455V169.835H271.548V165.469Z" fill="#8DAEF3"/>
<path d="M297.819 245.471H200.185C200.185 240.688 204.062 236.81 208.846 236.81H289.158C293.941 236.81 297.819 240.688 297.819 245.471Z" fill="#8DAEF3"/>
<path d="M196.36 119.963H170.132C170.132 112.722 173.067 106.163 177.814 101.417L196.36 119.963Z" fill="#586DF0"/>
<path d="M200.316 95.6431V121.872L181.77 103.325C186.516 98.5787 193.075 95.6431 200.316 95.6431Z" fill="#C7DAFA"/>
<path d="M224.046 110.69L200.317 121.872V95.6431C210.802 95.6431 219.85 101.796 224.046 110.69Z" fill="#8CAFF3"/>
<path d="M226.544 121.872C226.544 136.355 214.803 148.1 200.315 148.1V121.872L224.044 110.69C225.649 114.084 226.544 117.875 226.544 121.872Z" fill="#586DF0"/>
<path d="M200.317 121.873V148.101C185.83 148.101 174.089 136.355 174.089 121.873H200.317Z" fill="#8CAFF3"/>
<path d="M327.871 64.1733H171.618V82.3553H327.871V64.1733Z" fill="#E3EDFE"/>
<path d="M327.871 137.186H235.588V155.367H327.871V137.186Z" fill="#E3EDFE"/>
<path d="M278.312 90.7979H235.588V129.338H278.312V90.7979Z" fill="#8CAFF3"/>
<path d="M327.872 90.7979H285.147V129.338H327.872V90.7979Z" fill="#586DF0"/>
<path d="M120.846 120.194C123.955 120.194 126.475 117.674 126.475 114.565C126.475 111.457 123.955 108.937 120.846 108.937C117.738 108.937 115.218 111.457 115.218 114.565C115.218 117.674 117.738 120.194 120.846 120.194Z" fill="#FDD2D0"/>
<path d="M152.05 109.994C152.05 111.808 150.58 113.278 148.767 113.278C146.954 113.278 145.483 111.808 145.483 109.994C145.483 108.181 146.954 106.711 148.767 106.711C150.581 106.712 152.05 108.181 152.05 109.994Z" fill="#FDD2D0"/>
<path d="M120.847 108.936L148.768 106.712V113.278L120.847 120.194V108.936Z" fill="#FDD2D0"/>
<path d="M120.844 120.193C123.953 120.193 126.473 117.673 126.473 114.565C126.473 111.456 123.953 108.936 120.844 108.936C117.736 108.936 115.216 111.456 115.216 114.565C115.216 117.673 117.736 120.193 120.844 120.193Z" fill="#FDD2D0"/>
<path d="M131.841 89.087C132.345 85.5216 129.863 82.2226 126.298 81.7185C122.732 81.2144 119.433 83.6961 118.929 87.2615C118.425 90.8269 120.907 94.1259 124.472 94.63C128.038 95.1341 131.337 92.6524 131.841 89.087Z" fill="#FDD2D0"/>
<path d="M118.858 88.1787L115.214 114.565H126.472L131.898 88.1787H118.858Z" fill="#FDD2D0"/>
<path d="M136.42 107.683L127.003 108.315C127.003 108.315 124.73 108.315 123.107 110.19" stroke="#FFC42A" stroke-width="0.622222" stroke-miterlimit="10" stroke-linecap="round"/>
<path d="M132.433 88.0556C132.433 88.9702 132.246 89.8413 131.904 90.6316L129.626 101.688L117.412 102.373L119.391 88.0556C119.391 84.4529 122.309 81.5347 125.912 81.5347C129.514 81.5347 132.433 84.4529 132.433 88.0556Z" fill="#FFD800"/>
<path d="M116.924 100.699L116.473 103.48L130.266 102.373L130.717 99.5918L116.924 100.699Z" fill="#FFEB00"/>
<path d="M121.448 236.582C121.448 236.582 115.538 235.618 110.946 237.13C110.946 237.13 112.026 238.033 116.197 238.033C120.368 238.033 121.448 236.582 121.448 236.582Z" fill="#683B1C"/>
<path d="M111.069 240.243L110.834 224.852H122.153L121.324 240.67L111.069 240.243Z" fill="#FDD2D0"/>
<path d="M138.147 248.555H119.627C118.469 248.555 117.629 247.154 115.854 247.154C115.265 247.154 114.995 248.555 114.995 248.555H109.793C109.793 248.172 109.821 247.649 109.858 247.051C110.101 243.539 110.951 237.133 110.951 237.133C110.951 237.133 111.474 237.562 115.359 237.562C119.235 237.562 121.448 236.582 121.448 236.582C121.448 236.582 121.653 237.086 123.39 238.664C126.118 241.148 130.469 241.821 134.084 242.363C136.493 242.727 137.492 245.332 137.885 247.051C138.1 247.92 138.147 248.555 138.147 248.555Z" fill="#FFD800"/>
<path d="M137.541 245.854C137.541 245.854 132.195 245.854 129.381 245.854C126.335 245.854 126.042 247.426 126.042 247.426" stroke="#A9693C" stroke-width="0.0933955" stroke-miterlimit="10"/>
<path d="M110.461 241.067C110.461 241.067 113.947 242.629 113.646 247.427" stroke="#A9693C" stroke-width="0.0933955" stroke-miterlimit="10"/>
<path d="M121.448 237.468C121.448 237.468 124.482 241.154 127.851 242.041C127.851 242.041 128.137 243.688 127.971 245.072C127.971 245.072 122.922 244.919 120.353 245.167C118.486 245.347 117.888 247.426 117.888 247.426" stroke="#A9693C" stroke-width="0.0933955" stroke-miterlimit="10"/>
<path d="M122.154 237.322C122.154 237.322 123.064 238.021 122.827 239.432" stroke="#3F220E" stroke-width="0.280187" stroke-miterlimit="10" stroke-linecap="round"/>
<path d="M123.233 238.377C123.233 238.377 122.568 237.446 121.448 238.089" stroke="#3F220E" stroke-width="0.280187" stroke-miterlimit="10" stroke-linecap="round"/>
<path d="M123.939 238.958C123.939 238.958 124.849 239.657 124.612 241.067" stroke="#3F220E" stroke-width="0.280187" stroke-miterlimit="10" stroke-linecap="round"/>
<path d="M125.152 239.804C125.152 239.804 123.948 238.789 122.828 239.432" stroke="#3F220E" stroke-width="0.280187" stroke-miterlimit="10" stroke-linecap="round"/>
<path d="M125.786 240.115C125.786 240.115 126.777 240.38 126.54 241.79" stroke="#3F220E" stroke-width="0.280187" stroke-miterlimit="10" stroke-linecap="round"/>
<path d="M126.967 240.67C126.967 240.67 125.731 240.424 124.611 241.067" stroke="#3F220E" stroke-width="0.280187" stroke-miterlimit="10" stroke-linecap="round"/>
<path d="M126.852 241.921C126.852 241.921 127.1 241.222 127.493 240.952" stroke="#3F220E" stroke-width="0.280187" stroke-miterlimit="10" stroke-linecap="round"/>
<path d="M138.193 247.051V248.555H118.463C118.463 248.555 117.414 247.433 116.232 247.433C115.34 247.433 115.041 248.555 115.041 248.555H109.746V247.051H138.193Z" fill="#FFC42A"/>
<path d="M110.834 238.033C110.834 238.033 113.796 238.969 117.617 238.377" stroke="#A9693C" stroke-width="0.0933955" stroke-miterlimit="10"/>
<path d="M81.6295 232.563C81.6295 232.563 76.9311 228.85 72.1836 227.941C72.1836 227.941 72.6895 229.254 76.3351 231.28C79.9807 233.306 81.6295 232.563 81.6295 232.563Z" fill="#683B1C"/>
<path d="M70.7783 230.722L78.049 217.153L87.9436 222.652L79.5355 236.076L70.7783 230.722Z" fill="#FDD2D0"/>
<path d="M90.409 251.139L74.2206 242.144C73.2083 241.581 73.1542 239.948 71.603 239.087C71.0884 238.801 70.1712 239.894 70.1712 239.894L65.624 237.367C65.8101 237.032 66.0888 236.588 66.4118 236.084C68.3294 233.133 72.1847 227.946 72.1847 227.946C72.1847 227.946 72.433 228.575 75.8291 230.463C79.2171 232.346 81.6282 232.563 81.6282 232.563C81.6282 232.563 81.5629 233.104 82.3145 235.327C83.4918 238.823 86.9694 241.525 89.8652 243.754C91.7947 245.242 91.4021 248.006 90.9105 249.698C90.6766 250.562 90.409 251.139 90.409 251.139Z" fill="#FFD800"/>
<path d="M91.1918 248.484C91.1918 248.484 86.5195 245.887 84.0599 244.521C81.3974 243.041 80.377 244.273 80.377 244.273" stroke="#A9693C" stroke-width="0.0933955" stroke-miterlimit="10"/>
<path d="M69.8459 231.146C69.8459 231.146 72.1344 234.204 69.541 238.253" stroke="#A9693C" stroke-width="0.0933955" stroke-miterlimit="10"/>
<path d="M81.1983 233.337C81.1983 233.337 82.06 238.033 84.5744 240.445C84.5744 240.445 84.0244 242.024 83.2074 243.153C83.2074 243.153 78.868 240.566 76.5017 239.536C74.7819 238.787 73.25 240.313 73.25 240.313" stroke="#A9693C" stroke-width="0.0933955" stroke-miterlimit="10"/>
<path d="M81.886 233.553C81.886 233.553 82.3415 234.606 81.4492 235.724" stroke="#3F220E" stroke-width="0.280187" stroke-miterlimit="10" stroke-linecap="round"/>
<path d="M82.317 234.999C82.317 234.999 82.187 233.862 80.8965 233.88" stroke="#3F220E" stroke-width="0.280187" stroke-miterlimit="10" stroke-linecap="round"/>
<path d="M82.6536 235.849C82.6536 235.849 83.1091 236.903 82.2168 238.02" stroke="#3F220E" stroke-width="0.280187" stroke-miterlimit="10" stroke-linecap="round"/>
<path d="M83.2997 237.178C83.2997 237.178 82.7397 235.705 81.4492 235.724" stroke="#3F220E" stroke-width="0.280187" stroke-miterlimit="10" stroke-linecap="round"/>
<path d="M83.7041 237.757C83.7041 237.757 84.4421 238.47 83.5498 239.587" stroke="#3F220E" stroke-width="0.280187" stroke-miterlimit="10" stroke-linecap="round"/>
<path d="M84.4686 238.817C84.4686 238.817 83.5079 238.002 82.2168 238.02" stroke="#3F220E" stroke-width="0.280187" stroke-miterlimit="10" stroke-linecap="round"/>
<path d="M83.7588 239.854C83.7588 239.854 84.3157 239.363 84.7904 239.319" stroke="#3F220E" stroke-width="0.280187" stroke-miterlimit="10" stroke-linecap="round"/>
<path d="M91.181 249.847L90.4505 251.162L73.2043 241.578C73.2043 241.578 72.8323 240.088 71.7981 239.514C71.0185 239.081 70.2127 239.916 70.2127 239.916L65.584 237.344L66.3145 236.03L91.181 249.847Z" fill="#FFC42A"/>
<path d="M71.6465 228.675C71.6465 228.675 73.7807 230.933 77.4083 232.271" stroke="#A9693C" stroke-width="0.0933955" stroke-miterlimit="10"/>
<path d="M91.5684 127.661L126.464 126.309L125.562 81.6587L93.3908 83.3126L91.5684 127.661Z" fill="#FFD800"/>
<path d="M106.654 187.123L125.03 187.759L128.107 142.695H104.751L106.654 187.123Z" fill="#005EB9"/>
<path d="M128.131 142.931C128.262 136.476 123.135 131.136 116.68 131.005C110.224 130.874 104.884 136.001 104.753 142.457C104.622 148.913 109.749 154.252 116.205 154.383C122.661 154.514 128 149.387 128.131 142.931Z" fill="#005EB9"/>
<path d="M122.271 193.265C118.597 196.8 112.753 196.687 109.218 193.013C107.623 191.354 106.771 189.254 106.654 187.124C106.511 184.534 107.455 181.9 109.471 179.961C113.145 176.427 118.989 176.539 122.523 180.214C126.058 183.887 125.945 189.73 122.271 193.265Z" fill="#005EB9"/>
<path d="M108.472 229.184L122.232 228.742L125.1 186.733L106.641 186.612L108.472 229.184Z" fill="#005EB9"/>
<path d="M120.391 194.662C124.836 192.165 126.416 186.538 123.919 182.093C121.423 177.648 115.796 176.069 111.351 178.565C106.906 181.062 105.327 186.689 107.823 191.134C110.319 195.579 115.947 197.158 120.391 194.662Z" fill="#005EB9"/>
<path d="M127.91 140.714L126.464 126.308L91.568 127.66L90.878 140.688C90.8145 141.888 91.5207 142.997 92.6358 143.447L106.393 148.997C109.244 150.147 112.445 150.057 115.227 148.75L126.306 143.542C127.386 143.035 128.028 141.901 127.91 140.714Z" fill="#005EB9"/>
<path d="M116.789 83.4662C116.289 86.6364 113.313 88.8011 110.143 88.3009C106.973 87.8006 104.808 84.8251 105.308 81.6549C105.808 78.4847 108.784 76.3206 111.954 76.8203C115.125 77.3205 117.289 80.296 116.789 83.4662Z" fill="#F6CACA"/>
<path d="M105.31 81.6547L106.562 73.7139L117.671 75.3908L116.79 83.466L105.31 81.6547Z" fill="#F6CACA"/>
<path d="M104.38 69.7062C104.38 69.7062 100.922 68.9919 101.298 72.7881C101.674 76.5843 106.1 75.4979 106.1 75.4979L104.38 69.7062Z" fill="#FDD2D0"/>
<path d="M103.744 71.2098C103.142 71.1271 102.622 71.3442 102.422 71.7418C102.361 71.8632 102.316 71.9907 102.287 72.1208C102.219 72.4169 102.231 72.7287 102.315 73.0224C102.397 73.3123 102.553 73.5917 102.802 73.7896C103.051 73.9874 103.4 74.0932 103.723 74.0254" stroke="#FC9EAA" stroke-width="0.311111" stroke-miterlimit="10" stroke-linecap="round"/>
<path d="M103.852 72.8117C104.071 72.3693 103.116 71.6258 102.283 72.393" stroke="#FC9EAA" stroke-width="0.311111" stroke-miterlimit="10" stroke-linecap="round"/>
<path opacity="0.4" d="M116.968 81.8379L117.09 80.7422C117.09 80.7422 111.258 83.8564 107.157 78.2471C107.157 78.7498 109.823 84.7729 116.968 81.8379Z" fill="#DCA7A7"/>
<path d="M105.179 74.4018C105.179 74.4018 107.509 80.6409 110.967 81.6178C114.425 82.5946 118.86 81.3925 118.86 77.1826V68.1118C118.86 65.7635 117.557 63.5746 115.438 62.5616C113.64 61.7017 111.099 61.2736 107.735 62.4496C99.9927 65.1562 105.179 74.4018 105.179 74.4018Z" fill="#FDD2D0"/>
<path d="M115.176 69.4779C115.621 69.033 116.645 68.9559 117.168 69.4779" stroke="#474DBD" stroke-width="0.311111" stroke-miterlimit="10" stroke-linecap="round"/>
<path d="M110.609 69.4779C111.054 69.033 112.079 68.9559 112.601 69.4779" stroke="#474DBD" stroke-width="0.311111" stroke-miterlimit="10" stroke-linecap="round"/>
<path d="M115.542 77.7285C115.542 77.7285 113.923 78.7676 112.601 77.4995" stroke="#FC9EAA" stroke-width="0.311111" stroke-miterlimit="10" stroke-linecap="round"/>
<path d="M111.49 93.4209L111.05 124.09" stroke="#FFC42A" stroke-width="0.622222" stroke-miterlimit="10" stroke-linecap="round"/>
<path d="M111.932 74.4949C111.932 75.226 111.34 75.8183 110.609 75.8183C109.878 75.8183 109.285 75.226 109.285 74.4949C109.285 73.7637 109.878 73.1714 110.609 73.1714C111.34 73.1714 111.932 73.7637 111.932 74.4949Z" fill="#FFC6C6"/>
<path d="M118.718 74.4949C118.718 75.226 118.126 75.8183 117.395 75.8183C116.664 75.8183 116.071 75.226 116.071 74.4949C116.071 73.7637 116.664 73.1714 117.395 73.1714C118.126 73.1714 118.718 73.7637 118.718 74.4949Z" fill="#FFC6C6"/>
<path d="M101.298 72.3443C101.298 72.3443 101.116 71.1484 101.685 70.6313C103.641 68.8524 105.211 70.5374 105.443 73.8774C105.443 73.8774 105.805 74.2128 105.819 73.6758C105.835 73.0486 105.52 71.4122 105.763 69.4267C105.947 67.9327 105.428 66.7331 105.432 66.7642C105.432 66.7642 113.854 68.6371 117.898 65.3766C119.321 66.4525 118.719 70.5436 118.861 71.9927C119.922 70.1366 122.576 67.1033 120.653 65.2914C122.569 63.6786 125.284 56.7047 121.779 53.6036C119.437 51.531 116.908 51.5702 111.623 56.7701C108.808 59.5408 106.486 55.291 104.279 60.4281C102.286 58.5602 98.8715 61.3328 99.1864 65.213C99.5952 70.2381 101.298 72.3443 101.298 72.3443Z" fill="#443D72"/>
<path d="M105.751 62.8235C105.454 62.1459 105.677 61.2785 106.265 60.828C106.83 60.395 107.604 60.3663 108.311 60.4398C109.019 60.5132 109.736 60.6706 110.436 60.5418C111.348 60.3738 112.107 59.741 112.712 59.0385C113.318 58.336 113.817 57.5421 114.471 56.885C115.558 55.7942 117.06 55.1278 118.598 55.0557" stroke="#B2B2B2" stroke-width="0.0955733" stroke-miterlimit="10" stroke-linecap="round" stroke-linejoin="round"/>
<path d="M106.697 64.793C106.489 64.3438 106.75 63.7801 107.173 63.5237C107.596 63.2667 108.128 63.2605 108.614 63.352C109.101 63.4434 109.567 63.6226 110.053 63.7147C111.174 63.9269 112.347 63.6587 113.366 63.1454C114.384 62.6321 115.266 61.886 116.094 61.1014C116.57 60.6503 117.04 60.1774 117.618 59.8694C118.197 59.5608 118.916 59.4382 119.508 59.7207" stroke="#B2B2B2" stroke-width="0.0955733" stroke-miterlimit="10" stroke-linecap="round" stroke-linejoin="round"/>
<path d="M105.21 64.9228C104.713 64.331 103.806 64.1282 103.105 64.4518C102.403 64.7753 101.968 65.596 102.094 66.3582C102.176 66.8517 102.459 67.2854 102.736 67.7022C103.043 68.1646 103.35 68.6262 103.657 69.0886" stroke="#B2B2B2" stroke-width="0.0955733" stroke-miterlimit="10" stroke-linecap="round" stroke-linejoin="round"/>
<path d="M104.288 62.8578C103.633 62.6369 102.899 62.6606 102.258 62.9219C101.988 63.032 101.73 63.1876 101.546 63.4134C101.363 63.6399 101.261 63.9442 101.324 64.2286" stroke="#B2B2B2" stroke-width="0.0955733" stroke-miterlimit="10" stroke-linecap="round" stroke-linejoin="round"/>
<path d="M103.546 60.8676C103.822 60.1564 104.103 59.4371 104.536 58.8093C104.97 58.1814 105.577 57.6426 106.314 57.4422C106.994 57.2574 107.712 57.3719 108.416 57.3937C109.12 57.4149 109.891 57.311 110.379 56.8032" stroke="#443D72" stroke-width="0.311111" stroke-miterlimit="10" stroke-linecap="round"/>
<path d="M104.198 60.9912C104.107 60.3615 103.739 59.7773 103.21 59.4232C102.682 59.0692 102.001 58.9516 101.385 59.1078" stroke="#443D72" stroke-width="0.311111" stroke-miterlimit="10" stroke-linecap="round"/>
<path d="M118.936 64.701C120.253 64.3937 121.466 63.6514 122.338 62.6166C123.211 61.5818 123.738 60.2615 123.817 58.9106" stroke="#443D72" stroke-width="0.311111" stroke-miterlimit="10" stroke-linecap="round"/>
<path d="M115.121 71.6713C115.417 73.0396 116.765 73.9088 118.133 73.6132C119.502 73.3177 120.371 71.9693 120.075 70.6017C119.78 69.2334 118.431 68.3642 117.063 68.6597C115.695 68.9547 114.826 70.303 115.121 71.6713Z" stroke="white" stroke-width="0.311111" stroke-miterlimit="10" stroke-linecap="round"/>
<path d="M108.512 71.9485C108.794 73.2558 110.082 74.0865 111.39 73.804C112.697 73.5215 113.528 72.2335 113.245 70.9262C112.963 69.6189 111.675 68.7883 110.367 69.0708C109.061 69.3533 108.23 70.6419 108.512 71.9485Z" stroke="white" stroke-width="0.311111" stroke-miterlimit="10" stroke-linecap="round"/>
<path d="M115.056 71.3698C115.056 71.3698 114.43 70.7258 113.302 71.4905" stroke="white" stroke-width="0.311111" stroke-miterlimit="10" stroke-linecap="round"/>
<path d="M111.013 187.373L92.6262 187.509L90.7764 142.378L114.124 143.013L111.013 187.373Z" fill="#005EB9"/>
<path d="M108.173 152.888C113.8 149.72 115.793 142.591 112.626 136.964C109.458 131.337 102.328 129.344 96.7017 132.512C91.075 135.68 89.0817 142.809 92.2495 148.436C95.4174 154.062 102.547 156.056 108.173 152.888Z" fill="#005EB9"/>
<path d="M95.2348 193.088C98.8114 196.721 104.656 196.767 108.289 193.19C109.929 191.576 110.838 189.5 111.013 187.373C111.226 184.788 110.354 182.129 108.392 180.136C104.815 176.503 98.9707 176.457 95.3375 180.033C91.7037 183.61 91.6583 189.455 95.2348 193.088Z" fill="#005EB9"/>
<path d="M86.4965 227.017L74.8809 219.628L93.8082 182.015L109.756 191.313L86.4965 227.017Z" fill="#005EB9"/>
<path d="M110.214 190.449C112.334 185.813 110.295 180.336 105.659 178.215C101.023 176.094 95.5457 178.133 93.4249 182.769C91.3042 187.405 93.3432 192.883 97.9793 195.004C102.615 197.124 108.093 195.085 110.214 190.449Z" fill="#005EB9"/>
<path d="M87.9714 121.847C91.08 121.847 93.6 119.327 93.6 116.218C93.6 113.109 91.08 110.589 87.9714 110.589C84.8628 110.589 82.3428 113.109 82.3428 116.218C82.3428 119.327 84.8628 121.847 87.9714 121.847Z" fill="#FDD2D0"/>
<path d="M119.176 111.648C119.176 113.461 117.706 114.932 115.893 114.932C114.08 114.932 112.609 113.462 112.609 111.648C112.609 109.835 114.08 108.365 115.893 108.365C117.706 108.365 119.176 109.835 119.176 111.648Z" fill="#FDD2D0"/>
<path d="M87.9727 110.589L115.894 108.365V114.932L87.9727 121.847V110.589Z" fill="#FDD2D0"/>
<path d="M87.9704 121.847C91.079 121.847 93.599 119.327 93.599 116.218C93.599 113.109 91.079 110.589 87.9704 110.589C84.8618 110.589 82.3418 113.109 82.3418 116.218C82.3418 119.327 84.8618 121.847 87.9704 121.847Z" fill="#FDD2D0"/>
<path d="M94.9797 95.8684C98.31 94.4994 99.9 90.6899 98.531 87.3596C97.162 84.0293 93.3525 82.4394 90.0222 83.8083C86.6919 85.1773 85.102 88.9868 86.471 92.3171C87.8399 95.6474 91.6495 97.2374 94.9797 95.8684Z" fill="#FDD2D0"/>
<path d="M85.9852 89.8325L82.3408 116.218H93.5987L99.0251 89.8325H85.9852Z" fill="#FDD2D0"/>
<path d="M111.041 159.461L110.241 189.738" stroke="#07A7DC" stroke-width="0.622222" stroke-miterlimit="10" stroke-linecap="round"/>
<path d="M107.885 226.693L122.957 226.068L122.829 228.722L108.052 229.369L107.885 226.693Z" fill="#07A7DC"/>
<path d="M75.4413 217.379L88.353 225.182L86.7794 227.324L74.1035 219.702L75.4413 217.379Z" fill="#07A7DC"/>
<path d="M91.3302 127.67L126.672 126.275L127.113 129.541L91.2002 130.52L91.3302 127.67Z" fill="#07A7DC"/>
<path d="M95.2975 132.706C95.2975 132.706 96.1245 141.801 91.8398 144.357" stroke="#07A7DC" stroke-width="0.622222" stroke-miterlimit="10" stroke-linecap="round"/>
<path d="M124.084 131.871C124.084 131.871 124.012 140.018 125.888 143.245" stroke="#07A7DC" stroke-width="0.622222" stroke-miterlimit="10" stroke-linecap="round"/>
<path d="M116.226 94.9031C118.637 95.4314 121.181 95.3393 123.547 94.6387" stroke="#FFC42A" stroke-width="0.622222" stroke-miterlimit="10" stroke-linecap="round"/>
<path d="M113.912 98.3819C113.912 98.7416 113.62 99.0334 113.261 99.0334C112.901 99.0334 112.609 98.7416 112.609 98.3819C112.609 98.0223 112.901 97.7305 113.261 97.7305C113.621 97.7305 113.912 98.0223 113.912 98.3819Z" fill="#FFC42A"/>
<path d="M113.261 102.675C113.621 102.675 113.912 102.383 113.912 102.023C113.912 101.663 113.621 101.372 113.261 101.372C112.901 101.372 112.609 101.663 112.609 102.023C112.609 102.383 112.901 102.675 113.261 102.675Z" fill="#FFC42A"/>
<path d="M113.261 106.316C113.621 106.316 113.912 106.024 113.912 105.664C113.912 105.304 113.621 105.013 113.261 105.013C112.901 105.013 112.609 105.304 112.609 105.664C112.609 106.024 112.901 106.316 113.261 106.316Z" fill="#FFC42A"/>
<path d="M112.611 137.559C112.611 137.559 113.665 150.187 112.611 151.49C111.556 152.792 111.04 153.249 111.04 153.249" stroke="#07A7DC" stroke-width="0.622222" stroke-miterlimit="10" stroke-linecap="round"/>
<path d="M99.0771 89.8353C99.0771 90.75 98.8904 91.6211 98.5482 92.4113L96.2709 103.468L84.0566 104.153L86.0353 89.8353C86.0353 86.2327 88.9535 83.3145 92.5562 83.3145C96.1589 83.3145 99.0771 86.2327 99.0771 89.8353Z" fill="#FFD800"/>
<path d="M83.5683 102.479L83.1172 105.26L96.9106 104.152L97.3617 101.372L83.5683 102.479Z" fill="#FFEB00"/>
<path d="M97.0439 99.7161L97.9655 95.2417" stroke="#FFC42A" stroke-width="0.622222" stroke-miterlimit="10" stroke-linecap="round"/>
<path d="M126.002 98.6348L125.865 94.0684" stroke="#FFC42A" stroke-width="0.622222" stroke-miterlimit="10" stroke-linecap="round"/>
<path d="M99.662 109.676L90.2453 110.309C90.2453 110.309 87.9717 110.309 86.3496 112.183" stroke="#FFC42A" stroke-width="0.622222" stroke-miterlimit="10" stroke-linecap="round"/>
<path d="M154.499 105.457C154.907 105.431 155.111 106.946 155.159 109.373C155.203 111.59 155.117 113.426 154.707 113.488L154.513 113.52C154.504 113.521 154.496 113.522 154.487 113.523V113.524C154.487 113.524 153.964 113.603 153.693 113.644C150.119 114.184 146.881 113.42 146.528 110.09C146.181 106.825 149.214 105.658 152.822 105.435C153.083 105.419 153.339 105.415 153.59 105.418C153.611 105.415 153.631 105.412 153.652 105.411L154.499 105.457Z" fill="#FDD2D0"/>
<path d="M153.119 105.287C152.638 105.336 152.287 105.753 152.333 106.219C152.38 106.686 152.911 107.109 153.392 107.061L161.527 106.132C162.008 106.083 162.36 105.666 162.313 105.199C162.266 104.732 161.838 104.393 161.357 104.442L153.119 105.287Z" fill="#FDD2D0"/>
<path d="M149.51 105.174C149.095 105.587 147.143 107.153 147.553 107.717L147.503 107.977C148.083 108.536 151.681 107.745 151.846 107.099L152.323 104.954C152.738 104.541 153.325 104.136 152.892 103.751C152.459 103.367 151.855 103.444 151.357 103.767C150.55 104.292 149.51 105.174 149.51 105.174Z" fill="#FDD2D0"/>
<path d="M151.239 103.836C150.926 104.503 151.292 105.578 151.967 105.735L152.074 105.864C152.749 106.021 152.687 105.914 153.042 105.269C153.613 104.233 153.525 102.393 153.525 102.393C153.513 101.457 152.948 100.491 152.528 100.404C152.113 100.296 151.581 100.469 151.458 100.748C151.458 100.748 152.066 102.072 151.239 103.836Z" fill="#FDD2D0"/>
<path d="M152.183 106.131C152.183 106.131 151.946 109.987 148.852 110.565" stroke="#FFC42A" stroke-width="0.622222" stroke-miterlimit="10" stroke-linecap="round"/>
<path d="M157.071 108.978L153.667 109.357C153.063 109.424 152.518 108.988 152.451 108.384C152.384 107.78 152.82 107.236 153.424 107.168L156.827 106.79C157.431 106.723 157.976 107.158 158.043 107.763C158.111 108.367 157.675 108.911 157.071 108.978Z" fill="#FDD2D0"/>
<path d="M157.071 111.134L153.667 111.512C153.063 111.579 152.518 111.144 152.451 110.539C152.384 109.935 152.82 109.391 153.424 109.324L156.827 108.945C157.431 108.878 157.976 109.314 158.043 109.918C158.111 110.522 157.675 111.066 157.071 111.134Z" fill="#FDD2D0"/>
<path d="M156.809 113.243L153.405 113.621C152.801 113.688 152.257 113.253 152.189 112.648C152.122 112.044 152.558 111.5 153.162 111.433L156.566 111.054C157.17 110.987 157.714 111.423 157.781 112.027C157.849 112.631 157.414 113.175 156.809 113.243Z" fill="#FDD2D0"/>
<path d="M122.491 109.995C122.9 109.96 123.013 110.63 122.919 111.721C122.833 112.717 122.641 113.55 122.229 113.601L122.035 113.628C122.026 113.629 122.017 113.629 122.008 113.631C122.008 113.631 121.484 113.697 121.212 113.731C117.629 114.183 114.456 114.028 114.299 112.549C114.144 111.098 117.227 110.395 120.824 110.085C121.084 110.062 121.339 110.045 121.589 110.032C121.61 110.029 121.631 110.027 121.651 110.025L122.491 109.995Z" fill="#FDD2D0"/>
<path d="M116.529 109.139C116.116 109.554 114.173 111.13 114.587 111.692L114.538 111.952C115.121 112.508 118.715 111.697 118.876 111.05L119.341 108.903C119.755 108.487 120.338 108.079 119.904 107.696C119.469 107.314 118.865 107.395 118.369 107.721C117.564 108.25 116.529 109.139 116.529 109.139Z" fill="#FDD2D0"/>
<path d="M119.582 107.32C118.847 107.364 118.077 108.198 118.262 108.866L118.199 109.022C118.383 109.691 118.449 109.585 119.185 109.588C120.367 109.595 121.942 108.638 121.942 108.638C122.758 108.18 123.337 107.223 123.212 106.813C123.109 106.396 122.703 106.011 122.399 106.037C122.4 106.036 121.527 107.204 119.582 107.32Z" fill="#FDD2D0"/>
<path d="M122.307 112.142L118.99 111.294C118.4 111.144 118.045 110.544 118.196 109.955C118.346 109.365 118.946 109.01 119.535 109.161L122.853 110.009C123.442 110.159 123.798 110.759 123.647 111.348C123.496 111.938 122.897 112.293 122.307 112.142Z" fill="#FDD2D0"/>
<path d="M127.24 112.4L123.824 112.64C123.218 112.683 122.691 112.226 122.648 111.619C122.605 111.013 123.063 110.486 123.669 110.443L127.085 110.202C127.691 110.16 128.218 110.617 128.261 111.224C128.304 111.83 127.847 112.357 127.24 112.4Z" fill="#FDD2D0"/>
<path d="M124.892 112.188L121.476 112.429C120.869 112.472 120.343 112.015 120.3 111.408C120.257 110.801 120.714 110.275 121.321 110.232L124.737 109.991C125.343 109.948 125.87 110.405 125.913 111.012C125.955 111.619 125.498 112.146 124.892 112.188Z" fill="#FDD2D0"/>
<path d="M120.63 111.962C120.149 112.011 119.797 112.428 119.844 112.894C119.891 113.361 120.422 113.784 120.903 113.736L129.038 112.806C129.519 112.757 129.871 112.34 129.824 111.873C129.777 111.407 129.349 111.067 128.868 111.116L120.63 111.962Z" fill="#FDD2D0"/>
<path d="M121.604 111.481C122.369 111.777 124.338 111.637 125.346 111.417" stroke="#FFC42A" stroke-width="0.622222" stroke-miterlimit="10" stroke-linecap="round"/>
<path d="M118.203 110.61C118.697 110.357 119.162 110.082 119.489 109.852" stroke="#FFC42A" stroke-width="0.622222" stroke-miterlimit="10" stroke-linecap="round"/>
<path d="M443.213 212.464V142.292L356.926 142.292V212.464H443.213Z" stroke="white" stroke-width="1.24444" stroke-miterlimit="10"/>
<path d="M439.479 146.026H360.658V208.731H439.479V146.026Z" fill="white"/>
<path d="M389.422 155.308H371.275V170.156H389.422V155.308Z" fill="#8DAEF3"/>
<path d="M431.214 156.499H393.82V159.249H431.214V156.499Z" fill="#8DAEF3"/>
<path d="M418.314 164.291H393.82V167.04H418.314V164.291Z" fill="#8DAEF3"/>
<path d="M431.216 181.061H371.275V183.811H431.216V181.061Z" fill="#8DAEF3"/>
<path d="M417.466 196.884H371.275V199.634H417.466V196.884Z" fill="#8DAEF3"/>
<path d="M410.538 188.853H371.275V191.602H410.538V188.853Z" fill="#8DAEF3"/>
<path d="M94.2598 53.1544H64.4647C60.358 53.1544 56.998 49.7944 56.998 45.6877V43.3905C56.998 39.2838 60.358 35.9238 64.4647 35.9238H94.2598C98.3665 35.9238 101.726 39.2838 101.726 43.3905V45.6877C101.726 49.7944 98.3665 53.1544 94.2598 53.1544Z" fill="#A9C3F6"/>
<path d="M86.4668 47.3804L92.0406 61.9534L75.1934 49.5805L86.4668 47.3804Z" fill="#A9C3F6"/>
<path d="M360.999 118.403C360.999 119.677 359.966 120.709 358.693 120.709C357.419 120.709 356.387 119.677 356.387 118.403C356.387 117.129 357.419 116.097 358.693 116.097C359.966 116.097 360.999 117.129 360.999 118.403Z" fill="#C9DBFA"/>
<path d="M369.911 120.709C371.185 120.709 372.217 119.677 372.217 118.403C372.217 117.13 371.185 116.097 369.911 116.097C368.638 116.097 367.605 117.13 367.605 118.403C367.605 119.677 368.638 120.709 369.911 120.709Z" fill="#8DAEF3"/>
<path d="M381.132 120.709C382.406 120.709 383.438 119.677 383.438 118.403C383.438 117.13 382.406 116.097 381.132 116.097C379.859 116.097 378.826 117.13 378.826 118.403C378.826 119.677 379.859 120.709 381.132 120.709Z" fill="#5A6CF0"/>
<path d="M394.659 118.403C394.659 119.677 393.627 120.709 392.353 120.709C391.079 120.709 390.047 119.677 390.047 118.403C390.047 117.129 391.079 116.097 392.353 116.097C393.626 116.097 394.659 117.129 394.659 118.403Z" fill="#3C53C6"/>
<path d="M264.898 30.1837C266.171 30.1837 267.204 29.1513 267.204 27.8777C267.204 26.6042 266.171 25.5718 264.898 25.5718C263.624 25.5718 262.592 26.6042 262.592 27.8777C262.592 29.1513 263.624 30.1837 264.898 30.1837Z" fill="#C9DBFA"/>
<path d="M278.423 27.8777C278.423 29.1514 277.391 30.1837 276.117 30.1837C274.844 30.1837 273.812 29.1514 273.812 27.8777C273.812 26.604 274.844 25.5718 276.117 25.5718C277.391 25.5718 278.423 26.604 278.423 27.8777Z" fill="#8DAEF3"/>
<path d="M287.337 30.1837C288.611 30.1837 289.643 29.1513 289.643 27.8777C289.643 26.6042 288.611 25.5718 287.337 25.5718C286.064 25.5718 285.031 26.6042 285.031 27.8777C285.031 29.1513 286.064 30.1837 287.337 30.1837Z" fill="#5A6CF0"/>
<path d="M298.558 30.1837C299.831 30.1837 300.864 29.1513 300.864 27.8777C300.864 26.6042 299.831 25.5718 298.558 25.5718C297.284 25.5718 296.252 26.6042 296.252 27.8777C296.252 29.1513 297.284 30.1837 298.558 30.1837Z" fill="#3C53C6"/>
<path d="M192.327 197.954C193.601 197.954 194.633 196.921 194.633 195.648C194.633 194.374 193.601 193.342 192.327 193.342C191.054 193.342 190.021 194.374 190.021 195.648C190.021 196.921 191.054 197.954 192.327 197.954Z" fill="#C9DBFA"/>
<path d="M203.547 197.954C204.821 197.954 205.853 196.921 205.853 195.648C205.853 194.374 204.821 193.342 203.547 193.342C202.274 193.342 201.241 194.374 201.241 195.648C201.241 196.921 202.274 197.954 203.547 197.954Z" fill="#8DAEF3"/>
<path d="M217.073 195.648C217.073 196.921 216.041 197.954 214.767 197.954C213.493 197.954 212.461 196.921 212.461 195.648C212.461 194.374 213.493 193.342 214.767 193.342C216.041 193.341 217.073 194.374 217.073 195.648Z" fill="#5A6CF0"/>
<path d="M225.986 197.954C227.259 197.954 228.292 196.921 228.292 195.648C228.292 194.374 227.259 193.342 225.986 193.342C224.712 193.342 223.68 194.374 223.68 195.648C223.68 196.921 224.712 197.954 225.986 197.954Z" fill="#3C53C6"/>
<path d="M140.843 39.3976C142.117 39.3976 143.149 38.3651 143.149 37.0916C143.149 35.8181 142.117 34.7856 140.843 34.7856C139.57 34.7856 138.537 35.8181 138.537 37.0916C138.537 38.3651 139.57 39.3976 140.843 39.3976Z" fill="#C9DBFA"/>
<path d="M152.063 39.3976C153.336 39.3976 154.369 38.3651 154.369 37.0916C154.369 35.8181 153.336 34.7856 152.063 34.7856C150.789 34.7856 149.757 35.8181 149.757 37.0916C149.757 38.3651 150.789 39.3976 152.063 39.3976Z" fill="#8DAEF3"/>
<path d="M165.589 37.0916C165.589 38.3653 164.557 39.3976 163.283 39.3976C162.01 39.3976 160.978 38.3653 160.978 37.0916C160.978 35.8179 162.01 34.7856 163.283 34.7856C164.557 34.7856 165.589 35.8179 165.589 37.0916Z" fill="#5A6CF0"/>
<path d="M174.503 39.3976C175.777 39.3976 176.809 38.3651 176.809 37.0916C176.809 35.8181 175.777 34.7856 174.503 34.7856C173.23 34.7856 172.197 35.8181 172.197 37.0916C172.197 38.3651 173.23 39.3976 174.503 39.3976Z" fill="#3C53C6"/>
<path d="M328.297 197.686C325.38 195.472 323.114 192.308 322.34 188.728C321.566 185.148 322.399 181.174 324.839 178.442C325.546 177.651 326.4 176.927 326.742 175.923C326.997 175.176 326.94 174.342 327.256 173.619C327.638 172.746 328.492 172.187 329.074 171.432C330.664 169.371 329.96 166.349 330.93 163.933C331.9 161.516 334.363 160.087 336.711 158.96C339.059 157.832 340.773 156.02 343.025 154.538C342.334 158.14 342.552 158.307 343.235 160.315C343.918 162.323 344.807 164.387 344.486 166.483C344.211 168.277 343.088 169.804 342.109 171.334C340.007 174.622 338.41 178.448 338.787 182.333C338.968 184.207 339.589 186.187 338.812 187.902C337.546 190.699 333.357 191.102 331.978 193.846C331.532 194.736 331.446 195.77 331.019 196.67C330.593 197.569 329.09 198.289 328.297 197.686Z" fill="#23B5A7"/>
<path d="M328.258 210.117C327.436 192.845 331.514 175.365 339.895 160.24" stroke="#149386" stroke-width="0.523289" stroke-miterlimit="10"/>
<path d="M320.848 182.025C320.56 180.54 320.216 178.95 319.107 177.921C317.97 176.867 316.179 176.562 315.356 175.249C314.517 173.912 314.988 171.952 313.9 170.808C313.067 169.932 311.695 169.933 310.489 169.996C308.568 170.096 306.647 170.197 304.727 170.297C303.065 170.384 301.047 170.285 300.24 168.831C300.735 171.725 301.418 174.928 303.827 176.606C305.041 177.453 306.645 177.864 307.431 179.118C308.048 180.1 307.989 181.34 308.123 182.493C308.544 186.131 311.084 189.19 314.522 190.385C316.89 191.208 319.982 191.356 321.028 188.581C321.803 186.525 321.249 184.098 320.848 182.025Z" fill="#23B5A7"/>
<path d="M326.445 212.336C324.553 205.321 322.649 197.297 319.672 190.669C316.696 184.041 312.573 177.796 306.891 173.27" stroke="#149386" stroke-width="0.704293" stroke-miterlimit="10"/>
<path d="M324.277 210.117C324.586 209.104 325.636 192.652 319.572 195.613" stroke="#149386" stroke-width="0.704293" stroke-miterlimit="10"/>
<path d="M316.187 192.474C317.12 193.008 317.866 193.942 318.926 194.12C320.134 194.324 321.35 193.461 322.547 193.727C323.829 194.012 324.513 195.575 324.204 196.852C323.895 198.129 322.859 199.109 321.737 199.792C320.616 200.474 319.369 200.937 318.258 201.637C316.511 202.737 315.177 204.369 313.875 205.972C312.964 207.095 312.623 207.474 312.112 208.828C311.6 210.18 311.648 209.913 310.919 212.77C309.518 210.626 308.828 208.933 307.637 205.819C306.309 202.348 308.087 198.206 309.163 194.853C310.024 192.17 313.743 191.074 316.187 192.474Z" fill="#29CBBE"/>
<path d="M319.572 194.138C319.572 194.138 312.205 195.376 312.205 201.082" stroke="#149386" stroke-width="0.704293" stroke-miterlimit="10"/>
<path d="M329.539 210.382C329.32 209.663 328.574 197.985 332.879 200.087" stroke="#149386" stroke-width="0.499956" stroke-miterlimit="10"/>
<path d="M335.282 197.859C334.62 198.238 334.09 198.901 333.338 199.027C332.481 199.171 331.617 198.559 330.768 198.748C329.857 198.95 329.373 200.059 329.591 200.966C329.81 201.872 330.545 202.568 331.342 203.053C332.138 203.538 333.023 203.866 333.812 204.362C335.052 205.143 335.999 206.302 336.923 207.44C337.57 208.237 337.812 208.506 338.175 209.466C338.538 210.426 338.504 210.236 339.022 212.264C340.016 210.742 340.506 209.54 341.352 207.33C342.294 204.866 341.032 201.926 340.268 199.545C339.657 197.643 337.018 196.865 335.282 197.859Z" fill="#29CBBE"/>
<path d="M332.879 199.04C332.879 199.04 338.108 199.919 338.108 203.969" stroke="#149386" stroke-width="0.499956" stroke-miterlimit="10"/>
<path d="M315.221 232.661H333.631V205.802H315.221V232.661Z" fill="#5A6CF0"/>
<path d="M326.125 219.231H330.646V205.802H326.125V219.231Z" fill="#3C53C6"/>
<path d="M334.901 245.471V225.471C334.901 224.123 333.808 223.03 332.46 223.03H316.392C315.044 223.03 313.951 224.123 313.951 225.471V245.471" stroke="#17268F" stroke-width="1.06058" stroke-miterlimit="10"/>
</svg>
