<svg width="393" height="342" viewBox="0 0 393 342" fill="none" xmlns="http://www.w3.org/2000/svg">
<path d="M382.937 118.41C382.218 115.248 381.468 112.034 380.718 108.734C372.161 71.0932 344.452 37.8955 308.264 24.0084C265.826 7.72273 214.201 19.0096 182.431 51.5192C169.496 64.7558 159.871 80.8623 147.582 94.7019C136.164 107.562 125.931 121.149 108.97 127.022C96.3456 131.395 82.868 132.786 70.1143 136.766C40.1682 146.112 15.3185 170.448 5.35052 200.192C-3.30036 226.007 -0.933128 254.736 8.66124 280.216C16.3677 300.681 28.5148 319.201 42.7146 335.731C43.9278 337.143 45.1697 338.386 46.4366 339.503H271.833C277.841 335.521 283.439 330.645 288.488 326.523C321.812 299.313 350.777 265.183 369.316 226.186C378.54 206.784 385.091 185.987 387.363 164.576C389.139 147.842 386.418 133.737 382.937 118.41Z" fill="#D3E4FF"/>
<path d="M0.597959 222.392C-1.40998 241.817 1.74932 261.86 8.66196 280.216C16.3685 300.681 28.5155 319.201 42.7153 335.731C43.9285 337.142 45.1704 338.386 46.4373 339.502H271.833C277.842 335.52 283.44 330.645 288.489 326.522C321.813 299.312 350.778 265.182 369.317 226.185C369.916 224.927 370.502 223.662 371.077 222.392H0.597959Z" fill="#ADCDFF"/>
<path d="M37.1074 340.024H287.63" stroke="#2D3847" stroke-width="0.8794" stroke-miterlimit="10" stroke-linecap="round"/>
<path d="M125.109 104.651C144.375 85.3856 144.375 54.1495 125.109 34.8837C105.843 15.6178 74.6068 15.6178 55.3409 34.8837C36.0751 54.1495 36.0751 85.3856 55.3409 104.651C74.6068 123.917 105.843 123.917 125.109 104.651Z" fill="#D3E4FF"/>
<path d="M252.702 160.865H235.27V222.555H252.702V160.865Z" fill="#76A6F5"/>
<path d="M278.666 222.554H209.307V222.215C209.307 219.756 211.3 217.762 213.76 217.762H274.213C276.672 217.762 278.666 219.756 278.666 222.215V222.554Z" fill="#98BBF5"/>
<path d="M291.185 158.169H196.787V212.99H291.185V158.169Z" fill="#98BBF5"/>
<path d="M288.091 160.865H199.881V210.295H288.091V160.865Z" fill="white"/>
<path d="M296.455 215.923H293.761C290.718 215.923 288.25 218.39 288.25 221.434V222.555H301.965V221.434C301.966 218.39 299.498 215.923 296.455 215.923Z" fill="#76A6F5"/>
<path d="M0.134766 222.554H371.528" stroke="#2D3847" stroke-width="0.8794" stroke-miterlimit="10"/>
<path d="M343.801 132.607H186.487C181.451 132.607 177.369 128.525 177.369 123.49V80.9448C177.369 75.9093 181.451 71.8271 186.487 71.8271H343.801C348.837 71.8271 352.919 75.9093 352.919 80.9448V123.49C352.919 128.525 348.837 132.607 343.801 132.607Z" fill="white"/>
<path d="M222.955 115.359C230.213 108.101 230.213 96.3342 222.955 89.0764C215.697 81.8187 203.93 81.8187 196.673 89.0764C189.415 96.3342 189.415 108.101 196.673 115.359C203.93 122.617 215.697 122.617 222.955 115.359Z" fill="#0085F9"/>
<path d="M244.276 80.4048L247.105 89.1121H256.261L248.854 94.4935L251.683 103.202L244.276 97.8194L236.869 103.202L239.698 94.4935L232.291 89.1121H241.446L244.276 80.4048Z" fill="#FFDF40"/>
<path d="M271.874 80.4048L274.703 89.1121H283.859L276.452 94.4935L279.281 103.202L271.874 97.8194L264.467 103.202L267.296 94.4935L259.889 89.1121H269.045L271.874 80.4048Z" fill="#FFDF40"/>
<path d="M299.473 80.4048L302.303 89.1121H311.458L304.051 94.4935L306.88 103.202L299.473 97.8194L292.066 103.202L294.896 94.4935L287.488 89.1121H296.644L299.473 80.4048Z" fill="#FFDF40"/>
<path d="M327.073 80.4048L329.902 89.1121H339.058L331.651 94.4935L334.48 103.202L327.073 97.8194L319.666 103.202L322.495 94.4935L315.088 89.1121H324.244L327.073 80.4048Z" fill="#D3E4FF"/>
<path d="M235.369 107.604H338.672" stroke="#0085F9" stroke-width="2.9783" stroke-miterlimit="10"/>
<path d="M235.369 114.542H338.672" stroke="#0085F9" stroke-width="2.9783" stroke-miterlimit="10"/>
<path d="M235.369 121.48C250.398 121.795 266.408 121.795 281.43 121.48" stroke="#0085F9" stroke-width="2.9783" stroke-miterlimit="10"/>
<path d="M192.148 128.685V142.253L206.914 127.488L192.148 128.685Z" fill="white"/>
<path d="M386.954 293.02H283.661C280.355 293.02 277.674 290.34 277.674 287.033V259.097C277.674 255.791 280.355 253.11 283.661 253.11H386.954C390.26 253.11 392.941 255.791 392.941 259.097V287.033C392.941 290.339 390.26 293.02 386.954 293.02Z" fill="white"/>
<path d="M311.024 275.009C312.099 268.355 307.577 262.09 300.924 261.015C294.271 259.94 288.006 264.463 286.931 271.116C285.856 277.77 290.378 284.035 297.031 285.11C303.684 286.185 309.949 281.662 311.024 275.009Z" fill="#0085F9"/>
<path d="M321.604 258.744L323.461 264.461H329.474L324.61 267.994L326.467 273.712L321.604 270.178L316.74 273.712L318.598 267.994L313.734 264.461H319.747L321.604 258.744Z" fill="#FFDF40"/>
<path d="M339.725 258.744L341.583 264.461H347.595L342.731 267.994L344.589 273.712L339.725 270.178L334.862 273.712L336.719 267.994L331.855 264.461H337.868L339.725 258.744Z" fill="#FFDF40"/>
<path d="M357.848 258.744L359.705 264.461H365.718L360.854 267.994L362.712 273.712L357.848 270.178L352.985 273.712L354.842 267.994L349.979 264.461H355.991L357.848 258.744Z" fill="#FFDF40"/>
<path d="M375.969 258.744L377.827 264.461H383.839L378.975 267.994L380.833 273.712L375.969 270.178L371.106 273.712L372.963 267.994L368.1 264.461H374.112L375.969 258.744Z" fill="#FFDF40"/>
<path d="M315.756 276.602H383.585" stroke="#0085F9" stroke-width="1.9555" stroke-miterlimit="10"/>
<path d="M315.756 281.158H383.585" stroke="#0085F9" stroke-width="1.9555" stroke-miterlimit="10"/>
<path d="M315.756 285.713C325.624 285.92 336.136 285.92 345.999 285.713" stroke="#0085F9" stroke-width="1.9555" stroke-miterlimit="10"/>
<path d="M287.377 255.075V245.38L297.072 255.075H287.377Z" fill="white"/>
<path d="M121.34 16.165H52.5762V107.849H121.34V16.165Z" fill="#76A6F5"/>
<path d="M117.598 23.6055H56.3184V103.64H117.598V23.6055Z" fill="white"/>
<path d="M105.094 11.9663H68.8203V29.424H105.094V11.9663Z" fill="#3B495E"/>
<path d="M70.809 37.8623H64.6992V43.9721H70.809V37.8623Z" fill="#D3E4FF"/>
<path d="M73.7188 39.0254H109.216" stroke="#D3E4FF" stroke-width="0.9162" stroke-miterlimit="10"/>
<path d="M73.7188 41.6445H109.216" stroke="#D3E4FF" stroke-width="0.9162" stroke-miterlimit="10"/>
<path d="M70.809 48.2783H64.6992V54.3881H70.809V48.2783Z" fill="#D3E4FF"/>
<path d="M73.7188 49.4424H109.216" stroke="#D3E4FF" stroke-width="0.9162" stroke-miterlimit="10"/>
<path d="M73.7188 52.061H109.216" stroke="#D3E4FF" stroke-width="0.9162" stroke-miterlimit="10"/>
<path d="M70.809 58.6943H64.6992V64.8042H70.809V58.6943Z" fill="#D3E4FF"/>
<path d="M73.7188 59.8584H109.216" stroke="#D3E4FF" stroke-width="0.9162" stroke-miterlimit="10"/>
<path d="M73.7188 62.4771H109.216" stroke="#D3E4FF" stroke-width="0.9162" stroke-miterlimit="10"/>
<path d="M70.809 69.1113H64.6992V75.2212H70.809V69.1113Z" fill="#D3E4FF"/>
<path d="M73.7188 70.2754H109.216" stroke="#D3E4FF" stroke-width="0.9162" stroke-miterlimit="10"/>
<path d="M73.7188 72.8936H109.216" stroke="#D3E4FF" stroke-width="0.9162" stroke-miterlimit="10"/>
<path d="M70.809 79.5273H64.6992V85.6372H70.809V79.5273Z" fill="#D3E4FF"/>
<path d="M73.7188 80.6914H109.216" stroke="#D3E4FF" stroke-width="0.9162" stroke-miterlimit="10"/>
<path d="M73.7188 83.3101H109.216" stroke="#D3E4FF" stroke-width="0.9162" stroke-miterlimit="10"/>
<path d="M70.809 89.9443H64.6992V96.0542H70.809V89.9443Z" fill="#D3E4FF"/>
<path d="M73.7188 91.1084H109.216" stroke="#D3E4FF" stroke-width="0.9162" stroke-miterlimit="10"/>
<path d="M73.7188 93.7266H109.216" stroke="#D3E4FF" stroke-width="0.9162" stroke-miterlimit="10"/>
<path d="M64.6543 40.4172C65.3379 41.4144 66.0207 42.4117 66.7043 43.408C67.4041 40.3195 69.3628 37.5365 72.0338 35.8359" stroke="#0085F9" stroke-width="2" stroke-miterlimit="10" stroke-linecap="round" stroke-linejoin="round"/>
<path d="M64.6543 50.8493C65.3379 51.8466 66.0207 52.8438 66.7043 53.8402C67.4041 50.7525 69.3628 47.9687 72.0338 46.2681" stroke="#0085F9" stroke-width="2" stroke-miterlimit="10" stroke-linecap="round" stroke-linejoin="round"/>
<path d="M64.6543 61.2805C65.3379 62.2777 66.0207 63.2741 66.7043 64.2713C67.4041 61.1828 69.3628 58.3998 72.0338 56.6992" stroke="#0085F9" stroke-width="2" stroke-miterlimit="10" stroke-linecap="round" stroke-linejoin="round"/>
<path d="M64.6543 71.7126C65.3379 72.7098 66.0207 73.7071 66.7043 74.7034C67.4041 71.6149 69.3628 68.832 72.0338 67.1313" stroke="#0085F9" stroke-width="2" stroke-miterlimit="10" stroke-linecap="round" stroke-linejoin="round"/>
<path d="M64.6543 82.1437C65.3379 83.141 66.0207 84.1382 66.7043 85.1346C67.4041 82.0461 69.3628 79.2631 72.0338 77.5625" stroke="#0085F9" stroke-width="2" stroke-miterlimit="10" stroke-linecap="round" stroke-linejoin="round"/>
<path d="M90.7396 220.782H70.6943C66.4115 220.782 62.9395 217.31 62.9395 213.027C62.9395 208.744 66.4115 205.272 70.6943 205.272H90.7396C95.0225 205.272 98.4945 208.744 98.4945 213.027C98.4936 217.311 95.0225 220.782 90.7396 220.782Z" fill="white"/>
<path d="M87.7889 221.691H66.8637C62.0791 221.691 58.2012 217.812 58.2012 213.028C58.2012 208.244 62.08 204.366 66.8637 204.366H87.7889C92.5735 204.366 96.4514 208.245 96.4514 213.028C96.4514 217.812 92.5735 221.691 87.7889 221.691Z" fill="#2D3847"/>
<path d="M62.0114 204.423C66.8274 198.751 80.5048 181.102 80.5048 181.102C81.8139 179.451 84.3648 179.607 85.4633 181.405L96.3228 199.172C96.6319 199.678 96.373 200.339 95.8023 200.499L69.2179 219.946C65.4153 221.209 61.2426 219.684 59.1532 216.264C56.6739 212.206 58.3701 208.712 62.0114 204.423Z" fill="#2D3847"/>
<path d="M118.218 322.877L116.535 336.792H151.321C147.757 333.318 143.231 330.995 138.331 330.124C135.759 329.667 130.69 328.467 130.69 328.467L127.958 321.95L118.218 322.877Z" fill="#2D3847"/>
<path d="M150.41 338.574H117.184C116.544 338.574 116.025 338.055 116.025 337.415V337.122C116.025 336.483 116.544 335.964 117.184 335.964H150.41C151.05 335.964 151.569 336.483 151.569 337.122V337.415C151.569 338.055 151.05 338.574 150.41 338.574Z" fill="#3B495E"/>
<path d="M140.344 264.224L133.092 328.431H116.414V247.4H126.009C134.947 247.399 141.763 255.398 140.344 264.224Z" fill="#2D3847"/>
<path d="M162.964 326.075L161.281 339.989H196.068C192.503 336.515 187.978 334.193 183.077 333.322C180.505 332.865 175.436 331.664 175.436 331.664L172.704 325.147L162.964 326.075Z" fill="#2D3847"/>
<path d="M195.156 341.771H161.93C161.29 341.771 160.771 341.252 160.771 340.613V340.32C160.771 339.68 161.29 339.161 161.93 339.161H195.156C195.796 339.161 196.315 339.68 196.315 340.32V340.613C196.315 341.252 195.796 341.771 195.156 341.771Z" fill="#3B495E"/>
<path d="M182.565 281.432L125.453 275.288L127.272 250.235L172.032 255.051C180.821 255.997 186.732 264.51 184.548 273.076L182.565 281.432Z" fill="#3B495E"/>
<path d="M184.76 272.354L176.196 331.501H160.83V255.53H170.425C179.364 255.53 186.18 263.528 184.76 272.354Z" fill="#3B495E"/>
<path d="M128.203 274.083H106.773C99.596 274.083 93.7773 268.264 93.7773 261.087V244.839H141.198V261.087C141.198 268.264 135.38 274.083 128.203 274.083Z" fill="#3B495E"/>
<path d="M141.198 244.838H93.7773V253.396H141.198V244.838Z" fill="#2D3847"/>
<path d="M93.0469 136.981V177.659L114.477 177.723V171.295L119.752 171.231C124.292 171.231 125.265 168.8 125.265 164.26V136.981H93.0469Z" fill="#F7C9B5"/>
<path d="M124.273 150.88L128.124 157.797C128.445 158.555 128.037 159.423 127.248 159.658L124.273 160.543V150.88Z" fill="#F7C9B5"/>
<path d="M125.265 136.981H93.0469V139.71H125.265V136.981Z" fill="#F7A37E"/>
<path d="M114.477 136.981H93.0469V177.659H114.477V136.981Z" fill="#F7A37E"/>
<path d="M132.976 121.966C132.465 123.075 131.315 123.789 130.123 124.055C128.93 124.321 127.688 124.199 126.48 124.026C118.176 122.827 106.059 116.539 98.3774 122.633C96.141 124.408 94.6688 127.185 94.4198 130.026C94.3678 130.619 94.6276 131.57 94.4672 132.103C94.2217 132.917 93.9028 132.776 92.9521 133.005C81.1276 135.867 88.2293 150.125 90.8429 157.331C91.5615 159.311 91.9047 161.482 91.678 163.588C91.4898 165.329 91.764 165.667 93.1098 165.628C93.6537 165.612 94.1975 165.591 94.7414 165.591H109.061C113.644 165.591 117.36 161.879 117.36 157.295C117.36 148.881 117.361 137.09 117.364 137.09C123.666 137.09 111.018 137.09 117.321 137.09C122.401 137.09 127.281 136.175 130.555 131.851C131.154 131.061 131.656 130.198 132.053 129.29C133.053 127.005 133.394 124.427 132.976 121.966Z" fill="#2D3847"/>
<path d="M114.108 137.13C118.264 137.498 122.431 137.777 126.603 137.871C129.577 137.938 132.272 137.869 134.757 136.095C135.984 135.219 134.805 133.167 133.563 134.054C130.712 136.09 126.962 135.546 123.659 135.407C120.469 135.273 117.288 135.048 114.108 134.766C112.592 134.632 112.601 136.996 114.108 137.13Z" fill="#2D3847"/>
<path d="M123.658 136.85C129.498 137.555 134.746 133.663 135.762 127.874C136.022 126.386 133.745 125.747 133.482 127.246C132.632 132.089 128.539 135.077 123.658 134.486C122.151 134.304 122.165 136.67 123.658 136.85Z" fill="#2D3847"/>
<path d="M96.8403 131.258C94.344 131.074 95.2947 125.132 95.6173 123.711C95.9542 122.23 93.6756 121.598 93.3378 123.083C92.5843 126.401 92.0243 133.266 96.8403 133.623C98.3581 133.735 98.351 131.37 96.8403 131.258Z" fill="#2D3847"/>
<path d="M90.3224 132.888C91.9782 132.928 93.4861 133.398 94.8893 134.274C96.1831 135.082 97.3712 133.038 96.0828 132.233C94.3364 131.143 92.3796 130.574 90.3224 130.524C88.801 130.488 88.8018 132.851 90.3224 132.888Z" fill="#2D3847"/>
<path d="M119.452 160.461C119.386 160.583 119.306 160.68 119.213 160.745C114.13 164.295 106.148 149.216 113.385 146.235C115.128 145.517 117.479 146.609 118.559 148.07C119.834 149.799 119.552 152.481 119.552 154.487C119.552 155.575 120.106 159.262 119.452 160.461Z" fill="#F7C9B5"/>
<path d="M113.597 151.017C113.5 150.603 113.599 150.145 113.861 149.808C114.122 149.471 114.541 149.261 114.967 149.253C115.645 149.241 116.255 149.717 116.596 150.302C117.296 151.501 117.804 152.804 117.971 154.189C117.203 153.885 116.224 154.393 116.03 155.195C115.836 155.996 116.473 156.896 117.294 156.978" stroke="#F7A37E" stroke-width="1.7589" stroke-miterlimit="10" stroke-linecap="round" stroke-linejoin="round"/>
<path d="M122.451 147.912C123.249 147.912 124.047 147.912 124.845 147.912C125.942 147.912 126.992 146.948 126.941 145.816C126.89 144.681 126.02 143.721 124.845 143.721C124.047 143.721 123.249 143.721 122.451 143.721C121.354 143.721 120.304 144.685 120.355 145.816C120.406 146.952 121.276 147.912 122.451 147.912Z" fill="#2D3847"/>
<path d="M124.542 149.309C124.348 148.912 124.111 148.661 123.843 148.661H123.803C123.55 148.661 123.284 148.908 123.104 149.309C122.933 149.692 122.804 150.322 122.815 150.873C122.827 151.446 122.91 152.039 123.104 152.438C123.298 152.835 123.535 153.086 123.803 153.086H123.843C124.096 153.086 124.362 152.839 124.542 152.438C124.713 152.054 124.842 151.424 124.831 150.873C124.819 150.301 124.735 149.708 124.542 149.309Z" fill="#2D3847"/>
<path d="M125.267 161.896C124.486 161.908 123.535 161.794 122.718 161.495C122.718 161.495 122.421 164.997 125.267 164.941C125.259 164.949 125.267 161.896 125.267 161.896Z" fill="#2D3847"/>
<path d="M123.247 173.144H90.0273V179.33H123.247V173.144Z" fill="white"/>
<path d="M144.122 250.66H90.9111L93.8266 232.47C93.8266 232.47 81.5828 197.235 79.2102 190.567C78.9056 189.711 78.6923 188.819 78.6654 187.91C78.497 182.241 82.3811 177.867 86.5995 177.867H123.606C128.074 177.867 133.363 178.407 133.363 189.487L138.138 232.47L144.122 250.66Z" fill="#3B495E"/>
<path d="M133.543 195.679H121.047L138.139 232.47L133.543 195.679Z" fill="#2D3847"/>
<path d="M169.635 158.83L181.622 165.653L191.814 156.361L189.03 169.869L201.016 176.692L187.308 178.217L184.524 191.726L178.837 179.161L165.129 180.687L175.322 171.395L169.635 158.83Z" fill="white"/>
<path d="M173.527 192.281C174.503 189.624 176.48 187.352 179.055 185.928C181.63 184.504 184.786 183.939 187.881 184.346" stroke="#F7C9B5" stroke-width="4.3971" stroke-miterlimit="10" stroke-linecap="round"/>
<path d="M174.414 188.038C177.666 183.762 182.397 179.986 187.91 178.844" stroke="#F7C9B5" stroke-width="4.3971" stroke-miterlimit="10" stroke-linecap="round"/>
<path d="M177.438 185.146C177.412 180.148 180.905 175.784 185.018 172.83" stroke="#F7C9B5" stroke-width="4.3971" stroke-miterlimit="10" stroke-linecap="round"/>
<path d="M174.229 186.131C174.189 182.63 176.72 176.218 178.733 171.787" stroke="#F7C9B5" stroke-width="4.3971" stroke-miterlimit="10" stroke-linecap="round"/>
<path d="M176.74 179.683L182.958 183.178C184.199 183.875 184.497 185.619 183.624 187.074L178.142 196.425C177.325 197.818 175.544 198.304 174.133 197.517L168.072 194.136C166.832 193.439 166.534 191.695 167.407 190.24L172.914 181.056C173.787 179.6 175.499 178.986 176.74 179.683Z" fill="#F7C9B5"/>
<path d="M180.421 196.358L170.777 213.93C168.716 217.685 164.002 219.058 160.248 216.997C156.493 214.937 155.12 210.223 157.181 206.469L166.825 188.896C168.886 185.142 173.6 183.768 177.354 185.829C181.108 187.89 182.482 192.604 180.421 196.358Z" fill="white"/>
<path d="M180.014 199.501L169.947 217.845C167.645 222.039 162.378 223.573 158.184 221.271C153.99 218.97 152.456 213.703 154.758 209.509L164.825 191.165C167.127 186.971 172.394 185.437 176.588 187.739C180.783 190.04 182.317 195.307 180.014 199.501Z" fill="#3B495E"/>
<path d="M157.772 221.314L115.49 200.74L125.889 178.459C126.178 177.941 128.831 178.5 129.251 178.918L167.751 207.411C170.72 210.102 171.44 214.486 169.489 217.986C167.172 222.14 161.926 223.63 157.772 221.314Z" fill="#3B495E"/>
<path d="M121.386 278.882H113.426V334.022H121.386V278.882Z" fill="white"/>
<path d="M121.386 278.882H113.426V304.032H121.386V278.882Z" fill="#CADEFF"/>
<path d="M124.953 278.882H109.855V298.92H124.953V278.882Z" fill="#5E6B82"/>
<path d="M124.953 278.882H109.855V291.129H124.953V278.882Z" fill="#334566"/>
<path d="M96.4477 280.9L86.4214 228.59C85.9295 226.026 87.6104 223.548 90.1748 223.057C92.7391 222.565 95.2166 224.246 95.7085 226.811L105.735 279.12L96.4477 280.9Z" fill="white"/>
<path d="M89.9926 247.221H99.6202L95.7082 226.811C95.2163 224.246 92.7389 222.565 90.1745 223.057C87.6102 223.549 85.9302 226.027 86.4212 228.59L89.9926 247.221Z" fill="#CADEFF"/>
<path d="M149.874 284.814H84.934C81.9378 284.814 79.5078 282.385 79.5078 279.388C79.5078 276.391 81.9369 273.961 84.934 273.961H149.874C152.87 273.961 155.3 276.39 155.3 279.388C155.3 282.385 152.87 284.814 149.874 284.814Z" fill="#729FE8"/>
<path d="M97.7245 341.141C100.37 341.141 102.515 338.996 102.515 336.35C102.515 333.704 100.37 331.559 97.7245 331.559C95.0786 331.559 92.9336 333.704 92.9336 336.35C92.9336 338.996 95.0786 341.141 97.7245 341.141Z" fill="#5E6B82"/>
<path d="M141.58 336.35C141.58 338.996 139.435 341.141 136.789 341.141C134.143 341.141 131.998 338.996 131.998 336.35C131.998 333.704 134.143 331.559 136.789 331.559C139.435 331.559 141.58 333.704 141.58 336.35Z" fill="#5E6B82"/>
<path d="M90.1855 334.698C90.1855 330.656 93.4622 327.379 97.5041 327.379H138.007C142.049 327.379 145.325 330.656 145.325 334.698H90.1855Z" fill="white"/>
<path d="M110.844 241.093H73.3496C68.1072 241.093 63.8574 236.843 63.8574 231.6V205.971C63.8574 200.729 68.1072 196.479 73.3496 196.479H110.844C116.086 196.479 120.336 200.729 120.336 205.971V231.6C120.336 236.843 116.086 241.093 110.844 241.093Z" fill="#729FE8"/>
<path d="M241.816 200.729C250.172 200.729 256.945 193.955 256.945 185.6C256.945 177.244 250.172 170.471 241.816 170.471C233.461 170.471 226.688 177.244 226.688 185.6C226.688 193.955 233.461 200.729 241.816 200.729Z" fill="#0085F9"/>
<path d="M234.139 178.148V183.386L244.751 185.825L234.139 188.265V193.502L253.783 185.825L234.139 178.148Z" fill="white"/>
</svg>
