<svg width="114" height="112" viewBox="0 0 114 112" fill="none" xmlns="http://www.w3.org/2000/svg">
<path d="M54.3121 78.5608C73.1996 78.5608 88.511 63.2495 88.511 44.3619C88.511 25.4744 73.1996 10.1631 54.3121 10.1631C35.4246 10.1631 20.1133 25.4744 20.1133 44.3619C20.1133 63.2495 35.4246 78.5608 54.3121 78.5608Z" fill="#96B8FF"/>
<path d="M54.2223 65.466C57.4969 65.466 60.1515 62.8114 60.1515 59.5367C60.1515 56.2621 57.4969 53.6074 54.2223 53.6074C50.9476 53.6074 48.293 56.2621 48.293 59.5367C48.293 62.8114 50.9476 65.466 54.2223 65.466Z" fill="#E1ECFF"/>
<path d="M71.4334 50.8707C71.1959 51.3559 70.8496 51.8007 70.4023 52.1621C69.677 52.7459 68.8051 53.0214 67.9433 53.0088C66.8388 52.9961 65.7445 52.5109 64.9964 51.5834C62.1431 48.0452 58.3901 46.0688 54.4096 46.0107H54.22C50.2421 46.0688 46.4865 48.0452 43.6332 51.5834C42.8851 52.5109 41.7933 52.9961 40.6889 53.0088C39.8271 53.0214 38.9552 52.7459 38.2298 52.1621C37.7825 51.8007 37.4363 51.3559 37.1962 50.8707C36.5542 49.5691 36.6857 47.9618 37.6511 46.7588C38.0934 46.2104 38.5508 45.6872 39.0259 45.1893C43.1758 40.8171 48.4806 38.3985 54.1543 38.3277H54.2478C54.2706 38.3277 54.2933 38.3252 54.3161 38.3252C54.3388 38.3252 54.359 38.3277 54.3818 38.3277H54.4778C60.1516 38.3985 65.4564 40.8171 69.6062 45.1919C70.0813 45.6897 70.5388 46.2104 70.9811 46.7588C71.9465 47.9618 72.0754 49.5691 71.4334 50.8707Z" fill="#E1ECFF"/>
<path d="M81.8983 40.127C81.6759 40.6224 81.3423 41.0773 80.9101 41.4538C80.205 42.068 79.3407 42.3738 78.4789 42.394C77.7131 42.4117 76.9474 42.2019 76.2877 41.7698C75.9971 41.5802 75.7241 41.3477 75.4841 41.0697C69.7067 34.4052 62.2082 30.8291 54.3811 30.9984H54.2472C46.4176 30.8316 38.9242 34.4052 33.1468 41.0697C32.9067 41.3477 32.6338 41.5802 32.3406 41.7698C31.6835 42.2019 30.9177 42.4117 30.152 42.394C29.2901 42.3738 28.4233 42.068 27.7207 41.4538C27.286 41.0773 26.9524 40.6224 26.7325 40.127C26.1437 38.8052 26.3256 37.2029 27.3391 36.0353C34.605 27.6599 44.1506 23.1487 54.2472 23.3129V23.3155H54.3811V23.3129C64.4777 23.1487 74.0258 27.6599 81.2892 36.0353C82.3052 37.2029 82.4872 38.8052 81.8983 40.127Z" fill="#E1ECFF"/>
<path d="M108.569 9.73764V15.4953C108.569 17.2187 107.381 18.6158 105.916 18.6158H102.123L95.7857 21.7188L98.1445 18.6158H89.1261C87.6605 18.6158 86.4727 17.2187 86.4727 15.4953V9.73764C86.4727 8.01428 87.6607 6.61719 89.1261 6.61719H105.916C107.381 6.61719 108.569 8.01428 108.569 9.73764Z" fill="#96B8FF"/>
<path d="M9.07031 3.26303V9.02071C9.07031 10.7441 10.2584 12.1412 11.7237 12.1412H15.5159L21.8536 15.2442L19.4949 12.1412H28.5133C29.9789 12.1412 31.1667 10.7441 31.1667 9.02071V3.26303C31.1667 1.53967 29.9786 0.142578 28.5133 0.142578H11.7237C10.2581 0.142831 9.07031 1.53967 9.07031 3.26303Z" fill="#96B8FF"/>
<path d="M113.554 27.1585V35.4435C113.554 37.1669 112.366 38.564 110.901 38.564H108.12L101.782 41.667L104.141 38.564H100.177C98.7113 38.564 97.5234 37.1669 97.5234 35.4435V27.1585C97.5234 25.4352 98.7115 24.0381 100.177 24.0381H110.901C112.366 24.0381 113.554 25.4352 113.554 27.1585Z" fill="#96B8FF"/>
<path d="M1.94141 21.188V28.5172C1.94141 30.0417 2.99226 31.2775 4.28876 31.2775H6.74908L12.3556 34.0224L10.2691 31.2775H13.7755C15.072 31.2775 16.1228 30.0417 16.1228 28.5172V21.188C16.1228 19.6636 15.072 18.4277 13.7755 18.4277H4.28876C2.99226 18.4275 1.94141 19.6636 1.94141 21.188Z" fill="#96B8FF"/>
<path d="M1.65388 90.3545C-2.05846 105.634 10.878 107.649 10.878 107.649C10.878 107.649 16.4087 95.7839 1.65388 90.3545Z" fill="#1A7AAA"/>
<path d="M10.8544 107.599C10.8972 107.576 10.9133 107.523 10.8906 107.481L2.92279 92.5416C2.90004 92.4988 2.84697 92.4827 2.80426 92.5054C2.76154 92.5282 2.74537 92.5812 2.76811 92.6239L10.7359 107.563C10.7589 107.606 10.8117 107.622 10.8544 107.599Z" fill="#92CCDD"/>
<path d="M5.35297 97.2763C5.35347 97.276 5.35423 97.2755 5.35499 97.2752C5.37875 97.2618 5.39467 97.2383 5.39846 97.2116L5.81294 94.3158C5.81976 94.2678 5.78665 94.2235 5.73863 94.2167C5.69062 94.2099 5.64639 94.243 5.63956 94.291L5.24126 97.0746L2.53933 95.9406C2.4946 95.9216 2.44355 95.9431 2.42484 95.9873C2.40614 96.0321 2.42687 96.0834 2.4716 96.1018L5.27791 97.2798C5.30217 97.2902 5.32972 97.2886 5.35297 97.2763Z" fill="#92CCDD"/>
<path d="M6.93891 100.251C6.93941 100.251 6.94017 100.25 6.94093 100.25C6.96468 100.236 6.98061 100.213 6.9844 100.186L7.39887 97.2904C7.4057 97.2424 7.37259 97.1981 7.32457 97.1913C7.27655 97.1845 7.23233 97.2176 7.2255 97.2656L6.8272 100.049L4.12527 98.9152C4.08053 98.8962 4.02948 98.9177 4.01078 98.9619C3.99208 99.0067 4.0128 99.058 4.05754 99.0764L6.86385 100.254C6.88811 100.265 6.91565 100.263 6.93891 100.251Z" fill="#92CCDD"/>
<path d="M8.52484 103.225C8.52535 103.225 8.52611 103.225 8.52687 103.224C8.55062 103.211 8.56654 103.188 8.57033 103.161L8.98481 100.265C8.99163 100.217 8.95853 100.173 8.91051 100.166C8.86249 100.159 8.81826 100.192 8.81144 100.24L8.41314 103.024L5.71121 101.89C5.66647 101.871 5.61542 101.893 5.59672 101.937C5.57802 101.982 5.59874 102.033 5.64347 102.051L8.44978 103.229C8.47404 103.239 8.50159 103.238 8.52484 103.225Z" fill="#92CCDD"/>
<path d="M10.1108 106.2C10.1113 106.2 10.112 106.199 10.1128 106.199C10.1366 106.186 10.1525 106.162 10.1563 106.135L10.5707 103.24C10.5776 103.192 10.5445 103.147 10.4964 103.141C10.4484 103.134 10.4042 103.167 10.3974 103.215L9.99907 105.999L7.29714 104.865C7.25241 104.846 7.20136 104.867 7.18266 104.911C7.16395 104.956 7.18468 105.007 7.22941 105.026L10.0357 106.204C10.06 106.214 10.0875 106.212 10.1108 106.2Z" fill="#92CCDD"/>
<path d="M27.5754 90.3545C31.2878 105.634 18.3513 107.649 18.3513 107.649C18.3513 107.649 12.8206 95.7839 27.5754 90.3545Z" fill="#1A7AAA"/>
<path d="M18.3707 107.599C18.3279 107.576 18.3118 107.523 18.3345 107.481L26.3023 92.5416C26.3251 92.4988 26.3781 92.4827 26.4209 92.5054C26.4636 92.5282 26.4797 92.5812 26.457 92.6239L18.4892 107.563C18.4664 107.606 18.4134 107.622 18.3707 107.599Z" fill="#92CCDD"/>
<path d="M23.8788 97.2763C23.8783 97.276 23.8776 97.2755 23.8768 97.2752C23.853 97.2618 23.8371 97.2383 23.8333 97.2116L23.4189 94.3158C23.412 94.2678 23.4451 94.2235 23.4932 94.2167C23.5412 94.2099 23.5854 94.243 23.5922 94.291L23.9905 97.0748L26.6925 95.9408C26.7372 95.9219 26.7882 95.9434 26.8069 95.9876C26.8257 96.0323 26.8049 96.0836 26.7602 96.1021L23.9539 97.28C23.9296 97.2902 23.9021 97.2886 23.8788 97.2763Z" fill="#92CCDD"/>
<path d="M22.289 100.251C22.2885 100.251 22.2877 100.25 22.287 100.25C22.2632 100.236 22.2473 100.213 22.2435 100.186L21.829 97.2904C21.8222 97.2424 21.8553 97.1981 21.9033 97.1913C21.9513 97.1845 21.9956 97.2176 22.0024 97.2656L22.4007 100.049L25.1026 98.9152C25.1474 98.8962 25.1984 98.9177 25.2171 98.9619C25.2358 99.0067 25.2151 99.058 25.1704 99.0764L22.364 100.254C22.3398 100.265 22.3122 100.263 22.289 100.251Z" fill="#92CCDD"/>
<path d="M20.707 103.225C20.7064 103.225 20.7057 103.225 20.7049 103.224C20.6812 103.211 20.6653 103.188 20.6615 103.161L20.247 100.265C20.2402 100.217 20.2733 100.173 20.3213 100.166C20.3693 100.159 20.4135 100.192 20.4204 100.24L20.8187 103.024L23.5206 101.89C23.5653 101.871 23.6164 101.893 23.6351 101.937C23.6538 101.982 23.6331 102.033 23.5883 102.051L20.782 103.229C20.7578 103.239 20.73 103.238 20.707 103.225Z" fill="#92CCDD"/>
<path d="M19.121 106.2C19.1205 106.2 19.1198 106.199 19.119 106.199C19.0952 106.186 19.0793 106.162 19.0755 106.135L18.661 103.24C18.6542 103.192 18.6873 103.147 18.7353 103.141C18.7834 103.134 18.8276 103.167 18.8344 103.215L19.2327 105.999L21.9347 104.865C21.9794 104.846 22.0304 104.867 22.0491 104.911C22.0678 104.956 22.0471 105.007 22.0024 105.026L19.1961 106.204C19.1718 106.214 19.144 106.212 19.121 106.2Z" fill="#92CCDD"/>
<path d="M21.3952 100.963C21.7397 102.061 21.4337 103.346 20.844 104.27C20.2564 105.194 19.4217 105.824 18.5867 106.387C17.8937 106.853 17.1479 107.301 16.3619 107.26H14.1634C13.3751 107.301 12.6296 106.853 11.9386 106.387C11.1038 105.824 10.2688 105.194 9.67921 104.27C9.08959 103.346 8.78556 102.061 9.12801 100.963C9.44215 99.9596 10.2446 99.218 10.3641 98.1523C10.52 96.7663 9.44417 95.4776 9.66708 94.1058C9.82908 93.1129 10.6093 92.4868 11.3348 92.0147C11.8413 91.6844 12.3864 91.34 12.6743 90.7261C13.1848 89.6338 12.6662 88.2541 12.7716 86.9978C12.8972 85.5065 14.0522 84.2643 15.262 84.3191C16.4718 84.2645 17.6268 85.5065 17.7524 86.9978C17.8598 88.2541 17.341 89.634 17.8517 90.7261C18.1373 91.34 18.6824 91.6844 19.1912 92.0147C19.9165 92.4868 20.6947 93.1131 20.8567 94.1058C21.0796 95.4776 20.0037 96.7663 20.1597 98.1523C20.2787 99.218 21.0811 99.9596 21.3952 100.963Z" fill="#7E7EC4"/>
<path d="M15.3631 107.251C15.307 107.251 15.2617 107.206 15.2617 107.15V87.5496C15.2617 87.4935 15.307 87.4482 15.3631 87.4482C15.4192 87.4482 15.4644 87.4935 15.4644 87.5496V107.15C15.4644 107.206 15.4192 107.251 15.3631 107.251Z" fill="#92CCDD"/>
<path d="M15.3638 93.7074C15.3631 93.7074 15.362 93.7074 15.3613 93.7074C15.33 93.7067 15.3006 93.6912 15.2822 93.666L13.2813 90.934C13.2482 90.8887 13.2581 90.8253 13.3031 90.7922C13.3483 90.7588 13.4117 90.7689 13.4448 90.8139L15.3681 93.4403L17.5103 90.8099C17.5456 90.7661 17.6096 90.7601 17.6528 90.7952C17.6963 90.8306 17.7028 90.8943 17.6674 90.9378L15.4427 93.6698C15.4232 93.6938 15.3941 93.7074 15.3638 93.7074Z" fill="#92CCDD"/>
<path d="M15.3638 97.6098C15.3631 97.6098 15.362 97.6098 15.3613 97.6098C15.33 97.609 15.3006 97.5936 15.2822 97.5683L13.2813 94.8363C13.2482 94.7911 13.2581 94.7276 13.3031 94.6945C13.3483 94.6612 13.4117 94.6713 13.4448 94.7163L15.3681 97.3426L17.5103 94.7125C17.5456 94.6687 17.6096 94.6627 17.6528 94.6978C17.6963 94.7332 17.7028 94.7969 17.6674 94.8403L15.4427 97.5724C15.4232 97.5961 15.3941 97.6098 15.3638 97.6098Z" fill="#92CCDD"/>
<path d="M15.3638 101.512C15.3631 101.512 15.362 101.512 15.3613 101.512C15.33 101.511 15.3006 101.496 15.2822 101.471L13.2813 98.7387C13.2482 98.6935 13.2581 98.6301 13.3031 98.5969C13.3483 98.5636 13.4117 98.5737 13.4448 98.6187L15.3681 101.245L17.5103 98.6146C17.5456 98.5707 17.6096 98.5648 17.6528 98.6C17.6963 98.6354 17.7028 98.699 17.6674 98.7425L15.4427 101.475C15.4232 101.499 15.3941 101.512 15.3638 101.512Z" fill="#92CCDD"/>
<path d="M15.3638 105.414C15.3631 105.414 15.362 105.414 15.3613 105.414C15.33 105.414 15.3006 105.398 15.2822 105.373L13.2813 102.641C13.2482 102.596 13.2581 102.532 13.3031 102.499C13.3483 102.466 13.4117 102.476 13.4448 102.521L15.3681 105.147L17.5103 102.517C17.5456 102.473 17.6096 102.467 17.6528 102.502C17.6963 102.538 17.7028 102.601 17.6674 102.645L15.4427 105.377C15.4232 105.401 15.3941 105.414 15.3638 105.414Z" fill="#92CCDD"/>
<path d="M54.1929 90.5137C50.4806 105.793 63.4171 107.808 63.4171 107.808C63.4171 107.808 68.9478 95.9431 54.1929 90.5137Z" fill="#1A7AAA"/>
<path d="M63.3974 107.759C63.4401 107.737 63.4563 107.684 63.4336 107.641L55.4658 92.7017C55.443 92.659 55.3899 92.6428 55.3472 92.6656C55.3045 92.6883 55.2883 92.7414 55.3111 92.7841L63.2789 107.723C63.3016 107.766 63.3547 107.782 63.3974 107.759Z" fill="#92CCDD"/>
<path d="M57.892 97.4364C57.8925 97.4362 57.8933 97.4357 57.8941 97.4354C57.9178 97.422 57.9337 97.3985 57.9375 97.3717L58.352 94.4759C58.3588 94.4279 58.3257 94.3837 58.2777 94.3769C58.2297 94.37 58.1855 94.4031 58.1786 94.4512L57.7803 97.235L55.0784 96.101C55.0337 96.082 54.9826 96.1035 54.9639 96.1477C54.9452 96.1925 54.9659 96.2435 55.0107 96.2622L57.817 97.4402C57.8412 97.4501 57.869 97.4488 57.892 97.4364Z" fill="#92CCDD"/>
<path d="M59.478 100.411C59.4785 100.411 59.4792 100.41 59.48 100.41C59.5037 100.397 59.5197 100.373 59.5235 100.346L59.9379 97.4505C59.9448 97.4025 59.9116 97.3583 59.8636 97.3515C59.8156 97.3447 59.7714 97.3778 59.7646 97.4258L59.3663 100.209L56.6643 99.0753C56.6196 99.0564 56.5685 99.0779 56.5498 99.1221C56.5311 99.1668 56.5519 99.2181 56.5966 99.2366L59.4029 100.414C59.4272 100.425 59.4547 100.423 59.478 100.411Z" fill="#92CCDD"/>
<path d="M61.0639 103.386C61.0644 103.385 61.0652 103.385 61.0659 103.385C61.0897 103.371 61.1054 103.348 61.1094 103.321L61.5239 100.425C61.5307 100.377 61.4976 100.333 61.4496 100.326C61.4016 100.319 61.3573 100.353 61.3505 100.4L60.9522 103.184L58.2503 102.05C58.2055 102.031 58.1545 102.053 58.1358 102.097C58.1171 102.142 58.1378 102.193 58.1825 102.211L60.9888 103.389C61.0131 103.4 61.0407 103.398 61.0639 103.386Z" fill="#92CCDD"/>
<path d="M62.6498 106.359C62.6503 106.359 62.6511 106.359 62.6519 106.358C62.6756 106.345 62.6915 106.321 62.6953 106.295L63.1098 103.399C63.1166 103.351 63.0835 103.307 63.0355 103.3C62.9875 103.293 62.9433 103.326 62.9364 103.374L62.5381 106.158L59.8362 105.024C59.7915 105.005 59.7404 105.026 59.7217 105.071C59.703 105.115 59.7237 105.167 59.7685 105.185L62.5748 106.363C62.599 106.373 62.6266 106.372 62.6498 106.359Z" fill="#92CCDD"/>
<path d="M74.1455 103.76C74.1309 104.911 73.4404 106.036 72.5923 106.731C71.7461 107.426 70.7567 107.765 69.788 108.041C68.9843 108.268 68.1364 108.461 67.4017 108.178L65.3124 107.493C64.5507 107.286 63.9815 106.629 63.47 105.971C62.8521 105.176 62.2549 104.317 61.9822 103.255C61.7095 102.194 61.8204 100.878 62.4879 99.9414C63.0985 99.0859 64.092 98.631 64.5375 97.6555C65.1173 96.387 64.4961 94.8272 65.1347 93.5931C65.598 92.7 66.5341 92.3479 67.3704 92.125C67.9547 91.9688 68.5799 91.8111 69.0444 91.3173C69.8696 90.4383 69.8064 88.9656 70.2975 87.8043C70.881 86.4262 72.3653 85.6053 73.498 86.034C74.6646 86.3585 75.3756 87.8986 75.0306 89.3548C74.7415 90.5821 73.819 91.732 73.9643 92.9289C74.0447 93.6014 74.4554 94.0983 74.836 94.5707C75.3784 95.2452 75.923 96.0825 75.7678 97.0765C75.5525 98.4496 74.1289 99.3392 73.8458 100.705C73.6277 101.754 74.1592 102.709 74.1455 103.76Z" fill="#7E7EC4"/>
<path d="M66.4565 107.857C66.4032 107.84 66.3744 107.782 66.3918 107.729L72.4935 89.103C72.5109 89.0497 72.568 89.0209 72.6213 89.0383C72.6747 89.0557 72.7035 89.1128 72.686 89.1662L66.5844 107.792C66.5669 107.845 66.5098 107.874 66.4565 107.857Z" fill="#92CCDD"/>
<path d="M70.6718 94.9862C70.671 94.986 70.67 94.9857 70.6693 94.9855C70.6397 94.9749 70.6167 94.9511 70.6069 94.9215L69.5557 91.7023C69.5386 91.649 69.5674 91.5918 69.6205 91.5744C69.6738 91.557 69.7309 91.586 69.7483 91.6391L70.7585 94.7338L73.6131 92.901C73.6603 92.8704 73.723 92.8848 73.7531 92.9313C73.7834 92.9786 73.7698 93.041 73.7228 93.0713L70.758 94.9751C70.7325 94.9918 70.7009 94.9959 70.6718 94.9862Z" fill="#92CCDD"/>
<path d="M69.457 98.694C69.4562 98.6938 69.4552 98.6935 69.4544 98.6932C69.4249 98.6826 69.4019 98.6589 69.392 98.6293L68.3409 95.4103C68.3237 95.357 68.3525 95.2998 68.4056 95.2824C68.4589 95.265 68.516 95.294 68.5335 95.3471L69.5436 98.4415L72.398 96.6087C72.4452 96.5782 72.5079 96.5926 72.538 96.6391C72.5683 96.6863 72.5547 96.7487 72.5077 96.7791L69.5429 98.6826C69.5176 98.6996 69.486 98.7036 69.457 98.694Z" fill="#92CCDD"/>
<path d="M68.2421 102.403C68.2414 102.403 68.2403 102.403 68.2396 102.402C68.21 102.392 68.187 102.368 68.1772 102.339L67.1261 99.1193C67.1089 99.0659 67.1377 99.0088 67.1908 98.9914C67.2441 98.9739 67.3012 99.0032 67.3186 99.0561L68.3288 102.151L71.1834 100.318C71.2306 100.287 71.2933 100.302 71.3234 100.348C71.3537 100.396 71.3401 100.458 71.2931 100.488L68.3283 102.392C68.3028 102.409 68.2709 102.413 68.2421 102.403Z" fill="#92CCDD"/>
<path d="M67.0273 106.111C67.0265 106.111 67.0255 106.111 67.0247 106.11C66.9952 106.1 66.9722 106.076 66.9623 106.047L65.9112 102.827C65.894 102.774 65.9228 102.717 65.9759 102.699C66.0292 102.682 66.0864 102.711 66.1038 102.764L67.114 105.859L69.9685 104.026C70.0158 103.995 70.0785 104.01 70.1086 104.056C70.1389 104.104 70.1252 104.166 70.0782 104.196L67.1134 106.1C67.0879 106.117 67.0561 106.121 67.0273 106.111Z" fill="#92CCDD"/>
<path d="M83.3492 90.123C79.6369 105.402 92.5733 107.417 92.5733 107.417C92.5733 107.417 98.1041 95.5524 83.3492 90.123Z" fill="#1A7AAA"/>
<path d="M92.5498 107.369C92.5925 107.346 92.6087 107.293 92.5859 107.25L84.6181 92.3111C84.5954 92.2684 84.5423 92.2522 84.4996 92.275C84.4569 92.2977 84.4407 92.3508 84.4634 92.3935L92.4312 107.333C92.454 107.375 92.5071 107.391 92.5498 107.369Z" fill="#92CCDD"/>
<path d="M87.0405 97.0468C87.041 97.0465 87.0417 97.046 87.0425 97.0457C87.0663 97.0324 87.0822 97.0089 87.086 96.9821L87.5004 94.0863C87.5073 94.0383 87.4742 93.994 87.4261 93.9872C87.3781 93.9804 87.3339 94.0135 87.3271 94.0615L86.9288 96.8453L84.2268 95.7113C84.1821 95.6924 84.131 95.7139 84.1123 95.7581C84.0936 95.8028 84.1144 95.8541 84.1591 95.8726L86.9654 97.0506C86.9897 97.0604 87.0172 97.0591 87.0405 97.0468Z" fill="#92CCDD"/>
<path d="M88.6303 100.02C88.6308 100.02 88.6316 100.02 88.6323 100.019C88.6561 100.006 88.672 99.9825 88.6758 99.9557L89.0903 97.0599C89.0971 97.0119 89.064 96.9677 89.016 96.9609C88.968 96.954 88.9237 96.9871 88.9169 97.0351L88.5186 99.8187L85.8167 98.6847C85.7719 98.6658 85.7209 98.6872 85.7022 98.7315C85.6835 98.7762 85.7042 98.8273 85.7489 98.846L88.5553 100.024C88.5795 100.034 88.6071 100.033 88.6303 100.02Z" fill="#92CCDD"/>
<path d="M90.2162 102.995C90.2168 102.995 90.2175 102.994 90.2183 102.994C90.242 102.981 90.2579 102.957 90.2617 102.93L90.6762 100.035C90.683 99.9865 90.6499 99.9423 90.6019 99.9355C90.5539 99.9286 90.5097 99.962 90.5028 100.01L90.1045 102.794L87.4026 101.66C87.3579 101.64 87.3068 101.662 87.2881 101.706C87.2694 101.751 87.2901 101.802 87.3349 101.821L90.1412 102.999C90.1655 103.009 90.193 103.007 90.2162 102.995Z" fill="#92CCDD"/>
<path d="M91.8022 105.97C91.8027 105.969 91.8034 105.969 91.8042 105.969C91.828 105.955 91.8436 105.932 91.8477 105.905L92.2622 103.009C92.269 102.961 92.2359 102.917 92.1879 102.91C92.1398 102.903 92.0956 102.936 92.0888 102.984L91.6905 105.768L88.9885 104.634C88.9438 104.615 88.8928 104.637 88.8741 104.681C88.8554 104.726 88.8761 104.777 88.9208 104.795L91.7271 105.973C91.7514 105.983 91.7792 105.982 91.8022 105.97Z" fill="#92CCDD"/>
<path d="M109.267 90.123C112.979 105.402 100.043 107.417 100.043 107.417C100.043 107.417 94.5121 95.5524 109.267 90.123Z" fill="#1A7AAA"/>
<path d="M100.066 107.369C100.023 107.346 100.007 107.293 100.03 107.25L107.998 92.3111C108.02 92.2684 108.073 92.2522 108.116 92.275C108.159 92.2977 108.175 92.3508 108.152 92.3935L100.185 107.333C100.162 107.375 100.109 107.391 100.066 107.369Z" fill="#92CCDD"/>
<path d="M105.57 97.0468C105.57 97.0465 105.569 97.046 105.568 97.0457C105.544 97.0324 105.529 97.0089 105.525 96.9821L105.11 94.0863C105.103 94.0383 105.137 93.994 105.185 93.9872C105.233 93.9804 105.277 94.0135 105.284 94.0615L105.682 96.8453L108.384 95.7113C108.429 95.6924 108.48 95.7139 108.498 95.7581C108.517 95.8028 108.496 95.8541 108.452 95.8726L105.645 97.0506C105.621 97.0604 105.593 97.0591 105.57 97.0468Z" fill="#92CCDD"/>
<path d="M103.984 100.02C103.984 100.02 103.983 100.02 103.982 100.019C103.959 100.006 103.943 99.9825 103.939 99.9557L103.524 97.0599C103.518 97.0119 103.551 96.9677 103.599 96.9609C103.647 96.954 103.691 96.9871 103.698 97.0351L104.096 99.8187L106.798 98.6847C106.843 98.6658 106.894 98.6872 106.912 98.7315C106.931 98.7762 106.91 98.8273 106.866 98.846L104.059 100.024C104.035 100.034 104.008 100.033 103.984 100.02Z" fill="#92CCDD"/>
<path d="M102.398 102.995C102.398 102.995 102.397 102.994 102.396 102.994C102.373 102.981 102.357 102.957 102.353 102.93L101.938 100.035C101.932 99.9865 101.965 99.9423 102.013 99.9355C102.061 99.9286 102.105 99.962 102.112 100.01L102.51 102.794L105.212 101.66C105.257 101.64 105.308 101.662 105.326 101.706C105.345 101.751 105.324 101.802 105.28 101.821L102.473 102.999C102.449 103.009 102.422 103.007 102.398 102.995Z" fill="#92CCDD"/>
<path d="M100.812 105.97C100.812 105.969 100.811 105.969 100.81 105.969C100.787 105.955 100.771 105.932 100.767 105.905L100.352 103.009C100.346 102.961 100.379 102.917 100.427 102.91C100.475 102.903 100.519 102.936 100.526 102.984L100.924 105.768L103.626 104.634C103.671 104.615 103.722 104.637 103.741 104.681C103.759 104.726 103.739 104.777 103.694 104.795L100.887 105.973C100.863 105.983 100.836 105.982 100.812 105.97Z" fill="#92CCDD"/>
<path d="M103.087 100.731C103.431 101.83 103.125 103.114 102.535 104.038C101.948 104.962 101.113 105.592 100.278 106.156C99.5851 106.622 98.8393 107.069 98.0533 107.029H95.8548C95.0665 107.069 94.321 106.622 93.63 106.156C92.7953 105.592 91.9602 104.962 91.3706 104.038C90.781 103.114 90.477 101.83 90.8194 100.731C91.1336 99.7281 91.936 98.9866 92.0555 97.9208C92.2114 96.5349 91.1356 95.2462 91.3585 93.8744C91.5205 92.8814 92.3007 92.2554 93.0262 91.7833C93.5327 91.453 94.0779 91.1085 94.3657 90.4946C94.8762 89.4023 94.3576 88.0227 94.463 86.7664C94.5886 85.275 95.7436 84.0328 96.9534 84.0877C98.1632 84.0331 99.3182 85.275 99.4438 86.7664C99.5512 88.0227 99.0324 89.4026 99.5431 90.4946C99.8287 91.1085 100.374 91.453 100.883 91.7833C101.608 92.2554 102.386 92.8817 102.548 93.8744C102.771 95.2462 101.695 96.5349 101.851 97.9208C101.97 98.9866 102.773 99.7281 103.087 100.731Z" fill="#7E7EC4"/>
<path d="M97.0545 107.021C96.9984 107.021 96.9531 106.975 96.9531 106.919V87.3191C96.9531 87.263 96.9984 87.2178 97.0545 87.2178C97.1106 87.2178 97.1558 87.263 97.1558 87.3191V106.919C97.1558 106.975 97.1103 107.021 97.0545 107.021Z" fill="#92CCDD"/>
<path d="M97.0513 93.476C97.0506 93.476 97.0496 93.476 97.0488 93.476C97.0175 93.4752 96.9881 93.4598 96.9697 93.4345L94.9688 90.7025C94.9357 90.6573 94.9456 90.5938 94.9906 90.5607C95.0358 90.5274 95.0992 90.5375 95.1323 90.5825L97.0556 93.2088L99.1978 90.5784C99.2331 90.5347 99.2971 90.5286 99.3403 90.5638C99.3838 90.5992 99.3903 90.6628 99.355 90.7063L97.1302 93.4383C97.1107 93.4623 97.0819 93.476 97.0513 93.476Z" fill="#92CCDD"/>
<path d="M97.0513 97.3783C97.0506 97.3783 97.0496 97.3783 97.0488 97.3783C97.0175 97.3776 96.9881 97.3621 96.9697 97.3369L94.9688 94.6049C94.9357 94.5596 94.9456 94.4962 94.9906 94.4631C95.0358 94.4297 95.0992 94.4398 95.1323 94.4848L97.0556 97.1112L99.1978 94.481C99.2331 94.4373 99.2971 94.4312 99.3403 94.4664C99.3838 94.5017 99.3903 94.5654 99.355 94.6089L97.1302 97.3409C97.1107 97.3647 97.0819 97.3783 97.0513 97.3783Z" fill="#92CCDD"/>
<path d="M97.0513 101.281C97.0506 101.281 97.0496 101.281 97.0488 101.281C97.0175 101.28 96.9881 101.265 96.9697 101.239L94.9688 98.5073C94.9357 98.462 94.9456 98.3986 94.9906 98.3655C95.0358 98.3321 95.0992 98.3423 95.1323 98.3872L97.0556 101.014L99.1978 98.3832C99.2331 98.3392 99.2971 98.3334 99.3403 98.3685C99.3838 98.4039 99.3903 98.4676 99.355 98.5111L97.1302 101.243C97.1107 101.267 97.0819 101.281 97.0513 101.281Z" fill="#92CCDD"/>
<path d="M97.0513 105.183C97.0506 105.183 97.0496 105.183 97.0488 105.183C97.0175 105.182 96.9881 105.167 96.9697 105.142L94.9688 102.41C94.9357 102.364 94.9456 102.301 94.9906 102.268C95.0358 102.234 95.0992 102.245 95.1323 102.29L97.0556 104.916L99.1978 102.285C99.2331 102.242 99.2971 102.236 99.3403 102.271C99.3838 102.306 99.3903 102.37 99.355 102.413L97.1302 105.145C97.1107 105.169 97.0819 105.183 97.0513 105.183Z" fill="#92CCDD"/>
<path d="M113.586 105.516L0 106.198C0 106.198 19.2188 111.923 56.7929 111.923C94.3669 111.923 113.586 105.516 113.586 105.516Z" fill="#E2E2E8"/>
<path d="M78.1711 54.3627L83.999 51.3466L85.0236 60.1502L74.3094 52.5688L75.0575 49.3189C73.2148 41.965 74.3051 37.8587 74.3837 37.5781C73.327 41.8801 78.1711 54.3627 78.1711 54.3627Z" fill="#E4ECEF"/>
<path d="M74.306 52.5693L85.0202 60.1507C75.9086 62.9414 72.7227 59.4451 72.7227 59.4451L74.306 52.5693Z" fill="white"/>
<path d="M97.3104 40.7795L93.5164 43.9614C93.0276 43.9995 92.5452 44.0655 92.2093 44.0847C91.9606 44.0973 91.6844 44.2058 91.4102 44.3609L92.1967 43.7319L96.6791 40.1484L97.3104 40.7795Z" fill="#D6D6D6"/>
<path d="M93.5207 43.961C94.5025 43.8845 95.5122 43.9163 95.423 44.656C95.289 45.7655 95.2701 47.1025 94.4282 47.3979C93.5887 47.6954 90.5792 47.942 90.5792 47.942L89.7227 45.7655C89.7227 45.7655 90.5642 44.8388 91.4144 44.3606C91.6886 44.2054 91.9649 44.097 92.2136 44.0844C92.5492 44.0652 93.0316 43.9992 93.5207 43.961Z" fill="#CE8451"/>
<path d="M92.1972 43.7314L91.4107 44.3605C90.5605 44.8387 89.7189 45.7654 89.7189 45.7654L87.0195 46.5284C87.0195 46.5284 91.1259 43.761 92.1972 43.7314Z" fill="#B76F3D"/>
<path d="M85.801 46.873L87.0209 46.5288L89.7203 45.7658L90.5768 47.9423L83.9965 51.3473L78.1686 54.3634C78.1686 54.3634 73.3248 41.8808 74.3812 37.5788C74.3832 37.5725 74.3832 37.5682 74.3855 37.5639C74.4982 37.1133 74.6746 36.7542 74.9296 36.5098C74.9296 36.5098 75.7669 35.6214 77.0634 35.7488C77.3015 35.7723 77.5565 35.8317 77.8244 35.9358C78.1261 36.0549 78.4132 36.3291 78.6831 36.7373C79.9521 38.6479 80.8172 43.4429 80.8043 48.2867L85.801 46.873Z" fill="white"/>
<path d="M81.132 38.6287L82.2097 39.4597C82.2097 39.4597 85.9058 43.4576 86.1651 45.3069C86.1651 45.3069 86.3777 45.9786 85.8017 46.8733L80.8048 48.2868C80.8174 43.443 79.9525 38.6479 78.6836 36.7373H78.6856L81.132 38.6287Z" fill="#E4ECEF"/>
<path d="M86.2181 22.7975L86.2244 22.7889C86.9725 22.5806 87.8207 22.7677 88.4136 23.2734C89.0045 23.7771 89.3232 24.5848 89.2339 25.3584C89.1596 26.0003 88.8281 26.6251 88.9448 27.2607C89.0446 27.7942 89.4442 28.2213 89.6206 28.7336C89.8567 29.416 89.6654 30.1916 89.2572 30.7868C88.8513 31.3819 88.2518 31.8197 87.6291 32.1811C87.4803 32.2683 87.3251 32.3555 87.2189 32.4914C86.8575 32.959 87.27 33.6052 87.3761 34.1855C87.5631 35.2121 86.6109 36.2045 85.5737 36.3152C84.5365 36.4279 83.5248 35.8477 82.8341 35.0655L82.715 35.0528L82.9849 32.6979L84.7894 33.0421L85.393 30.7211L86.2517 30.8932C88.3006 25.9346 86.3665 24.4743 86.3665 24.4743L86.3389 24.4723C86.3346 25.0121 86.0053 25.5201 85.5673 25.8348C85.1081 26.1621 84.545 26.3129 83.986 26.3915C83.427 26.4724 82.8616 26.4914 82.3069 26.5935C81.9116 26.6637 81.5077 26.7868 81.2186 27.0673C80.9636 27.316 80.8297 27.6625 80.7405 28.0067C80.6088 28.5233 80.5661 29.0546 80.4599 29.5752C80.3558 30.0958 80.1774 30.621 79.8223 31.0162C79.4758 31.4032 79.2059 31.8091 78.6873 31.8091L77.9051 33.7028C77.8882 33.7283 77.8669 33.7515 77.8434 33.773C76.6958 33.5648 75.7202 32.6148 75.4438 31.4775C75.1503 30.2808 75.6075 28.9504 76.5297 28.1341C77.5649 27.2159 79.0717 26.9291 80.0111 25.9151C80.5977 25.2775 80.8911 24.421 81.0718 23.5728C81.1696 23.1136 81.2525 22.6206 81.5649 22.27C81.8583 21.9427 82.3046 21.7982 82.738 21.7451C83.9696 21.5968 85.1981 22.0919 86.2181 22.7975Z" fill="#0085F9"/>
<path d="M77.8722 33.7787L77.9021 33.7021C78.1083 33.4514 78.1763 33.0708 78.2996 32.7627C78.4272 32.444 78.5546 32.1271 78.6843 31.8084C79.2029 31.8084 79.4728 31.4025 79.8193 31.0156C80.1741 30.6203 80.3528 30.0954 80.4569 29.5745C80.5633 29.0539 80.6058 28.5224 80.7374 28.0061C80.8266 27.6619 80.9606 27.3154 81.2156 27.0667C81.5047 26.7862 81.9086 26.6628 82.3039 26.5928C82.8586 26.4907 83.424 26.4718 83.983 26.3909C84.542 26.3123 85.1051 26.1614 85.5643 25.8341C86.002 25.5195 86.3316 25.0115 86.3359 24.4717L86.3634 24.4737C86.3634 24.4737 88.2976 25.934 86.2487 30.8925L85.3899 30.7204L84.7864 33.0415L82.9819 32.6973L80.6121 32.1638L81.1307 38.6293L78.6843 36.7377H78.6822C78.4123 36.3295 78.1255 36.0553 77.8235 35.9362C77.5556 35.8321 77.3006 35.7725 77.0625 35.7492L77.0645 35.7366L77.8722 33.7787Z" fill="#CE8451"/>
<path d="M86.2234 22.7876L86.217 22.7962C85.1968 22.0906 83.9683 21.5952 82.7377 21.7441C82.304 21.7972 81.8577 21.9417 81.5645 22.269C81.2522 22.6198 81.1693 23.1129 81.0715 23.5718C80.8908 24.42 80.5976 25.2765 80.0108 25.9141C79.0714 26.9281 77.5643 27.2149 76.5294 28.1331C75.6069 28.9492 75.15 30.2798 75.4434 31.4765C75.7197 32.6135 76.6952 33.5635 77.8431 33.772C77.7814 33.8337 77.7071 33.8847 77.6179 33.9209C76.5532 34.3503 75.3011 34.3078 74.2746 33.7912C73.9091 33.6085 73.5603 33.3575 73.367 32.9964C72.9144 32.1568 73.4499 31.1557 73.6094 30.2164C73.6986 29.6871 73.6647 29.1387 73.5073 28.6264C73.365 28.1546 73.1203 27.7169 72.9907 27.2407C72.6273 25.8995 73.3243 24.3502 74.57 23.7316C75.2076 23.4149 75.9325 23.334 76.6189 23.1407C77.4415 22.9089 78.2171 22.5116 78.8846 21.9802C79.4649 21.5189 79.9835 20.945 80.6805 20.6922C81.4243 20.4243 82.2555 20.5689 83.0056 20.8219C84.2063 21.2255 85.3155 21.9033 86.2234 22.7876Z" fill="#0085F9"/>
<path d="M82.9831 32.6966L82.7132 35.0515L82.2095 39.4596L81.1319 38.6284L80.6133 32.1631L82.9831 32.6966Z" fill="#B76F3D"/>
<path d="M103.559 103.08L99.0893 105.144L96.3942 102.164L97.3698 105.545L96.2795 106.117L93.2422 99.2967L95.8203 97.8643L99.0893 101.303L103.559 103.08Z" fill="#0085F9"/>
<path d="M85.0231 60.1514L84.2851 64.5463L84.1133 64.0485L85.0231 60.1514Z" fill="#2888E8"/>
<path d="M95.8206 97.8637L93.2428 99.2967C93.2428 99.2967 86.6794 88.6088 84.7586 85.7125C82.8404 82.8187 84.4149 79.6975 84.4149 79.6975C84.4149 79.6975 83.6542 78.5729 82.2415 76.7279C80.8186 74.8704 78.7361 72.2824 76.1052 69.3786C75.9131 69.1663 75.7311 68.9565 75.5568 68.7493C70.995 63.2928 72.7237 59.4463 72.7237 59.4463C72.7237 59.4463 75.9106 62.9415 85.0215 60.1514L84.1117 64.0485L84.2835 64.5464L95.8206 97.8637Z" fill="#2888E8"/>
<path d="M76.107 69.3794C78.7382 72.2827 80.8212 74.8694 82.243 76.727L81.3802 81.8725L75.6521 71.2794L75.6501 71.2774L75.5586 68.748C75.7327 68.9565 75.9157 69.1668 76.107 69.3794Z" fill="#1D7DDE"/>
<path d="M75.6492 71.2803L81.3774 81.8734L73.6388 98.152H70.1445C70.1445 98.152 71.6599 82.3751 75.9894 80.6131L75.6492 71.2803Z" fill="#2888E8"/>
<path d="M74.9588 101.992L78.2829 106.921H73.3539L71.5772 102.536V106.921H70.1445V98.1514H73.6388L74.9588 101.992Z" fill="#0085F9"/>
<path d="M31.8833 24.5371L34.1766 28.1036L28.8185 33.162L30.1936 25.6549L27.7004 27.1875L25.3793 28.7347L23.7747 25.3382L22.6567 25.5104L21.0859 20.6198C22.8224 20.1075 24.6057 19.2935 24.6057 19.2935C24.6057 19.2935 25.7215 22.2011 27.7577 21.9567C27.7577 21.9567 27.3708 19.1492 28.9607 19.2935C30.5507 19.436 28.9908 23.4764 31.8833 24.5371Z" fill="#FFD599"/>
<path d="M30.421 16.7981C33.0289 16.0394 31.8813 24.5367 31.8813 24.5367C28.9885 23.476 30.5486 19.4356 28.9587 19.2933C27.3688 19.1487 27.7557 21.9565 27.7557 21.9565C25.7195 22.2009 24.6037 19.2933 24.6037 19.2933C24.6037 19.2933 22.8204 20.1073 21.0839 20.6196C19.6727 21.0361 18.291 21.2529 17.9255 20.6684C17.1095 19.3633 18.0127 18.4474 20.7629 18.203C23.5131 17.9606 25.864 15.1508 27.6407 14.6789C29.4177 14.2051 30.421 16.7981 30.421 16.7981Z" fill="#2888E8"/>
<path d="M30.1963 25.6553L28.8209 33.1624L28.2195 29.9529L27.7031 27.1878L30.1963 25.6553Z" fill="#EFBB78"/>
<path d="M45.2402 103.972V107.842H33.4609L40.341 103.972H45.2402Z" fill="#006099"/>
<path d="M39.3425 61.4258L45.2385 103.973H40.3393L29.8141 73.4069L28.3008 69.0137C29.0319 68.3675 28.4431 66.376 30.0204 66.2039C31.5974 66.0338 29.9354 63.6809 29.9354 63.6809L30.1927 63.8062L31.2405 61.4789L39.3425 61.4258Z" fill="#0085F9"/>
<path d="M29.8136 73.4066L16.1215 102.07L11.707 100.181L22.1895 67.1387L29.8136 73.4066Z" fill="#0085F9"/>
<path d="M28.3019 69.0133L29.8152 73.4065L22.1914 67.1385L23.9724 61.5274L24.0616 61.5254L26.0425 65.0302H26.0445C25.8171 65.6062 25.6619 66.2608 25.6662 66.977C25.6791 69.5571 27.5708 69.6572 28.3019 69.0133Z" fill="#0085F9"/>
<path d="M28.024 61.499L27.701 62.583C27.701 62.583 26.632 63.531 26.0454 65.0294H26.0434L24.0625 61.5246L28.024 61.499Z" fill="#0085F9"/>
<path d="M16.1248 102.07L14.1376 106.181L3.28516 100.181H11.7104L16.1248 102.07Z" fill="#006099"/>
<path d="M24.3643 45.555C24.7767 41.8737 25.1379 38.5519 25.291 36.8876C25.7502 31.9311 28.2156 29.9525 28.2156 29.9525L28.8171 33.1619L34.1752 28.1035C34.1752 28.1035 40.5069 28.822 40.3347 31.8017C40.2498 33.2832 39.6291 37.0046 39.0256 40.3756V40.3799C38.4155 43.7912 37.8246 46.8411 37.8246 46.8411L31.24 61.479L28.022 61.5002L32.5512 46.346L32.8721 34.0952L23.6096 53.7192L23.4375 53.7C23.5224 52.9668 23.6096 52.2078 23.6968 51.4342C23.9179 49.4999 24.1474 47.4785 24.3643 45.555Z" fill="#1295C9"/>
<path d="M39.0275 40.3799L39.3442 61.4257L31.2422 61.4788L37.8268 46.8409C37.8268 46.8409 38.4174 43.7912 39.0275 40.3799Z" fill="#0F8EB5"/>
<path d="M32.8774 34.0947L32.5564 46.3455L28.0272 61.4997L24.0654 61.5252L24.0081 61.4254L23.9762 61.5275L22.5352 61.5361C22.5352 61.5361 22.939 58.0803 23.4427 53.6997L23.6148 53.7189L32.8774 34.0947Z" fill="#0F8EB5"/>
<path d="M31.2441 61.4785L30.1963 63.8057L29.939 63.6803L27.7031 62.5837L28.0261 61.4997L31.2441 61.4785Z" fill="#1295C9"/>
<path d="M29.9382 63.6806C29.9382 63.6806 31.6004 66.0335 30.0231 66.2036C28.4461 66.3757 29.0347 68.3672 28.3035 69.0134C27.5724 69.6574 25.6807 69.5575 25.6681 66.9772C25.6638 66.2609 25.8189 65.6064 26.0464 65.0304C26.633 63.532 27.702 62.584 27.702 62.584L29.9382 63.6806Z" fill="#FFD599"/>
<path d="M17.0411 41.9121L24.3675 45.555C24.1507 47.4785 23.9212 49.4998 23.7001 51.4339L16.125 44.0525L17.0411 41.9121Z" fill="#0F8EB5"/>
<path d="M12.3698 38.5415L11.8299 37.8889C12.2189 37.3322 14.0213 37.432 14.6524 38.0716C15.2815 38.7136 17.0392 41.9124 17.0392 41.9124L16.123 44.0527C16.123 44.0527 10.7053 42.0761 10.3441 41.2452C10.0125 40.4865 8.79894 38.0825 9.6471 37.7466C9.72797 37.7148 9.8278 37.7019 9.95113 37.7105C10.7164 37.7679 11.6535 38.1037 12.3698 38.5415Z" fill="#FFD599"/>
<path d="M11.8287 37.8889L12.3686 38.5415C11.6523 38.1037 10.715 37.7679 9.94995 37.7105C9.82662 37.7019 9.72679 37.7148 9.64592 37.7466L8.03906 35.2451L9.72022 35.3407L11.8287 37.8889Z" fill="#D6D6D6"/>
</svg>
