<svg width="150" height="111" viewBox="0 0 150 111" fill="none" xmlns="http://www.w3.org/2000/svg">
<path d="M134.972 103.063H125.035V103.138H134.972V103.063Z" fill="#EBEBEB"/>
<path d="M99.3696 103.876H96.7617V103.951H99.3696V103.876Z" fill="#EBEBEB"/>
<path d="M124.734 100.277H118.977V100.352H124.734V100.277Z" fill="#EBEBEB"/>
<path d="M28.6962 100.781H15.7383V100.856H28.6962V100.781Z" fill="#EBEBEB"/>
<path d="M33.2671 100.781H31.3672V100.856H33.2671V100.781Z" fill="#EBEBEB"/>
<path d="M67.5442 102.048H39.4414V102.123H67.5442V102.048Z" fill="#EBEBEB"/>
<path d="M71.1069 84.8544H13.1772C12.2331 84.8544 11.4648 84.0861 11.4648 83.142V1.7124C11.4648 0.7683 12.2331 0 13.1772 0H71.1069C72.0507 0 72.819 0.7683 72.819 1.7124V83.142C72.819 84.0861 72.0507 84.8544 71.1069 84.8544ZM13.1772 0.0752998C12.2742 0.0752998 11.5398 0.8097 11.5398 1.7127V83.1423C11.5398 84.0453 12.2742 84.7797 13.1772 84.7797H71.1069C72.0096 84.7797 72.744 84.0453 72.744 83.1423V1.7124C72.744 0.8097 72.0096 0.075 71.1069 0.075L13.1772 0.0752998Z" fill="#EBEBEB"/>
<path d="M135.993 84.8544H78.0637C77.1196 84.8544 76.3516 84.0861 76.3516 83.142V1.7124C76.3516 0.7683 77.1199 0 78.0637 0H135.993C136.937 0 137.705 0.7683 137.705 1.7124V83.142C137.706 84.0861 136.937 84.8544 135.993 84.8544ZM78.0637 0.0752998C77.161 0.0752998 76.4266 0.8097 76.4266 1.7127V83.1423C76.4266 84.0453 77.161 84.7797 78.0637 84.7797H135.993C136.896 84.7797 137.63 84.0453 137.63 83.1423V1.7124C137.63 0.8097 136.896 0.075 135.993 0.075L78.0637 0.0752998Z" fill="#EBEBEB"/>
<path d="M150 98.2334H0V98.3084H150V98.2334Z" fill="#EBEBEB"/>
<path d="M123.855 71.3409C120.45 73.9665 119.466 79.713 119.295 83.7642C119.279 84.1335 118.703 84.1353 118.719 83.7642C118.9 79.4736 119.876 73.6872 123.564 70.8435C123.858 70.6173 124.145 71.1174 123.855 71.3409Z" fill="#F5F5F5"/>
<path d="M115.95 68.4043C116.818 68.3041 117.55 69.1918 117.927 69.844C119.886 73.2301 119.128 78.3406 118.757 81.9739C118.72 82.339 118.143 82.3429 118.181 81.9739C118.542 78.4375 119.198 73.831 117.601 70.4701C117.326 69.8932 116.74 68.8891 115.95 68.9803C115.583 69.0226 115.586 68.4463 115.95 68.4043Z" fill="#E6E6E6"/>
<path d="M113.842 73.055C117.484 72.1559 117.939 80.231 118.047 81.9728C118.069 82.343 117.493 82.3415 117.471 81.9728C117.325 79.6166 117.208 76.241 115.504 74.3501C115.16 73.9679 114.561 73.4705 113.995 73.6103C113.635 73.6994 113.482 73.1441 113.842 73.055Z" fill="#E6E6E6"/>
<path d="M124.637 76.9735C121.627 74.7433 120.646 80.6038 120.48 82.2928C120.444 82.6582 119.868 82.6621 119.904 82.2928C120.093 80.3764 120.384 76.9045 122.598 76.0993C123.357 75.8233 124.281 75.997 124.928 76.4764C125.223 76.6945 124.936 77.1946 124.637 76.9735Z" fill="#E6E6E6"/>
<path d="M112.658 78.0315C113.11 77.574 113.805 77.2701 114.45 77.3784C116.287 77.6868 116.797 80.4582 117.075 81.8964C117.146 82.2585 116.591 82.4136 116.52 82.0494C116.28 80.8083 115.122 76.3578 113.066 78.4386C112.805 78.7029 112.397 78.2955 112.658 78.0315Z" fill="#F5F5F5"/>
<path d="M123.504 96.9184H114.794C113.266 95.6209 112.293 93.6907 112.293 91.528C112.293 89.0578 113.681 81.6475 113.681 81.6475H124.617C124.617 81.6475 126.005 89.0578 126.005 91.528C126.005 93.6907 125.032 95.6209 123.504 96.9184Z" fill="#EBEBEB"/>
<path d="M124.89 79.8158C122.263 79.8158 119.693 78.7511 119.149 77.4377C118.605 76.1243 120.293 75.0596 122.92 75.0596C123.787 75.0596 124.647 75.1775 125.431 75.3803C126.047 75.1775 126.809 75.0596 127.676 75.0596C130.303 75.0596 132.873 76.1243 133.417 77.4377C133.961 78.7511 132.273 79.8158 129.646 79.8158H124.89Z" fill="#F5F5F5"/>
<path d="M107.753 74.7234C105.604 74.7234 104.734 73.8525 105.808 72.7782C106.882 71.7039 109.495 70.833 111.643 70.833C112.353 70.833 112.919 70.9296 113.326 71.0955C114.064 70.9296 114.824 70.833 115.533 70.833C117.682 70.833 118.553 71.7039 117.478 72.7782C116.404 73.8525 113.792 74.7234 111.643 74.7234H107.753Z" fill="#F0F0F0"/>
<path d="M127.51 72.7796C124.807 72.7796 121.52 71.684 120.169 70.3322C118.817 68.9807 119.913 67.8848 122.616 67.8848C123.508 67.8848 124.464 68.0063 125.393 68.2148C125.905 68.006 126.618 67.8848 127.51 67.8848C130.214 67.8848 133.5 68.9804 134.852 70.3322C136.204 71.684 135.108 72.7796 132.405 72.7796H127.51Z" fill="#EBEBEB"/>
<path d="M112.485 69.6183C111.134 69.6183 110.265 69.0705 110.545 68.3946C110.825 67.7187 112.147 67.1709 113.499 67.1709C113.945 67.1709 114.337 67.2315 114.654 67.3359C115.058 67.2315 115.5 67.1709 115.946 67.1709C117.298 67.1709 118.166 67.7187 117.887 68.3946C117.607 69.0705 116.284 69.6183 114.932 69.6183H112.485Z" fill="#F0F0F0"/>
<path d="M110.928 79.4103C109.577 79.4103 108.254 78.8625 107.974 78.1866C107.694 77.5107 108.563 76.9629 109.915 76.9629C110.361 76.9629 110.803 77.0235 111.207 77.1279C111.524 77.0235 111.916 76.9629 112.362 76.9629C113.714 76.9629 115.036 77.5107 115.316 78.1866C115.596 78.8625 114.727 79.4103 113.376 79.4103H110.928Z" fill="#EBEBEB"/>
<path d="M113.434 83.0197C113.581 82.1872 113.681 81.6475 113.681 81.6475H124.617C124.617 81.6475 124.717 82.1869 124.864 83.0197H113.434Z" fill="#F5F5F5"/>
<path d="M112.958 71.5684C112.958 71.5684 109.958 72.5683 109.008 74.2183C109.008 74.2183 109.158 71.8183 112.958 71.5684Z" fill="#FAFAFA"/>
<path d="M114.369 67.6465C114.369 67.6465 113.588 68.0812 113.113 68.731C113.113 68.731 113.35 67.7869 114.369 67.6465Z" fill="#FAFAFA"/>
<path d="M126.004 68.7305C126.004 68.7305 129.254 69.9197 131.255 72.1697C131.255 72.1697 129.703 69.0413 126.004 68.7305Z" fill="#FAFAFA"/>
<path d="M126.004 75.9678C126.004 75.9678 127.955 76.6692 129.404 78.6192C129.404 78.6192 128.803 76.3665 126.004 75.9678Z" fill="#E6E6E6"/>
<path d="M111.254 77.6172C111.254 77.6172 112.004 77.9436 112.104 78.9186C112.104 78.9186 111.404 78.3156 111.254 77.6172Z" fill="#FAFAFA"/>
<path d="M132.172 35.1428V33.7568L92.4828 33.7568V35.1428L132.172 35.1428Z" fill="#F5F5F5"/>
<path d="M103.061 35.1426H96.4219V36.5676V36.8286V38.2536H99.7414C99.7414 37.4667 100.379 36.8286 101.166 36.8286H103.061L103.061 35.1426Z" fill="#E0E0E0"/>
<path d="M100.058 35.1426H95.2188V38.2536H96.7383C96.7383 37.4667 97.3764 36.8286 98.1633 36.8286H100.058L100.058 35.1426Z" fill="#F5F5F5"/>
<path d="M121.594 35.1426H128.233V36.5676V36.8286V38.2536H124.914C124.914 37.4667 124.275 36.8286 123.489 36.8286H121.594V35.1426H121.594Z" fill="#EBEBEB"/>
<path d="M124.594 35.1426H129.433V38.2536H127.914C127.914 37.4667 127.275 36.8286 126.489 36.8286H124.594V35.1426H124.594Z" fill="#F5F5F5"/>
<path d="M117.07 33.8908H120.526C121.133 33.376 121.518 32.6101 121.518 31.7521C121.518 30.772 120.968 24.9502 120.968 24.9502H116.629C116.629 24.9502 116.078 30.772 116.078 31.7521C116.078 32.6101 116.464 33.376 117.07 33.8908Z" fill="#EBEBEB"/>
<path d="M119.266 30.0479C119.251 30.3263 119.242 30.5483 119.242 30.6959C119.242 31.9775 119.818 33.1211 120.724 33.89H125.885C126.791 33.1211 127.367 31.9775 127.367 30.6959C127.367 30.5483 127.359 30.326 127.344 30.0479H119.266Z" fill="#F5F5F5"/>
<path d="M117.062 30.0894C117.055 29.7195 116.754 29.4219 116.384 29.4219H112.342C111.972 29.4219 111.671 29.7195 111.665 30.0894C111.664 30.1065 111.664 30.1224 111.664 30.1392C111.515 30.0918 111.363 30.0648 111.214 30.0648C110.551 30.0648 110.105 30.5823 110.105 31.3527C110.105 32.0898 110.88 32.6406 111.573 32.6406C111.646 32.6406 111.715 32.6319 111.782 32.6196C111.945 33.12 112.243 33.5592 112.635 33.8922H116.091C116.697 33.3774 117.083 32.6115 117.083 31.7535C117.083 31.4865 117.074 30.8598 117.062 30.0894ZM111.573 32.2089C111.104 32.2089 110.537 31.827 110.537 31.3527C110.537 31.152 110.586 30.4965 111.214 30.4965C111.359 30.4965 111.513 30.5331 111.656 30.5973C111.648 31.1295 111.643 31.5483 111.643 31.7538C111.643 31.9068 111.659 32.0556 111.683 32.202C111.648 32.2062 111.612 32.2089 111.573 32.2089Z" fill="#E0E0E0"/>
<path d="M65.6259 22.5801H45.7812V66.0696H65.6259V22.5801Z" fill="#EBEBEB"/>
<path d="M45.7822 22.5801H25.9375V66.0696H45.7822V22.5801Z" fill="#EBEBEB"/>
<path d="M56.6797 93.8066H63.319V95.2316V95.4926V96.9176H59.9995C59.9995 96.1307 59.3614 95.4926 58.5745 95.4926H56.68L56.6797 93.8066Z" fill="#E0E0E0"/>
<path d="M34.8851 93.8066H28.2461V95.2316V95.4926V96.9176H31.5656C31.5656 96.1307 32.2037 95.4926 32.9906 95.4926H34.8851V93.8066Z" fill="#E0E0E0"/>
<path d="M65.6266 66.0703H25.9375V79.7704H65.6266V66.0703Z" fill="#EBEBEB"/>
<path d="M65.6266 79.7686H25.9375V93.4687H65.6266V79.7686Z" fill="#EBEBEB"/>
<path d="M65.625 68.177V66.791L25.9359 66.791V68.177L65.625 68.177Z" fill="#E0E0E0"/>
<path d="M45.7812 24.5667V23.1807L25.9366 23.1807V24.5667L45.7812 24.5667Z" fill="#E0E0E0"/>
<path d="M65.625 24.5667V23.1807L45.7803 23.1807V24.5667L65.625 24.5667Z" fill="#E0E0E0"/>
<path d="M65.625 81.7688V80.3828L25.9359 80.3828V81.7688L65.625 81.7688Z" fill="#E0E0E0"/>
<path d="M65.6243 21.8867H64.9313H26.6282H25.9352H25.2422V94.0679H25.9352H26.6282H64.9313H65.6243H66.3173V21.8867H65.6243ZM64.9313 66.9194V79.1075H26.6282V66.9194H64.9313ZM46.4726 65.5331V23.2727H64.931V65.5331H46.4726ZM45.0866 23.2727V65.5331H26.6282V23.2727H45.0866ZM26.6282 92.6819V80.4935H64.9313V92.6819H26.6282Z" fill="#F5F5F5"/>
<path d="M31.8812 93.8066H25.2422V95.2316V95.4926V96.9176H28.5617C28.5617 96.1307 29.1998 95.4926 29.9867 95.4926H31.8812V93.8066Z" fill="#F5F5F5"/>
<path d="M59.6797 93.8066H66.319V95.2316V95.4926V96.9176H62.9995C62.9995 96.1307 62.3614 95.4926 61.5745 95.4926H59.68L59.6797 93.8066Z" fill="#F5F5F5"/>
<path d="M47.4834 74.1187C47.4834 75.058 46.722 75.8194 45.7827 75.8194C44.8434 75.8194 44.082 75.058 44.082 74.1187C44.082 73.1794 44.8434 72.418 45.7827 72.418C46.7217 72.4177 47.4834 73.1794 47.4834 74.1187Z" fill="#E0E0E0"/>
<path d="M47.4834 72.9195C47.4834 73.8588 46.722 74.6202 45.7827 74.6202C44.8434 74.6202 44.082 73.8588 44.082 72.9195C44.082 71.9802 44.8434 71.2188 45.7827 71.2188C46.7217 71.2185 47.4834 71.9802 47.4834 72.9195Z" fill="#F5F5F5"/>
<path d="M47.4834 87.8189C47.4834 88.7582 46.722 89.5196 45.7827 89.5196C44.8434 89.5196 44.082 88.7582 44.082 87.8189C44.082 86.8796 44.8434 86.1182 45.7827 86.1182C46.7217 86.1182 47.4834 86.8796 47.4834 87.8189Z" fill="#E0E0E0"/>
<path d="M47.4834 86.6187C47.4834 87.558 46.722 88.3194 45.7827 88.3194C44.8434 88.3194 44.082 87.558 44.082 86.6187C44.082 85.6794 44.8434 84.918 45.7827 84.918C46.7217 84.918 47.4834 85.6794 47.4834 86.6187Z" fill="#F5F5F5"/>
<path d="M43.533 43.4735C43.533 43.0037 43.1523 42.623 42.6825 42.623C42.2127 42.623 41.832 43.0037 41.832 43.4735C41.832 43.7117 41.832 46.1363 41.832 46.3742C41.832 46.844 42.2127 47.2247 42.6825 47.2247C43.1523 47.2247 43.533 46.844 43.533 46.3742C43.533 46.1171 43.533 43.7306 43.533 43.4735Z" fill="#E0E0E0"/>
<path d="M43.533 42.2743C43.533 41.8045 43.1523 41.4238 42.6825 41.4238C42.2127 41.4238 41.832 41.8045 41.832 42.2743C41.832 42.5125 41.832 44.9371 41.832 45.175C41.832 45.6448 42.2127 46.0255 42.6825 46.0255C43.1523 46.0255 43.533 45.6448 43.533 45.175C43.533 44.9179 43.533 42.5314 43.533 42.2743Z" fill="#F5F5F5"/>
<path d="M49.783 43.4735C49.783 43.0037 49.4023 42.623 48.9325 42.623C48.4627 42.623 48.082 43.0037 48.082 43.4735C48.082 43.7117 48.082 46.1363 48.082 46.3742C48.082 46.844 48.4627 47.2247 48.9325 47.2247C49.4023 47.2247 49.783 46.844 49.783 46.3742C49.783 46.1171 49.783 43.7306 49.783 43.4735Z" fill="#E0E0E0"/>
<path d="M49.783 42.2743C49.783 41.8045 49.4023 41.4238 48.9325 41.4238C48.4627 41.4238 48.082 41.8045 48.082 42.2743C48.082 42.5125 48.082 44.9371 48.082 45.175C48.082 45.6448 48.4627 46.0255 48.9325 46.0255C49.4023 46.0255 49.783 45.6448 49.783 45.175C49.783 44.9179 49.783 42.5314 49.783 42.2743Z" fill="#F5F5F5"/>
<path d="M132.172 48.096V46.71L92.4828 46.71V48.096L132.172 48.096Z" fill="#F5F5F5"/>
<path d="M103.061 48.0967H96.4219V49.5217V49.7827V51.2077H99.7414C99.7414 50.4208 100.379 49.7827 101.166 49.7827H103.061L103.061 48.0967Z" fill="#E0E0E0"/>
<path d="M100.058 48.0967H95.2188V51.2077H96.7383C96.7383 50.4208 97.3764 49.7827 98.1633 49.7827H100.058L100.058 48.0967Z" fill="#F5F5F5"/>
<path d="M121.594 48.0967H128.233V49.5217V49.7827V51.2077H124.914C124.914 50.4208 124.275 49.7827 123.489 49.7827H121.594V48.0967H121.594Z" fill="#EBEBEB"/>
<path d="M124.594 48.0967H129.433V51.2077H127.914C127.914 50.4208 127.275 49.7827 126.489 49.7827H124.594V48.0967H124.594Z" fill="#F5F5F5"/>
<path d="M113.777 42.4539C113.777 40.149 115.646 38.2803 117.951 38.2803C120.256 38.2803 122.125 40.149 122.125 42.4539V46.7727H113.777V42.4539Z" fill="#F0F0F0"/>
<path d="M121.131 43.213C121.545 41.4604 120.46 39.7042 118.707 39.2904C116.955 38.8765 115.198 39.9618 114.784 41.7144C114.371 43.467 115.456 45.2232 117.208 45.637C118.961 46.0508 120.717 44.9656 121.131 43.213Z" fill="#FAFAFA"/>
<path d="M117.956 39.7082C119.67 39.7082 121.072 41.0312 121.204 42.7115C121.21 42.6263 121.217 42.5411 121.217 42.4541C121.217 40.6532 119.757 39.1934 117.956 39.1934C116.155 39.1934 114.695 40.6532 114.695 42.4541C114.695 42.5411 114.702 42.6263 114.708 42.7115C114.84 41.0315 116.242 39.7082 117.956 39.7082Z" fill="#E0E0E0"/>
<path d="M120.01 42.4521C119.912 42.4521 118.859 42.4521 118.295 42.4521C118.295 41.8878 118.295 40.8333 118.295 40.7376C118.295 40.5471 118.141 40.3926 117.95 40.3926C117.76 40.3926 117.605 40.5471 117.605 40.7376C117.605 40.8666 117.605 42.6678 117.605 42.7971C117.605 42.9876 117.76 43.1421 117.95 43.1421C118.077 43.1421 119.884 43.1421 120.01 43.1421C120.2 43.1421 120.355 42.9876 120.355 42.7971C120.355 42.6066 120.2 42.4521 120.01 42.4521Z" fill="#E0E0E0"/>
<path d="M120.01 42.7994C120.2 42.7994 120.355 42.6449 120.355 42.4544C120.355 42.2639 120.2 42.1094 120.01 42.1094C119.881 42.1094 118.08 42.1094 117.95 42.1094C117.76 42.1094 117.605 42.2639 117.605 42.4544C117.605 42.6449 117.76 42.7994 117.95 42.7994C118.077 42.7994 119.884 42.7994 120.01 42.7994Z" fill="#F5F5F5"/>
<path d="M118.295 40.3948C118.295 40.2043 118.141 40.0498 117.95 40.0498C117.76 40.0498 117.605 40.2043 117.605 40.3948C117.605 40.5238 117.605 42.325 117.605 42.4543C117.605 42.6448 117.76 42.7993 117.95 42.7993C118.141 42.7993 118.295 42.6448 118.295 42.4543C118.295 42.328 118.295 40.5211 118.295 40.3948Z" fill="#EBEBEB"/>
<path d="M73.5573 110.629C105.682 110.629 131.724 109.108 131.724 107.232C131.724 105.356 105.682 103.835 73.5573 103.835C41.4327 103.835 15.3906 105.356 15.3906 107.232C15.3906 109.108 41.4327 110.629 73.5573 110.629Z" fill="#F5F5F5"/>
<path d="M99.0567 98.5339H67.6512C65.0694 98.5339 63.0861 96.4411 63.2214 93.8593L67.302 15.9988C67.4373 13.417 69.6399 11.3242 72.2217 11.3242H103.627C106.209 11.3242 108.193 13.417 108.057 15.9988L103.977 93.8593C103.841 96.4411 101.638 98.5339 99.0567 98.5339Z" fill="#0085F9"/>
<path d="M103.465 14.459H72.0592C70.4245 14.459 69.0247 15.7889 68.9392 17.4236L65.008 92.4341C64.9222 94.0688 66.1825 95.3987 67.8172 95.3987H99.223C100.858 95.3987 102.258 94.0688 102.343 92.4341L106.274 17.4236C106.36 15.7889 105.099 14.459 103.465 14.459Z" fill="#0085F9"/>
<path opacity="0.8" d="M103.465 14.459H72.0592C70.4245 14.459 69.0247 15.7889 68.9392 17.4236L65.008 92.4341C64.9222 94.0688 66.1825 95.3987 67.8172 95.3987H99.223C100.858 95.3987 102.258 94.0688 102.343 92.4341L106.274 17.4236C106.36 15.7889 105.099 14.459 103.465 14.459Z" fill="white"/>
<path d="M106.194 11.3242H103.629C106.211 11.3242 108.194 13.417 108.059 15.9988L103.978 93.8593C103.843 96.4411 101.64 98.5339 99.0586 98.5339H101.624C104.205 98.5339 106.408 96.4411 106.543 93.8593L110.624 15.9988C110.759 13.4173 108.776 11.3242 106.194 11.3242Z" fill="#0085F9"/>
<path opacity="0.4" d="M106.194 11.3242H103.629C106.211 11.3242 108.194 13.417 108.059 15.9988L103.978 93.8593C103.843 96.4411 101.64 98.5339 99.0586 98.5339H101.624C104.205 98.5339 106.408 96.4411 106.543 93.8593L110.624 15.9988C110.759 13.4173 108.776 11.3242 106.194 11.3242Z" fill="white"/>
<path opacity="0.4" d="M72.0547 14.4593L76.3198 95.399H87.4348L83.1697 14.459H72.0586C72.0574 14.459 72.0559 14.4593 72.0547 14.4593Z" fill="white"/>
<path opacity="0.4" d="M89.4331 95.399H91.9336L87.6685 14.459H85.168L89.4331 95.399Z" fill="white"/>
<path d="M73.6421 9.95945C74.009 9.95945 74.3756 9.95945 74.7425 9.95945C74.9162 9.95945 74.9165 9.68945 74.7425 9.68945C74.3756 9.68945 74.009 9.68945 73.6421 9.68945C73.4684 9.68945 73.4681 9.95945 73.6421 9.95945Z" fill="#0085F9"/>
<path d="M65.6374 18.8465C65.7046 17.5625 65.6518 16.19 65.9296 14.93C66.5674 12.0371 69.1642 10.0577 72.0733 9.95955C72.2467 9.95355 72.2473 9.68355 72.0733 9.68955C69.4747 9.77715 67.123 11.2577 66.0622 13.6673C65.356 15.2711 65.4574 17.1293 65.3674 18.8465C65.3581 19.0202 65.6281 19.0196 65.6374 18.8465Z" fill="#0085F9"/>
<path d="M90.237 30.5263H83.0355C81.6825 30.5263 80.6433 29.4295 80.7144 28.0768L81.0918 20.8753C81.1626 19.5223 82.317 18.4258 83.6697 18.4258H90.8712C92.2242 18.4258 93.2634 19.5226 93.1926 20.8753L92.8152 28.0768C92.7441 29.4295 91.5897 30.5263 90.237 30.5263Z" fill="white"/>
<path d="M85.6393 25.5624C85.1773 25.0947 84.8659 24.3804 84.7972 23.5536C84.787 23.5545 84.7768 23.5557 84.7663 23.5557C84.475 23.5557 84.2554 23.2356 84.2761 22.8411C84.2968 22.4463 84.5497 22.1265 84.841 22.1265C84.8668 22.1265 84.8917 22.1298 84.9163 22.1346C84.9328 22.0698 84.9514 22.0062 84.9706 21.9429C86.7061 21.8484 87.6847 21.2745 88.201 20.808C88.4299 21.2292 88.7905 21.6528 89.3413 21.7878C89.3692 21.9003 89.3923 22.0161 89.41 22.1346C89.4349 22.1298 89.4604 22.1265 89.4862 22.1265C89.7775 22.1265 89.9968 22.4466 89.9761 22.8411C89.9554 23.2359 89.7025 23.5557 89.4112 23.5557C89.4007 23.5557 89.3908 23.5545 89.3806 23.5536C89.2351 24.3279 88.8871 25.0032 88.4242 25.4697C88.6828 25.5687 89.0812 25.6332 89.6956 25.5975C91.4494 25.4955 90.5239 21.888 89.5795 20.595C89.0005 19.8021 88.6837 19.4325 88.3501 19.5813C87.9859 19.3809 85.7872 18.4728 84.3649 21.1395C82.8883 23.9094 82.4506 26.4288 85.6393 25.5624Z" fill="#0085F9"/>
<path d="M90.4707 27.5032L88.6557 26.9248C88.6557 26.9248 87.0867 27.5275 86.7141 29.0158C86.4975 27.5275 84.9915 26.9248 84.9915 26.9248L83.1159 27.5032C81.9921 27.6598 81.4446 28.6237 81.1797 29.6188C81.6 30.172 82.2663 30.526 83.0343 30.526H90.2358C91.0038 30.526 91.7073 30.172 92.1855 29.6188C92.0247 28.6237 91.578 27.6598 90.4707 27.5032Z" fill="#0085F9"/>
<path d="M95.4481 29.4637C95.4556 29.3194 95.4523 29.1776 95.4403 29.0384L96.1552 28.4219C96.0868 28.1192 95.9818 27.8318 95.8447 27.5639L94.924 27.6107C94.7641 27.3833 94.5721 27.1808 94.3537 27.0089L94.4488 26.0909C94.189 25.9397 93.9076 25.8197 93.6094 25.7354L92.9572 26.4182C92.8192 26.399 92.6779 26.3882 92.5333 26.3882C92.389 26.3882 92.2465 26.399 92.1064 26.4182L91.5259 25.7354C91.219 25.8197 90.925 25.9397 90.6493 26.0909L90.6481 27.0089C90.4117 27.1808 90.1984 27.3833 90.0148 27.6107L89.0992 27.5639C88.9339 27.8318 88.7989 28.1192 88.6987 28.4219L89.3491 29.0384C89.3224 29.1776 89.3044 29.3191 89.2969 29.4637C89.2894 29.608 89.2927 29.7499 89.3047 29.8891L88.5898 30.5057C88.6582 30.8084 88.7632 31.0958 88.9003 31.3637L89.8207 31.3169C89.9806 31.5443 90.1726 31.7468 90.391 31.9187L90.2959 32.8367C90.5557 32.9879 90.8371 33.1079 91.1353 33.1922L91.7875 32.5094C91.9255 32.5286 92.0668 32.5394 92.2114 32.5394C92.3557 32.5394 92.4982 32.5286 92.6383 32.5094L93.2188 33.1922C93.5257 33.1079 93.8197 32.9879 94.0954 32.8367L94.0966 31.9187C94.333 31.7468 94.5463 31.5443 94.7299 31.3169L95.6455 31.3637C95.8108 31.0958 95.9458 30.8081 96.046 30.5057L95.3956 29.8891C95.4223 29.7502 95.4406 29.6083 95.4481 29.4637ZM92.3221 30.4283C91.7893 30.4283 91.3801 29.9966 91.408 29.4637C91.4359 28.9309 91.8904 28.4993 92.4232 28.4993C92.956 28.4993 93.3649 28.9309 93.337 29.4637C93.3091 29.9966 92.8546 30.4283 92.3221 30.4283Z" fill="#0085F9"/>
<path opacity="0.4" d="M95.4481 29.4637C95.4556 29.3194 95.4523 29.1776 95.4403 29.0384L96.1552 28.4219C96.0868 28.1192 95.9818 27.8318 95.8447 27.5639L94.924 27.6107C94.7641 27.3833 94.5721 27.1808 94.3537 27.0089L94.4488 26.0909C94.189 25.9397 93.9076 25.8197 93.6094 25.7354L92.9572 26.4182C92.8192 26.399 92.6779 26.3882 92.5333 26.3882C92.389 26.3882 92.2465 26.399 92.1064 26.4182L91.5259 25.7354C91.219 25.8197 90.925 25.9397 90.6493 26.0909L90.6481 27.0089C90.4117 27.1808 90.1984 27.3833 90.0148 27.6107L89.0992 27.5639C88.9339 27.8318 88.7989 28.1192 88.6987 28.4219L89.3491 29.0384C89.3224 29.1776 89.3044 29.3191 89.2969 29.4637C89.2894 29.608 89.2927 29.7499 89.3047 29.8891L88.5898 30.5057C88.6582 30.8084 88.7632 31.0958 88.9003 31.3637L89.8207 31.3169C89.9806 31.5443 90.1726 31.7468 90.391 31.9187L90.2959 32.8367C90.5557 32.9879 90.8371 33.1079 91.1353 33.1922L91.7875 32.5094C91.9255 32.5286 92.0668 32.5394 92.2114 32.5394C92.3557 32.5394 92.4982 32.5286 92.6383 32.5094L93.2188 33.1922C93.5257 33.1079 93.8197 32.9879 94.0954 32.8367L94.0966 31.9187C94.333 31.7468 94.5463 31.5443 94.7299 31.3169L95.6455 31.3637C95.8108 31.0958 95.9458 30.8081 96.046 30.5057L95.3956 29.8891C95.4223 29.7502 95.4406 29.6083 95.4481 29.4637ZM92.3221 30.4283C91.7893 30.4283 91.3801 29.9966 91.408 29.4637C91.4359 28.9309 91.8904 28.4993 92.4232 28.4993C92.956 28.4993 93.3649 28.9309 93.337 29.4637C93.3091 29.9966 92.8546 30.4283 92.3221 30.4283Z" fill="white"/>
<path d="M92.3217 30.429C91.7889 30.429 91.3797 29.9973 91.4076 29.4645C91.4355 28.9317 91.89 28.5 92.4228 28.5C92.9556 28.5 93.3645 28.9317 93.3366 29.4645C93.3087 29.9973 92.8542 30.429 92.3217 30.429Z" fill="white"/>
<path d="M86.1306 63.7274H85.1094L85.2015 61.9697H86.2227L86.1306 63.7274Z" fill="#0085F9"/>
<path d="M90.7907 63.7278H89.7695L89.9213 60.8301H90.9425L90.7907 63.7278Z" fill="#0085F9"/>
<path d="M95.4431 63.7272H94.4219L94.6334 59.6895H95.6546L95.4431 63.7272Z" fill="#0085F9"/>
<path d="M100.099 63.7265H99.0781L99.3493 58.5488H100.371L100.099 63.7265Z" fill="white"/>
<path d="M72.0222 63.7244C72.4956 63.7244 74.1447 63.7244 74.6178 63.7244C75.0912 63.7244 76.7403 63.7244 77.2134 63.7244C78.6471 63.7244 79.8699 62.5622 79.9452 61.1288C80.0202 59.6951 78.9192 58.5332 77.4855 58.5332C77.0121 58.5332 75.363 58.5332 74.8896 58.5332C74.4162 58.5332 72.7671 58.5332 72.294 58.5332C70.8603 58.5332 69.6372 59.6954 69.5622 61.1288C69.4872 62.5622 70.5885 63.7244 72.0222 63.7244Z" fill="white"/>
<path d="M72.2639 59.1032C72.7373 59.1032 74.3864 59.1032 74.8598 59.1032C75.3332 59.1032 76.9823 59.1032 77.4554 59.1032C78.7926 59.1032 79.8399 60.1145 79.9137 61.4138C79.9286 61.3202 79.9401 61.2251 79.9449 61.1288C80.0199 59.6951 78.9188 58.5332 77.4851 58.5332C77.0117 58.5332 75.3626 58.5332 74.8892 58.5332C74.4158 58.5332 72.7667 58.5332 72.2936 58.5332C70.8599 58.5332 69.6371 59.6954 69.5618 61.1288C69.5567 61.2251 69.5579 61.3202 69.5633 61.4138C69.7736 60.1145 70.9268 59.1032 72.2639 59.1032Z" fill="#0085F9"/>
<path opacity="0.3" d="M72.2639 59.1032C72.7373 59.1032 74.3864 59.1032 74.8598 59.1032C75.3332 59.1032 76.9823 59.1032 77.4554 59.1032C78.7926 59.1032 79.8399 60.1145 79.9137 61.4138C79.9286 61.3202 79.9401 61.2251 79.9449 61.1288C80.0199 59.6951 78.9188 58.5332 77.4851 58.5332C77.0117 58.5332 75.3626 58.5332 74.8892 58.5332C74.4158 58.5332 72.7667 58.5332 72.2936 58.5332C70.8599 58.5332 69.6371 59.6954 69.5618 61.1288C69.5567 61.2251 69.5579 61.3202 69.5633 61.4138C69.7736 60.1145 70.9268 59.1032 72.2639 59.1032Z" fill="white"/>
<path d="M69.5622 61.1291C69.6372 59.6954 70.8603 58.5332 72.294 58.5332C73.7277 58.5332 74.8287 59.6954 74.7537 61.1291C74.6787 62.5628 73.4556 63.7247 72.0219 63.7247C70.5882 63.725 69.4869 62.5628 69.5622 61.1291Z" fill="#0085F9"/>
<path d="M69.1032 86.095H68.082L68.2038 83.7676H69.225L69.1032 86.095Z" fill="#0085F9"/>
<path d="M72.8845 85.5264H71.8633L71.9104 84.624H72.9316L72.8845 85.5264Z" fill="#0085F9"/>
<path d="M76.6267 85.8103H75.6055L75.6826 84.3379H76.7038L76.6267 85.8103Z" fill="#0085F9"/>
<path d="M80.4001 85.5264H79.3789L79.4263 84.624H80.4475L80.4001 85.5264Z" fill="#0085F9"/>
<path d="M84.1267 86.095H83.1055L83.2273 83.7676H84.2485L84.1267 86.095Z" fill="#0085F9"/>
<path d="M87.9082 85.5264H86.8867L86.9341 84.624H87.9553L87.9082 85.5264Z" fill="#0085F9"/>
<path d="M91.6501 85.8103H90.6289L90.706 84.3379H91.7272L91.6501 85.8103Z" fill="#0085F9"/>
<path d="M95.4196 85.5264H94.3984L94.4458 84.624H95.467L95.4196 85.5264Z" fill="#0085F9"/>
<path d="M99.1462 86.095H98.125L98.2468 83.7676H99.268L99.1462 86.095Z" fill="#0085F9"/>
<g opacity="0.3">
<path d="M69.1032 86.095H68.082L68.2038 83.7676H69.225L69.1032 86.095Z" fill="black"/>
<path d="M72.8845 85.5264H71.8633L71.9104 84.624H72.9316L72.8845 85.5264Z" fill="black"/>
<path d="M76.6267 85.8103H75.6055L75.6826 84.3379H76.7038L76.6267 85.8103Z" fill="black"/>
<path d="M80.4001 85.5264H79.3789L79.4263 84.624H80.4475L80.4001 85.5264Z" fill="black"/>
<path d="M84.1267 86.095H83.1055L83.2273 83.7676H84.2485L84.1267 86.095Z" fill="black"/>
<path d="M87.9082 85.5264H86.8867L86.9341 84.624H87.9553L87.9082 85.5264Z" fill="black"/>
<path d="M91.6501 85.8103H90.6289L90.706 84.3379H91.7272L91.6501 85.8103Z" fill="black"/>
<path d="M95.4196 85.5264H94.3984L94.4458 84.624H95.467L95.4196 85.5264Z" fill="black"/>
<path d="M99.1462 86.095H98.125L98.2468 83.7676H99.268L99.1462 86.095Z" fill="black"/>
</g>
<path d="M81.2402 86.4795C81.2537 86.2233 81.3005 85.3314 81.3137 85.0752C81.3272 84.819 81.374 83.9271 81.3872 83.6709C81.4277 82.8954 80.8322 82.2666 80.0564 82.2666C79.2809 82.2666 78.6191 82.8954 78.5786 83.6709C78.5651 83.9271 78.5183 84.819 78.5051 85.0752C78.4916 85.3314 78.4448 86.2233 78.4316 86.4795C78.3911 87.255 78.9866 87.8838 79.7624 87.8838C80.5379 87.8838 81.1994 87.2553 81.2402 86.4795Z" fill="#0085F9"/>
<path d="M71.3693 76.2384C71.8427 76.2384 73.4918 76.2384 73.9652 76.2384C74.4386 76.2384 76.0877 76.2384 76.5611 76.2384C77.9948 76.2384 79.2176 75.0762 79.2929 73.6428C79.3682 72.2091 78.2669 71.0469 76.8332 71.0469C76.3598 71.0469 74.7107 71.0469 74.2376 71.0469C73.7642 71.0469 72.1151 71.0469 71.6417 71.0469C70.208 71.0469 68.9852 72.2091 68.9099 73.6428C68.8346 75.0762 69.9359 76.2384 71.3693 76.2384Z" fill="white"/>
<path d="M71.6116 71.6166C72.085 71.6166 73.7341 71.6166 74.2072 71.6166C74.6806 71.6166 76.3297 71.6166 76.8031 71.6166C78.1402 71.6166 79.1875 72.6279 79.2613 73.9275C79.2766 73.8339 79.2877 73.7388 79.2925 73.6425C79.3678 72.2088 78.2665 71.0469 76.8328 71.0469C76.3594 71.0469 74.7103 71.0469 74.2372 71.0469C73.7638 71.0469 72.1147 71.0469 71.6413 71.0469C70.2076 71.0469 68.9845 72.2091 68.9095 73.6425C68.9044 73.7388 68.9056 73.8339 68.911 73.9275C69.1213 72.6279 70.2742 71.6166 71.6116 71.6166Z" fill="#0085F9"/>
<path opacity="0.3" d="M71.6116 71.6166C72.085 71.6166 73.7341 71.6166 74.2072 71.6166C74.6806 71.6166 76.3297 71.6166 76.8031 71.6166C78.1402 71.6166 79.1875 72.6279 79.2613 73.9275C79.2766 73.8339 79.2877 73.7388 79.2925 73.6425C79.3678 72.2088 78.2665 71.0469 76.8328 71.0469C76.3594 71.0469 74.7103 71.0469 74.2372 71.0469C73.7638 71.0469 72.1147 71.0469 71.6413 71.0469C70.2076 71.0469 68.9845 72.2091 68.9095 73.6425C68.9044 73.7388 68.9056 73.8339 68.911 73.9275C69.1213 72.6279 70.2742 71.6166 71.6116 71.6166Z" fill="white"/>
<path d="M74.1013 73.6425C74.1763 72.2088 75.3994 71.0469 76.8331 71.0469C78.2668 71.0469 79.3681 72.2091 79.2928 73.6425C79.2178 75.0762 77.9947 76.2381 76.561 76.2381C75.1276 76.2381 74.0263 75.0759 74.1013 73.6425Z" fill="#0085F9"/>
<path d="M71.8775 39.9251C72.4196 39.9251 99.6455 39.9251 100.188 39.9251C100.948 39.9251 101.598 39.3083 101.637 38.5475C101.677 37.7867 101.093 37.1699 100.332 37.1699C99.7163 37.1699 72.6374 37.1699 72.0218 37.1699C71.261 37.1699 70.6121 37.7867 70.5722 38.5475C70.5323 39.3083 71.1167 39.9251 71.8775 39.9251Z" fill="white"/>
<path d="M72.0214 37.7699C72.637 37.7699 99.7159 37.7699 100.331 37.7699C100.965 37.7699 101.471 38.2001 101.601 38.7824C101.618 38.7056 101.633 38.6279 101.637 38.5475C101.677 37.7867 101.092 37.1699 100.331 37.1699C99.7159 37.1699 72.637 37.1699 72.0214 37.1699C71.2606 37.1699 70.6117 37.7867 70.5718 38.5475C70.5652 38.6747 70.5817 38.7956 70.6078 38.9126C70.7539 38.2643 71.3413 37.7699 72.0214 37.7699Z" fill="#0085F9"/>
<path opacity="0.3" d="M72.0214 37.7699C72.637 37.7699 99.7159 37.7699 100.331 37.7699C100.965 37.7699 101.471 38.2001 101.601 38.7824C101.618 38.7056 101.633 38.6279 101.637 38.5475C101.677 37.7867 101.092 37.1699 100.331 37.1699C99.7159 37.1699 72.637 37.1699 72.0214 37.1699C71.2606 37.1699 70.6117 37.7867 70.5718 38.5475C70.5652 38.6747 70.5817 38.7956 70.6078 38.9126C70.7539 38.2643 71.3413 37.7699 72.0214 37.7699Z" fill="white"/>
<path d="M74.4606 38.5458C74.5356 37.1121 75.7587 35.9502 77.1924 35.9502C78.6261 35.9502 79.7271 37.1124 79.6521 38.5458C79.5768 39.9795 78.354 41.1417 76.9203 41.1417C75.4869 41.1414 74.3856 39.9795 74.4606 38.5458Z" fill="#0085F9"/>
<path d="M99.7054 72.0474C99.7342 71.4948 99.31 71.0469 98.7574 71.0469H97.162H90.4009C89.8486 71.0469 89.377 71.4948 89.3482 72.0474L89.1811 75.2382C89.1523 75.7908 89.5765 76.2387 90.1291 76.2387H96.8902H98.4856C99.0382 76.2387 99.5095 75.7908 99.5383 75.2382L99.7054 72.0474Z" fill="#0085F9"/>
<path d="M90.373 71.6169H97.1341H98.7295C99.2821 71.6169 99.7063 72.0648 99.6775 72.6174L99.7075 72.0474C99.7363 71.4948 99.3121 71.0469 98.7595 71.0469H97.1641H90.403C89.8507 71.0469 89.3791 71.4948 89.3503 72.0474L89.3203 72.6174C89.3491 72.0648 89.8204 71.6169 90.373 71.6169Z" fill="#0085F9"/>
<path opacity="0.3" d="M90.373 71.6169H97.1341H98.7295C99.2821 71.6169 99.7063 72.0648 99.6775 72.6174L99.7075 72.0474C99.7363 71.4948 99.3121 71.0469 98.7595 71.0469H97.1641H90.403C89.8507 71.0469 89.3791 71.4948 89.3503 72.0474L89.3203 72.6174C89.3491 72.0648 89.8204 71.6169 90.373 71.6169Z" fill="black"/>
<path d="M94.5397 72.0474C94.5685 71.4948 94.1443 71.0469 93.5917 71.0469H91.9963H90.4009C89.8486 71.0469 89.377 71.4948 89.3482 72.0474L89.1811 75.2382C89.1523 75.7908 89.5765 76.2387 90.1291 76.2387H91.7245H93.3199C93.8725 76.2387 94.3438 75.7908 94.3726 75.2382L94.5397 72.0474Z" fill="white"/>
<path d="M92.3259 74.5204H91.3047L91.3968 72.7627H92.418L92.3259 74.5204Z" fill="#0085F9"/>
<path d="M99.7421 48.4629C99.2 48.4629 71.9741 48.4629 71.432 48.4629C70.6712 48.4629 70.0223 49.0797 69.9824 49.8405C69.9425 50.6013 70.5269 51.2181 71.2877 51.2181C71.9033 51.2181 98.9822 51.2181 99.5978 51.2181C100.359 51.2181 101.007 50.6013 101.047 49.8405C101.087 49.0797 100.503 48.4629 99.7421 48.4629Z" fill="#0085F9"/>
<path opacity="0.3" d="M71.4318 49.0629C71.9736 49.0629 99.1998 49.0629 99.7419 49.0629C100.376 49.0629 100.881 49.4931 101.011 50.0754C101.028 49.9986 101.043 49.9209 101.047 49.8405C101.087 49.0797 100.503 48.4629 99.7419 48.4629C99.1998 48.4629 71.9739 48.4629 71.4318 48.4629C70.671 48.4629 70.0218 49.0797 69.9819 49.8405C69.9753 49.9677 69.9918 50.0886 70.0179 50.2056C70.164 49.557 70.7514 49.0629 71.4318 49.0629Z" fill="black"/>
<path d="M95.3455 52.435H93.1765C92.3419 52.435 91.7008 51.7585 91.7443 50.9236L91.858 48.7546C91.9018 47.92 92.6137 47.2432 93.4486 47.2432H95.6176C96.4522 47.2432 97.0933 47.9197 97.0498 48.7546L96.9361 50.9236C96.8923 51.7585 96.1804 52.435 95.3455 52.435Z" fill="white"/>
<path d="M94.9782 50.7196H93.957L94.0491 48.9619H95.0703L94.9782 50.7196Z" fill="#0085F9"/>
<path d="M50.3461 40.6821L46.5121 45.0333C46.8223 47.1075 47.4382 53.1192 47.4382 53.1192C46.8625 53.8812 45.4549 53.6652 45.4549 53.6652C45.4549 53.6652 43.6105 49.5099 44.0806 44.6436C44.3524 41.8308 47.959 36.3033 50.5243 34.7373C50.9305 34.4895 51.3727 34.3005 51.8737 34.1679L52.3807 34.1094L50.584 40.7952L50.3461 40.6821Z" fill="#0085F9"/>
<path opacity="0.6" d="M50.3461 40.6821L46.5121 45.0333C46.8223 47.1075 47.4382 53.1192 47.4382 53.1192C46.8625 53.8812 45.4549 53.6652 45.4549 53.6652C45.4549 53.6652 43.6105 49.5099 44.0806 44.6436C44.3524 41.8308 47.959 36.3033 50.5243 34.7373C50.9305 34.4895 51.3727 34.3005 51.8737 34.1679L52.3807 34.1094L50.584 40.7952L50.3461 40.6821Z" fill="black"/>
<path d="M47.2181 53.6063L48.1469 54.6002C48.1775 54.6329 48.2009 54.6716 48.2159 54.7136L48.7619 56.2496C48.7913 56.3321 48.7862 56.423 48.7478 56.5019L48.4832 57.0443C48.4388 57.1352 48.3548 57.2006 48.2555 57.221L46.3724 57.6071C46.193 57.6437 46.0187 57.5261 45.986 57.3458L45.6185 55.3238C45.6113 55.2839 45.6116 55.2431 45.6194 55.2032L45.8717 53.9057C45.8975 53.7731 46.0022 53.6702 46.1354 53.6468L46.9238 53.5079C47.0318 53.4887 47.1428 53.5256 47.2181 53.6063Z" fill="#FAB27B"/>
<path d="M48.0198 53.3772L45.0612 54.72L45.0234 53.2878L47.7513 52.2393L48.0198 53.3772Z" fill="#0085F9"/>
<path opacity="0.5" d="M48.0198 53.3772L45.0612 54.72L45.0234 53.2878L47.7513 52.2393L48.0198 53.3772Z" fill="white"/>
<path d="M46.8755 58.6689C45.1106 64.9782 45.8582 74.2716 44.8895 80.5065C44.222 84.8028 39.668 98.9404 39.668 98.9404L43.6883 100.159C43.6883 100.159 48.7055 87.7078 49.6772 83.9946C51.2531 77.9736 53.6243 66.5508 53.6243 66.5508C53.6243 66.5508 54.5078 63.3093 54.1076 62.9595C53.7077 62.6094 46.8755 58.6689 46.8755 58.6689Z" fill="#0085F9"/>
<path opacity="0.3" d="M51.3008 62.9961L54.2072 63.9387L53.1194 69.0483C53.1194 69.0483 53.657 64.1592 51.3008 62.9961Z" fill="black"/>
<path d="M40.4772 98.7598L39.7578 101.042L41.7054 101.918L42.6723 99.4927L40.4772 98.7598Z" fill="#FAB27B"/>
<path opacity="0.2" d="M40.0469 100.114L42.1049 100.907L42.3791 100.219L40.2146 99.5811L40.0469 100.114Z" fill="black"/>
<path d="M39.7129 97.6914L44.629 99.0363L43.7392 100.618L39.4375 99.3501L39.7129 97.6914Z" fill="#0085F9"/>
<path opacity="0.5" d="M39.7129 97.6914L44.629 99.0363L43.7392 100.618L39.4375 99.3501L39.7129 97.6914Z" fill="white"/>
<path d="M42.1212 102.228C42.1008 102.215 42.0903 102.19 42.0948 102.166C42.0996 102.142 42.1191 102.124 42.1434 102.12C42.1866 102.114 43.1667 101.97 43.5087 102.226C43.5729 102.272 43.6164 102.342 43.6302 102.42C43.6542 102.51 43.6188 102.606 43.5417 102.658C43.3989 102.744 43.0836 102.681 42.7983 102.569C42.5628 102.475 42.3363 102.361 42.1212 102.228ZM42.3258 102.224C42.7323 102.445 43.3128 102.668 43.4778 102.56C43.5006 102.547 43.5276 102.52 43.5138 102.437C43.5075 102.388 43.479 102.345 43.437 102.319C43.407 102.296 43.3737 102.278 43.3383 102.265C43.0062 102.188 42.6627 102.174 42.3258 102.224Z" fill="#0085F9"/>
<path d="M42.0929 102.215C42.0806 102.198 42.0785 102.176 42.0878 102.156C42.1022 102.129 42.4061 101.534 42.7925 101.408C42.9044 101.37 43.0268 101.379 43.1315 101.434C43.2755 101.507 43.2926 101.601 43.2737 101.666C43.2215 101.943 42.4748 102.225 42.1526 102.239C42.1442 102.24 42.1358 102.237 42.1292 102.232C42.1154 102.231 42.1025 102.225 42.0929 102.215ZM43.0547 101.522C42.986 101.495 42.9098 101.493 42.8402 101.517C42.5915 101.648 42.3887 101.852 42.2594 102.101C42.6098 102.045 43.124 101.797 43.1711 101.636C43.1726 101.62 43.1816 101.579 43.0868 101.532L43.0547 101.522Z" fill="#0085F9"/>
<path d="M42.0128 101.816L39.5069 100.834C39.4124 100.797 39.305 100.831 39.2483 100.915L37.9964 102.776C37.8842 102.94 37.9262 103.164 38.0906 103.277C38.1116 103.291 38.1341 103.303 38.1578 103.313C39.0671 103.651 39.89 103.916 41.0138 104.358C42.3407 104.879 41.9418 104.906 43.4934 105.54C44.4285 105.921 45.0194 104.919 44.6414 104.71C42.9071 103.766 42.9335 103.141 42.4856 102.212C42.3821 102.027 42.2138 101.886 42.0128 101.816Z" fill="#263238"/>
<path d="M58.3477 100.618L58.3936 102.816L60.5191 103.022L60.6469 100.618H58.3477Z" fill="#FAB27B"/>
<path opacity="0.2" d="M60.5929 101.639L60.6238 101.062L58.3594 101.157L58.3732 101.828L60.5929 101.639Z" fill="black"/>
<path d="M46.8775 58.6702C47.5426 55.4977 50.1997 52.6816 50.1997 52.6816L60.3925 53.3371C60.3925 53.3371 61.0348 59.8894 61.1848 62.0797C61.4875 66.502 62.7253 73.3663 62.7586 77.8024C62.8033 83.7982 61.4287 99.7225 61.4287 99.7225L57.5779 100.179C57.5779 100.179 57.6352 85.4524 57.0043 79.8976C56.5264 75.6898 53.6533 64.1617 53.6533 64.1617C53.6533 64.1617 45.7621 63.9922 46.8775 58.6702Z" fill="#0085F9"/>
<path d="M56.918 99.5451L62.0051 99.2334L61.673 101.018L57.1919 101.204L56.918 99.5451Z" fill="#0085F9"/>
<path opacity="0.5" d="M56.918 99.5451L62.0051 99.2334L61.673 101.018L57.1919 101.204L56.918 99.5451Z" fill="white"/>
<path d="M60.9795 103.176C60.9558 103.17 60.9381 103.15 60.9342 103.126C60.9306 103.102 60.9429 103.078 60.9648 103.066C61.0035 103.046 61.8822 102.589 62.2893 102.718C62.3652 102.741 62.4291 102.793 62.4678 102.862C62.52 102.939 62.5179 103.041 62.4624 103.116C62.3556 103.244 62.037 103.287 61.7307 103.275C61.4775 103.264 61.2264 103.231 60.9795 103.176ZM61.1715 103.105C61.6278 103.18 62.2494 103.2 62.37 103.045C62.3874 103.026 62.4039 102.991 62.3634 102.917C62.3415 102.873 62.3004 102.841 62.2521 102.831C62.2161 102.819 62.1789 102.813 62.1411 102.812C61.8021 102.847 61.4733 102.947 61.1715 103.105Z" fill="#0085F9"/>
<path d="M60.9462 103.171C60.9291 103.159 60.9198 103.138 60.9222 103.117C60.9267 103.087 61.0188 102.425 61.3428 102.179C61.4361 102.107 61.5546 102.076 61.6716 102.092C61.8318 102.115 61.8786 102.198 61.8822 102.265C61.9239 102.544 61.3107 103.055 61.011 103.174C61.0032 103.178 60.9945 103.178 60.9867 103.175C60.9729 103.179 60.9585 103.177 60.9462 103.171ZM61.6278 102.202C61.554 102.198 61.4814 102.221 61.4232 102.267C61.2309 102.472 61.1064 102.731 61.0662 103.009C61.3788 102.841 61.7832 102.438 61.7748 102.271C61.7709 102.256 61.7658 102.213 61.6611 102.2L61.6278 102.202Z" fill="#0085F9"/>
<path d="M60.7424 102.821L58.0532 102.715C57.9518 102.711 57.8612 102.778 57.8351 102.876L57.2627 105.045C57.2105 105.237 57.3239 105.435 57.5159 105.487C57.5405 105.493 57.5657 105.498 57.5912 105.499C58.5614 105.52 59.4254 105.501 60.6323 105.55C62.0567 105.607 61.6886 105.763 63.362 105.853C64.3703 105.906 64.6004 104.767 64.1747 104.693C62.2265 104.37 62.0465 103.77 61.3187 103.04C61.16 102.898 60.9548 102.821 60.7424 102.821Z" fill="#263238"/>
<path d="M57.5525 31.5974C57.3743 32.165 56.9288 33.1229 57.56 33.9773L54.4961 33.6806C54.4961 33.6806 54.8243 31.4213 55.0142 30.6854C55.1372 30.209 55.2956 29.6915 56.9057 30.1415C57.8207 30.3974 57.6716 31.2173 57.5525 31.5974Z" fill="#FAB27B"/>
<path d="M54.7898 30.761C53.1041 29.4611 49.5389 25.9325 52.9586 22.8521C55.8074 20.2859 58.421 21.7856 59.3141 23.5199C60.3134 25.4603 62.5775 30.6467 57.5534 31.598C56.6273 31.7735 55.6649 31.436 54.7898 30.761Z" fill="#FAB27B"/>
<path d="M52.3789 33.7789C52.3789 33.7789 54.7417 31.7029 59.2321 34.4425L59.17 35.0839L52.4218 34.4305L52.3789 33.7789Z" fill="#0085F9"/>
<path opacity="0.5" d="M52.3789 33.7789C52.3789 33.7789 54.7417 31.7029 59.2321 34.4425L59.17 35.0839L52.4218 34.4305L52.3789 33.7789Z" fill="white"/>
<path opacity="0.1" d="M56.9062 30.9854C56.9231 31.6787 57.1187 32.0387 57.3683 32.2175C57.4487 31.8553 57.5531 31.5964 57.5531 31.5964C56.9504 31.3327 56.9062 30.9854 56.9062 30.9854Z" fill="black"/>
<path d="M58.7078 34.3627C57.7277 34.1404 56.7471 34.0108 55.7649 33.895C54.0234 33.6895 52.6962 33.5545 51.7344 33.9778C50.2035 34.6516 50.0084 35.0857 50.0084 35.0857L50.3121 40.0432C50.3121 40.0432 50.675 42.9031 50.4416 47.2438C50.4404 47.2648 50.3214 51.9697 47.7812 54.4942C47.7812 54.4942 49.3169 55.8325 51.4229 56.1949L52.8569 52.7653L53.3084 56.3776C53.3084 56.3776 58.4732 57.9088 62.7338 56.4973C62.7338 56.4973 60.4007 52.7707 61.1516 48.9607C61.5134 47.1256 61.778 46.2676 61.9826 44.8201C62.177 43.4434 61.9914 42.4759 61.9914 42.4759L61.0334 35.9359C61.0334 35.9359 59.3315 34.504 58.7078 34.3627Z" fill="#0085F9"/>
<path opacity="0.6" d="M58.7078 34.3627C57.7277 34.1404 56.7471 34.0108 55.7649 33.895C54.0234 33.6895 52.6962 33.5545 51.7344 33.9778C50.2035 34.6516 50.0084 35.0857 50.0084 35.0857L50.3121 40.0432C50.3121 40.0432 50.675 42.9031 50.4416 47.2438C50.4404 47.2648 50.3214 51.9697 47.7812 54.4942C47.7812 54.4942 49.3169 55.8325 51.4229 56.1949L52.8569 52.7653L53.3084 56.3776C53.3084 56.3776 58.4732 57.9088 62.7338 56.4973C62.7338 56.4973 60.4007 52.7707 61.1516 48.9607C61.5134 47.1256 61.778 46.2676 61.9826 44.8201C62.177 43.4434 61.9914 42.4759 61.9914 42.4759L61.0334 35.9359C61.0334 35.9359 59.3315 34.504 58.7078 34.3627Z" fill="black"/>
<path d="M61.6777 46.661C61.8001 45.9986 61.9072 45.3737 61.9855 44.819C62.1799 43.4423 61.9942 42.4748 61.9942 42.4748L60.625 40.9346C60.625 40.9346 61.9264 42.788 61.6777 46.661Z" fill="black"/>
<path d="M73.9171 39.5985L74.8624 36.903C74.8813 36.849 74.9203 36.8043 74.9713 36.7782L76.4575 36.0195C76.5388 35.9778 76.6375 35.9904 76.7059 36.0507L77.7649 36.9828C77.8528 37.0599 77.8657 37.1919 77.7949 37.2849L76.7002 38.7234C76.6876 38.7402 76.6774 38.7585 76.6696 38.778C76.5865 38.9919 76.0219 40.3377 74.8198 40.674C74.8051 40.6782 74.791 40.6836 74.7775 40.6908L74.3731 40.9068C74.2744 40.9596 74.152 40.9308 74.0869 40.8399L73.573 40.1214C73.4911 40.0071 73.5343 39.8466 73.6624 39.7887L73.7983 39.7272C73.8541 39.7026 73.897 39.6558 73.9171 39.5985Z" fill="#FAB27B"/>
<path d="M58.6797 34.3594C60.2262 34.7605 61.7337 35.5465 63.1173 37.3942C64.9248 39.8086 67.6101 41.9929 67.6101 41.9929C67.6101 41.9929 71.0772 41.2564 73.2663 39.3634L74.5503 41.2801C74.5503 41.2801 69.2805 45.2527 67.1361 45.0451C65.3064 44.8678 61.9692 42.4861 61.9692 42.4861L60.5979 40.9435L58.6797 34.3594Z" fill="#0085F9"/>
<path opacity="0.6" d="M58.6797 34.3594C60.2262 34.7605 61.7337 35.5465 63.1173 37.3942C64.9248 39.8086 67.6101 41.9929 67.6101 41.9929C67.6101 41.9929 71.0772 41.2564 73.2663 39.3634L74.5503 41.2801C74.5503 41.2801 69.2805 45.2527 67.1361 45.0451C65.3064 44.8678 61.9692 42.4861 61.9692 42.4861L60.5979 40.9435L58.6797 34.3594Z" fill="black"/>
<path d="M73.3922 39.1211L75.3179 41.5112L74.0282 41.8535L72.4922 39.6074L73.3922 39.1211Z" fill="#0085F9"/>
<path opacity="0.5" d="M73.3922 39.1211L75.3179 41.5112L74.0282 41.8535L72.4922 39.6074L73.3922 39.1211Z" fill="white"/>
<path d="M60.5625 27.665V28.5962L61.191 28.5071L60.5625 27.665Z" fill="#E07F50"/>
<path d="M55.6473 33.2311C54.2037 33.3796 49.9392 33.4621 50.4528 30.3397C50.9664 27.2173 50.2707 25.6696 51.5937 23.4718C52.9167 21.2737 55.6755 20.629 58.1556 21.2788C60.2211 21.82 60.3897 23.2663 59.8296 24.1372C59.2695 25.0081 59.016 25.1686 59.1147 25.7863C59.2134 26.404 58.8384 26.7496 58.6761 27.0391C58.5309 27.298 58.0185 27.5161 58.0185 27.5161C58.0185 27.5161 57.8271 28.1947 58.1271 29.3386C58.4271 30.4825 59.0397 32.8822 55.6473 33.2311Z" fill="black"/>
<path d="M57.5666 21.3044C58.2473 21.3797 58.9526 21.5645 59.5625 21.8768C60.0521 22.1273 60.5402 22.5047 60.6506 23.0756C60.8102 23.9021 60.1712 24.6848 59.6645 25.2551C59.5835 25.3463 59.7377 25.4564 59.8181 25.3661C60.7148 24.3572 61.4141 22.9412 60.0914 21.9755C59.3888 21.4625 58.442 21.2108 57.5849 21.116C57.4637 21.1022 57.4454 21.2909 57.5666 21.3044Z" fill="black"/>
<path d="M51.6112 23.4536C50.6584 24.6863 50.6143 26.2982 50.4232 27.767C50.2882 28.8056 49.1185 30.8288 49.9462 31.808C50.0248 31.901 50.1736 31.7837 50.0947 31.6904C49.5298 31.022 50.0938 30.0377 50.2882 29.345C50.4811 28.6577 50.5822 27.9758 50.6557 27.2669C50.7862 26.009 50.9602 24.6056 51.7627 23.567C51.8374 23.4707 51.6856 23.3573 51.6112 23.4536Z" fill="black"/>
<path d="M59.9149 25.8943C59.8987 25.9339 59.9299 25.8661 59.9356 25.8559C59.9554 25.8208 59.9782 25.7878 60.0049 25.7578C60.0988 25.6528 60.2173 25.6183 60.3544 25.6537C60.4666 25.6825 60.5146 25.5091 60.4024 25.48C60.1075 25.4041 59.8522 25.5742 59.7415 25.8463C59.6974 25.9537 59.8717 26.0002 59.9149 25.8943Z" fill="black"/>
<path d="M59.1778 27.2621C59.371 27.8399 59.1877 28.4219 58.7683 28.5623C58.3489 28.7027 57.8521 28.3481 57.6589 27.7703C57.4657 27.1925 57.649 26.6105 58.0684 26.4701C58.4878 26.3297 58.9843 26.6843 59.1778 27.2621Z" fill="#FAB27B"/>
<path d="M60.5894 25.7998C60.5645 26.0152 60.3545 26.0596 60.2456 26.0773C60.1724 26.0893 60.1292 26.2201 60.1496 26.3746C60.17 26.5291 60.2459 26.6467 60.3194 26.6371C60.3929 26.6275 60.4358 26.4943 60.4154 26.3398C60.4091 26.2921 60.3965 26.2501 60.3812 26.212C60.7304 26.0224 60.5894 25.7998 60.5894 25.7998Z" fill="black"/>
</svg>
