<svg width="150" height="112" viewBox="0 0 150 112" fill="none" xmlns="http://www.w3.org/2000/svg">
<path d="M150 98.46H0V98.535H150V98.46Z" fill="#EBEBEB"/>
<path d="M134.968 103.288H125.031V103.363H134.968V103.288Z" fill="#EBEBEB"/>
<path d="M99.3657 104.103H96.7578V104.178H99.3657V104.103Z" fill="#EBEBEB"/>
<path d="M124.734 100.503H118.977V100.578H124.734V100.503Z" fill="#EBEBEB"/>
<path d="M28.6962 101.008H15.7383V101.083H28.6962V101.008Z" fill="#EBEBEB"/>
<path d="M33.2671 101.008H31.3672V101.083H33.2671V101.008Z" fill="#EBEBEB"/>
<path d="M67.5442 102.274H39.4414V102.349H67.5442V102.274Z" fill="#EBEBEB"/>
<path d="M71.103 85.0812H13.1733C12.2292 85.0812 11.4609 84.3129 11.4609 83.3688V1.93992C11.4609 0.995832 12.2292 0.227539 13.1733 0.227539H71.103C72.0468 0.227539 72.8151 0.995832 72.8151 1.93992V83.3688C72.8151 84.3129 72.0468 85.0812 71.103 85.0812ZM13.1733 0.302838C12.2703 0.302838 11.5359 1.03723 11.5359 1.94022V83.3691C11.5359 84.2721 12.2703 85.0065 13.1733 85.0065H71.103C72.0057 85.0065 72.7401 84.2721 72.7401 83.3691V1.93992C72.7401 1.03723 72.0057 0.302538 71.103 0.302538L13.1733 0.302838Z" fill="#EBEBEB"/>
<path d="M135.993 85.0812H78.0637C77.1196 85.0812 76.3516 84.3129 76.3516 83.3688V1.93992C76.3516 0.995832 77.1199 0.227539 78.0637 0.227539H135.993C136.937 0.227539 137.705 0.995832 137.705 1.93992V83.3688C137.706 84.3129 136.937 85.0812 135.993 85.0812ZM78.0637 0.302838C77.161 0.302838 76.4266 1.03723 76.4266 1.94022V83.3691C76.4266 84.2721 77.161 85.0065 78.0637 85.0065H135.993C136.896 85.0065 137.63 84.2721 137.63 83.3691V1.93992C137.63 1.03723 136.896 0.302538 135.993 0.302538L78.0637 0.302838Z" fill="#EBEBEB"/>
<path d="M71.1094 38.0733V43.3428L73.8229 43.5986C74.1892 45.365 74.8891 47.0072 75.8464 48.4661L74.1034 50.5712L77.8297 54.2975L79.9351 52.5542C81.3937 53.5118 83.0362 54.212 84.8026 54.578L85.0582 57.2914H90.328L90.5836 54.578C92.35 54.2117 93.9925 53.5118 95.4511 52.5542L97.5565 54.2975L101.283 50.5712L99.5398 48.4658C100.497 47.0069 101.197 45.365 101.563 43.5986L104.277 43.3428V38.0733L101.563 37.8174C101.197 36.0507 100.497 34.4085 99.5398 32.9499L101.283 30.8446L97.5565 27.1183L95.4511 28.861C93.9925 27.904 92.35 27.2038 90.5836 26.8375L90.328 24.124H85.0582L84.8026 26.8375C83.0362 27.2038 81.3937 27.904 79.9351 28.861L77.8297 27.1183L74.1034 30.8446L75.8464 32.9496C74.8891 34.4082 74.1889 36.0507 73.8229 37.8174L71.1094 38.0733ZM87.6931 33.5739C91.6333 33.5739 94.8271 36.768 94.8271 40.7079C94.8271 44.6477 91.633 47.8418 87.6931 47.8418C83.7532 47.8418 80.5591 44.6477 80.5591 40.7079C80.5591 36.768 83.7532 33.5739 87.6931 33.5739Z" fill="#F0F0F0"/>
<path d="M62.2075 61.6537L63.7201 62.9062L66.3976 60.2287L65.1455 58.7161C65.833 57.6682 66.3361 56.4877 66.5992 55.2187L68.5489 55.0351V51.2492L66.5992 51.0653C66.3361 49.796 65.833 48.6161 65.1455 47.5682L66.3976 46.0556L63.7201 43.3781L62.2075 44.6303C61.1593 43.9427 59.9791 43.4399 58.7101 43.1762L58.5265 41.2266L54.7402 41.2272L54.5569 43.1762C53.2876 43.4396 52.1075 43.9427 51.0596 44.6303L49.5469 43.3781L46.8694 46.0556L48.1219 47.5682C47.434 48.6158 46.9309 49.796 46.6678 51.0653L44.7188 51.2492V55.0354L46.6678 55.219C46.9312 56.488 47.434 57.6682 48.1219 58.7164L46.8694 60.229L49.5469 62.9065L51.0596 61.654C52.1075 62.3419 53.2876 62.8447 54.5569 63.1081L54.7402 65.0574H58.5265L58.7101 63.1078C59.9794 62.8447 61.1593 62.3416 62.2075 61.6537ZM51.5078 53.1422C51.5078 50.3114 53.8025 48.0167 56.6336 48.0167C59.4641 48.0167 61.759 50.3114 61.759 53.1422C61.759 55.9729 59.4641 58.2679 56.6336 58.2679C53.8025 58.2679 51.5078 55.9729 51.5078 53.1422Z" fill="#F5F5F5"/>
<path d="M79.0373 87.3012C80.5484 86.988 81.9533 86.3886 83.2013 85.5699L85.0022 87.0609L88.19 83.8734L86.6987 82.0719C87.5174 80.8245 88.1165 79.4196 88.4297 77.9083L90.7508 77.6899V73.1824L88.4297 72.9637C88.1165 71.4526 87.5174 70.0477 86.6987 68.8L88.19 66.9989L85.0022 63.8117L83.2013 65.3024C81.9533 64.4837 80.5484 63.8846 79.0373 63.5711L78.8189 61.25H74.3108L74.0921 63.5711C72.581 63.8846 71.1764 64.4837 69.9284 65.3024L68.1275 63.8117L64.94 66.9989L66.4307 68.8C65.612 70.0477 65.0132 71.4526 64.7 72.9637L62.3789 73.1824V77.6901L64.7 77.9086C65.0135 79.4199 65.6123 80.8248 66.4307 82.0725L64.94 83.8734L68.1275 87.0609L69.9284 85.5699C71.1761 86.3886 72.581 86.9877 74.0921 87.3012L74.3108 89.6222H78.8189L79.0373 87.3012ZM70.4624 75.436C70.4624 72.0661 73.1945 69.3337 76.565 69.3337C79.9355 69.3337 82.6676 72.0661 82.6676 75.436C82.6676 78.8064 79.9355 81.5385 76.565 81.5385C73.1945 81.5385 70.4624 78.8064 70.4624 75.436Z" fill="#FAFAFA"/>
<path d="M42.4418 32.7552L28.6406 30.8691L26.7546 44.6702L40.5557 46.5562L42.4418 32.7552Z" fill="#F5F5F5"/>
<path d="M30.6133 35.1006L39.5989 36.3291" stroke="#E0E0E0" stroke-width="0.705762" stroke-miterlimit="10"/>
<path d="M30.2266 37.9004L39.2122 39.1289" stroke="#E0E0E0" stroke-width="0.705762" stroke-miterlimit="10"/>
<path d="M29.832 40.7949L35.1234 41.5185" stroke="#E0E0E0" stroke-width="0.705762" stroke-miterlimit="10"/>
<path d="M119.711 17.4059L105.781 17.4561L105.831 31.3852L119.761 31.3351L119.711 17.4059Z" fill="#F0F0F0"/>
<path d="M108.324 21.3745L117.393 21.3418" stroke="#E0E0E0" stroke-width="0.705762" stroke-miterlimit="10"/>
<path d="M108.332 24.1994L117.401 24.167" stroke="#E0E0E0" stroke-width="0.705762" stroke-miterlimit="10"/>
<path d="M108.344 27.1208L113.684 27.1016" stroke="#E0E0E0" stroke-width="0.705762" stroke-miterlimit="10"/>
<path d="M128.069 51.3907L114.25 53.1416L116.001 66.9607L129.82 65.2098L128.069 51.3907Z" fill="#F5F5F5"/>
<path d="M117.25 56.7152L126.247 55.5752" stroke="#E0E0E0" stroke-width="0.705762" stroke-miterlimit="10"/>
<path d="M117.605 59.5179L126.602 58.3779" stroke="#E0E0E0" stroke-width="0.705762" stroke-miterlimit="10"/>
<path d="M117.973 62.4136L123.271 61.7422" stroke="#E0E0E0" stroke-width="0.705762" stroke-miterlimit="10"/>
<path d="M53.984 73.8131L40.0547 73.8633L40.1048 87.7925L54.0341 87.7423L53.984 73.8131Z" fill="#F0F0F0"/>
<path d="M42.5938 77.7795L51.6627 77.7471" stroke="#E0E0E0" stroke-width="0.705762" stroke-miterlimit="10"/>
<path d="M42.6055 80.6056L51.6745 80.5732" stroke="#E0E0E0" stroke-width="0.705762" stroke-miterlimit="10"/>
<path d="M42.6172 83.5267L47.9578 83.5078" stroke="#E0E0E0" stroke-width="0.705762" stroke-miterlimit="10"/>
<path d="M115.507 80.6256L101.578 80.6758L101.628 94.605L115.558 94.5548L115.507 80.6256Z" fill="#F0F0F0"/>
<path d="M104.117 84.5939L113.186 84.5615" stroke="#E0E0E0" stroke-width="0.705762" stroke-miterlimit="10"/>
<path d="M104.129 87.4181L113.198 87.3857" stroke="#E0E0E0" stroke-width="0.705762" stroke-miterlimit="10"/>
<path d="M104.141 90.3402L109.482 90.3213" stroke="#E0E0E0" stroke-width="0.705762" stroke-miterlimit="10"/>
<path d="M56.7931 16.5095L43.1953 19.5293L46.2152 33.127L59.813 30.1071L56.7931 16.5095Z" fill="#F0F0F0"/>
<path d="M46.5156 22.8119L55.3692 20.8457" stroke="#E0E0E0" stroke-width="0.705762" stroke-miterlimit="10"/>
<path d="M47.1289 25.5707L55.9825 23.6045" stroke="#E0E0E0" stroke-width="0.705762" stroke-miterlimit="10"/>
<path d="M47.7656 28.4217L52.9793 27.2637" stroke="#E0E0E0" stroke-width="0.705762" stroke-miterlimit="10"/>
<path d="M29.7725 32.3694H29.5229L29.1797 30.7812H30.1157L29.7725 32.3694Z" fill="#E0E0E0"/>
<path d="M29.6464 31.977C30.3464 31.977 30.9139 31.5303 30.9139 30.9792C30.9139 30.4282 30.3464 29.9814 29.6464 29.9814C28.9464 29.9814 28.3789 30.4282 28.3789 30.9792C28.3789 31.5303 28.9464 31.977 29.6464 31.977Z" fill="#E6E6E6"/>
<path d="M55.2178 18.4905H54.9682L54.625 16.9023H55.561L55.2178 18.4905Z" fill="#E0E0E0"/>
<path d="M55.0956 18.0962C55.7956 18.0962 56.3631 17.6494 56.3631 17.0984C56.3631 16.5473 55.7956 16.1006 55.0956 16.1006C54.3956 16.1006 53.8281 16.5473 53.8281 17.0984C53.8281 17.6494 54.3956 18.0962 55.0956 18.0962Z" fill="#E6E6E6"/>
<path d="M112.542 18.8899H112.292L111.949 17.3018H112.885L112.542 18.8899Z" fill="#E0E0E0"/>
<path d="M112.416 18.4975C113.116 18.4975 113.683 18.0508 113.683 17.4997C113.683 16.9487 113.116 16.502 112.416 16.502C111.716 16.502 111.148 16.9487 111.148 17.4997C111.148 18.0508 111.716 18.4975 112.416 18.4975Z" fill="#E6E6E6"/>
<path d="M126.78 53.387H126.53L126.188 51.7988H127.123L126.78 53.387Z" fill="#E0E0E0"/>
<path d="M126.654 52.9946C127.354 52.9946 127.922 52.5479 127.922 51.9968C127.922 51.4458 127.354 50.999 126.654 50.999C125.954 50.999 125.387 51.4458 125.387 51.9968C125.387 52.5479 125.954 52.9946 126.654 52.9946Z" fill="#E6E6E6"/>
<path d="M108.772 82.219H108.523L108.18 80.6309H109.116L108.772 82.219Z" fill="#E0E0E0"/>
<path d="M108.65 81.8276C109.35 81.8276 109.918 81.3809 109.918 80.8298C109.918 80.2788 109.35 79.832 108.65 79.832C107.95 79.832 107.383 80.2788 107.383 80.8298C107.383 81.3809 107.95 81.8276 108.65 81.8276Z" fill="#E6E6E6"/>
<path d="M46.6433 75.0794H46.3937L46.0508 73.4912H46.9865L46.6433 75.0794Z" fill="#E0E0E0"/>
<path d="M46.5175 74.687C47.2175 74.687 47.785 74.2403 47.785 73.6892C47.785 73.1381 47.2175 72.6914 46.5175 72.6914C45.8175 72.6914 45.25 73.1381 45.25 73.6892C45.25 74.2403 45.8175 74.687 46.5175 74.687Z" fill="#E6E6E6"/>
<path d="M75.0026 112.01C107.127 112.01 133.169 110.489 133.169 108.613C133.169 106.737 107.127 105.216 75.0026 105.216C42.8781 105.216 16.8359 106.737 16.8359 108.613C16.8359 110.489 42.8781 112.01 75.0026 112.01Z" fill="#F5F5F5"/>
<path d="M43.1016 58.3921C43.1016 56.4163 44.4021 54.8086 46.0005 54.8086C47.5989 54.8086 48.8991 56.416 48.8991 58.3921C48.8991 60.3681 47.5986 61.9755 46.0005 61.9755C44.4021 61.9758 43.1016 60.3681 43.1016 58.3921ZM43.7016 58.3921C43.7016 60.0372 44.733 61.3755 46.0005 61.3755C47.268 61.3755 48.2991 60.0372 48.2991 58.3921C48.2991 56.7472 47.268 55.4086 46.0005 55.4086C44.733 55.4089 43.7016 56.7472 43.7016 58.3921Z" fill="#263238"/>
<path d="M37.3984 58.3921C37.3984 56.4163 38.6989 54.8086 40.2973 54.8086C41.8957 54.8086 43.1959 56.416 43.1959 58.3921C43.1959 60.3681 41.8954 61.9755 40.2973 61.9755C38.6989 61.9758 37.3984 60.3681 37.3984 58.3921ZM37.9984 58.3921C37.9984 60.0372 39.0298 61.3755 40.2973 61.3755C41.5648 61.3755 42.5959 60.0372 42.5959 58.3921C42.5959 56.7472 41.5648 55.4086 40.2973 55.4086C39.0298 55.4086 37.9984 56.7472 37.9984 58.3921Z" fill="#263238"/>
<path d="M31.6953 58.3921C31.6953 56.4163 32.9955 54.8086 34.5942 54.8086C36.1926 54.8086 37.4928 56.416 37.4928 58.3921C37.4928 60.3681 36.1923 61.9755 34.5942 61.9755C32.9955 61.9758 31.6953 60.3681 31.6953 58.3921ZM32.2953 58.3921C32.2953 60.0372 33.3267 61.3755 34.5942 61.3755C35.8617 61.3755 36.8928 60.0372 36.8928 58.3921C36.8928 56.7472 35.8617 55.4086 34.5942 55.4086C33.3264 55.4089 32.2953 56.7472 32.2953 58.3921Z" fill="#263238"/>
<path d="M25.9922 58.3921C25.9922 56.4163 27.2927 54.8086 28.8911 54.8086C30.4895 54.8086 31.7897 56.416 31.7897 58.3921C31.7897 60.3681 30.4895 61.9755 28.8911 61.9755C27.2927 61.9758 25.9922 60.3681 25.9922 58.3921ZM26.5922 58.3921C26.5922 60.0372 27.6236 61.3755 28.8911 61.3755C30.1586 61.3755 31.1897 60.0372 31.1897 58.3921C31.1897 56.7472 30.1586 55.4086 28.8911 55.4086C27.6236 55.4089 26.5922 56.7472 26.5922 58.3921Z" fill="#263238"/>
<path d="M48.8086 58.3921C48.8086 56.4163 50.1088 54.8086 51.7075 54.8086C53.3059 54.8086 54.6061 56.416 54.6061 58.3921C54.6061 60.3681 53.3056 61.9755 51.7075 61.9755C50.1091 61.9758 48.8086 60.3681 48.8086 58.3921ZM49.4086 58.3921C49.4086 60.0372 50.44 61.3755 51.7075 61.3755C52.975 61.3755 54.0061 60.0372 54.0061 58.3921C54.0061 56.7472 52.975 55.4086 51.7075 55.4086C50.44 55.4086 49.4086 56.7472 49.4086 58.3921Z" fill="#263238"/>
<path d="M22.2162 107.877H57.9414L57.9414 58.4617L22.2162 58.4617L22.2162 107.877Z" fill="#263238"/>
<path opacity="0.7" d="M22.2162 107.877H57.9414L57.9414 58.4617L22.2162 58.4617L22.2162 107.877Z" fill="white"/>
<path opacity="0.6" d="M25.4379 107.877H57.9414L57.9414 58.4617L25.4379 58.4617L25.4379 107.877Z" fill="white"/>
<path opacity="0.2" d="M23.2922 107.877L23.1422 61.6963L22.9922 107.877H23.2922Z" fill="black"/>
<path opacity="0.2" d="M24.7844 107.876L24.6344 64.5723L24.4844 107.876H24.7844Z" fill="black"/>
<path opacity="0.2" d="M23.7383 58.499L23.8883 93.2174L24.0383 58.499H23.7383Z" fill="black"/>
<path d="M52.5703 60.8117C52.5703 61.3748 52.9468 61.8314 53.4115 61.8314C53.8762 61.8314 54.2527 61.3748 54.2527 60.8117C54.2527 60.2486 53.8762 59.792 53.4115 59.792C52.9468 59.792 52.5703 60.2486 52.5703 60.8117Z" fill="#263238"/>
<path d="M53.4619 61.1127C53.5462 61.1127 53.6299 61.0773 53.6893 61.0086C54.2713 60.3342 54.6049 59.3806 54.6049 58.3921C54.6049 56.4163 53.3044 54.8086 51.7063 54.8086C50.5285 54.8086 49.4767 55.6762 49.0273 57.0187C48.9748 57.1756 49.0594 57.3457 49.2166 57.3985C49.3738 57.4507 49.5439 57.3664 49.5964 57.2092C49.9627 56.1154 50.7907 55.4086 51.7063 55.4086C52.9738 55.4086 54.0049 56.7469 54.0049 58.3921C54.0049 59.239 53.7241 60.0495 53.2351 60.6168C53.1271 60.7422 53.1409 60.9318 53.2663 61.0401C53.323 61.0887 53.3926 61.1127 53.4619 61.1127Z" fill="#263238"/>
<g opacity="0.4">
<path d="M53.4619 61.1127C53.5462 61.1127 53.6299 61.0773 53.6893 61.0086C54.2713 60.3342 54.6049 59.3806 54.6049 58.3921C54.6049 56.4163 53.3044 54.8086 51.7063 54.8086C50.5285 54.8086 49.4767 55.6762 49.0273 57.0187C48.9748 57.1756 49.0594 57.3457 49.2166 57.3985C49.3738 57.4507 49.5439 57.3664 49.5964 57.2092C49.9627 56.1154 50.7907 55.4086 51.7063 55.4086C52.9738 55.4086 54.0049 56.7469 54.0049 58.3921C54.0049 59.239 53.7241 60.0495 53.2351 60.6168C53.1271 60.7422 53.1409 60.9318 53.2663 61.0401C53.323 61.0887 53.3926 61.1127 53.4619 61.1127Z" fill="white"/>
</g>
<path d="M46.8633 60.8117C46.8633 61.3748 47.2401 61.8314 47.7045 61.8314C48.1692 61.8314 48.5457 61.3748 48.5457 60.8117C48.5457 60.2486 48.1689 59.792 47.7045 59.792C47.2401 59.792 46.8633 60.2486 46.8633 60.8117Z" fill="#263238"/>
<path d="M47.7549 61.1127C47.8392 61.1127 47.9229 61.0773 47.9823 61.0086C48.564 60.3342 48.8979 59.3806 48.8979 58.3921C48.8979 56.4163 47.5974 54.8086 45.9993 54.8086C44.8215 54.8086 43.7697 55.6762 43.3203 57.0187C43.2678 57.1756 43.3524 57.3457 43.5096 57.3985C43.6668 57.4507 43.8369 57.3664 43.8894 57.2092C44.2557 56.1154 45.0837 55.4086 45.9993 55.4086C47.2668 55.4086 48.2979 56.7469 48.2979 58.3921C48.2979 59.239 48.0171 60.0495 47.5281 60.6168C47.4201 60.7422 47.4339 60.9318 47.5593 61.0401C47.6157 61.0887 47.6853 61.1127 47.7549 61.1127Z" fill="#263238"/>
<g opacity="0.4">
<path d="M47.7549 61.1127C47.8392 61.1127 47.9229 61.0773 47.9823 61.0086C48.564 60.3342 48.8979 59.3806 48.8979 58.3921C48.8979 56.4163 47.5974 54.8086 45.9993 54.8086C44.8215 54.8086 43.7697 55.6762 43.3203 57.0187C43.2678 57.1756 43.3524 57.3457 43.5096 57.3985C43.6668 57.4507 43.8369 57.3664 43.8894 57.2092C44.2557 56.1154 45.0837 55.4086 45.9993 55.4086C47.2668 55.4086 48.2979 56.7469 48.2979 58.3921C48.2979 59.239 48.0171 60.0495 47.5281 60.6168C47.4201 60.7422 47.4339 60.9318 47.5593 61.0401C47.6157 61.0887 47.6853 61.1127 47.7549 61.1127Z" fill="white"/>
</g>
<path d="M41.1641 60.8117C41.1641 61.3748 41.5406 61.8314 42.0053 61.8314C42.47 61.8314 42.8465 61.3748 42.8465 60.8117C42.8465 60.2486 42.47 59.792 42.0053 59.792C41.5406 59.792 41.1641 60.2486 41.1641 60.8117Z" fill="#263238"/>
<path d="M42.0556 61.1127C42.1399 61.1127 42.2236 61.0773 42.283 61.0086C42.8647 60.3342 43.1986 59.3806 43.1986 58.3921C43.1986 56.4163 41.8981 54.8086 40.3 54.8086C39.1222 54.8086 38.0704 55.6762 37.621 57.0187C37.5685 57.1756 37.6531 57.3457 37.8103 57.3985C37.9675 57.4507 38.1376 57.3664 38.1901 57.2092C38.5564 56.1154 39.3847 55.4086 40.3 55.4086C41.5675 55.4086 42.5986 56.7469 42.5986 58.3921C42.5986 59.239 42.3178 60.0495 41.8288 60.6168C41.7208 60.7422 41.7346 60.9318 41.86 61.0401C41.9164 61.0887 41.986 61.1127 42.0556 61.1127Z" fill="#263238"/>
<g opacity="0.4">
<path d="M42.0556 61.1127C42.1399 61.1127 42.2236 61.0773 42.283 61.0086C42.8647 60.3342 43.1986 59.3806 43.1986 58.3921C43.1986 56.4163 41.8981 54.8086 40.3 54.8086C39.1222 54.8086 38.0704 55.6762 37.621 57.0187C37.5685 57.1756 37.6531 57.3457 37.8103 57.3985C37.9675 57.4507 38.1376 57.3664 38.1901 57.2092C38.5564 56.1154 39.3847 55.4086 40.3 55.4086C41.5675 55.4086 42.5986 56.7469 42.5986 58.3921C42.5986 59.239 42.3178 60.0495 41.8288 60.6168C41.7208 60.7422 41.7346 60.9318 41.86 61.0401C41.9164 61.0887 41.986 61.1127 42.0556 61.1127Z" fill="white"/>
</g>
<path d="M35.4531 60.8117C35.4531 61.3748 35.8299 61.8314 36.2943 61.8314C36.759 61.8314 37.1355 61.3748 37.1355 60.8117C37.1355 60.2486 36.7587 59.792 36.2943 59.792C35.8296 59.792 35.4531 60.2486 35.4531 60.8117Z" fill="#263238"/>
<path d="M36.3486 61.1127C36.4329 61.1127 36.5166 61.0773 36.576 61.0086C37.158 60.3342 37.4916 59.3806 37.4916 58.3921C37.4916 56.4163 36.1911 54.8086 34.593 54.8086C33.4152 54.8086 32.3634 55.6762 31.914 57.0187C31.8615 57.1756 31.9461 57.3457 32.1033 57.3985C32.2605 57.4507 32.4306 57.3664 32.4831 57.2092C32.8494 56.1154 33.6774 55.4086 34.593 55.4086C35.8605 55.4086 36.8916 56.7469 36.8916 58.3921C36.8916 59.239 36.6108 60.0495 36.1218 60.6168C36.0138 60.7422 36.0276 60.9318 36.153 61.0401C36.2094 61.0887 36.279 61.1127 36.3486 61.1127Z" fill="#263238"/>
<g opacity="0.4">
<path d="M36.3486 61.1127C36.4329 61.1127 36.5166 61.0773 36.576 61.0086C37.158 60.3342 37.4916 59.3806 37.4916 58.3921C37.4916 56.4163 36.1911 54.8086 34.593 54.8086C33.4152 54.8086 32.3634 55.6762 31.914 57.0187C31.8615 57.1756 31.9461 57.3457 32.1033 57.3985C32.2605 57.4507 32.4306 57.3664 32.4831 57.2092C32.8494 56.1154 33.6774 55.4086 34.593 55.4086C35.8605 55.4086 36.8916 56.7469 36.8916 58.3921C36.8916 59.239 36.6108 60.0495 36.1218 60.6168C36.0138 60.7422 36.0276 60.9318 36.153 61.0401C36.2094 61.0887 36.279 61.1127 36.3486 61.1127Z" fill="white"/>
</g>
<path d="M29.75 60.8117C29.75 61.3748 30.1268 61.8314 30.5912 61.8314C31.0559 61.8314 31.4324 61.3748 31.4324 60.8117C31.4324 60.2486 31.0556 59.792 30.5912 59.792C30.1265 59.792 29.75 60.2486 29.75 60.8117Z" fill="#263238"/>
<path d="M30.6455 61.1127C30.7298 61.1127 30.8135 61.0773 30.8729 61.0086C31.4546 60.3342 31.7885 59.3806 31.7885 58.3921C31.7885 56.4163 30.4883 54.8086 28.8899 54.8086C27.7121 54.8086 26.6603 55.6762 26.2109 57.0187C26.1584 57.1756 26.243 57.3457 26.4002 57.3985C26.5574 57.4507 26.7275 57.3664 26.78 57.2092C27.1463 56.1154 27.9743 55.4086 28.8899 55.4086C30.1574 55.4086 31.1885 56.7469 31.1885 58.3921C31.1885 59.239 30.9077 60.0495 30.4187 60.6168C30.3107 60.7422 30.3245 60.9318 30.4499 61.0401C30.5063 61.0887 30.5759 61.1127 30.6455 61.1127Z" fill="#263238"/>
<g opacity="0.4">
<path d="M30.6455 61.1127C30.7298 61.1127 30.8135 61.0773 30.8729 61.0086C31.4546 60.3342 31.7885 59.3806 31.7885 58.3921C31.7885 56.4163 30.4883 54.8086 28.8899 54.8086C27.7121 54.8086 26.6603 55.6762 26.2109 57.0187C26.1584 57.1756 26.243 57.3457 26.4002 57.3985C26.5574 57.4507 26.7275 57.3664 26.78 57.2092C27.1463 56.1154 27.9743 55.4086 28.8899 55.4086C30.1574 55.4086 31.1885 56.7469 31.1885 58.3921C31.1885 59.239 30.9077 60.0495 30.4187 60.6168C30.3107 60.7422 30.3245 60.9318 30.4499 61.0401C30.5063 61.0887 30.5759 61.1127 30.6455 61.1127Z" fill="white"/>
</g>
<path d="M34.8268 81.1963H32.3125V85.483H34.8268V81.1963Z" fill="#0085F9"/>
<path d="M38.8971 78.0771H36.3828V85.4835H38.8971V78.0771Z" fill="#0085F9"/>
<path d="M42.9713 79.2471H40.457V85.4834H42.9713V79.2471Z" fill="#0085F9"/>
<path d="M47.0456 76.127H44.5312V85.483H47.0456V76.127Z" fill="#0085F9"/>
<path d="M51.1156 73.0068H48.6016V85.4825H51.1156V73.0068Z" fill="#0085F9"/>
<path opacity="0.5" d="M34.8268 81.1963H32.3125V85.483H34.8268V81.1963Z" fill="white"/>
<path opacity="0.5" d="M38.8971 78.0771H36.3828V85.4835H38.8971V78.0771Z" fill="white"/>
<path opacity="0.5" d="M42.9713 79.2471H40.457V85.4834H42.9713V79.2471Z" fill="white"/>
<path opacity="0.5" d="M47.0456 76.127H44.5312V85.483H47.0456V76.127Z" fill="white"/>
<path opacity="0.5" d="M51.1156 73.0068H48.6016V85.4825H51.1156V73.0068Z" fill="white"/>
<path d="M54.4704 84.8896H28.8594V86.0764H54.4704V84.8896Z" fill="#263238"/>
<path d="M29.6641 81.7302L37.6423 75.3811L41.7151 77.745L52.9285 68.1865" stroke="#0085F9" stroke-width="0.698116" stroke-miterlimit="10"/>
<path d="M53.5827 67.6348L51.9141 67.8934L53.0898 69.1489L53.5827 67.6348Z" fill="#0085F9"/>
<g opacity="0.3">
<path d="M43.3834 89.933H28.8898C28.7242 89.933 28.5898 89.7989 28.5898 89.633C28.5898 89.4671 28.7242 89.333 28.8898 89.333H43.3834C43.549 89.333 43.6834 89.4671 43.6834 89.633C43.6834 89.7989 43.549 89.933 43.3834 89.933Z" fill="black"/>
</g>
<g opacity="0.3">
<path d="M54.5746 92.6146H30.9562C30.7906 92.6146 30.6562 92.4805 30.6562 92.3146C30.6562 92.1487 30.7906 92.0146 30.9562 92.0146H54.5746C54.7402 92.0146 54.8746 92.1487 54.8746 92.3146C54.8746 92.4805 54.7402 92.6146 54.5746 92.6146Z" fill="black"/>
<path d="M54.6097 94.1166H28.8898C28.7242 94.1166 28.5898 93.9825 28.5898 93.8166C28.5898 93.6507 28.7242 93.5166 28.8898 93.5166H54.6094C54.775 93.5166 54.9094 93.6507 54.9094 93.8166C54.9097 93.9825 54.7753 94.1166 54.6097 94.1166Z" fill="black"/>
<path d="M54.6446 95.6205H28.925C28.7594 95.6205 28.625 95.4864 28.625 95.3205C28.625 95.1546 28.7594 95.0205 28.925 95.0205H54.6446C54.8102 95.0205 54.9446 95.1546 54.9446 95.3205C54.9446 95.4864 54.8102 95.6205 54.6446 95.6205Z" fill="black"/>
<path d="M50.4737 97.1244H28.9562C28.7906 97.1244 28.6562 96.9903 28.6562 96.8244C28.6562 96.6585 28.7906 96.5244 28.9562 96.5244H50.4734C50.639 96.5244 50.7734 96.6585 50.7734 96.8244C50.7737 96.99 50.6393 97.1244 50.4737 97.1244Z" fill="black"/>
</g>
<g opacity="0.3">
<path d="M54.5746 99.8187H30.9562C30.7906 99.8187 30.6562 99.6846 30.6562 99.5187C30.6562 99.3528 30.7906 99.2188 30.9562 99.2188H54.5746C54.7402 99.2188 54.8746 99.3528 54.8746 99.5187C54.8746 99.6843 54.7402 99.8187 54.5746 99.8187Z" fill="black"/>
<path d="M54.6097 101.322H28.8898C28.7242 101.322 28.5898 101.188 28.5898 101.022C28.5898 100.856 28.7242 100.722 28.8898 100.722H54.6094C54.775 100.722 54.9094 100.856 54.9094 101.022C54.9097 101.188 54.7753 101.322 54.6097 101.322Z" fill="black"/>
<path d="M54.6446 102.825H28.925C28.7594 102.825 28.625 102.691 28.625 102.525C28.625 102.359 28.7594 102.225 28.925 102.225H54.6446C54.8102 102.225 54.9446 102.359 54.9446 102.525C54.9446 102.691 54.8102 102.825 54.6446 102.825Z" fill="black"/>
<path d="M50.4737 104.328H28.9562C28.7906 104.328 28.6562 104.193 28.6562 104.028C28.6562 103.862 28.7906 103.728 28.9562 103.728H50.4734C50.639 103.728 50.7734 103.862 50.7734 104.028C50.7737 104.193 50.6393 104.328 50.4737 104.328Z" fill="black"/>
</g>
<g opacity="0.3">
<path d="M43.3834 65.017H28.8898C28.7242 65.017 28.5898 64.8829 28.5898 64.717C28.5898 64.5511 28.7242 64.417 28.8898 64.417H43.3834C43.549 64.417 43.6834 64.5511 43.6834 64.717C43.6834 64.8826 43.549 65.017 43.3834 65.017Z" fill="black"/>
</g>
<path d="M123.132 94.0978H88.6828C88.1095 94.0978 87.6445 93.6331 87.6445 93.0595V36.1506C87.6445 35.5773 88.1092 35.1123 88.6828 35.1123H123.132C123.705 35.1123 124.17 35.577 124.17 36.1506V93.0595C124.17 93.6331 123.706 94.0978 123.132 94.0978Z" fill="#0085F9"/>
<path d="M115.756 36.9568H96.0547V35.0246C96.0547 34.9178 96.1414 34.8311 96.2482 34.8311H115.562C115.669 34.8311 115.756 34.9178 115.756 35.0246L115.756 36.9568Z" fill="#263238"/>
<path opacity="0.9" d="M122.727 36.9561H89.0898V92.248H122.727V36.9561Z" fill="white"/>
<path d="M112.501 39.5014H106.583L106.515 39.2944C106.429 39.0289 106.184 38.8507 105.907 38.8507C105.629 38.8507 105.384 39.0289 105.298 39.2944L105.23 39.5017H99.3123C98.8341 39.5017 98.4453 39.1141 98.4453 38.6377V36.4597C98.4453 35.9833 98.8341 35.5957 99.3123 35.5957H112.5C112.977 35.5957 113.364 35.9833 113.364 36.4597V38.6377C113.365 39.1138 112.977 39.5014 112.501 39.5014ZM106.997 38.9014H112.501C112.646 38.9014 112.765 38.7829 112.765 38.6374V36.4594C112.765 36.3139 112.646 36.1954 112.501 36.1954H99.3126C99.1629 36.1954 99.0456 36.3115 99.0456 36.4594V38.6374C99.0456 38.7853 99.1629 38.9014 99.3126 38.9014H104.816C105.029 38.5048 105.444 38.2504 105.907 38.2504C106.369 38.2504 106.784 38.5048 106.997 38.9014Z" fill="#263238"/>
<g opacity="0.5">
<path d="M112.501 39.5014H106.583L106.515 39.2944C106.429 39.0289 106.184 38.8507 105.907 38.8507C105.629 38.8507 105.384 39.0289 105.298 39.2944L105.23 39.5017H99.3123C98.8341 39.5017 98.4453 39.1141 98.4453 38.6377V36.4597C98.4453 35.9833 98.8341 35.5957 99.3123 35.5957H112.5C112.977 35.5957 113.364 35.9833 113.364 36.4597V38.6377C113.365 39.1138 112.977 39.5014 112.501 39.5014ZM106.997 38.9014H112.501C112.646 38.9014 112.765 38.7829 112.765 38.6374V36.4594C112.765 36.3139 112.646 36.1954 112.501 36.1954H99.3126C99.1629 36.1954 99.0456 36.3115 99.0456 36.4594V38.6374C99.0456 38.7853 99.1629 38.9014 99.3126 38.9014H104.816C105.029 38.5048 105.444 38.2504 105.907 38.2504C106.369 38.2504 106.784 38.5048 106.997 38.9014Z" fill="white"/>
</g>
<path d="M111.572 36.5507H100.238C100.074 36.5507 99.9414 36.4178 99.9414 36.254V35.5418C99.9414 35.378 100.074 35.2451 100.238 35.2451H111.572C111.736 35.2451 111.869 35.378 111.869 35.5418V36.254C111.869 36.4178 111.736 36.5507 111.572 36.5507Z" fill="#263238"/>
<path opacity="0.2" d="M111.572 36.5507H100.238C100.074 36.5507 99.9414 36.4178 99.9414 36.254V35.5418C99.9414 35.378 100.074 35.2451 100.238 35.2451H111.572C111.736 35.2451 111.869 35.378 111.869 35.5418V36.254C111.869 36.4178 111.736 36.5507 111.572 36.5507Z" fill="white"/>
<path d="M120.095 83.2918C120.905 79.8609 118.78 76.4228 115.349 75.6127C111.918 74.8025 108.48 76.9271 107.67 80.358C106.86 83.789 108.984 87.2271 112.415 88.0372C115.846 88.8473 119.285 86.7228 120.095 83.2918Z" fill="#0085F9"/>
<path opacity="0.3" d="M113.883 81.814H120.267C120.267 85.3159 117.385 88.1973 113.883 88.1973C110.381 88.1973 107.5 85.3159 107.5 81.814C107.5 78.3121 110.381 75.4307 113.883 75.4307C113.891 75.4307 113.899 75.4307 113.907 75.4307L113.883 81.814Z" fill="white"/>
<path opacity="0.3" d="M113.883 81.814L117.328 87.1882C116.3 87.8469 115.104 88.1973 113.883 88.1973C110.381 88.1973 107.5 85.3159 107.5 81.814C107.5 78.3121 110.381 75.4307 113.883 75.4307C113.891 75.4307 113.898 75.4307 113.906 75.4307L113.883 81.814Z" fill="white"/>
<path opacity="0.3" d="M113.884 81.814L108.502 85.2469C107.848 84.2215 107.5 83.0302 107.5 81.814C107.5 78.3121 110.382 75.4307 113.883 75.4307C113.891 75.4307 113.898 75.4307 113.906 75.4307L113.884 81.814Z" fill="white"/>
<g opacity="0.5">
<path d="M91.5117 46.8574V61.9245H120.299V46.8574H91.5117ZM120.074 49.2106H115.091V47.0824H120.074V49.2106ZM104.159 49.2106H99.0297V47.0824H104.159V49.2106ZM104.384 47.0824H109.512V49.2106H104.384V47.0824ZM104.159 49.4356V61.6995H99.0297V49.4356H104.159ZM104.384 49.4356H109.512V61.6995H104.384V49.4356ZM109.737 49.4356H114.866V61.6995H109.737V49.4356ZM109.737 49.2106V47.0824H114.866V49.2106H109.737ZM98.8047 47.0824V49.2106H91.7367V47.0824H98.8047ZM91.7367 49.4356H98.8047V61.6995H91.7367V49.4356ZM115.091 61.6995V49.4356H120.074V61.6995H115.091Z" fill="black"/>
<path d="M100.663 51.5404H102.74C102.906 51.5404 103.04 51.406 103.04 51.2404C103.04 51.0748 102.906 50.9404 102.74 50.9404H100.663C100.498 50.9404 100.363 51.0748 100.363 51.2404C100.363 51.4063 100.497 51.5404 100.663 51.5404Z" fill="black"/>
<path d="M105.905 54.2631H108.16C108.325 54.2631 108.46 54.129 108.46 53.9631C108.46 53.7972 108.325 53.6631 108.16 53.6631H105.905C105.74 53.6631 105.605 53.7972 105.605 53.9631C105.605 54.1287 105.74 54.2631 105.905 54.2631Z" fill="black"/>
<path d="M108.259 59.1064H105.905C105.74 59.1064 105.605 59.2405 105.605 59.4064C105.605 59.5723 105.74 59.7064 105.905 59.7064H108.259C108.425 59.7064 108.559 59.5723 108.559 59.4064C108.559 59.2405 108.425 59.1064 108.259 59.1064Z" fill="black"/>
<path d="M113.479 56.3838H110.991C110.826 56.3838 110.691 56.5179 110.691 56.6838C110.691 56.8497 110.826 56.9838 110.991 56.9838H113.479C113.644 56.9838 113.779 56.8497 113.779 56.6838C113.779 56.5179 113.644 56.3838 113.479 56.3838Z" fill="black"/>
<path d="M118.845 50.9404H116.327C116.162 50.9404 116.027 51.0748 116.027 51.2404C116.027 51.406 116.162 51.5404 116.327 51.5404H118.845C119.01 51.5404 119.145 51.406 119.145 51.2404C119.145 51.0748 119.01 50.9404 118.845 50.9404Z" fill="black"/>
<path d="M118.523 59.1064H116.327C116.162 59.1064 116.027 59.2405 116.027 59.4064C116.027 59.5723 116.162 59.7064 116.327 59.7064H118.523C118.689 59.7064 118.823 59.5723 118.823 59.4064C118.823 59.2405 118.689 59.1064 118.523 59.1064Z" fill="black"/>
<path d="M100.663 56.9838H102.443C102.609 56.9838 102.743 56.8497 102.743 56.6838C102.743 56.5179 102.609 56.3838 102.443 56.3838H100.663C100.498 56.3838 100.363 56.5179 100.363 56.6838C100.363 56.8494 100.497 56.9838 100.663 56.9838Z" fill="black"/>
<path d="M102.74 59.1064H100.663C100.498 59.1064 100.363 59.2405 100.363 59.4064C100.363 59.5723 100.498 59.7064 100.663 59.7064H102.74C102.906 59.7064 103.04 59.5723 103.04 59.4064C103.04 59.2405 102.906 59.1064 102.74 59.1064Z" fill="black"/>
<path d="M92.8195 51.5404H97.5667C97.7323 51.5404 97.8667 51.406 97.8667 51.2404C97.8667 51.0748 97.7323 50.9404 97.5667 50.9404H92.8195C92.6539 50.9404 92.5195 51.0748 92.5195 51.2404C92.5195 51.4063 92.6539 51.5404 92.8195 51.5404Z" fill="black"/>
<path d="M92.8195 54.2631H95.9803C96.1459 54.2631 96.2803 54.129 96.2803 53.9631C96.2803 53.7972 96.1459 53.6631 95.9803 53.6631H92.8195C92.6539 53.6631 92.5195 53.7972 92.5195 53.9631C92.5195 54.1287 92.6539 54.2631 92.8195 54.2631Z" fill="black"/>
<path d="M97.5667 56.3838H92.8195C92.6539 56.3838 92.5195 56.5179 92.5195 56.6838C92.5195 56.8497 92.6539 56.9838 92.8195 56.9838H97.5667C97.7323 56.9838 97.8667 56.8497 97.8667 56.6838C97.8667 56.5179 97.7326 56.3838 97.5667 56.3838Z" fill="black"/>
<path d="M95.1931 59.1064H92.8195C92.6539 59.1064 92.5195 59.2405 92.5195 59.4064C92.5195 59.5723 92.6539 59.7064 92.8195 59.7064H95.1931C95.3587 59.7064 95.4931 59.5723 95.4931 59.4064C95.4931 59.2405 95.359 59.1064 95.1931 59.1064Z" fill="black"/>
</g>
<g opacity="0.5">
<path d="M103.044 43.6977H91.8117C91.6461 43.6977 91.5117 43.5633 91.5117 43.3977C91.5117 43.2321 91.6461 43.0977 91.8117 43.0977H103.044C103.21 43.0977 103.344 43.2321 103.344 43.3977C103.344 43.5636 103.21 43.6977 103.044 43.6977Z" fill="black"/>
</g>
<g opacity="0.5">
<path d="M99.1047 45.3822H91.8117C91.6461 45.3822 91.5117 45.2478 91.5117 45.0822C91.5117 44.9166 91.6461 44.7822 91.8117 44.7822H99.1047C99.2703 44.7822 99.4047 44.9166 99.4047 45.0822C99.4047 45.2478 99.2703 45.3822 99.1047 45.3822Z" fill="black"/>
</g>
<g opacity="0.5">
<path d="M106.305 64.5258H91.8117C91.6461 64.5258 91.5117 64.3917 91.5117 64.2258C91.5117 64.0599 91.6461 63.9258 91.8117 63.9258H106.305C106.471 63.9258 106.605 64.0599 106.605 64.2258C106.605 64.3917 106.471 64.5258 106.305 64.5258Z" fill="black"/>
</g>
<path d="M93.3021 76.417H91.5117V78.2074H93.3021V76.417Z" fill="#0085F9"/>
<g opacity="0.5">
<path d="M103.492 77.6117H94.6047C94.4391 77.6117 94.3047 77.4776 94.3047 77.3117C94.3047 77.1458 94.4391 77.0117 94.6047 77.0117H103.492C103.658 77.0117 103.792 77.1458 103.792 77.3117C103.792 77.4776 103.658 77.6117 103.492 77.6117Z" fill="black"/>
</g>
<path d="M93.3021 79.4189H91.5117V81.2093H93.3021V79.4189Z" fill="#0085F9"/>
<g opacity="0.5">
<path d="M103.492 80.6146H94.6047C94.4391 80.6146 94.3047 80.4805 94.3047 80.3146C94.3047 80.1487 94.4391 80.0146 94.6047 80.0146H103.492C103.658 80.0146 103.792 80.1487 103.792 80.3146C103.792 80.4802 103.658 80.6146 103.492 80.6146Z" fill="black"/>
</g>
<path d="M93.3021 82.4199H91.5117V84.2103H93.3021V82.4199Z" fill="#0085F9"/>
<g opacity="0.5">
<path d="M103.492 83.6166H94.6047C94.4391 83.6166 94.3047 83.4825 94.3047 83.3166C94.3047 83.1507 94.4391 83.0166 94.6047 83.0166H103.492C103.658 83.0166 103.792 83.1507 103.792 83.3166C103.792 83.4825 103.658 83.6166 103.492 83.6166Z" fill="black"/>
</g>
<path d="M93.3021 85.4229H91.5117V87.2132H93.3021V85.4229Z" fill="#0085F9"/>
<g opacity="0.5">
<path d="M103.492 86.6176H94.6047C94.4391 86.6176 94.3047 86.4835 94.3047 86.3176C94.3047 86.1517 94.4391 86.0176 94.6047 86.0176H103.492C103.658 86.0176 103.792 86.1517 103.792 86.3176C103.792 86.4835 103.658 86.6176 103.492 86.6176Z" fill="black"/>
</g>
<g opacity="0.5">
<path d="M119.898 67.2064H93.8781C93.7125 67.2064 93.5781 67.0723 93.5781 66.9064C93.5781 66.7405 93.7125 66.6064 93.8781 66.6064H119.898C120.064 66.6064 120.198 66.7405 120.198 66.9064C120.198 67.0723 120.064 67.2064 119.898 67.2064Z" fill="black"/>
<path d="M119.933 68.7103H91.8117C91.6461 68.7103 91.5117 68.5762 91.5117 68.4103C91.5117 68.2445 91.6461 68.1104 91.8117 68.1104H119.933C120.098 68.1104 120.233 68.2445 120.233 68.4103C120.233 68.5759 120.098 68.7103 119.933 68.7103Z" fill="black"/>
<path d="M119.964 70.2143H91.843C91.6774 70.2143 91.543 70.0802 91.543 69.9143C91.543 69.7484 91.6774 69.6143 91.843 69.6143H119.964C120.13 69.6143 120.264 69.7484 120.264 69.9143C120.264 70.0802 120.13 70.2143 119.964 70.2143Z" fill="black"/>
<path d="M115.797 71.7172H91.8781C91.7125 71.7172 91.5781 71.5831 91.5781 71.4172C91.5781 71.2513 91.7125 71.1172 91.8781 71.1172H115.797C115.962 71.1172 116.097 71.2513 116.097 71.4172C116.097 71.5831 115.962 71.7172 115.797 71.7172Z" fill="black"/>
</g>
<path opacity="0.3" d="M93.3021 79.4189H91.5117V81.2093H93.3021V79.4189Z" fill="white"/>
<path opacity="0.5" d="M93.3021 82.4199H91.5117V84.2103H93.3021V82.4199Z" fill="white"/>
<path opacity="0.7" d="M93.3021 85.4229H91.5117V87.2132H93.3021V85.4229Z" fill="white"/>
<path d="M122.224 101.718C122.224 101.718 120.799 98.6085 122.427 95.5435C124.055 92.4784 124.528 91.7563 123.49 91.1284C122.452 90.5005 121.976 93.5803 121.976 93.5803C121.976 93.5803 121.101 91.4614 121.823 89.2441C122.546 87.0265 122.999 83.4149 122.012 83.0276C121.025 82.6403 121.823 87.5332 120.968 89.2009C120.968 89.2009 120.248 87.3442 120.13 85.5632C120.012 83.7821 120.197 80.9381 119.418 80.2085C118.639 79.4789 118.139 79.9838 118.905 83.9144C119.671 87.8449 119.665 91.0399 119.665 91.0399C119.665 91.0399 117.974 85.8842 116.839 85.7336C115.704 85.5833 115.706 87.253 116.677 88.7011C117.648 90.1492 119.522 92.7439 119.829 94.0789C119.829 94.0789 117.973 90.1987 116.303 91.3879C114.633 92.5771 117.756 94.9207 119.148 95.7676C120.54 96.6145 121.507 101.923 121.507 101.923L122.224 101.718Z" fill="#0085F9"/>
<path opacity="0.2" d="M122.224 101.718C122.224 101.718 120.799 98.6085 122.427 95.5435C124.055 92.4784 124.528 91.7563 123.49 91.1284C122.452 90.5005 121.976 93.5803 121.976 93.5803C121.976 93.5803 121.101 91.4614 121.823 89.2441C122.546 87.0265 122.999 83.4149 122.012 83.0276C121.025 82.6403 121.823 87.5332 120.968 89.2009C120.968 89.2009 120.248 87.3442 120.13 85.5632C120.012 83.7821 120.197 80.9381 119.418 80.2085C118.639 79.4789 118.139 79.9838 118.905 83.9144C119.671 87.8449 119.665 91.0399 119.665 91.0399C119.665 91.0399 117.974 85.8842 116.839 85.7336C115.704 85.5833 115.706 87.253 116.677 88.7011C117.648 90.1492 119.522 92.7439 119.829 94.0789C119.829 94.0789 117.973 90.1987 116.303 91.3879C114.633 92.5771 117.756 94.9207 119.148 95.7676C120.54 96.6145 121.507 101.923 121.507 101.923L122.224 101.718Z" fill="black"/>
<path d="M121.101 102.992C121.101 102.992 122.488 99.8618 120.824 96.8213C119.159 93.7808 118.678 93.066 119.709 92.4225C120.739 91.779 121.252 94.8515 121.252 94.8515C121.252 94.8515 122.101 92.7197 121.353 90.5133C120.603 88.3068 120.107 84.702 121.089 84.3C122.071 83.898 121.332 88.8024 122.208 90.4575C122.208 90.4575 122.904 88.5903 123.001 86.8074C123.098 85.0248 122.879 82.1838 123.649 81.4426C124.42 80.7016 124.925 81.1987 124.206 85.1403C123.488 89.082 123.532 92.2767 123.532 92.2767C123.532 92.2767 125.161 87.096 126.294 86.9286C127.427 86.7612 127.446 88.431 126.492 89.8935C125.538 91.356 123.696 93.9782 123.404 95.3177C123.404 95.3177 125.214 91.4103 126.897 92.5746C128.581 93.7388 125.487 96.1286 124.105 96.9962C122.723 97.8638 121.821 103.186 121.821 103.186L121.101 102.992Z" fill="#0085F9"/>
<path d="M127.498 100.761H116.035L116.963 108.964H126.571L127.498 100.761Z" fill="#263238"/>
<path d="M58.2791 30.4111H66.8975C68.363 30.4111 69.5513 31.5994 69.5513 33.0649V40.5654C69.5513 42.0309 68.363 43.2192 66.8975 43.2192H64.3811L65.2898 46.488L62.5961 43.2192H58.2788C56.8133 43.2192 55.625 42.0312 55.625 40.5654V33.0649C55.6253 31.5991 56.8136 30.4111 58.2791 30.4111Z" fill="#0085F9"/>
<path opacity="0.7" d="M58.2791 30.4111H66.8975C68.363 30.4111 69.5513 31.5994 69.5513 33.0649V40.5654C69.5513 42.0309 68.363 43.2192 66.8975 43.2192H64.3811L65.2898 46.488L62.5961 43.2192H58.2788C56.8133 43.2192 55.625 42.0312 55.625 40.5654V33.0649C55.6253 31.5991 56.8136 30.4111 58.2791 30.4111Z" fill="white"/>
<path opacity="0.7" d="M61.2872 38.4483C62.7704 38.4483 63.9728 37.2459 63.9728 35.7627C63.9728 34.2795 62.7704 33.0771 61.2872 33.0771C59.8039 33.0771 58.6016 34.2795 58.6016 35.7627C58.6016 37.2459 59.8039 38.4483 61.2872 38.4483Z" fill="white"/>
<path d="M61.2872 38.4483C62.7704 38.4483 63.9728 37.2459 63.9728 35.7627C63.9728 34.2795 62.7704 33.0771 61.2872 33.0771C59.8039 33.0771 58.6016 34.2795 58.6016 35.7627C58.6016 37.2459 59.8039 38.4483 61.2872 38.4483Z" stroke="#0085F9" stroke-width="0.610884" stroke-miterlimit="10"/>
<path d="M63.1836 37.6621L66.2454 40.7239" stroke="#0085F9" stroke-width="0.610884" stroke-miterlimit="10"/>
<path d="M64.2383 38.7129L66.5771 41.0514" stroke="#0085F9" stroke-width="0.916314" stroke-miterlimit="10" stroke-linecap="round" stroke-linejoin="round"/>
<path d="M61.7024 34.5495C61.7024 34.877 61.4366 35.1428 61.109 35.1428C60.7814 35.1428 60.5156 34.877 60.5156 34.5495C60.5156 34.2219 60.7814 33.9561 61.109 33.9561C61.4369 33.9561 61.7024 34.2216 61.7024 34.5495Z" fill="white"/>
<path d="M62.5934 34.9861C62.5934 35.1499 62.4605 35.2828 62.2967 35.2828C62.1329 35.2828 62 35.1499 62 34.9861C62 34.8224 62.1329 34.6895 62.2967 34.6895C62.4608 34.6895 62.5934 34.8224 62.5934 34.9861Z" fill="white"/>
<path d="M86.6384 85.5801H41.957V92.771H86.6384V85.5801Z" fill="#0085F9"/>
<path opacity="0.8" d="M86.6384 85.5801H41.957V92.771H86.6384V85.5801Z" fill="white"/>
<path opacity="0.2" d="M86.6355 87.4791V86.8936L56.043 87.1393L86.6355 87.4791Z" fill="black"/>
<path opacity="0.2" d="M86.636 90.0016V89.5498L72.9023 90.0409L86.636 90.0016Z" fill="black"/>
<path opacity="0.2" d="M86.6355 91.6867V91.1035L64.4922 91.441L86.6355 91.6867Z" fill="black"/>
<path opacity="0.2" d="M51.9446 85.5801L51.2969 90.941L52.061 90.125C52.4144 91.6358 53.4671 92.7713 53.4671 92.7713C53.4671 92.7713 54.1775 91.8881 54.5948 90.7085L75.4613 90.4688L54.7907 90.0173C54.8525 89.7284 54.8921 89.4305 54.8921 89.129C54.8921 88.8737 54.8639 88.6238 54.8186 88.3811L85.4384 88.3037L54.7478 88.0635C54.6362 87.6357 54.4712 87.2403 54.2969 86.8977C54.7274 86.5104 55.2935 86.2836 55.8962 86.2836H86.6369V85.5804L51.9446 85.5801Z" fill="black"/>
<path d="M52.6352 89.1317C52.6364 90.029 52.9997 90.8405 53.5883 91.4291C54.1778 92.0186 54.9911 92.3822 55.8899 92.3822H87.1538C87.2861 92.3822 87.3935 92.4896 87.3935 92.6219V92.8793C87.3935 93.0116 87.2861 93.119 87.1538 93.119H40.9721C39.8717 93.119 38.8718 92.672 38.1497 91.9499C37.421 91.2212 36.9725 90.2123 36.9806 89.0975C36.9968 86.8877 38.8649 85.1357 41.0747 85.1357H87.1538C87.2861 85.1357 87.3935 85.2431 87.3935 85.3754V85.6328C87.3935 85.7651 87.2861 85.8725 87.1538 85.8725H55.9859C54.1928 85.8728 52.6331 87.3386 52.6352 89.1317Z" fill="#0085F9"/>
<path opacity="0.4" d="M52.6352 89.1317C52.6364 90.029 52.9997 90.8405 53.5883 91.4291C54.1778 92.0186 54.9911 92.3822 55.8899 92.3822H87.1538C87.2861 92.3822 87.3935 92.4896 87.3935 92.6219V92.8793C87.3935 93.0116 87.2861 93.119 87.1538 93.119H40.9721C39.8717 93.119 38.8718 92.672 38.1497 91.9499C37.421 91.2212 36.9725 90.2123 36.9806 89.0975C36.9968 86.8877 38.8649 85.1357 41.0747 85.1357H87.1538C87.2861 85.1357 87.3935 85.2431 87.3935 85.3754V85.6328C87.3935 85.7651 87.2861 85.8725 87.1538 85.8725H55.9859C54.1928 85.8728 52.6331 87.3386 52.6352 89.1317Z" fill="white"/>
<path d="M52.6348 89.1317C52.636 90.029 52.9993 90.8405 53.5879 91.4291C54.1774 92.0186 54.9907 92.3822 55.8895 92.3822H87.1534C87.2857 92.3822 87.3931 92.4896 87.3931 92.6219V92.8793C87.3931 93.0116 87.2857 93.119 87.1534 93.119H55.7104C54.61 93.119 53.6101 92.672 52.888 91.9499C52.1593 91.2212 51.7108 90.2123 51.7189 89.0975C51.7351 86.8877 53.6032 85.1357 55.813 85.1357H87.1534C87.2857 85.1357 87.3931 85.2431 87.3931 85.3754V85.6328C87.3931 85.7651 87.2857 85.8725 87.1534 85.8725H55.9855C54.1924 85.8728 52.6327 87.3386 52.6348 89.1317Z" fill="#0085F9"/>
<path d="M58.5234 87.1943V90.0773L59.5668 89.0336L60.5781 90.0449V87.1943H58.5234Z" fill="#263238"/>
<path opacity="0.6" d="M52.6348 89.1317C52.636 90.029 52.9993 90.8405 53.5879 91.4291C54.1774 92.0186 54.9907 92.3822 55.8895 92.3822H87.1534C87.2857 92.3822 87.3931 92.4896 87.3931 92.6219V92.8793C87.3931 93.0116 87.2857 93.119 87.1534 93.119H55.7104C54.61 93.119 53.6101 92.672 52.888 91.9499C52.1593 91.2212 51.7108 90.2123 51.7189 89.0975C51.7351 86.8877 53.6032 85.1357 55.813 85.1357H87.1534C87.2857 85.1357 87.3931 85.2431 87.3931 85.3754V85.6328C87.3931 85.7651 87.2857 85.8725 87.1534 85.8725H55.9855C54.1924 85.8728 52.6327 87.3386 52.6348 89.1317Z" fill="white"/>
<path d="M88.7947 101.424H44.1133V108.615H88.7947V101.424Z" fill="#0085F9"/>
<path opacity="0.7" d="M88.7947 101.424H44.1133V108.615H88.7947V101.424Z" fill="white"/>
<path opacity="0.2" d="M88.7917 103.323V102.737L58.1992 102.983L88.7917 103.323Z" fill="black"/>
<path opacity="0.2" d="M88.792 105.846V105.395L75.0586 105.886L88.792 105.846Z" fill="black"/>
<path opacity="0.2" d="M88.7914 107.53V106.947L66.6484 107.284L88.7914 107.53Z" fill="black"/>
<path opacity="0.2" d="M54.1008 101.424L53.4531 106.785L54.2172 105.969C54.5706 107.48 55.6233 108.615 55.6233 108.615C55.6233 108.615 56.3334 107.732 56.751 106.552L77.6175 106.312L56.9469 105.861C57.0087 105.572 57.0483 105.274 57.0483 104.972C57.0483 104.717 57.0201 104.467 56.9748 104.225L87.5946 104.147L56.904 103.907C56.7924 103.479 56.6274 103.084 56.4531 102.741C56.8836 102.354 57.4497 102.127 58.0524 102.127H88.7928V101.424H54.1008Z" fill="black"/>
<path d="M54.7908 104.975C54.792 105.873 55.1553 106.684 55.7439 107.273C56.3334 107.862 57.1467 108.226 58.0455 108.226H89.3094C89.4417 108.226 89.5491 108.333 89.5491 108.466V108.723C89.5491 108.855 89.4417 108.963 89.3094 108.963H40.6713C39.5709 108.963 38.571 108.516 37.8489 107.794C37.1202 107.065 36.6717 106.056 36.6798 104.941C36.696 102.731 38.5641 100.979 40.7739 100.979H89.3097C89.442 100.979 89.5494 101.087 89.5494 101.219V101.477C89.5494 101.609 89.442 101.716 89.3097 101.716H58.1412C56.3484 101.717 54.7884 103.182 54.7908 104.975Z" fill="#263238"/>
<path opacity="0.2" d="M54.7908 104.975C54.792 105.873 55.1553 106.684 55.7439 107.273C56.3334 107.862 57.1467 108.226 58.0455 108.226H89.3094C89.4417 108.226 89.5491 108.333 89.5491 108.466V108.723C89.5491 108.855 89.4417 108.963 89.3094 108.963H40.6713C39.5709 108.963 38.571 108.516 37.8489 107.794C37.1202 107.065 36.6717 106.056 36.6798 104.941C36.696 102.731 38.5641 100.979 40.7739 100.979H89.3097C89.442 100.979 89.5494 101.087 89.5494 101.219V101.477C89.5494 101.609 89.442 101.716 89.3097 101.716H58.1412C56.3484 101.717 54.7884 103.182 54.7908 104.975Z" fill="white"/>
<path d="M54.7913 104.975C54.7925 105.873 55.1558 106.684 55.7444 107.273C56.3339 107.862 57.1472 108.226 58.046 108.226H89.3099C89.4422 108.226 89.5496 108.333 89.5496 108.466V108.723C89.5496 108.855 89.4422 108.963 89.3099 108.963H57.8666C56.7662 108.963 55.7663 108.516 55.0442 107.794C54.3155 107.065 53.867 106.056 53.8751 104.941C53.8913 102.731 55.7594 100.979 57.9692 100.979H89.3099C89.4422 100.979 89.5496 101.087 89.5496 101.219V101.477C89.5496 101.609 89.4422 101.716 89.3099 101.716H58.1417C56.3489 101.717 54.7889 103.182 54.7913 104.975Z" fill="#263238"/>
<path d="M58.1992 104.063V106.946L59.2429 105.903L60.2542 106.914V104.063H58.1992Z" fill="#0085F9"/>
<path opacity="0.4" d="M54.7913 104.975C54.7925 105.873 55.1558 106.684 55.7444 107.273C56.3339 107.862 57.1472 108.226 58.046 108.226H89.3099C89.4422 108.226 89.5496 108.333 89.5496 108.466V108.723C89.5496 108.855 89.4422 108.963 89.3099 108.963H57.8666C56.7662 108.963 55.7663 108.516 55.0442 107.794C54.3155 107.065 53.867 106.056 53.8751 104.941C53.8913 102.731 55.7594 100.979 57.9692 100.979H89.3099C89.4422 100.979 89.5496 101.087 89.5496 101.219V101.477C89.5496 101.609 89.4422 101.716 89.3099 101.716H58.1417C56.3489 101.717 54.7889 103.182 54.7913 104.975Z" fill="white"/>
<path d="M40.0893 100.684H56.6445V93.5032H40.0893V100.684Z" fill="#0085F9"/>
<path opacity="0.8" d="M40.0893 100.684H56.6445V93.5032H40.0893V100.684Z" fill="white"/>
<path opacity="0.2" d="M55.3169 94.2036H40.0898V93.501H55.3007L55.3169 94.2036Z" fill="black"/>
<path opacity="0.2" d="M55.3154 94.8164L41.5781 95.1095L55.3154 95.4023V94.8164Z" fill="black"/>
<path opacity="0.2" d="M55.3207 97.4707L40.7734 97.7164L55.3207 97.9228V97.4707Z" fill="black"/>
<path opacity="0.2" d="M55.3161 99.0234L40.8984 99.315L55.3161 99.6066V99.0234Z" fill="black"/>
<path opacity="0.2" d="M40.0898 95.8389L54.0374 96.2601L40.0898 96.5517V95.8389Z" fill="black"/>
<path d="M77.0374 97.0546C77.0362 97.9519 76.6729 98.7633 76.0843 99.3519C75.4948 99.9414 74.6815 100.305 73.7827 100.305H39.3256C39.1933 100.305 39.0859 100.412 39.0859 100.545V100.802C39.0859 100.934 39.1933 101.042 39.3256 101.042H73.9621C75.0625 101.042 76.0624 100.595 76.7845 99.8727C77.5132 99.144 77.9617 98.1351 77.9536 97.0204C77.9374 94.8106 76.0693 93.0586 73.8595 93.0586H39.3256C39.1933 93.0586 39.0859 93.166 39.0859 93.2983V93.5557C39.0859 93.688 39.1933 93.7954 39.3256 93.7954H73.687C75.4801 93.7957 77.0398 95.2618 77.0374 97.0546Z" fill="#263238"/>
<path opacity="0.4" d="M77.0374 97.0546C77.0362 97.9519 76.6729 98.7633 76.0843 99.3519C75.4948 99.9414 74.6815 100.305 73.7827 100.305H39.3256C39.1933 100.305 39.0859 100.412 39.0859 100.545V100.802C39.0859 100.934 39.1933 101.042 39.3256 101.042H73.9621C75.0625 101.042 76.0624 100.595 76.7845 99.8727C77.5132 99.144 77.9617 98.1351 77.9536 97.0204C77.9374 94.8106 76.0693 93.0586 73.8595 93.0586H39.3256C39.1933 93.0586 39.0859 93.166 39.0859 93.2983V93.5557C39.0859 93.688 39.1933 93.7954 39.3256 93.7954H73.687C75.4801 93.7957 77.0398 95.2618 77.0374 97.0546Z" fill="white"/>
<path d="M89.6031 97.0974C89.6031 99.0831 87.9933 100.693 86.0076 100.693H55.3164V93.502H86.0076C87.9933 93.502 89.6031 95.1117 89.6031 97.0974Z" fill="#0085F9"/>
<path opacity="0.7" d="M55.3164 93.501V100.693H86.0094C86.7684 100.693 87.471 100.458 88.0506 100.057C88.989 99.4085 89.6031 98.3228 89.6031 97.097C89.6031 95.1099 87.9942 93.501 86.0094 93.501H55.3164Z" fill="white"/>
<path opacity="0.2" d="M55.3125 95.4023V94.8164L85.905 95.0621L55.3125 95.4023Z" fill="black"/>
<path opacity="0.2" d="M55.3125 97.9218V97.4697L69.0462 97.9611L55.3125 97.9218Z" fill="black"/>
<path opacity="0.2" d="M55.3125 99.6066V99.0234L77.4558 99.3609L55.3125 99.6066Z" fill="black"/>
<path opacity="0.2" d="M86.0553 94.2039C86.6571 94.2039 87.222 94.4322 87.6543 94.818C87.48 95.1618 87.3153 95.5575 87.2022 95.9847L56.5116 96.2253L87.1308 96.3014C87.0864 96.5447 87.057 96.7952 87.057 97.0505C87.057 97.3526 87.0963 97.6499 87.1602 97.9373L66.4893 98.3894L87.354 98.63C87.5529 99.1949 87.8208 99.6935 88.0467 100.057C88.9851 99.4085 89.5992 98.3228 89.5992 97.097C89.5992 95.1099 87.9903 93.501 86.0055 93.501H55.3125V94.2036L86.0553 94.2039Z" fill="black"/>
<path d="M89.3208 97.0546C89.3196 97.9519 88.9563 98.7633 88.3677 99.3519C87.7782 99.9414 86.9652 100.305 86.0661 100.305H54.8022C54.6699 100.305 54.5625 100.412 54.5625 100.545V100.802C54.5625 100.934 54.6699 101.042 54.8022 101.042H86.2455C87.3459 101.042 88.3458 100.595 89.0679 99.8727C89.7966 99.144 90.2451 98.1351 90.237 97.0204C90.2208 94.8106 88.3527 93.0586 86.1429 93.0586H54.8022C54.6699 93.0586 54.5625 93.166 54.5625 93.2983V93.5557C54.5625 93.688 54.6699 93.7954 54.8022 93.7954H85.9701C87.7632 93.7957 89.3229 95.2618 89.3208 97.0546Z" fill="#263238"/>
<path d="M85.9063 96.1426V99.0255L84.8629 97.9819L83.8516 98.9931V96.1426H85.9063Z" fill="#0085F9"/>
<path d="M94.0207 55.6193L93.2701 55.6334C92.9878 55.6388 92.7256 55.7801 92.566 56.0132L91.8202 57.1016C91.522 57.5369 91.4533 58.0895 91.6354 58.5845L91.7482 58.8911C92.9947 58.9529 94.3873 58.1012 94.3873 58.1012L94.8112 57.9023C95.1886 57.7253 95.3515 57.3056 95.1853 56.9387L94.8022 56.0936C94.6699 55.8017 94.3591 55.613 94.0207 55.6193Z" fill="#EEC1BB"/>
<path d="M79.7912 56.9546L80.5109 57.5327C80.7602 57.7295 81.0155 57.9212 81.2726 58.1096C81.7856 58.4888 82.3094 58.8503 82.8368 59.1992C83.3666 59.5457 83.906 59.8628 84.4487 60.1625C84.995 60.4529 85.5449 60.7096 86.099 60.9292L85.8137 60.8692C85.8002 60.8857 85.9736 60.8845 86.1749 60.8296C86.3804 60.7765 86.6213 60.685 86.8658 60.5701C87.3572 60.3364 87.8744 60.0413 88.3802 59.7137C88.8902 59.3891 89.3969 59.0372 89.9021 58.6748C90.4103 58.3199 90.9146 57.932 91.406 57.5663L91.4246 57.5525C91.7618 57.3017 92.2382 57.3716 92.4893 57.7088C92.6963 57.9869 92.684 58.3604 92.4845 58.6235C92.0747 59.1623 91.6463 59.6471 91.199 60.1391C90.7487 60.6232 90.2741 61.0894 89.7689 61.5394C89.2574 61.9828 88.7237 62.4181 88.0988 62.8057C87.7847 62.9992 87.4475 63.1837 87.0509 63.343C86.6519 63.4957 86.1893 63.6439 85.5362 63.6079C85.4687 63.6043 85.4033 63.5929 85.3412 63.5749L85.2509 63.5479C84.5276 63.334 83.828 63.0784 83.1641 62.7727C82.5017 62.4676 81.8585 62.134 81.2444 61.765C80.6279 61.3999 80.0336 61.006 79.4576 60.5896C79.1711 60.379 78.8879 60.1649 78.6083 59.9432C78.3221 59.7206 78.0647 59.5028 77.7671 59.2352C77.141 58.6727 77.0897 57.7094 77.6522 57.0833C78.1949 56.4797 79.1102 56.4104 79.736 56.9111L79.7912 56.9546Z" fill="#EBC0BB"/>
<path d="M75.7618 54.8207C75.0601 56.7755 76.1911 58.7219 78.9106 61.0093C80.266 60.8095 82.0909 58.0334 82.0909 58.0334C82.0909 58.0334 78.2656 54.2063 75.7618 54.8207Z" fill="#0085F9"/>
<path d="M78.0997 42.6709C78.0997 42.6709 75.4201 39.9289 71.9299 43.3702C68.4397 46.8115 67.7578 58.2111 67.7578 58.2111L76.8706 59.982C76.8706 59.982 78.0496 58.6278 78.6553 54.7254C79.261 50.823 79.5823 47.0914 80.3509 46.2202C81.1198 45.349 78.0997 42.6709 78.0997 42.6709Z" fill="#263238"/>
<path d="M85.9271 100.403L83.9531 99.6159L84.7241 96.738L85.4354 94.0986L87.9311 94.6512L86.8715 97.6968L85.9271 100.403Z" fill="#EEC1BB"/>
<path opacity="0.2" d="M86.8475 97.7568L84.7031 96.7911L85.4255 94.125L87.9263 94.6638L86.8475 97.7568Z" fill="black"/>
<path d="M70.991 74.478C70.991 74.478 87.4862 72.2538 92.0753 75.1812C96.6644 78.1085 87.7817 95.9413 87.7817 95.9413L85.004 95.3275C85.004 95.3275 87.0857 81.1928 86.93 80.6003C86.7743 80.0078 79.0055 83.8658 68.3711 84.2312L70.991 74.478Z" fill="#263238"/>
<path opacity="0.2" d="M70.991 74.478C70.991 74.478 87.4862 72.2538 92.0753 75.1812C96.6644 78.1085 87.7817 95.9413 87.7817 95.9413L85.004 95.3275C85.004 95.3275 87.0857 81.1928 86.93 80.6003C86.7743 80.0078 79.0055 83.8658 68.3711 84.2312L70.991 74.478Z" fill="black"/>
<path d="M84.8501 94.4395L88.3463 95.5728L87.7196 97.167L84.5078 96.0744L84.8501 94.4395Z" fill="#263238"/>
<path d="M86.625 100.047C86.625 100.047 87.3114 99.1531 87.7416 99.5587C88.2363 100.026 86.625 100.047 86.625 100.047ZM86.625 100.047C86.625 100.047 87.9732 100.094 87.9429 100.555C87.897 101.253 86.625 100.047 86.625 100.047Z" stroke="#577AFA" stroke-width="0.113651" stroke-miterlimit="10" stroke-linecap="round" stroke-linejoin="round"/>
<path d="M83.5871 98.3877C83.6648 98.1663 86.3456 99.231 86.3456 99.231C86.3456 99.231 87.4727 101.491 88.9835 102.408C90.4943 103.325 89.2609 104.009 87.4324 103.415C85.6039 102.821 84.2087 102.367 82.9094 101.944C81.6101 101.522 82.7819 100.679 83.5871 98.3877Z" fill="#2E353A"/>
<path opacity="0.4" d="M84.8501 94.4395L88.3463 95.5728L87.7196 97.167L84.5078 96.0744L84.8501 94.4395Z" fill="white"/>
<path d="M94.5362 106.112L92.4908 106.687L91.3526 103.934L90.3125 101.406L92.6294 100.327L93.6404 103.389L94.5362 106.112Z" fill="#EEC1BB"/>
<path d="M91.5841 105.242C91.5955 105.007 94.4686 105.263 94.4686 105.263C94.4686 105.263 96.1939 107.108 97.9033 107.555C99.613 108.002 98.626 109.01 96.7039 108.962C94.7818 108.914 93.3151 108.878 91.9495 108.844C90.5839 108.81 91.4665 107.668 91.5841 105.242Z" fill="#2E353A"/>
<path d="M94.8125 105.574C94.8125 105.574 95.2151 104.521 95.7434 104.787C96.3509 105.094 94.8125 105.574 94.8125 105.574ZM94.8125 105.574C94.8125 105.574 96.1178 105.234 96.2207 105.685C96.3761 106.367 94.8125 105.574 94.8125 105.574Z" stroke="#577AFA" stroke-width="0.113651" stroke-miterlimit="10" stroke-linecap="round" stroke-linejoin="round"/>
<path opacity="0.2" d="M93.6578 103.452L91.3682 103.99L90.3203 101.434L92.633 100.341L93.6578 103.452Z" fill="black"/>
<path d="M75.6716 76.6115C75.6716 76.6115 75.434 73.3476 75.3242 72.6816C75.2111 71.9748 75.062 71.1483 74.9207 70.7271C74.195 68.55 64.496 71.1096 64.496 71.1096L64.2206 72.6012C64.2206 72.6012 59.8442 80.8529 62.7686 83.8256C63.6575 84.7295 65.4002 85.136 67.1804 85.1216C67.1804 85.1216 72.6194 85.3847 82.733 84.9134C82.733 84.9134 81.9848 90.8044 90.3224 102.349L93.1112 101.456C93.1112 101.456 87.5972 80.5001 87.1346 80.1266C83.1011 76.8686 75.6716 76.6115 75.6716 76.6115Z" fill="#263238"/>
<path d="M89.8164 102.216L93.2811 100.99L93.753 102.637L90.5391 103.723L89.8164 102.216Z" fill="#263238"/>
<path d="M78.9315 56.3833C78.9315 56.3833 78.5835 57.2353 78.0975 58.7233C77.9805 59.0713 77.8605 59.4553 77.7345 59.8693C77.5695 60.4123 77.3925 61.0093 77.2155 61.6573C77.0865 62.1253 76.9575 62.6143 76.8315 63.1303C76.7025 63.6523 76.5705 64.2043 76.4415 64.7712C76.4295 64.8372 76.4115 64.9062 76.3995 64.9722C75.9105 67.1742 75.4815 69.3042 75.2115 72.0192L64.5555 71.0892C64.5555 71.0892 64.5195 67.7982 64.9185 64.0873C65.1345 62.0803 65.4765 59.9533 66.0195 58.1533C66.4425 56.7493 66.9885 55.5433 67.6905 54.7543C67.6905 54.7543 73.4685 52.8584 78.9315 56.3833Z" fill="#0085F9"/>
<path d="M73.4974 53.2229C70.2916 52.199 69.0469 54.7103 69.0469 54.7103L70.7518 54.5426L74.2186 58.8929L76.2493 56.2634L77.5273 56.9489C77.5273 56.9489 76.2823 54.1127 73.4974 53.2229Z" fill="#0085F9"/>
<path opacity="0.6" d="M73.4974 53.2229C70.2916 52.199 69.0469 54.7103 69.0469 54.7103L70.7518 54.5426L74.2186 58.8929L76.2493 56.2634L77.5273 56.9489C77.5273 56.9489 76.2823 54.1127 73.4974 53.2229Z" fill="white"/>
<path d="M74.1308 58.6702L71.1914 54.2692C72.5792 53.6395 73.4972 50.989 73.6955 49.4941L75.7736 52.6327C75.0956 53.6407 74.6429 54.793 76.1966 55.6615C76.1966 55.6615 74.1305 58.6606 74.1308 58.6702Z" fill="#EEC1BB"/>
<path opacity="0.2" d="M74.5432 50.7744L75.7735 52.6311C75.6121 52.8693 75.4651 53.1159 75.3556 53.3655C74.7421 53.0901 74.0887 52.1727 74.2411 51.5244C74.3173 51.2013 74.4373 50.9043 74.5432 50.7744Z" fill="black"/>
<path d="M64.3817 71.4395L67.7138 71.6588L67.5938 72.5992L64.0547 72.3442L64.3817 71.4395Z" fill="black"/>
<path d="M75.4697 73.1634L67.9961 72.627L68.1161 71.6865L75.3479 72.1617L75.4697 73.1634Z" fill="black"/>
<path d="M71.5759 72.0604L71.551 72.6739C71.5453 72.8161 71.6536 72.9367 71.7955 72.9463L72.7099 73.0075C72.8539 73.0171 72.9784 72.9088 72.9892 72.7651L73.0351 72.1429C73.0459 71.9965 72.9346 71.8699 72.7882 71.8615L71.8528 71.809C71.7064 71.8009 71.5819 71.914 71.5759 72.0604Z" stroke="white" stroke-width="0.235254" stroke-miterlimit="10"/>
<path opacity="0.5" d="M89.8164 102.216L93.2811 100.99L93.753 102.637L90.5391 103.723L89.8164 102.216Z" fill="white"/>
<path d="M80.9781 48.6054C80.9781 48.6054 80.6637 47.9826 80.0703 47.9316" stroke="#263238" stroke-width="0.130331" stroke-miterlimit="10" stroke-linecap="round" stroke-linejoin="round"/>
<path d="M79.9782 49.9883C79.9782 49.9883 80.0331 50.714 80.2257 51.2105C80.2257 51.2105 79.8987 51.4328 79.5195 51.2057L79.9782 49.9883Z" fill="#D4827D"/>
<path d="M80.6397 49.5386C80.5629 49.7258 80.3997 49.8362 80.2749 49.7852C80.1501 49.7342 80.1111 49.541 80.1876 49.3538C80.2641 49.1666 80.4276 49.0562 80.5524 49.1072C80.6772 49.1582 80.7162 49.3514 80.6397 49.5386Z" fill="#263238"/>
<path d="M80.4961 49.0947L80.9686 49.1016C80.9686 49.1016 80.6254 49.3614 80.4961 49.0947Z" fill="#263238"/>
<path d="M73.7326 51.1542C73.7455 51.1857 73.7584 51.2169 73.7785 51.2415C73.8082 51.3009 73.8412 51.357 73.8742 51.4164C74.0689 51.7662 74.3122 52.1139 74.6434 52.3842C75.6673 53.2343 76.5505 53.5049 77.3389 53.2865C77.377 53.2772 77.4154 53.2643 77.4538 53.2514C77.4571 53.255 77.4571 53.255 77.4571 53.255C78.6307 52.8119 79.5583 51.4452 80.3386 49.626C80.701 48.7935 80.941 48.0336 80.992 47.3727C80.9923 47.3658 81.0031 47.3454 81.0031 47.3385C81.0037 47.3109 81.0115 47.2767 81.0124 47.2491C81.0634 46.3155 80.7586 45.5421 79.9816 44.8878C79.7113 44.6601 79.3855 44.445 78.9973 44.2455C75.5752 42.4767 72.0871 47.8599 73.7326 51.1542Z" fill="#EEC1BB"/>
<path d="M81.0088 47.3506C81.0088 47.3506 79.9828 49.8583 77.1751 49.7425C77.1751 49.7425 74.9311 51.7537 73.4683 51.061C71.4739 50.1166 71.1502 46.4387 73.2712 43.9274C76.0216 40.6712 81.7822 43.1966 81.0088 47.3506Z" fill="#263238"/>
<path d="M78.6792 49.6328C78.8679 49.256 78.8841 48.4718 78.2559 48.2627C77.6058 48.0464 76.5183 49.3697 77.838 50.4527C78.0273 50.6081 78.285 50.4188 78.6792 49.6328Z" fill="#EEC1BB"/>
<path d="M78.1006 42.6701C78.1006 42.6701 80.695 43.2476 81.5008 44.8138C82.4419 46.6429 82.4419 48.0445 79.8088 48.8932C79.8088 48.8932 76.576 45.6937 75.1582 45.3118C73.7401 44.9299 72.6328 44.8414 72.6328 44.8414C73.6483 42.1538 77.0785 41.501 78.1006 42.6701Z" fill="#263238"/>
<path d="M77.1748 49.7406C75.5428 52.9997 71.9527 58.541 68.1289 54.6314C68.1289 54.6314 69.502 50.2122 72.2782 48.3858C75.0547 46.5597 77.1748 49.7406 77.1748 49.7406Z" fill="#263238"/>
<path d="M76.582 55.1803C77.9791 56.2096 76.192 59.6077 77.9539 60.3643C77.9539 60.3643 77.3992 59.6854 77.7676 58.7608C78.136 57.8362 79.6336 55.396 79.0381 52.0889L76.582 55.1803Z" fill="#263238"/>
<path opacity="0.2" d="M69.355 62.3499C69.355 62.3499 67.075 63.8949 64.918 64.0869C65.134 62.0799 65.476 59.9529 66.019 58.1529C66.37 57.9789 66.682 57.8829 66.922 57.8889C68.524 57.9189 69.109 59.4219 69.109 59.4219C69.109 59.4219 69.394 60.9279 69.355 62.3499Z" fill="black"/>
<path d="M77.6775 73.0416L77.1975 72.4644C77.0169 72.2472 76.7427 72.1311 76.461 72.1518L75.1452 72.2499C74.6193 72.2892 74.1447 72.5808 73.872 73.0323L73.7031 73.3119C74.4339 74.3235 75.969 74.8785 75.969 74.8785L76.389 75.0852C76.7631 75.2691 77.1924 75.1341 77.3751 74.775L77.7954 73.9479C77.9409 73.6623 77.8938 73.3017 77.6775 73.0416Z" fill="#EEC1BB"/>
<path d="M68.4402 59.2527L68.4387 60.1758C68.4411 60.4935 68.4507 60.8124 68.4645 61.131C68.4888 61.7685 68.5344 62.4033 68.5914 63.0333C68.652 63.6633 68.7417 64.2828 68.8467 64.8936C68.9616 65.5017 69.1044 66.0915 69.2793 66.6612L69.1479 66.4011C69.2523 66.5871 69.4518 66.8457 69.6519 67.095C69.8562 67.3476 70.0785 67.6041 70.3086 67.8585C70.7712 68.3667 71.2497 68.8818 71.7414 69.3882L73.2228 70.9178L74.7081 72.4592C74.9994 72.7616 74.9904 73.2431 74.688 73.5344C74.4306 73.7825 74.0421 73.8122 73.7526 73.6286C73.1325 73.2356 72.5436 72.8192 71.9475 72.401C71.3571 71.9774 70.7769 71.5394 70.2018 71.0885C69.6312 70.6322 69.0612 70.1696 68.5068 69.6674C68.229 69.4164 67.9527 69.1572 67.6761 68.8785C67.3974 68.595 67.1295 68.3073 66.8367 67.896C66.7971 67.8405 66.765 67.782 66.7401 67.7217L66.705 67.6356C66.4203 66.9372 66.1824 66.2313 66.0063 65.5221C65.8305 64.8144 65.6892 64.1037 65.5935 63.3939C65.493 62.6844 65.4294 61.9743 65.3946 61.2645C65.3802 60.9093 65.3703 60.5544 65.3685 60.1974C65.3634 59.8347 65.3727 59.4978 65.3955 59.0979C65.4435 58.2579 66.1635 57.6157 67.0038 57.6637C67.8141 57.7099 68.4402 58.3815 68.4405 59.1828L68.4402 59.2527Z" fill="#EBC0BB"/>
<path d="M67.5904 54.7725C65.6257 55.4463 64.813 57.5453 64.7266 61.0979C65.7295 62.0312 69.0373 61.721 69.0373 61.721C69.0373 61.721 69.6343 56.3429 67.5904 54.7725Z" fill="#0085F9"/>
<path d="M88.7612 75.8027V76.7501C88.7612 76.9931 88.475 77.0927 88.235 77.0927H69.3014C69.0581 77.0927 68.7656 76.9931 68.7656 76.7501V75.8027H88.7612Z" fill="#263238"/>
<path opacity="0.4" d="M88.7612 75.8027V76.7501C88.7612 76.9931 88.475 77.0927 88.235 77.0927H69.3014C69.0581 77.0927 68.7656 76.9931 68.7656 76.7501V75.8027H88.7612Z" fill="white"/>
<path opacity="0.2" d="M88.764 75.8027V76.7501C88.764 76.9931 88.4778 77.0927 88.2378 77.0927H75.75C75.5073 77.0927 75.2188 76.9931 75.2188 76.7501V75.8027H88.764Z" fill="black"/>
<path d="M91.9283 65.9667L89.6744 76.19C89.6012 76.5266 89.2733 76.7711 88.9424 76.7711H76.6304C76.3025 76.7711 76.0919 76.4654 76.1678 76.1285L78.419 65.9835C78.4952 65.6496 78.8201 65.4834 79.1507 65.4834H91.463C91.7936 65.4834 92.0015 65.6328 91.9283 65.9667Z" fill="#263238"/>
<path opacity="0.4" d="M91.9299 65.9667L89.676 76.19C89.6028 76.5266 89.2749 76.7711 88.944 76.7711H77.0505C76.7199 76.7711 76.512 76.4654 76.5849 76.1285L78.8391 65.9835C78.9123 65.6496 79.2399 65.4834 79.5708 65.4834H91.4646C91.7952 65.4834 92.0031 65.6328 91.9299 65.9667Z" fill="white"/>
<path opacity="0.2" d="M85.8603 71.162V71.165C85.8603 72.0404 84.9219 72.7514 84.234 72.7514C83.5461 72.7514 83.1384 72.0401 83.3343 71.165C83.5305 70.307 84.2151 69.6078 84.8883 69.5811C84.6921 70.4561 85.1124 71.165 85.7973 71.165C85.8117 71.1653 85.8603 71.1653 85.8603 71.162Z" fill="black"/>
</svg>
