<svg width="111" height="112" viewBox="0 0 111 112" fill="none" xmlns="http://www.w3.org/2000/svg">
<path d="M97.1763 95.391C76.9463 116.739 45.872 110.424 41.2787 109.409C35.4921 108.13 21.7247 105.088 11.4509 93.0776C-4.27822 74.6892 -2.68983 45.9509 9.45766 26.5757C12.9922 20.9381 24.8872 4.18427 47.2251 0.541527C48.5306 0.328626 71.8564 -3.09136 90.6244 12.6559C93.155 14.7792 97.2393 18.6242 100.819 24.2231C111.924 41.5912 117.18 74.2818 97.1763 95.391Z" fill="url(#paint0_linear_1919_847)"/>
<path d="M91.5729 92.6115H62.4766V37.6836C62.4766 36.9339 63.0843 36.3262 63.834 36.3262H90.7089C91.4586 36.3262 92.0663 36.9339 92.0663 37.6836V92.118C92.0663 92.3906 91.8454 92.6115 91.5729 92.6115Z" fill="#0085F9"/>
<path d="M58.2641 38.317L78.1399 17.9497C78.4357 17.6465 78.9303 17.6713 79.1944 18.0024L95.7216 38.7182C96.0915 39.182 95.7575 39.8674 95.1643 39.8617L58.7614 39.5131C58.1414 39.5072 57.831 38.7608 58.2641 38.317Z" fill="#0085F9"/>
<path d="M77.2917 92.7064H48.1953V48.0547C48.1953 47.305 48.803 46.6973 49.5527 46.6973H76.4277C77.1774 46.6973 77.7851 47.305 77.7851 48.0547V92.213C77.7851 92.4855 77.5642 92.7064 77.2917 92.7064Z" fill="#91B3FA"/>
<path d="M58.3981 92.7062H32.6094V62.3301C32.6094 61.5804 33.2171 60.9727 33.9668 60.9727H57.0407C57.7904 60.9727 58.3981 61.5804 58.3981 62.3301V92.7062Z" fill="#0085F9"/>
<path d="M39.2216 92.7065H17.4934C17.2209 92.7065 17 92.4856 17 92.2131V71.6504C17 70.9007 17.6077 70.293 18.3574 70.293H37.8642C38.6139 70.293 39.2216 70.9007 39.2216 71.6504V92.7065Z" fill="#91B3FA"/>
<g opacity="0.3">
<path d="M14.6137 21.942C14.4116 21.9682 14.2182 21.838 14.1701 21.6355C14.0646 21.1925 13.977 20.7383 13.9094 20.2856C13.8765 20.0654 14.0283 19.8602 14.2485 19.8273C14.2511 19.8269 14.2537 19.8266 14.2563 19.8263C14.4735 19.7981 14.6743 19.9489 14.7067 20.1665C14.7709 20.5966 14.8543 21.028 14.9544 21.4489C15.006 21.6654 14.8721 21.8829 14.6555 21.9344C14.6416 21.9377 14.6276 21.9402 14.6137 21.942ZM14.187 18.4559C14.1714 18.458 14.1555 18.4591 14.1393 18.4593C13.9167 18.4619 13.7341 18.2834 13.7315 18.0608C13.7263 17.6035 13.7406 17.1415 13.7741 16.6876C13.7904 16.4655 13.9828 16.2994 14.2057 16.315C14.4278 16.3314 14.5945 16.5248 14.5781 16.7467C14.5463 17.1782 14.5328 17.6171 14.5378 18.0517C14.5402 18.2581 14.3869 18.43 14.187 18.4559ZM14.5386 14.9627C14.4941 14.9685 14.4479 14.9669 14.4015 14.9569C14.1839 14.9097 14.0456 14.6952 14.0927 14.4776C14.1891 14.0315 14.3062 13.5841 14.4407 13.1477C14.5065 12.935 14.7321 12.8159 14.9447 12.8812C15.1574 12.9468 15.2768 13.1725 15.2112 13.3852C15.0835 13.7996 14.9723 14.2244 14.8807 14.648C14.8437 14.8192 14.7029 14.9413 14.5386 14.9627ZM15.6627 11.6351C15.5891 11.6446 15.5121 11.634 15.44 11.6002C15.2384 11.5057 15.1517 11.2656 15.2462 11.0641C15.4402 10.6506 15.6543 10.2406 15.8827 9.84534C15.9942 9.65284 16.2406 9.58685 16.4335 9.69807C16.6262 9.80945 16.6922 10.056 16.5808 10.2489C16.3639 10.6242 16.1604 11.0136 15.9762 11.4066C15.9154 11.5359 15.7947 11.6179 15.6627 11.6351ZM17.5006 8.64175C17.3974 8.65516 17.2892 8.62885 17.2008 8.55983C17.0251 8.4229 16.9938 8.16956 17.1308 7.99406C17.4109 7.63485 17.7104 7.2825 18.021 6.94709C18.1721 6.78357 18.4272 6.77363 18.5907 6.92501C18.754 7.07623 18.7639 7.33125 18.6127 7.49477C18.3174 7.81354 18.0328 8.14844 17.7665 8.48981C17.6986 8.57696 17.602 8.62857 17.5006 8.64175ZM19.9547 6.1297C19.821 6.14706 19.6818 6.09716 19.5902 5.98522C19.4493 5.8128 19.4748 5.55894 19.6471 5.41794C20.0003 5.1291 20.3704 4.85173 20.747 4.59384C20.9308 4.46801 21.1816 4.515 21.3074 4.69875C21.4332 4.88231 21.3863 5.1333 21.2026 5.25909C20.8447 5.50421 20.4932 5.76761 20.1576 6.04207C20.0971 6.09149 20.0267 6.12031 19.9547 6.1297ZM34.4801 3.27492C34.4248 3.2821 34.3672 3.27783 34.3103 3.26046C33.8962 3.13355 33.471 3.02301 33.0465 2.93207C32.8288 2.8854 32.6901 2.6711 32.7368 2.45353C32.7834 2.2358 32.9977 2.09712 33.2155 2.14378C33.6625 2.23959 34.1104 2.35593 34.5465 2.4895C34.7594 2.55473 34.8791 2.78025 34.8138 2.99307C34.766 3.1492 34.6321 3.2552 34.4801 3.27492ZM22.9025 4.22521C22.7367 4.24676 22.5681 4.16289 22.4896 4.00476C22.3905 3.80531 22.4718 3.56339 22.6711 3.4643C23.0798 3.26118 23.5022 3.07339 23.9268 2.90612C24.1343 2.82548 24.368 2.92612 24.4497 3.1334C24.5313 3.34051 24.4295 3.57461 24.2223 3.65628C23.8191 3.81505 23.418 3.99342 23.03 4.18628C22.9887 4.20668 22.9457 4.21958 22.9025 4.22521ZM31.0279 2.63118C31.0015 2.63462 30.9744 2.63561 30.9468 2.63362C30.5145 2.6026 30.0751 2.58995 29.6409 2.59569C29.4183 2.59857 29.2354 2.42052 29.2325 2.19796C29.2296 1.9754 29.4074 1.79144 29.6302 1.78948C30.0871 1.78349 30.5494 1.79679 31.0043 1.82932C31.2264 1.84525 31.3936 2.03823 31.3776 2.26023C31.3637 2.45465 31.214 2.60703 31.0279 2.63118ZM26.2019 3.02693C26.0001 3.05311 25.8069 2.92341 25.7584 2.72121C25.7065 2.50467 25.8399 2.28714 26.0564 2.235C26.4996 2.12865 26.9535 2.04003 27.4053 1.9718C27.408 1.97128 27.4109 1.97088 27.4137 1.97052C27.6306 1.94234 27.8312 2.09272 27.8641 2.30998C27.8974 2.53018 27.746 2.73566 27.5257 2.76887C27.0966 2.83382 26.6656 2.9181 26.2444 3.01918C26.2303 3.02241 26.216 3.02509 26.2019 3.02693Z" fill="#91B3FA"/>
<path d="M37.0993 4.34505C37.0206 4.35527 36.938 4.34249 36.8622 4.30313C36.6777 4.20736 36.4881 4.11402 36.2987 4.02524C36.0971 3.9309 36.0101 3.69082 36.1045 3.48929C36.1989 3.28761 36.439 3.20034 36.6406 3.29515C36.8398 3.38837 37.0391 3.48666 37.2334 3.58734C37.431 3.68982 37.5081 3.93322 37.4057 4.13075C37.3425 4.25267 37.2258 4.32864 37.0993 4.34505Z" fill="#91B3FA"/>
</g>
<g opacity="0.3">
<path d="M44.9319 13.816C44.7389 13.841 44.5509 13.7232 44.4938 13.5306C44.4348 13.3314 44.3706 13.13 44.303 12.9322C44.231 12.7214 44.3435 12.4923 44.5541 12.4203C44.7657 12.348 44.994 12.4608 45.066 12.6714C45.1371 12.8797 45.2048 13.0918 45.267 13.3016C45.3302 13.5151 45.2084 13.7394 44.9949 13.8027C44.974 13.8089 44.9528 13.8132 44.9319 13.816Z" fill="#91B3FA"/>
<path d="M31.9233 33.8555C31.7393 33.8794 31.5543 33.9002 31.3682 33.9181C31.1465 33.9392 30.9496 33.7768 30.9284 33.5552C30.9071 33.3336 31.0706 33.1357 31.2912 33.1153C31.7207 33.0742 32.1475 33.0157 32.5647 32.9405C32.7841 32.9014 32.9934 33.0466 33.033 33.2657C33.0725 33.485 32.9268 33.6946 32.7077 33.734C32.4496 33.7806 32.1857 33.8214 31.9233 33.8555ZM29.2406 33.9758C29.2183 33.9787 29.1953 33.9798 29.172 33.9788C28.7226 33.9608 28.2689 33.9235 27.8237 33.868C27.6028 33.8405 27.446 33.639 27.4735 33.4182C27.5011 33.1973 27.7029 33.0399 27.9235 33.0681C28.3463 33.1208 28.7773 33.1561 29.2044 33.1734C29.4269 33.1823 29.5999 33.3699 29.591 33.5922C29.5829 33.7914 29.4318 33.951 29.2406 33.9758ZM34.7644 33.2141C34.5759 33.2386 34.3907 33.1266 34.3296 32.9393C34.2606 32.7275 34.3763 32.5001 34.5879 32.431C34.9929 32.299 35.3976 32.1478 35.7911 31.9814C35.9963 31.895 36.2327 31.9907 36.3194 32.1957C36.406 32.4009 36.31 32.6374 36.1049 32.7241C35.6906 32.8992 35.2643 33.0585 34.8379 33.1975C34.8135 33.2055 34.7889 33.2109 34.7644 33.2141ZM25.8227 33.4576C25.772 33.4642 25.7192 33.4611 25.6667 33.4471C25.2327 33.3309 24.7983 33.1947 24.3758 33.0423C24.1664 32.9668 24.0579 32.7358 24.1334 32.5265C24.2089 32.3169 24.4398 32.2083 24.6493 32.284C25.0505 32.4286 25.4629 32.558 25.8752 32.6683C26.0903 32.7258 26.2179 32.9469 26.1604 33.1619C26.1169 33.3245 25.98 33.4372 25.8227 33.4576ZM37.9093 31.7861C37.7547 31.8062 37.5957 31.7351 37.5108 31.5925C37.3969 31.4012 37.4596 31.1537 37.6509 31.0398C38.0167 30.8221 38.3783 30.5855 38.7257 30.3368C38.9067 30.2072 39.1586 30.2488 39.2882 30.4299C39.4177 30.611 39.3761 30.8627 39.195 30.9923C38.8293 31.2542 38.4486 31.5032 38.0634 31.7325C38.0147 31.7616 37.9622 31.7792 37.9093 31.7861ZM40.6647 29.7025C40.5411 29.7186 40.4118 29.6773 40.3196 29.5799C40.1666 29.4181 40.1737 29.1629 40.3355 29.0099C40.6457 28.7165 40.9472 28.4066 41.2315 28.0889C41.3798 27.9228 41.6345 27.9086 41.8007 28.0572C41.9666 28.2057 41.9808 28.4605 41.8323 28.6265C41.5331 28.9609 41.2159 29.287 40.8894 29.5957C40.8253 29.6565 40.7463 29.692 40.6647 29.7025ZM42.9004 27.0678C42.8064 27.0801 42.7079 27.0594 42.6231 27.0021C42.4386 26.8776 42.39 26.627 42.5146 26.4424C42.7537 26.0882 42.9806 25.7202 43.1887 25.3483C43.2974 25.1541 43.5429 25.0846 43.7374 25.1935C43.9316 25.3023 44.001 25.5478 43.8922 25.7422C43.6731 26.1335 43.4344 26.521 43.1828 26.8936C43.1154 26.9934 43.0111 27.0534 42.9004 27.0678ZM44.5082 24.0085C44.4431 24.0169 44.375 24.0096 44.3095 23.9839C44.1022 23.9027 44.0001 23.6689 44.0813 23.4616C44.2371 23.0639 44.3777 22.6551 44.4991 22.2465C44.5626 22.0331 44.7873 21.9115 45.0003 21.9748C45.2138 22.0382 45.3354 22.2627 45.2719 22.4761C45.1441 22.9065 44.996 23.337 44.832 23.7556C44.7763 23.8976 44.6493 23.9901 44.5082 24.0085ZM45.4055 20.6695C45.3689 20.6743 45.3309 20.674 45.2926 20.6681C45.0726 20.6346 44.9213 20.429 44.9548 20.209C45.019 19.7877 45.066 19.3583 45.0945 18.9322C45.1094 18.71 45.3022 18.5422 45.5237 18.557C45.7458 18.5718 45.9139 18.764 45.899 18.9862C45.869 19.4347 45.8195 19.8869 45.7519 20.3303C45.7242 20.512 45.5791 20.6469 45.4055 20.6695ZM45.5472 17.2173C45.539 17.2184 45.5307 17.2192 45.5224 17.2198C45.3003 17.2349 45.1079 17.0672 45.0927 16.8451C45.0713 16.5316 45.0399 16.215 44.9995 15.9039C44.9849 15.7914 44.969 15.6791 44.952 15.5675C44.9186 15.3473 45.0699 15.1417 45.29 15.1083C45.5122 15.0701 45.7156 15.2261 45.7491 15.4461C45.767 15.5637 45.7836 15.6816 45.7991 15.8001C45.8415 16.1273 45.8745 16.4604 45.897 16.7902C45.9117 17.0039 45.7568 17.1901 45.5472 17.2173Z" fill="#91B3FA"/>
<path d="M22.5933 32.1944C22.5139 32.2048 22.4306 32.1916 22.3543 32.1517C22.1611 32.0502 21.9663 31.9427 21.7755 31.8322C21.5828 31.7207 21.517 31.4741 21.6285 31.2814C21.7401 31.0887 21.9865 31.0228 22.1794 31.1344C22.3607 31.2393 22.5457 31.3414 22.7291 31.4378C22.9262 31.5411 23.0021 31.7849 22.8987 31.982C22.8352 32.1029 22.719 32.1781 22.5933 32.1944Z" fill="#91B3FA"/>
</g>
<path d="M22.5302 27.488C22.5886 27.5432 22.6757 27.5552 22.7469 27.518L24.7793 26.4559C25.7049 26.9946 26.723 27.3896 27.8027 27.6106L28.6106 29.7552C28.639 29.8304 28.7119 29.8793 28.7923 29.8771L31.5419 29.7995C31.6222 29.7972 31.6923 29.7442 31.7163 29.6675L32.402 27.4808C33.4675 27.1992 34.4617 26.7474 35.3554 26.1573L37.4445 27.1031C37.5177 27.1362 37.6039 27.1193 37.6591 27.0609L39.5485 25.0617C39.6037 25.0033 39.6158 24.9162 39.5786 24.845L38.5164 22.8127C39.0551 21.8871 39.4501 20.8689 39.6711 19.7892L41.8157 18.9813C41.8909 18.9529 41.9399 18.88 41.9376 18.7997L41.86 16.0501C41.8577 15.9697 41.8048 15.8997 41.728 15.8756L39.5413 15.19C39.2597 14.1245 38.808 13.1302 38.2178 12.2366L39.1637 10.1474C39.1967 10.0743 39.1798 9.98804 39.1214 9.93283L37.1223 8.04351C37.0639 7.98826 36.9768 7.97624 36.9056 8.01345L34.8732 9.07559C33.9477 8.53685 32.9295 8.14187 31.8498 7.92091L31.0419 5.77629C31.0135 5.70108 30.9406 5.65213 30.8603 5.65437L28.1107 5.73202C28.0303 5.73425 27.9603 5.78727 27.9362 5.864L27.2506 8.05077C26.185 8.3323 25.1908 8.78413 24.2971 9.37421L22.208 8.42843C22.1348 8.39525 22.0486 8.41222 21.9934 8.47062L20.1041 10.4698C20.0488 10.5282 20.0368 10.6152 20.074 10.6864L21.1361 12.7188C20.5974 13.6444 20.2024 14.6625 19.9814 15.7422L17.8368 16.5502C17.7616 16.5785 17.7126 16.6514 17.7149 16.7318L17.7925 19.4813C17.7948 19.5617 17.8478 19.6318 17.9245 19.6558L20.1112 20.3415C20.3928 21.407 20.8446 22.4012 21.4346 23.2949L20.4889 25.384C20.4557 25.4572 20.4727 25.5434 20.5311 25.5987L22.5302 27.488Z" fill="#91B3FA"/>
<path d="M30.1782 20.5076C28.8416 20.6812 27.5405 19.8522 27.1632 18.5175C26.7484 17.0503 27.6046 15.5194 29.0716 15.1047C29.7824 14.9035 30.5288 14.9916 31.1733 15.352C31.8179 15.7124 32.2836 16.3023 32.4844 17.0131C32.8992 18.4803 32.043 20.0111 30.5759 20.4259C30.4437 20.4633 30.3107 20.4904 30.1782 20.5076ZM29.5551 15.6621C29.4519 15.6755 29.3491 15.6965 29.2471 15.7253C28.1223 16.0432 27.4659 17.2172 27.7838 18.3419C28.1018 19.4668 29.2755 20.1237 30.4005 19.8053C31.5253 19.4873 32.1817 18.3134 31.8638 17.1887C31.7097 16.6437 31.3528 16.1914 30.8585 15.915C30.4568 15.6905 30.0034 15.6039 29.5551 15.6621Z" fill="#BDD0FB"/>
<path d="M30.7533 24.4606C30.5238 24.4905 30.2914 24.5089 30.0568 24.5156C29.983 24.5177 29.9091 24.5186 29.8353 24.5183C29.471 24.5168 29.1075 24.4864 28.7503 24.4275C28.7454 24.4267 28.7405 24.4259 28.7357 24.4251C28.7219 24.4228 28.7081 24.4205 28.6942 24.4179C28.6674 24.4134 28.6405 24.4084 28.6138 24.4035C28.5433 24.3904 28.4922 24.3334 28.4833 24.2659C28.4812 24.2495 28.4816 24.2324 28.4847 24.2154C28.501 24.1278 28.5853 24.0703 28.6728 24.0864C29.1233 24.1704 29.5858 24.2062 30.0476 24.193C32.3415 24.1286 34.3264 22.8723 35.4256 21.0355C36.0371 20.0139 36.3744 18.8127 36.3383 17.5368C36.332 17.3131 36.3145 17.0913 36.286 16.8724C36.0944 15.3989 35.4076 14.0473 34.3131 13.013C33.0559 11.8248 31.4113 11.1973 29.6822 11.2462C26.1112 11.3474 23.2907 14.3331 23.3915 17.9023C23.3977 18.1224 23.4151 18.3414 23.4433 18.5582C23.5656 19.4982 23.8921 20.4009 24.4027 21.2004C24.4159 21.2211 24.4238 21.2436 24.4267 21.2664C24.4345 21.3264 24.408 21.3884 24.3536 21.4231C24.2784 21.4708 24.1789 21.4493 24.1309 21.3739C23.5948 20.5344 23.2519 19.5867 23.1236 18.5999C23.0939 18.3723 23.0757 18.1425 23.0692 17.9115C22.9633 14.164 25.927 11.0295 29.6731 10.9237C31.4884 10.8724 33.2149 11.5312 34.5347 12.7786C35.6838 13.8644 36.4047 15.2833 36.6059 16.8301C36.6358 17.06 36.6542 17.2928 36.6609 17.5276C36.7121 19.3429 36.0534 21.0695 34.8061 22.3893C33.7199 23.5387 32.3005 24.2596 30.7533 24.4606Z" fill="#BDD0FB"/>
<g opacity="0.3">
<path d="M2.3388 34.2488C2.23197 34.2627 2.12454 34.2057 2.07895 34.1021C1.99376 33.9086 1.91328 33.7099 1.83979 33.5116C1.79204 33.3826 1.85779 33.2395 1.98678 33.1916C2.11572 33.1432 2.25896 33.2097 2.30675 33.3386C2.37677 33.5276 2.45346 33.717 2.53474 33.9016C2.59015 34.0273 2.53298 34.1742 2.40719 34.2298C2.38479 34.2396 2.36184 34.2458 2.3388 34.2488Z" fill="#91B3FA"/>
<path d="M1.732 32.4325C1.60684 32.4488 1.48724 32.368 1.45786 32.2426C1.37454 31.8883 1.30855 31.5256 1.26168 31.1649C1.25182 31.089 1.2428 31.0126 1.23442 30.936C1.21969 30.7991 1.32639 30.6806 1.4551 30.6614C1.59183 30.6466 1.71463 30.7454 1.72956 30.882C1.7375 30.9552 1.74609 31.0282 1.75551 31.1007C1.80022 31.4448 1.86318 31.7907 1.94246 32.1286C1.97396 32.2625 1.89096 32.3964 1.75715 32.428C1.74868 32.4298 1.7403 32.4314 1.732 32.4325ZM1.45327 29.8623C1.44161 29.8638 1.42955 29.8647 1.41754 29.8645C1.27997 29.8625 1.17002 29.7495 1.1719 29.612C1.17785 29.1708 1.2113 28.7261 1.2713 28.2904C1.28999 28.1542 1.41634 28.0593 1.55191 28.0777C1.68824 28.0965 1.78334 28.222 1.76465 28.3583C1.70745 28.774 1.67563 29.1981 1.66984 29.6189C1.66804 29.7442 1.57411 29.8466 1.45327 29.8623ZM1.80617 27.3013C1.77483 27.3054 1.74222 27.3035 1.70984 27.295C1.57702 27.2595 1.49818 27.1229 1.53367 26.99C1.64756 26.5645 1.78924 26.1413 1.95512 25.7326C2.00682 25.605 2.15165 25.5438 2.27948 25.5955C2.40683 25.6472 2.46823 25.7924 2.41661 25.9198C2.25848 26.3096 2.12327 26.7129 2.0148 27.1188C1.98785 27.2191 1.90322 27.2887 1.80617 27.3013ZM2.7779 24.9053C2.72676 24.9119 2.67322 24.9027 2.62476 24.8759C2.50471 24.8089 2.46156 24.657 2.52863 24.537C2.74376 24.1516 2.98457 23.7763 3.2447 23.4213C3.32606 23.3104 3.48199 23.2868 3.59265 23.3678C3.70359 23.449 3.72763 23.6047 3.64635 23.7159C3.3984 24.0541 3.16857 24.4122 2.96353 24.7797C2.92353 24.8513 2.85351 24.8954 2.7779 24.9053ZM4.30533 22.8194C4.23395 22.8286 4.15906 22.807 4.10249 22.7538C4.00237 22.6596 3.99762 22.5021 4.09171 22.4019C4.3938 22.0809 4.71844 21.7754 5.05681 21.4941C5.16256 21.4058 5.31953 21.4205 5.40744 21.5263C5.49535 21.6321 5.48094 21.7891 5.37526 21.8769C5.05242 22.1454 4.74267 22.4367 4.45456 22.7432C4.41348 22.7867 4.36042 22.8122 4.30533 22.8194ZM6.29246 21.1675C6.2 21.1796 6.10447 21.1387 6.05065 21.055C5.97644 20.9394 6.01013 20.7854 6.12578 20.711C6.49673 20.4731 6.88613 20.256 7.28295 20.0662C7.40754 20.0071 7.55569 20.0594 7.61509 20.1834C7.67446 20.3073 7.62196 20.4561 7.498 20.5154C7.11951 20.6964 6.74844 20.9033 6.39482 21.1302C6.36276 21.1508 6.32779 21.163 6.29246 21.1675ZM8.62255 20.052C8.50682 20.0671 8.39288 19.9988 8.35456 19.8841C8.311 19.7537 8.38142 19.6126 8.51185 19.5689C8.92851 19.4297 9.35938 19.3149 9.79253 19.2275C9.92806 19.2025 10.0588 19.2878 10.0858 19.4225C10.113 19.5573 10.0257 19.6885 9.89101 19.7158C9.47774 19.799 9.06679 19.9085 8.66954 20.0412C8.65397 20.0465 8.63824 20.05 8.62255 20.052ZM12.452 19.5227C12.4378 19.5245 12.423 19.5253 12.4081 19.5245C12.0455 19.5076 11.6756 19.5103 11.3086 19.5325C11.253 19.5355 11.1984 19.5392 11.144 19.5435C11.0069 19.554 10.8871 19.4516 10.8766 19.3145C10.8657 19.1771 10.9688 19.0533 11.1055 19.0469C11.1635 19.0425 11.2215 19.0385 11.2798 19.0353C11.6632 19.0122 12.051 19.0094 12.4313 19.0272C12.5687 19.0336 12.6748 19.15 12.6684 19.2874C12.6627 19.4098 12.5696 19.5075 12.452 19.5227Z" fill="#91B3FA"/>
</g>
<g opacity="0.3">
<path d="M13.4545 40.4134C13.3197 40.4309 13.1954 40.3367 13.176 40.2017C13.1565 40.0657 13.2511 39.9394 13.3872 39.92C13.797 39.8614 14.2068 39.7772 14.605 39.6699C14.7372 39.6355 14.8745 39.7126 14.9103 39.8455C14.9461 39.9784 14.8673 40.1149 14.7346 40.1507C14.3169 40.2631 13.8875 40.3515 13.4579 40.413C13.4568 40.4131 13.4556 40.4133 13.4545 40.4134ZM12.1849 40.5177C12.176 40.5189 12.1671 40.5195 12.158 40.5198C11.7246 40.5295 11.2863 40.5129 10.8551 40.4706C10.7183 40.4569 10.6182 40.3353 10.6317 40.1985C10.6451 40.0614 10.7677 39.9619 10.9037 39.9749C11.3152 40.0153 11.7334 40.0311 12.147 40.022C12.2844 40.0188 12.3983 40.1279 12.4014 40.2653C12.4042 40.3939 12.3093 40.5016 12.1849 40.5177ZM15.9091 39.7513C15.7996 39.7655 15.69 39.7052 15.6464 39.5981C15.5947 39.4709 15.6559 39.3257 15.7833 39.2738C16.1669 39.1175 16.5443 38.9369 16.9048 38.7363C17.0255 38.6698 17.1766 38.7127 17.2434 38.833C17.3102 38.9531 17.2669 39.1048 17.1468 39.1717C16.7688 39.3819 16.3731 39.5713 15.9709 39.7349C15.9505 39.7432 15.9298 39.7486 15.9091 39.7513ZM9.65349 40.2674C9.62542 40.2711 9.5962 40.27 9.56694 40.2635C9.14369 40.1686 8.722 40.0466 8.3138 39.9008C8.18426 39.8546 8.11679 39.7121 8.16298 39.5825C8.20925 39.4534 8.35173 39.3859 8.48116 39.4318C8.87043 39.5708 9.27236 39.687 9.67592 39.7776C9.81006 39.8077 9.89449 39.9409 9.86439 40.075C9.84084 40.1799 9.75429 40.2543 9.65349 40.2674ZM18.1306 38.5155C18.0432 38.5268 17.9524 38.4913 17.897 38.4151C17.816 38.3038 17.8406 38.1481 17.9517 38.0672C18.2859 37.8242 18.6085 37.5582 18.9109 37.2762C19.0116 37.1822 19.1692 37.1879 19.2629 37.2886C19.3566 37.3892 19.3511 37.5468 19.2505 37.6406C18.9334 37.936 18.5951 38.2151 18.2448 38.47C18.2099 38.4954 18.1705 38.5103 18.1306 38.5155ZM19.9909 36.7828C19.924 36.7915 19.8539 36.7732 19.7983 36.7264C19.6931 36.6378 19.6796 36.4807 19.7682 36.3755C20.035 36.0586 20.2848 35.7229 20.5108 35.3777C20.5862 35.2625 20.7407 35.2304 20.8556 35.3057C20.9706 35.381 21.0028 35.5352 20.9275 35.6502C20.6906 36.0122 20.4288 36.3643 20.1492 36.6963C20.1075 36.7459 20.0505 36.7751 19.9909 36.7828ZM21.3827 34.6542C21.3356 34.6603 21.2864 34.6532 21.2407 34.6305C21.1173 34.5697 21.0667 34.4204 21.1275 34.297C21.3109 33.9257 21.4728 33.5398 21.6089 33.1502C21.6544 33.0207 21.7964 32.952 21.9261 32.9974C22.0559 33.0428 22.1244 33.1847 22.079 33.3147C21.9361 33.7231 21.7664 34.1279 21.5742 34.5175C21.5358 34.5951 21.4625 34.6438 21.3827 34.6542Z" fill="#91B3FA"/>
<path d="M7.24614 39.4085C7.19851 39.4147 7.14861 39.4072 7.10246 39.384C6.91203 39.2883 6.7236 39.1865 6.54228 39.0816C6.42336 39.0127 6.3826 38.8603 6.45146 38.7413C6.52057 38.6227 6.67262 38.5819 6.79179 38.6505C6.96465 38.7506 7.14449 38.8477 7.32618 38.9391C7.44905 39.0008 7.49856 39.1506 7.4368 39.2733C7.39816 39.35 7.32534 39.3982 7.24614 39.4085Z" fill="#91B3FA"/>
</g>
<path d="M7.03856 36.1922C7.07764 36.2291 7.13588 36.2372 7.18355 36.2123L8.54355 35.5016C9.16289 35.862 9.84419 36.1264 10.5667 36.2742L11.1073 37.7093C11.1263 37.7596 11.1751 37.7924 11.2289 37.7909L13.0688 37.739C13.1225 37.7374 13.1694 37.7019 13.1855 37.6506L13.6443 36.1874C14.3573 35.999 15.0226 35.6966 15.6207 35.3018L17.0186 35.9347C17.0676 35.9568 17.1253 35.9455 17.1622 35.9064L18.4265 34.5687C18.4635 34.5295 18.4715 34.4713 18.4466 34.4237L17.7359 33.0637C18.0964 32.4444 18.3607 31.7631 18.5086 31.0405L19.9436 30.4999C19.994 30.481 20.0267 30.4322 20.0252 30.3784L19.9733 28.5385C19.9718 28.4847 19.9363 28.4378 19.885 28.4218L18.4217 27.963C18.2333 27.2499 17.931 26.5847 17.5361 25.9867L18.169 24.5887C18.1912 24.5397 18.1798 24.482 18.1407 24.4451L16.803 23.1808C16.7639 23.1438 16.7056 23.1358 16.658 23.1607L15.298 23.8715C14.6787 23.5109 13.9973 23.2466 13.2748 23.0988L12.7342 21.6637C12.7152 21.6134 12.6664 21.5806 12.6127 21.5821L10.7728 21.6341C10.719 21.6356 10.6721 21.671 10.656 21.7224L10.1973 23.1856C9.48422 23.374 8.81893 23.6764 8.22091 24.0712L6.82302 23.4383C6.774 23.4162 6.71631 23.4275 6.67938 23.4666L5.41511 24.8043C5.37818 24.8434 5.37008 24.9017 5.39499 24.9493L6.10571 26.3093C5.74522 26.9286 5.48094 27.6099 5.33307 28.3324L3.89798 28.873C3.84768 28.892 3.8149 28.9408 3.81646 28.9946L3.8684 30.8344C3.86996 30.8882 3.90536 30.9351 3.9567 30.9512L5.41998 31.41C5.60837 32.123 5.9107 32.7883 6.30552 33.3863L5.67265 34.7842C5.65045 34.8333 5.66183 34.8909 5.70091 34.9279L7.03856 36.1922Z" fill="#91B3FA"/>
<path d="M12.1574 31.5543C11.7591 31.6061 11.3563 31.5292 10.9994 31.3296C10.5603 31.0841 10.2432 30.6822 10.1064 30.198C9.82388 29.199 10.407 28.1562 11.4063 27.8735C12.4075 27.5924 13.4486 28.1743 13.7311 29.1735C13.868 29.6577 13.8081 30.1661 13.5626 30.6051C13.317 31.0443 12.9152 31.3615 12.4309 31.4982C12.3404 31.5237 12.249 31.5424 12.1574 31.5543ZM11.741 28.3118C11.6746 28.3204 11.6081 28.3339 11.5417 28.3526C10.8067 28.5606 10.3778 29.3276 10.5856 30.0627C10.6863 30.4186 10.9195 30.7145 11.2424 30.8949C11.5655 31.0755 11.9394 31.1192 12.2956 31.019C12.6516 30.9183 12.9473 30.685 13.1279 30.3621C13.3085 30.039 13.3525 29.665 13.2518 29.3088C13.0629 28.6403 12.4107 28.2248 11.741 28.3118Z" fill="#BDD0FB"/>
<path d="M12.5522 34.3072C12.396 34.3275 12.2375 34.34 12.0768 34.3447C11.7576 34.3538 11.4372 34.3305 11.1236 34.2751C11.1095 34.2725 11.0955 34.2699 11.0814 34.2673C10.9726 34.2471 10.8936 34.159 10.88 34.0549C10.8767 34.0295 10.8773 34.0032 10.8822 33.9769C10.9073 33.8417 11.0375 33.7531 11.1725 33.7778C11.4648 33.8323 11.7642 33.8554 12.0625 33.8468H12.0626C12.079 33.8464 12.0954 33.8457 12.1117 33.8451C12.8174 33.8184 13.4898 33.6168 14.0813 33.2654C14.4023 33.0746 14.6996 32.8393 14.9652 32.5633C14.9674 32.561 14.9695 32.5588 14.9717 32.5566C14.9783 32.5495 14.9849 32.5428 14.9913 32.5358C15.7605 31.7219 16.1668 30.6572 16.1351 29.5379C16.1311 29.393 16.1197 29.2496 16.1013 29.1078C15.9772 28.1539 15.5326 27.2789 14.824 26.6092C14.0101 25.84 12.9454 25.434 11.8261 25.4656C10.7075 25.4976 9.66672 25.9629 8.89743 26.7766C8.1283 27.5905 7.72202 28.6552 7.75368 29.7746C7.75759 29.917 7.76889 30.0587 7.78714 30.199C7.86634 30.8077 8.07768 31.3919 8.40823 31.9095C8.42859 31.9415 8.44081 31.9761 8.44528 32.0114C8.4573 32.1039 8.41642 32.1998 8.33242 32.2533C8.21633 32.327 8.06263 32.2935 7.98846 32.1774C7.61863 31.5982 7.38205 30.9443 7.29339 30.2637C7.27295 30.1065 7.26033 29.948 7.25582 29.7887C7.22049 28.5362 7.67496 27.3451 8.53558 26.4345C9.39613 25.5241 10.559 25.0023 11.812 24.9677C13.0643 24.9323 14.2554 25.3866 15.166 26.2474C15.9588 26.9965 16.4561 27.9754 16.5949 29.0426C16.6155 29.2011 16.6283 29.3617 16.6329 29.5237C16.7012 31.9484 14.9078 34.0012 12.5522 34.3072Z" fill="#BDD0FB"/>
<path d="M34.3093 31.5752L31.2656 36.2577C32.6816 39.0162 34.2543 40.539 35.8276 41.2629C36.1086 39.5443 37.1123 38.1178 37.8492 37.2705C35.0424 35.6739 34.3093 31.5752 34.3093 31.5752Z" fill="url(#paint1_linear_1919_847)"/>
<path d="M44.7673 36.4297C41.6511 38.2741 39.4241 38.1659 37.8497 37.2703C37.1127 38.1176 36.1091 39.5442 35.8281 41.2627C40.8299 43.564 45.8385 37.7717 45.8385 37.7717L44.7673 36.4297Z" fill="url(#paint2_linear_1919_847)"/>
<path d="M44.937 37.2309C44.937 37.2309 44.0958 35.7643 45.3056 34.6381C45.3056 34.6381 45.6956 34.1932 46.1239 34.8469C46.1239 34.8469 47.4254 33.6654 47.7813 34.1413C48.1372 34.6172 49.0806 35.7957 48.1593 37.1398C47.2275 38.4992 45.3479 37.8934 44.937 37.2309Z" fill="url(#paint3_linear_1919_847)"/>
<path d="M46.2158 36.4159C46.0916 36.4159 45.9585 36.3929 45.8407 36.3231C45.7258 36.2551 45.5812 36.1132 45.5442 35.8229C45.5336 35.7395 45.5926 35.6632 45.676 35.6525C45.7589 35.6425 45.8357 35.7009 45.8463 35.7843C45.8637 35.921 45.9124 36.0114 45.9953 36.0608C46.1108 36.1296 46.2824 36.1156 46.4098 36.0881L46.115 35.1532C46.0897 35.073 46.1341 34.9875 46.2143 34.9622C46.2944 34.9368 46.3801 34.9814 46.4053 35.0616L46.7468 36.1447C46.7709 36.221 46.7318 36.3029 46.6573 36.3321C46.6259 36.3445 46.4347 36.4159 46.2158 36.4159Z" fill="#F79E6D"/>
<path d="M0.665064 67.876C0.394237 68.039 0.255829 68.3823 0.320382 68.7188C0.574402 70.0427 1.40952 73.5399 3.438 75.6103C3.57198 75.747 3.76688 75.7348 3.88464 75.6116C3.37098 75.0764 2.73411 74.1618 1.98958 72.6083C0.845349 70.2208 0.633446 68.7482 0.665064 67.876Z" fill="url(#paint4_linear_1919_847)"/>
<path d="M3.2863 67.8272C3.2863 67.8272 1.9784 67.1158 0.676084 67.8703C0.67281 67.8722 0.670175 67.8748 0.666982 67.8767C0.635324 68.7489 0.847226 70.2215 1.99149 72.609C2.73599 74.1625 3.37289 75.0772 3.88656 75.6123C3.92385 75.5733 3.95383 75.5238 3.9712 75.4635C4.35221 74.1398 5.15674 70.4619 3.2863 67.8272Z" fill="url(#paint5_linear_1919_847)"/>
<path d="M5.17587 67.9088L3.99064 69.046C3.78101 69.2471 3.45952 69.2795 3.21748 69.1188C3.00634 68.9787 2.77128 68.7488 2.61483 68.3764C2.52093 68.1528 2.566 67.8942 2.72912 67.7148L3.91239 66.4132C4.1948 66.1026 4.69729 66.1539 4.91099 66.5154L5.28098 67.1411C5.42833 67.3904 5.38481 67.7084 5.17587 67.9088Z" fill="url(#paint6_linear_1919_847)"/>
<path d="M43.4844 62.2051C43.76 62.36 44.1268 62.3106 44.3874 62.0882C45.4128 61.213 48.0403 58.7586 48.8375 55.9719C48.8901 55.7879 48.7833 55.6245 48.6179 55.583C48.4066 56.294 47.9262 57.2998 46.9437 58.7148C45.4337 60.8895 44.2583 61.8015 43.4844 62.2051Z" fill="url(#paint7_linear_1919_847)"/>
<path d="M42.1445 59.9522C42.1445 59.9522 42.1725 61.4408 43.4721 62.2C43.4753 62.202 43.4789 62.203 43.4821 62.2048C44.256 61.8012 45.4314 60.8892 46.9414 58.7145C47.924 57.2995 48.4043 56.2937 48.6157 55.5827C48.5634 55.5696 48.5055 55.568 48.4445 55.5827C47.1054 55.9057 43.5105 57.024 42.1445 59.9522Z" fill="url(#paint8_linear_1919_847)"/>
<path d="M42.0535 57.4874L43.292 58.5663C43.5111 58.7572 43.5721 59.0745 43.4337 59.3299C43.3129 59.5527 43.105 59.8073 42.748 59.9965C42.5337 60.11 42.2721 60.0882 42.0789 59.9418L40.6768 58.8795C40.3421 58.6259 40.3485 58.1209 40.6893 57.8758L41.2795 57.4513C41.5147 57.2823 41.8352 57.2972 42.0535 57.4874Z" fill="url(#paint9_linear_1919_847)"/>
<path d="M17.2011 46.5674C17.2011 46.5674 14.7845 54.8003 13.2221 58.4188C13.2221 58.4188 10.4908 58.8355 8.80037 59.8232C7.10994 60.8109 3.46875 66.2853 3.46875 66.2853C3.46875 66.2853 4.41968 68.0905 5.56698 68.3675L15.9324 61.1854L24.205 51.565L23.8123 47.1029L17.2011 46.5674Z" fill="url(#paint10_linear_1919_847)"/>
<path d="M17.3517 45.8955L16.6445 48.15C16.6445 48.15 17.2913 54.0607 24.7429 53.064C32.1944 52.0673 33.1309 50.8508 33.1309 50.8508C33.1309 50.8508 32.4841 54.6258 40.6321 59.1645C40.6321 59.1645 41.8706 58.2296 42.1432 57.1679L36.4332 47.7568C35.639 46.5224 34.9025 46.1972 33.4522 46.4241C30.2456 46.9256 24.2411 47.5792 23.3324 47.4241L17.3517 45.8955Z" fill="url(#paint11_linear_1919_847)"/>
<path d="M23.1729 29.1315C21.0014 29.2419 17.5688 30.2742 15.3516 32.3154C16.0331 33.0678 17.0818 34.291 17.8634 35.4993C18.5619 34.8435 19.5649 34.2974 20.9771 33.9476C19.7565 38.5098 18.3137 42.8562 16.5554 46.8965C16.4454 47.1493 16.5707 47.4419 16.8311 47.5326C18.1916 48.0067 22.2038 49.1358 25.4218 47.3174L32.5562 37.1017C33.3235 36.003 33.8279 34.7427 34.0304 33.418L34.3121 31.5751C34.3121 31.5751 27.9046 28.8909 23.1729 29.1315Z" fill="url(#paint12_linear_1919_847)"/>
<path d="M19.2835 44.5906C18.9734 43.9059 17.9118 43.2662 17.4052 42.9913C16.9644 42.0828 15.205 37.9965 17.8649 35.4993C17.0832 34.291 16.0346 33.0677 15.3531 32.3154C12.7948 34.6707 11.8583 38.3704 16.3445 43.5507C16.0996 44.8266 16.8986 46.3124 17.3306 46.5206C17.5296 46.6166 19.6956 45.5005 19.2835 44.5906Z" fill="url(#paint13_linear_1919_847)"/>
<path d="M27.9891 26.418L26.1252 30.0663C26.0115 30.2889 26.0453 30.5579 26.2123 30.7438C26.6636 31.2465 27.7296 32.063 29.5838 31.4778C29.7882 31.4133 29.9353 31.2336 29.9664 31.0215L30.4518 27.7081L27.9891 26.418Z" fill="url(#paint14_linear_1919_847)"/>
<path d="M31.0995 22.1816C31.0995 22.1816 32.1927 24.693 32.2662 26.0111C32.3396 27.3292 32.6236 28.1845 31.0995 28.45C29.5754 28.7154 28.2915 27.9562 27.5959 26.6432C27.5959 26.6432 26.5061 24.62 26.7506 23.7914C26.995 22.9628 31.0995 22.1816 31.0995 22.1816Z" fill="url(#paint15_linear_1919_847)"/>
<path d="M28.1173 25.6983L28.204 25.6601C28.3145 25.6114 28.3617 25.4799 28.3062 25.3727C28.0913 24.9574 27.6723 24.0058 28.2136 23.7839C28.9111 23.4978 31.6742 22.9344 32.2703 21.9539C32.8433 21.0117 32.3356 19.7953 31.5727 19.4494C31.5216 19.4262 31.4614 19.4446 31.4352 19.4942L31.3716 19.6144C31.3281 19.6968 31.2065 19.6843 31.1806 19.5948C31.1557 19.5089 31.0414 19.4923 30.9941 19.5681C30.8109 19.8614 30.3161 20.3369 28.9931 20.5811C27.1129 20.9281 25.8698 21.689 25.8388 22.9883C25.8369 23.0708 25.7491 23.1167 25.6786 23.0738C25.5397 22.9891 25.3176 22.9494 25.0207 23.1991C24.5043 23.6333 24.7156 24.7596 25.8476 25.6861C25.9014 25.7301 25.9009 25.8141 25.8427 25.852C25.6375 25.9855 25.3316 26.3034 26.1242 26.7271C26.9441 27.1654 27.5564 27.1295 27.7922 27.0905C27.8508 27.0808 27.8886 27.0241 27.8758 26.966L27.6242 25.8241C27.61 25.7594 27.6592 25.6982 27.7253 25.6982H28.1173V25.6983Z" fill="url(#paint16_linear_1919_847)"/>
<path d="M28.1625 25.94C28.1625 25.94 27.7454 24.3358 27.0262 24.7856C26.3069 25.2354 27.3994 26.5831 27.9776 26.6431L28.1625 25.94Z" fill="url(#paint17_linear_1919_847)"/>
<defs>
<linearGradient id="paint0_linear_1919_847" x1="110.957" y1="120.678" x2="10.5099" y2="6.24508" gradientUnits="userSpaceOnUse">
<stop stop-color="#DAE3FE"/>
<stop offset="1" stop-color="#E9EFFD"/>
</linearGradient>
<linearGradient id="paint1_linear_1919_847" x1="9.07867" y1="68.4065" x2="30.3711" y2="42.2004" gradientUnits="userSpaceOnUse">
<stop stop-color="#4F52FF"/>
<stop offset="1" stop-color="#4042E2"/>
</linearGradient>
<linearGradient id="paint2_linear_1919_847" x1="47.0454" y1="35.5825" x2="24.1781" y2="46.6601" gradientUnits="userSpaceOnUse">
<stop stop-color="#FEBBBA"/>
<stop offset="1" stop-color="#FF928E"/>
</linearGradient>
<linearGradient id="paint3_linear_1919_847" x1="47.1546" y1="35.8068" x2="24.2873" y2="46.8843" gradientUnits="userSpaceOnUse">
<stop stop-color="#FEBBBA"/>
<stop offset="1" stop-color="#FF928E"/>
</linearGradient>
<linearGradient id="paint4_linear_1919_847" x1="0.304697" y1="71.7922" x2="3.88468" y2="71.7922" gradientUnits="userSpaceOnUse">
<stop stop-color="#09005D"/>
<stop offset="1" stop-color="#1A0F91"/>
</linearGradient>
<linearGradient id="paint5_linear_1919_847" x1="0.664043" y1="71.5679" x2="4.47363" y2="71.5679" gradientUnits="userSpaceOnUse">
<stop stop-color="#09005D"/>
<stop offset="1" stop-color="#1A0F91"/>
</linearGradient>
<linearGradient id="paint6_linear_1919_847" x1="2.56638" y1="67.715" x2="5.36781" y2="67.715" gradientUnits="userSpaceOnUse">
<stop stop-color="#FEBBBA"/>
<stop offset="1" stop-color="#FF928E"/>
</linearGradient>
<linearGradient id="paint7_linear_1919_847" x1="43.4844" y1="58.939" x2="48.851" y2="58.939" gradientUnits="userSpaceOnUse">
<stop stop-color="#09005D"/>
<stop offset="1" stop-color="#1A0F91"/>
</linearGradient>
<linearGradient id="paint8_linear_1919_847" x1="42.1445" y1="58.8885" x2="48.6157" y2="58.8885" gradientUnits="userSpaceOnUse">
<stop stop-color="#09005D"/>
<stop offset="1" stop-color="#1A0F91"/>
</linearGradient>
<linearGradient id="paint9_linear_1919_847" x1="40.4297" y1="58.7013" x2="43.5076" y2="58.7013" gradientUnits="userSpaceOnUse">
<stop stop-color="#FEBBBA"/>
<stop offset="1" stop-color="#FF928E"/>
</linearGradient>
<linearGradient id="paint10_linear_1919_847" x1="3.46877" y1="57.4674" x2="24.205" y2="57.4674" gradientUnits="userSpaceOnUse">
<stop stop-color="#09005D"/>
<stop offset="1" stop-color="#1A0F91"/>
</linearGradient>
<linearGradient id="paint11_linear_1919_847" x1="54.1085" y1="58.0105" x2="24.0808" y2="48.4563" gradientUnits="userSpaceOnUse">
<stop stop-color="#09005D"/>
<stop offset="1" stop-color="#1A0F91"/>
</linearGradient>
<linearGradient id="paint12_linear_1919_847" x1="1.89888" y1="62.5706" x2="23.1914" y2="36.3645" gradientUnits="userSpaceOnUse">
<stop stop-color="#4F52FF"/>
<stop offset="1" stop-color="#4042E2"/>
</linearGradient>
<linearGradient id="paint13_linear_1919_847" x1="18.6704" y1="43.0602" x2="5.0608" y2="19.006" gradientUnits="userSpaceOnUse">
<stop stop-color="#FEBBBA"/>
<stop offset="1" stop-color="#FF928E"/>
</linearGradient>
<linearGradient id="paint14_linear_1919_847" x1="27.2693" y1="32.7659" x2="28.6936" y2="28.7042" gradientUnits="userSpaceOnUse">
<stop stop-color="#FEBBBA"/>
<stop offset="1" stop-color="#FF928E"/>
</linearGradient>
<linearGradient id="paint15_linear_1919_847" x1="31.3287" y1="24.3922" x2="25.079" y2="29.1741" gradientUnits="userSpaceOnUse">
<stop stop-color="#FEBBBA"/>
<stop offset="1" stop-color="#FF928E"/>
</linearGradient>
<linearGradient id="paint16_linear_1919_847" x1="26.9297" y1="20.6051" x2="32.7503" y2="28.0991" gradientUnits="userSpaceOnUse">
<stop stop-color="#09005D"/>
<stop offset="1" stop-color="#1A0F91"/>
</linearGradient>
<linearGradient id="paint17_linear_1919_847" x1="30.5519" y1="23.379" x2="24.3022" y2="28.1609" gradientUnits="userSpaceOnUse">
<stop stop-color="#FEBBBA"/>
<stop offset="1" stop-color="#FF928E"/>
</linearGradient>
</defs>
</svg>
